<?xml version="1.0" encoding="UTF-8" standalone="no"?>
<!-- Created with Inkscape (http://www.inkscape.org/) -->
<svg
   xmlns:i="&amp;ns_ai;"
   xmlns:dc="http://purl.org/dc/elements/1.1/"
   xmlns:cc="http://creativecommons.org/ns#"
   xmlns:rdf="http://www.w3.org/1999/02/22-rdf-syntax-ns#"
   xmlns:svg="http://www.w3.org/2000/svg"
   xmlns="http://www.w3.org/2000/svg"
   xmlns:xlink="http://www.w3.org/1999/xlink"
   xmlns:sodipodi="http://sodipodi.sourceforge.net/DTD/sodipodi-0.dtd"
   xmlns:inkscape="http://www.inkscape.org/namespaces/inkscape"
   width="48"
   height="48"
   id="svg1"
   sodipodi:version="0.32"
   inkscape:version="0.46"
   sodipodi:docbase="/home/dobey/Projects/gnome-icon-theme/scalable/places"
   sodipodi:docname="blutrash48full.svg"
   version="1.0"
   inkscape:output_extension="org.inkscape.output.svg.inkscape">
  <defs
     id="defs3">
    <radialGradient
       inkscape:collect="always"
       xlink:href="#linearGradient5060"
       id="radialGradient2099"
       gradientUnits="userSpaceOnUse"
       gradientTransform="matrix(-2.774389,0,0,1.969706,112.7623,-872.8854)"
       cx="605.71429"
       cy="486.64789"
       fx="605.71429"
       fy="486.64789"
       r="117.14286" />
    <linearGradient
       id="linearGradient5060"
       inkscape:collect="always">
      <stop
         id="stop5062"
         offset="0"
         style="stop-color:black;stop-opacity:1;" />
      <stop
         id="stop5064"
         offset="1"
         style="stop-color:black;stop-opacity:0;" />
    </linearGradient>
    <radialGradient
       inkscape:collect="always"
       xlink:href="#linearGradient5060"
       id="radialGradient2097"
       gradientUnits="userSpaceOnUse"
       gradientTransform="matrix(2.774389,0,0,1.969706,-1891.633,-872.8854)"
       cx="605.71429"
       cy="486.64789"
       fx="605.71429"
       fy="486.64789"
       r="117.14286" />
    <linearGradient
       id="linearGradient5048">
      <stop
         id="stop5050"
         offset="0"
         style="stop-color:black;stop-opacity:0;" />
      <stop
         style="stop-color:black;stop-opacity:1;"
         offset="0.5"
         id="stop5056" />
      <stop
         id="stop5052"
         offset="1"
         style="stop-color:black;stop-opacity:0;" />
    </linearGradient>
    <linearGradient
       inkscape:collect="always"
       xlink:href="#linearGradient5048"
       id="linearGradient2095"
       gradientUnits="userSpaceOnUse"
       gradientTransform="matrix(2.774389,0,0,1.969706,-1892.179,-872.8854)"
       x1="302.85715"
       y1="366.64789"
       x2="302.85715"
       y2="609.50507" />
    <linearGradient
       id="linearGradient508">
      <stop
         id="stop509"
         offset="0.0000000"
         style="stop-color:#b0b0b0;stop-opacity:1.0000000;" />
      <stop
         id="stop510"
         offset="1.0000000"
         style="stop-color:#b0b0b0;stop-opacity:1.0000000;" />
    </linearGradient>
    <linearGradient
       y2="14.744809"
       x2="20.135639"
       y1="8.7251825"
       x1="9.9626188"
       gradientTransform="matrix(1.027326,-0.134612,0.528454,0.536480,8.122160,4.863400)"
       gradientUnits="userSpaceOnUse"
       id="linearGradient613"
       xlink:href="#linearGradient508"
       inkscape:collect="always" />
    <linearGradient
       y2="9.3615303"
       x2="13.763388"
       y1="14.035932"
       x1="16.551964"
       gradientTransform="matrix(1.399756,0.000000,0.000000,0.903977,-2.860350,0.227876)"
       gradientUnits="userSpaceOnUse"
       id="linearGradient612"
       xlink:href="#linearGradient177"
       inkscape:collect="always" />
    <linearGradient
       y2="20.664473"
       x2="45.130928"
       y1="13.131673"
       x1="36.155384"
       gradientTransform="matrix(0.826490,0.763061,0.763061,-0.826490,-30.95946,-9.495656)"
       gradientUnits="userSpaceOnUse"
       id="linearGradient611"
       xlink:href="#linearGradient477"
       inkscape:collect="always" />
    <linearGradient
       id="linearGradient513">
      <stop
         id="stop514"
         offset="0.0000000"
         style="stop-color:#696969;stop-opacity:1.0000000;" />
      <stop
         id="stop515"
         offset="1.0000000"
         style="stop-color:#ffffff;stop-opacity:1.0000000;" />
    </linearGradient>
    <linearGradient
       y2="24.077389"
       x2="-36.301399"
       y1="18.817307"
       x1="-32.400455"
       gradientTransform="matrix(-1.449414,0.286552,-0.469381,0.965804,-2.700590,0.453616)"
       gradientUnits="userSpaceOnUse"
       id="linearGradient610"
       xlink:href="#linearGradient513"
       inkscape:collect="always" />
    <linearGradient
       y2="10.115389"
       x2="40.437176"
       y1="2.3488793"
       x1="24.162909"
       gradientTransform="matrix(1.124876,0.000000,0.000000,1.124876,-3.993120,0.751900)"
       gradientUnits="userSpaceOnUse"
       id="linearGradient609"
       xlink:href="#linearGradient477"
       inkscape:collect="always" />
    <linearGradient
       y2="14.744809"
       x2="20.135639"
       y1="8.7251825"
       x1="9.9626188"
       gradientTransform="matrix(1.399756,0.000000,0.000000,0.903977,-3.993120,0.797381)"
       gradientUnits="userSpaceOnUse"
       id="linearGradient608"
       xlink:href="#linearGradient177"
       inkscape:collect="always" />
    <linearGradient
       y2="122.61145"
       x2="132.98843"
       y1="116.66409"
       x1="128.35213"
       gradientTransform="scale(1.244363,0.803624)"
       gradientUnits="userSpaceOnUse"
       id="linearGradient607"
       xlink:href="#linearGradient177"
       inkscape:collect="always" />
    <linearGradient
       id="linearGradient177">
      <stop
         id="stop178"
         offset="0.0000000"
         style="stop-color:#ffffff;stop-opacity:1.0000000;" />
      <stop
         id="stop179"
         offset="1.0000000"
         style="stop-color:#b0b0b0;stop-opacity:1.0000000;" />
    </linearGradient>
    <linearGradient
       y2="137.97153"
       x2="136.98560"
       y1="67.364906"
       x1="81.307533"
       gradientTransform="scale(1.244363,0.803624)"
       gradientUnits="userSpaceOnUse"
       id="linearGradient234"
       xlink:href="#linearGradient177"
       inkscape:collect="always" />
    <linearGradient
       id="linearGradient454">
      <stop
         id="stop455"
         offset="0.0000000"
         style="stop-color:#ffffff;stop-opacity:1.0000000;" />
      <stop
         id="stop457"
         offset="0.50000000"
         style="stop-color:#bebebe;stop-opacity:1.0000000;" />
      <stop
         id="stop456"
         offset="1.0000000"
         style="stop-color:#b0b0b0;stop-opacity:1.0000000;" />
    </linearGradient>
    <linearGradient
       y2="14.748880"
       x2="18.086929"
       y1="11.165159"
       x1="14.248631"
       gradientTransform="matrix(1.399756,0.000000,0.000000,0.903977,-3.993120,0.751900)"
       gradientUnits="userSpaceOnUse"
       id="linearGradient606"
       xlink:href="#linearGradient454"
       inkscape:collect="always" />
    <linearGradient
       style="fill-rule:nonzero;"
       y2="72.608902"
       x2="192.38570"
       y1="72.608902"
       x1="78.245598"
       gradientUnits="userSpaceOnUse"
       id="linearGradient477">
      <stop
         id="stop478"
         style="stop-color:#e4e9ea;stop-opacity:1.0000000;"
         offset="0.0000000" />
      <stop
         id="stop479"
         style="stop-color:#85898A;fill-rule:nonzero;"
         offset="1" />
    </linearGradient>
    <radialGradient
       r="5.6434927"
       fy="20.452780"
       fx="16.280994"
       cy="20.452780"
       cx="16.280994"
       gradientTransform="matrix(2.202254,0.000000,0.000000,0.574568,-13.83631,0.652472)"
       gradientUnits="userSpaceOnUse"
       id="radialGradient605"
       xlink:href="#linearGradient477"
       inkscape:collect="always" />
    <linearGradient
       style="fill-rule:nonzero;"
       y2="72.608902"
       x2="192.38570"
       y1="72.608902"
       x1="78.245598"
       gradientUnits="userSpaceOnUse"
       id="linearGradient641">
      <stop
         id="stop642"
         style="stop-color:#f9feff;stop-opacity:1.0000000;"
         offset="0.0000000" />
      <stop
         id="stop643"
         style="stop-color:#afb4b6;stop-opacity:1.0000000;"
         offset="1.0000000" />
    </linearGradient>
    <radialGradient
       gradientUnits="userSpaceOnUse"
       r="13.265761"
       fy="8.9303417"
       fx="39.147720"
       cy="8.9303417"
       cx="39.147720"
       gradientTransform="matrix(0.878817,0.000000,0.000000,1.025708,1.243280,2.850095)"
       id="radialGradient640"
       xlink:href="#linearGradient641"
       inkscape:collect="always" />
    <linearGradient
       id="linearGradient161">
      <stop
         id="stop162"
         offset="0.0000000"
         style="stop-color:#575955;stop-opacity:1.0000000;" />
      <stop
         id="stop163"
         offset="1.0000000"
         style="stop-color:#7c7e79;stop-opacity:1.0000000;" />
    </linearGradient>
    <linearGradient
       id="linearGradient157">
      <stop
         id="stop158"
         offset="0.0000000"
         style="stop-color:#babdb6;stop-opacity:1.0000000;" />
      <stop
         id="stop159"
         offset="1.0000000"
         style="stop-color:#f1f5ec;stop-opacity:1.0000000;" />
    </linearGradient>
    <inkscape:perspective
       sodipodi:type="inkscape:persp3d"
       inkscape:vp_x="0 : 24 : 1"
       inkscape:vp_y="0 : 1000 : 0"
       inkscape:vp_z="48 : 24 : 1"
       inkscape:persp3d-origin="24 : 16 : 1"
       id="perspective37" />
    <linearGradient
       id="linearGradient4524">
      <stop
         style="stop-color:#417ac3;stop-opacity:1;"
         offset="0"
         id="stop4526" />
      <stop
         style="stop-color:#3465a4;stop-opacity:1;"
         offset="1"
         id="stop4528" />
    </linearGradient>
    <linearGradient
       inkscape:collect="always"
       id="linearGradient5411">
      <stop
         style="stop-color:#ffffff;stop-opacity:1;"
         offset="0"
         id="stop5413" />
      <stop
         style="stop-color:#ffffff;stop-opacity:0;"
         offset="1"
         id="stop5415" />
    </linearGradient>
    <linearGradient
       inkscape:collect="always"
       id="linearGradient4211">
      <stop
         style="stop-color:#000000;stop-opacity:1;"
         offset="0"
         id="stop4213" />
      <stop
         style="stop-color:#000000;stop-opacity:0;"
         offset="1"
         id="stop4215" />
    </linearGradient>
    <linearGradient
       id="linearGradient1877">
      <stop
         style="stop-color:#000000;stop-opacity:0.17964073;"
         offset="0.0000000"
         id="stop1878" />
      <stop
         style="stop-color:#000000;stop-opacity:0.0000000;"
         offset="1.0000000"
         id="stop1879" />
    </linearGradient>
    <linearGradient
       id="linearGradient1869">
      <stop
         style="stop-color:#eff3f4;stop-opacity:1.0000000;"
         offset="0.0000000"
         id="stop1870" />
      <stop
         style="stop-color:#939596;stop-opacity:1.0000000;"
         offset="1.0000000"
         id="stop1871" />
    </linearGradient>
    <linearGradient
       inkscape:collect="always"
       xlink:href="#linearGradient1869"
       id="linearGradient1872"
       gradientTransform="matrix(1.4298569,0,0,0.4896402,-6.6815025,5.4854786)"
       x1="-4.6375198"
       y1="104.38752"
       x2="-4.523921"
       y2="110.61378"
       gradientUnits="userSpaceOnUse" />
    <linearGradient
       inkscape:collect="always"
       xlink:href="#linearGradient1877"
       id="linearGradient1894"
       gradientUnits="userSpaceOnUse"
       gradientTransform="matrix(-0.358726,0,0,1.867845,-36.85125,41.805101)"
       x1="-84.334358"
       y1="9.5548248"
       x2="-84.334358"
       y2="12.485031" />
    <radialGradient
       inkscape:collect="always"
       xlink:href="#linearGradient4211"
       id="radialGradient4217"
       cx="18.738329"
       cy="41.63604"
       fx="18.738329"
       fy="41.63604"
       r="21.743534"
       gradientTransform="matrix(1,0,0,0.333333,0,27.75736)"
       gradientUnits="userSpaceOnUse" />
    <linearGradient
       inkscape:collect="always"
       xlink:href="#linearGradient5411"
       id="linearGradient5417"
       x1="-17.000057"
       y1="73.479156"
       x2="-19.345716"
       y2="98.479156"
       gradientUnits="userSpaceOnUse"
       gradientTransform="matrix(1,0,0,0.979216,0,1.222246)" />
    <linearGradient
       inkscape:collect="always"
       xlink:href="#linearGradient4524"
       id="linearGradient4530"
       x1="-33.22401"
       y1="71.791658"
       x2="7.1282601"
       y2="71.791658"
       gradientUnits="userSpaceOnUse" />
    <linearGradient
       inkscape:collect="always"
       xlink:href="#linearGradient161"
       id="linearGradient6544"
       gradientUnits="userSpaceOnUse"
       gradientTransform="matrix(2.2540923,0,0,0.5203988,-38.620111,40.67557)"
       x1="2.9325605"
       y1="21.169637"
       x2="19.737664"
       y2="21.169637" />
    <linearGradient
       inkscape:collect="always"
       xlink:href="#linearGradient157"
       id="linearGradient6546"
       gradientUnits="userSpaceOnUse"
       gradientTransform="matrix(0.7768031,0,0,1.6028071,-41.013748,40.647813)"
       x1="55.208272"
       y1="6.8897981"
       x2="60.685901"
       y2="6.8897981" />
    <linearGradient
       inkscape:collect="always"
       xlink:href="#linearGradient508"
       id="linearGradient8165"
       gradientUnits="userSpaceOnUse"
       gradientTransform="matrix(1.027326,-0.134612,0.528454,0.53648,-27.947069,45.935676)"
       x1="9.9626188"
       y1="8.7251825"
       x2="20.135639"
       y2="14.744809" />
    <linearGradient
       inkscape:collect="always"
       xlink:href="#linearGradient177"
       id="linearGradient8167"
       gradientUnits="userSpaceOnUse"
       gradientTransform="matrix(1.399756,0,0,0.903977,-38.929579,41.300152)"
       x1="16.551964"
       y1="14.035932"
       x2="13.763388"
       y2="9.3615303" />
    <linearGradient
       inkscape:collect="always"
       xlink:href="#linearGradient477"
       id="linearGradient8169"
       gradientUnits="userSpaceOnUse"
       gradientTransform="matrix(0.82649,0.763061,0.763061,-0.82649,-67.028689,31.57662)"
       x1="36.155384"
       y1="13.131673"
       x2="45.130928"
       y2="20.664473" />
    <linearGradient
       inkscape:collect="always"
       xlink:href="#linearGradient513"
       id="linearGradient8171"
       gradientUnits="userSpaceOnUse"
       gradientTransform="matrix(-1.449414,0.286552,-0.469381,0.965804,-38.769819,41.525892)"
       x1="-32.400455"
       y1="18.817307"
       x2="-36.301399"
       y2="24.077389" />
    <linearGradient
       inkscape:collect="always"
       xlink:href="#linearGradient477"
       id="linearGradient8173"
       gradientUnits="userSpaceOnUse"
       gradientTransform="matrix(1.124876,0,0,1.124876,-40.062349,41.824176)"
       x1="24.162909"
       y1="2.3488793"
       x2="40.437176"
       y2="10.115389" />
    <linearGradient
       inkscape:collect="always"
       xlink:href="#linearGradient177"
       id="linearGradient8175"
       gradientUnits="userSpaceOnUse"
       gradientTransform="matrix(1.399756,0,0,0.903977,-40.062349,41.869657)"
       x1="9.9626188"
       y1="8.7251825"
       x2="20.135639"
       y2="14.744809" />
    <linearGradient
       inkscape:collect="always"
       xlink:href="#linearGradient177"
       id="linearGradient8177"
       gradientUnits="userSpaceOnUse"
       gradientTransform="scale(1.244363,0.803624)"
       x1="128.35213"
       y1="116.66409"
       x2="132.98843"
       y2="122.61145" />
    <linearGradient
       inkscape:collect="always"
       xlink:href="#linearGradient177"
       id="linearGradient8179"
       gradientUnits="userSpaceOnUse"
       gradientTransform="scale(1.244363,0.803624)"
       x1="81.307533"
       y1="67.364906"
       x2="136.98560"
       y2="137.97153" />
    <linearGradient
       inkscape:collect="always"
       xlink:href="#linearGradient454"
       id="linearGradient8181"
       gradientUnits="userSpaceOnUse"
       gradientTransform="matrix(1.399756,0,0,0.903977,-40.062349,41.824176)"
       x1="14.248631"
       y1="11.165159"
       x2="18.086929"
       y2="14.748880" />
    <radialGradient
       inkscape:collect="always"
       xlink:href="#linearGradient477"
       id="radialGradient8183"
       gradientUnits="userSpaceOnUse"
       gradientTransform="matrix(2.202254,0,0,0.574568,-49.905539,41.724748)"
       cx="16.280994"
       cy="20.452780"
       fx="16.280994"
       fy="20.452780"
       r="5.6434927" />
    <radialGradient
       inkscape:collect="always"
       xlink:href="#linearGradient641"
       id="radialGradient8185"
       gradientUnits="userSpaceOnUse"
       gradientTransform="matrix(0.878817,0,0,1.025708,-34.825949,43.922371)"
       cx="39.147720"
       cy="8.9303417"
       fx="39.147720"
       fy="8.9303417"
       r="13.265761" />
  </defs>
  <sodipodi:namedview
     inkscape:document-units="px"
     id="base"
     pagecolor="#ffffff"
     bordercolor="#000000"
     borderopacity="0.11372549"
     inkscape:pageopacity="0.0"
     inkscape:pageshadow="2"
     inkscape:zoom="16"
     inkscape:cx="21.335078"
     inkscape:cy="15.885194"
     inkscape:current-layer="layer2"
     inkscape:window-width="1680"
     inkscape:window-height="978"
     inkscape:window-x="0"
     inkscape:window-y="47"
     fill="#204a87"
     inkscape:showpageshadow="false"
     showgrid="true">
    <inkscape:grid
       type="xygrid"
       id="grid5744" />
  </sodipodi:namedview>
  <metadata
     id="metadata4">
    <rdf:RDF>
      <cc:Work
         rdf:about="">
        <dc:format>image/svg+xml</dc:format>
        <dc:type
           rdf:resource="http://purl.org/dc/dcmitype/StillImage" />
        <dc:title>Trash</dc:title>
        <dc:creator>
          <cc:Agent>
            <dc:title>Jakub Steiner</dc:title>
          </cc:Agent>
        </dc:creator>
        <dc:date />
        <dc:subject>
          <rdf:Bag>
            <rdf:li>trash</rdf:li>
            <rdf:li>delete</rdf:li>
            <rdf:li>wastebasket</rdf:li>
            <rdf:li>empty</rdf:li>
          </rdf:Bag>
        </dc:subject>
        <dc:description />
        <cc:license
           rdf:resource="http://creativecommons.org/licenses/GPL/2.0/" />
      </cc:Work>
      <cc:License
         rdf:about="http://creativecommons.org/licenses/GPL/2.0/">
        <cc:permits
           rdf:resource="http://web.resource.org/cc/Reproduction" />
        <cc:permits
           rdf:resource="http://web.resource.org/cc/Distribution" />
        <cc:requires
           rdf:resource="http://web.resource.org/cc/Notice" />
        <cc:permits
           rdf:resource="http://web.resource.org/cc/DerivativeWorks" />
        <cc:requires
           rdf:resource="http://web.resource.org/cc/ShareAlike" />
        <cc:requires
           rdf:resource="http://web.resource.org/cc/SourceCode" />
      </cc:License>
    </rdf:RDF>
  </metadata>
  <g
     inkscape:groupmode="layer"
     id="layer2"
     inkscape:label="Shadow">
    <g
       id="g6707"
       transform="matrix(2.154027e-2,0,0,2.179773e-2,43.316729,40.796749)"
       style="display:inline">
      <rect
         y="-150.69685"
         x="-1559.2523"
         height="478.35718"
         width="1339.6335"
         id="rect6709"
         style="opacity:0.40206185;fill:url(#linearGradient2095);fill-opacity:1;fill-rule:nonzero;stroke:none;stroke-width:1;stroke-linecap:round;stroke-linejoin:miter;marker:none;marker-start:none;marker-mid:none;marker-end:none;stroke-miterlimit:4;stroke-dasharray:none;stroke-dashoffset:0;stroke-opacity:1;visibility:visible;display:inline;overflow:visible" />
      <path
         sodipodi:nodetypes="cccc"
         id="path6711"
         d="M -219.61876,-150.68038 C -219.61876,-150.68038 -219.61876,327.65041 -219.61876,327.65041 C -76.744594,328.55086 125.78146,220.48075 125.78138,88.454235 C 125.78138,-43.572302 -33.655436,-150.68036 -219.61876,-150.68038 z"
         style="opacity:0.40206185;fill:url(#radialGradient2097);fill-opacity:1;fill-rule:nonzero;stroke:none;stroke-width:1;stroke-linecap:round;stroke-linejoin:miter;marker:none;marker-start:none;marker-mid:none;marker-end:none;stroke-miterlimit:4;stroke-dasharray:none;stroke-dashoffset:0;stroke-opacity:1;visibility:visible;display:inline;overflow:visible" />
      <path
         style="opacity:0.40206185;fill:url(#radialGradient2099);fill-opacity:1;fill-rule:nonzero;stroke:none;stroke-width:1;stroke-linecap:round;stroke-linejoin:miter;marker:none;marker-start:none;marker-mid:none;marker-end:none;stroke-miterlimit:4;stroke-dasharray:none;stroke-dashoffset:0;stroke-opacity:1;visibility:visible;display:inline;overflow:visible"
         d="M -1559.2523,-150.68038 C -1559.2523,-150.68038 -1559.2523,327.65041 -1559.2523,327.65041 C -1702.1265,328.55086 -1904.6525,220.48075 -1904.6525,88.454235 C -1904.6525,-43.572302 -1745.2157,-150.68036 -1559.2523,-150.68038 z"
         id="path6713"
         sodipodi:nodetypes="cccc" />
    </g>
  </g>
  <g
     inkscape:label="Pixmap Background"
     inkscape:groupmode="layer"
     id="layer1" />
  <g
     inkscape:label="Layer 1"
     inkscape:groupmode="layer"
     id="g1623"
     transform="translate(37.06885,-41.11763)">
    <path
       style="fill:url(#linearGradient4530);fill-opacity:1.0;fill-rule:evenodd;stroke:#204a87;stroke-width:1.02320302;stroke-linecap:butt;stroke-linejoin:miter;stroke-miterlimit:4;stroke-opacity:1"
       d="M -32.711617,57.920772 C -32.75484,57.886856 -31.013657,82.319708 -31.013161,82.327116 C -30.849819,84.76715 -29.478625,85.658942 -27.943864,85.662576 C -27.889022,85.6627 0.84900065,85.659434 1.4612656,85.656892 C 4.0458711,85.64616 4.6790717,84.093225 4.8490952,82.396482 C 4.8627317,82.363025 6.603023,57.954228 6.6166586,57.920772 C -6.4927658,57.920772 -19.602191,57.920772 -32.711617,57.920772 z "
       id="path1751"
       sodipodi:nodetypes="ccccccc"
       inkscape:r_cx="true"
       inkscape:r_cy="true" />
    <path
       sodipodi:nodetypes="ccccccc"
       id="path4536"
       d="M -31.487684,58.804659 C -31.528216,58.773117 -29.957445,81.748687 -29.957445,81.748687 C -29.80427,84.018051 -29.080923,84.602662 -27.64169,84.606042 C -27.64169,84.606042 0.3590203,84.603118 0.93317605,84.600756 C 3.3569079,84.590774 3.6381962,83.207662 3.797637,81.629598 C 3.797637,81.629598 5.379895,58.835775 5.3926819,58.804659 C -6.9007726,58.804659 -19.194228,58.804659 -31.487684,58.804659 z "
       style="opacity:0.32967033;fill:none;fill-opacity:1;fill-rule:evenodd;stroke:url(#linearGradient5417);stroke-width:1.02320278;stroke-linecap:butt;stroke-linejoin:miter;stroke-miterlimit:4;stroke-opacity:1"
       inkscape:r_cx="true"
       inkscape:r_cy="true" />
    <path
       style="fill:url(#linearGradient1872);fill-opacity:1;fill-rule:evenodd;stroke:#555555;stroke-width:1.00007069;stroke-linecap:butt;stroke-linejoin:miter;stroke-miterlimit:4;stroke-dasharray:none;stroke-opacity:1"
       d="M -29.157292,45.686422 C -30.176641,45.688859 -31.029756,45.713533 -31.494441,46.729248 C -31.575208,46.905788 -34.037089,54.07081 -34.155449,54.344054 C -35.168727,56.683273 -34.234278,59.629951 -32.277162,59.610224 C -31.904967,59.606591 6.2881263,59.628494 6.8803768,59.610224 C 8.546377,59.559727 8.7595709,56.147508 8.0423685,54.612508 C 8.0017365,54.525546 4.6731228,46.631602 4.5882282,46.491784 C 4.1955752,45.867345 3.3162629,45.593677 2.6631004,45.619308 C 2.5344327,45.624484 -29.02995,45.68612 -29.157292,45.686422 z"
       id="path1841"
       sodipodi:nodetypes="cssssscss"
       inkscape:r_cx="true"
       inkscape:r_cy="true" />
    <path
       style="fill:url(#linearGradient1894);fill-opacity:1;fill-rule:nonzero;stroke:none;stroke-width:0;stroke-linecap:butt;stroke-linejoin:miter;marker:none;marker-start:none;marker-mid:none;marker-end:none;stroke-miterlimit:4;stroke-dashoffset:0;stroke-opacity:1;visibility:visible;display:block"
       d="M 5.8674719,60.1588 L -29.241178,60.222751 C -2.6592192,60.840935 2.5633795,63.761328 5.8035217,63.61211 L 5.8674719,60.1588 z"
       id="path1893"
       sodipodi:nodetypes="cccc" />
    <path
       inkscape:r_cy="true"
       inkscape:r_cx="true"
       style="fill:#ffffff;fill-opacity:0.48809521;fill-rule:evenodd;stroke:none;stroke-width:1px;stroke-linecap:butt;stroke-linejoin:miter;stroke-opacity:1"
       d="M -13.183516,69.433144 L -7.859462,69.850002 L -5.800694,64.706412 L -8.236647,66.463347 C -8.236647,66.463347 -9.281142,63.963318 -10.031872,63.762339 C -10.782602,63.561362 -13.985584,63.628355 -13.985584,63.628355 C -12.966813,63.886916 -12.175041,65.68335 -12.16287,65.703728 C -11.845038,66.23593 -10.955352,68.026735 -10.955352,68.026735 L -13.183516,69.433144 z"
       id="path41"
       sodipodi:nodetypes="ccccccscc" />
    <path
       inkscape:r_cy="true"
       inkscape:r_cx="true"
       style="fill:#ffffff;fill-opacity:0.30952382;fill-rule:evenodd;stroke:none;stroke-width:1px;stroke-linecap:butt;stroke-linejoin:miter;marker:none;marker-start:none;marker-mid:none;marker-end:none;stroke-miterlimit:4;stroke-dashoffset:0;stroke-opacity:1;visibility:visible;display:inline;overflow:visible"
       d="M -12.524849,65.875089 L -14.287208,69.325205 L -17.910298,66.980466 C -17.910298,66.980466 -16.267368,63.79832 -14.972658,63.79832 C -13.666995,63.79832 -13.083529,64.953266 -12.524849,65.875089 z"
       id="path130"
       sodipodi:nodetypes="ccczc" />
    <path
       inkscape:r_cy="true"
       inkscape:r_cx="true"
       style="fill:#ffffff;fill-opacity:0.48809521;fill-rule:evenodd;stroke:none;stroke-width:1px;stroke-linecap:butt;stroke-linejoin:miter;stroke-opacity:1"
       d="M -9.930701,74.066681 L -13.363274,78.276652 L -10.087605,82.61763 L -10.027019,79.883462 C -10.027019,79.883462 -7.614202,80.117134 -7.060427,79.559485 C -6.506654,79.001837 -4.20286,76.190171 -4.20286,76.190171 C -4.942505,76.954205 -6.851105,76.728154 -6.874395,76.728399 C -7.482613,76.734735 -9.889861,76.677086 -9.889861,76.677086 L -9.930701,74.066681 z"
       id="path139"
       sodipodi:nodetypes="ccccccscc" />
    <path
       inkscape:r_cy="true"
       inkscape:r_cx="true"
       style="fill:#ffffff;fill-opacity:0.30952382;fill-rule:evenodd;stroke:none;stroke-width:1px;stroke-linecap:butt;stroke-linejoin:miter;marker:none;marker-start:none;marker-mid:none;marker-end:none;stroke-miterlimit:4;stroke-dashoffset:0;stroke-opacity:1;visibility:visible;display:inline;overflow:visible"
       d="M -6.709289,76.247851 L -8.687852,72.923468 L -4.866009,70.938654 C -4.866009,70.938654 -3.050089,74.020197 -3.715381,75.160023 C -4.386299,76.309492 -5.651603,76.229687 -6.709289,76.247851 z"
       id="path140"
       sodipodi:nodetypes="ccczc" />
    <path
       inkscape:r_cy="true"
       inkscape:r_cx="true"
       style="fill:#ffffff;fill-opacity:0.48809521;fill-rule:evenodd;stroke:none;stroke-width:1px;stroke-linecap:butt;stroke-linejoin:miter;stroke-opacity:1"
       d="M -15.933125,73.822216 L -17.627654,69.242461 L -22.56885,69.600816 L -20.540434,71.117184 C -20.540434,71.117184 -21.941263,73.146718 -21.746497,73.917421 C -21.551732,74.688122 -20.452927,77.881127 -20.452927,77.881127 C -20.729294,76.842159 -19.586396,75.257302 -19.574985,75.236464 C -19.276967,74.692324 -18.027582,72.579947 -18.027582,72.579947 L -15.933125,73.822216 z"
       id="path142"
       sodipodi:nodetypes="ccccccscc" />
    <path
       inkscape:r_cy="true"
       inkscape:r_cx="true"
       style="fill:#ffffff;fill-opacity:0.30952382;fill-rule:evenodd;stroke:none;stroke-width:1px;stroke-linecap:butt;stroke-linejoin:miter;marker:none;marker-start:none;marker-mid:none;marker-end:none;stroke-miterlimit:4;stroke-dashoffset:0;stroke-opacity:1;visibility:visible;display:inline;overflow:visible"
       d="M -19.322782,75.671974 L -15.528194,75.570288 L -15.75813,79.959627 C -15.75813,79.959627 -19.266497,80.037775 -19.897337,78.877504 C -20.533513,77.707416 -19.834998,76.621796 -19.322782,75.671974 z"
       id="path143"
       sodipodi:nodetypes="ccczc" />
    <path
       style="fill:url(#linearGradient6544);fill-opacity:1;fill-rule:evenodd;stroke:none;stroke-width:0;stroke-linecap:butt;stroke-linejoin:miter;marker:none;marker-start:none;marker-mid:none;marker-end:none;stroke-miterlimit:4;stroke-dashoffset:0;stroke-opacity:1;visibility:visible;display:block"
       d="M -28.639466,47.409405 C -29.574271,47.396329 -29.635144,47.357225 -29.845573,48.073053 C -29.894148,48.238295 -31.851234,54.743873 -31.927948,54.996324 C -32.188839,55.854858 -31.819915,56.081435 -30.914535,56.063983 C -30.593806,56.0578 4.5317609,56.063983 5.0423929,56.063983 C 5.7672984,56.063983 5.9823299,55.805586 5.8185821,55.195749 C 5.7520441,54.947946 3.0275183,48.001898 2.9543537,47.878197 C 2.6159566,47.325743 2.6746427,47.327352 2.0835812,47.319563 C 1.9726196,47.3181 -28.529729,47.41094 -28.639466,47.409405 z"
       id="path1864"
       sodipodi:nodetypes="cssssscss"
       inkscape:r_cx="true"
       inkscape:r_cy="true" />
    <path
       style="fill:#2e3436;fill-opacity:1;fill-rule:evenodd;stroke:none;stroke-width:0;stroke-linecap:butt;stroke-linejoin:miter;marker:none;marker-start:none;marker-mid:none;marker-end:none;stroke-miterlimit:4;stroke-dashoffset:0;stroke-opacity:1;visibility:visible;display:block"
       d="M -28.970893,47.390633 C -29.34384,47.419763 -29.523222,47.532824 -29.679322,48.034925 C -29.730788,48.200465 -31.802043,54.708158 -31.883323,54.961064 C -32.159737,55.821142 -31.79305,56.052366 -30.833798,56.034884 C -30.817182,56.034583 -28.869554,56.035133 -28.685195,56.034884 L -28.970893,47.390633 z"
       id="path1880"
       sodipodi:nodetypes="cccccc"
       inkscape:r_cx="true"
       inkscape:r_cy="true" />
    <path
       style="fill:url(#linearGradient6546);fill-opacity:1;fill-rule:evenodd;stroke:none;stroke-width:0;stroke-linecap:butt;stroke-linejoin:miter;marker:none;marker-start:none;marker-mid:none;marker-end:none;stroke-miterlimit:4;stroke-dashoffset:0;stroke-opacity:1;visibility:visible;display:block"
       d="M 2.164875,47.301042 C 2.618149,47.305005 2.751253,47.295711 3.041026,47.856139 C 3.080652,47.932781 5.931479,54.845393 6.033838,55.098299 C 6.381941,56.072741 5.718958,56.052366 4.667411,56.08063 C 4.467643,56.080329 2.104319,56.058006 1.87215,56.057755 L 2.164875,47.301042 z"
       id="path1888"
       sodipodi:nodetypes="cscccc"
       inkscape:r_cx="true"
       inkscape:r_cy="true" />
    <path
       sodipodi:nodetypes="ccccccccccccccccccccccccccccccccccccccccccccccccccccc"
       id="path614"
       d="M -21.385649,41.726824 C -21.224058,41.53348 -21.268011,41.540831 -21.712014,41.875172 C -23.488026,43.212535 -26.429471,45.910231 -26.429471,45.910231 C -26.429471,45.910231 -26.179104,46.702695 -26.904185,47.92776 C -27.629267,49.152825 -29.811799,47.393709 -29.811801,47.393708 C -30.604597,46.85959 -30.103226,48.814783 -29.129401,50.954054 C -30.159851,51.725362 -30.909574,52.490012 -30.909574,53.060592 C -30.909575,54.410254 -31.001071,54.283166 -31.087591,54.544069 C -31.631516,54.6154 -32.246475,54.627061 -33.164459,54.544069 C -31.16648,54.439975 -29.932708,52.804595 -29.440931,53.060592 C -29.390294,53.092072 -30.703814,54.438139 -30.642548,54.440226 C -30.663174,54.475411 -31.206269,54.870434 -31.206269,54.870434 L -18.893407,54.811096 C -18.894457,54.821036 -18.891537,54.830792 -18.893407,54.840764 L -7.2926133,54.840764 C -7.3170903,54.876548 -7.6931533,54.633077 -7.6931533,54.633077 L -6.0168233,54.840764 L -1.9817643,54.840764 C -1.9663433,54.844049 -1.9987163,54.867827 -1.9817643,54.870434 C -1.9817633,54.870435 0.80875578,55.644347 0.51047778,57.036311 C 0.21219878,58.428275 -0.49828726,58.846154 -0.49828726,58.846154 C -0.49828526,58.846152 -0.18392326,62.800379 0.21378178,64.98775 C 0.61148078,67.175119 -0.080408258,61.311891 1.3115548,60.715335 C 2.7035197,60.11878 6.3667187,61.708671 7.9575337,59.02417 C 9.5483487,56.339671 9.0673087,56.745945 8.6696027,55.552834 C 8.6590717,55.521239 8.5928097,55.467753 8.5805937,55.434156 L 8.7882807,55.434156 C 9.3542547,54.75569 9.9950667,53.96557 10.983827,52.318854 C 8.5482877,54.381574 8.6535787,54.385565 8.1948897,54.870434 C 7.8798227,54.241109 7.3912067,53.503117 6.6520737,52.971583 L 6.8004207,52.941913 C 6.8004207,52.941913 6.6566617,52.859939 7.4531517,51.221079 C 8.2496397,49.582222 2.2523707,47.370967 3.4774317,48.61016 C 4.1437867,49.2842 2.5438847,50.355857 0.80717278,51.102402 C 0.59939278,50.944663 -1.3005973,49.561586 -2.9311893,48.906855 C -3.2676823,48.575213 -3.3850933,48.30517 -3.7916083,47.957429 C 0.40025778,45.013862 -7.1891173,46.034649 -11.980403,42.943276 C -8.6635013,45.119983 -8.5760713,47.440449 -9.7255161,49.411237 C -11.005173,49.115398 -12.051473,48.648493 -11.743046,48.016769 C -11.14642,46.794749 -14.015919,48.944916 -14.710001,50.56835 C -14.835787,50.576112 -14.93305,50.464561 -15.066035,50.509011 C -15.075035,50.040133 -15.001807,49.593367 -15.125374,49.114542 C -15.878136,46.197597 -18.486015,46.745397 -20.703249,48.995864 C -21.681179,47.612813 -23.409371,46.677195 -23.818552,45.761883 C -24.282094,44.72497 -21.870419,42.306856 -21.385649,41.726824 z M -17.409929,50.716698 C -17.22732,50.716698 -17.457011,51.156887 -17.558277,51.458436 C -17.608664,51.46639 -17.655647,51.481434 -17.706624,51.488106 C -17.734409,51.051392 -17.693988,50.716698 -17.409929,50.716698 z M 0.33245978,51.310089 C 0.057178782,51.413105 -0.17012626,51.59137 -0.43894826,51.666123 C -0.48648126,51.595555 -0.59696026,51.500247 -0.64663426,51.428766 L 0.33245978,51.310089 z"
       style="fill:none;fill-opacity:1;fill-rule:evenodd;stroke:#6d6d6d;stroke-width:1.18678188;stroke-linecap:round;stroke-linejoin:round;marker:none;marker-start:none;marker-mid:none;marker-end:none;stroke-miterlimit:4;stroke-dashoffset:0;stroke-opacity:1;visibility:visible;display:inline;overflow:visible" />
    <path
       id="path506"
       d="M -13.486319,53.171943 L 0.97695278,51.210176 C 0.97695278,51.210176 -4.0700053,47.341192 -4.8345063,48.907048 C -5.5990063,50.472906 -12.495277,49.577741 -11.730777,48.011885 C -10.966276,46.446027 -15.941073,50.428981 -14.662361,51.727113 C -13.383651,53.025245 -13.486319,53.171943 -13.486319,53.171943 z"
       style="fill:url(#linearGradient8165);fill-opacity:1;fill-rule:evenodd;stroke:none;stroke-width:2.21074963;stroke-linecap:butt;stroke-linejoin:miter;marker:none;marker-start:none;marker-mid:none;marker-end:none;stroke-miterlimit:4;stroke-dashoffset:0;stroke-opacity:1;visibility:visible;display:inline;overflow:visible" />
    <path
       id="path459"
       d="M -21.083585,49.322372 C -18.796789,46.737298 -15.913436,46.041317 -15.118028,49.123519 C -14.322621,52.205724 -16.31114,55.785058 -16.907695,54.393094 C -17.504252,53.001131 -18.200232,50.714335 -17.404825,50.714335 C -16.609418,50.714335 -19.095066,54.293668 -19.095066,54.293668 L -21.083585,49.322372 z"
       style="fill:url(#linearGradient8167);fill-opacity:1;fill-rule:evenodd;stroke:none;stroke-width:2.21074963;stroke-linecap:butt;stroke-linejoin:miter;marker:none;marker-start:none;marker-mid:none;marker-end:none;stroke-miterlimit:4;stroke-dashoffset:0;stroke-opacity:1;visibility:visible;display:inline;overflow:visible" />
    <path
       id="path504"
       d="M -29.805805,47.39591 C -29.805805,47.39591 -27.625455,49.138283 -26.900373,47.913217 C -26.17529,46.688152 -26.416871,45.923823 -26.416871,45.923823 C -26.416871,45.923823 -23.499893,43.204077 -21.723881,41.866714 C -19.94787,40.529352 -24.438525,44.367304 -23.820468,45.749856 C -23.202413,47.132407 -19.420356,48.45906 -20.072554,51.510596 C -20.724752,54.562131 -20.820231,53.932696 -21.921787,54.539538 C -23.023342,55.146379 -26.013207,56.039656 -28.024857,53.235143 C -30.03651,50.430627 -30.890373,46.665222 -29.805805,47.39591 z"
       style="fill:url(#linearGradient8169);fill-opacity:1;fill-rule:nonzero;stroke:none;stroke-width:1;stroke-linecap:butt;stroke-linejoin:miter;marker:none;marker-start:none;marker-mid:none;marker-end:none;stroke-miterlimit:4;stroke-dashoffset:0;stroke-opacity:1;visibility:visible;display:inline;overflow:visible" />
    <path
       sodipodi:nodetypes="cccccc"
       id="path511"
       d="M 6.7991767,52.951898 L -7.6358943,55.317348 C -7.7842413,54.901974 -3.9872053,50.438219 -2.7621473,51.67741 C -1.5370863,52.916602 4.7108867,49.863289 3.4858257,48.624098 C 2.2607657,47.384906 8.2479667,49.568014 7.4514787,51.206872 C 6.6549887,52.845731 6.7991767,52.951898 6.7991767,52.951898 z"
       style="fill:url(#linearGradient8171);fill-opacity:1;fill-rule:evenodd;stroke:none;stroke-width:2.21074963;stroke-linecap:butt;stroke-linejoin:miter;marker:none;marker-start:none;marker-mid:none;marker-end:none;stroke-miterlimit:4;stroke-dashoffset:0;stroke-opacity:1;visibility:visible;display:inline;overflow:visible" />
    <path
       id="path458"
       d="M -16.806805,50.013881 L -15.812546,50.908715 L -23.170066,55.084604 L -16.806805,50.013881 z"
       style="fill:#ffffff;fill-opacity:1;fill-rule:evenodd;stroke:none;stroke-width:1px;stroke-linecap:butt;stroke-linejoin:miter;stroke-opacity:1" />
    <path
       id="path355"
       d="M -11.979039,42.931604 C -2.4956443,49.155058 -17.699083,58.047961 -20.204693,52.282136 C -18.800796,53.316292 -18.705418,54.38711 -18.904056,55.445848 L 3.4177007,55.445848 C 2.6049947,55.20463 1.8879818,54.923846 0.60551078,54.883411 C 1.6540938,54.539713 0.087222782,51.273799 -3.7885353,47.958393 C 0.40332778,45.014826 -7.1877543,46.022977 -11.979039,42.931604 z M 10.97546,52.317288 C 7.9985537,54.838508 8.4623787,54.562188 7.5656797,55.445848 L 8.7960127,55.445848 C 9.3619837,54.767384 9.9866997,53.964004 10.97546,52.317288 z"
       style="font-size:12px;fill:url(#linearGradient8173);fill-opacity:1;fill-rule:nonzero;stroke:none;overflow:visible" />
    <path
       id="path442"
       d="M -31.213449,55.496773 L -11.427691,55.397346 C -11.427691,55.397346 -12.919078,48.636385 -15.703005,50.823754 C -18.486931,53.011125 -25.745024,50.326626 -22.961096,48.139255 C -20.177171,45.951884 -30.915171,50.923181 -30.915171,53.11055 C -30.915171,55.297922 -31.213449,55.496773 -31.213449,55.496773 z"
       style="fill:url(#linearGradient8175);fill-opacity:1;fill-rule:evenodd;stroke:none;stroke-width:2.21074963;stroke-linecap:butt;stroke-linejoin:miter;marker:none;marker-start:none;marker-mid:none;marker-end:none;stroke-miterlimit:4;stroke-dashoffset:0;stroke-opacity:1;visibility:visible;display:inline;overflow:visible" />
    <g
       transform="matrix(0.273209,0,0,0.273209,-73.708349,27.943516)"
       id="g378"
       style="font-size:12px;fill:url(#linearGradient8179);fill-opacity:1;fill-rule:evenodd;stroke:none;stroke-width:2.13333321;stroke-linecap:butt;stroke-linejoin:miter;marker:none;marker-start:none;marker-mid:none;marker-end:none;stroke-miterlimit:4;stroke-dashoffset:0;stroke-opacity:1;visibility:visible;display:inline;overflow:visible"
       i:knockout="Off">
      <path
         sodipodi:nodetypes="cccc"
         id="path379"
         d="M 163.66854,88.723079 C 164.69803,92.209992 156.205,98.079 148.429,97.376 C 155.742,96.995 153.18,98.302 154.98,99.239 C 157.137,100.58 168.86508,95.534348 163.66854,88.723079 z"
         style="fill:url(#linearGradient8177);marker:none;marker-start:none;marker-mid:none;marker-end:none;stroke-dashoffset:0;visibility:visible;display:inline;overflow:visible"
         i:knockout="Off" />
    </g>
    <path
       id="path448"
       d="M -15.3053,51.275402 C -16.79669,51.871958 -18.089227,54.75531 -20.574875,54.854737 C -23.060524,54.954163 -15.3053,55.550717 -14.509894,54.854737 C -13.714487,54.158754 -15.3053,51.275402 -15.3053,51.275402 z"
       style="fill:url(#linearGradient8181);fill-opacity:1;fill-rule:evenodd;stroke:none;stroke-width:2.21074963;stroke-linecap:butt;stroke-linejoin:miter;marker:none;marker-start:none;marker-mid:none;marker-end:none;stroke-miterlimit:4;stroke-dashoffset:0;stroke-opacity:1;visibility:visible;display:inline;overflow:visible" />
    <path
       id="path491"
       d="M -16.200134,55.351867 L -5.8598373,55.351867 C -5.8598373,55.351867 -4.1695963,52.369088 -8.0472083,52.56794 C -11.924819,52.766791 -10.632282,53.959904 -12.620801,54.357607 C -14.609319,54.755312 -16.200134,55.351867 -16.200134,55.351867 z"
       style="fill:url(#radialGradient8183);fill-opacity:1;fill-rule:nonzero;stroke:none;stroke-width:1;stroke-linecap:butt;stroke-linejoin:miter;marker:none;marker-start:none;marker-mid:none;marker-end:none;stroke-miterlimit:4;stroke-dashoffset:0;stroke-opacity:1;visibility:visible;display:inline;overflow:visible" />
    <path
       id="path498"
       d="M -1.9822273,55.451291 C -1.9822273,55.451291 0.80169878,55.650143 0.50342178,57.042107 C 0.20514478,58.43407 -0.49083926,58.831774 -0.49083926,58.831774 C -0.49083926,58.831774 -0.19256126,62.808811 0.20514478,64.996182 C 0.60284778,67.183551 -0.093134258,61.317421 1.2988288,60.720866 C 2.6907927,60.12431 6.3695497,61.715125 7.9603647,59.030625 C 9.5511807,56.346125 9.0540507,56.743828 8.6563457,55.550717 C 8.2586427,54.357607 6.6678277,51.673107 3.2873477,52.369088 C -0.093134258,53.065069 -3.2747643,55.25244 -1.9822273,55.451291 z"
       style="fill:url(#radialGradient8185);fill-opacity:1;fill-rule:nonzero;stroke:none;stroke-width:1;stroke-linecap:butt;stroke-linejoin:miter;marker:none;marker-start:none;marker-mid:none;marker-end:none;stroke-miterlimit:4;stroke-dashoffset:0;stroke-opacity:1;visibility:visible;display:inline;overflow:visible" />
    <path
       sodipodi:nodetypes="cccscscc"
       id="path644"
       d="M -31.187437,55.474663 L -16.383221,55.429181 C -16.383221,55.429181 -14.97858,55.14044 -14.273617,54.958515 C -13.547675,54.587773 -12.430389,54.595775 -11.64802,54.192376 C -10.238574,53.465652 -10.50119,52.58897 -7.2703413,52.56799 C -11.193515,52.1484 -10.951186,53.953104 -12.408199,54.301105 C -13.590665,54.58353 -15.860184,55.383699 -16.36048,55.315477 C -16.860776,55.247255 -31.187437,55.474663 -31.187437,55.474663 z"
       style="fill:#ffffff;fill-opacity:1;fill-rule:evenodd;stroke:none;stroke-width:1px;stroke-linecap:butt;stroke-linejoin:miter;stroke-opacity:1" />
    <path
       sodipodi:nodetypes="cscccss"
       id="path645"
       d="M -22.88707,50.335257 C -22.88707,50.335257 -20.791082,51.940438 -17.633961,51.585997 C -16.231363,51.428532 -15.382629,50.471701 -14.81411,50.40348 C -14.245592,50.335257 -13.790778,50.676368 -13.790778,50.676368 C -13.790778,50.676368 -14.313814,50.42622 -14.791371,50.539924 C -15.268926,50.653627 -16.360569,51.861909 -17.975072,51.813405 C -21.659161,51.702724 -22.88707,50.335257 -22.88707,50.335257 z"
       style="fill:#ffffff;fill-opacity:1;fill-rule:evenodd;stroke:none;stroke-width:1px;stroke-linecap:butt;stroke-linejoin:miter;stroke-opacity:1" />
    <path
       sodipodi:nodetypes="cccsc"
       id="path646"
       d="M -11.958257,42.96218 C -11.958257,42.96218 -8.5595713,45.144052 -8.8952453,47.871392 C -9.2309171,50.598732 -12.335888,52.654726 -12.335888,52.654726 C -12.335888,52.654726 -8.2345593,50.082207 -8.5176133,47.619638 C -8.9372033,43.969198 -11.958257,42.96218 -11.958257,42.96218 z"
       style="fill:#ffffff;fill-opacity:1;fill-rule:evenodd;stroke:none;stroke-width:1px;stroke-linecap:butt;stroke-linejoin:miter;stroke-opacity:1" />
    <path
       sodipodi:nodetypes="cccc"
       id="path647"
       d="M -3.7342773,47.997269 C -4.1119093,47.283965 -5.9161503,45.857356 -7.4686363,45.521684 C -5.2448053,46.109111 -3.2727283,47.577678 -3.2727283,47.577678 L -3.7342773,47.997269 z"
       style="fill:#000000;fill-opacity:0.17857139;fill-rule:evenodd;stroke:none;stroke-width:1px;stroke-linecap:butt;stroke-linejoin:miter;marker:none;marker-start:none;marker-mid:none;marker-end:none;stroke-miterlimit:4;stroke-dashoffset:0;stroke-opacity:1;visibility:visible;display:inline;overflow:visible" />
    <path
       sodipodi:nodetypes="ccccc"
       id="path648"
       d="M -20.67358,48.906855 C -20.67358,48.906855 -19.724155,50.063968 -20.080189,51.428766 C -19.219771,51.606783 -18.863738,51.636453 -18.863738,51.636453 L -18.092328,51.013394 C -18.092328,51.013394 -18.092328,49.173881 -20.67358,48.906855 z"
       style="fill:#000000;fill-opacity:0.17857139;fill-rule:evenodd;stroke:none;stroke-width:1px;stroke-linecap:butt;stroke-linejoin:miter;stroke-opacity:1" />
    <path
       id="path649"
       d="M -23.352482,48.588825 C -23.352482,48.588825 -21.661318,47.995434 -22.10636,48.410808 C -22.551403,48.826181 -19.999823,50.695363 -19.999823,50.695363 C -19.999823,50.695363 -19.999823,51.288754 -20.1185,51.437102 C -20.23718,51.58545 -24.479924,50.368998 -23.352482,48.588825 z"
       style="fill:#000000;fill-opacity:0.07142855;fill-rule:evenodd;stroke:none;stroke-width:1px;stroke-linecap:butt;stroke-linejoin:miter;stroke-opacity:1" />
  </g>
</svg>
