/* XPM */
static char * stick_toggled_active_xpm[] = {
"14 15 43 1",
" 	c None",
".	c #5A87B5",
"+	c #5986B5",
"@	c #5986B4",
"#	c #5885B3",
"$	c #5985B3",
"%	c #5886B4",
"&	c #5985B4",
"*	c #5885B4",
"=	c #F1F1F1",
"-	c #5884B3",
";	c #A3B1BF",
">	c #9DAAB8",
",	c #5884B2",
"'	c #5783B2",
")	c #5783B1",
"!	c #ACB9C7",
"~	c #5682B1",
"{	c #5683B1",
"]	c #5682B0",
"^	c #8C99A7",
"/	c #5582B0",
"(	c #5581AF",
"_	c #ACB9C6",
":	c #5581B0",
"<	c #5580AF",
"[	c #5481AE",
"}	c #5480AF",
"|	c #8A98A6",
"1	c #5581AE",
"2	c #5380AE",
"3	c #AAB7C5",
"4	c #547FAE",
"5	c #537FAD",
"6	c #5380AD",
"7	c #537EAD",
"8	c #527FAD",
"9	c #9EABBA",
"0	c #527DAB",
"a	c #527DAC",
"b	c #527EAB",
"c	c #527EAC",
"d	c #517DAB",
"...++...++.++.",
"@@++@@@++@++@@",
"#$%&*#==&*%&*#",
"#-;=-#==--=>-#",
",-==========-,",
"'))===!!===))'",
"~{]=^~{]{^={~~",
"/===!//]/!===/",
"(===_(((:_===(",
"<[}=|<[}1|=1}<",
"222===33===242",
"56==========65",
"789=57==75=957",
"0abcb0==cbbcb0",
"dd0dddd0dd0ddd"};
