/* XPM */
static char * stick_toggled_prelight_xpm[] = {
"14 15 41 1",
" 	c None",
".	c #5A87B5",
"+	c #5986B5",
"@	c #5986B4",
"#	c #5885B3",
"$	c #5985B3",
"%	c #5886B4",
"&	c #5985B4",
"*	c #5885B4",
"=	c #06355B",
"-	c #5884B3",
";	c #47667F",
">	c #44637C",
",	c #5884B2",
"'	c #5783B2",
")	c #5783B1",
"!	c #6D8FB3",
"~	c #4C6A83",
"{	c #5682B1",
"]	c #5683B1",
"^	c #5682B0",
"/	c #5582B0",
"(	c #5581AF",
"_	c #5581B0",
":	c #5580AF",
"<	c #5481AE",
"[	c #5480AF",
"}	c #5581AE",
"|	c #5380AE",
"1	c #4B6A83",
"2	c #547FAE",
"3	c #537FAD",
"4	c #5380AD",
"5	c #537EAD",
"6	c #527FAD",
"7	c #45647D",
"8	c #527DAB",
"9	c #527DAC",
"0	c #527EAB",
"a	c #527EAC",
"b	c #517DAB",
"...++...++.++.",
"@@++@@@++@++@@",
"#$%&*#==&*%&*#",
"#-;=-#==--=>-#",
",-==========-,",
"')!===~~===!)'",
"{]^==!!!!==]{{",
"/===~//^/~===/",
"(===~(((_~===(",
":!!==:<[}==!!:",
"|||===11===|2|",
"34==========43",
"567=!!==!!=735",
"89!!08==a0!!08",
"bb8bbb!!bb8bbb"};
