/* XPM */
static char * stick_toggled_pressed_xpm[] = {
"14 15 41 1",
" 	c None",
".	c #5A87B5",
"+	c #5986B5",
"@	c #5986B4",
"#	c #5885B3",
"$	c #5985B3",
"%	c #5886B4",
"&	c #5985B4",
"*	c #5885B4",
"=	c #5884B3",
"-	c #06355B",
";	c #5884B2",
">	c #47667F",
",	c #5784B3",
"'	c #44637C",
")	c #5783B2",
"!	c #5783B1",
"~	c #5682B1",
"{	c #5683B1",
"]	c #6D8FB3",
"^	c #4C6A83",
"/	c #5582B0",
"(	c #5682B0",
"_	c #5581AF",
":	c #5581B0",
"<	c #5580AF",
"[	c #5481AE",
"}	c #5480AF",
"|	c #5581AE",
"1	c #5380AE",
"2	c #537FAD",
"3	c #5380AD",
"4	c #547FAD",
"5	c #4B6A83",
"6	c #537EAD",
"7	c #527FAD",
"8	c #527DAB",
"9	c #527DAC",
"0	c #45647D",
"a	c #527EAB",
"b	c #517DAB",
"...++...++.++.",
"@@++@@@++@++@@",
"#$%&*#$%&*%&*#",
"#=#==#--==#==#",
";=>-=;--,=-'=;",
")!----------!)",
"~{]---^^---]~~",
"//(--]]]]--/(/",
"_---^___:^---_",
"<---^<[}|^---<",
"1]]--1111--]]1",
"234---55---232",
"67----------26",
"890-]]--]]-0a8",
"bb]]bb--bb]]bb"};
