/* XPM */
static char * stick_toggled_inactive_xpm[] = {
"14 15 50 1",
" 	c None",
".	c #6C90B4",
"+	c #6C90B5",
"@	c #6C8FB5",
"#	c #6A8FB4",
"$	c #6A8EB4",
"%	c #6B8FB4",
"&	c #6B8EB4",
"*	c #698EB3",
"=	c #698DB3",
"-	c #93ADC9",
";	c #678DB2",
">	c #678CB2",
",	c #6185A9",
"'	c #658BB1",
")	c #668BB1",
"!	c #658BB2",
"~	c #648AB1",
"{	c #648AB0",
"]	c #638AB1",
"^	c #6084A8",
"/	c #5F84A9",
"(	c #6288B0",
"_	c #6289B0",
":	c #6187AF",
"<	c #5C83A7",
"[	c #6087B0",
"}	c #6087AF",
"|	c #6088AF",
"1	c #5F86AF",
"2	c #5B82A7",
"3	c #5E86AF",
"4	c #5D85AE",
"5	c #5D84AE",
"6	c #5C84AD",
"7	c #5B83AD",
"8	c #597FA6",
"9	c #587EA6",
"0	c #5A82AC",
"a	c #5983AC",
"b	c #5881AB",
"c	c #5881AC",
"d	c #547DA3",
"e	c #5882AB",
"f	c #547CA4",
"g	c #5680AB",
"h	c #5680AA",
"i	c #557EAA",
"j	c #557FAB",
"k	c #557FAA",
"..++@..++@..+.",
"##$%&##$%&##$#",
"*====*--==*===",
";>,->;--;>-,>>",
"')----------!)",
"~{]---^/---{]{",
"((_--((__--(_(",
":---<:[}|<---[",
"1---213332---3",
"445--4454--454",
"667---89---676",
"00----------a0",
"bcd-bb--eb-fec",
"ghgggg--ggghgh",
"ijkkkijkkkijkj"};
