/* XPM */
static char * stick_toggled_inactive_xpm[] = {
"14 15 43 1",
" 	c None",
".	c #6C90B4",
"+	c #6C90B5",
"@	c #6C8FB5",
"#	c #6A8FB4",
"$	c #6A8EB4",
"%	c #6B8FB4",
"&	c #6B8EB4",
"*	c #698EB3",
"=	c #698DB3",
"-	c #678DB2",
";	c #678CB2",
">	c #658BB1",
",	c #668BB1",
"'	c #658BB2",
")	c #93ADC9",
"!	c #648AB1",
"~	c #648AB0",
"{	c #638AB1",
"]	c #6288B0",
"^	c #6289B0",
"/	c #6187AF",
"(	c #6087B0",
"_	c #6087AF",
":	c #5F86AF",
"<	c #5E86AF",
"[	c #5D85AE",
"}	c #5D84AE",
"|	c #5C84AD",
"1	c #5B83AD",
"2	c #5B84AD",
"3	c #5A82AC",
"4	c #5983AC",
"5	c #5A83AD",
"6	c #5A83AC",
"7	c #5881AB",
"8	c #5881AC",
"9	c #5882AB",
"0	c #5680AB",
"a	c #5680AA",
"b	c #557EAA",
"c	c #557FAB",
"d	c #557FAA",
"..++@..++@..+.",
"##$%&##$%&##$#",
"*====*====*===",
"-;;-;-;;-;-;;;",
">,'>>))))>>,',",
"!~{~))))))!~{~",
"]]^))))))))]^]",
"/(_))))))))(_(",
":<<))))))))<<<",
"[[}))))))))[}[",
"||12))))))||1|",
"33456))))63343",
"78997789977898",
"0a0000a0000a0a",
"bcdddbcdddbcdc"};
