/* XPM */
static char * top_left_inactive_xpm[] = {
"3 24 42 1",
" 	c None",
".	c #385B80",
"+	c #7294B7",
"@	c #7094B6",
"#	c #7193B7",
"$	c #7092B6",
"%	c #6F92B6",
"&	c #6E91B5",
"*	c #6E91B6",
"=	c #6C90B5",
"-	c #6C90B4",
";	c #6A8EB4",
">	c #6A8FB4",
",	c #698DB3",
"'	c #678CB2",
")	c #658BB2",
"!	c #668BB1",
"~	c #638AB1",
"{	c #648AB0",
"]	c #6289B0",
"^	c #6288B0",
"/	c #6087AF",
"(	c #6087B0",
"_	c #5E86AF",
":	c #5D84AE",
"<	c #5D85AE",
"[	c #5B83AD",
"}	c #5C84AD",
"|	c #5983AC",
"1	c #5A82AC",
"2	c #5882AB",
"3	c #5881AC",
"4	c #5680AB",
"5	c #5680AA",
"6	c #557FAA",
"7	c #557FAB",
"8	c #537DA9",
"9	c #537EA9",
"0	c #517CA9",
"a	c #507BA8",
"b	c #4F7BA7",
"c	c #4E7AA7",
" ..",
"..+",
".@#",
".$%",
".&*",
".=-",
".;>",
".,,",
".''",
".)!",
".~{",
".]^",
"./(",
".__",
".:<",
".[}",
".|1",
".23",
".45",
".67",
".89",
".00",
".ab",
".cc"};
