<?xml version="1.0" encoding="UTF-8" standalone="no"?>
<svg
   xmlns:dc="http://purl.org/dc/elements/1.1/"
   xmlns:cc="http://creativecommons.org/ns#"
   xmlns:rdf="http://www.w3.org/1999/02/22-rdf-syntax-ns#"
   xmlns:svg="http://www.w3.org/2000/svg"
   xmlns="http://www.w3.org/2000/svg"
   xmlns:xlink="http://www.w3.org/1999/xlink"
   xmlns:sodipodi="http://sodipodi.sourceforge.net/DTD/sodipodi-0.dtd"
   xmlns:inkscape="http://www.inkscape.org/namespaces/inkscape"
   version="1.0"
   width="48"
   height="48"
   viewBox="0 0 128 128"
   overflow="visible"
   enable-background="new 0 0 128 128"
   xml:space="preserve"
   id="svg2"
   sodipodi:version="0.32"
   inkscape:version="0.46"
   sodipodi:docname="document-properties.svg"
   sodipodi:docbase="/root/Desktop/Elementary_1.2.6a/scalable/categories"
   inkscape:output_extension="org.inkscape.output.svg.inkscape"
   inkscape:export-filename="/home/daniel/Desktop/Projects/GDM/applications-system.png"
   inkscape:export-xdpi="60"
   inkscape:export-ydpi="60"><metadata
   id="metadata40"><rdf:RDF><cc:Work
       rdf:about=""><dc:format>image/svg+xml</dc:format><dc:type
         rdf:resource="http://purl.org/dc/dcmitype/StillImage" /></cc:Work></rdf:RDF></metadata><defs
   id="defs38"><linearGradient
     inkscape:collect="always"
     id="linearGradient5128"><stop
       style="stop-color:#ffffff;stop-opacity:1"
       offset="0"
       id="stop5130" /><stop
       style="stop-color:#959595;stop-opacity:1"
       offset="1"
       id="stop5132" /></linearGradient><linearGradient
     xlink:href="#linearGradient2193"
     y2="104.0591"
     x2="63.9995"
     y1="21.941401"
     x1="63.9995"
     gradientUnits="userSpaceOnUse"
     id="linearGradient2199"
     spreadMethod="pad">
		<stop
   id="stop2201"
   style="stop-color:#FCFCFD"
   offset="0" />
		<stop
   id="stop2203"
   style="stop-color:#cccccc;stop-opacity:1"
   offset="1" />
	</linearGradient><linearGradient
     y2="104.0591"
     x2="63.9995"
     y1="21.941401"
     x1="63.9995"
     gradientUnits="userSpaceOnUse"
     id="linearGradient2193">
		<stop
   id="stop2195"
   style="stop-color:#dddddd;stop-opacity:1"
   offset="0" />
		<stop
   id="stop2197"
   style="stop-color:#E8E9EF"
   offset="1" />
	</linearGradient><radialGradient
     r="7.228416"
     fy="73.615715"
     fx="6.702713"
     cy="73.615715"
     cx="6.702713"
     gradientTransform="scale(1.902215,0.525703)"
     gradientUnits="userSpaceOnUse"
     id="radialGradient2693"
     xlink:href="#linearGradient10691"
     inkscape:collect="always" /><linearGradient
     inkscape:collect="always"
     id="linearGradient10691"><stop
       style="stop-color:#000000;stop-opacity:1;"
       offset="0"
       id="stop10693" /><stop
       style="stop-color:#000000;stop-opacity:0;"
       offset="1"
       id="stop10695" /></linearGradient><linearGradient
     inkscape:collect="always"
     xlink:href="#XMLID_4_"
     id="linearGradient3274"
     gradientUnits="userSpaceOnUse"
     x1="232.8517"
     y1="9.067646"
     x2="232.8517"
     y2="123.24046" /><linearGradient
     inkscape:collect="always"
     xlink:href="#XMLID_5_"
     id="linearGradient3276"
     gradientUnits="userSpaceOnUse"
     gradientTransform="matrix(0.8744109,0,0,0.8744109,179.27795,12.548187)"
     spreadMethod="pad"
     x1="63.9995"
     y1="21.941401"
     x2="63.9995"
     y2="104.0591" /><linearGradient
     inkscape:collect="always"
     xlink:href="#linearGradient5128"
     id="linearGradient3278"
     gradientUnits="userSpaceOnUse"
     gradientTransform="matrix(0.8744109,0,0,0.8744109,179.27795,12.548187)"
     x1="86.132919"
     y1="105.105"
     x2="84.63858"
     y2="20.895" /><linearGradient
     inkscape:collect="always"
     xlink:href="#XMLID_6_"
     id="linearGradient3280"
     gradientUnits="userSpaceOnUse"
     gradientTransform="matrix(1.0091703,0,0,1.0091703,170.65334,3.2928895)"
     spreadMethod="pad"
     x1="64"
     y1="21.523018"
     x2="64"
     y2="103.06695" /><linearGradient
     inkscape:collect="always"
     xlink:href="#XMLID_6_"
     id="linearGradient3282"
     gradientUnits="userSpaceOnUse"
     gradientTransform="matrix(1.0091703,0,0,1.0091703,170.65334,3.2928895)"
     x1="49.273136"
     y1="22.274775"
     x2="49.373875"
     y2="102.04791" /><linearGradient
     gradientUnits="userSpaceOnUse"
     y2="22.543968"
     x2="38.281746"
     y1="43.36541"
     x1="32.488918"
     id="linearGradient3525"
     xlink:href="#linearGradient3519"
     inkscape:collect="always" /><radialGradient
     r="15.644737"
     fy="36.421127"
     fx="24.837126"
     cy="36.421127"
     cx="24.837126"
     gradientTransform="matrix(1,0,0,0.536723,0,16.87306)"
     gradientUnits="userSpaceOnUse"
     id="radialGradient3503"
     xlink:href="#linearGradient8662"
     inkscape:collect="always" /><linearGradient
     gradientUnits="userSpaceOnUse"
     y2="43.366352"
     x2="22.245434"
     y1="2.1102102"
     x1="21.628975"
     id="linearGradient3472"
     xlink:href="#linearGradient3466"
     inkscape:collect="always" /><radialGradient
     inkscape:collect="always"
     xlink:href="#linearGradient5105-262-943-861"
     id="radialGradient2538"
     gradientUnits="userSpaceOnUse"
     gradientTransform="matrix(1,0,0,0.282946,0,13.64644)"
     cx="11.25"
     cy="19.03125"
     fx="11.25"
     fy="19.03125"
     r="8.0625" /><linearGradient
     inkscape:collect="always"
     id="linearGradient5105-262-943-861"><stop
       offset="0"
       id="stop2487"
       style="stop-color:#0d0d0d;stop-opacity:1;" /><stop
       offset="1"
       id="stop2489"
       style="stop-color:#0d0d0d;stop-opacity:0;" /></linearGradient><linearGradient
     gradientTransform="matrix(1.0397094,0,0,1.0396223,-2.2010867,-2.1419634)"
     y2="36.941002"
     x2="30.249519"
     y1="23.726042"
     x1="33.898193"
     gradientUnits="userSpaceOnUse"
     id="linearGradient3585"
     xlink:href="#linearGradient3510"
     inkscape:collect="always" /><linearGradient
     y2="23.945757"
     x2="24.869152"
     y1="6.5016141"
     x1="24.869152"
     gradientTransform="matrix(1.0397094,0,0,1.0396223,-2.1643225,-2.1562621)"
     gradientUnits="userSpaceOnUse"
     id="linearGradient3531"
     xlink:href="#linearGradient3533"
     inkscape:collect="always" /><linearGradient
     gradientTransform="matrix(1.0397094,0,0,1.0396223,-2.2010867,-2.1419634)"
     gradientUnits="userSpaceOnUse"
     y2="24.253975"
     x2="37.003502"
     y1="33.335304"
     x1="34.797226"
     id="linearGradient3388"
     xlink:href="#linearGradient3555"
     inkscape:collect="always" /><linearGradient
     id="linearGradient8662"><stop
       offset="0"
       style="stop-color:#000000;stop-opacity:1"
       id="stop8664" /><stop
       offset="1"
       style="stop-color:#000000;stop-opacity:0"
       id="stop8666" /></linearGradient><linearGradient
     id="linearGradient3510"><stop
       offset="0"
       style="stop-color:#ffffff;stop-opacity:0;"
       id="stop3512" /><stop
       id="stop3549"
       style="stop-color:#cadbed;stop-opacity:0.49803922;"
       offset="0.20872974" /><stop
       offset="0.42001507"
       style="stop-color:#afc9e4;stop-opacity:0.74901961;"
       id="stop3551" /><stop
       id="stop3553"
       style="stop-color:#a2c0df;stop-opacity:0.8745098;"
       offset="0.63354725" /><stop
       id="stop3520"
       style="stop-color:#95b7db;stop-opacity:1;"
       offset="0.8333326" /><stop
       offset="1"
       style="stop-color:#83abd5;stop-opacity:1;"
       id="stop3522" /></linearGradient><linearGradient
     id="linearGradient3533"><stop
       offset="0"
       style="stop-color:#b0cce6;stop-opacity:1;"
       id="stop3535" /><stop
       offset="1"
       style="stop-color:#83acd5;stop-opacity:1;"
       id="stop3545" /></linearGradient><linearGradient
     id="linearGradient3555"><stop
       id="stop3557"
       style="stop-color:#387ab8;stop-opacity:1;"
       offset="0" /><stop
       offset="0.65560597"
       style="stop-color:#9bbcdb;stop-opacity:0.49803922;"
       id="stop3571" /><stop
       id="stop3573"
       style="stop-color:#cddbed;stop-opacity:0.24705882;"
       offset="0.8084684" /><stop
       offset="0.875"
       style="stop-color:#e6eff6;stop-opacity:0.12156863;"
       id="stop3575" /><stop
       id="stop3577"
       style="stop-color:#f2f6fa;stop-opacity:0.05882353;"
       offset="0.87544304" /><stop
       offset="0.95787287"
       style="stop-color:#f8fafc;stop-opacity:0.02745098;"
       id="stop3579" /><stop
       id="stop3581"
       style="stop-color:#fbfcfd;stop-opacity:0.01176471;"
       offset="0.984375" /><stop
       offset="0.984375"
       style="stop-color:#fdfdfe;stop-opacity:0.00392157;"
       id="stop3583" /><stop
       id="stop3567"
       style="stop-color:#ffffff;stop-opacity:0;"
       offset="1" /></linearGradient><linearGradient
     id="linearGradient3466"><stop
       id="stop3468"
       offset="0"
       style="stop-color:#d3e3f1;stop-opacity:1;" /><stop
       id="stop3470"
       offset="1"
       style="stop-color:#9bc2e6;stop-opacity:1;" /></linearGradient><linearGradient
     id="linearGradient3519"><stop
       id="stop3521"
       offset="0"
       style="stop-color:#9bc2e6;stop-opacity:1;" /><stop
       style="stop-color:#a8c9e8;stop-opacity:1;"
       offset="0.50389373"
       id="stop3527" /><stop
       id="stop3523"
       offset="1"
       style="stop-color:#b3d0ea;stop-opacity:0;" /></linearGradient><linearGradient
     inkscape:collect="always"
     xlink:href="#linearGradient3533"
     id="linearGradient2546"
     gradientUnits="userSpaceOnUse"
     gradientTransform="matrix(2.7793076,0,0,2.7790748,-155.52095,-6.0092095)"
     x1="24.869152"
     y1="6.5016141"
     x2="24.869152"
     y2="23.945757" /><linearGradient
     inkscape:collect="always"
     xlink:href="#linearGradient3466"
     id="linearGradient2548"
     gradientUnits="userSpaceOnUse"
     x1="21.628975"
     y1="2.1102102"
     x2="22.245434"
     y2="43.366352"
     gradientTransform="matrix(2.6731581,0,0,2.6731581,-149.73537,-0.24518)" /><linearGradient
     inkscape:collect="always"
     xlink:href="#linearGradient3510"
     id="linearGradient2551"
     gradientUnits="userSpaceOnUse"
     gradientTransform="matrix(2.7793076,0,0,2.7790748,-155.61922,-5.9709868)"
     x1="33.898193"
     y1="23.726042"
     x2="30.249519"
     y2="36.941002" /><linearGradient
     inkscape:collect="always"
     xlink:href="#linearGradient3519"
     id="linearGradient2553"
     gradientUnits="userSpaceOnUse"
     x1="32.488918"
     y1="43.36541"
     x2="38.281746"
     y2="22.543968"
     gradientTransform="matrix(2.6731581,0,0,2.6731581,-149.73537,-0.24518)" /><radialGradient
     inkscape:collect="always"
     xlink:href="#linearGradient5105-262-943-861"
     id="radialGradient2561"
     gradientUnits="userSpaceOnUse"
     gradientTransform="matrix(1,0,0,0.282946,0,13.64644)"
     cx="11.25"
     cy="19.03125"
     fx="11.25"
     fy="19.03125"
     r="8.0625" /><radialGradient
     inkscape:collect="always"
     xlink:href="#linearGradient8662"
     id="radialGradient2563"
     gradientUnits="userSpaceOnUse"
     gradientTransform="matrix(1,0,0,0.536723,0,16.87306)"
     cx="24.837126"
     cy="36.421127"
     fx="24.837126"
     fy="36.421127"
     r="15.644737" /><radialGradient
     inkscape:collect="always"
     xlink:href="#linearGradient8662"
     id="radialGradient2567"
     gradientUnits="userSpaceOnUse"
     gradientTransform="matrix(1,0,0,0.536723,0,16.87306)"
     cx="24.837126"
     cy="36.421127"
     fx="24.837126"
     fy="36.421127"
     r="15.644737" /></defs><sodipodi:namedview
   inkscape:window-height="792"
   inkscape:window-width="1440"
   inkscape:pageshadow="2"
   inkscape:pageopacity="0.0"
   guidetolerance="10.0"
   gridtolerance="10.0"
   objecttolerance="10.0"
   borderopacity="1.0"
   bordercolor="#666666"
   pagecolor="#ffffff"
   id="base"
   width="48px"
   height="48px"
   inkscape:zoom="5.5821814"
   inkscape:cx="9.2796353"
   inkscape:cy="22.643735"
   inkscape:window-x="0"
   inkscape:window-y="48"
   inkscape:current-layer="layer1"
   showgrid="false"
   showguides="true"
   inkscape:guide-bbox="true" />
	
	
	
	<linearGradient
   id="XMLID_4_"
   gradientUnits="userSpaceOnUse"
   x1="63.9995"
   y1="3.1001"
   x2="63.9995"
   y2="122.8994">
		<stop
   offset="0"
   style="stop-color:#f2f2f2;stop-opacity:1"
   id="stop11" />
		<stop
   offset="1"
   style="stop-color:#d8d8d8;stop-opacity:1"
   id="stop13" />
	</linearGradient>
	
	
	
	
	<linearGradient
   id="XMLID_5_"
   gradientUnits="userSpaceOnUse"
   x1="63.9995"
   y1="21.941401"
   x2="63.9995"
   y2="104.0591"
   xlink:href="#linearGradient2199"
   spreadMethod="pad">
		<stop
   offset="0"
   style="stop-color:#dadada;stop-opacity:1"
   id="stop24" />
		<stop
   offset="1"
   style="stop-color:#cccccc;stop-opacity:1"
   id="stop26" />
	</linearGradient>
	
	<linearGradient
   id="XMLID_6_"
   gradientUnits="userSpaceOnUse"
   x1="64"
   y1="21.523018"
   x2="64"
   y2="103.06695"
   xlink:href="#XMLID_5_"
   spreadMethod="pad">
		<stop
   offset="0"
   style="stop-color:#d9d9d9;stop-opacity:1"
   id="stop31" />
		<stop
   offset="1"
   style="stop-color:#cccccc;stop-opacity:1"
   id="stop33" />
	</linearGradient>
	
<g
   inkscape:groupmode="layer"
   id="layer1"
   inkscape:label="shadow"><g
     inkscape:label="Layer 1"
     id="g2532"
     style="display:inline"
     transform="matrix(2.6731581,0,0,2.6731581,-0.1557933,-0.3115884)"><path
       transform="matrix(-1.489736,0,0,-1.001252,61.00076,76.05932)"
       d="M 40.481863,36.421127 A 15.644737,8.3968935 0 1 1 9.1923885,36.421127 A 15.644737,8.3968935 0 1 1 40.481863,36.421127 z"
       sodipodi:ry="8.3968935"
       sodipodi:rx="15.644737"
       sodipodi:cy="36.421127"
       sodipodi:cx="24.837126"
       id="path3458"
       style="opacity:0.38333333;fill:url(#radialGradient2567);fill-opacity:1;fill-rule:evenodd;stroke:none;stroke-width:1;stroke-linecap:butt;stroke-linejoin:miter;marker:none;marker-start:none;marker-mid:none;marker-end:none;stroke-miterlimit:10;stroke-dasharray:none;stroke-dashoffset:0;stroke-opacity:1;visibility:visible;display:inline;overflow:visible"
       sodipodi:type="arc"
       inkscape:r_cx="true"
       inkscape:r_cy="true" /></g></g><g
   inkscape:groupmode="layer"
   id="layer2"
   inkscape:label="retger"><g
     id="layer6"
     inkscape:label="Shadow"
     transform="matrix(2.6874977,0,0,2.6874977,-614.03062,64.468716)" /><g
     style="display:inline"
     inkscape:label="Base"
     id="g2161"
     transform="matrix(2.6874977,0,0,2.6874977,-614.03062,64.468716)" /><g
     id="layer5"
     inkscape:label="shadiw"
     transform="matrix(2.6874977,0,0,2.6874977,-756.62403,-3.2960522)" /><g
     id="g3267"
     transform="translate(-168.85169,-6.2037815)"><path
       style="opacity:0.1;fill:#030303"
       id="path2450"
       d="M 287.29722,53.336938 L 282.68725,53.336938 C 281.44305,53.336938 280.00441,52.301541 279.60884,51.122471 C 279.5868,51.061171 276.74784,44.188854 276.74784,44.188854 C 276.16358,43.013615 276.44613,41.267519 277.32541,40.387288 L 280.58485,37.127846 C 281.33386,36.377877 281.74764,35.377919 281.74764,34.311871 C 281.74764,33.245824 281.33386,32.245866 280.58485,31.496855 L 267.75109,18.6631 C 267.00208,17.91409 266.00212,17.501271 264.93607,17.500313 C 263.87003,17.500313 262.87007,17.913132 262.12106,18.6631 L 258.86162,21.922542 C 257.98234,22.800858 256.23529,23.084371 255.12327,22.528839 C 255.06101,22.500105 248.18869,19.662101 248.18869,19.662101 C 246.94736,19.243536 245.91196,17.804898 245.91196,16.560697 L 245.91196,11.949779 C 245.90909,9.7535111 244.12277,7.9671873 241.92746,7.9671873 L 223.77879,7.9671873 C 221.58252,7.9671873 219.7962,9.7535111 219.7962,11.949779 L 219.7962,16.560697 C 219.7962,17.804898 218.7608,19.243536 217.58173,19.639113 C 217.52043,19.662101 210.64811,22.500105 210.64811,22.500105 C 209.47287,23.084371 207.72582,22.800858 206.84655,21.921584 L 203.5871,18.6631 C 202.83714,17.913132 201.83718,17.500313 200.77113,17.500313 C 199.70508,17.500313 198.70512,17.91409 197.95611,18.6631 L 185.1214,31.496855 C 183.56878,33.049472 183.56878,35.575228 185.1214,37.127846 L 188.38084,40.387288 C 189.25916,41.266561 189.54267,43.013615 188.98714,44.125638 C 188.95841,44.187896 186.11944,51.060213 186.11944,51.060213 C 185.70088,52.301541 184.2632,53.335981 183.019,53.335981 L 179.60343,53.335981 C 177.40812,53.336938 174.42645,55.123262 174.42645,57.319531 L 174.42645,75.46724 C 174.42645,77.663508 176.21277,79.449832 178.40904,79.449832 L 183.01996,79.449832 C 184.26416,79.449832 185.70279,80.484272 186.09741,81.664298 C 186.1204,81.725599 188.95936,88.597917 188.95936,88.597917 C 189.54363,89.773155 189.26012,91.519251 188.3818,92.399482 L 185.12236,95.658925 C 183.56974,97.211542 183.56974,99.737298 185.12236,101.28992 L 197.95707,114.12367 C 198.70608,114.87269 199.70604,115.28646 200.77209,115.28646 C 201.83909,115.28646 202.83905,114.87269 203.58806,114.12367 L 206.8475,110.86423 C 207.72678,109.98592 209.47383,109.7024 210.58585,110.25793 C 210.64811,110.28667 217.52043,113.12564 217.52043,113.12564 C 218.7608,113.5442 219.7962,114.98188 219.7962,116.22608 L 219.7962,120.83604 C 219.7962,123.03231 221.58252,124.81863 223.77879,124.81863 L 241.9265,124.81863 C 244.12181,124.81863 245.90813,123.03231 245.90813,120.83604 L 245.90813,116.22608 C 245.90813,114.98188 246.94353,113.54324 248.12356,113.14766 C 248.18486,113.12564 255.05718,110.28667 255.05718,110.28667 C 256.23241,109.7024 257.98043,109.98496 258.85874,110.86423 L 262.11818,114.12367 C 262.8672,114.87269 263.86715,115.28646 264.9332,115.28646 C 265.99925,115.28646 266.99921,114.87269 267.74822,114.12367 L 280.58197,101.28992 C 281.33099,100.5409 281.74476,99.540946 281.74476,98.474899 C 281.74476,97.408852 281.33099,96.408894 280.58197,95.659883 L 277.32253,92.40044 C 276.44326,91.521166 276.1607,89.774113 276.71624,88.662091 C 276.74497,88.599833 279.58393,81.727514 279.58393,81.727514 C 280.0025,80.487145 281.44018,79.451747 282.68438,79.451747 L 287.29434,79.451747 C 289.4906,79.451747 291.27693,77.665424 291.27693,75.469155 L 291.27693,57.319531 C 291.27981,55.123262 289.49348,53.336938 287.29722,53.336938 z M 232.85312,83.338558 C 223.50964,83.338558 215.90747,75.737343 215.90747,66.393864 C 215.90747,57.050384 223.50964,49.448212 232.85312,49.448212 C 242.19756,49.448212 249.79782,57.050384 249.79782,66.393864 C 249.79782,75.738301 242.19756,83.338558 232.85312,83.338558 z" /><path
       style="fill:url(#linearGradient3274);fill-opacity:1;stroke:#888888;stroke-width:3.33333325;stroke-linecap:round;stroke-linejoin:round;stroke-miterlimit:4;stroke-dasharray:none;stroke-opacity:1"
       id="path2452"
       d="M 287.29722,53.314909 L 282.68725,53.314909 C 281.44305,53.314909 280.00441,52.277596 279.60884,51.09661 C 279.5868,51.03531 276.74784,44.152456 276.74784,44.152456 C 276.16358,42.975302 276.44613,41.226333 277.32541,40.345144 L 280.58485,37.079955 C 281.33386,36.329029 281.74764,35.327155 281.74764,34.259191 C 281.74764,33.192187 281.33386,32.190313 280.58485,31.439386 L 267.75109,18.58456 C 267.00208,17.833633 266.00212,17.419857 264.93607,17.419857 C 263.87003,17.419857 262.87007,17.833633 262.12106,18.58456 L 258.86162,21.848791 C 257.98234,22.729022 256.23529,23.012535 255.12327,22.456045 C 255.06101,22.42731 248.18869,19.584518 248.18869,19.584518 C 246.94736,19.164995 245.91196,17.724441 245.91196,16.478326 L 245.91196,11.859745 C 245.90909,9.6596454 244.12277,7.8704481 241.92746,7.8704481 L 223.77879,7.8704481 C 221.58252,7.8704481 219.7962,9.6596454 219.7962,11.859745 L 219.7962,16.478326 C 219.7962,17.724441 218.7608,19.165953 217.58173,19.561529 C 217.52043,19.584518 210.64811,22.42731 210.64811,22.42731 C 209.47287,23.012535 207.72582,22.729022 206.84655,21.848791 L 203.5871,18.58456 C 202.83714,17.833633 201.83718,17.419857 200.77113,17.419857 C 199.70508,17.419857 198.70512,17.834591 197.95611,18.58456 L 185.1214,31.439386 C 183.56878,32.994876 183.56878,35.525422 185.1214,37.079955 L 188.38084,40.345144 C 189.25916,41.225375 189.54267,42.975302 188.98714,44.090198 C 188.95841,44.152456 186.11944,51.036268 186.11944,51.036268 C 185.70088,52.279511 184.2632,53.315866 183.019,53.315866 L 179.60343,53.315866 C 177.40812,53.314909 174.42645,55.104106 174.42645,57.304205 L 174.42645,75.482564 C 174.42645,77.681707 176.21277,79.470904 178.40904,79.470904 L 183.01996,79.470904 C 184.26416,79.470904 185.70279,80.507259 186.09741,81.689202 C 186.1204,81.750502 188.95936,88.633356 188.95936,88.633356 C 189.54363,89.81051 189.26012,91.560437 188.3818,92.441626 L 185.12236,95.706815 C 183.56974,97.261348 183.56974,99.792852 185.12236,101.34739 L 197.95707,114.20222 C 198.70608,114.95314 199.70604,115.36692 200.77209,115.36692 C 201.83909,115.36692 202.83905,114.95314 203.58806,114.20222 L 206.8475,110.93798 C 207.72678,110.05775 209.47383,109.77328 210.58585,110.33073 C 210.64811,110.35851 217.52043,113.20226 217.52043,113.20226 C 218.7608,113.62178 219.7962,115.06138 219.7962,116.30845 L 219.7962,120.92607 C 219.7962,123.12617 221.58252,124.91537 223.77879,124.91537 L 241.9265,124.91537 C 244.12181,124.91537 245.90813,123.12617 245.90813,120.92607 L 245.90813,116.30845 C 245.90813,115.06138 246.94353,113.62082 248.12356,113.22428 C 248.18486,113.20226 255.05718,110.35851 255.05718,110.35851 C 256.23241,109.77328 257.98043,110.05775 258.85874,110.93703 L 262.11818,114.20126 C 262.8672,114.95219 263.86715,115.36596 264.9332,115.36596 C 265.99925,115.36596 266.99921,114.95219 267.74822,114.20126 L 280.58197,101.34643 C 281.33099,100.59646 281.74476,99.594584 281.74476,98.526621 C 281.74476,97.458658 281.33099,96.456784 280.58197,95.706815 L 277.32253,92.441626 C 276.44326,91.561395 276.1607,89.81051 276.71624,88.697529 C 276.74497,88.634314 279.58393,81.75146 279.58393,81.75146 C 280.0025,80.507259 281.44018,79.470904 282.68438,79.470904 L 287.29434,79.470904 C 289.4906,79.470904 291.27693,77.681707 291.27693,75.482564 L 291.27693,57.304205 C 291.27981,55.104106 289.49348,53.314909 287.29722,53.314909 z M 232.85312,84.678541 C 222.71657,84.678541 214.47075,76.432716 214.47075,66.297124 C 214.47075,56.160576 222.71657,47.914751 232.85312,47.914751 C 242.98872,47.914751 251.23454,56.160576 251.23454,66.297124 C 251.23454,76.432716 242.98872,84.678541 232.85312,84.678541 z" /><g
       transform="translate(-2.3885519,-0.7093072)"
       id="g3255"><path
         d="M 235.24024,31.256207 C 215.18038,31.256207 198.86038,47.576211 198.86038,67.636072 C 198.86038,87.695931 215.18038,104.01593 235.24024,104.01593 C 255.3001,104.01593 271.62011,87.695931 271.62011,67.636072 C 271.62011,47.576211 255.3001,31.256207 235.24024,31.256207 z M 235.24024,94.393045 C 220.46182,94.393045 208.48327,82.415364 208.48327,67.636072 C 208.48327,52.856779 220.46182,40.879099 235.24024,40.879099 C 250.01866,40.879099 261.99721,52.857653 261.99721,67.636072 C 261.99721,82.41449 250.01866,94.393045 235.24024,94.393045 z"
         id="path28"
         style="fill:url(#linearGradient3276);stroke:url(#linearGradient3278);stroke-width:2.29875445;stroke-miterlimit:4;stroke-dasharray:none" /><path
         d="M 235.24024,35.586338 C 217.96224,35.586338 203.95596,49.592613 203.95596,66.870617 C 203.95596,84.148622 217.96224,98.154896 235.24024,98.154896 C 252.51824,98.154896 266.52452,84.148622 266.52452,66.870617 C 266.52452,49.592613 252.51824,35.586338 235.24024,35.586338 z M 235.24024,87.558609 C 223.81341,87.558609 214.55225,78.296443 214.55225,66.870617 C 214.55225,55.443782 223.81341,46.182626 235.24024,46.182626 C 246.66607,46.182626 255.92823,55.443782 255.92823,66.870617 C 255.92823,78.296443 246.66607,87.558609 235.24024,87.558609 z"
         id="path35"
         style="fill:url(#linearGradient3280);stroke:url(#linearGradient3282);stroke-width:1.00917029;stroke-opacity:1" /></g></g><g
     transform="matrix(2.6731581,0,0,2.6731581,-153.98767,-2.9549315)"
     id="g2530"
     style="display:inline" /><g
     id="g2630"
     inkscape:label="sdf"
     style="display:inline"
     transform="matrix(2.6731581,0,0,2.6731581,-338.47291,-6.0726484)" /></g></svg>