<?xml version="1.0" encoding="UTF-8" standalone="no"?>
<svg
   xmlns:dc="http://purl.org/dc/elements/1.1/"
   xmlns:cc="http://creativecommons.org/ns#"
   xmlns:rdf="http://www.w3.org/1999/02/22-rdf-syntax-ns#"
   xmlns:svg="http://www.w3.org/2000/svg"
   xmlns="http://www.w3.org/2000/svg"
   xmlns:xlink="http://www.w3.org/1999/xlink"
   xmlns:sodipodi="http://sodipodi.sourceforge.net/DTD/sodipodi-0.dtd"
   xmlns:inkscape="http://www.inkscape.org/namespaces/inkscape"
   version="1.0"
   width="48"
   height="48"
   viewBox="0 0 128 128"
   overflow="visible"
   enable-background="new 0 0 128 128"
   xml:space="preserve"
   id="svg2"
   sodipodi:version="0.32"
   inkscape:version="0.46"
   sodipodi:docname="system-upgrade.svg"
   sodipodi:docbase="/root/Desktop/Elementary_1.2.6a/scalable/categories"
   inkscape:output_extension="org.inkscape.output.svg.inkscape"><metadata
   id="metadata40"><rdf:RDF><cc:Work
       rdf:about=""><dc:format>image/svg+xml</dc:format><dc:type
         rdf:resource="http://purl.org/dc/dcmitype/StillImage" /></cc:Work></rdf:RDF></metadata><defs
   id="defs38"><inkscape:perspective
     sodipodi:type="inkscape:persp3d"
     inkscape:vp_x="0 : 24 : 1"
     inkscape:vp_y="0 : 1000 : 0"
     inkscape:vp_z="48 : 24 : 1"
     inkscape:persp3d-origin="24 : 16 : 1"
     id="perspective201" /><linearGradient
     inkscape:collect="always"
     id="linearGradient5128"><stop
       style="stop-color:#ffffff;stop-opacity:1"
       offset="0"
       id="stop5130" /><stop
       style="stop-color:#959595;stop-opacity:1"
       offset="1"
       id="stop5132" /></linearGradient><linearGradient
     xlink:href="#linearGradient2193"
     y2="104.0591"
     x2="63.9995"
     y1="21.941401"
     x1="63.9995"
     gradientUnits="userSpaceOnUse"
     id="linearGradient2199"
     spreadMethod="pad">
		<stop
   id="stop2201"
   style="stop-color:#FCFCFD"
   offset="0" />
		<stop
   id="stop2203"
   style="stop-color:#cccccc;stop-opacity:1"
   offset="1" />
	</linearGradient><linearGradient
     y2="104.0591"
     x2="63.9995"
     y1="21.941401"
     x1="63.9995"
     gradientUnits="userSpaceOnUse"
     id="linearGradient2193">
		<stop
   id="stop2195"
   style="stop-color:#dddddd;stop-opacity:1"
   offset="0" />
		<stop
   id="stop2197"
   style="stop-color:#E8E9EF"
   offset="1" />
	</linearGradient><linearGradient
     id="linearGradient4222"><stop
       style="stop-color:#ffffff;stop-opacity:1;"
       offset="0"
       id="stop4224" /><stop
       style="stop-color:#ffffff;stop-opacity:0;"
       offset="1"
       id="stop4226" /></linearGradient><linearGradient
     id="linearGradient2442"><stop
       id="stop2444"
       offset="0"
       style="stop-color:#fcaf3e;stop-opacity:1;" /><stop
       id="stop2446"
       offset="1"
       style="stop-color:#f57900;stop-opacity:0;" /></linearGradient><linearGradient
     id="linearGradient5432"><stop
       id="stop5434"
       offset="0"
       style="stop-color:#ce5c00;stop-opacity:1;" /><stop
       id="stop5436"
       offset="1"
       style="stop-color:#ce5c00;stop-opacity:0;" /></linearGradient><linearGradient
     id="linearGradient8662"><stop
       id="stop8664"
       style="stop-color:#000000;stop-opacity:1"
       offset="0" /><stop
       id="stop8666"
       style="stop-color:#000000;stop-opacity:0"
       offset="1" /></linearGradient><radialGradient
     inkscape:collect="always"
     xlink:href="#linearGradient8662"
     id="radialGradient3610"
     gradientUnits="userSpaceOnUse"
     gradientTransform="matrix(1,0,0,0.536723,0,16.87306)"
     cx="24.837126"
     cy="36.421127"
     fx="24.837126"
     fy="36.421127"
     r="15.644737" /><linearGradient
     inkscape:collect="always"
     xlink:href="#XMLID_4_"
     id="linearGradient3612"
     gradientUnits="userSpaceOnUse"
     gradientTransform="matrix(0.6848358,0,0,0.6848358,-112.35327,36.092434)"
     x1="232.8517"
     y1="9.067646"
     x2="232.8517"
     y2="123.24046" /><linearGradient
     inkscape:collect="always"
     xlink:href="#XMLID_5_"
     id="linearGradient3614"
     gradientUnits="userSpaceOnUse"
     gradientTransform="matrix(0.8744109,0,0,0.8744109,179.27795,12.548187)"
     spreadMethod="pad"
     x1="63.9995"
     y1="21.941401"
     x2="63.9995"
     y2="104.0591" /><linearGradient
     inkscape:collect="always"
     xlink:href="#linearGradient5128"
     id="linearGradient3616"
     gradientUnits="userSpaceOnUse"
     gradientTransform="matrix(0.8744109,0,0,0.8744109,179.27795,12.548187)"
     x1="86.132919"
     y1="105.105"
     x2="84.63858"
     y2="20.895" /><linearGradient
     inkscape:collect="always"
     xlink:href="#XMLID_6_"
     id="linearGradient3618"
     gradientUnits="userSpaceOnUse"
     gradientTransform="matrix(1.0091703,0,0,1.0091703,170.65334,3.2928895)"
     spreadMethod="pad"
     x1="64"
     y1="21.523018"
     x2="64"
     y2="103.06695" /><linearGradient
     inkscape:collect="always"
     xlink:href="#XMLID_6_"
     id="linearGradient3620"
     gradientUnits="userSpaceOnUse"
     gradientTransform="matrix(1.0091703,0,0,1.0091703,170.65334,3.2928895)"
     x1="49.273136"
     y1="22.274775"
     x2="49.373875"
     y2="102.04791" /><linearGradient
     inkscape:collect="always"
     xlink:href="#linearGradient2442"
     id="linearGradient3622"
     gradientUnits="userSpaceOnUse"
     gradientTransform="matrix(0,1.8188412,-1.8188412,0,130.14223,-2.312777)"
     x1="15.658319"
     y1="23.890965"
     x2="62.952984"
     y2="23.890963" /><linearGradient
     inkscape:collect="always"
     xlink:href="#linearGradient5432"
     id="linearGradient3624"
     gradientUnits="userSpaceOnUse"
     gradientTransform="matrix(3.6124731,0,0,3.6124731,4.4674605,-65.345693)"
     x1="22.760281"
     y1="18.995085"
     x2="22.760281"
     y2="49.144836" /><linearGradient
     inkscape:collect="always"
     xlink:href="#linearGradient4222"
     id="linearGradient3626"
     gradientUnits="userSpaceOnUse"
     gradientTransform="matrix(0,-2.1095037,-2.099763,0,141.3303,91.166268)"
     x1="37.390652"
     y1="26.022907"
     x2="-7.150826"
     y2="26.022907" /><linearGradient
     y2="8.1000004"
     x2="19.387241"
     y1="6.1438289"
     x1="19.489662"
     gradientUnits="userSpaceOnUse"
     id="linearGradient2674"
     xlink:href="#linearGradient10997"
     inkscape:collect="always" /><linearGradient
     y2="27.531633"
     x2="-29.246557"
     y1="25.925968"
     x1="39.754635"
     gradientTransform="matrix(0,-0.6704505,0.6673547,1.7129753e-2,6.6450884,28.686673)"
     gradientUnits="userSpaceOnUse"
     id="linearGradient5843"
     xlink:href="#linearGradient4222"
     inkscape:collect="always" /><linearGradient
     y2="43.114998"
     x2="-124.05344"
     y1="9.4969349"
     x1="-126.74655"
     gradientTransform="matrix(0.9984082,0,0,1.1483581,139.37187,-3.3236274)"
     gradientUnits="userSpaceOnUse"
     id="linearGradient5806"
     xlink:href="#linearGradient2339"
     inkscape:collect="always" /><linearGradient
     y2="38.964043"
     x2="-24.614353"
     y1="21.055031"
     x1="-24.262331"
     gradientTransform="matrix(0.9984082,0,0,1.1737575,51.602166,-2.2941492)"
     gradientUnits="userSpaceOnUse"
     id="linearGradient5795"
     xlink:href="#linearGradient3962"
     inkscape:collect="always" /><linearGradient
     y2="51.912693"
     x2="19.426924"
     y1="28.946041"
     x1="19.116116"
     gradientTransform="matrix(1.4192742,0,0,0.8078286,-0.3719095,-0.7748415)"
     gradientUnits="userSpaceOnUse"
     id="linearGradient5792"
     xlink:href="#linearGradient335"
     inkscape:collect="always" /><radialGradient
     r="117.14286"
     fy="486.64789"
     fx="605.71429"
     cy="486.64789"
     cx="605.71429"
     gradientTransform="matrix(-2.774389,0,0,1.969706,112.7623,-872.8854)"
     gradientUnits="userSpaceOnUse"
     id="radialGradient5785"
     xlink:href="#linearGradient5060"
     inkscape:collect="always" /><radialGradient
     r="117.14286"
     fy="486.64789"
     fx="605.71429"
     cy="486.64789"
     cx="605.71429"
     gradientTransform="matrix(2.774389,0,0,1.969706,-1891.633,-872.8854)"
     gradientUnits="userSpaceOnUse"
     id="radialGradient5783"
     xlink:href="#linearGradient5060"
     inkscape:collect="always" /><linearGradient
     y2="609.50507"
     x2="302.85715"
     y1="366.64789"
     x1="302.85715"
     gradientTransform="matrix(2.774389,0,0,1.969706,-1892.179,-872.8854)"
     gradientUnits="userSpaceOnUse"
     id="linearGradient5781"
     xlink:href="#linearGradient5048"
     inkscape:collect="always" /><linearGradient
     y2="23.890966"
     x2="47.572372"
     y1="23.890966"
     x1="19.849403"
     gradientTransform="matrix(0,0.5574826,0.5574826,3.6045104e-3,10.628111,-0.482645)"
     gradientUnits="userSpaceOnUse"
     id="linearGradient5754"
     xlink:href="#linearGradient2264"
     inkscape:collect="always" /><linearGradient
     inkscape:collect="always"
     id="linearGradient5060"><stop
       style="stop-color:black;stop-opacity:1;"
       offset="0"
       id="stop5062" /><stop
       style="stop-color:black;stop-opacity:0;"
       offset="1"
       id="stop5064" /></linearGradient><linearGradient
     id="linearGradient5048"><stop
       style="stop-color:black;stop-opacity:0;"
       offset="0"
       id="stop5050" /><stop
       id="stop5056"
       offset="0.5"
       style="stop-color:black;stop-opacity:1;" /><stop
       style="stop-color:black;stop-opacity:0;"
       offset="1"
       id="stop5052" /></linearGradient><linearGradient
     id="linearGradient335"><stop
       style="stop-color:#ffffff;stop-opacity:1.0000000;"
       offset="0.0000000"
       id="stop336" /><stop
       style="stop-color:#ffffff;stop-opacity:0.0000000;"
       offset="1.0000000"
       id="stop337" /></linearGradient><linearGradient
     y2="8.1000004"
     x2="19.387241"
     y1="6.1438289"
     x1="19.489662"
     gradientUnits="userSpaceOnUse"
     id="linearGradient35276"
     xlink:href="#linearGradient10997"
     inkscape:collect="always" /><linearGradient
     y2="8.1000004"
     x2="19.387241"
     y1="6.1438289"
     x1="19.489662"
     gradientUnits="userSpaceOnUse"
     id="linearGradient30712"
     xlink:href="#linearGradient10997"
     inkscape:collect="always" /><linearGradient
     id="linearGradient10997"><stop
       id="stop10999"
       offset="0"
       style="stop-color:#000000;stop-opacity:1;" /><stop
       id="stop11001"
       offset="1"
       style="stop-color:#000000;stop-opacity:0;" /></linearGradient><linearGradient
     id="linearGradient2264"><stop
       style="stop-color:#c3cf71;stop-opacity:1;"
       offset="0"
       id="stop2266" /><stop
       style="stop-color:#8ca638;stop-opacity:1;"
       offset="1"
       id="stop2268" /></linearGradient><linearGradient
     id="linearGradient3962"><stop
       style="stop-color:#daedf0;stop-opacity:0.87450981;"
       offset="0"
       id="stop11128" /><stop
       id="stop3966"
       offset="1"
       style="stop-color:#6398b9;stop-opacity:0.90196079;" /></linearGradient><linearGradient
     id="linearGradient2339"><stop
       style="stop-color:#fcfbff;stop-opacity:1"
       offset="0"
       id="stop2341" /><stop
       id="stop2343"
       offset="0.91013825"
       style="stop-color:#d3d3d3;stop-opacity:1;" /><stop
       style="stop-color:#a1a1a1;stop-opacity:1;"
       offset="1"
       id="stop2345" /></linearGradient><linearGradient
     inkscape:collect="always"
     xlink:href="#linearGradient10997"
     id="linearGradient2755"
     gradientUnits="userSpaceOnUse"
     x1="19.489662"
     y1="6.1438289"
     x2="19.387241"
     y2="8.1000004" /><linearGradient
     inkscape:collect="always"
     xlink:href="#linearGradient10997"
     id="linearGradient2757"
     gradientUnits="userSpaceOnUse"
     x1="19.489662"
     y1="6.1438289"
     x2="19.387241"
     y2="8.1000004" /><linearGradient
     inkscape:collect="always"
     xlink:href="#linearGradient2339"
     id="linearGradient2759"
     gradientUnits="userSpaceOnUse"
     gradientTransform="matrix(0.9984082,0,0,1.1483581,139.37187,-3.3236274)"
     x1="-126.74655"
     y1="9.4969349"
     x2="-124.05344"
     y2="43.114998" /><linearGradient
     inkscape:collect="always"
     xlink:href="#linearGradient2264"
     id="linearGradient2761"
     gradientUnits="userSpaceOnUse"
     gradientTransform="matrix(0,0.5574826,0.5574826,3.6045104e-3,10.628111,-0.482645)"
     x1="19.849403"
     y1="23.890966"
     x2="47.572372"
     y2="23.890966" /><linearGradient
     inkscape:collect="always"
     xlink:href="#linearGradient3962"
     id="linearGradient2763"
     gradientUnits="userSpaceOnUse"
     gradientTransform="matrix(0.9984082,0,0,1.1737575,51.602166,-2.2941492)"
     x1="-24.262331"
     y1="21.055031"
     x2="-24.614353"
     y2="38.964043" /><linearGradient
     inkscape:collect="always"
     xlink:href="#linearGradient335"
     id="linearGradient2765"
     gradientUnits="userSpaceOnUse"
     gradientTransform="matrix(1.4192742,0,0,0.8078286,-0.3719095,-0.7748415)"
     x1="19.116116"
     y1="28.946041"
     x2="19.426924"
     y2="51.912693" /><linearGradient
     inkscape:collect="always"
     xlink:href="#linearGradient4222"
     id="linearGradient2767"
     gradientUnits="userSpaceOnUse"
     gradientTransform="matrix(0,-0.6704505,0.6673547,1.7129753e-2,6.6450884,28.686673)"
     x1="39.754635"
     y1="25.925968"
     x2="-29.246557"
     y2="27.531633" /><linearGradient
     inkscape:collect="always"
     xlink:href="#linearGradient10997"
     id="linearGradient2769"
     gradientUnits="userSpaceOnUse"
     x1="19.489662"
     y1="6.1438289"
     x2="19.387241"
     y2="8.1000004" /><linearGradient
     inkscape:collect="always"
     xlink:href="#linearGradient4222"
     id="linearGradient2780"
     gradientUnits="userSpaceOnUse"
     gradientTransform="matrix(0,-0.6704505,0.6673547,1.7129753e-2,-223.32783,112.07616)"
     x1="39.754635"
     y1="25.925968"
     x2="-29.246557"
     y2="27.531633" /><linearGradient
     inkscape:collect="always"
     xlink:href="#linearGradient335"
     id="linearGradient2783"
     gradientUnits="userSpaceOnUse"
     gradientTransform="matrix(1.4192742,0,0,0.8078286,-230.34483,82.614647)"
     x1="19.116116"
     y1="28.946041"
     x2="19.426924"
     y2="51.912693" /><linearGradient
     inkscape:collect="always"
     xlink:href="#linearGradient3962"
     id="linearGradient2786"
     gradientUnits="userSpaceOnUse"
     gradientTransform="matrix(0.9984082,0,0,1.1737575,-178.37075,81.095339)"
     x1="-24.262331"
     y1="21.055031"
     x2="-24.614353"
     y2="38.964043" /><linearGradient
     inkscape:collect="always"
     xlink:href="#linearGradient2264"
     id="linearGradient2789"
     gradientUnits="userSpaceOnUse"
     gradientTransform="matrix(0,0.5574826,0.5574826,3.6045104e-3,-219.34481,82.906843)"
     x1="19.849403"
     y1="23.890966"
     x2="47.572372"
     y2="23.890966" /><linearGradient
     inkscape:collect="always"
     xlink:href="#linearGradient2339"
     id="linearGradient2792"
     gradientUnits="userSpaceOnUse"
     gradientTransform="matrix(0.9984082,0,0,1.1483581,-90.60105,80.065861)"
     x1="-126.74655"
     y1="9.4969349"
     x2="-124.05344"
     y2="43.114998" /><linearGradient
     inkscape:collect="always"
     xlink:href="#linearGradient5048"
     id="linearGradient2804"
     gradientUnits="userSpaceOnUse"
     gradientTransform="matrix(2.774389,0,0,1.969706,-1892.179,-872.8854)"
     x1="302.85715"
     y1="366.64789"
     x2="302.85715"
     y2="609.50507" /><radialGradient
     inkscape:collect="always"
     xlink:href="#linearGradient5060"
     id="radialGradient2806"
     gradientUnits="userSpaceOnUse"
     gradientTransform="matrix(2.774389,0,0,1.969706,-1891.633,-872.8854)"
     cx="605.71429"
     cy="486.64789"
     fx="605.71429"
     fy="486.64789"
     r="117.14286" /><radialGradient
     inkscape:collect="always"
     xlink:href="#linearGradient5060"
     id="radialGradient2808"
     gradientUnits="userSpaceOnUse"
     gradientTransform="matrix(-2.774389,0,0,1.969706,112.7623,-872.8854)"
     cx="605.71429"
     cy="486.64789"
     fx="605.71429"
     fy="486.64789"
     r="117.14286" /><linearGradient
     inkscape:collect="always"
     xlink:href="#linearGradient5048"
     id="linearGradient2825"
     gradientUnits="userSpaceOnUse"
     gradientTransform="matrix(2.774389,0,0,1.969706,-1892.179,-872.8854)"
     x1="302.85715"
     y1="366.64789"
     x2="302.85715"
     y2="609.50507" /><radialGradient
     inkscape:collect="always"
     xlink:href="#linearGradient5060"
     id="radialGradient2827"
     gradientUnits="userSpaceOnUse"
     gradientTransform="matrix(2.774389,0,0,1.969706,-1891.633,-872.8854)"
     cx="605.71429"
     cy="486.64789"
     fx="605.71429"
     fy="486.64789"
     r="117.14286" /><radialGradient
     inkscape:collect="always"
     xlink:href="#linearGradient5060"
     id="radialGradient2829"
     gradientUnits="userSpaceOnUse"
     gradientTransform="matrix(-2.774389,0,0,1.969706,112.7623,-872.8854)"
     cx="605.71429"
     cy="486.64789"
     fx="605.71429"
     fy="486.64789"
     r="117.14286" /><linearGradient
     inkscape:collect="always"
     xlink:href="#linearGradient2339"
     id="linearGradient2831"
     gradientUnits="userSpaceOnUse"
     gradientTransform="matrix(0.9984082,0,0,1.1483581,-90.60105,80.065861)"
     x1="-126.74655"
     y1="9.4969349"
     x2="-124.05344"
     y2="43.114998" /><linearGradient
     inkscape:collect="always"
     xlink:href="#linearGradient2264"
     id="linearGradient2833"
     gradientUnits="userSpaceOnUse"
     gradientTransform="matrix(0,0.5574826,0.5574826,3.6045104e-3,-219.34481,82.906843)"
     x1="19.849403"
     y1="23.890966"
     x2="47.572372"
     y2="23.890966" /><linearGradient
     inkscape:collect="always"
     xlink:href="#linearGradient3962"
     id="linearGradient2835"
     gradientUnits="userSpaceOnUse"
     gradientTransform="matrix(0.9984082,0,0,1.1737575,-178.37075,81.095339)"
     x1="-24.262331"
     y1="21.055031"
     x2="-24.614353"
     y2="38.964043" /><linearGradient
     inkscape:collect="always"
     xlink:href="#linearGradient335"
     id="linearGradient2837"
     gradientUnits="userSpaceOnUse"
     gradientTransform="matrix(1.4192742,0,0,0.8078286,-230.34483,82.614647)"
     x1="19.116116"
     y1="28.946041"
     x2="19.426924"
     y2="51.912693" /><linearGradient
     inkscape:collect="always"
     xlink:href="#linearGradient4222"
     id="linearGradient2839"
     gradientUnits="userSpaceOnUse"
     gradientTransform="matrix(0,-0.6704505,0.6673547,1.7129753e-2,-223.32783,112.07616)"
     x1="39.754635"
     y1="25.925968"
     x2="-29.246557"
     y2="27.531633" /><linearGradient
     inkscape:collect="always"
     xlink:href="#linearGradient4222"
     id="linearGradient2842"
     gradientUnits="userSpaceOnUse"
     gradientTransform="matrix(0,-1.7714077,1.7632283,4.5258788e-2,-171.15692,85.616451)"
     x1="39.754635"
     y1="25.925968"
     x2="-29.246557"
     y2="27.531633" /><linearGradient
     inkscape:collect="always"
     xlink:href="#linearGradient335"
     id="linearGradient2845"
     gradientUnits="userSpaceOnUse"
     gradientTransform="matrix(3.7498865,0,0,2.1343765,-189.69665,7.7757276)"
     x1="19.116116"
     y1="28.946041"
     x2="19.426924"
     y2="51.912693" /><linearGradient
     inkscape:collect="always"
     xlink:href="#linearGradient3962"
     id="linearGradient2848"
     gradientUnits="userSpaceOnUse"
     gradientTransform="matrix(2.6379099,0,0,3.101203,-52.375121,3.7615403)"
     x1="-24.262331"
     y1="21.055031"
     x2="-24.614353"
     y2="38.964043" /><linearGradient
     inkscape:collect="always"
     xlink:href="#linearGradient2264"
     id="linearGradient2851"
     gradientUnits="userSpaceOnUse"
     gradientTransform="matrix(0,1.7481293,1.7481293,1.1302864e-2,-95.073723,4.0103583)"
     x1="19.849403"
     y1="23.890966"
     x2="47.572372"
     y2="23.890966" /><linearGradient
     inkscape:collect="always"
     xlink:href="#linearGradient2339"
     id="linearGradient2854"
     gradientUnits="userSpaceOnUse"
     gradientTransform="matrix(2.6379099,0,0,3.0340949,179.52257,1.0415404)"
     x1="-126.74655"
     y1="9.4969349"
     x2="-124.05344"
     y2="43.114998" /><linearGradient
     inkscape:collect="always"
     xlink:href="#XMLID_4_"
     id="linearGradient2867"
     gradientUnits="userSpaceOnUse"
     gradientTransform="matrix(0.6848358,0,0,0.6848358,-112.67773,36.092434)"
     x1="232.8517"
     y1="9.067646"
     x2="232.8517"
     y2="123.24046" /><linearGradient
     inkscape:collect="always"
     xlink:href="#linearGradient2442"
     id="linearGradient2873"
     gradientUnits="userSpaceOnUse"
     gradientTransform="matrix(0,1.8188412,-1.8188412,0,130.14223,-2.312777)"
     x1="15.658319"
     y1="23.890965"
     x2="62.952984"
     y2="23.890963" /><linearGradient
     inkscape:collect="always"
     xlink:href="#linearGradient5432"
     id="linearGradient2875"
     gradientUnits="userSpaceOnUse"
     gradientTransform="matrix(3.6124731,0,0,3.6124731,4.4674605,-65.345693)"
     x1="22.760281"
     y1="18.995085"
     x2="22.760281"
     y2="49.144836" /><linearGradient
     inkscape:collect="always"
     xlink:href="#linearGradient4222"
     id="linearGradient2877"
     gradientUnits="userSpaceOnUse"
     gradientTransform="matrix(0,-2.1095037,-2.099763,0,141.3303,91.166268)"
     x1="37.390652"
     y1="26.022907"
     x2="-7.150826"
     y2="26.022907" /><radialGradient
     inkscape:collect="always"
     xlink:href="#linearGradient8662"
     id="radialGradient2892"
     gradientUnits="userSpaceOnUse"
     gradientTransform="matrix(1,0,0,0.536723,0,16.87306)"
     cx="24.837126"
     cy="36.421127"
     fx="24.837126"
     fy="36.421127"
     r="15.644737" /><linearGradient
     inkscape:collect="always"
     xlink:href="#XMLID_4_"
     id="linearGradient2894"
     gradientUnits="userSpaceOnUse"
     gradientTransform="matrix(0.6848358,0,0,0.6848358,-112.67773,36.092434)"
     x1="232.8517"
     y1="9.067646"
     x2="232.8517"
     y2="123.24046" /><linearGradient
     inkscape:collect="always"
     xlink:href="#XMLID_5_"
     id="linearGradient2896"
     gradientUnits="userSpaceOnUse"
     gradientTransform="matrix(0.8744109,0,0,0.8744109,179.27795,12.548187)"
     spreadMethod="pad"
     x1="63.9995"
     y1="21.941401"
     x2="63.9995"
     y2="104.0591" /><linearGradient
     inkscape:collect="always"
     xlink:href="#linearGradient5128"
     id="linearGradient2898"
     gradientUnits="userSpaceOnUse"
     gradientTransform="matrix(0.8744109,0,0,0.8744109,179.27795,12.548187)"
     x1="86.132919"
     y1="105.105"
     x2="84.63858"
     y2="20.895" /><linearGradient
     inkscape:collect="always"
     xlink:href="#XMLID_6_"
     id="linearGradient2900"
     gradientUnits="userSpaceOnUse"
     gradientTransform="matrix(1.0091703,0,0,1.0091703,170.65334,3.2928895)"
     spreadMethod="pad"
     x1="64"
     y1="21.523018"
     x2="64"
     y2="103.06695" /><linearGradient
     inkscape:collect="always"
     xlink:href="#XMLID_6_"
     id="linearGradient2902"
     gradientUnits="userSpaceOnUse"
     gradientTransform="matrix(1.0091703,0,0,1.0091703,170.65334,3.2928895)"
     x1="49.273136"
     y1="22.274775"
     x2="49.373875"
     y2="102.04791" /><linearGradient
     inkscape:collect="always"
     xlink:href="#linearGradient2442"
     id="linearGradient2904"
     gradientUnits="userSpaceOnUse"
     gradientTransform="matrix(0,1.8110651,-1.8189876,0,132.75421,-1.9944488)"
     x1="15.658319"
     y1="23.890965"
     x2="62.952984"
     y2="23.890963" /><linearGradient
     inkscape:collect="always"
     xlink:href="#linearGradient5432"
     id="linearGradient2906"
     gradientUnits="userSpaceOnUse"
     gradientTransform="matrix(3.6127639,0,0,3.5970287,7.0693198,-64.75788)"
     x1="22.760281"
     y1="18.995085"
     x2="22.760281"
     y2="49.144836" /><linearGradient
     inkscape:collect="always"
     xlink:href="#linearGradient4222"
     id="linearGradient2908"
     gradientUnits="userSpaceOnUse"
     gradientTransform="matrix(0,-2.1004849,-2.099932,0,143.94318,91.084945)"
     x1="37.390652"
     y1="26.022907"
     x2="-7.150826"
     y2="26.022907" /></defs><sodipodi:namedview
   inkscape:window-height="792"
   inkscape:window-width="1440"
   inkscape:pageshadow="2"
   inkscape:pageopacity="0.0"
   guidetolerance="10.0"
   gridtolerance="10.0"
   objecttolerance="10.0"
   borderopacity="1.0"
   bordercolor="#666666"
   pagecolor="#ffffff"
   id="base"
   width="48px"
   height="48px"
   inkscape:zoom="0.69777268"
   inkscape:cx="-368.05012"
   inkscape:cy="-32.317091"
   inkscape:window-x="116"
   inkscape:window-y="177"
   inkscape:current-layer="layer2"
   showgrid="true"><inkscape:grid
     type="xygrid"
     id="grid2572" /></sodipodi:namedview>
	
	
	
	<linearGradient
   id="XMLID_4_"
   gradientUnits="userSpaceOnUse"
   x1="63.9995"
   y1="3.1001"
   x2="63.9995"
   y2="122.8994">
		<stop
   offset="0"
   style="stop-color:#f2f2f2;stop-opacity:1"
   id="stop11" />
		<stop
   offset="1"
   style="stop-color:#d8d8d8;stop-opacity:1"
   id="stop13" />
	</linearGradient>
	
	
	
	
	<linearGradient
   id="XMLID_5_"
   gradientUnits="userSpaceOnUse"
   x1="63.9995"
   y1="21.941401"
   x2="63.9995"
   y2="104.0591"
   xlink:href="#linearGradient2199"
   spreadMethod="pad">
		<stop
   offset="0"
   style="stop-color:#dadada;stop-opacity:1"
   id="stop24" />
		<stop
   offset="1"
   style="stop-color:#cccccc;stop-opacity:1"
   id="stop26" />
	</linearGradient>
	
	<linearGradient
   id="XMLID_6_"
   gradientUnits="userSpaceOnUse"
   x1="64"
   y1="21.523018"
   x2="64"
   y2="103.06695"
   xlink:href="#XMLID_5_"
   spreadMethod="pad">
		<stop
   offset="0"
   style="stop-color:#d9d9d9;stop-opacity:1"
   id="stop31" />
		<stop
   offset="1"
   style="stop-color:#cccccc;stop-opacity:1"
   id="stop33" />
	</linearGradient>
	
<g
   inkscape:groupmode="layer"
   id="layer1"
   inkscape:label="shadow" /><g
   inkscape:groupmode="layer"
   id="layer2"
   inkscape:label="retger"><g
     transform="matrix(0.5095419,0,0,0.5095419,-105.258,-15.436753)"
     inkscape:label="backdrop"
     id="g12923" /><g
     transform="matrix(0.5095419,0,0,0.5095419,-21.304906,18.401647)"
     style="display:inline"
     id="g12925"
     inkscape:label="Layer 1" /><g
     transform="matrix(0.5095419,0,0,0.5095419,-21.331958,18.549816)"
     inkscape:label="stuff"
     id="g12935" /><g
     transform="matrix(1.4701406,0,0,1.4701406,-198.59226,45.10117)"
     inkscape:label="shadiw"
     id="layer5"
     style="display:inline" /><g
     transform="matrix(0.5095419,0,0,0.5095419,-177.04689,49.200728)"
     inkscape:label="shadiw"
     id="g2529"
     style="display:inline" /><g
     transform="matrix(0.5012171,0,0,0.5012171,-120.71492,39.792408)"
     inkscape:label="Shadow"
     id="layer6" /><g
     transform="matrix(0.5012171,0,0,0.5012171,-120.71492,39.792408)"
     id="g2170"
     inkscape:label="Base"
     style="display:inline" /><g
     transform="matrix(0.5012171,0,0,0.5012171,-185.13645,54.090628)"
     id="g5398"
     inkscape:label="Layer 1" /><g
     transform="matrix(0.5012171,0,0,0.5012171,-185.13645,54.090628)"
     inkscape:label="shadiw"
     id="g2258" /><g
     transform="matrix(0.5012171,0,0,0.5012171,-185.13645,54.090628)"
     inkscape:label="white"
     id="g2260" /><g
     inkscape:label="Layer 1"
     id="g3678"
     style="display:inline"
     transform="matrix(0.5012171,0,0,0.5012171,-224.7314,49.903037)" /><g
     id="g3680"
     inkscape:label="bottom"
     transform="matrix(0.5012171,0,0,0.5012171,-224.7314,49.903037)" /><g
     id="g2264"
     inkscape:label="back"
     style="display:inline"
     transform="matrix(0.5012171,0,0,0.5012171,-224.7314,49.903037)" /><g
     transform="matrix(0.5012171,0,0,0.5012171,-146.27875,54.367681)"
     inkscape:label="shadiw"
     id="g3698" /><g
     transform="matrix(0.5012171,0,0,0.5012171,-61.909519,57.004218)"
     inkscape:label="shadiw"
     id="g3760" /><g
     id="g5431"
     inkscape:label="Shadow"
     transform="matrix(0.5012171,0,0,0.5012171,-239.4354,36.848776)" /><g
     style="display:inline"
     inkscape:label="Base"
     id="g4258"
     transform="matrix(0.5012171,0,0,0.5012171,-239.4354,36.848776)" /><g
     id="g5440"
     inkscape:label="new"
     transform="matrix(0.5012171,0,0,0.5012171,-239.4354,36.848776)" /><g
     inkscape:label="Layer 1"
     id="g3928"
     style="display:inline"
     transform="matrix(0.5012171,0,0,0.5012171,-223.67859,43.986657)" /><g
     id="g3930"
     inkscape:label="bottom"
     transform="matrix(0.5012171,0,0,0.5012171,-223.67859,43.986657)" /><g
     id="g3932"
     inkscape:label="back"
     style="display:inline"
     transform="matrix(0.5012171,0,0,0.5012171,-223.67859,43.986657)" /><g
     transform="matrix(0.5012171,0,0,0.5012171,-145.22593,48.451302)"
     inkscape:label="shadiw"
     id="g3934" /><g
     transform="matrix(0.5012171,0,0,0.5012171,-60.856703,51.087838)"
     inkscape:label="shadiw"
     id="g3936" /><g
     id="g3961"
     inkscape:label="Shadow"
     transform="matrix(0.5012171,0,0,0.5012171,-238.38259,30.932396)" /><g
     style="display:inline"
     inkscape:label="Base"
     id="g3963"
     transform="matrix(0.5012171,0,0,0.5012171,-238.38259,30.932396)" /><g
     id="layer7"
     inkscape:label="new"
     transform="matrix(0.5012171,0,0,0.5012171,-238.38259,30.932396)" /><g
     transform="matrix(0.5012171,0,0,0.5012171,-138.76267,27.731871)"
     inkscape:label="Shadow"
     id="g2381" /><g
     transform="matrix(0.5012171,0,0,0.5012171,-138.76267,27.731871)"
     id="g2383"
     inkscape:label="Base"
     style="display:inline" /><g
     transform="matrix(0.5012171,0,0,0.5012171,-203.1842,42.030091)"
     id="g2385"
     inkscape:label="Layer 1" /><g
     transform="matrix(0.5012171,0,0,0.5012171,-203.1842,42.030091)"
     inkscape:label="shadiw"
     id="g2387" /><g
     transform="matrix(0.5012171,0,0,0.5012171,-203.1842,42.030091)"
     inkscape:label="white"
     id="g2389" /><g
     inkscape:label="Layer 1"
     id="g2391"
     style="display:inline"
     transform="matrix(0.5012171,0,0,0.5012171,-242.77915,37.8425)" /><g
     id="g2393"
     inkscape:label="bottom"
     transform="matrix(0.5012171,0,0,0.5012171,-242.77915,37.8425)" /><g
     id="g2395"
     inkscape:label="back"
     style="display:inline"
     transform="matrix(0.5012171,0,0,0.5012171,-242.77915,37.8425)" /><g
     transform="matrix(0.5012171,0,0,0.5012171,-164.3265,42.307144)"
     inkscape:label="shadiw"
     id="g2397" /><g
     transform="matrix(0.5012171,0,0,0.5012171,-79.957268,44.943681)"
     inkscape:label="shadiw"
     id="g2399" /><g
     id="g2401"
     inkscape:label="Shadow"
     transform="matrix(0.5012171,0,0,0.5012171,-257.48315,24.788239)" /><g
     style="display:inline"
     inkscape:label="Base"
     id="g2403"
     transform="matrix(0.5012171,0,0,0.5012171,-257.48315,24.788239)" /><g
     id="g2405"
     inkscape:label="new"
     transform="matrix(0.5012171,0,0,0.5012171,-257.48315,24.788239)" /><g
     inkscape:label="Layer 1"
     id="g2407"
     style="display:inline"
     transform="matrix(0.5012171,0,0,0.5012171,-241.72634,31.92612)" /><g
     id="g2409"
     inkscape:label="bottom"
     transform="matrix(0.5012171,0,0,0.5012171,-241.72634,31.92612)" /><g
     id="g2411"
     inkscape:label="back"
     style="display:inline"
     transform="matrix(0.5012171,0,0,0.5012171,-241.72634,31.92612)" /><g
     transform="matrix(0.5012171,0,0,0.5012171,-163.27368,36.390765)"
     inkscape:label="shadiw"
     id="g2413" /><g
     transform="matrix(0.5012171,0,0,0.5012171,-78.904452,39.027301)"
     inkscape:label="shadiw"
     id="g2415" /><g
     id="g2417"
     inkscape:label="Shadow"
     transform="matrix(0.5012171,0,0,0.5012171,-256.43034,18.871859)" /><g
     style="display:inline"
     inkscape:label="Base"
     id="g2419"
     transform="matrix(0.5012171,0,0,0.5012171,-256.43034,18.871859)" /><g
     id="g2421"
     inkscape:label="new"
     transform="matrix(0.5012171,0,0,0.5012171,-256.43034,18.871859)" /><g
     id="g2879"
     transform="matrix(0.996557,0,0,1,0.3028658,0)"><g
       transform="matrix(0.6848358,0,0,0.6848358,2.957953,40.341006)"
       inkscape:label="shadow"
       id="g2664"><g
         transform="matrix(2.6731581,0,0,2.6731581,-0.1557933,-0.3115884)"
         style="display:inline"
         id="g2532"
         inkscape:label="Layer 1"><path
           inkscape:r_cy="true"
           inkscape:r_cx="true"
           sodipodi:type="arc"
           style="opacity:0.38333333;fill:url(#radialGradient2892);fill-opacity:1;fill-rule:evenodd;stroke:none;stroke-width:1;stroke-linecap:butt;stroke-linejoin:miter;marker:none;marker-start:none;marker-mid:none;marker-end:none;stroke-miterlimit:10;stroke-dasharray:none;stroke-dashoffset:0;stroke-opacity:1;visibility:visible;display:inline;overflow:visible"
           id="path3458"
           sodipodi:cx="24.837126"
           sodipodi:cy="36.421127"
           sodipodi:rx="15.644737"
           sodipodi:ry="8.3968935"
           d="M 40.481863,36.421127 A 15.644737,8.3968935 0 1 1 9.1923885,36.421127 A 15.644737,8.3968935 0 1 1 40.481863,36.421127 z"
           transform="matrix(-1.489736,0,0,-1.001252,61.00076,76.05932)" /></g></g><path
       d="M 84.073694,72.619479 L 80.916622,72.619479 C 80.064549,72.619479 79.079317,71.910402 78.808417,71.102932 C 78.793323,71.060952 76.849101,66.354543 76.849101,66.354543 C 76.448979,65.549697 76.64248,64.353908 77.244642,63.751095 L 79.476823,61.518912 C 79.989772,61.005306 80.273143,60.320499 80.273143,59.590432 C 80.273143,58.860364 79.989772,58.175557 79.476823,57.662608 L 70.687805,48.873593 C 70.174856,48.360644 69.490048,48.077931 68.759978,48.077275 C 68.029916,48.077275 67.345108,48.359988 66.832159,48.873593 L 64.599978,51.105776 C 63.997815,51.707278 62.801373,51.901438 62.039822,51.520989 C 61.997184,51.501311 57.290773,49.557745 57.290773,49.557745 C 56.440666,49.271096 55.731587,48.285866 55.731587,47.433792 L 55.731587,44.27607 C 55.729621,42.771988 54.506285,41.548649 53.002859,41.548649 L 40.574,41.548649 C 39.069915,41.548649 37.846579,42.771988 37.846579,44.27607 L 37.846579,47.433792 C 37.846579,48.285866 37.1375,49.271096 36.330031,49.542002 C 36.288051,49.557745 31.58164,51.501311 31.58164,51.501311 C 30.776794,51.901438 29.580351,51.707278 28.978196,51.10512 L 26.746007,48.873593 C 26.232408,48.359988 25.5476,48.077275 24.81753,48.077275 C 24.087461,48.077275 23.402653,48.360644 22.889704,48.873593 L 14.100035,57.662608 C 13.036745,58.725896 13.036745,60.455624 14.100035,61.518912 L 16.332216,63.751095 C 16.933721,64.353252 17.127879,65.549697 16.747432,66.311251 C 16.727757,66.353887 14.783529,71.060296 14.783529,71.060296 C 14.496884,71.910402 13.512309,72.618823 12.660236,72.618823 L 10.321132,72.618823 C 8.8177049,72.619479 6.7757505,73.842817 6.7757505,75.346901 L 6.7757505,87.775102 C 6.7757505,89.279185 7.9990864,90.502523 9.5031707,90.502523 L 12.660894,90.502523 C 13.512966,90.502523 14.498192,91.210945 14.768442,92.019069 C 14.784186,92.06105 16.728407,96.767459 16.728407,96.767459 C 17.128536,97.572304 16.934379,98.768093 16.332874,99.370907 L 14.100693,101.60309 C 13.037403,102.66638 13.037403,104.39611 14.100693,105.4594 L 22.890361,114.24841 C 23.40331,114.76136 24.088119,115.04473 24.818188,115.04473 C 25.548908,115.04473 26.233716,114.76136 26.746665,114.24841 L 28.978846,112.01623 C 29.581009,111.41473 30.777451,111.22056 31.539002,111.60101 C 31.58164,111.62069 36.288051,113.56492 36.288051,113.56492 C 37.1375,113.85157 37.846579,114.83614 37.846579,115.68821 L 37.846579,118.84528 C 37.846579,120.34936 39.069915,121.5727 40.574,121.5727 L 53.002201,121.5727 C 54.505628,121.5727 55.728964,120.34936 55.728964,118.84528 L 55.728964,115.68821 C 55.728964,114.83614 56.438043,113.85091 57.24617,113.58 C 57.28815,113.56492 61.994561,111.62069 61.994561,111.62069 C 62.7994,111.22056 63.996507,111.41407 64.598005,112.01623 L 66.830186,114.24841 C 67.343142,114.76136 68.027944,115.04473 68.758013,115.04473 C 69.488082,115.04473 70.172891,114.76136 70.685839,114.24841 L 79.474851,105.4594 C 79.987807,104.94644 80.271171,104.26164 80.271171,103.53157 C 80.271171,102.8015 79.987807,102.1167 79.474851,101.60375 L 77.24267,99.371563 C 76.640514,98.769405 76.447007,97.57296 76.827461,96.811408 C 76.847136,96.768772 78.791357,92.062361 78.791357,92.062361 C 79.078009,91.212912 80.062584,90.503835 80.914657,90.503835 L 84.071722,90.503835 C 85.5758,90.503835 86.799142,89.280497 86.799142,87.776413 L 86.799142,75.346901 C 86.801115,73.842817 85.577772,72.619479 84.073694,72.619479 z M 46.788426,93.165662 C 40.389676,93.165662 35.183438,87.960078 35.183438,81.561329 C 35.183438,75.162579 40.389676,69.95634 46.788426,69.95634 C 53.187833,69.95634 58.392763,75.162579 58.392763,81.561329 C 58.392763,87.960734 53.187833,93.165662 46.788426,93.165662 z"
       id="path2450"
       style="opacity:0.1;fill:#030303" /><path
       d="M 84.073694,72.604392 L 80.916622,72.604392 C 80.064549,72.604392 79.079317,71.894003 78.808417,71.085222 C 78.793323,71.043241 76.849101,66.329617 76.849101,66.329617 C 76.448979,65.523459 76.64248,64.325703 77.244642,63.722233 L 79.476823,61.486115 C 79.989772,60.971854 80.273143,60.285734 80.273143,59.554354 C 80.273143,58.823632 79.989772,58.137513 79.476823,57.623251 L 70.687805,48.819806 C 70.174856,48.305544 69.490048,48.022176 68.759978,48.022176 C 68.029916,48.022176 67.345108,48.305544 66.832159,48.819806 L 64.599978,51.055268 C 63.997815,51.658082 62.801373,51.852242 62.039822,51.471138 C 61.997184,51.451459 57.290773,49.504613 57.290773,49.504613 C 56.440666,49.217309 55.731587,48.230766 55.731587,47.377382 L 55.731587,44.214412 C 55.729621,42.707705 54.506285,41.482399 53.002859,41.482399 L 40.574,41.482399 C 39.069915,41.482399 37.846579,42.707705 37.846579,44.214412 L 37.846579,47.377382 C 37.846579,48.230766 37.1375,49.217965 36.330031,49.488869 C 36.288051,49.504613 31.58164,51.451459 31.58164,51.451459 C 30.776794,51.852242 29.580351,51.658082 28.978196,51.055268 L 26.746007,48.819806 C 26.232408,48.305544 25.5476,48.022176 24.81753,48.022176 C 24.087461,48.022176 23.402653,48.3062 22.889704,48.819806 L 14.100035,57.623251 C 13.036745,58.688506 13.036745,60.421515 14.100035,61.486115 L 16.332216,63.722233 C 16.933721,64.325047 17.127879,65.523459 16.747432,66.28698 C 16.727757,66.329617 14.783529,71.043897 14.783529,71.043897 C 14.496884,71.895315 13.512309,72.605048 12.660236,72.605048 L 10.321132,72.605048 C 8.8177049,72.604392 6.7757505,73.829699 6.7757505,75.336405 L 6.7757505,87.785596 C 6.7757505,89.291648 7.9990864,90.516954 9.5031707,90.516954 L 12.660894,90.516954 C 13.512966,90.516954 14.498192,91.226687 14.768442,92.036124 C 14.784186,92.078104 16.728407,96.791729 16.728407,96.791729 C 17.128536,97.597886 16.934379,98.796299 16.332874,99.399769 L 14.100693,101.63589 C 13.037403,102.70049 13.037403,104.43415 14.100693,105.49875 L 22.890361,114.3022 C 23.40331,114.81646 24.088119,115.09983 24.818188,115.09983 C 25.548908,115.09983 26.233716,114.81646 26.746665,114.3022 L 28.978846,112.06673 C 29.581009,111.46392 30.777451,111.26911 31.539002,111.65087 C 31.58164,111.66989 36.288051,113.61739 36.288051,113.61739 C 37.1375,113.9047 37.846579,114.89059 37.846579,115.74462 L 37.846579,118.90694 C 37.846579,120.41364 39.069915,121.63895 40.574,121.63895 L 53.002201,121.63895 C 54.505628,121.63895 55.728964,120.41364 55.728964,118.90694 L 55.728964,115.74462 C 55.728964,114.89059 56.438043,113.90404 57.24617,113.63247 C 57.28815,113.61739 61.994561,111.66989 61.994561,111.66989 C 62.7994,111.26911 63.996507,111.46392 64.598005,112.06608 L 66.830186,114.30155 C 67.343142,114.81581 68.027944,115.09917 68.758013,115.09917 C 69.488082,115.09917 70.172891,114.81581 70.685839,114.30155 L 79.474851,105.4981 C 79.987807,104.98449 80.271171,104.29837 80.271171,103.56699 C 80.271171,102.83561 79.987807,102.14949 79.474851,101.63589 L 77.24267,99.399769 C 76.640514,98.796955 76.447007,97.597886 76.827461,96.835677 C 76.847136,96.792385 78.791357,92.078761 78.791357,92.078761 C 79.078009,91.226687 80.062584,90.516954 80.914657,90.516954 L 84.071722,90.516954 C 85.5758,90.516954 86.799142,89.291648 86.799142,87.785596 L 86.799142,75.336405 C 86.801115,73.829699 85.577772,72.604392 84.073694,72.604392 z M 46.788426,94.08333 C 39.846553,94.08333 34.199521,88.436294 34.199521,81.495078 C 34.199521,74.553207 39.846553,68.906171 46.788426,68.906171 C 53.729647,68.906171 59.37668,74.553207 59.37668,81.495078 C 59.37668,88.436294 53.729647,94.08333 46.788426,94.08333 z"
       id="path2452"
       style="fill:url(#linearGradient2894);fill-opacity:1;stroke:#888888;stroke-width:3.33333325;stroke-linecap:round;stroke-linejoin:round;stroke-miterlimit:4;stroke-dasharray:none;stroke-opacity:1" /><g
       id="g3255"
       transform="matrix(0.6848358,0,0,0.6848358,-114.3135,35.606675)"><path
         style="fill:url(#linearGradient2896);stroke:url(#linearGradient2898);stroke-width:2.29875445;stroke-miterlimit:4;stroke-dasharray:none"
         id="path2679"
         d="M 235.24024,31.256207 C 215.18038,31.256207 198.86038,47.576211 198.86038,67.636072 C 198.86038,87.695931 215.18038,104.01593 235.24024,104.01593 C 255.3001,104.01593 271.62011,87.695931 271.62011,67.636072 C 271.62011,47.576211 255.3001,31.256207 235.24024,31.256207 z M 235.24024,94.393045 C 220.46182,94.393045 208.48327,82.415364 208.48327,67.636072 C 208.48327,52.856779 220.46182,40.879099 235.24024,40.879099 C 250.01866,40.879099 261.99721,52.857653 261.99721,67.636072 C 261.99721,82.41449 250.01866,94.393045 235.24024,94.393045 z" /><path
         style="fill:url(#linearGradient2900);stroke:url(#linearGradient2902);stroke-width:1.00917029;stroke-opacity:1"
         id="path2681"
         d="M 235.24024,35.586338 C 217.96224,35.586338 203.95596,49.592613 203.95596,66.870617 C 203.95596,84.148622 217.96224,98.154896 235.24024,98.154896 C 252.51824,98.154896 266.52452,84.148622 266.52452,66.870617 C 266.52452,49.592613 252.51824,35.586338 235.24024,35.586338 z M 235.24024,87.558609 C 223.81341,87.558609 214.55225,78.296443 214.55225,66.870617 C 214.55225,55.443782 223.81341,46.182626 235.24024,46.182626 C 246.66607,46.182626 255.92823,55.443782 255.92823,66.870617 C 255.92823,78.296443 246.66607,87.558609 235.24024,87.558609 z" /></g><g
       transform="matrix(0.9706613,0,0,1,2.7178948,0)"
       id="g3593"><path
         sodipodi:nodetypes="cccccccc"
         style="fill:url(#linearGradient2904);fill-opacity:1;fill-rule:nonzero;stroke:url(#linearGradient2906);stroke-width:2.70098376;stroke-linecap:round;stroke-linejoin:round;marker:none;marker-start:none;marker-mid:none;marker-end:none;stroke-miterlimit:4;stroke-dasharray:none;stroke-dashoffset:0;stroke-opacity:1;visibility:visible;display:inline;overflow:visible"
         d="M 125.2101,44.075387 L 89.206761,1.3218319 L 53.383571,43.980371 L 69.964429,43.980371 L 70.026161,111.0041 L 108.4598,111.0041 L 108.52153,44.075387 L 125.2101,44.075387 z"
         id="path2426" /><path
         sodipodi:nodetypes="cccccccc"
         style="opacity:0.35400002;fill:none;fill-opacity:1;fill-rule:nonzero;stroke:url(#linearGradient2908);stroke-width:2.70098376;stroke-linecap:butt;stroke-linejoin:miter;marker:none;marker-start:none;marker-mid:none;marker-end:none;stroke-miterlimit:4;stroke-dasharray:none;stroke-dashoffset:0;stroke-opacity:1;visibility:visible;display:inline;overflow:visible"
         d="M 119.23576,41.324696 L 89.304091,5.3333333 L 59.110987,41.324696 L 72.698912,41.30116 L 72.63718,101.33333 L 105.76917,101.33333 L 105.76917,41.360874 L 119.23576,41.324696 z"
         id="path2428" /></g></g><g
     transform="matrix(0.186703,0,0,0.186703,-322.64346,140.42705)"
     id="g891" /><g
     transform="translate(-339.66566,199.20926)"
     inkscape:label="pattern"
     id="g4038"
     inkscape:r_cx="true"
     inkscape:r_cy="true" /><g
     transform="translate(-339.66566,253.20926)"
     inkscape:label="pattern"
     id="g4912"
     inkscape:r_cx="true"
     inkscape:r_cy="true" /><g
     transform="translate(-339.66566,307.20926)"
     inkscape:label="pattern"
     id="g10822"
     inkscape:r_cx="true"
     inkscape:r_cy="true" /><g
     inkscape:r_cy="true"
     inkscape:r_cx="true"
     id="g30615"
     transform="translate(-338.42823,356.11876)"><g
       inkscape:r_cy="true"
       inkscape:r_cx="true"
       inkscape:export-ydpi="74.800003"
       inkscape:export-xdpi="74.800003"
       inkscape:export-filename="/home/jimmac/ximian_art/icons/nautilus/suse93/gnome-fs-directory.png"
       transform="matrix(1.040764,0,5.449252e-2,1.040764,-8.670199,2.670594)"
       id="g30617"
       style="fill:#ffffff;fill-opacity:0.75706213;fill-rule:nonzero;stroke:none;stroke-width:0.99946535;stroke-miterlimit:4" /><g
       inkscape:r_cy="true"
       inkscape:r_cx="true"
       id="g30619"
       transform="matrix(1.040764,0,5.449252e-2,1.365642,-8.358528,0.921788)"
       style="opacity:0.41477272;fill:url(#linearGradient2755);fill-opacity:1;fill-rule:nonzero;stroke:#000000;stroke-miterlimit:4"
       inkscape:export-filename="/home/jimmac/ximian_art/icons/nautilus/suse93/gnome-fs-directory.png"
       inkscape:export-xdpi="74.800003"
       inkscape:export-ydpi="74.800003" /></g><g
     inkscape:r_cy="true"
     inkscape:r_cx="true"
     id="g35216"
     transform="translate(-338.42823,410.11876)"><g
       inkscape:r_cy="true"
       inkscape:r_cx="true"
       inkscape:export-ydpi="74.800003"
       inkscape:export-xdpi="74.800003"
       inkscape:export-filename="/home/jimmac/ximian_art/icons/nautilus/suse93/gnome-fs-directory.png"
       transform="matrix(1.040764,0,5.449252e-2,1.040764,-8.670199,2.670594)"
       id="g35218"
       style="fill:#ffffff;fill-opacity:0.75706213;fill-rule:nonzero;stroke:none;stroke-width:0.99946535;stroke-miterlimit:4" /><g
       inkscape:r_cy="true"
       inkscape:r_cx="true"
       id="g35220"
       transform="matrix(1.040764,0,5.449252e-2,1.365642,-8.358528,0.921788)"
       style="opacity:0.41477272;fill:url(#linearGradient2757);fill-opacity:1;fill-rule:nonzero;stroke:#000000;stroke-miterlimit:4"
       inkscape:export-filename="/home/jimmac/ximian_art/icons/nautilus/suse93/gnome-fs-directory.png"
       inkscape:export-xdpi="74.800003"
       inkscape:export-ydpi="74.800003" /></g><g
     id="g2631"
     transform="matrix(0.186703,0,0,0.186703,-361.82724,208.81458)" /><g
     transform="matrix(0.186703,0,0,0.186703,-405.81999,268.47512)"
     id="g2718" /><path
     style="fill:none;fill-rule:evenodd;stroke:none;stroke-width:1px;stroke-linecap:square;stroke-linejoin:miter;stroke-opacity:0.58128076"
     id="path4376"
     d="M -363.6239,67.075875 L -365.75747,50.752307" /><g
     inkscape:label="backdrop"
     id="g11056"
     transform="matrix(0.5000002,0,0,0.5000002,-450.08277,-49.585522)" /><g
     style="display:inline"
     inkscape:label="Layer 1"
     id="g11058"
     transform="matrix(0.5000002,0,0,0.5000002,-367.70179,-16.380783)" /><g
     inkscape:label="bottom"
     id="g11060"
     transform="matrix(0.5000002,0,0,0.5000002,-367.70179,-16.380783)" /><g
     style="display:inline"
     inkscape:label="back"
     id="g11062"
     transform="matrix(0.5000002,0,0,0.5000002,-367.70179,-16.380783)" /><g
     inkscape:export-ydpi="74.800003"
     inkscape:export-xdpi="74.800003"
     inkscape:export-filename="/home/jimmac/ximian_art/icons/nautilus/suse93/gnome-fs-directory.png"
     style="opacity:0.41477272;fill:url(#linearGradient2769);fill-opacity:1;fill-rule:nonzero;stroke:#000000;stroke-miterlimit:4"
     transform="matrix(1.040764,0,5.449252e-2,1.365642,-453.16748,142.39143)"
     id="g217" /></g></svg>