<?xml version="1.0" encoding="UTF-8" standalone="no"?>
<!-- Created with Inkscape (http://www.inkscape.org/) -->
<svg
   xmlns:dc="http://purl.org/dc/elements/1.1/"
   xmlns:cc="http://web.resource.org/cc/"
   xmlns:rdf="http://www.w3.org/1999/02/22-rdf-syntax-ns#"
   xmlns:svg="http://www.w3.org/2000/svg"
   xmlns="http://www.w3.org/2000/svg"
   xmlns:xlink="http://www.w3.org/1999/xlink"
   xmlns:sodipodi="http://sodipodi.sourceforge.net/DTD/sodipodi-0.dtd"
   xmlns:inkscape="http://www.inkscape.org/namespaces/inkscape"
   width="48px"
   height="48px"
   id="svg2108"
   sodipodi:version="0.32"
   inkscape:version="0.44.1"
   sodipodi:docbase="/home/jesusda/docs/themes/iconos/pasodoble"
   sodipodi:docname="amule.svg"
   inkscape:export-filename="/home/jesusda/docs/themes/iconos/pasodoble/amule_48.png"
   inkscape:export-xdpi="90"
   inkscape:export-ydpi="90">
  <defs
     id="defs3">
    <linearGradient
       id="linearGradient34648">
      <stop
         id="stop34650"
         offset="0"
         style="stop-color:white;stop-opacity:1;" />
      <stop
         id="stop34652"
         offset="1"
         style="stop-color:white;stop-opacity:0" />
    </linearGradient>
    <linearGradient
       id="linearGradient25671">
      <stop
         style="stop-color:white;stop-opacity:1;"
         offset="0"
         id="stop25673" />
      <stop
         style="stop-color:white;stop-opacity:0;"
         offset="1"
         id="stop25675" />
    </linearGradient>
    <linearGradient
       id="linearGradient19466">
      <stop
         style="stop-color:#f1f1f1;stop-opacity:1;"
         offset="0"
         id="stop19468" />
      <stop
         style="stop-color:#babdb6;stop-opacity:1;"
         offset="1"
         id="stop19470" />
    </linearGradient>
    <linearGradient
       id="linearGradient11455">
      <stop
         style="stop-color:#e7a53c;stop-opacity:1;"
         offset="0"
         id="stop11457" />
      <stop
         style="stop-color:#c17d11;stop-opacity:1;"
         offset="1"
         id="stop11459" />
    </linearGradient>
    <linearGradient
       inkscape:collect="always"
       id="linearGradient3816">
      <stop
         style="stop-color:#000000;stop-opacity:1;"
         offset="0"
         id="stop3818" />
      <stop
         style="stop-color:#000000;stop-opacity:0;"
         offset="1"
         id="stop3820" />
    </linearGradient>
    <radialGradient
       inkscape:collect="always"
       xlink:href="#linearGradient3816"
       id="radialGradient9675"
       gradientUnits="userSpaceOnUse"
       cx="31.112698"
       cy="19.008621"
       fx="31.112698"
       fy="19.008621"
       r="8.6620579" />
    <linearGradient
       inkscape:collect="always"
       xlink:href="#linearGradient11455"
       id="linearGradient11461"
       x1="13.144103"
       y1="3.7709198"
       x2="15.282922"
       y2="10.841989"
       gradientUnits="userSpaceOnUse"
       gradientTransform="matrix(1.095718,0,0,1.095718,-5.716903,-1.74787)" />
    <linearGradient
       inkscape:collect="always"
       xlink:href="#linearGradient11455"
       id="linearGradient14124"
       x1="30.288221"
       y1="9.9835567"
       x2="33.180138"
       y2="14.137809"
       gradientUnits="userSpaceOnUse"
       gradientTransform="translate(-3.5,0)" />
    <radialGradient
       inkscape:collect="always"
       xlink:href="#linearGradient11455"
       id="radialGradient15914"
       cx="20.779243"
       cy="17.632784"
       fx="20.779243"
       fy="17.632784"
       r="12.684678"
       gradientTransform="matrix(0.176863,0.27813,-0.416006,0.264538,23.30494,4.695267)"
       gradientUnits="userSpaceOnUse" />
    <linearGradient
       inkscape:collect="always"
       xlink:href="#linearGradient19466"
       id="linearGradient19472"
       x1="23.020285"
       y1="30.234846"
       x2="28.303734"
       y2="37.394302"
       gradientUnits="userSpaceOnUse"
       gradientTransform="translate(-3.5,0)" />
    <linearGradient
       inkscape:collect="always"
       xlink:href="#linearGradient25671"
       id="linearGradient25677"
       x1="9.2949333"
       y1="3.5456378"
       x2="17.135468"
       y2="12.56125"
       gradientUnits="userSpaceOnUse" />
    <linearGradient
       inkscape:collect="always"
       xlink:href="#linearGradient25671"
       id="linearGradient27530"
       x1="10.445213"
       y1="-1.8772541"
       x2="28.927105"
       y2="30.099813"
       gradientUnits="userSpaceOnUse" />
    <linearGradient
       inkscape:collect="always"
       xlink:href="#linearGradient25671"
       id="linearGradient28425"
       x1="13.92055"
       y1="-10.034259"
       x2="39.115166"
       y2="15.86468"
       gradientUnits="userSpaceOnUse"
       gradientTransform="matrix(1.001472,0,0,0.958895,-4.760993e-2,0.491748)" />
    <linearGradient
       inkscape:collect="always"
       xlink:href="#linearGradient25671"
       id="linearGradient31979"
       x1="167.7552"
       y1="464.58746"
       x2="404.8714"
       y2="873.34998"
       gradientUnits="userSpaceOnUse" />
    <linearGradient
       inkscape:collect="always"
       xlink:href="#linearGradient19466"
       id="linearGradient32868"
       gradientUnits="userSpaceOnUse"
       gradientTransform="matrix(0.83949,0,0,0.893955,1.197712,3.8061)"
       x1="23.020285"
       y1="30.234846"
       x2="28.303734"
       y2="37.394302" />
    <linearGradient
       inkscape:collect="always"
       xlink:href="#linearGradient34648"
       id="linearGradient33761"
       x1="19.695255"
       y1="28.337925"
       x2="31.038153"
       y2="40.911903"
       gradientUnits="userSpaceOnUse" />
    <linearGradient
       inkscape:collect="always"
       xlink:href="#linearGradient34648"
       id="linearGradient35547"
       x1="37.017776"
       y1="48.146671"
       x2="33.772587"
       y2="41.068073"
       gradientUnits="userSpaceOnUse" />
    <linearGradient
       inkscape:collect="always"
       xlink:href="#linearGradient19466"
       id="linearGradient36440"
       x1="277.4422"
       y1="592.78882"
       x2="255.77803"
       y2="737.88422"
       gradientUnits="userSpaceOnUse" />
  </defs>
  <sodipodi:namedview
     inkscape:showpageshadow="false"
     id="base"
     pagecolor="#ffffff"
     bordercolor="#666666"
     borderopacity="1.0"
     inkscape:pageopacity="0.0"
     inkscape:pageshadow="2"
     inkscape:zoom="7.9999999"
     inkscape:cx="22.873768"
     inkscape:cy="26.639162"
     inkscape:current-layer="layer1"
     showgrid="false"
     inkscape:grid-bbox="true"
     inkscape:document-units="px"
     fill="#9db029"
     stroke="#727e0a"
     inkscape:window-width="1144"
     inkscape:window-height="785"
     inkscape:window-x="0"
     inkscape:window-y="30" />
  <metadata
     id="metadata4">
    <rdf:RDF>
      <cc:Work
         rdf:about="">
        <dc:format>image/svg+xml</dc:format>
        <dc:type
           rdf:resource="http://purl.org/dc/dcmitype/StillImage" />
        <dc:title>aMule</dc:title>
        <dc:creator>
          <cc:Agent>
            <dc:title>jEsuSdA 8)</dc:title>
          </cc:Agent>
        </dc:creator>
        <dc:source>http://www.jesusda.com</dc:source>
        <dc:subject>
          <rdf:Bag>
            <rdf:li>amule</rdf:li>
            <rdf:li>xmule</rdf:li>
            <rdf:li>edonkey</rdf:li>
            <rdf:li>p2p</rdf:li>
          </rdf:Bag>
        </dc:subject>
        <cc:license
           rdf:resource="http://creativecommons.org/licenses/by-sa/2.0/" />
      </cc:Work>
      <cc:License
         rdf:about="http://creativecommons.org/licenses/by-sa/2.0/">
        <cc:permits
           rdf:resource="http://web.resource.org/cc/Reproduction" />
        <cc:permits
           rdf:resource="http://web.resource.org/cc/Distribution" />
        <cc:requires
           rdf:resource="http://web.resource.org/cc/Notice" />
        <cc:requires
           rdf:resource="http://web.resource.org/cc/Attribution" />
        <cc:permits
           rdf:resource="http://web.resource.org/cc/DerivativeWorks" />
        <cc:requires
           rdf:resource="http://web.resource.org/cc/ShareAlike" />
      </cc:License>
    </rdf:RDF>
  </metadata>
  <g
     id="layer1"
     inkscape:label="cipek"
     inkscape:groupmode="layer"
     style="display:inline">
    <path
       transform="matrix(2.483044,0,0,0.6466,-52.20475,30.09637)"
       sodipodi:type="arc"
       style="opacity:0.4;color:black;fill:url(#radialGradient9675);fill-opacity:1;fill-rule:evenodd;stroke:none;stroke-width:1px;stroke-linecap:round;stroke-linejoin:round;marker:none;marker-start:none;marker-mid:none;marker-end:none;stroke-miterlimit:4;stroke-dasharray:none;stroke-dashoffset:0;stroke-opacity:1;visibility:visible;display:inline;overflow:visible"
       id="path4306"
       sodipodi:cx="31.112698"
       sodipodi:cy="19.008621"
       sodipodi:rx="8.6620579"
       sodipodi:ry="8.6620579"
       d="M 39.774755 19.008621 A 8.6620579 8.6620579 0 1 1  22.45064,19.008621 A 8.6620579 8.6620579 0 1 1  39.774755 19.008621 z" />
    <path
       style="fill:#c00;fill-opacity:1;fill-rule:evenodd;stroke:#a40000;stroke-width:1;stroke-linecap:butt;stroke-linejoin:miter;stroke-miterlimit:4;stroke-dasharray:none;stroke-opacity:1"
       d="M 29.857437,40.758059 C 30.112254,39.708135 33.920898,38.556598 35.187414,39.086268 C 36.585886,39.671123 38.172117,42.784316 37.852403,44.101637 C 37.597314,45.152685 34.5618,46.650899 33.463009,46.191373 C 31.896812,45.536373 29.53745,42.076504 29.857437,40.758059 z "
       id="path916"
       sodipodi:nodetypes="cssss" />
    <path
       style="fill:#8f5902;fill-opacity:1;fill-rule:evenodd;stroke:none;stroke-width:1pt;stroke-linecap:butt;stroke-linejoin:miter;stroke-opacity:1"
       d="M 30.807149,14.411613 L 34.523845,16.211374 L 31.821028,15.378535 L 34.249397,17.823681 L 30.808011,16.157233 L 32.548103,18.26909 L 29.519683,16.802617 L 30.807149,14.411613 z "
       id="path917" />
    <path
       style="fill:#8e580d;fill-opacity:1;fill-rule:evenodd;stroke:none;stroke-width:1pt;stroke-linecap:butt;stroke-linejoin:miter;stroke-opacity:1"
       d="M 13.702031,16.155881 L 9.91758,17.840442 L 12.651163,17.091094 L 10.12918,19.460213 L 13.633301,17.900433 L 11.81214,19.957596 L 14.895766,18.584992 L 13.702031,16.155881 z "
       id="path919" />
    <path
       style="fill:url(#linearGradient14124);fill-opacity:1;fill-rule:evenodd;stroke:#8f5902;stroke-width:1.0957185;stroke-linecap:butt;stroke-linejoin:miter;stroke-miterlimit:4;stroke-dasharray:none;stroke-opacity:1"
       d="M 25.37783,9.6015516 C 27.226679,8.8499052 30.297106,8.7215647 32.418649,9.4911736 C 35.992118,10.787482 43.541457,15.3608 42.462868,15.799298 C 40.773062,16.486288 28.90533,14.605926 24.113465,12.867635 C 23.210318,12.540009 24.458284,9.9753916 25.37783,9.6015516 z "
       id="path837"
       sodipodi:nodetypes="cssss" />
    <path
       style="fill:url(#linearGradient11461);fill-opacity:1;fill-rule:evenodd;stroke:#8f5902;stroke-width:1.0957185;stroke-miterlimit:4;stroke-dasharray:none;stroke-opacity:1"
       d="M 18.765243,17.132383 C 19.011765,14.932725 18.225618,11.616414 16.76619,9.5830254 C 14.30797,6.1580451 7.156114,-0.52597375 7.012297,0.75727311 C 6.786983,2.7677139 12.362431,14.87134 15.658796,19.464088 C 16.280082,20.32971 18.642634,18.226413 18.765243,17.132383 z "
       id="path839"
       sodipodi:nodetypes="cssss" />
    <path
       style="fill:#a76f1c;fill-opacity:1;fill-rule:evenodd;stroke:#8b580c;stroke-width:0.59928006;stroke-linecap:square;stroke-linejoin:miter;stroke-miterlimit:21;stroke-dasharray:none;stroke-opacity:1"
       d="M 19.179229,13.134191 L 17.898943,6.5468726 L 20.207506,9.9090954 L 20.784471,6.4877826 L 21.401297,9.9641989 L 24.006861,6.4137416 L 23.029356,12.049966 L 19.179229,13.134191 z "
       id="path866"
       sodipodi:nodetypes="cccccccc" />
    <path
       sodipodi:nodetypes="cscss"
       id="path21244"
       d="M 17.836795,16.18155 C 17.610888,14.213885 17.694066,12.449091 15.833973,9.9992138 C 14.523433,8.2731385 10.911266,4.1638344 8.3249132,2.3086447 C 9.6974501,7.0059785 12.538737,12.297062 14.911274,16.463146 C 15.343346,17.221848 17.949155,17.160196 17.836795,16.18155 z "
       style="fill:none;fill-opacity:1;fill-rule:evenodd;stroke:url(#linearGradient25677);stroke-width:0.8;stroke-miterlimit:6.19999981;stroke-dasharray:none;stroke-opacity:0.47058824;opacity:1" />
    <path
       sodipodi:nodetypes="cscss"
       id="path27532"
       d="M 25.398871,11.047068 C 26.197109,9.8243525 30.286921,9.7411507 32.356166,10.611608 C 35.809711,12.064388 39.207794,14.172343 39.817601,14.622781 C 37.937532,14.562362 30.183404,13.778118 25.384485,12.111281 C 24.480008,11.797122 24.960268,11.718907 25.398871,11.047068 z "
       style="fill:none;fill-opacity:1;fill-rule:evenodd;stroke:url(#linearGradient28425);stroke-width:1.07375145;stroke-linecap:butt;stroke-linejoin:miter;stroke-miterlimit:4;stroke-dasharray:none;stroke-opacity:1" />
    <path
       style="fill:url(#radialGradient15914);fill-opacity:1;fill-rule:evenodd;stroke:#8f5902;stroke-width:1;stroke-linecap:butt;stroke-linejoin:miter;stroke-miterlimit:4;stroke-dasharray:none;stroke-opacity:1"
       d="M 21.862474,11.362427 C 19.377422,11.615481 15.935324,14.03444 14.964856,16.238482 C 13.583863,19.374878 14.808092,23.668656 14.808092,27.383744 C 14.808092,31.09883 12.293546,37.748516 14.964856,38.529006 C 19.922727,39.977568 33.759212,37.135778 37.695642,34.070901 C 39.663992,32.538357 33.961763,27.9701 32.679191,24.736743 C 31.401283,21.515136 32.046488,17.21882 30.014204,14.706007 C 28.440915,12.760716 24.393871,11.104655 21.862474,11.362427 z "
       id="path826"
       sodipodi:nodetypes="cccccccc" />
    <path
       style="fill:none;fill-opacity:1.0;fill-rule:evenodd;stroke:url(#linearGradient27530);stroke-width:1px;stroke-linecap:butt;stroke-linejoin:miter;stroke-opacity:1"
       d="M 15.070213,32.708816 C 16.388022,27.927024 15.372286,23.279487 15.190585,18.978323 C 15.581507,14.227529 21.062462,10.973114 25.433194,12.908269 C 29.213405,14.399568 30.443061,15.876163 30.898047,21.469607 C 31.273048,23.991928 32.173957,26.55446 33.955346,28.45498 C 34.614421,29.62681 33.717266,31.261282 32.411447,31.439082 C 32.166713,31.545667 31.963364,31.734437 31.819805,31.957514"
       id="path26572"
       sodipodi:nodetypes="ccccccc" />
    <path
       sodipodi:nodetypes="cssss"
       id="path34654"
       d="M 31.032958,40.800746 C 31.224207,39.899906 33.508202,39.132853 34.458765,39.587311 C 35.508366,40.08912 37.273411,42.539284 37.033455,43.669553 C 36.842001,44.571357 34.563745,45.856832 33.739064,45.462556 C 32.56358,44.900564 30.792797,41.931979 31.032958,40.800746 z "
       style="fill:none;fill-opacity:1;fill-rule:evenodd;stroke:url(#linearGradient35547);stroke-width:0.80247253;stroke-linecap:butt;stroke-linejoin:miter;stroke-miterlimit:4;stroke-dasharray:none;stroke-opacity:1" />
    <path
       sodipodi:type="arc"
       style="fill:url(#linearGradient36440);fill-opacity:1.0;fill-rule:evenodd;stroke:#2e3436;stroke-width:14.66572189;stroke-miterlimit:4;stroke-dasharray:none"
       id="path829"
       sodipodi:cx="320.64716"
       sodipodi:cy="683.87244"
       sodipodi:rx="167.95804"
       sodipodi:ry="128.25887"
       d="M 488.60519 683.87244 A 167.95804 128.25887 0 1 1  152.68912,683.87244 A 167.95804 128.25887 0 1 1  488.60519 683.87244 z"
       transform="matrix(7.560183e-2,-1.219804e-2,1.446975e-2,5.916334e-2,-8.317767,-0.561072)" />
    <path
       transform="matrix(7.011866e-2,-1.106232e-2,1.342031e-2,5.365485e-2,-5.841918,2.819771)"
       d="M 488.60519 683.87244 A 167.95804 123.25634 0 1 1  152.68912,683.87244 A 167.95804 123.25634 0 1 1  488.60519 683.87244 z"
       sodipodi:ry="123.25634"
       sodipodi:rx="167.95804"
       sodipodi:cy="683.87244"
       sodipodi:cx="320.64716"
       id="path31086"
       style="fill:none;fill-opacity:1;fill-rule:evenodd;stroke:url(#linearGradient31979);stroke-width:15.99096394;stroke-miterlimit:4;stroke-dasharray:none"
       sodipodi:type="arc" />
    <path
       style="fill:#454242;fill-rule:evenodd;stroke:black;stroke-width:1;stroke-miterlimit:4;stroke-dasharray:none"
       d="M 30.64123,36.160639 C 30.287021,35.662234 31.774022,30.299436 32.67916,29.334166 C 33.080385,28.906279 34.808454,31.150015 34.560325,31.981164 C 34.129147,33.425504 30.914076,36.544567 30.64123,36.160639 z "
       id="path850"
       sodipodi:nodetypes="csss" />
    <path
       style="fill:#454242;fill-rule:evenodd;stroke:#2e3436;stroke-width:1;stroke-miterlimit:4;stroke-dasharray:none"
       d="M 21.821569,37.273029 C 21.953283,36.69528 18.41834,32.15249 17.186223,31.536201 C 16.640048,31.26301 15.922317,33.906105 16.486689,34.604588 C 17.467432,35.818381 21.720107,37.718076 21.821569,37.273029 z "
       id="path851"
       sodipodi:nodetypes="csss" />
    <path
       transform="matrix(8.135188e-2,-2.647581e-2,2.820187e-2,8.502398e-2,-27.58519,-2.982445)"
       d="M 460.10323 460.94629 A 37.663319 55.986012 0 1 1  384.77659,460.94629 A 37.663319 55.986012 0 1 1  460.10323 460.94629 z"
       sodipodi:ry="55.986012"
       sodipodi:rx="37.663319"
       sodipodi:cy="460.94629"
       sodipodi:cx="422.43991"
       id="path28427"
       style="fill:#453317;fill-opacity:1;fill-rule:evenodd;stroke:#8f5902;stroke-width:3.42694306;stroke-miterlimit:4;stroke-dasharray:none"
       sodipodi:type="arc" />
    <path
       sodipodi:type="arc"
       style="fill:#eeeeec;fill-rule:evenodd;stroke:#555753;stroke-width:7.69447184"
       id="path862"
       sodipodi:cx="422.43991"
       sodipodi:cy="460.94629"
       sodipodi:rx="37.663319"
       sodipodi:ry="55.986012"
       d="M 460.10323 460.94629 A 37.663319 55.986012 0 1 1  384.77659,460.94629 A 37.663319 55.986012 0 1 1  460.10323 460.94629 z"
       transform="matrix(8.19721e-2,-1.230666e-2,1.536351e-2,8.082109e-2,-21.4212,-7.561083)" />
    <path
       sodipodi:type="arc"
       style="fill-rule:evenodd;stroke:black;stroke-width:1pt"
       id="path863"
       sodipodi:cx="297.23483"
       sodipodi:cy="487.41241"
       sodipodi:rx="24.43026"
       sodipodi:ry="23.412333"
       d="M 321.66509 487.41241 A 24.43026 23.412333 0 1 1  272.80457,487.41241 A 24.43026 23.412333 0 1 1  321.66509 487.41241 z"
       transform="matrix(7.557461e-2,-1.630819e-2,1.276721e-2,9.653521e-2,-7.474509,-15.78518)" />
    <path
       sodipodi:type="arc"
       style="fill:#453317;fill-opacity:1;fill-rule:evenodd;stroke:#8f5902;stroke-width:3.42694306;stroke-miterlimit:4;stroke-dasharray:none"
       id="path30199"
       sodipodi:cx="422.43991"
       sodipodi:cy="460.94629"
       sodipodi:rx="37.663319"
       sodipodi:ry="55.986012"
       d="M 460.10323 460.94629 A 37.663319 55.986012 0 1 1  384.77659,460.94629 A 37.663319 55.986012 0 1 1  460.10323 460.94629 z"
       transform="matrix(-8.524846e-2,-7.197017e-3,-8.038829e-3,8.921771e-2,68.16134,-14.20873)" />
    <path
       sodipodi:type="arc"
       style="fill:#eeeeec;fill-rule:evenodd;stroke:#555753;stroke-width:7.69447279"
       id="path828"
       sodipodi:cx="422.43991"
       sodipodi:cy="460.94629"
       sodipodi:rx="37.663319"
       sodipodi:ry="55.986012"
       d="M 460.10323 460.94629 A 37.663319 55.986012 0 1 1  384.77659,460.94629 A 37.663319 55.986012 0 1 1  460.10323 460.94629 z"
       transform="matrix(8.313358e-2,0,0,8.196622e-2,-7.340084,-14.43845)" />
    <path
       sodipodi:type="arc"
       style="fill-rule:evenodd;stroke:black;stroke-width:1pt"
       id="path857"
       sodipodi:cx="297.23483"
       sodipodi:cy="487.41241"
       sodipodi:rx="24.43026"
       sodipodi:ry="23.412333"
       d="M 321.66509 487.41241 A 24.43026 23.412333 0 1 1  272.80457,487.41241 A 24.43026 23.412333 0 1 1  321.66509 487.41241 z"
       transform="matrix(7.666583e-2,0,0,9.609642e-2,4.444761,-21.36928)" />
    <path
       transform="matrix(4.035074e-2,-9.003869e-3,6.81666e-3,5.32978e-2,5.497875,2.234287)"
       d="M 321.66509 487.41241 A 24.43026 23.412333 0 1 1  272.80457,487.41241 A 24.43026 23.412333 0 1 1  321.66509 487.41241 z"
       sodipodi:ry="23.412333"
       sodipodi:rx="24.43026"
       sodipodi:cy="487.41241"
       sodipodi:cx="297.23483"
       id="path16807"
       style="fill:white;fill-opacity:1;fill-rule:evenodd;stroke:none;stroke-width:1pt"
       sodipodi:type="arc" />
    <path
       sodipodi:type="arc"
       style="fill:white;fill-opacity:1;fill-rule:evenodd;stroke:none;stroke-width:1pt"
       id="path17694"
       sodipodi:cx="297.23483"
       sodipodi:cy="487.41241"
       sodipodi:rx="24.43026"
       sodipodi:ry="23.412333"
       d="M 321.66509 487.41241 A 24.43026 23.412333 0 1 1  272.80457,487.41241 A 24.43026 23.412333 0 1 1  321.66509 487.41241 z"
       transform="matrix(4.035074e-2,-9.003869e-3,6.81666e-3,5.32978e-2,11.59667,1.173626)" />
    <path
       style="fill:url(#linearGradient19472);fill-opacity:1;fill-rule:evenodd;stroke:#2e3436;stroke-width:1;stroke-miterlimit:1;stroke-dasharray:none"
       d="M 17.316288,30.507441 C 19.71681,28.547604 29.270656,26.980979 32.052106,28.199641 C 33.660045,28.904146 30.515825,33.622339 30.48447,36.276942 C 30.46357,38.045622 33.261315,41.353629 32.208874,42.190679 C 30.178297,43.805667 23.533344,44.508991 21.235389,43.633052 C 19.875516,43.114695 22.288753,39.239392 21.705681,37.286603 C 20.982385,34.864186 16.006728,31.576592 17.316288,30.507441 z "
       id="path844"
       sodipodi:nodetypes="ccccccc" />
    <path
       sodipodi:nodetypes="ccccccc"
       id="path32866"
       d="M 18.893749,30.901633 C 20.908963,29.149624 28.487378,28.677208 31.441097,28.882754 C 31.597703,29.910299 29.444298,33.862991 29.417975,36.23609 C 29.400429,37.817212 32.367827,40.862813 31.484313,41.611099 C 29.775663,43.049826 23.324374,43.007263 21.830242,42.767934 C 21.83769,41.685827 23.289055,38.796 22.799571,37.050293 C 22.192372,34.884759 17.794387,31.857406 18.893749,30.901633 z "
       style="fill:url(#linearGradient32868);fill-opacity:1;fill-rule:evenodd;stroke:url(#linearGradient33761);stroke-width:1;stroke-miterlimit:1;stroke-dasharray:none" />
  </g>
  <g
     inkscape:groupmode="layer"
     id="layer2"
     inkscape:label="dalsi cipek"
     style="display:inline" />
</svg>
