<?xml version="1.0" encoding="UTF-8" standalone="no"?>
<!-- Created with Inkscape (http://www.inkscape.org/) -->
<svg
   xmlns:dc="http://purl.org/dc/elements/1.1/"
   xmlns:cc="http://web.resource.org/cc/"
   xmlns:rdf="http://www.w3.org/1999/02/22-rdf-syntax-ns#"
   xmlns:svg="http://www.w3.org/2000/svg"
   xmlns="http://www.w3.org/2000/svg"
   xmlns:xlink="http://www.w3.org/1999/xlink"
   xmlns:sodipodi="http://sodipodi.sourceforge.net/DTD/sodipodi-0.dtd"
   xmlns:inkscape="http://www.inkscape.org/namespaces/inkscape"
   width="48px"
   height="48px"
   id="svg2108"
   sodipodi:version="0.32"
   inkscape:version="0.44.1"
   sodipodi:docbase="/home/jesusda/docs/themes/iconos/pasodoble"
   sodipodi:docname="bittorrent.svg"
   inkscape:export-filename="/home/jesusda/docs/themes/iconos/pasodoble/bittorrent_128.png"
   inkscape:export-xdpi="240"
   inkscape:export-ydpi="240">
  <defs
     id="defs3">
    <linearGradient
       id="linearGradient4163">
      <stop
         style="stop-color:#3b74bc;stop-opacity:1.0000000;"
         offset="0.0000000"
         id="stop4165" />
      <stop
         style="stop-color:#2d5990;stop-opacity:1.0000000;"
         offset="1.0000000"
         id="stop4167" />
    </linearGradient>
    <linearGradient
       inkscape:collect="always"
       id="linearGradient3816">
      <stop
         style="stop-color:#000000;stop-opacity:1;"
         offset="0"
         id="stop3818" />
      <stop
         style="stop-color:#000000;stop-opacity:0;"
         offset="1"
         id="stop3820" />
    </linearGradient>
    <radialGradient
       inkscape:collect="always"
       xlink:href="#linearGradient4163"
       id="radialGradient4609"
       cx="9.9090576"
       cy="12.579687"
       fx="9.9090576"
       fy="12.579687"
       r="21.574232"
       gradientTransform="matrix(0.985841,0,0,1.019234,0.665112,-1.651598)"
       gradientUnits="userSpaceOnUse" />
    <radialGradient
       inkscape:collect="always"
       xlink:href="#linearGradient4163"
       id="radialGradient5502"
       cx="20.064526"
       cy="25.52681"
       fx="20.064526"
       fy="25.52681"
       r="19.537107"
       gradientTransform="matrix(1.000715,0,0,0.998501,-1.616818e-2,-0.829655)"
       gradientUnits="userSpaceOnUse" />
    <radialGradient
       inkscape:collect="always"
       xlink:href="#linearGradient4163"
       id="radialGradient5512"
       cx="17.412275"
       cy="31.623114"
       fx="17.412275"
       fy="31.623114"
       r="18.098307"
       gradientTransform="matrix(1.000715,0,0,0.769091,-1.616818e-2,6.24956)"
       gradientUnits="userSpaceOnUse" />
    <radialGradient
       inkscape:collect="always"
       xlink:href="#linearGradient4163"
       id="radialGradient9957"
       gradientUnits="userSpaceOnUse"
       gradientTransform="matrix(0.985461,0,0,1.030901,0.673498,-1.680459)"
       cx="9.9090576"
       cy="12.579687"
       fx="9.9090576"
       fy="12.579687"
       r="21.574232" />
    <radialGradient
       inkscape:collect="always"
       xlink:href="#linearGradient4163"
       id="radialGradient15301"
       cx="42.457531"
       cy="18.234585"
       fx="42.457531"
       fy="18.234585"
       r="7.2179499"
       gradientTransform="matrix(0.999863,-1.652379e-2,1.224563e-2,0.74099,0.312835,4.395924)"
       gradientUnits="userSpaceOnUse" />
    <radialGradient
       inkscape:collect="always"
       xlink:href="#linearGradient4163"
       id="radialGradient15303"
       cx="39.020916"
       cy="5.4132447"
       fx="39.020916"
       fy="5.4132447"
       r="5.1177464"
       gradientTransform="matrix(1,0,0,0.547086,0.530325,1.8236)"
       gradientUnits="userSpaceOnUse" />
    <radialGradient
       inkscape:collect="always"
       xlink:href="#linearGradient4163"
       id="radialGradient15305"
       cx="34.780205"
       cy="25.81551"
       fx="34.780205"
       fy="25.81551"
       r="4.4842029"
       gradientTransform="matrix(1,0,0,0.923418,0.530325,1.955856)"
       gradientUnits="userSpaceOnUse" />
    <radialGradient
       inkscape:collect="always"
       xlink:href="#linearGradient3816"
       id="radialGradient18884"
       gradientUnits="userSpaceOnUse"
       cx="31.112698"
       cy="19.008621"
       fx="31.112698"
       fy="19.008621"
       r="8.6620579" />
    <radialGradient
       inkscape:collect="always"
       xlink:href="#linearGradient4163"
       id="radialGradient18888"
       gradientUnits="userSpaceOnUse"
       gradientTransform="matrix(1.000715,0,0,0.998501,-1.616818e-2,-0.829655)"
       cx="20.064526"
       cy="25.52681"
       fx="20.064526"
       fy="25.52681"
       r="19.537107" />
  </defs>
  <sodipodi:namedview
     inkscape:showpageshadow="false"
     id="base"
     pagecolor="#ffffff"
     bordercolor="#666666"
     borderopacity="1.0"
     inkscape:pageopacity="0.0"
     inkscape:pageshadow="2"
     inkscape:zoom="2.8284271"
     inkscape:cx="38.009822"
     inkscape:cy="17.539669"
     inkscape:current-layer="layer1"
     showgrid="false"
     inkscape:grid-bbox="true"
     inkscape:document-units="px"
     fill="#9db029"
     stroke="#727e0a"
     inkscape:window-width="948"
     inkscape:window-height="745"
     inkscape:window-x="135"
     inkscape:window-y="30"
     showguides="true"
     inkscape:guide-bbox="true" />
  <metadata
     id="metadata4">
    <rdf:RDF>
      <cc:Work
         rdf:about="">
        <dc:format>image/svg+xml</dc:format>
        <dc:type
           rdf:resource="http://purl.org/dc/dcmitype/StillImage" />
        <dc:title>Torrent</dc:title>
        <dc:creator>
          <cc:Agent>
            <dc:title>jEsuSdA 8)</dc:title>
          </cc:Agent>
        </dc:creator>
        <dc:source>http://www.jesusda.com</dc:source>
        <dc:subject>
          <rdf:Bag>
            <rdf:li>torrent</rdf:li>
            <rdf:li>bittorrent</rdf:li>
            <rdf:li>ktorrent</rdf:li>
            <rdf:li>bittornado</rdf:li>
            <rdf:li>azureus</rdf:li>
            <rdf:li>p2p</rdf:li>
          </rdf:Bag>
        </dc:subject>
        <cc:license
           rdf:resource="http://creativecommons.org/licenses/by-sa/2.0/" />
      </cc:Work>
      <cc:License
         rdf:about="http://creativecommons.org/licenses/by-sa/2.0/">
        <cc:permits
           rdf:resource="http://web.resource.org/cc/Reproduction" />
        <cc:permits
           rdf:resource="http://web.resource.org/cc/Distribution" />
        <cc:requires
           rdf:resource="http://web.resource.org/cc/Notice" />
        <cc:requires
           rdf:resource="http://web.resource.org/cc/Attribution" />
        <cc:permits
           rdf:resource="http://web.resource.org/cc/DerivativeWorks" />
        <cc:requires
           rdf:resource="http://web.resource.org/cc/ShareAlike" />
      </cc:License>
    </rdf:RDF>
  </metadata>
  <g
     id="layer1"
     inkscape:label="cipek"
     inkscape:groupmode="layer"
     style="display:inline">
    <path
       transform="matrix(2.74835,0,0,0.485322,-61.29017,35.11784)"
       sodipodi:type="arc"
       style="opacity:0.6;color:black;fill:url(#radialGradient18884);fill-opacity:1;fill-rule:evenodd;stroke:none;stroke-width:1px;stroke-linecap:round;stroke-linejoin:round;marker:none;marker-start:none;marker-mid:none;marker-end:none;stroke-miterlimit:4;stroke-dasharray:none;stroke-dashoffset:0;stroke-opacity:1;visibility:visible;display:inline;overflow:visible"
       id="path4306"
       sodipodi:cx="31.112698"
       sodipodi:cy="19.008621"
       sodipodi:rx="8.6620579"
       sodipodi:ry="8.6620579"
       d="M 39.774755 19.008621 A 8.6620579 8.6620579 0 1 1  22.45064,19.008621 A 8.6620579 8.6620579 0 1 1  39.774755 19.008621 z" />
    <path
       sodipodi:nodetypes="ccccc"
       id="path9959"
       d="M 42.946173,35.623316 C 23.628966,59.383048 -11.679824,28.463512 14.398407,8.6555048 C 28.219255,0.75196923 30.527747,16.658434 23.335441,17.541902 C 28.620844,5.7855306 2.070858,16.426164 12.321635,31.067394 C 19.579003,42.558262 34.280262,45.379129 42.946173,35.623316 z "
       style="fill:url(#radialGradient5502);fill-opacity:1;fill-rule:evenodd;stroke:#204a87;stroke-width:2.94974113;stroke-linecap:butt;stroke-linejoin:miter;stroke-miterlimit:4;stroke-dasharray:none;stroke-opacity:1" />
    <path
       style="fill:url(#radialGradient18888);fill-opacity:1;fill-rule:evenodd;stroke:#7291be;stroke-width:1.27325809;stroke-linecap:butt;stroke-linejoin:miter;stroke-miterlimit:4;stroke-dasharray:none;stroke-opacity:1"
       d="M 42.946173,35.623316 C 23.628966,59.383048 -11.679824,28.463512 14.398407,8.6555048 C 28.219255,0.75196923 30.527747,16.658434 23.335441,17.541902 C 28.620844,5.7855306 2.070858,16.426164 12.321635,31.067394 C 19.579003,42.558262 34.280262,45.379129 42.946173,35.623316 z "
       id="path2829"
       sodipodi:nodetypes="ccccc" />
    <path
       style="fill:url(#radialGradient4609);fill-opacity:1;fill-rule:evenodd;stroke:#204a87;stroke-width:2.86092949;stroke-linecap:butt;stroke-linejoin:miter;stroke-miterlimit:4;stroke-dasharray:none;stroke-opacity:1"
       d="M 43.147521,34.842225 C 21.956618,62.309668 -16.870204,27.568086 11.737515,4.669035 C 25.330467,-5.8539946 34.14316,13.470304 16.755297,14.980863 C 22.553363,1.3899072 4.0045128,12.802573 10.398025,26.865816 C 18.359329,40.149836 33.641046,46.120436 43.147521,34.842225 z "
       id="path7300"
       sodipodi:nodetypes="ccccc" />
    <path
       sodipodi:nodetypes="ccccc"
       id="path2827"
       d="M 43.139495,34.804138 C 21.956778,62.585987 -16.855046,27.873689 11.741623,4.7125236 C 25.329324,-5.930958 34.138613,13.614536 16.757467,15.142387 C 22.553293,1.3958613 4.0116081,12.939162 10.40265,27.16338 C 18.360879,40.599456 33.636693,46.211445 43.139495,34.804138 z "
       style="opacity:1;fill:url(#radialGradient9957);fill-opacity:1;fill-rule:evenodd;stroke:#7291be;stroke-width:0.95890015;stroke-linecap:butt;stroke-linejoin:miter;stroke-miterlimit:4;stroke-dasharray:none;stroke-opacity:1" />
    <path
       style="fill:#204a87;fill-opacity:1;fill-rule:evenodd;stroke:none;stroke-width:3;stroke-linecap:butt;stroke-linejoin:miter;stroke-miterlimit:4;stroke-dasharray:none;stroke-opacity:1"
       d="M 17.90289,15.718887 C 16.637129,15.688031 15.305006,15.902833 13.931301,16.47364 L 13.806212,16.534021 L 13.712395,16.594401 C 8.4952155,19.850996 6.2018187,24.459178 6.3633919,28.942157 C 6.5249651,33.425137 8.9771623,37.717481 12.742952,40.806872 C 16.508742,43.896263 21.634792,45.801524 27.222052,45.395769 C 32.77176,44.992741 38.711646,42.256021 44.07785,36.399115 C 44.083122,36.393361 44.103852,36.404875 44.109122,36.399115 C 44.140154,36.365204 43.097015,36.283462 43.055672,35.82728 C 43.002227,35.237564 43.971629,34.913432 43.329917,34.905149 C 42.506797,34.894525 42.327326,34.19614 42.295326,34.225427 C 35.618039,40.336619 22.29299,39.066664 16.651996,31.749838 C 14.558765,28.029871 16.288244,25.732634 17.558894,25.168393 C 18.199818,24.883787 18.460355,24.935506 18.747244,25.289154 C 19.034133,25.642801 19.411502,26.863558 18.809789,29.274249 L 18.309431,31.296986 L 20.467223,31.055465 C 23.113722,30.756982 25.038591,29.243857 25.846068,27.342081 C 26.653545,25.440305 26.480533,23.2534 25.689706,21.304059 C 24.89888,19.354717 23.463508,17.595319 21.405394,16.564211 C 20.376336,16.048656 19.168652,15.749744 17.90289,15.718887 z M 17.840346,18.586948 C 18.646953,18.606228 19.348768,18.805038 19.998138,19.13037 C 21.296879,19.781035 22.350405,21.020242 22.906467,22.390903 C 23.462528,23.761563 23.497364,25.201626 23.062829,26.225047 C 22.835215,26.761124 22.501615,27.217994 21.999569,27.553412 C 22.090852,25.913237 21.889028,24.489604 21.09267,23.507937 C 19.923816,22.067094 17.850798,21.856764 16.308,22.541853 C 13.222406,23.912033 11.24003,28.349106 14.056391,33.229153 L 14.087663,33.319724 L 14.150208,33.380104 C 18.321855,38.86341 25.552779,41.614054 32.413262,41.169153 C 30.573682,41.886666 28.752708,42.370463 27.003145,42.497518 C 22.255989,42.842263 17.888987,41.234085 14.681838,38.602994 C 11.474688,35.971903 9.492048,32.361715 9.3655378,28.851587 C 9.240375,25.378839 10.819549,21.925291 15.213468,19.13037 C 16.189481,18.738755 17.062218,18.568348 17.840346,18.586948 z "
       id="path5522"
       sodipodi:nodetypes="ccccsssssssscsscccsssccssscssccccssscc" />
    <path
       sodipodi:nodetypes="ccccsc"
       id="path2831"
       d="M 43.06274,35.348204 C 22.31771,58.18788 -4.9216808,29.953492 14.51862,17.818737 C 24.0944,13.839769 29.103908,28.611898 20.284216,29.606619 C 22.92081,19.043421 10.369112,23.8745 15.366148,32.53311 C 20.632478,39.455291 31.50161,41.650742 39.221817,37.95224 C 40.62336,37.280806 41.921121,36.415121 43.06274,35.348204 z "
       style="fill:url(#radialGradient5512);fill-opacity:1;fill-rule:evenodd;stroke:#7291be;stroke-width:0.99504596;stroke-linecap:square;stroke-linejoin:miter;stroke-miterlimit:4;stroke-dasharray:none;stroke-opacity:1" />
    <path
       style="fill:url(#radialGradient15303);fill-opacity:1;fill-rule:evenodd;stroke:#204a87;stroke-width:1.25;stroke-linecap:butt;stroke-linejoin:miter;stroke-miterlimit:4;stroke-dasharray:none;stroke-opacity:1"
       d="M 32.937182,4.0270321 C 36.472299,4.7907276 36.781668,5.717224 38.655433,5.9647435 C 39.281559,6.0474532 40.82167,5.9185974 41.050481,5.380043 C 42.230594,4.2296314 42.36988,2.3927366 40.484644,1.6593053 C 38.729859,1.4275021 34.609927,3.1436098 32.937182,4.0270321 z "
       id="path12626"
       sodipodi:nodetypes="ccccc" />
    <path
       sodipodi:nodetypes="ccccc"
       id="path13523"
       d="M 33.478094,11.623655 C 37.917048,15.034523 37.735848,16.53554 40.192906,18.123451 C 41.01394,18.654058 43.25368,19.494383 43.930626,18.892661 C 46.343738,18.065448 47.755816,15.588243 45.604709,13.313025 C 43.303671,11.825942 36.40339,11.496363 33.478094,11.623655 z "
       style="fill:url(#radialGradient15301);fill-opacity:1;fill-rule:evenodd;stroke:#204a87;stroke-width:1.25;stroke-linecap:butt;stroke-linejoin:miter;stroke-miterlimit:4;stroke-dasharray:none;stroke-opacity:1" />
    <path
       style="fill:url(#radialGradient15305);fill-opacity:1;fill-rule:evenodd;stroke:#204a87;stroke-width:1.25;stroke-linecap:butt;stroke-linejoin:miter;stroke-miterlimit:4;stroke-dasharray:none;stroke-opacity:1"
       d="M 30.037115,19.892088 C 32.148463,23.072271 31.700337,24.000737 32.935231,25.567428 C 33.347874,26.090944 34.607518,27.127341 35.177057,26.888489 C 36.91652,26.887255 38.374211,25.600564 37.488378,23.657937 C 36.331899,22.190727 31.952593,20.45546 30.037115,19.892088 z "
       id="path13527"
       sodipodi:nodetypes="ccccc" />
    <path
       style="fill:none;fill-opacity:1;fill-rule:evenodd;stroke:#7291be;stroke-width:0.52618188;stroke-linecap:butt;stroke-linejoin:miter;stroke-miterlimit:4;stroke-dasharray:none;stroke-opacity:1"
       d="M 35.994918,12.465431 C 38.295784,14.857316 38.717768,16.178032 40.557232,17.378239 C 41.171897,17.779294 43.313366,18.414446 43.820157,17.959639 C 45.626722,17.334399 46.40505,15.648214 44.794634,13.928514 C 43.071972,12.804515 38.184927,12.369218 35.994918,12.465431 z "
       id="path15307"
       sodipodi:nodetypes="ccccc" />
    <path
       sodipodi:nodetypes="ccccc"
       id="path16196"
       d="M 35.628437,3.8556586 C 37.320916,4.4617209 37.845539,5.0115706 39.025692,5.1419604 C 39.420045,5.1855308 40.608864,4.9582816 40.743243,4.6035364 C 41.464157,3.8343542 41.430654,2.7982922 40.234988,2.3514294 C 39.129772,2.2293182 36.663081,3.2523425 35.628437,3.8556586 z "
       style="fill:none;fill-opacity:1;fill-rule:evenodd;stroke:#7291be;stroke-width:0.5;stroke-linecap:butt;stroke-linejoin:miter;stroke-miterlimit:4;stroke-dasharray:none;stroke-opacity:1" />
    <path
       style="fill:none;fill-opacity:1;fill-rule:evenodd;stroke:#7291be;stroke-width:0.55801451;stroke-linecap:butt;stroke-linejoin:miter;stroke-miterlimit:4;stroke-dasharray:none;stroke-opacity:1"
       d="M 31.866513,21.466225 C 32.702721,23.275456 32.668725,24.114444 33.488489,25.151451 C 33.762417,25.497972 34.878654,26.267026 35.271355,26.101088 C 36.459649,26.082262 37.272556,25.25949 36.696962,23.966969 C 35.92925,22.995808 33.166461,21.823901 31.866513,21.466225 z "
       id="path17083"
       sodipodi:nodetypes="ccccc" />
    <path
       sodipodi:nodetypes="cccc"
       id="path18879"
       d="M 39.877798,35.984011 C 42.337889,33.780827 43.254778,33.202275 45.650489,27.703808 C 45.741354,30.004444 46.248852,34.497138 43.816213,36.882157 C 42.600411,36.579561 41.0936,36.286607 39.877798,35.984011 z "
       style="fill:#204a87;fill-opacity:1;fill-rule:evenodd;stroke:none;stroke-width:1px;stroke-linecap:butt;stroke-linejoin:miter;stroke-opacity:1" />
    <path
       style="fill:#7291be;fill-opacity:1;fill-rule:evenodd;stroke:none;stroke-width:1px;stroke-linecap:butt;stroke-linejoin:miter;stroke-opacity:1"
       d="M 41.044432,36.306462 C 42.347446,35.280693 43.976871,33.89173 44.873345,31.507405 C 44.391749,34.771032 43.403068,35.704743 42.408957,36.761397 C 41.193155,36.458801 42.260234,36.609058 41.044432,36.306462 z "
       id="path18881"
       sodipodi:nodetypes="cccc" />
  </g>
  <g
     inkscape:groupmode="layer"
     id="layer2"
     inkscape:label="dalsi cipek"
     style="display:inline" />
</svg>
