<?xml version="1.0" encoding="UTF-8" standalone="no"?>
<!-- Created with Inkscape (http://www.inkscape.org/) -->
<svg
   xmlns:dc="http://purl.org/dc/elements/1.1/"
   xmlns:cc="http://web.resource.org/cc/"
   xmlns:rdf="http://www.w3.org/1999/02/22-rdf-syntax-ns#"
   xmlns:svg="http://www.w3.org/2000/svg"
   xmlns="http://www.w3.org/2000/svg"
   xmlns:xlink="http://www.w3.org/1999/xlink"
   xmlns:sodipodi="http://sodipodi.sourceforge.net/DTD/sodipodi-0.dtd"
   xmlns:inkscape="http://www.inkscape.org/namespaces/inkscape"
   width="48px"
   height="48px"
   id="svg3607"
   sodipodi:version="0.32"
   inkscape:version="0.44"
   inkscape:export-filename="/Users/sekkyumu/Documents/Icones/Tango/Apps/Easytag/48x48/easytag.png"
   inkscape:export-xdpi="90"
   inkscape:export-ydpi="90"
   sodipodi:docbase="/home/lapo/Desktop/Easytag.zip_FILES/Easytag/48x48"
   sodipodi:docname="easytag.svg">
  <defs
     id="defs3609">
    <linearGradient
       inkscape:collect="always"
       id="linearGradient2877">
      <stop
         style="stop-color:white;stop-opacity:1;"
         offset="0"
         id="stop2879" />
      <stop
         style="stop-color:white;stop-opacity:0.48288974"
         offset="1"
         id="stop2881" />
    </linearGradient>
    <linearGradient
       id="linearGradient2871">
      <stop
         id="stop2873"
         offset="0"
         style="stop-color:white;stop-opacity:1" />
      <stop
         id="stop2875"
         offset="1"
         style="stop-color:white;stop-opacity:0" />
    </linearGradient>
    <linearGradient
       inkscape:collect="always"
       id="linearGradient2920">
      <stop
         style="stop-color:white;stop-opacity:1;"
         offset="0"
         id="stop2922" />
      <stop
         style="stop-color:white;stop-opacity:0;"
         offset="1"
         id="stop2924" />
    </linearGradient>
    <linearGradient
       inkscape:collect="always"
       id="linearGradient2912">
      <stop
         style="stop-color:#e9b96e;stop-opacity:1"
         offset="0"
         id="stop2914" />
      <stop
         style="stop-color:#e9b96e;stop-opacity:0"
         offset="1"
         id="stop2916" />
    </linearGradient>
    <linearGradient
       inkscape:collect="always"
       id="linearGradient2904">
      <stop
         style="stop-color:white;stop-opacity:1;"
         offset="0"
         id="stop2906" />
      <stop
         style="stop-color:white;stop-opacity:0;"
         offset="1"
         id="stop2908" />
    </linearGradient>
    <linearGradient
       inkscape:collect="always"
       id="linearGradient2888">
      <stop
         style="stop-color:#e9b96e;stop-opacity:1"
         offset="0"
         id="stop2890" />
      <stop
         style="stop-color:#e9b96e;stop-opacity:0"
         offset="1"
         id="stop2892" />
    </linearGradient>
    <linearGradient
       id="linearGradient5468"
       inkscape:collect="always">
      <stop
         id="stop5470"
         offset="0"
         style="stop-color:white;stop-opacity:1" />
      <stop
         id="stop5472"
         offset="1"
         style="stop-color:white;stop-opacity:0;" />
    </linearGradient>
    <linearGradient
       id="linearGradient5462"
       inkscape:collect="always">
      <stop
         id="stop5464"
         offset="0"
         style="stop-color:white;stop-opacity:1" />
      <stop
         id="stop5466"
         offset="1"
         style="stop-color:#d3d7cf;stop-opacity:1" />
    </linearGradient>
    <linearGradient
       id="linearGradient5366"
       inkscape:collect="always">
      <stop
         id="stop5368"
         offset="0"
         style="stop-color:#75507b;stop-opacity:1" />
      <stop
         id="stop5370"
         offset="1"
         style="stop-color:#ad7fa8;stop-opacity:1" />
    </linearGradient>
    <linearGradient
       id="linearGradient5360"
       inkscape:collect="always">
      <stop
         id="stop5362"
         offset="0"
         style="stop-color:#ad7fa8;stop-opacity:1" />
      <stop
         id="stop5364"
         offset="1"
         style="stop-color:#729fcf;stop-opacity:0;" />
    </linearGradient>
    <linearGradient
       id="linearGradient5354"
       inkscape:collect="always">
      <stop
         id="stop5356"
         offset="0"
         style="stop-color:#75507b;stop-opacity:1" />
      <stop
         id="stop5358"
         offset="1"
         style="stop-color:#ad7fa8;stop-opacity:1" />
    </linearGradient>
    <linearGradient
       id="linearGradient5348">
      <stop
         id="stop5350"
         offset="0"
         style="stop-color:#c2a0bf;stop-opacity:1;" />
      <stop
         id="stop5352"
         offset="1"
         style="stop-color:#729fcf;stop-opacity:0;" />
    </linearGradient>
    <linearGradient
       id="linearGradient4833">
      <stop
         style="stop-color:white;stop-opacity:1"
         offset="0"
         id="stop4835" />
      <stop
         style="stop-color:white;stop-opacity:0"
         offset="1"
         id="stop4837" />
    </linearGradient>
    <linearGradient
       inkscape:collect="always"
       id="linearGradient4616">
      <stop
         style="stop-color:#888a85;stop-opacity:1;"
         offset="0"
         id="stop4618" />
      <stop
         style="stop-color:#888a85;stop-opacity:0;"
         offset="1"
         id="stop4620" />
    </linearGradient>
    <linearGradient
       inkscape:collect="always"
       id="linearGradient4572">
      <stop
         style="stop-color:#d3d7cf;stop-opacity:1;"
         offset="0"
         id="stop4574" />
      <stop
         style="stop-color:#d3d7cf;stop-opacity:0;"
         offset="1"
         id="stop4576" />
    </linearGradient>
    <linearGradient
       id="linearGradient4549"
       inkscape:collect="always">
      <stop
         id="stop4551"
         offset="0"
         style="stop-color:#babdb6;stop-opacity:1" />
      <stop
         id="stop4553"
         offset="1"
         style="stop-color:#d3d7cf;stop-opacity:1" />
    </linearGradient>
    <linearGradient
       inkscape:collect="always"
       xlink:href="#linearGradient4572"
       id="linearGradient5117"
       gradientUnits="userSpaceOnUse"
       x1="25.25"
       y1="17.28125"
       x2="25.25"
       y2="14.702174" />
    <radialGradient
       inkscape:collect="always"
       xlink:href="#linearGradient4616"
       id="radialGradient5167"
       gradientUnits="userSpaceOnUse"
       gradientTransform="matrix(1.563075,0,0,1.6052,37.73891,-20.67055)"
       cx="-8.484375"
       cy="32.578571"
       fx="-8.484375"
       fy="32.578571"
       r="8.45568" />
    <linearGradient
       inkscape:collect="always"
       xlink:href="#linearGradient2871"
       id="linearGradient5508"
       gradientUnits="userSpaceOnUse"
       gradientTransform="matrix(1.000073,5.248337e-8,0,1.017499,-1.181187,0.389903)"
       x1="18.32419"
       y1="31.575268"
       x2="34.399002"
       y2="20.873518" />
    <radialGradient
       inkscape:collect="always"
       xlink:href="#linearGradient4616"
       id="radialGradient5530"
       gradientUnits="userSpaceOnUse"
       gradientTransform="matrix(1.509814,-0.411602,0.408342,1.550505,29.10881,-25.40924)"
       cx="-8.484375"
       cy="32.578571"
       fx="-8.484375"
       fy="32.578571"
       r="8.45568" />
    <linearGradient
       inkscape:collect="always"
       xlink:href="#linearGradient5354"
       id="linearGradient5532"
       gradientUnits="userSpaceOnUse"
       x1="-10.545765"
       y1="38.226807"
       x2="-10.545765"
       y2="33.621048" />
    <radialGradient
       inkscape:collect="always"
       xlink:href="#linearGradient5348"
       id="radialGradient5534"
       gradientUnits="userSpaceOnUse"
       gradientTransform="matrix(2.610152,0,0,2.21465,21.09125,-41.13527)"
       cx="-13.098917"
       cy="35.084164"
       fx="-13.098917"
       fy="35.084164"
       r="6.7608947" />
    <linearGradient
       inkscape:collect="always"
       xlink:href="#linearGradient4572"
       id="linearGradient5536"
       gradientUnits="userSpaceOnUse"
       x1="25.25"
       y1="17.28125"
       x2="25.25"
       y2="14.702174" />
    <linearGradient
       inkscape:collect="always"
       xlink:href="#linearGradient4549"
       id="linearGradient4772"
       gradientUnits="userSpaceOnUse"
       gradientTransform="matrix(1.000801,0,0,0.894047,-3.076837,0.899257)"
       x1="19.598433"
       y1="28.181471"
       x2="15.928703"
       y2="29.284485" />
    <linearGradient
       inkscape:collect="always"
       xlink:href="#linearGradient5468"
       id="linearGradient4774"
       gradientUnits="userSpaceOnUse"
       gradientTransform="matrix(1.000801,0,0,0.894047,-3.076837,0.899257)"
       x1="22.929741"
       y1="24.112473"
       x2="32.70158"
       y2="-14.644641" />
    <linearGradient
       inkscape:collect="always"
       xlink:href="#linearGradient5366"
       id="linearGradient4776"
       gradientUnits="userSpaceOnUse"
       x1="-10.545765"
       y1="38.226807"
       x2="-10.545765"
       y2="33.621048" />
    <radialGradient
       inkscape:collect="always"
       xlink:href="#linearGradient5360"
       id="radialGradient4778"
       gradientUnits="userSpaceOnUse"
       gradientTransform="matrix(2.610152,0,0,2.21465,21.09125,-41.13527)"
       cx="-13.098917"
       cy="35.084164"
       fx="-13.098917"
       fy="35.084164"
       r="6.7608947" />
    <linearGradient
       inkscape:collect="always"
       xlink:href="#linearGradient4833"
       id="linearGradient4780"
       gradientUnits="userSpaceOnUse"
       gradientTransform="matrix(0.965997,0.263348,-0.258838,0.982827,-1.175676,-14.60707)"
       x1="21.381489"
       y1="35.08329"
       x2="27.086468"
       y2="31.027691" />
    <linearGradient
       inkscape:collect="always"
       xlink:href="#linearGradient2888"
       id="linearGradient2894"
       x1="42.34375"
       y1="6.125"
       x2="44.46875"
       y2="2.4374998"
       gradientUnits="userSpaceOnUse" />
    <linearGradient
       inkscape:collect="always"
       xlink:href="#linearGradient2904"
       id="linearGradient2910"
       x1="42.59375"
       y1="4.21875"
       x2="44.165115"
       y2="1.7956028"
       gradientUnits="userSpaceOnUse" />
    <linearGradient
       inkscape:collect="always"
       xlink:href="#linearGradient2912"
       id="linearGradient2918"
       x1="11.78125"
       y1="3.28125"
       x2="9.96875"
       y2="1.4062499"
       gradientUnits="userSpaceOnUse" />
    <linearGradient
       inkscape:collect="always"
       xlink:href="#linearGradient2920"
       id="linearGradient2926"
       x1="10.53125"
       y1="3.46875"
       x2="8.9563141"
       y2="1.751652"
       gradientUnits="userSpaceOnUse" />
    <radialGradient
       inkscape:collect="always"
       xlink:href="#linearGradient5462"
       id="radialGradient2845"
       cx="33.897419"
       cy="28.566418"
       fx="33.897419"
       fy="28.566418"
       r="15.043633"
       gradientTransform="matrix(1.76268,-0.472309,0.458565,1.71139,-42.64385,-2.146592)"
       gradientUnits="userSpaceOnUse" />
    <linearGradient
       inkscape:collect="always"
       xlink:href="#linearGradient2877"
       id="linearGradient2883"
       x1="17.689341"
       y1="20.459261"
       x2="15.15625"
       y2="-6.6109128"
       gradientUnits="userSpaceOnUse" />
  </defs>
  <sodipodi:namedview
     id="base"
     pagecolor="#ffffff"
     bordercolor="#666666"
     borderopacity="1.0"
     inkscape:pageopacity="0.0"
     inkscape:pageshadow="2"
     inkscape:zoom="1"
     inkscape:cx="39.962685"
     inkscape:cy="19.655638"
     inkscape:current-layer="layer1"
     showgrid="false"
     inkscape:grid-bbox="true"
     inkscape:document-units="px"
     showguides="true"
     inkscape:guide-bbox="true"
     inkscape:window-width="972"
     inkscape:window-height="630"
     inkscape:window-x="700"
     inkscape:window-y="144"
     showborder="false"
     inkscape:showpageshadow="false" />
  <metadata
     id="metadata3612">
    <rdf:RDF>
      <cc:Work
         rdf:about="">
        <dc:format>image/svg+xml</dc:format>
        <dc:type
           rdf:resource="http://purl.org/dc/dcmitype/StillImage" />
      </cc:Work>
    </rdf:RDF>
  </metadata>
  <g
     id="layer1"
     inkscape:label="Layer 1"
     inkscape:groupmode="layer">
    <path
       style="fill:none;fill-rule:evenodd;stroke:url(#linearGradient2918);stroke-width:3;stroke-linecap:round;stroke-linejoin:round;stroke-miterlimit:4;stroke-dasharray:none;stroke-opacity:1;fill-opacity:1.0"
       d="M 16.527901,8.1410567 C 13.345686,6.5588286 9.4563139,2.251652 9.4563139,2.251652"
       id="path2870"
       sodipodi:nodetypes="cc" />
    <path
       style="fill:none;fill-rule:evenodd;stroke:url(#linearGradient2926);stroke-width:1;stroke-linecap:round;stroke-linejoin:round;stroke-miterlimit:4;stroke-dasharray:none;stroke-opacity:1;fill-opacity:1.0"
       d="M 16.527901,8.1410567 C 13.345686,6.5588286 9.4563139,2.251652 9.4563139,2.251652"
       id="path5423"
       sodipodi:nodetypes="cc" />
    <path
       sodipodi:type="arc"
       style="fill:none;fill-opacity:1;stroke:url(#linearGradient5117);stroke-width:1.05717278;stroke-linecap:butt;stroke-linejoin:miter;stroke-miterlimit:4;stroke-dasharray:none;stroke-dashoffset:0;stroke-opacity:1"
       id="path4570"
       sodipodi:cx="24.78125"
       sodipodi:cy="13.09375"
       sodipodi:rx="5.1232934"
       sodipodi:ry="4.78125"
       d="M 29.904543 13.09375 A 5.1232934 4.78125 0 1 1  19.657957,13.09375 A 5.1232934 4.78125 0 1 1  29.904543 13.09375 z"
       transform="matrix(1.000801,0,0,0.894047,-1.496722,0.596722)" />
    <path
       style="fill:url(#radialGradient5167);fill-opacity:1;stroke:none;stroke-width:1;stroke-linecap:round;stroke-linejoin:round;stroke-miterlimit:4;stroke-dasharray:none;stroke-opacity:1"
       d="M 24.157314,19.169068 L 24.157314,31.708085 C 23.357185,31.427145 22.434425,31.257787 21.443125,31.257787 C 18.446506,31.257787 16.014745,32.736723 16.014745,34.548413 C 16.014745,36.360102 18.446507,37.82172 21.443125,37.821719 C 24.439743,37.821719 26.871503,36.360102 26.871504,34.548413 L 26.949052,25.819596 C 28.269446,26.161785 30.185251,26.027888 32.939657,24.60726 C 30.611985,24.60726 27.143858,23.790135 24.157314,19.169068 z "
       id="rect4541"
       sodipodi:nodetypes="ccssssccc" />
    <g
       id="g4764"
       transform="matrix(0.986235,0.165352,-0.165352,0.986235,4.613589,-3.369482)">
      <path
         id="rect3615"
         d="M 21.66172,2.2962058 C 19.961136,2.2962058 10.152505,13.387983 10.152505,13.387983 L 10.152505,42.109257 L 32.70181,42.109257 L 32.70181,13.527677 C 32.701811,13.527677 23.490967,2.2962058 21.66172,2.2962058 z M 21.505345,8.7221727 C 23.653841,8.7221727 25.414725,10.295225 25.414725,12.214545 C 25.414724,14.133864 23.653841,15.678978 21.505345,15.678978 C 19.356848,15.678978 17.627239,14.133864 17.627239,12.214545 C 17.627239,10.295225 19.356848,8.7221727 21.505345,8.7221727 z "
         style="fill:url(#linearGradient4772);fill-opacity:1;stroke:#555753;stroke-width:1;stroke-linecap:round;stroke-linejoin:round;stroke-miterlimit:4;stroke-dasharray:none;stroke-opacity:1" />
      <path
         sodipodi:nodetypes="cccccs"
         id="path4507"
         d="M 21.664273,3.3377553 C 20.528222,3.3377553 11.1519,13.769872 11.1519,13.769872 L 11.15284,41.111204 L 31.70631,41.106607 L 31.70888,13.829307 C 31.70888,13.829307 22.958273,3.3377553 21.664273,3.3377553 z "
         style="fill:none;fill-opacity:1;stroke:url(#linearGradient4774);stroke-width:1;stroke-linecap:butt;stroke-linejoin:miter;stroke-miterlimit:4;stroke-dasharray:none;stroke-opacity:1" />
      <g
         style="stroke-width:1.05717278;stroke-miterlimit:4;stroke-dasharray:none"
         id="g4606"
         transform="matrix(1.000801,0,0,0.894047,29.82421,0.675745)">
        <path
           sodipodi:nodetypes="ccssssccc"
           id="path4608"
           d="M -8.804006,19.309945 L -8.804006,33.334945 C -9.603494,33.020713 -10.525516,32.831285 -11.516022,32.831285 C -14.510241,32.831285 -16.940055,34.485487 -16.940055,36.511878 C -16.940055,38.538269 -14.51024,40.173102 -11.516022,40.173101 C -8.521803,40.173101 -6.09199,38.538268 -6.091989,36.511878 L -6.014503,26.748619 C -4.695166,27.13136 -2.780896,26.981595 -0.02869505,25.39261 C -2.354503,25.39261 -5.819853,24.478649 -8.804006,19.309945 z "
           style="fill:url(#linearGradient4776);fill-opacity:1;stroke:#5c3566;stroke-width:1.05717278;stroke-linecap:round;stroke-linejoin:round;stroke-miterlimit:4;stroke-dasharray:none;stroke-opacity:1" />
        <path
           style="fill:none;fill-opacity:1;stroke:url(#radialGradient4778);stroke-width:1.05717278;stroke-linecap:round;stroke-linejoin:miter;stroke-miterlimit:4;stroke-dasharray:none;stroke-opacity:1"
           d="M -7.9088045,22.133168 L -7.7764915,34.848596 C -7.7764915,34.848596 -9.3521183,34.007519 -11.35031,34.007519 C -13.969088,34.007519 -15.945686,35.047439 -15.945686,36.644461 C -15.945686,37.223598 -14.830664,39.057076 -11.493941,39.057075 C -9.162399,39.057075 -7.060739,38.085281 -7.060739,36.213568 L -6.9924059,25.369828 C -6.9924059,25.369828 -4.9501101,26.326644 -3.4238966,25.769506 C -3.4238966,25.769506 -5.4871515,24.989372 -7.9088045,22.133168 z "
           id="path4610"
           sodipodi:nodetypes="ccssssccc" />
      </g>
      <path
         style="fill:url(#linearGradient4780);fill-opacity:1;fill-rule:evenodd;stroke:none;stroke-width:1;stroke-linecap:butt;stroke-linejoin:miter;stroke-miterlimit:4;stroke-dasharray:none;stroke-opacity:1;opacity:0.5"
         d="M 10.645973,22.487319 L 31.214079,6.6116405 L 31.582207,16.767606 L 10.660115,32.260885 L 10.645973,22.487319 z "
         id="path4841"
         sodipodi:nodetypes="ccccc" />
    </g>
    <path
       id="path4970"
       d="M 22.897187,2.0430304 C 21.254549,2.4908424 14.601743,15.787575 14.601743,15.787575 L 21.908057,43.530216 L 43.689009,37.592344 L 36.418231,9.9846376 C 36.418232,9.9846373 24.664103,1.5613377 22.897187,2.0430304 z M 24.380822,8.2912202 C 26.456109,7.7254603 28.557156,8.7812223 29.045406,10.635145 C 29.533654,12.489067 28.225829,14.445224 26.150541,15.010984 C 24.075254,15.576744 22.011523,14.539732 21.523274,12.685811 C 21.035024,10.831888 22.305534,8.8569803 24.380822,8.2912202 z "
       style="fill:url(#radialGradient2845);fill-opacity:1.0;stroke:#888a85;stroke-width:1;stroke-linecap:round;stroke-linejoin:round;stroke-miterlimit:4;stroke-dasharray:none;stroke-opacity:1" />
    <path
       transform="matrix(0.9667,-0.26354,0.227434,0.863584,-1.612002,6.965232)"
       d="M 29.904543 13.09375 A 5.1232934 4.78125 0 1 1  19.657957,13.09375 A 5.1232934 4.78125 0 1 1  29.904543 13.09375 z"
       sodipodi:ry="4.78125"
       sodipodi:rx="5.1232934"
       sodipodi:cy="13.09375"
       sodipodi:cx="24.78125"
       id="path4978"
       style="fill:none;fill-opacity:1;stroke:url(#linearGradient5536);stroke-width:1.0571723;stroke-linecap:butt;stroke-linejoin:miter;stroke-miterlimit:4;stroke-dasharray:none;stroke-dashoffset:0;stroke-opacity:1"
       sodipodi:type="arc" />
    <path
       sodipodi:type="inkscape:offset"
       inkscape:radius="-0.99433094"
       inkscape:original="M 22.90625 2.03125 C 21.263613 2.4790619 14.59375 15.78125 14.59375 15.78125 L 21.90625 43.53125 L 43.6875 37.59375 L 36.40625 10 C 36.40625 10 24.673166 1.5495573 22.90625 2.03125 z M 25.90625 8.15625 C 27.395568 8.3014055 28.665062 9.234558 29.03125 10.625 C 29.519498 12.478922 28.231538 14.43424 26.15625 15 C 24.080963 15.56576 22.019499 14.541421 21.53125 12.6875 C 21.043001 10.833577 22.299712 8.8470101 24.375 8.28125 C 24.893822 8.1398099 25.409811 8.1078648 25.90625 8.15625 z "
       style="fill:none;fill-opacity:1.0;stroke:url(#linearGradient2883);stroke-width:1;stroke-linecap:round;stroke-linejoin:round;stroke-miterlimit:4;stroke-dasharray:none;stroke-opacity:1"
       id="path2867"
       d="M 23.15625,3 C 23.47115,2.9141526 23.140622,3.0195518 22.84375,3.375 C 22.546878,3.7304482 22.165874,4.2700016 21.75,4.90625 C 20.918253,6.1787468 19.930062,7.8831772 19,9.5625 C 17.236532,12.746622 15.816169,15.55701 15.65625,15.875 L 22.625,42.3125 L 42.46875,36.875 L 35.53125,10.625 C 35.27974,10.444331 32.765772,8.5982813 29.78125,6.65625 C 28.216801,5.6382614 26.584616,4.6377691 25.28125,3.9375 C 24.629567,3.5873655 24.076573,3.3149393 23.65625,3.15625 C 23.235927,2.9975607 22.886517,3.0735339 23.15625,3 z M 26,7.15625 C 27.844514,7.3360245 29.517576,8.5432006 30,10.375 C 30.641776,12.811881 28.941708,15.27754 26.40625,15.96875 C 23.875918,16.658563 21.203322,15.370753 20.5625,12.9375 C 19.922683,10.508062 21.578134,8.0068205 24.125,7.3125 C 24.768572,7.1370508 25.395299,7.0973131 26,7.15625 z " />
    <g
       id="g5524"
       transform="translate(2.517767,1.5)">
      <path
         style="fill:url(#radialGradient5530);fill-opacity:1;stroke:none;stroke-width:1.00272834;stroke-linecap:round;stroke-linejoin:round;stroke-miterlimit:4;stroke-dasharray:none;stroke-opacity:1;opacity:0.5"
         d="M 26.124681,16.649318 L 29.314441,28.761086 C 28.470109,28.700417 27.535709,28.779819 26.578187,29.040856 C 23.683675,29.829951 21.710997,31.898846 22.171868,33.648805 C 22.632738,35.398763 25.353454,36.170228 28.247965,35.381133 C 31.142475,34.592037 33.119558,32.539871 32.658689,30.789913 L 30.513099,22.338096 C 31.875549,22.320927 33.692012,21.687107 35.991175,19.589571 C 33.742817,20.202514 30.184999,20.326488 26.124681,16.649318 z "
         id="path4980"
         sodipodi:nodetypes="ccssssccc" />
      <g
         transform="matrix(0.9667,-0.26354,0.227434,0.863584,28.23933,-3.072882)"
         id="g4982"
         style="stroke-width:1.0571723;stroke-miterlimit:4;stroke-dasharray:none">
        <path
           style="fill:url(#linearGradient5532);fill-opacity:1;stroke:#5c3566;stroke-width:1.0571723;stroke-linecap:round;stroke-linejoin:round;stroke-miterlimit:4;stroke-dasharray:none;stroke-opacity:1"
           d="M -8.804006,19.309945 L -8.804006,33.334945 C -9.603494,33.020713 -10.525516,32.831285 -11.516022,32.831285 C -14.510241,32.831285 -16.940055,34.485487 -16.940055,36.511878 C -16.940055,38.538269 -14.51024,40.173102 -11.516022,40.173101 C -8.521803,40.173101 -6.09199,38.538268 -6.091989,36.511878 L -6.014503,26.748619 C -4.695166,27.13136 -2.780896,26.981595 -0.02869505,25.39261 C -2.354503,25.39261 -5.819853,24.478649 -8.804006,19.309945 z "
           id="path4984"
           sodipodi:nodetypes="ccssssccc" />
        <path
           sodipodi:nodetypes="ccssssccc"
           id="path4986"
           d="M -7.8333964,22.15618 L -7.7764915,34.848596 C -7.7764915,34.848596 -9.6391848,33.993435 -11.403989,33.982057 C -14.022896,33.965172 -15.953334,35.13596 -15.945686,36.644461 C -15.94275,37.223626 -14.844293,39.040838 -11.507405,39.062352 C -9.3600166,39.076197 -7.060739,38.085281 -7.060739,36.213568 L -6.9924059,25.369828 C -6.9924059,25.369828 -4.9648375,25.908298 -3.7294786,25.694245 C -3.7294786,25.694245 -6.9037426,24.826975 -7.8333964,22.15618 z "
           style="fill:none;fill-opacity:1;stroke:url(#radialGradient5534);stroke-width:1.0571723;stroke-linecap:round;stroke-linejoin:miter;stroke-miterlimit:4;stroke-dasharray:none;stroke-opacity:1" />
      </g>
    </g>
    <path
       style="fill:url(#linearGradient2894);fill-opacity:1.0;fill-rule:evenodd;stroke:none;stroke-width:3;stroke-linecap:round;stroke-linejoin:miter;stroke-miterlimit:4;stroke-dasharray:none;stroke-opacity:1"
       d="M 43.53125 0.78125 C 43.047008 0.82893628 42.615974 1.1085259 42.375 1.53125 C 38.66192 7.9266048 33.780173 9.8122896 29.6875 10.25 C 26.445024 10.596782 23.869559 9.9659723 22.90625 9.6875 C 22.122136 10.459719 21.764508 11.549659 22.03125 12.5625 C 23.23664 12.900562 26.281444 13.616449 30 13.21875 C 34.797164 12.705694 40.794707 10.251809 44.96875 3.0625 C 45.270689 2.5749901 45.274462 1.9539024 44.96875 1.46875 C 44.663038 0.98359754 44.10133 0.71926861 43.53125 0.78125 z "
       id="path2868" />
    <path
       style="fill:url(#linearGradient5508);fill-opacity:1;fill-rule:evenodd;stroke:none;stroke-width:1.00272834;stroke-linecap:butt;stroke-linejoin:miter;stroke-miterlimit:4;stroke-dasharray:none;stroke-opacity:1;opacity:0.5"
       d="M 19.67397,33.107378 L 35.502666,12.356474 L 38.441795,22.069451 L 22.199247,42.507169 L 19.67397,33.107378 z "
       id="path4988"
       sodipodi:nodetypes="ccccc" />
    <path
       style="fill:none;fill-rule:evenodd;stroke:url(#linearGradient2910);stroke-width:1;stroke-linecap:round;stroke-linejoin:miter;stroke-miterlimit:4;stroke-dasharray:none;stroke-opacity:1;fill-opacity:1.0"
       d="M 22.383823,11.12205 C 22.383823,11.12205 35.777994,15.880267 43.665117,2.2956028"
       id="path5383"
       sodipodi:nodetypes="cc" />
  </g>
</svg>