<?xml version="1.0" encoding="UTF-8" standalone="no"?>
<!-- Created with Inkscape (http://www.inkscape.org/) -->
<svg
   xmlns:dc="http://purl.org/dc/elements/1.1/"
   xmlns:cc="http://creativecommons.org/ns#"
   xmlns:rdf="http://www.w3.org/1999/02/22-rdf-syntax-ns#"
   xmlns:svg="http://www.w3.org/2000/svg"
   xmlns="http://www.w3.org/2000/svg"
   xmlns:xlink="http://www.w3.org/1999/xlink"
   xmlns:sodipodi="http://sodipodi.sourceforge.net/DTD/sodipodi-0.dtd"
   xmlns:inkscape="http://www.inkscape.org/namespaces/inkscape"
   version="1.0"
   width="48"
   height="48"
   id="globalmenu"
   style="display:inline"
   sodipodi:version="0.32"
   inkscape:version="0.46+devel r20795"
   sodipodi:docname="globalmenu.svg"
   inkscape:output_extension="org.inkscape.output.svg.inkscape"
   inkscape:export-filename="/home/needcoffee/Desktop/globalmenu-mix-tango.png"
   inkscape:export-xdpi="90"
   inkscape:export-ydpi="90">
  <title
     id="title2834">Globalmenu</title>
  <metadata
     id="metadata81">
    <rdf:RDF>
      <cc:Work
         rdf:about="">
        <dc:format>image/svg+xml</dc:format>
        <dc:type
           rdf:resource="http://purl.org/dc/dcmitype/StillImage" />
        <dc:title>Globalmenu</dc:title>
        <dc:date>2009-04-02</dc:date>
        <dc:creator>
          <cc:Agent>
            <dc:title>Sebastian Kraft</dc:title>
          </cc:Agent>
        </dc:creator>
        <dc:subject>
          <rdf:Bag>
            <rdf:li>panel</rdf:li>
            <rdf:li>menubar</rdf:li>
          </rdf:Bag>
        </dc:subject>
      </cc:Work>
    </rdf:RDF>
  </metadata>
  <sodipodi:namedview
     pagecolor="#ffffff"
     bordercolor="#000000"
     borderopacity="1"
     objecttolerance="10"
     gridtolerance="10"
     guidetolerance="10"
     inkscape:pageopacity="0"
     inkscape:pageshadow="0"
     inkscape:window-width="1276"
     inkscape:window-height="938"
     id="namedview79"
     showgrid="true"
     inkscape:zoom="11.0625"
     inkscape:cx="9.1987224"
     inkscape:cy="20.308852"
     inkscape:window-x="0"
     inkscape:window-y="22"
     inkscape:current-layer="globalmenu"
     inkscape:snap-nodes="false"
     inkscape:snap-bbox="true"
     inkscape:snap-to-guides="false"
     inkscape:showpageshadow="false">
    <inkscape:grid
       type="xygrid"
       id="grid8177"
       empspacing="5"
       visible="true"
       enabled="true" />
  </sodipodi:namedview>
  <defs
     id="defs4">
    <inkscape:perspective
       sodipodi:type="inkscape:persp3d"
       inkscape:vp_x="0 : 24 : 1"
       inkscape:vp_y="0 : 1000 : 0"
       inkscape:vp_z="48 : 24 : 1"
       inkscape:persp3d-origin="24 : 16 : 1"
       id="perspective87" />
    <linearGradient
       inkscape:collect="always"
       id="linearGradient3628">
      <stop
         style="stop-color:#ffffff;stop-opacity:1;"
         offset="0"
         id="stop3630" />
      <stop
         style="stop-color:#ffffff;stop-opacity:0;"
         offset="1"
         id="stop3632" />
    </linearGradient>
    <linearGradient
       id="linearGradient7272">
      <stop
         offset="0"
         style="stop-color:#555753;stop-opacity:1"
         id="stop7274" />
      <stop
         offset="0.88579226"
         style="stop-color:#888a85;stop-opacity:1"
         id="stop7276" />
      <stop
         offset="1"
         style="stop-color:#888a85;stop-opacity:0"
         id="stop7278" />
    </linearGradient>
    <linearGradient
       id="linearGradient8222">
      <stop
         style="stop-color:#000000;stop-opacity:1;"
         offset="0"
         id="stop8224" />
      <stop
         style="stop-color:#000000;stop-opacity:0;"
         offset="1"
         id="stop8226" />
    </linearGradient>
    <linearGradient
       id="linearGradient8164">
      <stop
         offset="0"
         style="stop-color:#888a85;stop-opacity:1"
         id="stop8166" />
      <stop
         offset="0.76183307"
         style="stop-color:#babdb6;stop-opacity:1"
         id="stop8168" />
      <stop
         offset="1"
         style="stop-color:#ffffff;stop-opacity:1"
         id="stop8171" />
    </linearGradient>
    <linearGradient
       id="linearGradient8156">
      <stop
         offset="0"
         style="stop-color:#eeeeec;stop-opacity:1"
         id="stop8158" />
      <stop
         offset="0.52137113"
         style="stop-color:#eeeeec;stop-opacity:1"
         id="stop8160" />
      <stop
         offset="1"
         style="stop-color:#ffffff;stop-opacity:1"
         id="stop8162" />
    </linearGradient>
    <linearGradient
       id="linearGradient8168">
      <stop
         id="stop8170"
         style="stop-color:#2e3436;stop-opacity:1"
         offset="0" />
      <stop
         id="stop8172"
         style="stop-color:#2e3436;stop-opacity:1"
         offset="0.69617254" />
      <stop
         id="stop8174"
         style="stop-color:#2e3436;stop-opacity:0"
         offset="1" />
    </linearGradient>
    <linearGradient
       id="linearGradient8248">
      <stop
         id="stop8250"
         style="stop-color:#000000;stop-opacity:0"
         offset="0" />
      <stop
         id="stop8256"
         style="stop-color:#000000;stop-opacity:1"
         offset="0.5" />
      <stop
         id="stop8252"
         style="stop-color:#000000;stop-opacity:0"
         offset="1" />
    </linearGradient>
    <linearGradient
       id="linearGradient8228">
      <stop
         id="stop8230"
         style="stop-color:#000000;stop-opacity:1"
         offset="0" />
      <stop
         id="stop8232"
         style="stop-color:#000000;stop-opacity:0"
         offset="1" />
    </linearGradient>
    <linearGradient
       id="linearGradient8087">
      <stop
         id="stop8089"
         style="stop-color:#d3d7cf;stop-opacity:1"
         offset="0" />
      <stop
         id="stop8095"
         style="stop-color:#d3d7cf;stop-opacity:1"
         offset="0.88306451" />
      <stop
         id="stop8091"
         style="stop-color:#d3d7cf;stop-opacity:0"
         offset="1" />
    </linearGradient>
    <linearGradient
       id="linearGradient8069">
      <stop
         id="stop8071"
         style="stop-color:#ffffff;stop-opacity:1"
         offset="0" />
      <stop
         id="stop8073"
         style="stop-color:#f6f6f5;stop-opacity:1"
         offset="0.85402793" />
      <stop
         id="stop8075"
         style="stop-color:#eeeeec;stop-opacity:0"
         offset="1" />
    </linearGradient>
    <linearGradient
       id="linearGradient8163-1">
      <stop
         id="stop8165-1"
         style="stop-color:#3465a4;stop-opacity:1"
         offset="0" />
      <stop
         id="stop8167-3"
         style="stop-color:#729fcf;stop-opacity:1"
         offset="1" />
    </linearGradient>
    <linearGradient
       id="linearGradient8138-1">
      <stop
         id="stop8140-7"
         style="stop-color:#ffffff;stop-opacity:1"
         offset="0" />
      <stop
         id="stop8142-4"
         style="stop-color:#ffffff;stop-opacity:0"
         offset="1" />
    </linearGradient>
    <radialGradient
       inkscape:collect="always"
       xlink:href="#linearGradient8228"
       id="radialGradient8096"
       gradientUnits="userSpaceOnUse"
       gradientTransform="matrix(1.1754502,0,0,1.1754499,-0.20779215,-6.3286818)"
       cx="1.8782524"
       cy="30.055456"
       fx="1.8782524"
       fy="30.055456"
       r="1.7014757" />
    <radialGradient
       inkscape:collect="always"
       xlink:href="#linearGradient8228"
       id="radialGradient8098"
       gradientUnits="userSpaceOnUse"
       gradientTransform="matrix(-1.1754502,0,0,1.1754499,32.207792,-6.3286808)"
       cx="1.8782524"
       cy="30.055456"
       fx="1.8782524"
       fy="30.055456"
       r="1.7014757" />
    <linearGradient
       inkscape:collect="always"
       xlink:href="#linearGradient8248"
       id="linearGradient8100"
       gradientUnits="userSpaceOnUse"
       x1="2"
       y1="27"
       x2="2"
       y2="31" />
    <linearGradient
       inkscape:collect="always"
       xlink:href="#linearGradient8156"
       id="linearGradient8122"
       gradientUnits="userSpaceOnUse"
       gradientTransform="matrix(1.4371876,0,0,1.4997727,1.004999,1.2532954)"
       x1="7.4974999"
       y1="15.140062"
       x2="7.4974999"
       y2="24.573462" />
    <linearGradient
       inkscape:collect="always"
       xlink:href="#linearGradient8164"
       id="linearGradient8124"
       gradientUnits="userSpaceOnUse"
       gradientTransform="matrix(1.4371876,0,0,1.4997727,1.004999,1.2532954)"
       x1="24.502501"
       y1="10.3008"
       x2="24.502501"
       y2="25.411116" />
    <linearGradient
       inkscape:collect="always"
       xlink:href="#linearGradient8168"
       id="linearGradient8134"
       gradientUnits="userSpaceOnUse"
       gradientTransform="matrix(1.6898345,0,0,2.0281571,-3.1836522,-3.1689453)"
       x1="6.0264196"
       y1="5.0138836"
       x2="29.387842"
       y2="5.0138836" />
    <linearGradient
       inkscape:collect="always"
       xlink:href="#linearGradient8087"
       id="linearGradient8140"
       gradientUnits="userSpaceOnUse"
       x1="0"
       y1="0.99999988"
       x2="31.198874"
       y2="0.99999988"
       gradientTransform="matrix(1.5151515,0,0,1.5714285,-0.25757576,-0.85714272)" />
    <linearGradient
       inkscape:collect="always"
       xlink:href="#linearGradient7272"
       id="linearGradient8142"
       gradientUnits="userSpaceOnUse"
       x1="0"
       y1="9"
       x2="31.331455"
       y2="9"
       gradientTransform="matrix(1.5151515,0,0,1.5714285,-0.25757576,-0.85714272)" />
    <linearGradient
       inkscape:collect="always"
       xlink:href="#linearGradient8163-1"
       id="linearGradient8154"
       gradientUnits="userSpaceOnUse"
       x1="1"
       y1="16"
       x2="1"
       y2="22"
       gradientTransform="matrix(1.5518193,0,0,1.5996999,-0.82910829,-1.8952977)" />
    <linearGradient
       inkscape:collect="always"
       xlink:href="#linearGradient8069"
       id="linearGradient8218"
       x1="1.0000001"
       y1="5"
       x2="33.000004"
       y2="5"
       gradientUnits="userSpaceOnUse"
       gradientTransform="matrix(1.548387,0,0,1.8000001,-0.82258052,-2.0000002)" />
    <linearGradient
       inkscape:collect="always"
       xlink:href="#linearGradient8222"
       id="linearGradient8236"
       gradientUnits="userSpaceOnUse"
       x1="24"
       y1="10"
       x2="30"
       y2="10"
       gradientTransform="matrix(1.5666667,0,0,1.5,-0.56666673,-2.4489796e-8)" />
    <linearGradient
       inkscape:collect="always"
       xlink:href="#linearGradient8138-1"
       id="linearGradient8238"
       x1="2"
       y1="8"
       x2="2"
       y2="25"
       gradientUnits="userSpaceOnUse"
       gradientTransform="matrix(1.5927025,0,0,1.7272109,-1.4832381,-4.7280133)" />
    <radialGradient
       inkscape:collect="always"
       xlink:href="#linearGradient3628"
       id="radialGradient3634"
       cx="24"
       cy="40.5"
       fx="24"
       fy="40.5"
       r="22"
       gradientTransform="matrix(1,0,0,0.68117616,0,12.912365)"
       gradientUnits="userSpaceOnUse" />
  </defs>
  <path
     style="opacity:0.05;fill:url(#linearGradient8236);fill-opacity:1;fill-rule:nonzero;stroke:none"
     d="M 2.5666666,3 48,3 c 0,0 0,12 0,12 L 2.5666666,15 C 1.6987334,15 1,14.331 1,13.5 l 0,-9 C 1,3.669 1.6987334,3 2.5666666,3 z"
     id="rect8220"
     sodipodi:nodetypes="ccccccc" />
  <path
     style="color:#000000;fill:url(#linearGradient8154);fill-opacity:1;fill-rule:nonzero;stroke:#3465a4;stroke-width:1.005;stroke-linecap:butt;stroke-linejoin:miter;stroke-miterlimit:4;stroke-opacity:1;stroke-dasharray:none;stroke-dashoffset:0;marker:none;visibility:visible;display:inline;overflow:visible;enable-background:accumulate"
     id="rect8391"
     d="m 1.5025,36.4975 0,-8.794349 c 0,-1.772468 1.3842229,-3.1994 3.1036386,-3.1994 l 38.7877244,0 c 1.719416,0 3.103638,1.426932 3.103638,3.1994 l 0,8.794349" />
  <path
     style="color:#000000;fill:none;stroke:url(#linearGradient8238);stroke-width:1.005;stroke-linecap:butt;stroke-linejoin:miter;stroke-miterlimit:4;stroke-opacity:1;stroke-dasharray:none;stroke-dashoffset:0;marker:none;visibility:visible;display:inline;overflow:visible;enable-background:accumulate"
     id="rect8393"
     d="m 45.497503,44.497498 -42.9950029,0 0,-16.267789 c 0,-1.510108 1.0478014,-2.72721 2.0927026,-2.72721 l 38.8095973,0 c 1.221775,0 2.092703,1.408754 2.092703,2.72721 l 0,16.267789 z"
     sodipodi:nodetypes="ccccccc" />
  <g
     style="opacity:0.23773582"
     id="g8258"
     transform="matrix(1.49958,0,0,1.7500011,8.4002275e-4,-6.2500304)">
    <path
       style="color:#000000;fill:url(#radialGradient8096);fill-opacity:1;fill-rule:nonzero;stroke:none;stroke-width:1.005;marker:none;visibility:visible;display:inline;overflow:visible;enable-background:accumulate"
       id="path8225"
       d="M 2,30.999999 C 0.896,30.999999 0,30.104 0,29 c 0,-1.104 0.896,-2 2,-2 0,0 0,3.999999 0,3.999999 z" />
    <path
       style="color:#000000;fill:url(#radialGradient8098);fill-opacity:1;fill-rule:nonzero;stroke:none;stroke-width:1.005;marker:none;visibility:visible;display:inline;overflow:visible;enable-background:accumulate"
       id="path8236"
       d="m 30,31 c 1.104,0 2,-0.895999 2,-1.999999 0,-1.104 -0.896,-2 -2,-2 0,0 0,3.999999 0,3.999999 z" />
    <path
       style="color:#000000;fill:url(#linearGradient8100);fill-opacity:1;fill-rule:nonzero;stroke:none;stroke-width:1.005;marker:none;visibility:visible;display:inline;overflow:visible;enable-background:accumulate"
       id="rect8245"
       d="m 2,27 28.007843,0 0,4 L 2,31 2,27 z" />
  </g>
  <rect
     style="fill:#888a85;fill-opacity:1;fill-rule:nonzero;stroke:none"
     id="rect8192"
     y="36"
     x="1"
     height="10"
     width="46" />
  <path
     style="fill:url(#linearGradient8140);fill-opacity:1;fill-rule:nonzero;stroke:url(#linearGradient8142);stroke-width:0.99999994;stroke-linejoin:round"
     d="m 0.49999999,1.4999999 49.99999901,0 0,10.9999991 -49.99999901,0 0,-10.9999991 z"
     id="rect3195" />
  <path
     style="opacity:0.7;color:#000000;fill:#eeeeec;fill-opacity:1;fill-rule:nonzero;stroke:none;stroke-width:1.005;marker:none;visibility:visible;display:inline;overflow:visible;enable-background:accumulate"
     id="rect8369"
     d="M 4,2 5,2 5,12 4,12 4,2 z" />
  <path
     style="color:#000000;fill:#babdb6;fill-opacity:1;fill-rule:nonzero;stroke:none;stroke-width:1.005;marker:none;visibility:visible;display:inline;overflow:visible;enable-background:accumulate"
     id="path8372"
     d="M 5,2 6,2 6,12 5,12 5,2 z" />
  <path
     style="opacity:0.72830188;color:#000000;fill:none;stroke:url(#linearGradient8218);stroke-width:0.99999994;marker:none;visibility:visible;display:inline;overflow:visible;enable-background:accumulate"
     d="m 1.5000002,2.4999999 47.9999988,0 0,9.0000001 -47.9999988,0 0,-9.0000001 z"
     id="rect8209" />
  <text
     sodipodi:linespacing="125%"
     style="font-size:4px;font-style:normal;font-variant:normal;font-weight:bold;font-stretch:normal;text-align:start;line-height:125%;writing-mode:lr-tb;text-anchor:start;opacity:0.49283669;fill:#000000;fill-opacity:0.26366559;fill-rule:nonzero;stroke:#585858;stroke-opacity:1;font-family:Berlin Sans FB"
     xml:space="preserve"
     id="text3881"
     y="-18.026424"
     x="20.135717"><tspan
       id="tspan3883"
       y="-18.026424"
       x="20.135717" /></text>
  <rect
     style="fill:#ffffff;fill-opacity:1;fill-rule:nonzero;stroke:none"
     id="rect2471"
     y="36"
     x="2"
     height="9"
     width="44" />
  <path
     id="path3620"
     d="m 3,43 0,2 2,0 0,-2 -2,0 z m 4,0 0,2 2,0 0,-2 -2,0 z m 4,0 0,2 2,0 0,-2 -2,0 z m 4,0 0,2 2,0 0,-2 -2,0 z m 4,0 0,2 2,0 0,-2 -2,0 z m 4,0 0,2 2,0 0,-2 -2,0 z m 4,0 0,2 2,0 0,-2 -2,0 z m 4,0 0,2 2,0 0,-2 -2,0 z m 4,0 0,2 2,0 0,-2 -2,0 z m 4,0 0,2 2,0 0,-2 -2,0 z m 4,0 0,2 2,0 0,-2 -2,0 z"
     style="color:#000000;fill:#babdb6;fill-opacity:1;fill-rule:nonzero;stroke:none;stroke-width:1;marker:none;visibility:visible;display:inline;overflow:visible;enable-background:accumulate" />
  <path
     style="font-size:2.70537782px;font-style:normal;font-variant:normal;font-weight:bold;font-stretch:normal;text-align:start;line-height:125%;writing-mode:lr-tb;text-anchor:start;fill:url(#linearGradient8134);fill-opacity:1;stroke:none;font-family:Bitstream Vera Sans;-inkscape-font-specification:Bitstream Vera Sans Bold"
     id="path8098"
     d="m 7,5 0,4 0.8440797,0 0,-1.6875 1.3716296,0 0,-0.8125 -1.3716296,0 0,-0.75 1.4771395,0 0,-0.75 L 7,5 z m 3.112544,0 0,4 0.896835,0 0,-4 -0.896835,0 z m 1.740915,0 0,4 2.321219,0 0,-0.75 -1.47714,0 0,-3.25 -0.844079,0 z m 2.901524,0 0,4 2.373974,0 0,-0.75 -1.529895,0 0,-0.9375 1.37163,0 0,-0.8125 -1.37163,0 0,-0.75 1.47714,0 0,-0.75 -2.321219,0 z m 7.860492,0 0,4 2.373974,0 0,-0.75 -1.47714,0 0,-0.9375 1.37163,0 0,-0.8125 -1.37163,0 0,-0.75 1.424385,0 0,-0.75 -2.321219,0 z m 3.165299,0 0,4 0.896834,0 c 0.500021,0 0.857842,-0.039267 1.107855,-0.125 0.250009,-0.08752 0.454477,-0.2303108 0.63306,-0.4375 0.156255,-0.180396 0.293385,-0.3892317 0.369285,-0.625 0.0759,-0.2375512 0.10551,-0.5106456 0.10551,-0.8125 0,-0.2982781 -0.02961,-0.5767309 -0.10551,-0.8125 -0.0759,-0.2357636 -0.21303,-0.4446 -0.369285,-0.625 C 28.241429,5.3553148 28.033984,5.210736 27.785463,5.125 27.538424,5.0374867 27.183582,5.000004 26.677608,5 l -0.896834,0 z m 3.798358,0 0,4 0.84408,0 0,-4 -0.84408,0 z m 1.26612,0 0,0.75 1.107855,0 0,3.25 0.896835,0 0,-3.25 1.107854,0 0,-0.75 -3.112544,0 z m 7.913247,0 1.213365,4 1.0551,0 1.213364,-4 -0.84408,0 L 40.499414,7.9375 39.602579,5 38.758499,5 z m 3.903869,0 0,4 0.896835,0 0,-4 -0.896835,0 z m 1.740915,0 0,4 2.373974,0 0,-0.75 -1.529894,0 0,-0.9375 1.371628,0 0,-0.8125 -1.371628,0 0,-0.75 1.477139,0 0,-0.75 -2.321219,0 z m 2.848769,0 0.791324,4 0.94959,0 0.63306,-3.0625 L 50.206331,9 51.208675,9 52,5 51.15592,5 50.575615,7.9375 50.048065,5 49.203986,5 48.623681,7.9375 48.043376,5 47.252052,5 z m -20.627199,0.75 0.31653,0 c 0.352694,3.1e-6 0.60679,0.1053133 0.791325,0.3125 0.184534,0.2071915 0.263773,0.5409859 0.263775,0.9375 -2e-6,0.3983043 -0.07776,0.7285264 -0.263775,0.9375 -0.184535,0.2089763 -0.44012,0.3125008 -0.791325,0.3125 l -0.31653,0 0,-2.5 z" />
  <path
     style="fill:#ffffff;fill-opacity:1;fill-rule:nonzero;stroke:none"
     id="rect2465"
     d="m 24,32 6,0 0,2 -6,0 0,-2 z" />
  <path
     style="color:#000000;fill:#ffffff;fill-opacity:1;fill-rule:nonzero;stroke:none;stroke-width:1.005;marker:none;visibility:visible;display:inline;overflow:visible;enable-background:accumulate"
     id="rect8157"
     d="m 31,34 0,-6 6,0 0,6 -6,0 z m 1,-1 4,0 0,-3 -4,0 0,3 z"
     sodipodi:nodetypes="cccccccccc" />
  <path
     style="fill:#ffffff;fill-opacity:1;stroke-width:1px"
     d="m 40,28 -2,0 2,3 -2,3 2,0 1,-2 1,2 2,0 -2,-3 2,-3 -2,0 -1,2 -1,-2 z"
     id="path2830"
     sodipodi:nodetypes="ccccccccccccc" />
  <path
     style="color:#000000;fill:#babdb6;fill-opacity:1;fill-rule:nonzero;stroke:none;stroke-width:1;marker:none;visibility:visible;display:inline;overflow:visible;enable-background:accumulate"
     d="m 3,36 0,2 2,0 0,-2 -2,0 z m 4,0 0,2 2,0 0,-2 -2,0 z m 4,0 0,2 2,0 0,-2 -2,0 z m 4,0 0,2 2,0 0,-2 -2,0 z m 4,0 0,2 2,0 0,-2 -2,0 z m 4,0 0,2 2,0 0,-2 -2,0 z m 4,0 0,2 2,0 0,-2 -2,0 z m 4,0 0,2 2,0 0,-2 -2,0 z m 4,0 0,2 2,0 0,-2 -2,0 z m 4,0 0,2 2,0 0,-2 -2,0 z m 4,0 0,2 2,0 0,-2 -2,0 z"
     id="rect3607" />
  <path
     style="color:#000000;fill:url(#radialGradient3634);fill-opacity:1;fill-rule:nonzero;stroke:none;stroke-width:1;marker:none;visibility:visible;display:inline;overflow:visible;enable-background:accumulate;opacity:1"
     d="M 2 36 L 2 37 L 46 37 L 46 36 L 2 36 z M 2 44 L 2 45 L 46 45 L 46 44 L 2 44 z "
     id="rect3622" />
  <path
     style="opacity:0.7;color:#000000;fill:url(#linearGradient8122);fill-opacity:1;fill-rule:nonzero;stroke:url(#linearGradient8124);stroke-width:1.005;marker:none;visibility:visible;display:inline;overflow:visible;enable-background:accumulate"
     id="rect8275"
     d="m 28.5,39 0,-17.499773 6.9975,0 L 24,6.5025 12.502499,21.500227 19.5,21.500227 19.5,39"
     sodipodi:nodetypes="ccccccc" />
  <path
     style="opacity:0.6;color:#000000;fill:none;stroke:#ffffff;stroke-width:1.005;stroke-opacity:1;marker:none;visibility:visible;display:inline;overflow:visible;enable-background:accumulate"
     id="path8307"
     d="m 27.5,39 0,-18.5 5.997502,0 L 24.000001,8 14.5025,20.5 l 5.9975,0 0,18.5"
     sodipodi:nodetypes="ccccccc" />
</svg>
