<?xml version="1.0" encoding="UTF-8" standalone="no"?>
<svg
   xmlns:dc="http://purl.org/dc/elements/1.1/"
   xmlns:cc="http://creativecommons.org/ns#"
   xmlns:rdf="http://www.w3.org/1999/02/22-rdf-syntax-ns#"
   xmlns:svg="http://www.w3.org/2000/svg"
   xmlns="http://www.w3.org/2000/svg"
   xmlns:xlink="http://www.w3.org/1999/xlink"
   xmlns:sodipodi="http://sodipodi.sourceforge.net/DTD/sodipodi-0.dtd"
   xmlns:inkscape="http://www.inkscape.org/namespaces/inkscape"
   version="1.0"
   width="48"
   height="48"
   viewBox="0 0 128.012 128"
   overflow="visible"
   enable-background="new 0 0 128.012 128"
   xml:space="preserve"
   id="svg3543"
   sodipodi:version="0.32"
   inkscape:version="0.46"
   sodipodi:docname="gnome-session-switch.svg"
   inkscape:output_extension="org.inkscape.output.svg.inkscape"
   style="overflow:visible"><metadata
   id="metadata3602"><rdf:RDF><cc:Work
       rdf:about=""><dc:format>image/svg+xml</dc:format><dc:type
         rdf:resource="http://purl.org/dc/dcmitype/StillImage" /></cc:Work></rdf:RDF></metadata><defs
   id="defs3600"><linearGradient
     id="linearGradient5105-262-943-861"
     inkscape:collect="always"><stop
       style="stop-color:#0d0d0d;stop-opacity:1;"
       id="stop2487"
       offset="0" /><stop
       style="stop-color:#0d0d0d;stop-opacity:0;"
       id="stop2489"
       offset="1" /></linearGradient><radialGradient
     r="8.0625"
     fy="19.03125"
     fx="11.25"
     cy="19.03125"
     cx="11.25"
     gradientTransform="matrix(1,0,0,0.282946,0,13.64644)"
     gradientUnits="userSpaceOnUse"
     id="radialGradient2538"
     xlink:href="#linearGradient5105-262-943-861"
     inkscape:collect="always" /><inkscape:perspective
     sodipodi:type="inkscape:persp3d"
     inkscape:vp_x="0 : 24 : 1"
     inkscape:vp_y="0 : 1000 : 0"
     inkscape:vp_z="48 : 24 : 1"
     inkscape:persp3d-origin="24 : 16 : 1"
     id="perspective96" /><linearGradient
     id="linearGradient4222"><stop
       style="stop-color:#ffffff;stop-opacity:1;"
       offset="0"
       id="stop4224" /><stop
       style="stop-color:#ffffff;stop-opacity:0;"
       offset="1"
       id="stop4226" /></linearGradient><linearGradient
     id="linearGradient2264"><stop
       style="stop-color:#729fcf;stop-opacity:1;"
       offset="0"
       id="stop2266" /><stop
       style="stop-color:#3465a4;stop-opacity:0;"
       offset="1"
       id="stop2268" /></linearGradient><linearGradient
     id="linearGradient2442"><stop
       id="stop2444"
       offset="0"
       style="stop-color:#fcaf3e;stop-opacity:1;" /><stop
       id="stop2446"
       offset="1"
       style="stop-color:#f57900;stop-opacity:0;" /></linearGradient><linearGradient
     id="linearGradient3480"><stop
       id="stop3482"
       offset="0"
       style="stop-color:#204a87;stop-opacity:1;" /><stop
       id="stop3484"
       offset="1"
       style="stop-color:#204a87;stop-opacity:0;" /></linearGradient><linearGradient
     id="linearGradient5432"><stop
       id="stop5434"
       offset="0"
       style="stop-color:#ce5c00;stop-opacity:1;" /><stop
       id="stop5436"
       offset="1"
       style="stop-color:#ce5c00;stop-opacity:0;" /></linearGradient><linearGradient
     inkscape:collect="always"
     xlink:href="#linearGradient4222"
     id="linearGradient2497"
     gradientUnits="userSpaceOnUse"
     gradientTransform="matrix(-1.649817,0,0,1.5820273,73.649809,40.069785)"
     x1="37.390652"
     y1="26.022907"
     x2="-7.150826"
     y2="26.022907" /><linearGradient
     inkscape:collect="always"
     xlink:href="#linearGradient2442"
     id="linearGradient2500"
     gradientUnits="userSpaceOnUse"
     gradientTransform="matrix(1.476384,0,0,1.476384,-1.0866427,45.96649)"
     x1="15.658319"
     y1="23.890965"
     x2="62.952984"
     y2="23.890963" /><linearGradient
     inkscape:collect="always"
     xlink:href="#linearGradient5432"
     id="linearGradient2502"
     gradientUnits="userSpaceOnUse"
     x1="22.760281"
     y1="18.995085"
     x2="22.760281"
     y2="49.144836"
     gradientTransform="matrix(0,-2.9323053,2.9323053,0,-52.251523,147.97882)" /><linearGradient
     inkscape:collect="always"
     xlink:href="#linearGradient4222"
     id="linearGradient2511"
     gradientUnits="userSpaceOnUse"
     gradientTransform="matrix(1.6727172,0,0,1.567355,52.821794,-6.8244279)"
     x1="3.8877637"
     y1="26.022909"
     x2="-8.7979088"
     y2="26.022909" /><linearGradient
     inkscape:collect="always"
     xlink:href="#linearGradient2264"
     id="linearGradient2514"
     gradientUnits="userSpaceOnUse"
     gradientTransform="matrix(-1.476384,0,0,1.476384,129.09863,-1.0904152)"
     x1="62.952984"
     y1="23.890966"
     x2="2.9737453"
     y2="23.890966" /><linearGradient
     inkscape:collect="always"
     xlink:href="#linearGradient3480"
     id="linearGradient2516"
     gradientUnits="userSpaceOnUse"
     x1="40.808029"
     y1="56.248631"
     x2="40.808029"
     y2="26.149443"
     gradientTransform="matrix(0,-2.9323053,2.9323053,0,-40.522301,153.84343)" /><linearGradient
     inkscape:collect="always"
     xlink:href="#linearGradient2264"
     id="linearGradient3255"
     gradientUnits="userSpaceOnUse"
     gradientTransform="matrix(-1.476384,0,0,1.476384,129.07932,-4.7605445)"
     x1="15.658319"
     y1="23.890965"
     x2="62.952984"
     y2="23.890963" /><linearGradient
     inkscape:collect="always"
     xlink:href="#linearGradient3480"
     id="linearGradient3257"
     gradientUnits="userSpaceOnUse"
     gradientTransform="matrix(0,-2.9323053,-2.9323053,0,180.2442,97.251783)"
     x1="22.760281"
     y1="18.995085"
     x2="22.760281"
     y2="49.144836" /><linearGradient
     inkscape:collect="always"
     xlink:href="#linearGradient4222"
     id="linearGradient3259"
     gradientUnits="userSpaceOnUse"
     gradientTransform="matrix(1.649817,0,0,1.5820273,54.342868,-10.657248)"
     x1="37.390652"
     y1="26.022907"
     x2="-7.150826"
     y2="26.022907" /></defs><sodipodi:namedview
   inkscape:window-height="792"
   inkscape:window-width="1440"
   inkscape:pageshadow="2"
   inkscape:pageopacity="0.0"
   guidetolerance="10.0"
   gridtolerance="10.0"
   objecttolerance="10.0"
   borderopacity="1.0"
   bordercolor="#666666"
   pagecolor="#ffffff"
   id="base"
   showgrid="true"
   inkscape:zoom="8.8548424"
   inkscape:cx="-6.7665951"
   inkscape:cy="16.678736"
   inkscape:window-x="5"
   inkscape:window-y="172"
   inkscape:current-layer="svg3543"><inkscape:grid
     type="xygrid"
     id="grid2473" /></sodipodi:namedview>
	
	
	
	<linearGradient
   id="XMLID_7_"
   gradientUnits="userSpaceOnUse"
   x1="89.220703"
   y1="70.170898"
   x2="77.356499"
   y2="20.816099">
		<stop
   offset="0"
   style="stop-color:#489606"
   id="stop3552" />
		<stop
   offset="1"
   style="stop-color:#51A706"
   id="stop3554" />
	</linearGradient>
	
	
		<linearGradient
   id="XMLID_8_"
   gradientUnits="userSpaceOnUse"
   x1="595.16412"
   y1="44.329102"
   x2="579.53802"
   y2="75.265999"
   gradientTransform="matrix(-1,0,0,1,676.1953,0)">
		<stop
   offset="0"
   style="stop-color:#59A907"
   id="stop3559" />
		<stop
   offset="1"
   style="stop-color:#6EC308"
   id="stop3561" />
	</linearGradient>
	
	
	<linearGradient
   id="XMLID_9_"
   gradientUnits="userSpaceOnUse"
   x1="43.597698"
   y1="37.950199"
   x2="122.6445"
   y2="37.950199">
		<stop
   offset="0"
   style="stop-color:#9BCA6A"
   id="stop3568" />
		<stop
   offset="1"
   style="stop-color:#87C349"
   id="stop3570" />
	</linearGradient>
	
	
	<linearGradient
   id="XMLID_10_"
   gradientUnits="userSpaceOnUse"
   x1="1"
   y1="78.950203"
   x2="85.414101"
   y2="78.950203">
		<stop
   offset="0"
   style="stop-color:#489606"
   id="stop3577" />
		<stop
   offset="1"
   style="stop-color:#51A706"
   id="stop3579" />
	</linearGradient>
	
	<linearGradient
   id="XMLID_11_"
   gradientUnits="userSpaceOnUse"
   x1="8.1542997"
   y1="64.207001"
   x2="80.318703"
   y2="98.641296">
		<stop
   offset="0"
   style="stop-color:#59A907"
   id="stop3584" />
		<stop
   offset="1"
   style="stop-color:#6EC308"
   id="stop3586" />
	</linearGradient>
	
	
	<linearGradient
   id="XMLID_12_"
   gradientUnits="userSpaceOnUse"
   x1="15.6523"
   y1="59.7617"
   x2="19.4666"
   y2="76.925697">
		<stop
   offset="0"
   style="stop-color:#9BCA6A"
   id="stop3593" />
		<stop
   offset="1"
   style="stop-color:#87C349"
   id="stop3595" />
	</linearGradient>
	
<g
   transform="matrix(0.5095419,0,0,0.5095419,-60.900039,-16.847211)"
   inkscape:label="backdrop"
   id="g12923" /><g
   transform="matrix(0.5095419,0,0,0.5095419,23.05305,16.991189)"
   style="display:inline"
   id="g12925"
   inkscape:label="Layer 1" /><g
   transform="matrix(0.5095419,0,0,0.5095419,23.025998,17.139358)"
   inkscape:label="stuff"
   id="g12935" /><g
   transform="matrix(1.4701406,0,0,1.4701406,-154.23431,43.690712)"
   inkscape:label="shadiw"
   id="layer5"
   style="display:inline" /><g
   transform="matrix(0.5095419,0,0,0.5095419,-132.68893,47.79027)"
   inkscape:label="shadiw"
   id="g2529"
   style="display:inline" /><g
   transform="matrix(0.5012171,0,0,0.5012171,-76.356965,38.38195)"
   inkscape:label="Shadow"
   id="layer6" /><g
   transform="matrix(0.5012171,0,0,0.5012171,-76.356965,38.38195)"
   id="g2170"
   inkscape:label="Base"
   style="display:inline" /><g
   transform="matrix(0.5012171,0,0,0.5012171,-140.77849,52.68017)"
   id="g5398"
   inkscape:label="Layer 1" /><g
   transform="matrix(0.5012171,0,0,0.5012171,-140.77849,52.68017)"
   inkscape:label="shadiw"
   id="g2258" /><g
   transform="matrix(0.5012171,0,0,0.5012171,-140.77849,52.68017)"
   inkscape:label="white"
   id="g2260" /><g
   inkscape:label="Layer 1"
   id="g3678"
   style="display:inline"
   transform="matrix(0.5012171,0,0,0.5012171,-180.37344,48.492579)" /><g
   id="g3680"
   inkscape:label="bottom"
   transform="matrix(0.5012171,0,0,0.5012171,-180.37344,48.492579)" /><g
   id="g2264"
   inkscape:label="back"
   style="display:inline"
   transform="matrix(0.5012171,0,0,0.5012171,-180.37344,48.492579)" /><g
   transform="matrix(0.5012171,0,0,0.5012171,-101.92079,52.957223)"
   inkscape:label="shadiw"
   id="g3698" /><g
   transform="matrix(0.5012171,0,0,0.5012171,-17.551563,55.59376)"
   inkscape:label="shadiw"
   id="g3760" /><g
   id="g5431"
   inkscape:label="Shadow"
   transform="matrix(0.5012171,0,0,0.5012171,-195.07744,35.438318)" /><g
   style="display:inline"
   inkscape:label="Base"
   id="g4258"
   transform="matrix(0.5012171,0,0,0.5012171,-195.07744,35.438318)" /><g
   id="g5440"
   inkscape:label="new"
   transform="matrix(0.5012171,0,0,0.5012171,-195.07744,35.438318)" /><g
   inkscape:label="Layer 1"
   id="g3928"
   style="display:inline"
   transform="matrix(0.5012171,0,0,0.5012171,-179.32063,42.576199)" /><g
   id="g3930"
   inkscape:label="bottom"
   transform="matrix(0.5012171,0,0,0.5012171,-179.32063,42.576199)" /><g
   id="g3932"
   inkscape:label="back"
   style="display:inline"
   transform="matrix(0.5012171,0,0,0.5012171,-179.32063,42.576199)" /><g
   transform="matrix(0.5012171,0,0,0.5012171,-100.86797,47.040844)"
   inkscape:label="shadiw"
   id="g3934" /><g
   transform="matrix(0.5012171,0,0,0.5012171,-16.498747,49.67738)"
   inkscape:label="shadiw"
   id="g3936" /><g
   id="g3961"
   inkscape:label="Shadow"
   transform="matrix(0.5012171,0,0,0.5012171,-194.02463,29.521938)" /><g
   style="display:inline"
   inkscape:label="Base"
   id="g3963"
   transform="matrix(0.5012171,0,0,0.5012171,-194.02463,29.521938)" /><g
   id="layer7"
   inkscape:label="new"
   transform="matrix(0.5012171,0,0,0.5012171,-194.02463,29.521938)" /><g
   transform="matrix(0.5012171,0,0,0.5012171,-94.404714,26.321413)"
   inkscape:label="Shadow"
   id="g2381" /><g
   transform="matrix(0.5012171,0,0,0.5012171,-94.404714,26.321413)"
   id="g2383"
   inkscape:label="Base"
   style="display:inline" /><g
   transform="matrix(0.5012171,0,0,0.5012171,-158.82624,40.619633)"
   id="g2385"
   inkscape:label="Layer 1" /><g
   transform="matrix(0.5012171,0,0,0.5012171,-158.82624,40.619633)"
   inkscape:label="shadiw"
   id="g2387" /><g
   transform="matrix(0.5012171,0,0,0.5012171,-158.82624,40.619633)"
   inkscape:label="white"
   id="g2389" /><g
   inkscape:label="Layer 1"
   id="g2391"
   style="display:inline"
   transform="matrix(0.5012171,0,0,0.5012171,-198.42119,36.432042)" /><g
   id="g2393"
   inkscape:label="bottom"
   transform="matrix(0.5012171,0,0,0.5012171,-198.42119,36.432042)" /><g
   id="g2395"
   inkscape:label="back"
   style="display:inline"
   transform="matrix(0.5012171,0,0,0.5012171,-198.42119,36.432042)" /><g
   transform="matrix(0.5012171,0,0,0.5012171,-119.96854,40.896686)"
   inkscape:label="shadiw"
   id="g2397" /><g
   transform="matrix(0.5012171,0,0,0.5012171,-35.599312,43.533223)"
   inkscape:label="shadiw"
   id="g2399" /><g
   id="g2401"
   inkscape:label="Shadow"
   transform="matrix(0.5012171,0,0,0.5012171,-213.12519,23.377781)" /><g
   style="display:inline"
   inkscape:label="Base"
   id="g2403"
   transform="matrix(0.5012171,0,0,0.5012171,-213.12519,23.377781)" /><g
   id="g2405"
   inkscape:label="new"
   transform="matrix(0.5012171,0,0,0.5012171,-213.12519,23.377781)" /><g
   inkscape:label="Layer 1"
   id="g2407"
   style="display:inline"
   transform="matrix(0.5012171,0,0,0.5012171,-197.36838,30.515662)" /><g
   id="g2409"
   inkscape:label="bottom"
   transform="matrix(0.5012171,0,0,0.5012171,-197.36838,30.515662)" /><g
   id="g2411"
   inkscape:label="back"
   style="display:inline"
   transform="matrix(0.5012171,0,0,0.5012171,-197.36838,30.515662)" /><g
   transform="matrix(0.5012171,0,0,0.5012171,-118.91572,34.980307)"
   inkscape:label="shadiw"
   id="g2413" /><g
   transform="matrix(0.5012171,0,0,0.5012171,-34.546496,37.616843)"
   inkscape:label="shadiw"
   id="g2415" /><g
   id="g2417"
   inkscape:label="Shadow"
   transform="matrix(0.5012171,0,0,0.5012171,-212.07238,17.461401)" /><g
   style="display:inline"
   inkscape:label="Base"
   id="g2419"
   transform="matrix(0.5012171,0,0,0.5012171,-212.07238,17.461401)" /><g
   id="g2421"
   inkscape:label="new"
   transform="matrix(0.5012171,0,0,0.5012171,-212.07238,17.461401)" /><path
   sodipodi:nodetypes="cccccccc"
   style="opacity:0.35400002000000003;fill:none;fill-opacity:1;fill-rule:nonzero;stroke:url(#linearGradient2511);stroke-width:2.66691667;stroke-linecap:butt;stroke-linejoin:round;marker:none;marker-start:none;marker-mid:none;marker-end:none;stroke-miterlimit:4;stroke-dasharray:none;stroke-dashoffset:0;stroke-opacity:1;visibility:visible;display:inline;overflow:visible"
   d="M 95.430251,10.649204 L 122.10561,33.957292 L 95.430251,57.276209 L 95.591656,46.258976 L 39.099281,46.258976 L 38.937875,22.174855 L 95.591656,22.174855 L 95.430251,10.649204 z"
   id="path4360" /><path
   sodipodi:nodetypes="cccccccc"
   style="fill:url(#linearGradient2500);fill-opacity:1;fill-rule:nonzero;stroke:url(#linearGradient2502);stroke-width:2.66691667;stroke-linecap:round;stroke-linejoin:round;marker:none;marker-start:none;marker-mid:none;marker-end:none;stroke-miterlimit:4;stroke-dasharray:none;stroke-dashoffset:0;stroke-opacity:1;visibility:visible;display:inline;overflow:visible"
   d="M 36.032184,51.989182 L 1.3156145,81.161245 L 36.032184,110.71416 L 35.978942,94.585876 L 90.675167,94.56539 L 91.003389,68.043308 L 36.036751,68.051206 L 36.032184,51.989182 z"
   id="path2426" /><path
   sodipodi:nodetypes="cccccccc"
   style="opacity:0.35400002000000003;fill:none;fill-opacity:1;fill-rule:nonzero;stroke:url(#linearGradient2497);stroke-width:2.66691667;stroke-linecap:butt;stroke-linejoin:round;marker:none;marker-start:none;marker-mid:none;marker-end:none;stroke-miterlimit:4;stroke-dasharray:none;stroke-dashoffset:0;stroke-opacity:1;visibility:visible;display:inline;overflow:visible"
   d="M 33.465611,57.494017 L 5.3145143,81.23326 L 33.359127,104.98344 L 33.359661,91.893116 L 81.906594,92.106084 L 81.79958,70.778061 L 33.306419,70.724819 L 33.465611,57.494017 z"
   id="path2428" /><path
   id="path4346"
   sodipodi:cx="11.25"
   sodipodi:cy="19.03125"
   transform="matrix(7.9194504,0,0,7.6970621,-25.088567,-36.037636)"
   d="M 19.3125,19.03125 A 8.0625,2.28125 0 1 1 3.1875,19.03125 A 8.0625,2.28125 0 1 1 19.3125,19.03125 z"
   sodipodi:type="arc"
   style="opacity:0.16292138;fill:url(#radialGradient2538);fill-opacity:1;fill-rule:nonzero;stroke:none;stroke-width:1;marker:none;marker-start:none;marker-mid:none;marker-end:none;visibility:visible;display:inline;overflow:visible"
   sodipodi:ry="2.28125"
   sodipodi:rx="8.0625" /><path
   sodipodi:nodetypes="cccccccc"
   style="fill:url(#linearGradient3255);fill-opacity:1.0;fill-rule:nonzero;stroke:url(#linearGradient3257);stroke-width:2.66691660999999991;stroke-linecap:round;stroke-linejoin:round;marker:none;marker-start:none;marker-mid:none;marker-end:none;stroke-miterlimit:4;stroke-dasharray:none;stroke-dashoffset:0;stroke-opacity:1;visibility:visible;display:inline;overflow:visible"
   d="M 91.960493,1.2621479 L 126.67707,30.434211 L 91.960493,59.987126 L 92.013735,43.858842 L 37.31751,43.838356 L 36.989288,17.316274 L 91.955926,17.324172 L 91.960493,1.2621479 z"
   id="path3251" /><path
   sodipodi:nodetypes="cccccccc"
   style="opacity:0.35400002;fill:none;fill-opacity:1;fill-rule:nonzero;stroke:url(#linearGradient3259);stroke-width:2.66691661;stroke-linecap:butt;stroke-linejoin:round;marker:none;marker-start:none;marker-mid:none;marker-end:none;stroke-miterlimit:4;stroke-dasharray:none;stroke-dashoffset:0;stroke-opacity:1;visibility:visible;display:inline;overflow:visible"
   d="M 94.527066,6.766983 L 122.67817,30.506226 L 94.63355,54.256406 L 94.633016,41.166082 L 46.086083,41.37905 L 46.193097,20.051027 L 94.686258,19.997785 L 94.527066,6.766983 z"
   id="path3253" /></svg>