<?xml version="1.0" encoding="UTF-8" standalone="no"?>
<!-- Created with Inkscape (http://www.inkscape.org/) -->
<svg
   xmlns:dc="http://purl.org/dc/elements/1.1/"
   xmlns:cc="http://web.resource.org/cc/"
   xmlns:rdf="http://www.w3.org/1999/02/22-rdf-syntax-ns#"
   xmlns:svg="http://www.w3.org/2000/svg"
   xmlns="http://www.w3.org/2000/svg"
   xmlns:xlink="http://www.w3.org/1999/xlink"
   xmlns:sodipodi="http://sodipodi.sourceforge.net/DTD/sodipodi-0.dtd"
   xmlns:inkscape="http://www.inkscape.org/namespaces/inkscape"
   width="48px"
   height="48px"
   id="svg1306"
   sodipodi:version="0.32"
   inkscape:version="0.43+0.44pre0"
   sodipodi:docbase="/home/andreas/project/application icons/scalable"
   sodipodi:docname="gnomebaker.svg">
  <defs
     id="defs1308">
    <linearGradient
       inkscape:collect="always"
       id="linearGradient4409">
      <stop
         style="stop-color:#ffffff;stop-opacity:1;"
         offset="0"
         id="stop4411" />
      <stop
         style="stop-color:#ffffff;stop-opacity:0;"
         offset="1"
         id="stop4413" />
    </linearGradient>
    <linearGradient
       inkscape:collect="always"
       id="linearGradient6028">
      <stop
         style="stop-color:#ffffff;stop-opacity:1;"
         offset="0"
         id="stop6030" />
      <stop
         style="stop-color:#ffffff;stop-opacity:0;"
         offset="1"
         id="stop6032" />
    </linearGradient>
    <linearGradient
       inkscape:collect="always"
       id="linearGradient6036">
      <stop
         style="stop-color:#ffffff;stop-opacity:1;"
         offset="0"
         id="stop6038" />
      <stop
         style="stop-color:#ffffff;stop-opacity:0;"
         offset="1"
         id="stop6040" />
    </linearGradient>
    <linearGradient
       id="aigrd2"
       gradientUnits="userSpaceOnUse"
       x1="12.2744"
       y1="32.4165"
       x2="35.3912"
       y2="14.2033">
      <stop
         offset="0"
         style="stop-color:#FBFBFB"
         id="stop3043" />
      <stop
         offset="0.5"
         style="stop-color:#B6B6B6"
         id="stop3045" />
      <stop
         offset="1"
         style="stop-color:#E4E4E4"
         id="stop3047" />
    </linearGradient>
    <linearGradient
       id="aigrd1"
       gradientUnits="userSpaceOnUse"
       x1="14.9966"
       y1="11.1885"
       x2="32.511"
       y2="34.3075">
      <stop
         offset="0"
         style="stop-color:#EBEBEB"
         id="stop3034" />
      <stop
         offset="0.5"
         style="stop-color:#FFFFFF"
         id="stop3036" />
      <stop
         offset="1"
         style="stop-color:#EBEBEB"
         id="stop3038" />
    </linearGradient>
    <linearGradient
       inkscape:collect="always"
       id="linearGradient23419">
      <stop
         style="stop-color:#000000;stop-opacity:1;"
         offset="0"
         id="stop23421" />
      <stop
         style="stop-color:#000000;stop-opacity:0;"
         offset="1"
         id="stop23423" />
    </linearGradient>
    <radialGradient
       inkscape:collect="always"
       xlink:href="#linearGradient23419"
       id="radialGradient3507"
       gradientUnits="userSpaceOnUse"
       gradientTransform="matrix(1,0,0,0.25,0,31.22703)"
       cx="23.334524"
       cy="41.63604"
       fx="23.334524"
       fy="41.63604"
       r="22.627417" />
    <linearGradient
       inkscape:collect="always"
       xlink:href="#linearGradient6028"
       id="linearGradient3515"
       gradientUnits="userSpaceOnUse"
       x1="28.702885"
       y1="31.494707"
       x2="17.742729"
       y2="18.366575" />
    <linearGradient
       inkscape:collect="always"
       xlink:href="#linearGradient6036"
       id="linearGradient3519"
       gradientUnits="userSpaceOnUse"
       x1="10.501720"
       y1="3.6100161"
       x2="48.798885"
       y2="54.698483"
       gradientTransform="matrix(0.985854,0,0,1.00932,-2.016342e-2,-1.750853)" />
    <linearGradient
       inkscape:collect="always"
       xlink:href="#aigrd2"
       id="linearGradient3523"
       gradientUnits="userSpaceOnUse"
       gradientTransform="matrix(1.173453,0,0,1.2,-4.198294,-4.220002)"
       x1="12.2744"
       y1="32.4165"
       x2="35.3912"
       y2="14.2033" />
    <linearGradient
       inkscape:collect="always"
       xlink:href="#aigrd1"
       id="linearGradient3526"
       gradientUnits="userSpaceOnUse"
       gradientTransform="matrix(1.190476,0,0,1.190476,-4.308944,-3.833323)"
       x1="14.9966"
       y1="11.1885"
       x2="32.511"
       y2="34.3075" />
    <linearGradient
       inkscape:collect="always"
       xlink:href="#linearGradient4409"
       id="linearGradient4415"
       x1="25.985928"
       y1="24.919628"
       x2="15.889072"
       y2="11.669628"
       gradientUnits="userSpaceOnUse"
       gradientTransform="matrix(0.982012,0,0,1.013782,0.564953,-0.860489)" />
  </defs>
  <sodipodi:namedview
     id="base"
     pagecolor="#ffffff"
     bordercolor="#666666"
     borderopacity="0.22745098"
     inkscape:pageopacity="0.0"
     inkscape:pageshadow="2"
     inkscape:zoom="11.313708"
     inkscape:cx="45.797445"
     inkscape:cy="24.576484"
     inkscape:current-layer="layer1"
     showgrid="false"
     inkscape:grid-bbox="true"
     inkscape:document-units="px"
     stroke="#888a85"
     fill="#eeeeec"
     inkscape:window-width="1674"
     inkscape:window-height="968"
     inkscape:window-x="0"
     inkscape:window-y="27"
     inkscape:showpageshadow="false" />
  <metadata
     id="metadata1311">
    <rdf:RDF>
      <cc:Work
         rdf:about="">
        <dc:format>image/svg+xml</dc:format>
        <dc:type
           rdf:resource="http://purl.org/dc/dcmitype/StillImage" />
        <dc:title>Gnomebaker</dc:title>
        <dc:creator>
          <cc:Agent>
            <dc:title>Andreas Nilsson</dc:title>
          </cc:Agent>
        </dc:creator>
        <dc:description />
        <cc:license
           rdf:resource="http://creativecommons.org/licenses/GPL/2.0/" />
        <dc:source>http://www.gnome.org</dc:source>
        <dc:contributor>
          <cc:Agent>
            <dc:title>Jakub Steiner</dc:title>
          </cc:Agent>
        </dc:contributor>
        <dc:date>September 2006</dc:date>
      </cc:Work>
      <cc:License
         rdf:about="http://creativecommons.org/licenses/GPL/2.0/">
        <cc:permits
           rdf:resource="http://web.resource.org/cc/Reproduction" />
        <cc:permits
           rdf:resource="http://web.resource.org/cc/Distribution" />
        <cc:requires
           rdf:resource="http://web.resource.org/cc/Notice" />
        <cc:permits
           rdf:resource="http://web.resource.org/cc/DerivativeWorks" />
        <cc:requires
           rdf:resource="http://web.resource.org/cc/ShareAlike" />
        <cc:requires
           rdf:resource="http://web.resource.org/cc/SourceCode" />
      </cc:License>
    </rdf:RDF>
  </metadata>
  <g
     id="layer1"
     inkscape:label="Layer 1"
     inkscape:groupmode="layer">
    <path
       sodipodi:type="arc"
       style="opacity:0.55;color:#000000;fill:url(#radialGradient3507);fill-opacity:1;fill-rule:evenodd;stroke:none;stroke-width:2;stroke-linecap:butt;stroke-linejoin:miter;marker:none;marker-start:none;marker-mid:none;marker-end:none;stroke-miterlimit:4;stroke-dasharray:none;stroke-dashoffset:0;stroke-opacity:1;visibility:visible;display:inline;overflow:visible"
       id="path23417"
       sodipodi:cx="23.334524"
       sodipodi:cy="41.63604"
       sodipodi:rx="22.627417"
       sodipodi:ry="5.6568542"
       d="M 45.961941 41.63604 A 22.627417 5.6568542 0 1 1  0.70710754,41.63604 A 22.627417 5.6568542 0 1 1  45.961941 41.63604 z"
       inkscape:r_cx="true"
       inkscape:r_cy="true"
       transform="matrix(1,0,0,1.066291,0.91548,-4.218429)" />
    <path
       inkscape:r_cy="true"
       inkscape:r_cx="true"
       id="path3040"
       d="M 24.262486,2.8333435 C 12.714866,2.8333435 3.4291519,12.119058 3.4291519,23.666677 C 3.4291519,35.214297 12.714866,44.500012 24.262486,44.500012 C 35.810106,44.500012 45.095821,35.214297 45.095821,23.666677 C 45.095821,12.119058 35.810106,2.8333435 24.262486,2.8333435 L 24.262486,2.8333435 z M 24.262486,28.666678 C 21.524391,28.666678 19.262486,26.404773 19.262486,23.666677 C 19.262486,20.928582 21.524391,18.666677 24.262486,18.666677 C 27.000581,18.666677 29.262486,20.928582 29.262486,23.666677 C 29.262486,26.404773 27.000581,28.666678 24.262486,28.666678 z "
       style="fill:url(#linearGradient3526);fill-rule:nonzero;stroke:none;stroke-miterlimit:4" />
    <path
       inkscape:r_cy="true"
       inkscape:r_cx="true"
       id="path3049"
       d="M 23.964578,2.4999988 C 12.582083,2.4999988 3.4291514,11.859999 3.4291514,23.499999 C 3.4291514,35.14 12.582083,44.500001 23.964578,44.500001 C 35.347072,44.500001 44.500006,35.14 44.500006,23.499999 C 44.500006,11.859999 35.347072,2.4999988 23.964578,2.4999988 L 23.964578,2.4999988 z M 23.964578,28.54 C 21.265637,28.54 19.036075,26.26 19.036075,23.499999 C 19.036075,20.74 21.265637,18.459999 23.964578,18.459999 C 26.66352,18.459999 28.89308,20.74 28.89308,23.499999 C 28.89308,26.26 26.66352,28.54 23.964578,28.54 z "
       style="fill:url(#linearGradient3523);fill-rule:nonzero;stroke:gray;stroke-width:0.99999982;stroke-miterlimit:4;stroke-opacity:1" />
    <path
       style="fill:url(#linearGradient4415);fill-opacity:1;fill-rule:nonzero;stroke:none;stroke-miterlimit:4;stroke-opacity:1"
       d="M 23.063381,3.0043894 C 12.495269,3.4158944 4.1109275,12.34878 4.1109275,23.363609 C 4.1109275,28.357 5.8266241,32.895588 8.6938142,36.427697 L 19.61119,26.887706 C 18.902825,26.032742 18.580829,24.816378 18.580829,23.617055 C 18.580829,20.179937 20.843669,17.972948 24.04806,17.972948 C 25.505292,17.972948 26.965703,18.655656 27.83712,19.743314 L 39,10.330046 C 35.390937,5.844916 29.922009,3.0043894 23.802556,3.0043894 C 23.546486,3.0043894 23.317016,2.9945132 23.063381,3.0043894 z "
       id="path3531"
       sodipodi:nodetypes="csccssccsc" />
    <path
       inkscape:r_cy="true"
       inkscape:r_cx="true"
       id="path3051"
       d="M 24.262486,13.562512 C 18.6199,13.562512 14.15832,18.155315 14.15832,23.666677 C 14.15832,29.309265 18.751124,33.770843 24.262486,33.770843 C 29.905072,33.770843 34.366652,29.178041 34.366652,23.666677 C 34.366652,18.024091 29.773848,13.562512 24.262486,13.562512 L 24.262486,13.562512 z M 24.262486,29.178041 C 21.244359,29.178041 18.751124,26.684806 18.751124,23.666677 C 18.751124,20.64855 21.244359,18.155315 24.262486,18.155315 C 27.280613,18.155315 29.773848,20.64855 29.773848,23.666677 C 29.773848,26.684806 27.280613,29.178041 24.262486,29.178041 z "
       style="opacity:0.51098902;fill:#eeeeec;fill-rule:nonzero;stroke:none;stroke-miterlimit:4" />
    <path
       inkscape:r_cy="true"
       inkscape:r_cx="true"
       style="opacity:0.54644811;fill:none;fill-rule:nonzero;stroke:url(#linearGradient3519);stroke-width:1.00000024;stroke-miterlimit:4;stroke-opacity:1"
       d="M 23.982439,3.4999986 C 13.16412,3.4999986 4.4648548,12.406328 4.4648548,23.482144 C 4.4648548,34.557962 13.16412,43.464289 23.982439,43.464289 C 34.800756,43.464289 43.500022,34.557962 43.500022,23.482144 C 43.500022,12.406328 34.800756,3.4999986 23.982439,3.4999986 L 23.982439,3.4999986 z "
       id="path5264"
       sodipodi:nodetypes="cccccc" />
    <path
       inkscape:r_cy="true"
       inkscape:r_cx="true"
       sodipodi:type="arc"
       style="opacity:0.67213111;color:black;fill:none;fill-opacity:0.31638417;fill-rule:nonzero;stroke:url(#linearGradient3515);stroke-width:0.94041795;stroke-linecap:butt;stroke-linejoin:miter;marker:none;marker-start:none;marker-mid:none;marker-end:none;stroke-miterlimit:4;stroke-dashoffset:0;stroke-opacity:1;visibility:visible;display:inline;overflow:visible"
       id="path6026"
       sodipodi:cx="24.306795"
       sodipodi:cy="24.930641"
       sodipodi:rx="6.0987959"
       sodipodi:ry="6.0987959"
       d="M 30.405591 24.930641 A 6.0987959 6.0987959 0 1 1  18.207999,24.930641 A 6.0987959 6.0987959 0 1 1  30.405591 24.930641 z"
       transform="matrix(0.989495,0,0,0.989495,0.448547,-1.168738)" />
    <path
       style="opacity:0.35326089;fill:#ff0a0a;fill-opacity:1;fill-rule:evenodd;stroke:none;stroke-width:1px;stroke-linecap:butt;stroke-linejoin:miter;stroke-opacity:1"
       d="M 3,24 L 13.96875,24 C 13.96875,18.386099 18.426183,13.517165 24.0625,13.517165 L 24.0625,2.0625016 C 13.29204,2.0420077 3.0050433,11.144991 3,24 z "
       id="path4247"
       sodipodi:nodetypes="ccccc" />
    <path
       style="opacity:0.35326089;fill:#6bd408;fill-opacity:1;fill-rule:evenodd;stroke:none;stroke-width:1px;stroke-linecap:butt;stroke-linejoin:miter;stroke-opacity:1"
       d="M 45,24 L 34.391228,24 C 34.391228,18.064407 30.114786,13.37762 24,13.37762 L 24,2.0000347 C 34.7385,1.9794824 44.994972,11.108387 45,24 z "
       id="path5137"
       sodipodi:nodetypes="ccccc" />
    <path
       style="opacity:0.35326089;fill:#dbb300;fill-opacity:1;fill-rule:evenodd;stroke:none;stroke-width:1px;stroke-linecap:butt;stroke-linejoin:miter;stroke-opacity:1"
       d="M 3,24 L 13.90625,24 C 13.90625,29.623452 18.566559,33.90625 24.0625,33.90625 L 24.0625,44.9375 C 13.29204,44.95706 3.005043,36.269027 3,24 z "
       id="path5139"
       sodipodi:nodetypes="ccccc" />
    <path
       style="opacity:0.35326089;fill:#2a62b4;fill-opacity:1;fill-rule:evenodd;stroke:none;stroke-width:1px;stroke-linecap:butt;stroke-linejoin:miter;stroke-opacity:1"
       d="M 45,24 L 34.391228,24 C 34.391228,29.586942 29.420315,33.795795 24,33.795795 L 24,44.999967 C 34.7385,45.019585 44.994972,36.305631 45,24 z "
       id="path5141"
       sodipodi:nodetypes="ccccc" />
  </g>
</svg>
