<?xml version="1.0" encoding="UTF-8" standalone="no"?>
<!-- Created with Inkscape (http://www.inkscape.org/) -->
<svg
   xmlns:dc="http://purl.org/dc/elements/1.1/"
   xmlns:cc="http://web.resource.org/cc/"
   xmlns:rdf="http://www.w3.org/1999/02/22-rdf-syntax-ns#"
   xmlns:svg="http://www.w3.org/2000/svg"
   xmlns="http://www.w3.org/2000/svg"
   xmlns:xlink="http://www.w3.org/1999/xlink"
   xmlns:sodipodi="http://sodipodi.sourceforge.net/DTD/sodipodi-0.dtd"
   xmlns:inkscape="http://www.inkscape.org/namespaces/inkscape"
   id="svg1976"
   sodipodi:version="0.32"
   inkscape:version="0.43+devel"
   width="48"
   height="48"
   version="1.0"
   sodipodi:docbase="/home/andreas/projekt/tango/jokosher"
   sodipodi:docname="jokosher.svg"
   inkscape:export-filename="/home/tigert/svn/jokosher/trunk/jokosher.png"
   inkscape:export-xdpi="90"
   inkscape:export-ydpi="90">
  <metadata
     id="metadata1981">
    <rdf:RDF>
      <cc:Work
         rdf:about="">
        <dc:format>image/svg+xml</dc:format>
        <dc:type
           rdf:resource="http://purl.org/dc/dcmitype/StillImage" />
        <cc:license
           rdf:resource="http://creativecommons.org/licenses/by-sa/2.0/" />
        <dc:title>Jokosher Icon</dc:title>
        <dc:creator>
          <cc:Agent>
            <dc:title>Tuomas Kuosmanen</dc:title>
          </cc:Agent>
        </dc:creator>
        <dc:date>June 29, 2006</dc:date>
        <dc:source>http://www.jokosher.org</dc:source>
        <dc:subject>
          <rdf:Bag>
            <rdf:li>jokosher</rdf:li>
          </rdf:Bag>
        </dc:subject>
        <dc:description>Jokosher application icon</dc:description>
        <dc:contributor>
          <cc:Agent>
            <dc:title>Jono Bacon</dc:title>
          </cc:Agent>
        </dc:contributor>
      </cc:Work>
      <cc:License
         rdf:about="http://creativecommons.org/licenses/by-sa/2.0/">
        <cc:permits
           rdf:resource="http://web.resource.org/cc/Reproduction" />
        <cc:permits
           rdf:resource="http://web.resource.org/cc/Distribution" />
        <cc:requires
           rdf:resource="http://web.resource.org/cc/Notice" />
        <cc:requires
           rdf:resource="http://web.resource.org/cc/Attribution" />
        <cc:permits
           rdf:resource="http://web.resource.org/cc/DerivativeWorks" />
        <cc:requires
           rdf:resource="http://web.resource.org/cc/ShareAlike" />
      </cc:License>
    </rdf:RDF>
  </metadata>
  <defs
     id="defs1979">
    <linearGradient
       inkscape:collect="always"
       id="linearGradient4722">
      <stop
         style="stop-color:#ce5c00"
         offset="0"
         id="stop4724" />
      <stop
         style="stop-color:#f57900"
         offset="1"
         id="stop4726" />
    </linearGradient>
    <linearGradient
       inkscape:collect="always"
       id="linearGradient4634">
      <stop
         style="stop-color:white;stop-opacity:1;"
         offset="0"
         id="stop4636" />
      <stop
         style="stop-color:#ffffff;stop-opacity:0"
         offset="1"
         id="stop4638" />
    </linearGradient>
    <linearGradient
       inkscape:collect="always"
       id="linearGradient4618">
      <stop
         style="stop-color:#fcaf3e"
         offset="0"
         id="stop4620" />
      <stop
         style="stop-color:#f57900"
         offset="1"
         id="stop4622" />
    </linearGradient>
    <linearGradient
       inkscape:collect="always"
       id="linearGradient5283">
      <stop
         style="stop-color:black;stop-opacity:1;"
         offset="0"
         id="stop5285" />
      <stop
         style="stop-color:black;stop-opacity:0;"
         offset="1"
         id="stop5287" />
    </linearGradient>
    <linearGradient
       id="linearGradient5187">
      <stop
         style="stop-color:white;stop-opacity:1;"
         offset="0"
         id="stop5189" />
      <stop
         style="stop-color:white;stop-opacity:0;"
         offset="1"
         id="stop5191" />
    </linearGradient>
    <radialGradient
       inkscape:collect="always"
       xlink:href="#linearGradient5283"
       id="radialGradient5289"
       cx="-33.3125"
       cy="7.875"
       fx="-33.3125"
       fy="7.875"
       r="21.0625"
       gradientTransform="matrix(1,0,0,0.195846,-9.24824e-16,6.332715)"
       gradientUnits="userSpaceOnUse" />
    <radialGradient
       inkscape:collect="always"
       xlink:href="#linearGradient4618"
       id="radialGradient4624"
       cx="-33.659405"
       cy="24.68786"
       fx="-33.659405"
       fy="24.68786"
       r="16.499999"
       gradientTransform="matrix(1.031962,-3.295622e-2,3.183737e-2,0.996928,56.47697,-5.771993)"
       gradientUnits="userSpaceOnUse" />
    <linearGradient
       inkscape:collect="always"
       xlink:href="#linearGradient4634"
       id="linearGradient4632"
       x1="-31.498053"
       y1="20.319887"
       x2="-21.652958"
       y2="51.949764"
       gradientUnits="userSpaceOnUse"
       gradientTransform="translate(55,-4)" />
    <radialGradient
       inkscape:collect="always"
       xlink:href="#linearGradient4722"
       id="radialGradient4728"
       cx="21.561487"
       cy="27.062336"
       fx="21.561487"
       fy="27.062336"
       r="13.4375"
       gradientTransform="matrix(1.082854,0,0,1.337337,-3.029922,-8.053339)"
       gradientUnits="userSpaceOnUse" />
    <radialGradient
       inkscape:collect="always"
       xlink:href="#linearGradient5187"
       id="radialGradient4730"
       cx="24.47097"
       cy="23.209499"
       fx="24.47097"
       fy="23.209499"
       r="14.529029"
       gradientTransform="matrix(1.755038,-4.819274e-7,4.958731e-7,1.744065,-19.47651,-17.10629)"
       gradientUnits="userSpaceOnUse" />
  </defs>
  <sodipodi:namedview
     inkscape:window-height="945"
     inkscape:window-width="1270"
     inkscape:pageshadow="2"
     inkscape:pageopacity="0.0"
     guidetolerance="10.0"
     gridtolerance="10.0"
     objecttolerance="10.0"
     borderopacity="1.0"
     bordercolor="#666666"
     pagecolor="#ffffff"
     id="base"
     showgrid="false"
     gridcolor="black"
     gridopacity="0.05098039"
     gridempcolor="black"
     gridempopacity="0.08235294"
     inkscape:zoom="1"
     inkscape:cx="16.895642"
     inkscape:cy="24.747058"
     inkscape:window-x="0"
     inkscape:window-y="25"
     inkscape:current-layer="svg1976"
     fill="#f57900"
     showguides="true"
     inkscape:guide-bbox="true" />
  <path
     sodipodi:type="arc"
     style="opacity:0.70481926;fill:url(#radialGradient5289);fill-opacity:1;stroke:none;stroke-opacity:1"
     id="path5271"
     sodipodi:cx="-33.3125"
     sodipodi:cy="7.875"
     sodipodi:rx="21.0625"
     sodipodi:ry="4.125"
     d="M -12.25 7.875 A 21.0625 4.125 0 1 1  -54.375,7.875 A 21.0625 4.125 0 1 1  -12.25 7.875 z"
     transform="matrix(0.869437,0,0,1,52.27562,33.375)" />
  <path
     style="fill:url(#radialGradient4624);fill-opacity:1;stroke:#ce5c00;stroke-width:1;stroke-miterlimit:4;stroke-dasharray:none"
     d="M 9.468751,4.4419417 C 8.372786,4.4419417 7.500001,4.8832522 7.500001,5.975 L 7.500001,27.7 C 7.500001,36.4216 14.668001,43.499999 23.500001,43.5 C 32.332001,43.5 39.5,36.4216 39.5,27.7 L 39.5,5.975 C 39.5,4.8832519 38.627216,4.3535534 37.531251,4.3535534 C 37.531251,4.3535534 30.455572,6.523643 23.439947,6.523643 C 16.424322,6.523643 9.468751,4.4419417 9.468751,4.4419417 z "
     id="path1985"
     sodipodi:nodetypes="ccssscczc" />
  <path
     style="opacity:0.71098268;fill:url(#radialGradient4728);fill-opacity:1;fill-rule:evenodd;stroke:none;stroke-width:1px;stroke-linecap:butt;stroke-linejoin:miter;stroke-opacity:1"
     d="M 9.0935228,5.8070971 L 8.9491498,8.6813473 C 12.212036,14.038648 16.386964,20.931066 20.792865,28.274236 L 13.957349,6.9555488 C 12.471905,6.6511908 10.551497,6.1715905 9.0935228,5.8070971 z M 20.792865,28.274236 L 29.692571,7.5308149 C 28.027959,7.7688815 26.184981,7.9938899 24.31214,8.0384027 C 23.318049,13.835343 22.112032,20.858351 20.792865,28.274236 z M 20.792865,28.274236 L 38.05085,22.72461 L 38.05085,17.817928 C 33.085677,20.837141 27.118519,24.478844 20.792865,28.274236 z M 20.792865,28.274236 L 36.054338,34.805199 C 36.714447,33.690463 37.23971,32.497882 37.577102,31.218245 C 32.532777,30.348217 26.783559,29.339886 20.792865,28.274236 z M 20.792865,28.274236 L 25.15812,41.84375 C 26.314263,41.713212 27.450552,41.447781 28.5082,41.065449 C 26.127594,37.138107 23.504371,32.793412 20.792865,28.274236 z M 20.792865,28.274236 L 15.852344,39.77956 C 16.7038,40.301351 17.602907,40.758107 18.559479,41.099288 C 19.256212,37.086682 19.996754,32.749684 20.792865,28.274236 z M 20.792865,28.274236 L 9.625934,31.86119 C 9.901966,32.736223 10.24259,33.570852 10.674948,34.36529 C 13.86642,32.434512 17.277831,30.383257 20.792865,28.274236 z M 20.792865,28.274236 L 8.9491498,23.198358 L 8.9491498,26.176207 C 12.68816,26.826523 16.675094,27.541751 20.792865,28.274236 z "
     id="path4642"
     sodipodi:nodetypes="ccccccccccccccccccccccccccccccccc" />
  <path
     style="opacity:0.41618497;fill:url(#radialGradient4730);fill-opacity:1;fill-rule:evenodd;stroke:none;stroke-width:1px;stroke-linecap:butt;stroke-linejoin:miter;stroke-opacity:1"
     d="M 38,13.9375 C 35.64228,19.930137 30.850174,22.871439 24.863336,22.288704 C 18.361688,21.333477 13.211262,22.927184 8.941942,27.4468 C 8.941942,35.473392 15.450947,41.999999 23.470971,42 C 31.490995,42 38,35.473391 38,27.4468 L 38,13.9375 z "
     id="path5258"
     sodipodi:nodetypes="cssssc" />
  <path
     style="opacity:0.79190758;fill:none;stroke:url(#linearGradient4632);stroke-width:1.00000012;stroke-opacity:1"
     d="M 10.3457,5.6640886 C 8.51301,4.9535965 8.5,5.3800271 8.5,7.350001 L 8.5,27.700011 C 8.5,35.869615 15.22,42.500018 23.5,42.500019 C 31.78,42.500019 38.5,35.869615 38.5,27.700011 L 38.5,7.350001 C 38.5,5.9295213 38.67645,4.7554449 36.6543,5.6640886 C 36.6543,5.6640886 30.05341,7.529359 23.47626,7.529359 C 16.89911,7.529359 10.3457,5.6640886 10.3457,5.6640886 z "
     id="path5240"
     sodipodi:nodetypes="ccssscczc" />
  <path
     sodipodi:nodetypes="cccsccccscc"
     id="path4640"
     d="M 28.203342,11.13582 L 33.894862,9.937177 L 33.894862,28.746951 C 33.894853,31.176973 33.145841,32.992955 31.64782,34.194904 C 30.159643,35.396846 27.902747,35.997819 24.877128,35.997824 L 23.72404,35.997824 L 23.72404,32.196015 L 24.61103,32.196015 C 25.793684,32.196013 26.685601,31.904236 27.286785,31.320684 C 27.89782,30.73713 28.203338,29.87922 28.203342,28.746951 L 28.203342,11.13582"
     style="font-size:25.18540382px;font-style:normal;font-variant:normal;font-weight:bold;font-stretch:normal;text-align:start;line-height:125%;writing-mode:lr-tb;text-anchor:start;fill:#ffffff;fill-opacity:1;stroke:none;stroke-width:1px;stroke-linecap:butt;stroke-linejoin:miter;stroke-opacity:1;font-family:Bitstream Vera Sans" />
</svg>
