<?xml version="1.0" encoding="UTF-8" standalone="no"?>
<!-- Created with Inkscape (http://www.inkscape.org/) -->
<svg xmlns:dc="http://purl.org/dc/elements/1.1/" xmlns:cc="http://web.resource.org/cc/" xmlns:rdf="http://www.w3.org/1999/02/22-rdf-syntax-ns#" xmlns:svg="http://www.w3.org/2000/svg" xmlns="http://www.w3.org/2000/svg" xmlns:xlink="http://www.w3.org/1999/xlink" xmlns:sodipodi="http://inkscape.sourceforge.net/DTD/sodipodi-0.dtd" xmlns:inkscape="http://www.inkscape.org/namespaces/inkscape" width="38.400000pt" height="38.400000pt" id="svg1365" sodipodi:version="0.32" inkscape:version="0.42.2" sodipodi:docbase="/home/aaron/Desktop" sodipodi:docname="music-player-banshee.svg">
  <defs id="defs1367">
    <linearGradient inkscape:collect="always" id="linearGradient2811">
      <stop style="stop-color: rgb(255, 255, 255); stop-opacity: 1;" offset="0" id="stop2813"/>
      <stop style="stop-color: rgb(255, 255, 255); stop-opacity: 0;" offset="1" id="stop2815"/>
    </linearGradient>
    <linearGradient inkscape:collect="always" xlink:href="#linearGradient2811" id="linearGradient2817" x1="28.675304" y1="32.720608" x2="22.66423" y2="12.158106" gradientUnits="userSpaceOnUse" gradientTransform="matrix(0.885258, 0, 0, 0.885258, 0.0200517, -0.543919)"/>
    <linearGradient id="linearGradient2252">
      <stop style="stop-color: rgb(255, 255, 255); stop-opacity: 1;" offset="0" id="stop2254"/>
      <stop style="stop-color: rgb(208, 208, 208); stop-opacity: 1;" offset="1" id="stop2256"/>
    </linearGradient>
    <radialGradient inkscape:collect="always" xlink:href="#linearGradient2252" id="radialGradient2888" gradientUnits="userSpaceOnUse" gradientTransform="matrix(1.3787, 5.70344e-25, -5.08557e-25, 0.811718, -47.1293, 130.41)" cx="124.4508" cy="398.832" fx="124.4508" fy="398.832" r="478.00418"/>
    <linearGradient inkscape:collect="always" id="linearGradient2238">
      <stop style="stop-color: rgb(0, 0, 0); stop-opacity: 1;" offset="0" id="stop2240"/>
      <stop style="stop-color: rgb(0, 0, 0); stop-opacity: 0;" offset="1" id="stop2242"/>
    </linearGradient>
    <radialGradient inkscape:collect="always" xlink:href="#linearGradient2238" id="radialGradient2262" gradientUnits="userSpaceOnUse" gradientTransform="matrix(1, 0, 0, 0.379032, -2.74293e-14, 419.689)" cx="401" cy="675.86218" fx="401" fy="675.86218" r="186"/>
  </defs>
  <sodipodi:namedview inkscape:document-units="mm" pagecolor="#ffffff" bordercolor="#666666" borderopacity="1.0" inkscape:pageopacity="0.0" inkscape:pageshadow="2" inkscape:zoom="2.5000000" inkscape:cx="53.476490" inkscape:cy="76.000000" inkscape:current-layer="layer1" id="namedview1369" inkscape:window-width="746" inkscape:window-height="546" inkscape:window-x="0" inkscape:window-y="25"/>
  <metadata id="metadata1371">
    <rdf:RDF>
      <cc:Work rdf:about="">
        <dc:format>image/svg+xml</dc:format>
        <dc:type rdf:resource="http://purl.org/dc/dcmitype/StillImage"/>
      </cc:Work>
    </rdf:RDF>
  </metadata>
  <g inkscape:label="Layer 1" inkscape:groupmode="layer" id="layer1">
    <g id="g1357" transform="translate(0.101542, 0.208375)">
      <path sodipodi:type="arc" style="overflow: visible; marker: none; opacity: 0.238636; color: rgb(0, 0, 0); fill: url(#radialGradient2262) rgb(0, 0, 0); fill-opacity: 1; fill-rule: nonzero; stroke: none; stroke-width: 1; stroke-linecap: round; stroke-linejoin: round; stroke-miterlimit: 4; stroke-dasharray: none; stroke-dashoffset: 0pt; stroke-opacity: 1; visibility: visible; display: inline;" id="path2260" sodipodi:cx="401.00000" sodipodi:cy="675.86218" sodipodi:rx="186.00000" sodipodi:ry="70.500000" d="M 587.00000 675.86218 A 186.00000 70.500000 0 1 1  215.00000,675.86218 A 186.00000 70.500000 0 1 1  587.00000 675.86218 z" transform="matrix(0.0939371, 0, 0, 0.103784, -12.6753, -32.3267)"/>
      <path transform="matrix(0.0305315, 0, 0, 0.0484497, 18.502, 2.19102)" d="M 681.65094 533.34583 A 478.00418 281.42850 0 1 1  -274.35742,533.34583 A 478.00418 281.42850 0 1 1  681.65094 533.34583 z" sodipodi:ry="281.42850" sodipodi:rx="478.00418" sodipodi:cy="533.34583" sodipodi:cx="203.64676" id="path2250" style="overflow: visible; marker: none; opacity: 1; color: rgb(0, 0, 0); fill: url(#radialGradient2888) rgb(0, 0, 0); fill-opacity: 1; fill-rule: nonzero; stroke: rgb(158, 158, 158); stroke-width: 26.0004; stroke-linecap: round; stroke-linejoin: round; stroke-miterlimit: 4; stroke-dasharray: none; stroke-dashoffset: 0pt; stroke-opacity: 1; visibility: visible; display: inline;" sodipodi:type="arc"/>
      <path sodipodi:type="arc" style="overflow: visible; marker: none; opacity: 1; color: rgb(0, 0, 0); fill: none; fill-opacity: 1; fill-rule: nonzero; stroke: rgb(255, 255, 255); stroke-width: 28.0944; stroke-linecap: round; stroke-linejoin: round; stroke-miterlimit: 4; stroke-dasharray: none; stroke-dashoffset: 0pt; stroke-opacity: 1; visibility: visible; display: inline;" id="path2908" sodipodi:cx="203.64676" sodipodi:cy="533.34583" sodipodi:rx="478.00418" sodipodi:ry="281.42850" d="M 681.65094 533.34583 A 478.00418 281.42850 0 1 1  -274.35742,533.34583 A 478.00418 281.42850 0 1 1  681.65094 533.34583 z" transform="matrix(0.0282559, 0, 0, 0.0448386, 18.9654, 4.11696)"/>
      <path sodipodi:nodetypes="cccsccccsccc" id="path2892" d="M 21.574143,15.989276 C 20.106883,16.315012 18.707843,16.877914 17.449143,17.583026 L 17.303616,35.072303 C 30.970346,36.548572 35.491116,31.667820 35.491116,28.072303 C 35.491116,24.549154 33.231116,20.705497 21.428616,24.447303 L 21.605393,15.989276 C 21.595603,15.991429 21.583923,15.987104 21.574143,15.989276 z M 26.522366,25.791053 C 28.669996,25.674903 30.647366,26.152728 30.647366,28.134803 C 30.647366,31.619147 23.732446,32.598100 21.428616,32.447303 L 21.428616,26.978553 C 22.187766,26.580973 24.440816,25.903629 26.522366,25.791053 z " style="overflow: visible; marker: none; opacity: 1; color: rgb(0, 0, 0); fill: rgb(255, 255, 255); fill-opacity: 1; fill-rule: nonzero; stroke: rgb(255, 255, 255); stroke-width: 1; stroke-linecap: butt; stroke-linejoin: miter; stroke-miterlimit: 4; stroke-dasharray: none; stroke-dashoffset: 0pt; stroke-opacity: 1; visibility: visible; display: inline;"/>
      <path sodipodi:nodetypes="czccccccccc" id="text1358" d="M 20.487389,23.613629 C 32.289880,19.871823 34.566852,23.717817 34.566852,27.240966 C 34.566852,30.836483 30.018879,35.711419 16.352146,34.235150 L 16.324543,7.6528194 C 11.943532,7.5421614 12.500561,10.766078 5.8311700,11.028392 C 11.116708,7.7937414 10.306822,3.1707816 20.482219,2.9494671 L 20.487389,23.613629 z M 20.487389,31.625344 C 22.791210,31.776141 29.694530,30.800877 29.694530,27.316533 C 29.694530,23.413370 22.029776,25.345752 20.487389,26.153534 L 20.487389,31.625344 z " style="font-size: 659.454px; font-style: normal; font-variant: normal; font-weight: normal; font-stretch: normal; text-align: start; line-height: 100%; text-anchor: start; fill: rgb(114, 159, 207); fill-opacity: 1; stroke: rgb(52, 101, 164); stroke-width: 1; stroke-linecap: butt; stroke-linejoin: miter; stroke-miterlimit: 10; stroke-dasharray: none; stroke-opacity: 1; font-family: Likhan;"/>
      <path style="font-size: 659.454px; font-style: normal; font-variant: normal; font-weight: normal; font-stretch: normal; text-align: start; line-height: 100%; text-anchor: start; opacity: 0.488636; fill: none; fill-opacity: 1; stroke: url(#linearGradient2817) rgb(0, 0, 0); stroke-width: 1; stroke-linecap: butt; stroke-linejoin: miter; stroke-miterlimit: 10; stroke-dasharray: none; stroke-opacity: 1; font-family: Likhan;" d="M 19.690359,24.779544 C 29.898723,21.543133 33.749324,23.043815 33.693996,27.197676 C 33.637199,31.461815 27.934460,34.247406 17.275552,33.413161 L 17.196349,6.6588794 C 11.199677,6.8248654 10.183141,8.2002314 8.9724935,8.9805408 C 10.003097,7.7768234 11.876170,3.9740113 19.630558,3.9186827 L 19.690359,24.779544 z M 19.690359,32.428413 C 21.683009,32.558842 30.586337,32.228400 30.531008,27.318364 C 30.475679,22.352998 21.079749,24.894499 19.745688,25.593175 L 19.690359,32.428413 z " id="path2809" sodipodi:nodetypes="czcccccczcc"/>
    </g>
  </g>
</svg>