<?xml version="1.0" encoding="UTF-8" standalone="no"?>
<!-- Created with Inkscape (http://www.inkscape.org/) -->
<svg
   xmlns:dc="http://purl.org/dc/elements/1.1/"
   xmlns:cc="http://web.resource.org/cc/"
   xmlns:rdf="http://www.w3.org/1999/02/22-rdf-syntax-ns#"
   xmlns:svg="http://www.w3.org/2000/svg"
   xmlns="http://www.w3.org/2000/svg"
   xmlns:xlink="http://www.w3.org/1999/xlink"
   xmlns:sodipodi="http://sodipodi.sourceforge.net/DTD/sodipodi-0.dtd"
   xmlns:inkscape="http://www.inkscape.org/namespaces/inkscape"
   width="48"
   height="48"
   id="svg3065"
   sodipodi:version="0.32"
   inkscape:version="0.43+0.44pre0"
   sodipodi:docbase="C:\Documents and Settings\vertigo\Desktop\tango_dev\icon_wip\hylke_tb"
   sodipodi:docname="thunderbird_tangomailimplant.svg"
   inkscape:export-filename="/home/hbons/Tango/thunderbird.png"
   inkscape:export-xdpi="90"
   inkscape:export-ydpi="90"
   version="1.0">
  <defs
     id="defs3067">
    <linearGradient
       inkscape:collect="always"
       id="linearGradient9147">
      <stop
         style="stop-color:#5682bd;stop-opacity:1;"
         offset="0"
         id="stop9149" />
      <stop
         style="stop-color:#5682bd;stop-opacity:0;"
         offset="1"
         id="stop9151" />
    </linearGradient>
    <linearGradient
       id="linearGradient8201">
      <stop
         style="stop-color:#729fcf;stop-opacity:1;"
         offset="0"
         id="stop8203" />
      <stop
         style="stop-color:#729fcf;stop-opacity:0;"
         offset="1"
         id="stop8205" />
    </linearGradient>
    <linearGradient
       id="linearGradient9749">
      <stop
         style="stop-color:#ffffff;stop-opacity:1;"
         offset="0"
         id="stop9751" />
      <stop
         style="stop-color:#ededed;stop-opacity:1.0000000;"
         offset="1.0000000"
         id="stop9753" />
    </linearGradient>
    <linearGradient
       inkscape:collect="always"
       id="linearGradient10691">
      <stop
         style="stop-color:#000000;stop-opacity:1;"
         offset="0"
         id="stop10693" />
      <stop
         style="stop-color:#000000;stop-opacity:0;"
         offset="1"
         id="stop10695" />
    </linearGradient>
    <radialGradient
       inkscape:collect="always"
       xlink:href="#linearGradient10691"
       id="radialGradient9404"
       gradientUnits="userSpaceOnUse"
       gradientTransform="scale(1.902215,0.525703)"
       cx="6.702713"
       cy="73.615715"
       fx="6.702713"
       fy="73.615715"
       r="7.228416" />
    <radialGradient
       inkscape:collect="always"
       xlink:href="#linearGradient8201"
       id="radialGradient9434"
       gradientUnits="userSpaceOnUse"
       gradientTransform="matrix(0.421316,-2.053463,1.608517,0.330025,-29.73412,95.81335)"
       cx="39.162022"
       cy="30.483536"
       fx="39.162022"
       fy="30.483536"
       r="2.7865245" />
    <radialGradient
       inkscape:collect="always"
       xlink:href="#linearGradient8201"
       id="radialGradient9437"
       gradientUnits="userSpaceOnUse"
       gradientTransform="matrix(0.421316,-2.053463,1.608517,0.330025,-24.73412,93.1595)"
       cx="39.162022"
       cy="30.483536"
       fx="39.162022"
       fy="30.483536"
       r="2.7865245" />
    <radialGradient
       inkscape:collect="always"
       xlink:href="#linearGradient8201"
       id="radialGradient9440"
       gradientUnits="userSpaceOnUse"
       gradientTransform="matrix(1.057903,-1.696075,1.14093,0.964961,-38.51671,72.33862)"
       cx="39.162022"
       cy="30.483536"
       fx="39.162022"
       fy="30.483536"
       r="2.7865245" />
    <radialGradient
       inkscape:collect="always"
       xlink:href="#linearGradient8201"
       id="radialGradient9443"
       gradientUnits="userSpaceOnUse"
       gradientTransform="matrix(0.421316,-2.053463,1.608517,0.330025,-26.73412,98.1595)"
       cx="39.162022"
       cy="30.483536"
       fx="39.162022"
       fy="30.483536"
       r="2.7865245" />
    <radialGradient
       inkscape:collect="always"
       xlink:href="#linearGradient8201"
       id="radialGradient9446"
       gradientUnits="userSpaceOnUse"
       gradientTransform="matrix(0.497465,-2.036356,1.595117,0.389674,-26.97125,98.02036)"
       cx="39.162022"
       cy="30.483536"
       fx="39.162022"
       fy="30.483536"
       r="2.7865245" />
    <radialGradient
       inkscape:collect="always"
       xlink:href="#linearGradient9147"
       id="radialGradient9474"
       gradientUnits="userSpaceOnUse"
       gradientTransform="matrix(-0.161403,-0.373248,0.69392,-0.300072,27.09062,46.81109)"
       cx="46.967968"
       cy="45.841309"
       fx="46.967968"
       fy="45.841309"
       r="16.320951" />
    <linearGradient
       id="linearGradient15107">
      <stop
         id="stop15109"
         offset="0.0000000"
         style="stop-color:#ffffff;stop-opacity:1.0000000;" />
      <stop
         id="stop15111"
         offset="1.0000000"
         style="stop-color:#e2e2e2;stop-opacity:1.0000000;" />
    </linearGradient>
    <linearGradient
       id="linearGradient2274">
      <stop
         id="stop2276"
         offset="0.0000000"
         style="stop-color:#000000;stop-opacity:0.12871288;" />
      <stop
         id="stop2278"
         offset="1.0000000"
         style="stop-color:#000000;stop-opacity:0.0000000;" />
    </linearGradient>
    <linearGradient
       id="linearGradient2573"
       inkscape:collect="always">
      <stop
         id="stop2575"
         offset="0"
         style="stop-color:#ffffff;stop-opacity:1;" />
      <stop
         id="stop2577"
         offset="1"
         style="stop-color:#ffffff;stop-opacity:0;" />
    </linearGradient>
    <linearGradient
       id="linearGradient2624">
      <stop
         style="stop-color:#dfe0df;stop-opacity:1;"
         offset="0"
         id="stop2626" />
      <stop
         id="stop2630"
         offset="0.23809524"
         style="stop-color:#a6b0a6;stop-opacity:1;" />
      <stop
         style="stop-color:#b5beb5;stop-opacity:1.0000000;"
         offset="1.0000000"
         id="stop2628" />
    </linearGradient>
    <linearGradient
       inkscape:collect="always"
       xlink:href="#linearGradient2573"
       id="linearGradient2589"
       gradientUnits="userSpaceOnUse"
       x1="17.397203"
       y1="33.357376"
       x2="22.17771"
       y2="31.026741"
       gradientTransform="matrix(0.885737,0.320729,-0.319732,0.882987,8.143864,-8.181082)" />
    <linearGradient
       inkscape:collect="always"
       xlink:href="#linearGradient9749"
       id="linearGradient2593"
       gradientUnits="userSpaceOnUse"
       gradientTransform="matrix(1.214282,0.439696,0.468267,-1.293187,-0.398625,22.39664)"
       x1="11.841544"
       y1="4.2507305"
       x2="40.024059"
       y2="7.4121075" />
    <linearGradient
       inkscape:collect="always"
       xlink:href="#linearGradient15107"
       id="linearGradient2597"
       gradientUnits="userSpaceOnUse"
       gradientTransform="matrix(1.391145,0.503739,0.393753,-1.087408,0.119328,22.20682)"
       x1="10.027"
       y1="20.219761"
       x2="17.178024"
       y2="-7.5274644" />
    <linearGradient
       inkscape:collect="always"
       xlink:href="#linearGradient15107"
       id="linearGradient2601"
       gradientUnits="userSpaceOnUse"
       gradientTransform="matrix(1.147928,0.41567,0.459429,-1.268782,0.845593,22.34028)"
       x1="11.74217"
       y1="11.48487"
       x2="13.846983"
       y2="11.981981" />
    <radialGradient
       inkscape:collect="always"
       xlink:href="#linearGradient2274"
       id="radialGradient2604"
       gradientUnits="userSpaceOnUse"
       gradientTransform="matrix(0.411075,0.607657,-0.210258,0.172069,19.87903,5.110808)"
       cx="27.741131"
       cy="38.711506"
       fx="27.741131"
       fy="38.711506"
       r="17.977943" />
    <linearGradient
       inkscape:collect="always"
       xlink:href="#linearGradient2624"
       id="linearGradient2608"
       gradientUnits="userSpaceOnUse"
       gradientTransform="matrix(2.17429,0.787319,-0.243637,0.67284,10.58846,-6.958914)"
       x1="9.1643066"
       y1="38.070892"
       x2="9.8855038"
       y2="52.090679" />
    <linearGradient
       inkscape:collect="always"
       xlink:href="#linearGradient15107"
       id="linearGradient2611"
       gradientUnits="userSpaceOnUse"
       gradientTransform="matrix(1.189966,0.430891,-0.481467,1.329642,11.41887,-9.258404)"
       x1="11.572842"
       y1="4.7461624"
       x2="18.475286"
       y2="26.022909" />
    <radialGradient
       inkscape:collect="always"
       xlink:href="#linearGradient10691"
       id="radialGradient2004"
       gradientUnits="userSpaceOnUse"
       gradientTransform="scale(1.902215,0.525703)"
       cx="6.702713"
       cy="73.615715"
       fx="6.702713"
       fy="73.615715"
       r="7.228416" />
  </defs>
  <sodipodi:namedview
     id="base"
     pagecolor="#ffffff"
     bordercolor="#666666"
     borderopacity="1.0"
     inkscape:pageopacity="0.0"
     inkscape:pageshadow="2"
     inkscape:zoom="13.041667"
     inkscape:cx="24"
     inkscape:cy="24"
     inkscape:current-layer="layer1"
     showgrid="true"
     inkscape:grid-bbox="true"
     inkscape:document-units="px"
     inkscape:window-width="1152"
     inkscape:window-height="817"
     inkscape:window-x="-4"
     inkscape:window-y="-4" />
  <metadata
     id="metadata3070">
    <rdf:RDF>
      <cc:Work
         rdf:about="">
        <dc:format>image/svg+xml</dc:format>
        <dc:type
           rdf:resource="http://purl.org/dc/dcmitype/StillImage" />
      </cc:Work>
    </rdf:RDF>
  </metadata>
  <g
     id="layer1"
     inkscape:label="Layer 1"
     inkscape:groupmode="layer"
     style="display:inline">
    <path
       inkscape:r_cy="true"
       inkscape:r_cx="true"
       transform="matrix(1.596973,0,0,1.526064,3.596973,-19.85772)"
       d="M 26.5 38.700001 A 13.75 3.8 0 1 1  -1,38.700001 A 13.75 3.8 0 1 1  26.5 38.700001 z"
       sodipodi:ry="3.8"
       sodipodi:rx="13.75"
       sodipodi:cy="38.700001"
       sodipodi:cx="12.75"
       id="path10699"
       style="opacity:0.3;color:black;fill:url(#radialGradient2004);fill-opacity:1;fill-rule:nonzero;stroke:none;stroke-width:0.80000001;stroke-linecap:butt;stroke-linejoin:miter;marker:none;marker-start:none;marker-mid:none;marker-end:none;stroke-miterlimit:4;stroke-dashoffset:0;stroke-opacity:1;visibility:visible;display:inline;overflow:visible"
       sodipodi:type="arc" />
    <g
       style="display:inline"
       id="g1948">
      <path
         id="path4206"
         d="M 10.048176,8.036741 L 7.9099967,10.016805 C 3.4783626,16.827562 1.3470479,22.564837 4.9665318,32.0593 L 33.256963,42.303381 L 41.478735,19.424822 C 41.480551,19.419771 41.487727,19.401022 41.489346,19.395516 C 41.490771,19.389558 41.498727,19.372616 41.499958,19.36621 C 41.500998,19.35936 41.482042,19.334173 41.482891,19.326882 L 10.048176,8.036741 z "
         style="fill:url(#linearGradient2611);fill-opacity:1;fill-rule:evenodd;stroke:#888a85;stroke-width:1;stroke-linecap:butt;stroke-linejoin:round;stroke-miterlimit:4;stroke-dasharray:none;stroke-opacity:1"
         inkscape:r_cx="true"
         inkscape:r_cy="true"
         sodipodi:nodetypes="cccccsscc" />
      <path
         sodipodi:nodetypes="ccccccc"
         id="path4208"
         d="M 17.002212,24.049336 L 3.4999357,28.952304 L 17.019195,25.421477 L 25.006912,28.313861 L 32.97516,40.669663 L 25.936338,27.28442 L 17.002212,24.049336 z "
         style="fill:url(#linearGradient2608);fill-opacity:1;fill-rule:evenodd;stroke:none;stroke-width:1;stroke-linecap:butt;stroke-linejoin:miter;stroke-miterlimit:4;stroke-opacity:1"
         inkscape:r_cx="true"
         inkscape:r_cy="true" />
      <path
         sodipodi:nodetypes="csssccccscc"
         id="path4210"
         d="M 9.3923589,8.97594 C 9.382179,8.9855833 9.3908372,8.9950217 9.3822508,9.0038548 C 9.37836,9.0080679 9.3480291,9.0177733 9.3445448,9.0217782 C 9.3414702,9.0255727 9.3370996,9.0461077 9.3344368,9.0496929 C 9.3321891,9.0530668 2.3357422,23.0425 2.3339129,23.04566 L 4.8441981,30.916108 L 32.695316,41.001112 L 40.110137,20.351578 C 40.110717,20.34808 40.119842,20.327598 40.120245,20.323663 C 40.122682,20.276494 40.125588,20.193513 40.10821,20.098276 L 9.3923589,8.97594 z "
         style="fill:none;fill-opacity:0.75;fill-rule:evenodd;stroke:white;stroke-width:0.99999976;stroke-linecap:butt;stroke-linejoin:miter;stroke-miterlimit:4;stroke-dasharray:none;stroke-opacity:1"
         inkscape:r_cx="true"
         inkscape:r_cy="true" />
      <path
         id="path4212"
         d="M 18.257379,28.436976 C 16.28131,27.27564 9.1397999,10.927461 8.7520626,8.3909234 C 8.7479512,8.360896 8.7427404,8.304237 8.7407444,8.2785371 L 39.310286,19.347893 C 38.26464,21.46897 27.368384,31.509015 25.491393,31.056442 C 25.484004,31.054234 25.472547,31.049618 25.465465,31.047054 L 18.361093,28.474532 C 18.33131,28.463747 18.290042,28.456172 18.257379,28.436976 z "
         style="fill:url(#radialGradient2604);fill-opacity:1;fill-rule:evenodd;stroke:none;stroke-width:0.85660434;stroke-linecap:butt;stroke-linejoin:round;stroke-miterlimit:4;stroke-opacity:1"
         inkscape:r_cx="true"
         inkscape:r_cy="true" />
      <path
         id="path4214"
         d="M 16.605834,25.929982 C 14.633962,24.825306 9.2280535,10.807915 9.1680154,8.6864292 C 9.1678218,8.6613511 9.1702112,8.6142187 9.1716916,8.5928679 L 40.652739,19.992284 C 39.22199,21.664712 26.02066,29.140125 24.055548,28.627554 C 24.047872,28.625183 24.03614,28.620526 24.028845,28.617885 L 16.712639,25.968656 C 16.681968,25.95755 16.638427,25.94824 16.605834,25.929982 z "
         style="fill:url(#linearGradient2601);fill-opacity:1;fill-rule:evenodd;stroke:#989898;stroke-width:0.85660404;stroke-linecap:butt;stroke-linejoin:round;stroke-miterlimit:4;stroke-opacity:1"
         inkscape:r_cx="true"
         inkscape:r_cy="true" />
      <path
         id="path4216"
         d="M 16.663562,25.356706 C 14.955077,24.248112 9.2327037,10.178656 9.107029,8.6136965 C 9.1067004,8.607587 9.1174912,8.5908299 9.1173608,8.5851637 C 9.1175702,8.569503 9.1083108,8.5296523 9.1103449,8.5180761 C 9.1114356,8.5151432 9.1193776,8.4920072 9.1206767,8.4895432 C 9.1223965,8.4880287 9.1464235,8.5006011 9.148356,8.499566 L 9.262389,8.4440367 L 40.678373,19.819893 C 40.66819,19.840502 40.636899,19.871666 40.619698,19.895468 C 40.605507,19.913905 40.579022,19.950885 40.561024,19.971043 C 39.046972,21.601039 25.966399,28.435693 24.247685,28.102948 C 24.233937,28.099612 24.204418,28.087281 24.192326,28.082903 L 16.774279,25.396797 C 16.747986,25.38561 16.692156,25.37526 16.663562,25.356706 z "
         style="fill:url(#linearGradient2597);fill-opacity:1;fill-rule:evenodd;stroke:none;stroke-width:0.25pt;stroke-linecap:butt;stroke-linejoin:miter;stroke-opacity:1"
         inkscape:r_cx="true"
         inkscape:r_cy="true" />
      <path
         id="path4218"
         d="M 17.025467,25.048959 C 15.032902,23.778652 9.959412,10.887436 9.5545822,8.7611235 L 40.195546,19.856342 C 38.129642,21.438555 26.122921,28.155791 24.1944,27.644859 C 24.186528,27.64241 24.174222,27.637552 24.166721,27.634836 L 17.163863,25.099072 C 17.140485,25.090607 17.105259,25.081398 17.080825,25.069004 C 17.064306,25.05988 17.042439,25.059778 17.025467,25.048959 z "
         style="fill:none;fill-opacity:0.75;fill-rule:evenodd;stroke:url(#linearGradient2593);stroke-width:0.85660386;stroke-linecap:butt;stroke-linejoin:miter;stroke-miterlimit:4;stroke-opacity:1"
         inkscape:r_cx="true"
         inkscape:r_cy="true" />
      <path
         sodipodi:nodetypes="cccccc"
         id="path4220"
         d="M 16.973562,25.425646 L 3.7520772,28.898719 L 5.7159586,29.615948 L 16.767888,26.757452 L 25.036705,28.330546 L 16.973562,25.425646 z "
         style="fill:url(#linearGradient2589);fill-opacity:1;fill-rule:evenodd;stroke:none;stroke-width:1;stroke-linecap:butt;stroke-linejoin:miter;stroke-miterlimit:4;stroke-opacity:1"
         inkscape:r_cx="true"
         inkscape:r_cy="true" />
    </g>
    <g
       id="g1967">
      <path
         sodipodi:nodetypes="cssssccccccccccsssscccsssscc"
         id="path4062"
         d="M 17.723978,1.9460798 C 16.112976,2.6954793 15.728447,4.0293403 14.771506,5.171824 C 14.768581,5.1731021 14.740771,5.1708414 14.737632,5.171824 C 14.731213,5.173593 14.709584,5.2031368 14.703756,5.2056994 C 6.926936,8.6225798 1.2975525,16.364179 2.7796026,25.361583 C 4.7057761,37.055222 10.122701,38.418266 13.581209,40.261955 C 11.743104,37.519138 12.16862,37.312365 14.626467,36.588346 C 11.319726,35.157738 11.153106,35.212129 5.6418346,33.017593 C 4.7401451,30.633357 2.0687881,23.893904 3.4803298,21.619324 C 4.5993491,22.953909 5.5955531,24.221987 6.3000762,24.490126 C 5.5042572,21.626606 4.8506616,19.633366 5.5297736,16.834601 C 6.1150821,15.297817 7.1978849,12.149216 11.244809,11.143814 C 10.370738,12.651459 11.849884,15.502399 11.648868,16.86608 C 10.95613,18.236286 11.210832,18.876191 12.053045,19.651264 C 13.617701,17.629454 14.174145,18.325889 15.959625,17.370477 C 19.778486,14.624892 21.508129,14.998613 26.119777,16.316842 C 27.501387,16.711773 28.667694,16.990085 29.642823,17.163728 C 29.645669,17.16367 29.673793,17.163964 29.676698,17.163728 C 30.97031,19.209768 31.7431,21.526075 31.7431,23.904939 C 31.743101,26.697806 31.376949,28.00597 29.846076,30.104144 C 31.273485,30.303877 34.199474,28.935201 35.435522,27.83449 C 35.693886,29.685492 34.179217,41.162375 26.27813,45.351535 C 34.889246,46.602186 44.95452,36.657173 44.95452,24.819577 C 44.954521,12.981978 35.348966,3.3764261 23.511369,3.376426 C 23.326407,3.3764259 22.697953,3.370467 22.562856,3.376426 C 22.473849,3.3803521 22.380578,3.371414 22.291854,3.376426 C 20.629587,3.470323 18.993825,3.761275 17.413791,4.2233118 C 17.434915,3.4436396 17.208903,2.6236896 17.723978,1.9460798 z "
         style="fill:#3465a4;fill-opacity:1;fill-rule:evenodd;stroke:#204a87;stroke-width:1;stroke-linecap:round;stroke-linejoin:miter;stroke-miterlimit:4;stroke-dasharray:none;stroke-dashoffset:0;stroke-opacity:1" />
      <path
         id="path7622"
         d="M 31.06559,5.7477064 C 25.946805,6.0904585 23.671871,8.1571692 21.072338,11.404904 C 24.847096,10.865654 27.133748,12.754199 28.491058,14.013313 C 29.865051,15.287903 29.7474,15.818766 30.896214,17.73961 C 31.711314,20.112618 32.116591,20.236914 32.285106,22.245043 C 32.285107,25.03791 32.597842,26.248754 31.336594,29.189508 C 33.168442,28.512957 34.000528,28.085043 36.079155,26.343971 C 36.20271,29.307177 35.719459,38.559997 28.762062,44.60283 C 32.890654,44.640169 41.780909,39.607263 43.870506,28.342621 C 45.867299,20.075062 40.430392,8.8861589 31.539847,5.7477064 C 31.454315,5.7514623 31.386733,5.7430564 31.302719,5.7477064 C 31.220018,5.7522838 31.146841,5.7422658 31.06559,5.7477064 z "
         style="opacity:0.32768363;fill:white;fill-opacity:0.20994478;fill-rule:evenodd;stroke:none;stroke-width:1.25;stroke-linecap:round;stroke-linejoin:miter;stroke-miterlimit:4;stroke-dashoffset:0;stroke-opacity:1" />
      <path
         sodipodi:nodetypes="cccc"
         id="rect4650"
         d="M 44.239059,27.943086 C 44.239059,30.433192 39.59079,43.979473 28.255622,44.908003 C 35.780072,38.682738 36.035326,28.755517 36.089459,26.698473 C 36.47301,38.611327 43.421712,34.182686 44.239059,27.943086 z "
         style="fill:#2e3436;fill-opacity:0.55248617;fill-rule:evenodd;stroke:none;stroke-width:1;stroke-linecap:round;stroke-linejoin:miter;stroke-miterlimit:4;stroke-dashoffset:0;stroke-opacity:1" />
      <path
         sodipodi:nodetypes="ccscsssssscccssssccccsscccscsssccccccccccccssscccssssccccssssscssccc"
         id="path5041"
         d="M 23.6875,4 C 23.314343,4.008657 20.898442,4.0781724 20.03125,4.25 C 18.505529,4.5351137 16.736018,5.1000881 16.747643,4.7762313 L 16.793644,3.4946764 C 16.329724,4.0712985 14.436412,6.8891615 13.78125,8 C 13.141121,9.0853492 12.545833,10.127276 12.28125,10.5625 C 12.274869,10.571052 12.287518,10.585167 12.28125,10.59375 C 12.277534,10.599845 12.253568,10.619178 12.25,10.625 C 11.429595,11.78156 11.595201,13.211348 11.84375,14.40625 C 11.970197,15.014144 12.099087,15.596738 12.1875,16.0625 C 12.275913,16.528262 12.287528,16.886446 12.25,17 L 11.78125,18.40625 L 13.125,17.75 C 13.398522,17.614005 13.835981,17.48539 14.28125,17.34375 C 14.726519,17.20211 15.16153,17.057923 15.5625,16.8125 C 15.895882,16.608446 16.623531,16.119053 17.5,15.65625 C 18.376469,15.193447 19.395536,14.777513 20.1875,14.6875 C 21.758039,14.508996 25.130427,15.199374 26.84375,15.9375 L 26.90625,15.96875 L 26.96875,15.96875 C 28.251888,16.2319 29.16724,16.383785 30.0625,16.5625 C 31.394038,18.52804 32.088286,20.955866 32.3125,23.09375 C 32.42791,24.194193 32.415188,25.217515 32.34375,26.03125 C 32.272312,26.844985 32.109528,27.477617 32,27.6875 L 31.1875,29.28125 L 32.8125,28.53125 C 33.300134,28.313264 33.588673,28.257972 34.125,27.9375 C 34.476932,27.72721 35.30527,27.094963 36.03125,26.5625 C 36.037979,27.126662 36.065525,27.559907 36.03125,28.3125 C 35.974941,29.548903 35.861511,30.846127 35.75,31.53125 C 35.526715,32.903126 34.798538,34.831723 34.09375,36.75 C 33.230237,39.100295 31.877953,41.574457 29.875,43.40625 L 28.40625,44.75 L 30.375,44.46875 C 33.61499,44.04383 35.731802,41.955314 38.28125,39.78125 L 38.3125,39.75 L 38.34375,39.75 C 41.384022,36.445307 44.349189,31.487028 44.28125,25.03125 C 44.418531,13.371038 34.571739,3.7474992 23.6875,4 z M 23.6875,5.25 C 33.813175,5.015097 43.160107,14.086584 43.03125,25.03125 C 43.095085,31.09712 40.301442,35.728005 37.40625,38.875 C 35.432044,40.560875 33.85746,42.035246 31.96875,42.78125 C 33.416712,41.035863 34.575351,39.108805 35.28125,37.1875 C 35.982276,35.279463 36.739325,33.320346 37,31.71875 C 37.13047,30.917139 37.223587,29.609878 37.28125,28.34375 C 37.338913,27.077622 37.364653,25.90656 37.28125,25.25 L 37.125,24.1875 L 36.28125,24.84375 C 34.676849,26.058553 33.915239,26.608209 33.46875,26.875 C 33.454208,26.883689 33.451472,26.898056 33.4375,26.90625 C 33.485688,26.628851 33.564689,26.456028 33.59375,26.125 C 33.673139,25.220689 33.686088,24.147164 33.5625,22.96875 C 33.315324,20.611923 32.586106,17.895882 31,15.65625 L 30.84375,15.4375 L 30.625,15.40625 C 29.64517,15.202515 28.651482,15.046274 27.34375,14.78125 C 27.310232,14.76681 27.25301,14.764366 27.21875,14.75 C 25.242564,13.921341 22.086072,13.207505 20.0625,13.4375 C 18.975078,13.561094 17.848379,14.065027 16.90625,14.5625 C 15.964121,15.059973 15.20034,15.589123 14.9375,15.75 C 14.744326,15.868236 14.341315,16.017855 13.90625,16.15625 C 13.755215,16.204294 13.593853,16.261472 13.4375,16.3125 C 13.417177,16.145545 13.470009,15.983758 13.4375,15.8125 C 13.335909,15.277318 13.179598,14.719197 13.0625,14.15625 C 12.828305,13.030357 16.256279,12.454894 16.762332,11.776644 C 16.762332,11.776644 16.407613,10.409954 19.527016,6.8344147 C 20.729642,5.6266883 23.847141,5.2462964 23.6875,5.25 z "
         style="opacity:0.69273741;fill:#a6bddc;fill-opacity:0.60773477;fill-rule:evenodd;stroke:url(#radialGradient9474);stroke-width:1.25;stroke-linecap:round;stroke-linejoin:miter;stroke-miterlimit:4;stroke-dashoffset:0;stroke-opacity:1" />
      <path
         sodipodi:nodetypes="cccc"
         id="path4005"
         d="M 16.159799,15.864553 C 17.794501,13.974428 17.704481,12.297158 21.433648,7.9376122 C 21.433648,7.9376122 14.422927,13.72815 13.350153,17.304061 C 12.702551,17.542359 14.417979,17.878533 16.159799,15.864553 z "
         style="fill:#648abc;fill-opacity:1;fill-rule:evenodd;stroke:none;stroke-width:1.25;stroke-linecap:round;stroke-linejoin:miter;stroke-miterlimit:4;stroke-dashoffset:0;stroke-opacity:1" />
      <path
         sodipodi:nodetypes="cccc"
         id="rect1377"
         d="M 13.38248,12.695197 C 15.017183,10.805072 21.222746,7.6402567 21.222746,8.0315656 C 21.222746,8.0315656 13.94441,14.696635 13.331397,17.199773 C 12.683795,17.438071 11.64066,14.709178 13.38248,12.695197 z "
         style="fill:#204a87;fill-opacity:1;fill-rule:evenodd;stroke:none;stroke-width:1.25;stroke-linecap:round;stroke-linejoin:miter;stroke-miterlimit:4;stroke-dashoffset:0;stroke-opacity:1" />
      <path
         sodipodi:nodetypes="csssc"
         id="path7633"
         d="M 16.295645,13.832319 C 16.483061,14.476993 16.300334,15.246488 15.53161,15.796523 C 14.762883,16.346561 13.986882,16.247527 13.799466,15.602853 C 13.61205,14.95818 13.905955,13.921849 14.674683,13.37181 C 15.443407,12.821775 16.108229,13.187645 16.295645,13.832319 z "
         style="fill:#302f6d;fill-opacity:0.37853106;fill-rule:evenodd;stroke:none;stroke-width:1.20249999;stroke-linecap:round;stroke-linejoin:miter;stroke-miterlimit:4;stroke-dashoffset:0;stroke-opacity:1" />
      <path
         sodipodi:nodetypes="csssc"
         id="path6747"
         d="M 15.830702,13.968004 C 16.150709,14.215451 16.049458,14.652586 15.632095,15.162933 C 15.214732,15.673283 14.794173,15.842184 14.474165,15.594737 C 14.154157,15.34729 14.055288,14.754503 14.472651,14.244154 C 14.890014,13.733806 15.510695,13.720557 15.830702,13.968004 z "
         style="fill:#f57900;fill-opacity:1;fill-rule:evenodd;stroke:none;stroke-width:1.20249999;stroke-linecap:round;stroke-linejoin:miter;stroke-miterlimit:4;stroke-dashoffset:0;stroke-opacity:1" />
      <path
         id="path4881"
         d="M 15.279638,15.014665 C 15.279638,15.396878 14.992914,15.707084 14.639632,15.707084 C 14.286347,15.707084 13.999624,15.396878 13.999624,15.014665 C 13.999624,14.632447 14.286347,14.322243 14.639632,14.322243 C 14.992914,14.322243 15.279638,14.632447 15.279638,15.014665 z "
         style="fill:black;fill-opacity:1;fill-rule:evenodd;stroke:none;stroke-width:1.25;stroke-linecap:round;stroke-linejoin:miter;stroke-miterlimit:4;stroke-dashoffset:0;stroke-opacity:1" />
      <path
         transform="matrix(0.429245,0,0,0.429245,5.536764,8.710249)"
         d="M 21.206378 14.046234 A 0.75400454 0.73044187 0 1 1  19.698369,14.046234 A 0.75400454 0.73044187 0 1 1  21.206378 14.046234 z"
         sodipodi:ry="0.73044187"
         sodipodi:rx="0.75400454"
         sodipodi:cy="14.046234"
         sodipodi:cx="20.452374"
         id="path4896"
         style="fill:white;fill-opacity:1;fill-rule:evenodd;stroke:none;stroke-width:1.25;stroke-linecap:round;stroke-linejoin:miter;stroke-miterlimit:4;stroke-dasharray:none;stroke-dashoffset:0;stroke-opacity:1"
         sodipodi:type="arc" />
      <path
         sodipodi:nodetypes="ccccc"
         id="rect2239"
         d="M 11.591899,17.255685 C 12.382965,17.466414 12.594136,17.181242 14.319659,16.80793 C 14.366611,17.291761 14.241727,17.529652 14.5,18.065163 C 14.168374,18.251297 12.986334,18.995574 11.84623,20.078946 C 10.667658,18.471803 11.127613,18.0414 11.591899,17.255685 z "
         style="fill:#d3d7cf;fill-opacity:1;fill-rule:evenodd;stroke:#18304f;stroke-width:1;stroke-linecap:round;stroke-linejoin:miter;stroke-miterlimit:4;stroke-dashoffset:0;stroke-opacity:1" />
      <path
         sodipodi:nodetypes="cccc"
         id="rect2254"
         d="M 13.813069,17.462774 C 13.184381,17.462774 11.980768,18.468569 11.951759,19.294577 L 13.86613,17.859798 L 13.813069,17.462774 z "
         style="fill:#9ca593;fill-opacity:1;fill-rule:evenodd;stroke:none;stroke-width:1.08399999;stroke-linecap:round;stroke-linejoin:miter;stroke-miterlimit:4;stroke-dashoffset:0;stroke-opacity:1" />
      <path
         sodipodi:nodetypes="ccsccc"
         id="rect1363"
         d="M 15.209108,5.6602366 C 13.785306,7.9407255 13.353047,8.8253967 12.387954,10.239967 C 7.7807335,11.280954 6.5895224,13.028289 5.4502635,15.322086 C 4.2875202,17.663167 4.5570084,20.476655 5.1011025,22.575304 L 3.2953654,20.404834 C 3.7035532,17.770285 5.2566565,10.096456 15.209108,5.6602366 z "
         style="fill:#3465a4;fill-opacity:1;fill-rule:evenodd;stroke:none;stroke-width:1;stroke-linecap:round;stroke-linejoin:miter;stroke-miterlimit:4;stroke-dashoffset:0;stroke-opacity:1" />
      <path
         sodipodi:nodetypes="cccc"
         id="path6412"
         d="M 12.827751,36.504597 C 11.545624,37.452342 11.845842,37.630504 11.953671,38.763032 C 9.63356,37.605111 7.571894,36.197082 6.3849648,34 C 9.9795937,35.176838 11.537358,35.713277 12.827751,36.504597 z "
         style="fill:#6c90bf;fill-opacity:1;fill-rule:evenodd;stroke:none;stroke-width:1;stroke-linecap:round;stroke-linejoin:miter;stroke-miterlimit:4;stroke-dashoffset:0;stroke-opacity:1" />
      <path
         sodipodi:nodetypes="cccc"
         id="path6414"
         d="M 27.589175,12.177645 C 28.815994,13.507032 30.679066,14.144475 30.888578,13.972434 C 31.339195,13.858805 30.323217,12.138009 29.622259,11.695172 C 30.181478,13.224064 29.488446,12.951965 27.589175,12.177645 z "
         style="opacity:0.75418994;fill:#729fcf;fill-opacity:1;fill-rule:evenodd;stroke:none;stroke-width:1.25;stroke-linecap:round;stroke-linejoin:miter;stroke-miterlimit:4;stroke-dashoffset:0;stroke-opacity:0.20994478" />
      <path
         sodipodi:nodetypes="cccc"
         id="path8174"
         d="M 32,9.482473 C 33.226819,10.81186 35.089891,11.449303 35.299403,11.277262 C 35.75002,11.163633 34.734042,9.442837 34.033084,9 C 34.592303,10.528892 33.899271,10.256793 32,9.482473 z "
         style="opacity:0.78770949;fill:#729fcf;fill-opacity:1;fill-rule:evenodd;stroke:none;stroke-width:1.25;stroke-linecap:round;stroke-linejoin:miter;stroke-miterlimit:4;stroke-dashoffset:0;stroke-opacity:0.20994478" />
      <path
         sodipodi:nodetypes="cccc"
         id="path8176"
         d="M 31.675287,11.990196 C 32.744903,13.449057 34.524517,14.291877 34.752039,14.144476 C 35.212573,14.082218 34.396457,12.258128 33.749718,11.739307 C 34.13354,13.321368 33.475485,12.973094 31.675287,11.990196 z "
         style="fill:#729fcf;fill-opacity:1;fill-rule:evenodd;stroke:none;stroke-width:1.25;stroke-linecap:round;stroke-linejoin:miter;stroke-miterlimit:4;stroke-dashoffset:0;stroke-opacity:0.20994478" />
      <path
         sodipodi:nodetypes="cccc"
         id="path8178"
         d="M 24,10.233495 C 25.589399,11.097304 27.558499,11.101212 27.701493,10.870894 C 28.091563,10.618283 26.575814,9.316033 25.769628,9.122357 C 26.791157,10.389919 26.047426,10.355346 24,10.233495 z "
         style="opacity:0.40223466;fill:#729fcf;fill-opacity:1;fill-rule:evenodd;stroke:none;stroke-width:1.25;stroke-linecap:round;stroke-linejoin:miter;stroke-miterlimit:4;stroke-dashoffset:0;stroke-opacity:0.20994478" />
      <path
         sodipodi:nodetypes="cccc"
         id="path8180"
         d="M 26.875665,8.2487329 C 28.542819,8.9508397 30.50262,8.7596595 30.622094,8.5163094 C 30.985221,8.2262982 29.347921,7.0806109 28.526514,6.9677529 C 29.668589,8.1278823 28.925091,8.1671569 26.875665,8.2487329 z "
         style="opacity:0.31284916;fill:#729fcf;fill-opacity:1;fill-rule:evenodd;stroke:none;stroke-width:1.25;stroke-linecap:round;stroke-linejoin:miter;stroke-miterlimit:4;stroke-dashoffset:0;stroke-opacity:0.20994478" />
      <path
         sodipodi:nodetypes="cccc"
         id="path8182"
         d="M 12.230357,9.8610048 C 10.903502,10.699736 9.1987571,10.8156 9.0617876,10.624346 C 8.7096104,10.427901 9.9476501,9.2137481 10.634633,9 C 9.8225371,10.155886 10.464531,10.083467 12.230357,9.8610048 z "
         style="opacity:0.58659219;fill:#729fcf;fill-opacity:1;fill-rule:evenodd;stroke:none;stroke-width:1.25;stroke-linecap:round;stroke-linejoin:miter;stroke-miterlimit:4;stroke-dashoffset:0;stroke-opacity:0.20994478" />
      <path
         sodipodi:nodetypes="cccc"
         id="path8184"
         d="M 8.9027518,11.595962 C 7.9494297,12.843035 6.3908413,13.543308 6.1960115,13.411474 C 5.7975483,13.349456 6.53729,11.781116 7.1073991,11.342243 C 6.746909,12.708119 7.3238719,12.417405 8.9027518,11.595962 z "
         style="opacity:0.87150837;fill:#729fcf;fill-opacity:1;fill-rule:evenodd;stroke:none;stroke-width:1.25;stroke-linecap:round;stroke-linejoin:miter;stroke-miterlimit:4;stroke-dashoffset:0;stroke-opacity:0.20994478" />
      <path
         sodipodi:nodetypes="cccc"
         id="path8186"
         d="M 6.0615691,15 C 5.6603329,16.517572 4.4902409,17.762749 4.2597204,17.715854 C 3.8679987,17.811633 3.9486452,16.079465 4.3064693,15.455289 C 4.4982252,16.854861 4.9192808,16.364848 6.0615691,15 z "
         style="opacity:0.55307264;fill:#729fcf;fill-opacity:1;fill-rule:evenodd;stroke:none;stroke-width:1.25;stroke-linecap:round;stroke-linejoin:miter;stroke-miterlimit:4;stroke-dashoffset:0;stroke-opacity:0.20994478" />
      <path
         sodipodi:nodetypes="cccc"
         id="path8188"
         d="M 32,15 C 32.801127,16.621897 34.408115,17.759861 34.657705,17.65404 C 35.122066,17.672387 34.633797,15.734619 34.086557,15.111743 C 34.190917,16.736349 33.60303,16.279491 32,15 z "
         style="opacity:0.63128489;fill:#729fcf;fill-opacity:1;fill-rule:evenodd;stroke:none;stroke-width:1.25;stroke-linecap:round;stroke-linejoin:miter;stroke-miterlimit:4;stroke-dashoffset:0;stroke-opacity:0.20994478" />
      <path
         sodipodi:nodetypes="cccc"
         id="path8190"
         d="M 36,13 C 36.809456,14.617756 38.422275,15.747441 38.671318,15.640339 C 39.135767,15.656298 38.63754,13.721066 38.087105,13.101012 C 38.199817,14.72506 37.609588,14.271231 36,13 z "
         style="opacity:0.66480444;fill:#729fcf;fill-opacity:1;fill-rule:evenodd;stroke:none;stroke-width:1.25;stroke-linecap:round;stroke-linejoin:miter;stroke-miterlimit:4;stroke-dashoffset:0;stroke-opacity:0.20994478" />
      <path
         sodipodi:nodetypes="cccc"
         id="path8192"
         d="M 36,16.144873 C 36.673766,17.82368 38.188287,19.082091 38.445289,18.995818 C 38.906856,19.049893 38.569358,17.080262 38.071743,16.417069 C 38.050604,18.044886 37.499669,17.544085 36,16.144873 z "
         style="opacity:0.58100556;fill:#729fcf;fill-opacity:1;fill-rule:evenodd;stroke:none;stroke-width:1.25;stroke-linecap:round;stroke-linejoin:miter;stroke-miterlimit:4;stroke-dashoffset:0;stroke-opacity:0.20994478" />
      <path
         sodipodi:nodetypes="cccc"
         id="path8194"
         d="M 33.836657,19 C 34.125235,20.785798 35.326374,22.34613 35.59605,22.318412 C 36.034468,22.472546 36.137824,20.476884 35.798025,19.720588 C 35.419867,21.304012 34.992382,20.694433 33.836657,19 z "
         style="opacity:0.33519556;fill:#729fcf;fill-opacity:1;fill-rule:evenodd;stroke:none;stroke-width:1.25;stroke-linecap:round;stroke-linejoin:miter;stroke-miterlimit:4;stroke-dashoffset:0;stroke-opacity:0.20994478" />
      <path
         sodipodi:nodetypes="cccc"
         id="path8196"
         d="M 39.836657,18 C 40.125235,19.785798 41.326374,21.34613 41.59605,21.318412 C 42.034468,21.472546 42.137824,19.476884 41.798025,18.720588 C 41.419867,20.304012 40.992382,19.694433 39.836657,18 z "
         style="opacity:0.52513966;fill:#729fcf;fill-opacity:1;fill-rule:evenodd;stroke:none;stroke-width:1.25;stroke-linecap:round;stroke-linejoin:miter;stroke-miterlimit:4;stroke-dashoffset:0;stroke-opacity:0.20994478" />
      <path
         sodipodi:nodetypes="cccc"
         id="rect8198"
         d="M 40.279154,21.311172 C 40.579144,21.734691 43.474921,26.753496 41.020839,32 C 39.939212,27.583215 37.882166,23.909199 37.582177,23.485679 L 40.279154,21.311172 z "
         style="opacity:0.36312848;fill:url(#radialGradient9446);fill-opacity:1;fill-rule:evenodd;stroke:none;stroke-width:1.25;stroke-linecap:round;stroke-linejoin:miter;stroke-miterlimit:4;stroke-dashoffset:0;stroke-opacity:0.20994478" />
      <path
         sodipodi:nodetypes="cccc"
         id="path8220"
         d="M 37.614161,19 C 37.929708,19.412058 41.010304,24.319588 38.753226,29.65381 C 37.507933,25.280351 35.315546,21.685455 35,21.273396 L 37.614161,19 z "
         style="opacity:0.43575416;fill:url(#radialGradient9443);fill-opacity:1;fill-rule:evenodd;stroke:none;stroke-width:1.25;stroke-linecap:round;stroke-linejoin:miter;stroke-miterlimit:4;stroke-dashoffset:0;stroke-opacity:0.20994478" />
      <path
         sodipodi:nodetypes="cccc"
         id="path8228"
         d="M 39.888244,26.827011 C 39.988865,27.332614 40.657365,33.074386 37,37 C 37.577416,32.502688 37.137957,28.32322 37.037338,27.817617 L 39.888244,26.827011 z "
         style="opacity:0.27374303;fill:url(#radialGradient9440);fill-opacity:1;fill-rule:evenodd;stroke:none;stroke-width:1.25;stroke-linecap:round;stroke-linejoin:miter;stroke-miterlimit:4;stroke-dashoffset:0;stroke-opacity:0.20994478" />
      <path
         sodipodi:nodetypes="cccc"
         id="path8232"
         d="M 39.614161,14 C 39.929708,14.412058 43.010304,19.319588 40.753226,24.65381 C 39.507933,20.280351 37.315546,16.685455 37,16.273396 L 39.614161,14 z "
         style="opacity:0.24022348;fill:url(#radialGradient9437);fill-opacity:1;fill-rule:evenodd;stroke:none;stroke-width:1.25;stroke-linecap:round;stroke-linejoin:miter;stroke-miterlimit:4;stroke-dashoffset:0;stroke-opacity:0.20994478" />
      <path
         sodipodi:nodetypes="cccc"
         id="path8236"
         d="M 34.040282,14 C 34.355829,14.412058 37.436425,19.319588 35.179347,24.65381 C 33.934054,20.280351 31.741667,16.685455 31.426121,16.273396 L 34.040282,14 z "
         style="opacity:0.7318436;fill:url(#radialGradient9434);fill-opacity:1;fill-rule:evenodd;stroke:none;stroke-width:1.25;stroke-linecap:round;stroke-linejoin:miter;stroke-miterlimit:4;stroke-dashoffset:0;stroke-opacity:0.20994478" />
      <g
         id="g3186"
         transform="matrix(1.01362,0,0,-1.01362,58.12939,-10.62682)"
         inkscape:r_cx="true"
         inkscape:r_cy="true" />
    </g>
  </g>
</svg>
