<?xml version="1.0" encoding="UTF-8" standalone="no"?>
<!-- Created with Inkscape (http://www.inkscape.org/) -->
<svg
   xmlns:dc="http://purl.org/dc/elements/1.1/"
   xmlns:cc="http://creativecommons.org/ns#"
   xmlns:rdf="http://www.w3.org/1999/02/22-rdf-syntax-ns#"
   xmlns:svg="http://www.w3.org/2000/svg"
   xmlns="http://www.w3.org/2000/svg"
   xmlns:xlink="http://www.w3.org/1999/xlink"
   xmlns:sodipodi="http://sodipodi.sourceforge.net/DTD/sodipodi-0.dtd"
   xmlns:inkscape="http://www.inkscape.org/namespaces/inkscape"
   width="48px"
   height="48px"
   id="svg1288"
   sodipodi:version="0.32"
   inkscape:version="0.46"
   sodipodi:docbase="/home/jimmac/src/cvs/tango-icon-theme/scalable/apps"
   sodipodi:docname="nautilus-actions.svg"
   inkscape:output_extension="org.inkscape.output.svg.inkscape">
  <defs
     id="defs3">
    <radialGradient
       inkscape:collect="always"
       xlink:href="#linearGradient8662"
       id="radialGradient2863"
       gradientUnits="userSpaceOnUse"
       gradientTransform="matrix(1,0,0,0.536723,0,16.87306)"
       cx="24.837126"
       cy="36.421127"
       fx="24.837126"
       fy="36.421127"
       r="15.644737" />
    <linearGradient
       inkscape:collect="always"
       xlink:href="#XMLID_6_"
       id="linearGradient2873"
       gradientUnits="userSpaceOnUse"
       gradientTransform="matrix(0.9845584,0,0,0.9865678,177.55339,3.8585964)"
       x1="49.273136"
       y1="22.274775"
       x2="49.373875"
       y2="102.04791" />
    <linearGradient
       inkscape:collect="always"
       xlink:href="#XMLID_6_"
       id="linearGradient2871"
       gradientUnits="userSpaceOnUse"
       gradientTransform="matrix(0.9845584,0,0,0.9865678,177.55339,3.8585964)"
       spreadMethod="pad"
       x1="64"
       y1="21.523018"
       x2="64"
       y2="103.06695" />
    <linearGradient
       inkscape:collect="always"
       xlink:href="#linearGradient5128"
       id="linearGradient2869"
       gradientUnits="userSpaceOnUse"
       gradientTransform="matrix(0.8221684,0,0,0.829464,187.89784,13.756152)"
       x1="86.132919"
       y1="105.105"
       x2="84.63858"
       y2="20.895" />
    <linearGradient
       inkscape:collect="always"
       xlink:href="#XMLID_5_"
       id="linearGradient2867"
       gradientUnits="userSpaceOnUse"
       gradientTransform="matrix(0.8221684,0,0,0.829464,187.89784,13.756152)"
       spreadMethod="pad"
       x1="63.9995"
       y1="21.941401"
       x2="63.9995"
       y2="104.0591" />
    <linearGradient
       inkscape:collect="always"
       xlink:href="#XMLID_4_"
       id="linearGradient2865"
       gradientUnits="userSpaceOnUse"
       gradientTransform="matrix(1.0103083,0,0,1.0114576,2.9613714,-1.8301013)"
       x1="232.8517"
       y1="9.067646"
       x2="232.8517"
       y2="123.24046" />
    <linearGradient
       id="XMLID_6_"
       gradientUnits="userSpaceOnUse"
       x1="64"
       y1="21.523018"
       x2="64"
       y2="103.06695"
       xlink:href="#XMLID_5_"
       spreadMethod="pad">
      <stop
         offset="0"
         style="stop-color:#d9d9d9;stop-opacity:1"
         id="stop31" />
      <stop
         offset="1"
         style="stop-color:#cccccc;stop-opacity:1"
         id="stop33" />
    </linearGradient>
    <linearGradient
       inkscape:collect="always"
       id="linearGradient5128">
      <stop
         style="stop-color:#ffffff;stop-opacity:1"
         offset="0"
         id="stop5130" />
      <stop
         style="stop-color:#959595;stop-opacity:1"
         offset="1"
         id="stop5132" />
    </linearGradient>
    <linearGradient
       y2="104.0591"
       x2="63.9995"
       y1="21.941401"
       x1="63.9995"
       gradientUnits="userSpaceOnUse"
       id="linearGradient2193">
      <stop
         id="stop2195"
         style="stop-color:#dddddd;stop-opacity:1"
         offset="0" />
      <stop
         id="stop2197"
         style="stop-color:#E8E9EF"
         offset="1" />
    </linearGradient>
    <linearGradient
       xlink:href="#linearGradient2193"
       y2="104.0591"
       x2="63.9995"
       y1="21.941401"
       x1="63.9995"
       gradientUnits="userSpaceOnUse"
       id="linearGradient2199"
       spreadMethod="pad">
      <stop
         id="stop2201"
         style="stop-color:#FCFCFD"
         offset="0" />
      <stop
         id="stop2203"
         style="stop-color:#cccccc;stop-opacity:1"
         offset="1" />
    </linearGradient>
    <linearGradient
       id="XMLID_5_"
       gradientUnits="userSpaceOnUse"
       x1="63.9995"
       y1="21.941401"
       x2="63.9995"
       y2="104.0591"
       xlink:href="#linearGradient2199"
       spreadMethod="pad">
      <stop
         offset="0"
         style="stop-color:#dadada;stop-opacity:1"
         id="stop24" />
      <stop
         offset="1"
         style="stop-color:#cccccc;stop-opacity:1"
         id="stop26" />
    </linearGradient>
    <linearGradient
       id="XMLID_4_"
       gradientUnits="userSpaceOnUse"
       x1="63.9995"
       y1="3.1001"
       x2="63.9995"
       y2="122.8994">
      <stop
         offset="0"
         style="stop-color:#f2f2f2;stop-opacity:1"
         id="stop11" />
      <stop
         offset="1"
         style="stop-color:#d8d8d8;stop-opacity:1"
         id="stop13" />
    </linearGradient>
    <linearGradient
       inkscape:collect="always"
       id="linearGradient8662">
      <stop
         style="stop-color:#000000;stop-opacity:1;"
         offset="0"
         id="stop8664" />
      <stop
         style="stop-color:#000000;stop-opacity:0;"
         offset="1"
         id="stop8666" />
    </linearGradient>
    <radialGradient
       inkscape:collect="always"
       xlink:href="#linearGradient8662"
       id="radialGradient2683"
       gradientUnits="userSpaceOnUse"
       gradientTransform="matrix(1,0,0,0.536723,0,16.87306)"
       cx="24.837126"
       cy="36.421127"
       fx="24.837126"
       fy="36.421127"
       r="15.644737" />
    <inkscape:perspective
       sodipodi:type="inkscape:persp3d"
       inkscape:vp_x="0 : 24 : 1"
       inkscape:vp_y="0 : 1000 : 0"
       inkscape:vp_z="48 : 24 : 1"
       inkscape:persp3d-origin="24 : 16 : 1"
       id="perspective43" />
    <radialGradient
       inkscape:collect="always"
       xlink:href="#linearGradient5060"
       id="radialGradient5031"
       gradientUnits="userSpaceOnUse"
       gradientTransform="matrix(-2.774389,0,0,1.969706,112.7623,-872.8854)"
       cx="605.71429"
       cy="486.64789"
       fx="605.71429"
       fy="486.64789"
       r="117.14286" />
    <linearGradient
       inkscape:collect="always"
       id="linearGradient5060">
      <stop
         style="stop-color:black;stop-opacity:1;"
         offset="0"
         id="stop5062" />
      <stop
         style="stop-color:black;stop-opacity:0;"
         offset="1"
         id="stop5064" />
    </linearGradient>
    <radialGradient
       inkscape:collect="always"
       xlink:href="#linearGradient5060"
       id="radialGradient5029"
       gradientUnits="userSpaceOnUse"
       gradientTransform="matrix(2.774389,0,0,1.969706,-1891.633,-872.8854)"
       cx="605.71429"
       cy="486.64789"
       fx="605.71429"
       fy="486.64789"
       r="117.14286" />
    <linearGradient
       id="linearGradient5048">
      <stop
         style="stop-color:black;stop-opacity:0;"
         offset="0"
         id="stop5050" />
      <stop
         id="stop5056"
         offset="0.5"
         style="stop-color:black;stop-opacity:1;" />
      <stop
         style="stop-color:black;stop-opacity:0;"
         offset="1"
         id="stop5052" />
    </linearGradient>
    <linearGradient
       inkscape:collect="always"
       xlink:href="#linearGradient5048"
       id="linearGradient5027"
       gradientUnits="userSpaceOnUse"
       gradientTransform="matrix(2.774389,0,0,1.969706,-1892.179,-872.8854)"
       x1="302.85715"
       y1="366.64789"
       x2="302.85715"
       y2="609.50507" />
    <linearGradient
       id="linearGradient3085">
      <stop
         id="stop3087"
         offset="0"
         style="stop-color:#b47002;stop-opacity:1;" />
      <stop
         id="stop3089"
         offset="1.0000000"
         style="stop-color:#6b4301;stop-opacity:1.0000000;" />
    </linearGradient>
    <linearGradient
       inkscape:collect="always"
       id="linearGradient2368">
      <stop
         style="stop-color:#ffffff;stop-opacity:1;"
         offset="0"
         id="stop2370" />
      <stop
         style="stop-color:#ffffff;stop-opacity:0;"
         offset="1"
         id="stop2372" />
    </linearGradient>
    <linearGradient
       inkscape:collect="always"
       id="linearGradient2182">
      <stop
         style="stop-color:#000000;stop-opacity:1;"
         offset="0"
         id="stop2184" />
      <stop
         style="stop-color:#000000;stop-opacity:0;"
         offset="1"
         id="stop2186" />
    </linearGradient>
    <radialGradient
       inkscape:collect="always"
       xlink:href="#linearGradient2182"
       id="radialGradient2188"
       cx="25.357143"
       cy="36.500000"
       fx="25.357143"
       fy="36.500000"
       r="14.714286"
       gradientTransform="matrix(1.000000,0.000000,0.000000,0.500000,-3.881442e-16,18.25000)"
       gradientUnits="userSpaceOnUse" />
    <linearGradient
       inkscape:collect="always"
       xlink:href="#linearGradient2368"
       id="linearGradient2374"
       x1="14.680550"
       y1="7.2187386"
       x2="38.694427"
       y2="57.468739"
       gradientUnits="userSpaceOnUse" />
    <linearGradient
       gradientUnits="userSpaceOnUse"
       y2="19.168869"
       x2="25.249994"
       y1="23.568451"
       x1="25.249994"
       id="linearGradient3091"
       xlink:href="#linearGradient3085"
       inkscape:collect="always" />
    <linearGradient
       gradientTransform="translate(0.000000,13.11256)"
       y2="19.168869"
       x2="25.249994"
       y1="23.568451"
       x1="25.249994"
       gradientUnits="userSpaceOnUse"
       id="linearGradient3095"
       xlink:href="#linearGradient3085"
       inkscape:collect="always" />
    <linearGradient
       inkscape:collect="always"
       xlink:href="#XMLID_4_"
       id="linearGradient5840"
       gradientUnits="userSpaceOnUse"
       gradientTransform="matrix(0.1627143,0,0,0.1623523,21.68545,20.721064)"
       x1="232.8517"
       y1="9.067646"
       x2="232.8517"
       y2="123.24046" />
    <linearGradient
       inkscape:collect="always"
       xlink:href="#XMLID_5_"
       id="linearGradient5842"
       gradientUnits="userSpaceOnUse"
       gradientTransform="matrix(0.8085644,0,0,0.8152788,183.39672,15.699431)"
       spreadMethod="pad"
       x1="63.9995"
       y1="21.941401"
       x2="63.9995"
       y2="104.0591" />
    <linearGradient
       inkscape:collect="always"
       xlink:href="#linearGradient5128"
       id="linearGradient5844"
       gradientUnits="userSpaceOnUse"
       gradientTransform="matrix(0.8085644,0,0,0.8152788,183.39672,15.699431)"
       x1="86.132919"
       y1="105.105"
       x2="84.63858"
       y2="20.895" />
    <linearGradient
       inkscape:collect="always"
       xlink:href="#XMLID_6_"
       id="linearGradient5846"
       gradientUnits="userSpaceOnUse"
       gradientTransform="matrix(0.9682674,0,0,0.9696959,173.22344,5.9711385)"
       spreadMethod="pad"
       x1="64"
       y1="21.523018"
       x2="64"
       y2="103.06695" />
    <linearGradient
       inkscape:collect="always"
       xlink:href="#XMLID_6_"
       id="linearGradient5848"
       gradientUnits="userSpaceOnUse"
       gradientTransform="matrix(0.9682674,0,0,0.9696959,173.22344,5.9711385)"
       x1="49.273136"
       y1="22.274775"
       x2="49.373875"
       y2="102.04791" />
  </defs>
  <sodipodi:namedview
     stroke="#e9b96e"
     fill="#e9b96e"
     id="base"
     pagecolor="#ffffff"
     bordercolor="#666666"
     borderopacity="0.14117647"
     inkscape:pageopacity="0.0"
     inkscape:pageshadow="2"
     inkscape:zoom="5.6568542"
     inkscape:cx="11.802196"
     inkscape:cy="-14.411366"
     inkscape:current-layer="layer1"
     showgrid="true"
     inkscape:grid-bbox="true"
     inkscape:document-units="px"
     showborder="true"
     inkscape:showpageshadow="false"
     inkscape:window-width="878"
     inkscape:window-height="883"
     inkscape:window-x="380"
     inkscape:window-y="118">
    <inkscape:grid
       type="xygrid"
       id="grid5551" />
  </sodipodi:namedview>
  <metadata
     id="metadata4">
    <rdf:RDF>
      <cc:Work
         rdf:about="">
        <dc:format>image/svg+xml</dc:format>
        <dc:type
           rdf:resource="http://purl.org/dc/dcmitype/StillImage" />
        <dc:title>File Manager</dc:title>
        <dc:creator>
          <cc:Agent>
            <dc:title>Jakub Steiner</dc:title>
          </cc:Agent>
        </dc:creator>
        <dc:source>http://jimmac.musichall.cz</dc:source>
        <dc:subject>
          <rdf:Bag>
            <rdf:li>file</rdf:li>
            <rdf:li>manager</rdf:li>
            <rdf:li>copy</rdf:li>
            <rdf:li>move</rdf:li>
            <rdf:li>filesystem</rdf:li>
          </rdf:Bag>
        </dc:subject>
        <cc:license
           rdf:resource="http://creativecommons.org/licenses/by/2.0/" />
      </cc:Work>
      <cc:License
         rdf:about="http://creativecommons.org/licenses/by/2.0/">
        <cc:permits
           rdf:resource="http://web.resource.org/cc/Reproduction" />
        <cc:permits
           rdf:resource="http://web.resource.org/cc/Distribution" />
        <cc:requires
           rdf:resource="http://web.resource.org/cc/Notice" />
        <cc:requires
           rdf:resource="http://web.resource.org/cc/Attribution" />
        <cc:permits
           rdf:resource="http://web.resource.org/cc/DerivativeWorks" />
        <cc:requires
           rdf:resource="http://web.resource.org/cc/ShareAlike" />
      </cc:License>
    </rdf:RDF>
  </metadata>
  <g
     id="layer1"
     inkscape:label="Layer 1"
     inkscape:groupmode="layer">
    <g
       id="g5022"
       transform="matrix(1.949531e-2,0,0,2.086758e-2,42.61888,39.78964)">
      <rect
         y="-150.69685"
         x="-1559.2523"
         height="478.35718"
         width="1339.6335"
         id="rect4173"
         style="opacity:0.40206185;color:black;fill:url(#linearGradient5027);fill-opacity:1;fill-rule:nonzero;stroke:none;stroke-width:1;stroke-linecap:round;stroke-linejoin:miter;marker:none;marker-start:none;marker-mid:none;marker-end:none;stroke-miterlimit:4;stroke-dasharray:none;stroke-dashoffset:0;stroke-opacity:1;visibility:visible;display:inline;overflow:visible" />
      <path
         sodipodi:nodetypes="cccc"
         id="path5058"
         d="M -219.61876,-150.68038 C -219.61876,-150.68038 -219.61876,327.65041 -219.61876,327.65041 C -76.744594,328.55086 125.78146,220.48075 125.78138,88.454235 C 125.78138,-43.572302 -33.655436,-150.68036 -219.61876,-150.68038 z "
         style="opacity:0.40206185;color:black;fill:url(#radialGradient5029);fill-opacity:1;fill-rule:nonzero;stroke:none;stroke-width:1;stroke-linecap:round;stroke-linejoin:miter;marker:none;marker-start:none;marker-mid:none;marker-end:none;stroke-miterlimit:4;stroke-dasharray:none;stroke-dashoffset:0;stroke-opacity:1;visibility:visible;display:inline;overflow:visible" />
      <path
         style="opacity:0.40206185;color:black;fill:url(#radialGradient5031);fill-opacity:1;fill-rule:nonzero;stroke:none;stroke-width:1;stroke-linecap:round;stroke-linejoin:miter;marker:none;marker-start:none;marker-mid:none;marker-end:none;stroke-miterlimit:4;stroke-dasharray:none;stroke-dashoffset:0;stroke-opacity:1;visibility:visible;display:inline;overflow:visible"
         d="M -1559.2523,-150.68038 C -1559.2523,-150.68038 -1559.2523,327.65041 -1559.2523,327.65041 C -1702.1265,328.55086 -1904.6525,220.48075 -1904.6525,88.454235 C -1904.6525,-43.572302 -1745.2157,-150.68036 -1559.2523,-150.68038 z "
         id="path5018"
         sodipodi:nodetypes="cccc" />
    </g>
    <path
       style="stroke-opacity:1.0000000;stroke-linejoin:round;stroke-linecap:round;stroke-width:1.0000000px;stroke:#444329;fill-rule:evenodd;fill-opacity:1.0;fill:#c17d11"
       d="M 10.625000,11.625000 L 10.625000,42.625000 L 39.625000,42.625000 L 39.625000,11.625000 L 35.625000,7.6250000 L 14.625000,7.6250000 L 10.625000,11.625000 z "
       id="path1414" />
    <path
       style="stroke-opacity:1.0000000;stroke-linejoin:miter;stroke-linecap:butt;stroke-width:1.0000000px;stroke:none;fill-rule:evenodd;fill-opacity:1.0000000;fill:#e9b96e"
       d="M 14.849242,8.2252435 L 11.126209,12.041107 L 12.314694,12.291107 L 38.129165,12.291107 L 39.130150,12.041107 L 35.266951,8.2252435 L 14.849242,8.2252435 z "
       id="path2380"
       sodipodi:nodetypes="ccccccc" />
    <rect
       ry="0.92857140"
       rx="0.92857140"
       y="28.828430"
       x="14.750000"
       height="10.055458"
       width="21.000000"
       id="rect3083"
       style="opacity:1.0000000;color:#000000;fill:#e9b96e;fill-opacity:1.0000000;fill-rule:evenodd;stroke:#e9b96e;stroke-width:1.0000000px;stroke-linecap:round;stroke-linejoin:round;marker:none;marker-start:none;marker-mid:none;marker-end:none;stroke-miterlimit:4.0000000;stroke-dasharray:none;stroke-dashoffset:0.0000000;stroke-opacity:1.0000000;visibility:visible;display:inline;overflow:visible;font-family:Bitstream Vera Sans" />
    <rect
       style="opacity:1.0000000;color:#000000;fill:#b67610;fill-opacity:1.0000000;fill-rule:evenodd;stroke:#7b500b;stroke-width:1.0000000px;stroke-linecap:round;stroke-linejoin:round;marker:none;marker-start:none;marker-mid:none;marker-end:none;stroke-miterlimit:4.0000000;stroke-dasharray:none;stroke-dashoffset:0.0000000;stroke-opacity:1.0000000;visibility:visible;display:inline;overflow:visible;font-family:Bitstream Vera Sans"
       id="rect1416"
       width="21.000000"
       height="10.055458"
       x="14.573223"
       y="28.474876"
       rx="0.92857140"
       ry="0.92857140" />
    <path
       id="path2358"
       d="M 11.680550,12.062494 L 11.680550,41.652758 L 38.569426,41.652758 L 38.569426,12.062494 L 35.166650,8.6597185 L 15.083327,8.6597185 L 11.680550,12.062494 z "
       style="stroke-opacity:1.0000000;stroke-linejoin:miter;stroke-linecap:butt;stroke-width:1.0000000;stroke:url(#linearGradient2374);fill-rule:evenodd;fill-opacity:1.0;fill:none;stroke-dasharray:none;stroke-miterlimit:4.0000000"
       sodipodi:nodetypes="ccccccc" />
    <rect
       style="opacity:1.0000000;color:#000000;fill:#e9b96e;fill-opacity:1.0000000;fill-rule:evenodd;stroke:#e9b96e;stroke-width:1.0000000px;stroke-linecap:round;stroke-linejoin:round;marker:none;marker-start:none;marker-mid:none;marker-end:none;stroke-miterlimit:4.0000000;stroke-dasharray:none;stroke-dashoffset:0.0000000;stroke-opacity:1.0000000;visibility:visible;display:inline;overflow:visible;font-family:Bitstream Vera Sans"
       id="rect3081"
       width="21.000000"
       height="10.055458"
       x="14.750000"
       y="15.715860"
       rx="0.92857140"
       ry="0.92857140" />
    <rect
       ry="0.92857140"
       rx="0.92857140"
       y="15.362308"
       x="14.573223"
       height="10.055458"
       width="21.000000"
       id="rect3077"
       style="font-family:Bitstream Vera Sans;overflow:visible;display:inline;visibility:visible;stroke-opacity:1.0000000;stroke-dashoffset:0.0000000;stroke-dasharray:none;stroke-miterlimit:4.0000000;marker-end:none;marker-mid:none;marker-start:none;marker:none;stroke-linejoin:round;stroke-linecap:round;stroke-width:1.0000000px;stroke:#7b500b;fill-rule:evenodd;fill-opacity:1.0000000;fill:#b67610;color:#000000;opacity:1.0000000" />
    <rect
       style="opacity:1.0000000;color:#000000;fill:url(#linearGradient3091);fill-opacity:1.0000000;fill-rule:evenodd;stroke:#7b500b;stroke-width:0.99999923px;stroke-linecap:round;stroke-linejoin:round;marker:none;marker-start:none;marker-mid:none;marker-end:none;stroke-miterlimit:4.0000000;stroke-dasharray:none;stroke-dashoffset:0.0000000;stroke-opacity:1.0000000;visibility:visible;display:inline;overflow:visible;font-family:Bitstream Vera Sans"
       id="rect3079"
       width="6.7473836"
       height="3.8216934"
       x="21.743721"
       y="21.569220"
       rx="0.28662863"
       ry="0.33735332" />
    <rect
       ry="0.33735332"
       rx="0.28662863"
       y="34.681808"
       x="21.743721"
       height="3.8216934"
       width="6.7473836"
       id="rect3093"
       style="opacity:1.0000000;color:#000000;fill:url(#linearGradient3095);fill-opacity:1.0000000;fill-rule:evenodd;stroke:#7b500b;stroke-width:0.99999923px;stroke-linecap:round;stroke-linejoin:round;marker:none;marker-start:none;marker-mid:none;marker-end:none;stroke-miterlimit:4.0000000;stroke-dasharray:none;stroke-dashoffset:0.0000000;stroke-opacity:1.0000000;visibility:visible;display:inline;overflow:visible;font-family:Bitstream Vera Sans" />
    <g
       inkscape:label="Layer 1"
       id="g2532"
       style="display:inline"
       transform="matrix(0.4290643,0,0,0.4290643,49.278081,21.909482)">
      <g
         inkscape:label="Layer 1"
         id="g6513"
         style="display:inline"
         transform="matrix(1.4,0,0,1.4,-69.207907,-8.7227086)">
        <path
           transform="matrix(-1.489736,0,0,-1.001252,61.00076,76.05932)"
           d="M 40.481863,36.421127 A 15.644737,8.3968935 0 1 1 9.1923885,36.421127 A 15.644737,8.3968935 0 1 1 40.481863,36.421127 z"
           sodipodi:ry="8.3968935"
           sodipodi:rx="15.644737"
           sodipodi:cy="36.421127"
           sodipodi:cx="24.837126"
           id="path6515"
           style="opacity:0.38333333;fill:url(#radialGradient2863);fill-opacity:1;fill-rule:evenodd;stroke:none;stroke-width:1;stroke-linecap:butt;stroke-linejoin:miter;marker:none;marker-start:none;marker-mid:none;marker-end:none;stroke-miterlimit:10;stroke-dasharray:none;stroke-dashoffset:0;stroke-opacity:1;visibility:visible;display:inline;overflow:visible"
           sodipodi:type="arc"
           inkscape:r_cx="true"
           inkscape:r_cy="true" />
      </g>
      <g
         style="display:inline"
         id="g3267"
         transform="matrix(0.5343472,0,0,0.5328535,-162.89657,-11.290359)">
        <path
           style="fill:url(#linearGradient2865);fill-opacity:1;stroke:#888888;stroke-width:4.07779169;stroke-linecap:round;stroke-linejoin:round;stroke-miterlimit:4;stroke-dasharray:none;stroke-opacity:1"
           id="path6518"
           d="M 293.22017,52.095669 L 288.56268,52.095669 C 287.30566,52.095669 285.85218,51.046471 285.45252,49.851956 C 285.43026,49.789953 282.56205,42.828238 282.56205,42.828238 C 281.97175,41.637595 282.25722,39.868589 283.14558,38.977303 L 286.43861,35.6747 C 287.19535,34.915173 287.61336,33.90182 287.61336,32.821618 C 287.61336,31.742389 287.19535,30.729038 286.43861,29.969506 L 273.47255,16.967393 C 272.71582,16.207861 271.70556,15.789346 270.62851,15.789346 C 269.55149,15.789346 268.54121,16.207861 267.78447,16.967393 L 264.49144,20.269026 C 263.60309,21.159343 261.83806,21.446104 260.71457,20.883237 C 260.65165,20.854172 253.7085,17.978809 253.7085,17.978809 C 252.45437,17.554479 251.4083,16.097421 251.4083,14.837029 L 251.4083,10.165528 C 251.4054,7.9402209 249.60066,6.1305236 247.38272,6.1305236 L 229.04697,6.1305236 C 226.82806,6.1305236 225.02332,7.9402209 225.02332,10.165528 L 225.02332,14.837029 C 225.02332,16.097421 223.97725,17.555447 222.78601,17.955557 C 222.72409,17.978809 215.78094,20.854172 215.78094,20.854172 C 214.59356,21.446104 212.82851,21.159343 211.94018,20.269026 L 208.64714,16.967393 C 207.88945,16.207861 206.87918,15.789346 205.80215,15.789346 C 204.72508,15.789346 203.71482,16.20883 202.95809,16.967393 L 189.99108,29.969506 C 188.42244,31.542817 188.42244,34.102358 189.99108,35.6747 L 193.28412,38.977303 C 194.17149,39.867619 194.45793,41.637595 193.89666,42.765266 C 193.86763,42.828238 190.99941,49.790922 190.99941,49.790922 C 190.57654,51.048409 189.12403,52.096639 187.86702,52.096639 L 184.41623,52.096639 C 182.19827,52.095669 179.18588,53.905369 179.18588,56.130675 L 179.18588,74.517314 C 179.18588,76.741653 180.99062,78.551351 183.20953,78.551351 L 187.86798,78.551351 C 189.12499,78.551351 190.57846,79.599582 190.97716,80.795066 C 191.00038,80.857069 193.8686,87.818784 193.8686,87.818784 C 194.45892,89.009425 194.17246,90.779402 193.28509,91.670688 L 189.99205,94.973288 C 188.42341,96.545631 188.42341,99.106139 189.99205,100.6785 L 202.95907,113.68059 C 203.7158,114.44014 204.72606,114.85864 205.80312,114.85864 C 206.88111,114.85864 207.89137,114.44014 208.64811,113.68059 L 211.94115,110.37897 C 212.8295,109.48867 214.59453,109.20094 215.71802,109.76477 C 215.78094,109.79286 222.72409,112.66917 222.72409,112.66917 C 223.97725,113.09353 225.02332,114.54958 225.02332,115.81097 L 225.02332,120.48149 C 225.02332,122.70681 226.82806,124.51649 229.04697,124.51649 L 247.38175,124.51649 C 249.59969,124.51649 251.40443,122.70681 251.40443,120.48149 L 251.40443,115.81097 C 251.40443,114.54958 252.4505,113.09255 253.6427,112.69146 C 253.70463,112.66917 260.64779,109.79286 260.64779,109.79286 C 261.83515,109.20094 263.60116,109.48867 264.48852,110.37801 L 267.78157,113.67963 C 268.53831,114.43918 269.54857,114.85768 270.62561,114.85768 C 271.70266,114.85768 272.71292,114.43918 273.46964,113.67963 L 286.43569,100.67752 C 287.19244,99.918962 287.61046,98.905602 287.61046,97.825403 C 287.61046,96.745203 287.19244,95.731851 286.43569,94.973288 L 283.14266,91.670688 C 282.25432,90.780372 281.96884,89.009425 282.53013,87.883692 C 282.55915,87.819751 285.42737,80.858037 285.42737,80.858037 C 285.85026,79.599582 287.30275,78.551351 288.55978,78.551351 L 293.21726,78.551351 C 295.43615,78.551351 297.24091,76.741653 297.24091,74.517314 L 297.24091,56.130675 C 297.24382,53.905369 295.43907,52.095669 293.22017,52.095669 z M 238.2134,80.632182 C 230.26223,80.632182 222.88391,73.470276 222.94751,65.323499 C 223.01028,57.239784 230.07243,49.870805 238.2134,50.014816 C 246.27494,50.158823 253.47929,57.111967 253.47929,65.323499 C 253.47929,73.385266 246.54524,80.695968 238.2134,80.632182 z"
           sodipodi:nodetypes="ccscccsccsccscccccccscccsccccscccccccscccccsccscccccccscccsccsccscccccccsssc" />
        <g
           transform="matrix(1,0,0,0.9948255,-2.3885519,-0.1709395)"
           id="g6520">
          <path
             d="M 240.60195,32.860152 C 221.7406,32.860152 207.88933,46.806367 207.88933,65.835102 C 207.88933,84.863834 221.7406,98.810053 240.60195,98.810053 C 259.46332,98.810053 273.31458,84.863834 273.31458,65.835102 C 273.31458,46.806367 259.46332,32.860152 240.60195,32.860152 z M 240.5166,91.393983 C 226.62114,91.393983 215.35827,80.031984 215.35827,66.012385 C 215.35827,51.992786 226.62114,40.630786 240.5166,40.630786 C 254.41209,40.630786 265.67496,51.993612 265.67496,66.012385 C 265.67496,80.031156 254.41209,91.393983 240.5166,91.393983 z"
             id="path6522"
             style="fill:url(#linearGradient2867);stroke:url(#linearGradient2869);stroke-width:4.37913656;stroke-miterlimit:4;stroke-dasharray:none"
             sodipodi:nodetypes="csssccsssc" />
          <path
             d="M 240.60195,37.256812 C 223.74533,37.256812 212.25102,48.944074 212.25102,65.835102 C 212.25102,82.726127 223.74533,94.413393 240.60195,94.413393 C 257.45858,94.413393 268.95289,82.726127 268.95289,65.835102 C 268.95289,48.944074 257.45858,37.256812 240.60195,37.256812 z M 240.60195,85.620073 C 229.45382,85.620073 220.91078,74.88913 220.97438,65.835102 C 221.04329,55.818558 229.4538,46.050132 240.60195,46.050132 C 251.74911,46.050132 260.16593,56.908323 260.22953,65.835102 C 260.30856,77.004736 249.65007,85.748309 240.60195,85.620073 z"
             id="path6524"
             style="fill:url(#linearGradient2871);stroke:url(#linearGradient2873);stroke-width:4.08838367;stroke-miterlimit:4;stroke-dasharray:none;stroke-opacity:1"
             sodipodi:nodetypes="csssccsssc" />
        </g>
      </g>
    </g>
  </g>
</svg>
