<?xml version="1.0" encoding="UTF-8" standalone="no"?>
<!-- Created with Inkscape (http://www.inkscape.org/) -->
<svg xmlns:dc="http://purl.org/dc/elements/1.1/" xmlns:cc="http://web.resource.org/cc/" xmlns:rdf="http://www.w3.org/1999/02/22-rdf-syntax-ns#" xmlns:svg="http://www.w3.org/2000/svg" xmlns="http://www.w3.org/2000/svg" xmlns:xlink="http://www.w3.org/1999/xlink" xmlns:sodipodi="http://sodipodi.sourceforge.net/DTD/sodipodi-0.dtd" xmlns:inkscape="http://www.inkscape.org/namespaces/inkscape" width="48px" height="48px" id="svg1307" sodipodi:version="0.32" inkscape:version="0.45.1" sodipodi:docbase="/home/dobey/.icons/hicolor/48x48/apps" sodipodi:docname="openttd.svg" inkscape:output_extension="org.inkscape.output.svg.inkscape">
  <defs id="defs1309">
    <radialGradient inkscape:collect="always" xlink:href="#linearGradient5048" id="radialGradient2436" gradientUnits="userSpaceOnUse" gradientTransform="matrix(-0.0300609, 0, 0, 0.0164706, 21.8589, 11.9611)" cx="605.71429" cy="486.64789" fx="605.71429" fy="486.64789" r="117.14286"/>
    <radialGradient inkscape:collect="always" xlink:href="#linearGradient5048" id="radialGradient2434" gradientUnits="userSpaceOnUse" gradientTransform="matrix(0.0300609, 0, 0, 0.0164706, 0.141071, 11.9611)" cx="605.71429" cy="486.64789" fx="605.71429" fy="486.64789" r="117.14286"/>
    <linearGradient inkscape:collect="always" xlink:href="#linearGradient5048" id="linearGradient2432" gradientUnits="userSpaceOnUse" gradientTransform="matrix(0.0300609, 0, 0, 0.0164706, 0.135155, 11.9611)" x1="302.85715" y1="366.64789" x2="302.85715" y2="609.50507"/>
    <linearGradient inkscape:collect="always" id="linearGradient7197">
      <stop style="stop-color: black; stop-opacity: 1;" offset="0" id="stop7199"/>
      <stop style="stop-color: black; stop-opacity: 0;" offset="1" id="stop7201"/>
    </linearGradient>
    <radialGradient inkscape:collect="always" xlink:href="#linearGradient7197" id="radialGradient7203" cx="16" cy="27.875" fx="16" fy="27.875" r="12.125" gradientTransform="matrix(1, 0, 0, 0.28866, 0, 19.8286)" gradientUnits="userSpaceOnUse"/>
    <linearGradient id="linearGradient2774">
      <stop style="stop-color: rgb(101, 101, 101); stop-opacity: 1;" offset="0" id="stop2776"/>
      <stop style="stop-color: rgb(95, 98, 93); stop-opacity: 0;" offset="1" id="stop2778"/>
    </linearGradient>
    <linearGradient inkscape:collect="always" id="linearGradient2824">
      <stop style="stop-color: rgb(239, 41, 41); stop-opacity: 1;" offset="0" id="stop2826"/>
      <stop style="stop-color: rgb(239, 41, 41); stop-opacity: 0;" offset="1" id="stop2828"/>
    </linearGradient>
    <linearGradient inkscape:collect="always" id="linearGradient2816">
      <stop style="stop-color: rgb(164, 0, 0); stop-opacity: 1;" offset="0" id="stop2818"/>
      <stop style="stop-color: rgb(164, 0, 0); stop-opacity: 0;" offset="1" id="stop2820"/>
    </linearGradient>
    <linearGradient inkscape:collect="always" id="linearGradient2806">
      <stop style="stop-color: rgb(164, 0, 0); stop-opacity: 1;" offset="0" id="stop2808"/>
      <stop style="stop-color: rgb(164, 0, 0); stop-opacity: 0;" offset="1" id="stop2810"/>
    </linearGradient>
    <linearGradient inkscape:collect="always" id="linearGradient2798">
      <stop style="stop-color: rgb(239, 41, 41); stop-opacity: 1;" offset="0" id="stop2800"/>
      <stop style="stop-color: rgb(239, 41, 41); stop-opacity: 0;" offset="1" id="stop2802"/>
    </linearGradient>
    <linearGradient inkscape:collect="always" id="linearGradient2785">
      <stop style="stop-color: rgb(173, 127, 168); stop-opacity: 1;" offset="0" id="stop2787"/>
      <stop style="stop-color: rgb(173, 127, 168); stop-opacity: 0;" offset="1" id="stop2789"/>
    </linearGradient>
    <linearGradient inkscape:collect="always" id="linearGradient2777">
      <stop style="stop-color: rgb(92, 53, 102); stop-opacity: 1;" offset="0" id="stop2779"/>
      <stop style="stop-color: rgb(92, 53, 102); stop-opacity: 0;" offset="1" id="stop2781"/>
    </linearGradient>
    <linearGradient id="linearGradient5048">
      <stop style="stop-color: black; stop-opacity: 0;" offset="0" id="stop5050"/>
      <stop id="stop5056" offset="0.5" style="stop-color: black; stop-opacity: 1;"/>
      <stop style="stop-color: black; stop-opacity: 0;" offset="1" id="stop5052"/>
    </linearGradient>
    <linearGradient id="linearGradient5060">
      <stop style="stop-color: rgb(173, 127, 168); stop-opacity: 1;" offset="0.0000000" id="stop5062"/>
      <stop style="stop-color: rgb(117, 80, 123); stop-opacity: 0.8;" offset="1.0000000" id="stop5064"/>
    </linearGradient>
    <linearGradient inkscape:collect="always" xlink:href="#linearGradient2777" id="linearGradient2783" x1="-3.0805724" y1="50.486702" x2="3.1534345" y2="17.749054" gradientUnits="userSpaceOnUse"/>
    <linearGradient inkscape:collect="always" xlink:href="#linearGradient2785" id="linearGradient2791" x1="8.7346888" y1="17.990612" x2="1.8955104" y2="50.985203" gradientUnits="userSpaceOnUse"/>
    <linearGradient inkscape:collect="always" xlink:href="#linearGradient2798" id="linearGradient2804" x1="15.285714" y1="35.999981" x2="18.857143" y2="45.642834" gradientUnits="userSpaceOnUse"/>
    <linearGradient inkscape:collect="always" xlink:href="#linearGradient2806" id="linearGradient2812" x1="41.642857" y1="45.999977" x2="23.428572" y2="35.999981" gradientUnits="userSpaceOnUse"/>
    <linearGradient inkscape:collect="always" xlink:href="#linearGradient2816" id="linearGradient2822" x1="14.000006" y1="46.000011" x2="2.0000019" y2="39.000008" gradientUnits="userSpaceOnUse"/>
    <linearGradient inkscape:collect="always" xlink:href="#linearGradient2824" id="linearGradient2830" x1="3.9642875" y1="39.000008" x2="8.9642916" y2="46.000011" gradientUnits="userSpaceOnUse"/>
    <linearGradient inkscape:collect="always" xlink:href="#linearGradient2816" id="linearGradient2836" gradientUnits="userSpaceOnUse" x1="1.9821398" y1="45.625011" x2="14.000001" y2="39.000008" gradientTransform="matrix(-1, 0, 0, 1, 47.9821, -7.88079e-06)"/>
    <linearGradient inkscape:collect="always" xlink:href="#linearGradient2824" id="linearGradient2838" gradientUnits="userSpaceOnUse" x1="11.035356" y1="39.000008" x2="6.9439864" y2="45.625011" gradientTransform="matrix(-1, 0, 0, 1, 47.9821, -7.88079e-06)"/>
  </defs>
  <sodipodi:namedview id="base" pagecolor="#ffffff" bordercolor="#666666" borderopacity="1.0" inkscape:pageopacity="0.0" inkscape:pageshadow="2" inkscape:zoom="14" inkscape:cx="23.510963" inkscape:cy="17.813204" inkscape:current-layer="layer1" showgrid="true" inkscape:grid-bbox="true" inkscape:document-units="px" inkscape:window-width="822" inkscape:window-height="893" inkscape:window-x="199" inkscape:window-y="36"/>
  <metadata id="metadata1312">
    <rdf:RDF>
      <cc:Work rdf:about="">
        <dc:format>image/svg+xml</dc:format>
        <dc:type rdf:resource="http://purl.org/dc/dcmitype/StillImage"/>
        <dc:title>OpenTTD</dc:title>
        <dc:creator>
          <cc:Agent>
            <dc:title>Rodney Dawes</dc:title>
          </cc:Agent>
        </dc:creator>
        <cc:license rdf:resource="http://creativecommons.org/licenses/GPL/2.0/"/>
        <dc:date>2007-02-25</dc:date>
        <dc:subject>
          <rdf:Bag>
            <rdf:li>game</rdf:li>
            <rdf:li>openttd</rdf:li>
          </rdf:Bag>
        </dc:subject>
      </cc:Work>
      <cc:License rdf:about="http://creativecommons.org/licenses/GPL/2.0/">
        <cc:permits rdf:resource="http://web.resource.org/cc/Reproduction"/>
        <cc:permits rdf:resource="http://web.resource.org/cc/Distribution"/>
        <cc:requires rdf:resource="http://web.resource.org/cc/Notice"/>
        <cc:permits rdf:resource="http://web.resource.org/cc/DerivativeWorks"/>
        <cc:requires rdf:resource="http://web.resource.org/cc/ShareAlike"/>
        <cc:requires rdf:resource="http://web.resource.org/cc/SourceCode"/>
      </cc:License>
    </rdf:RDF>
  </metadata>
  <g id="layer1" inkscape:label="Layer 1" inkscape:groupmode="layer">
    <rect style="opacity: 1; fill: rgb(117, 80, 123); fill-opacity: 1; stroke: rgb(92, 53, 102); stroke-width: 1; stroke-linecap: round; stroke-linejoin: round; stroke-miterlimit: 4; stroke-dasharray: none; stroke-opacity: 1;" id="rect1315" width="31.823822" height="31.823822" x="-15.855416" y="18.029127" transform="matrix(0.708283, -0.705929, 0.705929, 0.708283, 0, 0)"/>
    <rect style="opacity: 1; fill: url(#linearGradient2783) rgb(0, 0, 0); fill-opacity: 1; stroke: url(#linearGradient2791) rgb(0, 0, 0); stroke-width: 1; stroke-linecap: round; stroke-linejoin: round; stroke-miterlimit: 4; stroke-dasharray: none; stroke-opacity: 1;" id="rect1387" width="30.390772" height="30.390795" x="-15.133995" y="18.745661" transform="matrix(0.708282, -0.70593, 0.70593, 0.708282, 0, 0)"/>
    <path d="M 24.172556,39.342274 L 22.511902,39.342274 L 22.495296,34.34371 C 21.332828,34.321566 20.170372,34.188715 19.007924,33.945154 C 17.845463,33.690518 16.67747,33.314106 15.503947,32.815907 L 15.503947,29.826735 C 16.633187,30.535282 17.7735,31.072227 18.924892,31.437567 C 20.087342,31.791841 21.283009,31.974513 22.511902,31.985584 L 22.511902,24.413006 C 20.065199,24.014458 18.282768,23.339127 17.164599,22.387008 C 16.057494,21.434914 15.503944,20.128535 15.503947,18.467866 C 15.503944,16.663309 16.107313,15.240683 17.314059,14.19999 C 18.520794,13.159335 20.253406,12.561501 22.511902,12.406486 L 22.511902,8.5039492 L 24.500856,8.5039492 L 24.500856,12.356665 C 25.530446,12.400971 26.198536,12.511683 27.161731,12.688795 C 28.124892,12.854881 29.596259,13.188388 30.51517,13.487285 L 30.51517,16.393426 C 29.596259,15.928461 28.119357,15.467639 27.145124,15.212988 C 26.18193,14.958374 25.519377,14.733155 24.500856,14.688851 L 24.500856,21.779838 C 27.013962,22.167335 28.534519,22.935034 29.719136,23.931416 C 30.903717,24.927818 31.496014,26.289552 31.496034,28.016622 C 31.496014,29.887629 30.864968,31.365608 29.60289,32.450564 C 28.351848,33.524455 26.87004,34.119178 24.500856,34.285242 L 24.500856,39.31702 M 22.511902,21.556682 L 22.511902,14.748003 C 21.227656,14.891949 20.24787,15.257292 19.572548,15.844036 C 18.897208,16.430818 18.559543,17.211324 18.55955,18.185557 C 18.559543,19.13768 18.869532,19.879435 19.489514,20.410831 C 20.120554,20.942254 21.128017,21.324205 22.511902,21.556682 M 24.500856,24.694628 L 24.500856,31.885256 C 25.906863,31.69705 26.635842,31.349001 27.344401,30.740094 C 28.064003,30.13119 28.423811,29.328542 28.423828,28.332145 C 28.423811,27.357904 28.080608,26.582932 27.39422,26.007233 C 26.718876,25.431547 25.973287,24.960341 24.500856,24.694628 z " id="flowRoot2196" style="fill: rgb(237, 212, 0); fill-opacity: 1; stroke: rgb(252, 233, 79); stroke-opacity: 1;" sodipodi:nodetypes="ccccccccccsscccccccsccsssccccssscccsssc"/>
    <path style="fill: rgb(204, 0, 0); fill-opacity: 1; stroke: rgb(164, 0, 0); stroke-width: 1; stroke-linecap: round; stroke-linejoin: round; stroke-miterlimit: 4; stroke-opacity: 1; stroke-dasharray: none;" d="M 1.5000001,39.727469 C 1.5000001,39.727469 4.7500001,38.52202 8.0000001,38.52202 C 11.25,38.52202 14.5,39.727469 14.5,39.727469 L 14.5,44.049407 C 14.5,44.049407 11.321429,45.212258 8.0714287,45.212258 C 4.8214287,45.212258 1.5000001,46.477978 1.5000001,46.477978 L 1.5000001,39.727469 z " id="rect2205" sodipodi:nodetypes="czcczcc"/>
    <path style="fill: url(#linearGradient2822) rgb(0, 0, 0); fill-opacity: 1; stroke: url(#linearGradient2830) rgb(0, 0, 0); stroke-width: 1; stroke-linecap: round; stroke-linejoin: round; stroke-miterlimit: 4; stroke-opacity: 1;" d="M 2.5000021,40.4091 C 2.5000021,40.4091 5.2500033,39.500008 8.0000046,39.500008 C 10.750005,39.500008 13.500006,40.4091 13.500006,40.4091 L 13.500006,43.668498 C 13.500006,43.668498 10.774732,44.170464 8.0247299,44.170464 C 5.2747286,44.170464 2.482145,45.12501 2.482145,45.12501 L 2.5000021,40.4091 z " id="path2814" sodipodi:nodetypes="czcczcc"/>
    <path style="fill: rgb(204, 0, 0); fill-opacity: 1; stroke: rgb(164, 0, 0); stroke-width: 1; stroke-linecap: round; stroke-linejoin: round; stroke-miterlimit: 4; stroke-opacity: 1;" d="M 33.5,39.712124 C 33.5,39.712124 36.75,38.500002 40,38.500002 C 43.25,38.500002 46.5,39.712124 46.5,39.712124 L 46.5,46.500002 C 46.5,46.500002 43.321429,45.227275 40.071429,45.227275 C 36.821429,45.227275 33.5,43.550508 33.5,43.550508 L 33.5,39.712124 z " id="path2208" sodipodi:nodetypes="czcczcc"/>
    <path style="fill: url(#linearGradient2836) rgb(0, 0, 0); fill-opacity: 1; stroke: url(#linearGradient2838) rgb(0, 0, 0); stroke-width: 1; stroke-linecap: round; stroke-linejoin: round; stroke-miterlimit: 4; stroke-opacity: 1;" d="M 45.482143,40.409092 C 45.482143,40.409092 42.732141,39.5 39.98214,39.5 C 37.23214,39.5 34.482139,40.409092 34.482139,40.409092 L 34.482139,43.66849 C 34.482139,43.66849 37.207413,44.170456 39.957415,44.170456 C 42.707416,44.170456 45.5,45.125002 45.5,45.125002 L 45.482143,40.409092 z " id="path2834" sodipodi:nodetypes="czcczcc"/>
    <path style="fill: rgb(204, 0, 0); fill-opacity: 1; stroke: rgb(164, 0, 0); stroke-width: 1; stroke-linecap: round; stroke-linejoin: round; stroke-miterlimit: 4; stroke-opacity: 1;" d="M 5.5000002,37.166681 C 5.5000002,37.166681 14.750003,35.500013 24.000005,35.500013 C 33.250006,35.500013 42.500007,37.166681 42.500007,37.166681 L 42.500007,46.500017 C 42.500007,46.500017 33.453304,44.750017 24.203303,44.750017 C 14.953301,44.750017 5.5000002,46.500017 5.5000002,46.500017 L 5.5000002,37.166681 z " id="path2210" sodipodi:nodetypes="czcczcc"/>
    <path style="fill: url(#linearGradient2812) rgb(0, 0, 0); fill-opacity: 1; stroke: url(#linearGradient2804) rgb(0, 0, 0); stroke-width: 1; stroke-linecap: round; stroke-linejoin: round; stroke-miterlimit: 4; stroke-opacity: 1;" d="M 6.5000002,38.04219 C 6.5000002,38.04219 15.250001,36.499983 24.000002,36.499983 C 32.750001,36.499983 41.464286,38.006476 41.464286,38.006476 L 41.5,45.321406 C 41.5,45.321406 32.763739,43.81816 24.01374,43.81816 C 15.263739,43.81816 6.5357145,45.285691 6.5357145,45.285691 L 6.5000002,38.04219 z " id="path2796" sodipodi:nodetypes="czcczcc"/>
  </g>
</svg>