<?xml version="1.0" encoding="UTF-8" standalone="no"?>
<!-- Created with Inkscape (http://www.inkscape.org/) -->
<svg
   xmlns:dc="http://purl.org/dc/elements/1.1/"
   xmlns:cc="http://web.resource.org/cc/"
   xmlns:rdf="http://www.w3.org/1999/02/22-rdf-syntax-ns#"
   xmlns:svg="http://www.w3.org/2000/svg"
   xmlns="http://www.w3.org/2000/svg"
   xmlns:xlink="http://www.w3.org/1999/xlink"
   xmlns:sodipodi="http://sodipodi.sourceforge.net/DTD/sodipodi-0.dtd"
   xmlns:inkscape="http://www.inkscape.org/namespaces/inkscape"
   width="48"
   height="48"
   id="svg2"
   sodipodi:version="0.32"
   inkscape:version="0.45.1"
   version="1.0"
   sodipodi:docbase="/home/mark/Projects/Tango Icons/referencer"
   sodipodi:docname="referencer.svg"
   inkscape:export-filename="/home/ulisse/Desktop/accessories-dictionary.png"
   inkscape:export-xdpi="90"
   inkscape:export-ydpi="90"
   inkscape:output_extension="org.inkscape.output.svg.inkscape">
  <defs
     id="defs4">
    <linearGradient
       inkscape:collect="always"
       id="linearGradient2309">
      <stop
         style="stop-color:#ffffff;stop-opacity:1;"
         offset="0"
         id="stop2311" />
      <stop
         style="stop-color:#ffffff;stop-opacity:0;"
         offset="1"
         id="stop2313" />
    </linearGradient>
    <linearGradient
       inkscape:collect="always"
       id="linearGradient2301">
      <stop
         style="stop-color:#790000;stop-opacity:1"
         offset="0"
         id="stop2303" />
      <stop
         style="stop-color:#b03636;stop-opacity:1"
         offset="1"
         id="stop2305" />
    </linearGradient>
    <linearGradient
       inkscape:collect="always"
       id="linearGradient2286">
      <stop
         style="stop-color:#555753"
         offset="0"
         id="stop2288" />
      <stop
         style="stop-color:#555753;stop-opacity:0"
         offset="1"
         id="stop2290" />
    </linearGradient>
    <linearGradient
       inkscape:collect="always"
       id="linearGradient2276">
      <stop
         style="stop-color:#babdb6;stop-opacity:1;"
         offset="0"
         id="stop2278" />
      <stop
         style="stop-color:#8f9488;stop-opacity:1"
         offset="1"
         id="stop2280" />
    </linearGradient>
    <linearGradient
       inkscape:collect="always"
       id="linearGradient2258">
      <stop
         style="stop-color:#ffa4a4;stop-opacity:1"
         offset="0"
         id="stop2260" />
      <stop
         style="stop-color:#a40000"
         offset="1"
         id="stop2262" />
    </linearGradient>
    <linearGradient
       inkscape:collect="always"
       id="linearGradient2235">
      <stop
         style="stop-color:#cccccc;stop-opacity:1"
         offset="0"
         id="stop2237" />
      <stop
         style="stop-color:#9b9b9b;stop-opacity:1"
         offset="1"
         id="stop2239" />
    </linearGradient>
    <linearGradient
       inkscape:collect="always"
       id="linearGradient2229">
      <stop
         style="stop-color:#888a85"
         offset="0"
         id="stop2231" />
      <stop
         style="stop-color:#d3d7cf;stop-opacity:0;"
         offset="1"
         id="stop2233" />
    </linearGradient>
    <linearGradient
       id="linearGradient2221"
       inkscape:collect="always">
      <stop
         id="stop2223"
         offset="0"
         style="stop-color:#babdb6" />
      <stop
         id="stop2225"
         offset="1"
         style="stop-color:#d3d7cf;stop-opacity:0;" />
    </linearGradient>
    <linearGradient
       inkscape:collect="always"
       id="linearGradient2184">
      <stop
         style="stop-color:#ffffff;stop-opacity:1;"
         offset="0"
         id="stop2186" />
      <stop
         style="stop-color:#e3e3e3;stop-opacity:1"
         offset="1"
         id="stop2188" />
    </linearGradient>
    <linearGradient
       inkscape:collect="always"
       xlink:href="#linearGradient2229"
       id="linearGradient2211"
       x1="24"
       y1="19.505583"
       x2="19.982143"
       y2="19.550226"
       gradientUnits="userSpaceOnUse"
       gradientTransform="matrix(-1,0,0,1,48,0)" />
    <linearGradient
       inkscape:collect="always"
       xlink:href="#linearGradient2221"
       id="linearGradient2219"
       x1="24"
       y1="19.996655"
       x2="32"
       y2="19.90625"
       gradientUnits="userSpaceOnUse"
       gradientTransform="matrix(-1,0,0,1,48,0)" />
    <linearGradient
       inkscape:collect="always"
       xlink:href="#linearGradient2184"
       id="linearGradient2245"
       gradientUnits="userSpaceOnUse"
       x1="15.714286"
       y1="16.82852"
       x2="36.482143"
       y2="20.667807" />
    <linearGradient
       inkscape:collect="always"
       xlink:href="#linearGradient2235"
       id="linearGradient2247"
       gradientUnits="userSpaceOnUse"
       x1="19.940901"
       y1="10.918805"
       x2="24"
       y2="22.750927" />
    <linearGradient
       inkscape:collect="always"
       xlink:href="#linearGradient2258"
       id="linearGradient2264"
       x1="32.794643"
       y1="21.696428"
       x2="34.79464"
       y2="32.321426"
       gradientUnits="userSpaceOnUse" />
    <linearGradient
       inkscape:collect="always"
       xlink:href="#linearGradient2276"
       id="linearGradient2282"
       x1="37.535713"
       y1="34.196426"
       x2="9.9285688"
       y2="20.089285"
       gradientUnits="userSpaceOnUse" />
    <radialGradient
       inkscape:collect="always"
       xlink:href="#linearGradient2286"
       id="radialGradient2292"
       cx="24"
       cy="36.75"
       fx="24"
       fy="36.75"
       r="22.5"
       gradientTransform="matrix(1,0,0,0.3,-3.16587e-17,25.725)"
       gradientUnits="userSpaceOnUse" />
    <linearGradient
       inkscape:collect="always"
       xlink:href="#linearGradient2301"
       id="linearGradient2307"
       x1="23.955357"
       y1="10.008928"
       x2="29.214285"
       y2="30.276785"
       gradientUnits="userSpaceOnUse" />
    <linearGradient
       inkscape:collect="always"
       xlink:href="#linearGradient2309"
       id="linearGradient2315"
       x1="6.7230334"
       y1="37.683041"
       x2="37.804565"
       y2="29.096745"
       gradientUnits="userSpaceOnUse" />
    <linearGradient
       gradientTransform="matrix(0.6382398,0,0,0.6382254,18.730536,-5.134534)"
       gradientUnits="userSpaceOnUse"
       y2="16.839214"
       x2="68.910904"
       y1="-9.3832779"
       x1="63.397362"
       id="linearGradient4879"
       xlink:href="#linearGradient4873"
       inkscape:collect="always" />
    <radialGradient
       gradientUnits="userSpaceOnUse"
       gradientTransform="matrix(2.643979,0,-2.93653e-8,2.534421,-28.97514,-41.1733)"
       r="9.125"
       fy="24.149399"
       fx="17.81411"
       cy="24.149399"
       cx="17.81411"
       id="radialGradient4851"
       xlink:href="#linearGradient4845"
       inkscape:collect="always" />
    <radialGradient
       inkscape:collect="always"
       xlink:href="#linearGradient8740"
       id="radialGradient9207"
       gradientUnits="userSpaceOnUse"
       gradientTransform="matrix(0.918134,0,0,0.854079,2.429764,1.490099)"
       cx="62.225391"
       cy="-3.4420195"
       fx="62.225391"
       fy="-3.4420195"
       r="10.081216" />
    <radialGradient
       inkscape:collect="always"
       xlink:href="#linearGradient8918"
       id="radialGradient9205"
       gradientUnits="userSpaceOnUse"
       gradientTransform="matrix(6.168149e-2,2.223638,-1.495968,4.148028e-2,50.51125,-44.50839)"
       cx="25.969097"
       cy="17.257854"
       fx="25.968998"
       fy="17.257843"
       r="9.8222504" />
    <radialGradient
       inkscape:collect="always"
       xlink:href="#linearGradient8740"
       id="radialGradient8824"
       gradientUnits="userSpaceOnUse"
       gradientTransform="matrix(1,0,0,0.930233,0,-0.240141)"
       cx="62.225391"
       cy="-3.4420195"
       fx="62.225391"
       fy="-3.4420195"
       r="10.081216" />
    <linearGradient
       id="linearGradient8918">
      <stop
         id="stop8920"
         offset="0"
         style="stop-color:#cee14b" />
      <stop
         id="stop8922"
         offset="1"
         style="stop-color:#9db029" />
    </linearGradient>
    <radialGradient
       inkscape:collect="always"
       xlink:href="#linearGradient8918"
       id="radialGradient9203"
       gradientUnits="userSpaceOnUse"
       gradientTransform="matrix(6.718136e-2,2.42191,-1.629357,4.51789e-2,52.36869,-50.34012)"
       cx="25.969097"
       cy="17.257854"
       fx="25.968998"
       fy="17.257843"
       r="9.8222504" />
    <radialGradient
       inkscape:collect="always"
       xlink:href="#linearGradient8740"
       id="radialGradient9201"
       gradientUnits="userSpaceOnUse"
       gradientTransform="matrix(1,0,0,0.930233,0.311259,0.486131)"
       cx="62.225391"
       cy="-3.4420195"
       fx="62.225391"
       fy="-3.4420195"
       r="10.081216" />
    <radialGradient
       inkscape:collect="always"
       xlink:href="#linearGradient8912"
       id="radialGradient9199"
       gradientUnits="userSpaceOnUse"
       gradientTransform="matrix(0.222034,8.004376,-0.597156,1.656095e-2,29.85665,-181.6002)"
       cx="24.478569"
       cy="17.573915"
       fx="24.478539"
       fy="17.573889"
       r="2.9719501" />
    <radialGradient
       inkscape:collect="always"
       xlink:href="#linearGradient8740"
       id="radialGradient8820"
       gradientUnits="userSpaceOnUse"
       gradientTransform="matrix(1,0,0,0.930233,0,-0.240141)"
       cx="62.225391"
       cy="-3.4420195"
       fx="62.225391"
       fy="-3.4420195"
       r="10.081216" />
    <linearGradient
       id="linearGradient8912">
      <stop
         style="stop-color:#cee14b"
         offset="0"
         id="stop8914" />
      <stop
         style="stop-color:#9db029"
         offset="1"
         id="stop8916" />
    </linearGradient>
    <radialGradient
       inkscape:collect="always"
       xlink:href="#linearGradient8912"
       id="radialGradient9197"
       gradientUnits="userSpaceOnUse"
       gradientTransform="matrix(0.222034,8.004376,-0.597156,1.656095e-2,29.5454,-182.3268)"
       cx="24.478569"
       cy="17.573915"
       fx="24.478539"
       fy="17.573889"
       r="2.9719501" />
    <radialGradient
       inkscape:collect="always"
       xlink:href="#linearGradient8740"
       id="radialGradient9195"
       gradientUnits="userSpaceOnUse"
       gradientTransform="matrix(1,0,0,0.930233,0,0.589884)"
       cx="62.225391"
       cy="-3.4420195"
       fx="62.225391"
       fy="-3.4420195"
       r="10.081216" />
    <radialGradient
       inkscape:collect="always"
       xlink:href="#linearGradient8930"
       id="radialGradient9193"
       gradientUnits="userSpaceOnUse"
       gradientTransform="matrix(0.159592,5.753335,-0.8072,2.23703e-2,32.87305,-130.867)"
       cx="25.135374"
       cy="14.542349"
       fx="25.135332"
       fy="14.542329"
       r="4.1347499" />
    <radialGradient
       inkscape:collect="always"
       xlink:href="#linearGradient8740"
       id="radialGradient8816"
       gradientUnits="userSpaceOnUse"
       gradientTransform="matrix(1,0,0,0.930233,0,-0.240141)"
       cx="62.225391"
       cy="-3.4420195"
       fx="62.225391"
       fy="-3.4420195"
       r="10.081216" />
    <linearGradient
       id="linearGradient8930">
      <stop
         id="stop8932"
         offset="0"
         style="stop-color:#cee14b" />
      <stop
         id="stop8934"
         offset="1"
         style="stop-color:#9db029" />
    </linearGradient>
    <radialGradient
       inkscape:collect="always"
       xlink:href="#linearGradient8930"
       id="radialGradient9191"
       gradientUnits="userSpaceOnUse"
       gradientTransform="matrix(0.159592,5.753335,-0.8072,2.23703e-2,32.87305,-131.6974)"
       cx="25.135374"
       cy="14.542349"
       fx="25.135332"
       fy="14.542329"
       r="4.1347499" />
    <radialGradient
       inkscape:collect="always"
       xlink:href="#linearGradient8740"
       id="radialGradient9189"
       gradientUnits="userSpaceOnUse"
       gradientTransform="matrix(0.891018,0,0,0.828854,1.579517,2.39052)"
       cx="62.225391"
       cy="-3.4420195"
       fx="62.225391"
       fy="-3.4420195"
       r="10.081216" />
    <radialGradient
       inkscape:collect="always"
       xlink:href="#linearGradient8924"
       id="radialGradient9187"
       gradientUnits="userSpaceOnUse"
       gradientTransform="matrix(6.822876e-2,2.459669,-1.754905,4.868429e-2,55.12882,-46.82188)"
       cx="24.652573"
       cy="18.94449"
       fx="24.652485"
       fy="18.944481"
       r="8.6174498" />
    <radialGradient
       inkscape:collect="always"
       xlink:href="#linearGradient8740"
       id="radialGradient8812"
       gradientUnits="userSpaceOnUse"
       gradientTransform="matrix(1,0,0,0.930233,0,-0.240141)"
       cx="62.225391"
       cy="-3.4420195"
       fx="62.225391"
       fy="-3.4420195"
       r="10.081216" />
    <linearGradient
       id="linearGradient8924">
      <stop
         id="stop8926"
         offset="0"
         style="stop-color:#cee14b" />
      <stop
         id="stop8928"
         offset="1"
         style="stop-color:#9db029" />
    </linearGradient>
    <radialGradient
       inkscape:collect="always"
       xlink:href="#linearGradient8924"
       id="radialGradient9185"
       gradientUnits="userSpaceOnUse"
       gradientTransform="matrix(7.657394e-2,2.760516,-1.969551,5.463895e-2,60.09901,-55.47179)"
       cx="24.652573"
       cy="18.94449"
       fx="24.652485"
       fy="18.944481"
       r="8.6174498" />
    <radialGradient
       inkscape:collect="always"
       xlink:href="#linearGradient8740"
       id="radialGradient8810"
       gradientUnits="userSpaceOnUse"
       gradientTransform="matrix(1,0,0,0.930233,0,-0.240141)"
       cx="62.225391"
       cy="-3.4420195"
       fx="62.225391"
       fy="-3.4420195"
       r="10.081216" />
    <radialGradient
       inkscape:collect="always"
       xlink:href="#linearGradient8740"
       id="radialGradient8808"
       gradientUnits="userSpaceOnUse"
       gradientTransform="matrix(1,0,0,0.930233,0,-0.240141)"
       cx="62.225391"
       cy="-3.4420195"
       fx="62.225391"
       fy="-3.4420195"
       r="10.081216" />
    <radialGradient
       inkscape:collect="always"
       xlink:href="#linearGradient8740"
       id="radialGradient8806"
       gradientUnits="userSpaceOnUse"
       gradientTransform="matrix(1,0,0,0.930233,0,-0.240141)"
       cx="62.225391"
       cy="-3.4420195"
       fx="62.225391"
       fy="-3.4420195"
       r="10.081216" />
    <radialGradient
       inkscape:collect="always"
       xlink:href="#linearGradient8740"
       id="radialGradient8804"
       gradientUnits="userSpaceOnUse"
       gradientTransform="matrix(1,0,0,0.930233,0,-0.240141)"
       cx="62.225391"
       cy="-3.4420195"
       fx="62.225391"
       fy="-3.4420195"
       r="10.081216" />
    <radialGradient
       inkscape:collect="always"
       xlink:href="#linearGradient8740"
       id="radialGradient8802"
       gradientUnits="userSpaceOnUse"
       gradientTransform="matrix(1,0,0,0.930233,0,-0.240141)"
       cx="62.225391"
       cy="-3.4420195"
       fx="62.225391"
       fy="-3.4420195"
       r="10.081216" />
    <radialGradient
       inkscape:collect="always"
       xlink:href="#linearGradient8740"
       id="radialGradient8800"
       gradientUnits="userSpaceOnUse"
       gradientTransform="matrix(1,0,0,0.930233,0,-0.240141)"
       cx="62.225391"
       cy="-3.4420195"
       fx="62.225391"
       fy="-3.4420195"
       r="10.081216" />
    <radialGradient
       inkscape:collect="always"
       xlink:href="#linearGradient8740"
       id="radialGradient8798"
       gradientUnits="userSpaceOnUse"
       gradientTransform="matrix(1,0,0,0.930233,0,-0.240141)"
       cx="62.225391"
       cy="-3.4420195"
       fx="62.225391"
       fy="-3.4420195"
       r="10.081216" />
    <radialGradient
       inkscape:collect="always"
       xlink:href="#linearGradient8740"
       id="radialGradient8796"
       gradientUnits="userSpaceOnUse"
       gradientTransform="matrix(1,0,0,0.930233,0,-0.240141)"
       cx="62.225391"
       cy="-3.4420195"
       fx="62.225391"
       fy="-3.4420195"
       r="10.081216" />
    <radialGradient
       inkscape:collect="always"
       xlink:href="#linearGradient8740"
       id="radialGradient8794"
       gradientUnits="userSpaceOnUse"
       gradientTransform="matrix(1,0,0,0.930233,0,-0.240141)"
       cx="62.225391"
       cy="-3.4420195"
       fx="62.225391"
       fy="-3.4420195"
       r="10.081216" />
    <radialGradient
       inkscape:collect="always"
       xlink:href="#linearGradient8740"
       id="radialGradient8792"
       gradientUnits="userSpaceOnUse"
       gradientTransform="matrix(1,0,0,0.930233,0,-0.240141)"
       cx="62.225391"
       cy="-3.4420195"
       fx="62.225391"
       fy="-3.4420195"
       r="10.081216" />
    <radialGradient
       inkscape:collect="always"
       xlink:href="#linearGradient8740"
       id="radialGradient9183"
       gradientUnits="userSpaceOnUse"
       gradientTransform="matrix(1,0,0,0.930233,0,-0.240141)"
       cx="62.225391"
       cy="-3.4420195"
       fx="62.225391"
       fy="-3.4420195"
       r="10.081216" />
    <radialGradient
       inkscape:collect="always"
       xlink:href="#linearGradient8740"
       id="radialGradient8788"
       gradientUnits="userSpaceOnUse"
       gradientTransform="matrix(1,0,0,0.930233,0,-0.240141)"
       cx="62.225391"
       cy="-3.4420195"
       fx="62.225391"
       fy="-3.4420195"
       r="10.081216" />
    <radialGradient
       inkscape:collect="always"
       xlink:href="#linearGradient8740"
       id="radialGradient8786"
       gradientUnits="userSpaceOnUse"
       gradientTransform="matrix(1,0,0,0.930233,0,-0.240141)"
       cx="62.225391"
       cy="-3.4420195"
       fx="62.225391"
       fy="-3.4420195"
       r="10.081216" />
    <radialGradient
       inkscape:collect="always"
       xlink:href="#linearGradient8740"
       id="radialGradient9181"
       gradientUnits="userSpaceOnUse"
       gradientTransform="matrix(1,0,0,0.930233,0,0.79739)"
       cx="62.225391"
       cy="-3.4420195"
       fx="62.225391"
       fy="-3.4420195"
       r="10.081216" />
    <radialGradient
       inkscape:collect="always"
       xlink:href="#linearGradient8740"
       id="radialGradient8782"
       gradientUnits="userSpaceOnUse"
       gradientTransform="matrix(1,0,0,0.930233,0,-0.240141)"
       cx="62.225391"
       cy="-3.4420195"
       fx="62.225391"
       fy="-3.4420195"
       r="10.081216" />
    <radialGradient
       inkscape:collect="always"
       xlink:href="#linearGradient8740"
       id="radialGradient8780"
       gradientUnits="userSpaceOnUse"
       gradientTransform="matrix(1,0,0,0.930233,0,-0.240141)"
       cx="62.225391"
       cy="-3.4420195"
       fx="62.225391"
       fy="-3.4420195"
       r="10.081216" />
    <radialGradient
       inkscape:collect="always"
       xlink:href="#linearGradient8740"
       id="radialGradient8778"
       gradientUnits="userSpaceOnUse"
       gradientTransform="matrix(1,0,0,0.930233,0,-0.240141)"
       cx="62.225391"
       cy="-3.4420195"
       fx="62.225391"
       fy="-3.4420195"
       r="10.081216" />
    <radialGradient
       inkscape:collect="always"
       xlink:href="#linearGradient8740"
       id="radialGradient9179"
       gradientUnits="userSpaceOnUse"
       gradientTransform="matrix(1,0,0,0.930233,0,-0.240141)"
       cx="62.225391"
       cy="-3.4420195"
       fx="62.225391"
       fy="-3.4420195"
       r="10.081216" />
    <radialGradient
       inkscape:collect="always"
       xlink:href="#linearGradient8740"
       id="radialGradient8774"
       gradientUnits="userSpaceOnUse"
       gradientTransform="matrix(1,0,0,0.930233,0,-0.240141)"
       cx="62.225391"
       cy="-3.4420195"
       fx="62.225391"
       fy="-3.4420195"
       r="10.081216" />
    <radialGradient
       inkscape:collect="always"
       xlink:href="#linearGradient8740"
       id="radialGradient8772"
       gradientUnits="userSpaceOnUse"
       gradientTransform="matrix(1,0,0,0.930233,0,-0.240141)"
       cx="62.225391"
       cy="-3.4420195"
       fx="62.225391"
       fy="-3.4420195"
       r="10.081216" />
    <radialGradient
       inkscape:collect="always"
       xlink:href="#linearGradient8740"
       id="radialGradient8770"
       gradientUnits="userSpaceOnUse"
       gradientTransform="matrix(1,0,0,0.930233,0,-0.240141)"
       cx="62.225391"
       cy="-3.4420195"
       fx="62.225391"
       fy="-3.4420195"
       r="10.081216" />
    <radialGradient
       inkscape:collect="always"
       xlink:href="#linearGradient8740"
       id="radialGradient9177"
       gradientUnits="userSpaceOnUse"
       gradientTransform="matrix(1,0,0,0.930233,0,-0.240141)"
       cx="62.225391"
       cy="-3.4420195"
       fx="62.225391"
       fy="-3.4420195"
       r="10.081216" />
    <radialGradient
       inkscape:collect="always"
       xlink:href="#linearGradient8740"
       id="radialGradient8766"
       gradientUnits="userSpaceOnUse"
       gradientTransform="matrix(1,0,0,0.930233,0,-0.240141)"
       cx="62.225391"
       cy="-3.4420195"
       fx="62.225391"
       fy="-3.4420195"
       r="10.081216" />
    <radialGradient
       inkscape:collect="always"
       xlink:href="#linearGradient8740"
       id="radialGradient8764"
       gradientUnits="userSpaceOnUse"
       gradientTransform="matrix(1,0,0,0.930233,0,-0.240141)"
       cx="62.225391"
       cy="-3.4420195"
       fx="62.225391"
       fy="-3.4420195"
       r="10.081216" />
    <radialGradient
       inkscape:collect="always"
       xlink:href="#linearGradient8740"
       id="radialGradient9175"
       gradientUnits="userSpaceOnUse"
       gradientTransform="matrix(1,0,0,0.930233,0,-0.240141)"
       cx="62.225391"
       cy="-3.4420195"
       fx="62.225391"
       fy="-3.4420195"
       r="10.081216" />
    <radialGradient
       inkscape:collect="always"
       xlink:href="#linearGradient8740"
       id="radialGradient8760"
       gradientUnits="userSpaceOnUse"
       gradientTransform="matrix(1,0,0,0.930233,0,-0.240141)"
       cx="62.225391"
       cy="-3.4420195"
       fx="62.225391"
       fy="-3.4420195"
       r="10.081216" />
    <radialGradient
       inkscape:collect="always"
       xlink:href="#linearGradient8740"
       id="radialGradient8758"
       gradientUnits="userSpaceOnUse"
       gradientTransform="matrix(1,0,0,0.930233,0,-0.240141)"
       cx="62.225391"
       cy="-3.4420195"
       fx="62.225391"
       fy="-3.4420195"
       r="10.081216" />
    <radialGradient
       inkscape:collect="always"
       xlink:href="#linearGradient8740"
       id="radialGradient8756"
       gradientUnits="userSpaceOnUse"
       gradientTransform="matrix(1,0,0,0.930233,0,-0.240141)"
       cx="62.225391"
       cy="-3.4420195"
       fx="62.225391"
       fy="-3.4420195"
       r="10.081216" />
    <radialGradient
       inkscape:collect="always"
       xlink:href="#linearGradient8740"
       id="radialGradient9173"
       gradientUnits="userSpaceOnUse"
       gradientTransform="matrix(1,0,0,0.930233,0,-0.240141)"
       cx="62.225391"
       cy="-3.4420195"
       fx="62.225391"
       fy="-3.4420195"
       r="10.081216" />
    <radialGradient
       inkscape:collect="always"
       xlink:href="#linearGradient8740"
       id="radialGradient8752"
       gradientUnits="userSpaceOnUse"
       gradientTransform="matrix(1,0,0,0.930233,0,-0.240141)"
       cx="62.225391"
       cy="-3.4420195"
       fx="62.225391"
       fy="-3.4420195"
       r="10.081216" />
    <radialGradient
       inkscape:collect="always"
       xlink:href="#linearGradient8740"
       id="radialGradient8750"
       gradientUnits="userSpaceOnUse"
       gradientTransform="matrix(1,0,0,0.930233,0,-0.240141)"
       cx="62.225391"
       cy="-3.4420195"
       fx="62.225391"
       fy="-3.4420195"
       r="10.081216" />
    <linearGradient
       inkscape:collect="always"
       id="linearGradient8740">
      <stop
         style="stop-color:#ffffff;stop-opacity:1;"
         offset="0"
         id="stop8742" />
      <stop
         style="stop-color:#ffffff;stop-opacity:0;"
         offset="1"
         id="stop8744" />
    </linearGradient>
    <radialGradient
       inkscape:collect="always"
       xlink:href="#linearGradient8740"
       id="radialGradient8748"
       gradientUnits="userSpaceOnUse"
       gradientTransform="matrix(1,0,0,0.930233,0,-0.240141)"
       cx="62.225391"
       cy="-3.4420195"
       fx="62.225391"
       fy="-3.4420195"
       r="10.081216" />
    <linearGradient
       id="linearGradient8647">
      <stop
         style="stop-color:#8fb1dc;stop-opacity:1;"
         offset="0"
         id="stop8649" />
      <stop
         style="stop-color:#3465a4;stop-opacity:1;"
         offset="1"
         id="stop8651" />
    </linearGradient>
    <radialGradient
       inkscape:collect="always"
       xlink:href="#linearGradient8647"
       id="radialGradient9171"
       gradientUnits="userSpaceOnUse"
       gradientTransform="matrix(0.7332819,0,0,0.7332813,12.818913,-4.3839443)"
       cx="62.200352"
       cy="-8.7256308"
       fx="62.200352"
       fy="-8.7256308"
       r="9.7552834" />
    <linearGradient
       inkscape:collect="always"
       id="linearGradient8838">
      <stop
         style="stop-color:#000000;stop-opacity:1;"
         offset="0"
         id="stop8840" />
      <stop
         style="stop-color:#000000;stop-opacity:0;"
         offset="1"
         id="stop8842" />
    </linearGradient>
    <radialGradient
       inkscape:collect="always"
       xlink:href="#linearGradient8838"
       id="radialGradient9169"
       gradientUnits="userSpaceOnUse"
       gradientTransform="matrix(1,0,0,0.341176,0,3.047059)"
       cx="62.625"
       cy="4.625"
       fx="62.625"
       fy="4.625"
       r="10.625" />
    <linearGradient
       id="linearGradient4845">
      <stop
         id="stop4847"
         offset="0"
         style="stop-color:#ffffff;stop-opacity:1;" />
      <stop
         id="stop4849"
         offset="1"
         style="stop-color:#b6b6b6;stop-opacity:1;" />
    </linearGradient>
    <linearGradient
       id="linearGradient4873"
       inkscape:collect="always">
      <stop
         id="stop4875"
         offset="0"
         style="stop-color:#ffffff;stop-opacity:1;" />
      <stop
         id="stop4877"
         offset="1"
         style="stop-color:#ffffff;stop-opacity:0;" />
    </linearGradient>
  </defs>
  <sodipodi:namedview
     id="base"
     pagecolor="#ffffff"
     bordercolor="#a8a8a8"
     borderopacity="1"
     inkscape:pageopacity="0.0"
     inkscape:pageshadow="2"
     inkscape:zoom="0.9899495"
     inkscape:cx="-129.09728"
     inkscape:cy="-3.4159805"
     inkscape:document-units="px"
     inkscape:current-layer="layer1"
     inkscape:showpageshadow="false"
     inkscape:grid-bbox="true"
     showgrid="true"
     inkscape:grid-points="true"
     gridspacingx="0.5px"
     gridspacingy="0.5px"
     gridempspacing="2"
     inkscape:window-width="872"
     inkscape:window-height="694"
     inkscape:window-x="1"
     inkscape:window-y="48"
     fill="#75507b" />
  <metadata
     id="metadata7">
    <rdf:RDF>
      <cc:Work
         rdf:about="">
        <dc:format>image/svg+xml</dc:format>
        <dc:type
           rdf:resource="http://purl.org/dc/dcmitype/StillImage" />
        <dc:creator>
          <cc:Agent>
            <dc:title>Ulisse Perusin</dc:title>
          </cc:Agent>
        </dc:creator>
        <dc:title>Dictionary</dc:title>
        <dc:subject>
          <rdf:Bag>
            <rdf:li>dictionary</rdf:li>
            <rdf:li>translation</rdf:li>
          </rdf:Bag>
        </dc:subject>
        <cc:license
           rdf:resource="http://creativecommons.org/licenses/GPL/2.0/" />
      </cc:Work>
      <cc:License
         rdf:about="http://creativecommons.org/licenses/GPL/2.0/">
        <cc:permits
           rdf:resource="http://web.resource.org/cc/Reproduction" />
        <cc:permits
           rdf:resource="http://web.resource.org/cc/Distribution" />
        <cc:requires
           rdf:resource="http://web.resource.org/cc/Notice" />
        <cc:permits
           rdf:resource="http://web.resource.org/cc/DerivativeWorks" />
        <cc:requires
           rdf:resource="http://web.resource.org/cc/ShareAlike" />
        <cc:requires
           rdf:resource="http://web.resource.org/cc/SourceCode" />
      </cc:License>
    </rdf:RDF>
  </metadata>
  <g
     inkscape:label="Livello 1"
     inkscape:groupmode="layer"
     id="layer1">
    <path
       sodipodi:type="arc"
       style="opacity:0.50196078;color:#000000;fill:url(#radialGradient2292);fill-opacity:1;fill-rule:nonzero;stroke:none;stroke-width:1;stroke-linecap:round;stroke-linejoin:miter;marker:none;marker-start:none;marker-mid:none;marker-end:none;stroke-miterlimit:4;stroke-dasharray:none;stroke-dashoffset:17.85;stroke-opacity:1;visibility:visible;display:block;overflow:visible"
       id="path2284"
       sodipodi:cx="24"
       sodipodi:cy="36.75"
       sodipodi:rx="22.5"
       sodipodi:ry="6.75"
       d="M 46.5 36.75 A 22.5 6.75 0 1 1  1.5,36.75 A 22.5 6.75 0 1 1  46.5 36.75 z"
       transform="matrix(1.066667,0,0,0.962963,-1.600001,1.111111)" />
    <path
       style="color:#000000;fill:#523856;fill-opacity:1;fill-rule:nonzero;stroke:#3e263b;stroke-width:1;stroke-linecap:round;stroke-linejoin:round;marker:none;marker-start:none;marker-mid:none;marker-end:none;stroke-miterlimit:4;stroke-dasharray:none;stroke-dashoffset:17.85;stroke-opacity:1;visibility:visible;display:block;overflow:visible"
       d="M 4.5,11.5 L 43.5,11.5 L 47.5,38.5 L 29,38.5 L 28,37.5 C 26,39 22,39 20,37.5 L 19,38.5 L 0.5,38.5 L 4.5,11.5 z "
       id="rect1304"
       sodipodi:nodetypes="ccccccccc" />
    <path
       sodipodi:type="inkscape:offset"
       inkscape:radius="-0.91809106"
       inkscape:original="M 4.5 11.5 L 0.5 38.5 L 19 38.5 L 20 37.5 C 22 39 26 39 28 37.5 L 29 38.5 L 47.5 38.5 L 43.5 11.5 L 4.5 11.5 z "
       xlink:href="#rect1304"
       style="opacity:0.13333333;color:#000000;fill:none;fill-opacity:1;fill-rule:nonzero;stroke:#ffffff;stroke-width:1;stroke-linecap:round;stroke-linejoin:round;marker:none;marker-start:none;marker-mid:none;marker-end:none;stroke-miterlimit:4;stroke-dasharray:none;stroke-dashoffset:17.85;stroke-opacity:1;visibility:visible;display:block;overflow:visible"
       id="path2274"
       inkscape:href="#rect1304"
       d="M 5.28125,12.40625 L 1.5625,37.59375 L 18.59375,37.59375 L 19.34375,36.84375 C 19.667151,36.507336 20.191452,36.467006 20.5625,36.75 C 21.327469,37.323727 22.653015,37.71875 24,37.71875 C 25.346985,37.71875 26.672531,37.323727 27.4375,36.75 C 27.808548,36.467006 28.332849,36.507336 28.65625,36.84375 L 29.40625,37.59375 L 46.4375,37.59375 L 42.71875,12.40625 L 5.28125,12.40625 z " />
    <path
       style="fill:url(#linearGradient2282);fill-opacity:1.0;fill-rule:evenodd;stroke:#888a85;stroke-width:1;stroke-linecap:butt;stroke-linejoin:miter;stroke-miterlimit:4;stroke-dasharray:none;stroke-opacity:1"
       d="M 2,36.5 C 7.6666667,36.5 16,35 19,36.5 C 22,34 26,34 29,36.5 C 32,35 41,36.5 46,36.5 L 45.5,34 C 38.5,31.5 29,28.5 24,33 C 19,28.5 9.5,31.5 2.5,34 L 2,36.5 z "
       id="path2180"
       sodipodi:nodetypes="cccccccc" />
    <path
       sodipodi:type="inkscape:offset"
       inkscape:radius="-1.0582203"
       inkscape:original="M 14 30.875 C 10.125 31.375 6 32.75 2.5 34 L 2 36.5 C 7.6666667 36.5 16 35 19 36.5 C 22 34 26 34 29 36.5 C 32 35 41 36.5 46 36.5 L 45.5 34 C 38.5 31.5 29 28.5 24 33 C 21.5 30.75 17.875 30.375 14 30.875 z "
       xlink:href="#path2180"
       style="opacity:0.30196078;fill:none;fill-opacity:1;fill-rule:evenodd;stroke:url(#linearGradient2315);stroke-width:1;stroke-linecap:butt;stroke-linejoin:miter;stroke-miterlimit:4;stroke-dasharray:none;stroke-opacity:1"
       id="path2266"
       inkscape:href="#path2180"
       d="M 14.375,31.9375 C 10.963293,32.392394 7.260823,33.622273 3.90625,34.8125 L 3.8125,35.34375 C 6.2979599,35.262594 9.0476285,35.037732 11.6875,34.875 C 14.462294,34.703951 16.881256,34.711661 18.78125,35.40625 C 20.133116,34.409774 21.661646,33.894157 23.21875,33.75 C 21.042747,31.830616 17.941674,31.461944 14.375,31.9375 z M 28.625,31.9375 C 27.145571,32.213473 25.86037,32.798142 24.78125,33.75 C 26.338354,33.894157 27.866884,34.409774 29.21875,35.40625 C 31.163554,34.697135 33.704549,34.703523 36.5625,34.875 C 39.261382,35.036933 41.920385,35.260963 44.1875,35.34375 L 44.09375,34.8125 C 40.739177,33.622273 37.036707,32.392394 33.625,31.9375 C 31.827105,31.697781 30.128781,31.656984 28.625,31.9375 z " />
    <path
       style="fill:url(#linearGradient2245);fill-opacity:1;fill-rule:evenodd;stroke:url(#linearGradient2247);stroke-width:1;stroke-linecap:butt;stroke-linejoin:miter;stroke-miterlimit:4;stroke-dasharray:none;stroke-opacity:1"
       d="M 2.5,34 C 9,31.5 20,29 24,33 C 28,29 39,31.5 45.5,34 L 42.5,10.5 C 37,8 27.5,6 24,9 C 20,6 12,8 5.5,10.5 L 2.5,34 z "
       id="path2182"
       sodipodi:nodetypes="ccccccc" />
    <path
       style="color:#000000;fill:url(#linearGradient2219);fill-opacity:1.0;fill-rule:nonzero;stroke:none;stroke-width:1;stroke-linecap:round;stroke-linejoin:miter;marker:none;marker-start:none;marker-mid:none;marker-end:none;stroke-miterlimit:4;stroke-dashoffset:17.85;stroke-opacity:1;visibility:visible;display:block;overflow:visible"
       d="M 24,9.5 C 22,8 19.5,7.5 16,8 L 16,30.5 C 18,29.5 22,30.5 24,32.5 L 24,9.5 z "
       id="rect2192"
       sodipodi:nodetypes="ccccc" />
    <path
       style="color:#000000;fill:url(#linearGradient2211);fill-opacity:1;fill-rule:nonzero;stroke:none;stroke-width:1;stroke-linecap:round;stroke-linejoin:miter;marker:none;marker-start:none;marker-mid:none;marker-end:none;stroke-miterlimit:4;stroke-dashoffset:17.85;stroke-opacity:1;visibility:visible;display:block;overflow:visible"
       d="M 24,9.5 C 25.221264,8.803878 26.327771,7.9069322 28,8 L 29,30.5 C 27.5,30 25.5,31.5 24,32.5 L 24,9.5 z "
       id="path2195"
       sodipodi:nodetypes="ccccc" />
    <path
       sodipodi:type="inkscape:offset"
       inkscape:radius="-0.92850536"
       inkscape:original="M 20.34375 7.625 C 16.101562 7.0390625 10.375 8.625 5.5 10.5 L 2.5 34 C 9 31.5 20 29 24 33 C 28 29 39 31.5 45.5 34 L 42.5 10.5 C 37 8 27.5 6 24 9 C 23 8.25 21.757812 7.8203125 20.34375 7.625 z "
       xlink:href="#path2182"
       style="opacity:0.65098039;fill:none;fill-opacity:1;fill-rule:evenodd;stroke:#ffffff;stroke-width:1;stroke-linecap:butt;stroke-linejoin:miter;stroke-miterlimit:4;stroke-dasharray:none;stroke-opacity:1"
       id="path2243"
       inkscape:href="#path2182"
       d="M 17.03125,8.375 C 14.611845,8.6563261 11.827815,9.5624782 8.78125,10.71875 L 4.25,32.59375 C 7.5567067,31.338728 11.345145,30.271354 14.90625,29.9375 C 16.969491,29.744071 18.927893,29.768608 20.625,30.125 C 21.963283,30.406039 23.09173,31.003906 24,31.8125 C 24.90827,31.003906 26.036717,30.406039 27.375,30.125 C 29.072107,29.768608 31.030509,29.744071 33.09375,29.9375 C 36.654855,30.271354 40.443293,31.338728 43.75,32.59375 L 39.1875,10.6875 C 36.612085,9.5579242 33.750698,8.6570052 31.15625,8.375 C 28.420939,8.0776836 26.053467,8.4675643 24.59375,9.71875 C 24.262671,9.9972426 23.783138,10.010203 23.4375,9.75 C 21.660341,8.417131 19.571761,8.0795918 17.03125,8.375 z " />
    <g
       inkscape:label="Layer 1"
       id="g2392"
       transform="translate(8.3309706,-1.3923638)">
      <g
         transform="matrix(1.673435,0,0,1.673435,-3.189256,-2.668541)"
         id="g3020"
         inkscape:label="Layer 1">
        <g
           style="display:inline"
           id="g8936"
           transform="matrix(1.284706,0,0,1.284706,-63.89629,19.96894)">
          <path
             transform="matrix(0.6489378,0,0,0.7734753,17.746611,-6.2640397)"
             d="M 73.25 4.625 A 10.625 3.625 0 1 1  52,4.625 A 10.625 3.625 0 1 1  73.25 4.625 z"
             sodipodi:ry="3.625"
             sodipodi:rx="10.625"
             sodipodi:cy="4.625"
             sodipodi:cx="62.625"
             id="path8836"
             style="opacity:0.56043958;color:#000000;fill:url(#radialGradient9169);fill-opacity:1;fill-rule:evenodd;stroke:none;stroke-width:0.99999988;stroke-linecap:butt;stroke-linejoin:round;marker:none;marker-start:none;marker-mid:none;marker-end:none;stroke-miterlimit:4;stroke-dasharray:none;stroke-dashoffset:0;stroke-opacity:1;visibility:visible;display:inline;overflow:visible"
             sodipodi:type="arc" />
          <path
             id="path6495"
             d="M 64.476186,-7.3754524 C 64.476186,-4.0357498 61.76871,-1.3283664 58.429389,-1.3283664 C 55.089764,-1.3283664 52.382441,-4.0357805 52.382441,-7.3754524 C 52.382441,-10.715002 55.089764,-13.42211 58.429389,-13.42211 C 61.76871,-13.42211 64.476186,-10.715002 64.476186,-7.3754524 L 64.476186,-7.3754524 z "
             style="fill:url(#radialGradient9171);fill-opacity:1;fill-rule:nonzero;stroke:#204a87;stroke-width:0.46514401;stroke-miterlimit:4;stroke-dasharray:none" />
          <path
             style="opacity:0.52747258;fill:none;fill-opacity:1;fill-rule:nonzero;stroke:url(#linearGradient4879);stroke-width:0.46514425;stroke-miterlimit:4;stroke-dasharray:none;stroke-opacity:1"
             d="M 64.01104,-7.3754358 C 64.01104,-4.2926338 61.511832,-1.7935109 58.429384,-1.7935109 C 55.346653,-1.7935109 52.847586,-4.2926622 52.847586,-7.3754358 C 52.847586,-10.458096 55.346653,-12.956966 58.429384,-12.956966 C 61.511832,-12.956966 64.01104,-10.458096 64.01104,-7.3754358 L 64.01104,-7.3754358 z "
             id="path8655" />
          <g
             id="g6532"
             style="fill:#9db029;fill-rule:nonzero;stroke:url(#radialGradient8752);stroke-width:1.54134381;stroke-miterlimit:4"
             transform="matrix(0.304283,0,0,0.3041393,50.830264,-14.174063)">
            <path
               style="fill:#9db029;stroke:url(#radialGradient9173);stroke-width:1.54134381"
               id="path6534"
               d="M 26.0703,9.2363 L 25.9971,9.7295 L 26.5069,10.0586 L 27.378,9.4829 L 26.9425,8.9892 L 26.3605,9.3188 L 26.0705,9.2363" />
          </g>
          <g
             id="g6548"
             style="fill:#9db029;fill-rule:nonzero;stroke:url(#radialGradient8760);stroke-width:1.54134381;stroke-miterlimit:4"
             transform="matrix(0.304283,0,0,0.3041393,50.428753,-14.174063)">
            <path
               style="fill:#9db029;stroke:url(#radialGradient9175);stroke-width:1.54134381"
               id="path6550"
               d="M 28.833,12.7749 L 28.542,12.0337 L 28.0322,12.1987 L 28.1787,13.103 L 28.833,12.7749" />
          </g>
          <g
             id="g6556"
             style="fill:#9db029;fill-rule:nonzero;stroke:url(#radialGradient8766);stroke-width:1.54134381;stroke-miterlimit:4"
             transform="matrix(0.304283,0,0,0.3041393,50.543472,-14.174063)">
            <path
               style="fill:#9db029;stroke:url(#radialGradient9177);stroke-width:1.54134381"
               id="path6558"
               d="M 29.123,12.6089 L 28.9775,13.5972 L 29.7773,13.4322 L 30.3584,12.857 L 29.8496,12.3629 C 29.6787,11.9078 29.4824,11.483 29.2685,11.0465 L 28.833,11.0465 L 28.833,11.5397 L 29.123,11.8688 L 29.123,12.609" />
          </g>
          <g
             id="g6572"
             style="fill:#9db029;fill-rule:nonzero;stroke:url(#radialGradient8774);stroke-width:1.54134381;stroke-miterlimit:4"
             transform="matrix(0.304283,0,0,0.3041393,50.830264,-14.174063)">
            <path
               style="fill:#9db029;stroke:url(#radialGradient9179);stroke-width:1.54134381"
               id="path6574"
               d="M 16.7656,9.5649 L 17.4922,10.0586 L 18.0742,10.0586 L 18.0742,9.4829 L 17.3476,9.1538 L 16.7656,9.5649" />
          </g>
          <g
             id="g6608"
             style="fill:#9db029;fill-rule:nonzero;stroke:url(#radialGradient8782);stroke-width:1.54134381;stroke-miterlimit:4"
             transform="matrix(0.304283,0,0,0.3041393,51.203091,-14.1454)">
            <path
               style="fill:#9db029;stroke:url(#radialGradient9181);stroke-width:1.54134381"
               id="path6610"
               d="M 17.4922,7.887132 L 17.856,7.558532 L 18.5831,7.393932 C 19.0811,7.151732 19.5811,6.988632 20.1095,6.817732 L 19.8195,6.324032 L 18.881,6.458832 L 18.4376,6.900732 L 17.7066,7.006732 L 17.0567,7.311932 L 16.7408,7.464732 L 16.5479,7.723032 L 17.4922,7.887132" />
          </g>
          <g
             id="g6616"
             style="fill:#9db029;fill-rule:nonzero;stroke:url(#radialGradient8788);stroke-width:1.54134381;stroke-miterlimit:4"
             transform="matrix(0.304283,0,0,0.3041393,50.94497,-14.002085)">
            <path
               style="fill:#9db029;stroke:url(#radialGradient9183);stroke-width:1.54134381"
               id="path6618"
               d="M 18.7285,14.6665 L 19.165,14.0083 L 18.5102,13.5151 L 18.7285,14.6665" />
          </g>
          <g
             id="g6564"
             style="fill:url(#radialGradient9185);fill-opacity:1;fill-rule:nonzero;stroke:url(#radialGradient8812);stroke-width:1.50216901;stroke-miterlimit:4"
             transform="matrix(0.3203606,0,0,0.3041393,50.951368,-14.813227)">
            <path
               style="fill:url(#radialGradient9187);fill-opacity:1;stroke:url(#radialGradient9189);stroke-width:1.50216901"
               id="path6566"
               d="M 17.943241,27.768799 L 17.424668,26.742079 L 16.453191,26.522353 L 15.935064,25.130138 L 14.639881,25.276354 L 13.539117,24.470606 L 12.372685,25.496524 L 12.372685,25.658333 C 12.019842,25.55649 11.586095,25.54259 11.271922,25.349417 L 11.012635,24.616733 L 11.012635,23.810095 L 10.235579,23.883158 C 10.300445,23.369754 10.364776,22.85724 10.430088,22.343925 L 9.9762924,22.343925 L 9.523388,22.930393 L 9.0695925,23.149672 L 8.4217333,22.784177 L 8.3568672,21.977538 L 8.4865103,21.097836 L 9.4584328,20.365152 L 10.23549,20.365152 L 10.364687,19.9249 L 11.336164,20.144179 L 12.0488,21.024772 L 12.178443,19.557711 L 13.409207,18.531793 L 13.862557,17.431921 L 14.769256,17.065623 L 15.287383,16.332939 L 16.452924,16.111966 L 17.036363,15.233155 C 16.45337,15.233155 15.870376,15.233155 15.287383,15.233155 L 16.388503,14.719751 L 17.165115,14.719751 L 18.26668,14.352562 L 18.396323,13.914003 L 18.007394,13.546815 L 17.554044,13.399797 L 17.683687,12.960347 L 17.35998,12.300815 L 16.582478,12.593158 L 16.712121,12.007136 L 15.805421,11.493731 L 15.093231,12.739285 L 15.157651,13.179537 L 14.445461,13.473662 L 13.991665,14.426428 L 13.797601,13.546726 L 12.566838,13.033321 L 12.372329,12.37379 L 13.991665,11.420133 L 14.704301,10.760601 L 14.769167,9.9544084 L 14.380684,9.7342382 L 13.862557,9.6607292 L 13.53885,10.467367 C 13.53885,10.467367 12.9972,10.573488 12.857934,10.607881 C 11.079373,12.246819 7.4857189,15.784785 6.650835,22.463945 C 6.6838918,22.618804 7.2560145,23.516772 7.2560145,23.516772 L 8.6160643,24.322519 L 9.9761142,24.689708 L 10.559553,25.423194 L 11.465807,26.082725 L 11.983934,26.009662 L 12.372418,26.184569 L 12.372418,26.302896 L 11.854647,27.695557 L 11.465718,28.282025 L 11.595361,28.57615 L 11.271654,29.674241 L 12.437641,31.800833 L 13.603181,32.827553 L 14.121754,33.560237 L 14.056531,35.100362 L 14.445461,35.979173 L 14.056531,37.665514 C 14.056531,37.665514 14.026058,37.655089 14.075688,37.823848 C 14.125763,37.992695 16.150958,39.116893 16.27971,39.021198 C 16.408017,38.92372 16.517701,38.83845 16.517701,38.83845 L 16.388503,38.472954 L 16.906274,37.95955 L 17.100783,37.446145 L 17.943063,37.15202 L 18.590476,35.538832 L 18.396413,35.100273 L 18.848871,34.440741 L 19.820794,34.219769 L 20.339366,33.046833 L 20.209723,31.581554 L 20.98678,30.481681 L 21.116423,29.381808 C 20.053082,28.854504 18.998473,28.311518 17.943063,27.76862" />
          </g>
          <g
             id="g6540"
             style="fill:url(#radialGradient9191);fill-opacity:1;fill-rule:nonzero;stroke:url(#radialGradient8816);stroke-width:1.54134381;stroke-miterlimit:4"
             transform="matrix(0.304283,0,0,0.3041393,50.9163,-14.088067)">
            <path
               style="fill:url(#radialGradient9193);fill-opacity:1;stroke:url(#radialGradient9195);stroke-width:1.54134381"
               id="path6542"
               d="M 26.8701,6.6933256 L 24.9795,5.9526256 L 22.7998,6.1992256 L 20.1094,6.9394256 L 19.6006,7.4335256 L 21.2725,8.5849256 L 21.2725,9.2431256 L 20.6182,9.9013256 L 21.4912,11.630324 L 22.0713,11.300224 L 22.7998,10.148825 C 23.9228,9.8016256 24.9297,9.4081256 25.9971,8.9144256 L 26.8701,6.6932256" />
          </g>
          <g
             id="g6580"
             style="fill:url(#radialGradient9197);fill-opacity:1;fill-rule:nonzero;stroke:url(#radialGradient8820);stroke-width:1.54134381;stroke-miterlimit:4"
             transform="matrix(0.304283,0,0,0.3041393,51.117055,-14.288728)">
            <path
               style="fill:url(#radialGradient9199);fill-opacity:1;stroke:url(#radialGradient9201);stroke-width:1.54134381"
               id="path6582"
               d="M 15.187259,9.6334723 L 14.823459,10.538271 L 15.550559,10.538271 L 15.914359,9.7154723 C 16.227859,9.4937723 16.539859,9.2706723 16.859159,9.0572723 L 17.586259,9.3043723 C 18.070659,9.6334723 18.555059,9.9625723 19.039859,10.291172 L 19.767359,9.6334723 L 18.967059,9.3043723 L 18.603259,8.5636723 L 17.222359,8.3990723 L 17.149559,7.9874723 L 16.495259,8.1524723 L 16.204859,8.7282723 L 15.841059,7.9875723 L 15.696059,8.3166723 L 15.768859,9.1394723 L 15.187259,9.6334723" />
          </g>
          <g
             id="g6626"
             style="fill:url(#radialGradient9203);fill-opacity:1;fill-rule:nonzero;stroke:url(#radialGradient8824);stroke-width:1.54134381;stroke-miterlimit:4"
             transform="matrix(0.304283,0,0,0.3041393,50.687262,-14.49466)">
            <path
               style="fill:url(#radialGradient9205);fill-opacity:1;stroke:url(#radialGradient9207);stroke-width:1.54134381"
               id="path6628"
               d="M 42.893123,20.729176 C 42.893123,20.97037 42.893123,20.729176 42.893123,20.729176 L 42.392832,21.295848 C 42.086175,20.934471 41.741875,20.630568 41.392249,20.313169 L 40.624781,20.4261 L 39.923602,19.633475 L 39.923602,20.614409 L 40.524337,21.068977 L 40.924185,21.521801 L 41.458539,20.917485 C 41.593045,21.169421 41.725716,21.421357 41.859304,21.673293 L 41.859304,22.428275 L 41.257651,23.107877 L 40.156625,23.863685 L 39.322775,24.69579 L 38.788421,24.089638 L 39.055598,23.410035 L 38.522071,22.80572 L 37.621014,20.87975 L 36.853546,20.011838 L 36.652658,20.237791 L 36.953898,21.333492 L 37.52057,21.975451 C 37.844212,22.909744 38.164366,23.802721 38.58937,24.69579 C 39.248406,24.69579 39.869708,24.625828 40.524245,24.54338 L 40.524245,25.072409 L 39.723541,27.036481 L 38.989217,27.86675 L 38.388482,29.152504 C 38.388482,29.857264 38.388482,30.562024 38.388482,31.266692 L 38.58937,32.098797 L 38.255812,32.475415 L 37.52057,32.929065 L 36.753102,33.571024 L 37.3879,34.288362 L 36.519988,35.045089 L 36.686721,35.534638 L 35.384807,37.008702 L 34.517813,37.008702 L 33.783489,37.462352 L 33.315425,37.462352 L 33.315425,36.858036 L 33.116373,35.647568 C 32.858102,34.889006 32.589181,34.13586 32.315668,33.382715 C 32.315668,32.826785 32.348813,32.276272 32.382049,31.720433 L 32.716526,30.965452 L 32.248461,30.05806 L 32.282524,28.811785 L 31.647726,28.094447 L 31.965125,27.056129 L 31.448674,26.470176 L 30.5467,26.470176 L 30.246378,26.130375 L 29.345321,26.697506 L 28.978619,26.28104 L 28.143851,26.998746 C 27.577179,26.356327 27.009588,25.714368 26.44209,25.072409 L 25.774974,23.485414 L 26.375709,22.579859 L 26.042151,22.202414 L 26.775556,20.463835 C 27.378127,19.714271 28.007508,18.995188 28.644142,18.273443 L 29.779231,17.971285 L 31.047083,17.820619 L 31.914995,18.04749 L 33.14961,19.292847 L 33.583611,18.80238 L 34.183428,18.727093 L 35.318517,19.104538 L 36.18643,19.104538 L 36.787165,18.575509 L 37.054342,18.198064 L 36.452688,17.820619 L 35.451188,17.745332 C 35.173269,17.359808 34.914998,16.954543 34.58502,16.611988 L 34.250544,16.762653 L 34.116955,17.745332 L 33.51622,17.065729 L 33.38355,16.309003 L 32.716434,15.781811 L 32.448339,15.781811 L 33.116281,16.536792 L 32.849104,17.216395 L 32.315577,17.367061 L 32.649135,16.687458 L 32.047481,16.386218 L 31.514872,15.781903 L 30.512453,16.007855 L 30.379783,16.309095 L 29.779048,16.687458 L 29.44549,17.518645 L 28.61164,17.933733 L 28.24402,17.518645 L 27.844172,17.518645 L 27.844172,16.158521 L 28.712084,15.704871 L 29.3792,15.704871 L 29.244694,15.176761 L 28.712084,14.647732 L 29.612315,14.458504 L 30.112606,13.89275 L 30.512453,13.212229 L 31.247695,13.212229 L 31.046807,12.684119 L 31.514872,12.381961 L 31.514872,12.986276 L 32.515454,13.212229 L 33.516037,12.381961 L 33.583244,12.003598 L 34.450238,11.399741 C 34.13642,11.438762 33.822602,11.467407 33.515945,11.550866 L 33.515945,10.870437 L 33.849503,10.114996 L 33.515945,10.114996 L 32.782907,10.794599 L 32.582019,11.172503 L 32.782907,11.701991 L 32.448431,12.607546 L 31.914903,12.305388 L 31.448674,11.777278 L 30.713433,12.305388 L 30.446256,11.097216 L 31.714107,10.266488 L 31.714107,9.8128376 L 32.515638,9.284268 L 33.783489,8.981651 L 34.651401,9.284268 L 36.252719,9.5864259 L 35.852871,10.03925 L 34.984959,10.03925 L 35.852871,10.945724 L 36.519988,10.190742 L 36.72262,9.8585606 C 36.72262,9.8585606 39.281551,12.15206 40.743955,14.660861 C 42.206359,17.170489 42.893123,20.128441 42.893123,20.729176 z " />
          </g>
        </g>
      </g>
    </g>
  </g>
</svg>
