<?xml version="1.0" encoding="UTF-8" standalone="no"?>
<!-- Created with Inkscape (http://www.inkscape.org/) -->
<svg
   xmlns:dc="http://purl.org/dc/elements/1.1/"
   xmlns:cc="http://web.resource.org/cc/"
   xmlns:rdf="http://www.w3.org/1999/02/22-rdf-syntax-ns#"
   xmlns:svg="http://www.w3.org/2000/svg"
   xmlns="http://www.w3.org/2000/svg"
   xmlns:xlink="http://www.w3.org/1999/xlink"
   xmlns:sodipodi="http://sodipodi.sourceforge.net/DTD/sodipodi-0.dtd"
   xmlns:inkscape="http://www.inkscape.org/namespaces/inkscape"
   width="48"
   height="48"
   id="svg2"
   sodipodi:version="0.32"
   inkscape:version="0.45.1"
   version="1.0"
   sodipodi:docbase="/home/mark/Projects/Tango Icons/scribus"
   sodipodi:docname="scrbius.svg"
   inkscape:output_extension="org.inkscape.output.svg.inkscape">
  <defs
     id="defs4">
    <linearGradient
       inkscape:collect="always"
       id="linearGradient3227">
      <stop
         style="stop-color:#2e3436;stop-opacity:1;"
         offset="0"
         id="stop3229" />
      <stop
         style="stop-color:#2e3436;stop-opacity:0;"
         offset="1"
         id="stop3231" />
    </linearGradient>
    <linearGradient
       inkscape:collect="always"
       id="linearGradient3436">
      <stop
         style="stop-color:#ffffff;stop-opacity:1;"
         offset="0"
         id="stop3438" />
      <stop
         style="stop-color:#ffffff;stop-opacity:0;"
         offset="1"
         id="stop3440" />
    </linearGradient>
    <linearGradient
       id="linearGradient3422">
      <stop
         style="stop-color:#d3d7cf;stop-opacity:1;"
         offset="0"
         id="stop3424" />
      <stop
         style="stop-color:#d3d7ce;stop-opacity:1;"
         offset="1"
         id="stop3426" />
    </linearGradient>
    <linearGradient
       id="linearGradient3414">
      <stop
         style="stop-color:#eeeeec;stop-opacity:1;"
         offset="0"
         id="stop3416" />
      <stop
         style="stop-color:#eeeeec;stop-opacity:0.57894737;"
         offset="1"
         id="stop3418" />
    </linearGradient>
    <linearGradient
       inkscape:collect="always"
       id="linearGradient3355">
      <stop
         style="stop-color:#ffffff;stop-opacity:1;"
         offset="0"
         id="stop3357" />
      <stop
         style="stop-color:#ffffff;stop-opacity:0;"
         offset="1"
         id="stop3359" />
    </linearGradient>
    <linearGradient
       inkscape:collect="always"
       id="linearGradient3327">
      <stop
         style="stop-color:#eeeeec;stop-opacity:1;"
         offset="0"
         id="stop3329" />
      <stop
         style="stop-color:#eeeeec;stop-opacity:0;"
         offset="1"
         id="stop3331" />
    </linearGradient>
    <linearGradient
       id="linearGradient3317">
      <stop
         style="stop-color:#c17d11;stop-opacity:1;"
         offset="0"
         id="stop3319" />
      <stop
         id="stop3339"
         offset="0.44999999"
         style="stop-color:#d39d46;stop-opacity:1;" />
      <stop
         style="stop-color:#dcad61;stop-opacity:1;"
         offset="0.55000001"
         id="stop3341" />
      <stop
         style="stop-color:#e6bd7c;stop-opacity:1;"
         offset="1"
         id="stop3321" />
    </linearGradient>
    <linearGradient
       inkscape:collect="always"
       id="linearGradient3178">
      <stop
         style="stop-color:#ffffff;stop-opacity:1;"
         offset="0"
         id="stop3180" />
      <stop
         style="stop-color:#ffffff;stop-opacity:0;"
         offset="1"
         id="stop3182" />
    </linearGradient>
    <linearGradient
       inkscape:collect="always"
       id="linearGradient3160">
      <stop
         style="stop-color:#eeeeec;stop-opacity:1;"
         offset="0"
         id="stop3162" />
      <stop
         style="stop-color:#eeeeec;stop-opacity:0;"
         offset="1"
         id="stop3164" />
    </linearGradient>
    <linearGradient
       id="linearGradient3143">
      <stop
         style="stop-color:#3465a4;stop-opacity:1;"
         offset="0"
         id="stop3145" />
      <stop
         style="stop-color:#749dd3;stop-opacity:1;"
         offset="1"
         id="stop3147" />
    </linearGradient>
    <linearGradient
       inkscape:collect="always"
       xlink:href="#linearGradient3143"
       id="linearGradient3149"
       x1="-6.5299225"
       y1="24.167076"
       x2="-13.950757"
       y2="11.097227"
       gradientUnits="userSpaceOnUse" />
    <linearGradient
       inkscape:collect="always"
       xlink:href="#linearGradient3160"
       id="linearGradient3166"
       x1="19.359367"
       y1="-0.089036934"
       x2="31.447174"
       y2="26.829882"
       gradientUnits="userSpaceOnUse" />
    <linearGradient
       inkscape:collect="always"
       xlink:href="#linearGradient3178"
       id="linearGradient3184"
       x1="-16.096642"
       y1="7.1020293"
       x2="-3.304625"
       y2="24.418413"
       gradientUnits="userSpaceOnUse" />
    <linearGradient
       y2="598.45589"
       x2="332.64537"
       y1="-72.169076"
       x1="34.350778"
       id="linearGradient664"
       xlink:href="#linearGradient619"
       gradientUnits="userSpaceOnUse" />
    <linearGradient
       y2="425.86727"
       x2="411.59746"
       y1="74.252813"
       x1="273.65064"
       id="linearGradient623"
       xlink:href="#linearGradient624"
       gradientTransform="matrix(0.7165287,0,0,1.3956175,-194.03354,-1049.9191)"
       gradientUnits="userSpaceOnUse" />
    <linearGradient
       y2="264.66051"
       x2="908.4478"
       y1="160.6253"
       x1="779.71681"
       id="linearGradient590"
       xlink:href="#linearGradient593"
       gradientTransform="matrix(0.7421211,0,0,1.347489,-194.03354,-1049.9191)"
       gradientUnits="userSpaceOnUse" />
    <linearGradient
       y2="279.32784"
       x2="657.53711"
       y1="230.65721"
       x1="597.24302"
       id="linearGradient581"
       xlink:href="#linearGradient578"
       gradientTransform="matrix(0.8024495,0,0,1.2461844,-194.03354,-1049.9191)"
       gradientUnits="userSpaceOnUse" />
    <linearGradient
       id="linearGradient578">
      <stop
         id="stop579"
         offset="0.00000000"
         style="stop-color:#fff2bc;stop-opacity:1;" />
      <stop
         id="stop580"
         offset="1.00000000"
         style="stop-color:#83560b;stop-opacity:1;" />
    </linearGradient>
    <linearGradient
       id="linearGradient593">
      <stop
         id="stop594"
         offset="0.00000000"
         style="stop-color:#fff9db;stop-opacity:0.732143;" />
      <stop
         id="stop595"
         offset="1.00000000"
         style="stop-color:#2c2c2c;stop-opacity:1;" />
    </linearGradient>
    <linearGradient
       id="linearGradient619">
      <stop
         id="stop620"
         offset="0.00000000"
         style="stop-color:#66b8ff;stop-opacity:1;" />
      <stop
         id="stop621"
         offset="1.00000000"
         style="stop-color:#00507a;stop-opacity:1;" />
    </linearGradient>
    <linearGradient
       id="linearGradient624">
      <stop
         id="stop625"
         offset="0.00000000"
         style="stop-color:#b9e5ff;stop-opacity:0.419643;" />
      <stop
         id="stop626"
         offset="1.00000000"
         style="stop-color:#ffffff;stop-opacity:1;" />
    </linearGradient>
    <linearGradient
       inkscape:collect="always"
       xlink:href="#linearGradient619"
       id="linearGradient3305"
       x1="27.984485"
       y1="-79.004845"
       x2="332.46687"
       y2="605.53151"
       gradientUnits="userSpaceOnUse" />
    <linearGradient
       inkscape:collect="always"
       xlink:href="#linearGradient3317"
       id="linearGradient3382"
       gradientUnits="userSpaceOnUse"
       gradientTransform="translate(41.946394,-33.468703)"
       x1="7.25"
       y1="11.376276"
       x2="1.5625"
       y2="8.751276" />
    <linearGradient
       inkscape:collect="always"
       xlink:href="#linearGradient3355"
       id="linearGradient3384"
       gradientUnits="userSpaceOnUse"
       gradientTransform="translate(41.946394,-33.468703)"
       x1="4.7487241e-09"
       y1="0.87371701"
       x2="11.875"
       y2="20.438387" />
    <linearGradient
       inkscape:collect="always"
       xlink:href="#linearGradient3327"
       id="linearGradient3386"
       gradientUnits="userSpaceOnUse"
       gradientTransform="translate(41.946394,-33.468703)"
       x1="6.9375"
       y1="4.5"
       x2="10.75"
       y2="16.25" />
    <linearGradient
       inkscape:collect="always"
       xlink:href="#linearGradient3317"
       id="linearGradient3396"
       gradientUnits="userSpaceOnUse"
       gradientTransform="translate(33.25,5.75)"
       x1="7.25"
       y1="11.376276"
       x2="1.5625"
       y2="8.751276" />
    <linearGradient
       inkscape:collect="always"
       xlink:href="#linearGradient3355"
       id="linearGradient3398"
       gradientUnits="userSpaceOnUse"
       gradientTransform="translate(33.25,5.75)"
       x1="4.7487241e-09"
       y1="0.87371701"
       x2="11.875"
       y2="20.438387" />
    <linearGradient
       inkscape:collect="always"
       xlink:href="#linearGradient3327"
       id="linearGradient3400"
       gradientUnits="userSpaceOnUse"
       gradientTransform="translate(33.25,5.75)"
       x1="6.9375"
       y1="4.5"
       x2="10.75"
       y2="16.25" />
    <linearGradient
       inkscape:collect="always"
       xlink:href="#linearGradient3414"
       id="linearGradient3420"
       x1="21.876167"
       y1="38.859573"
       x2="9.7261848"
       y2="3.2084076"
       gradientUnits="userSpaceOnUse" />
    <linearGradient
       inkscape:collect="always"
       xlink:href="#linearGradient3422"
       id="linearGradient3428"
       x1="21.876167"
       y1="38.859573"
       x2="9.7261848"
       y2="3.2084076"
       gradientUnits="userSpaceOnUse" />
    <linearGradient
       inkscape:collect="always"
       xlink:href="#linearGradient3436"
       id="linearGradient3442"
       x1="22.867083"
       y1="34.786701"
       x2="14.048119"
       y2="9.3719692"
       gradientUnits="userSpaceOnUse" />
    <radialGradient
       inkscape:collect="always"
       xlink:href="#linearGradient3227"
       id="radialGradient3233"
       cx="23.1875"
       cy="41.6875"
       fx="23.1875"
       fy="41.6875"
       r="20.8125"
       gradientTransform="matrix(1,0,0,0.2492492,0,31.296922)"
       gradientUnits="userSpaceOnUse" />
    <radialGradient
       inkscape:collect="always"
       xlink:href="#linearGradient3227"
       id="radialGradient3236"
       gradientUnits="userSpaceOnUse"
       gradientTransform="matrix(1,0,0,0.2492492,0,31.296922)"
       cx="23.1875"
       cy="41.6875"
       fx="23.1875"
       fy="41.6875"
       r="20.8125" />
  </defs>
  <sodipodi:namedview
     id="base"
     pagecolor="#ffffff"
     bordercolor="#666666"
     borderopacity="1.0"
     gridtolerance="10000"
     guidetolerance="10"
     objecttolerance="10"
     inkscape:pageopacity="0.0"
     inkscape:pageshadow="2"
     inkscape:zoom="8"
     inkscape:cx="36.062176"
     inkscape:cy="37.067432"
     inkscape:document-units="px"
     inkscape:current-layer="layer1"
     width="48px"
     height="48px"
     showgrid="true"
     showguides="true"
     inkscape:guide-bbox="true"
     inkscape:window-width="1440"
     inkscape:window-height="831"
     inkscape:window-x="0"
     inkscape:window-y="44" />
  <metadata
     id="metadata7">
    <rdf:RDF>
      <cc:Work
         rdf:about="">
        <dc:format>image/svg+xml</dc:format>
        <dc:type
           rdf:resource="http://purl.org/dc/dcmitype/StillImage" />
      </cc:Work>
    </rdf:RDF>
  </metadata>
  <g
     inkscape:label="Layer 1"
     inkscape:groupmode="layer"
     id="layer1">
    <path
       sodipodi:type="arc"
       style="opacity:0.68159204;fill:url(#radialGradient3236);fill-opacity:1;stroke:none;stroke-width:1;stroke-miterlimit:4;stroke-dasharray:none;stroke-opacity:1"
       id="path3225"
       sodipodi:cx="23.1875"
       sodipodi:cy="41.6875"
       sodipodi:rx="20.8125"
       sodipodi:ry="5.1875"
       d="M 44 41.6875 A 20.8125 5.1875 0 1 1  2.375,41.6875 A 20.8125 5.1875 0 1 1  44 41.6875 z"
       transform="translate(2.625,1.125)" />
    <path
       sodipodi:type="arc"
       style="opacity:1;fill:url(#linearGradient3149);fill-opacity:1;stroke:#204a87;stroke-width:0.37877053;stroke-miterlimit:4;stroke-dasharray:none;stroke-opacity:1"
       id="path2170"
       sodipodi:cx="-9.9066343"
       sodipodi:cy="16.805897"
       sodipodi:rx="9.7886982"
       sodipodi:ry="6.3095822"
       d="M -0.11793613 16.805897 A 9.7886982 6.3095822 0 1 1  -19.695333,16.805897 A 9.7886982 6.3095822 0 1 1  -0.11793613 16.805897 z"
       transform="matrix(2.1453312,0,0,3.2490266,45.753012,-31.602806)" />
    <path
       style="opacity:0.13930348;fill:url(#linearGradient3166);fill-opacity:1.0;stroke:none;stroke-width:1;stroke-miterlimit:4;stroke-dasharray:none;stroke-opacity:1"
       d="M 24.5,3 C 13.811361,2.8820639 3.4717445,11.435023 3,21.301676 C 2.9806935,21.700649 3.0314213,22.1069 3.0610795,22.5 C 16.999885,27.099509 31.646307,20.141278 45.938921,22.5 C 45.968579,22.1069 46,21.701116 46,21.301676 C 46,11.199151 34.363086,2.9999998 24.5,3 z "
       id="path3151"
       sodipodi:nodetypes="csccsc" />
    <path
       sodipodi:type="arc"
       style="opacity:0.4726368;fill:none;fill-opacity:1;stroke:url(#linearGradient3184);stroke-width:0.39795178;stroke-miterlimit:4;stroke-dasharray:none;stroke-opacity:1"
       id="path3174"
       sodipodi:cx="-9.9066343"
       sodipodi:cy="16.805897"
       sodipodi:rx="9.7886982"
       sodipodi:ry="6.3095822"
       d="M -0.11793613 16.805897 A 9.7886982 6.3095822 0 1 1  -19.695333,16.805897 A 9.7886982 6.3095822 0 1 1  -0.11793613 16.805897 z"
       transform="matrix(2.0431726,0,0,3.0905375,44.740964,-28.939255)" />
    <g
       id="g3388"
       transform="matrix(1.2179912,0,0,1.2179912,-10.350702,-0.8305117)">
      <path
         sodipodi:nodetypes="csssc"
         id="path3367"
         d="M 46.987396,11.340847 C 45.868473,12.734393 43.683007,12.989687 40.722965,10.524539 C 37.762922,8.0593903 37.037186,6.4337633 37.637603,5.15915 C 38.744023,2.8103542 41.441992,3.7603097 44.402035,6.2254582 C 47.362078,8.6906064 48.10632,9.9473005 46.987396,11.340847 z "
         style="fill:#2e3436;fill-opacity:1;stroke:none;stroke-width:1;stroke-miterlimit:4;stroke-opacity:1" />
      <path
         sodipodi:nodetypes="csccscsc"
         id="path3315"
         d="M 28.625,33.125 C 28.625,33.125 30.125,23.375 35,14.75 C 39.875,6.1249999 39.875,6.1249999 39.875,6.1249999 C 42.5,6.7499999 43.75,7.375 45.125,10.625 C 45.125,10.625 42.25,13.875 41.625,16.625 C 40.645564,20.934519 40.5,22.875 40.5,22.875 C 40.5,22.875 36.125,23.25 33.625,26.625 C 32.032697,28.774609 28.875,33.25 28.625,33.125 z "
         style="fill:url(#linearGradient3396);fill-opacity:1;fill-rule:evenodd;stroke:#8f5902;stroke-width:0.821024px;stroke-linecap:butt;stroke-linejoin:miter;stroke-opacity:1" />
      <path
         sodipodi:nodetypes="csccscsc"
         id="path3343"
         d="M 30.75,29.498717 C 30.75,29.498717 31.335292,23.894189 35.169744,16.248718 C 38.408283,9.7914313 40.140802,7.123717 40.140802,7.123717 C 42.765802,7.748717 43.653942,9.123717 44.153942,10.373718 C 44.153942,10.373718 41.25657,14.123718 40.63157,16.873718 C 39.652134,21.183237 39.625,22.123718 39.625,22.123718 C 39.625,22.123718 35.502662,22.884196 33.875,24.873718 C 32.181095,26.94421 31,29.623717 30.75,29.498717 z "
         style="fill:none;fill-opacity:1;fill-rule:evenodd;stroke:url(#linearGradient3398);stroke-width:0.821024px;stroke-linecap:butt;stroke-linejoin:miter;stroke-opacity:1" />
      <path
         id="path3325"
         d="M 43.625,8.6249999 L 36.375,21.375 C 36.375,21.375 37.625,19.5 38.75,19.375 C 39.875,19.25 39.875,19.125 39.875,19.125 C 39.875,19.125 41.5,13.5 42.75,11.5 C 44,9.4999999 44,9.4999999 44,9.4999999 L 43.625,8.6249999 z "
         style="opacity:0.73134329;fill:url(#linearGradient3400);fill-opacity:1;fill-rule:evenodd;stroke:none;stroke-width:1px;stroke-linecap:butt;stroke-linejoin:miter;stroke-opacity:1" />
      <path
         sodipodi:nodetypes="cc"
         id="path3335"
         d="M 28.75,32.625 C 30.625,28.5 31.75,23.625 34.875,19.5"
         style="fill:none;fill-rule:evenodd;stroke:#8f5902;stroke-width:0.821024px;stroke-linecap:butt;stroke-linejoin:miter;stroke-opacity:1" />
      <path
         transform="matrix(0.2096777,1.4367494,-1.6802825,1.3365207,52.943256,0.6172006)"
         d="M 3.375 10.8125 A 0.8125 0.6875 0 1 1  1.75,10.8125 A 0.8125 0.6875 0 1 1  3.375 10.8125 z"
         sodipodi:ry="0.6875"
         sodipodi:rx="0.8125"
         sodipodi:cy="10.8125"
         sodipodi:cx="2.5625"
         id="path3337"
         style="opacity:1;fill:#8f5902;fill-opacity:1;stroke:none;stroke-width:1;stroke-miterlimit:4;stroke-dasharray:none;stroke-opacity:1"
         sodipodi:type="arc" />
    </g>
    <path
       style="fill:#2e3436;fill-opacity:1;stroke:none;stroke-width:1;stroke-miterlimit:4;stroke-opacity:1"
       d="M 55.68379,-27.877856 C 54.564867,-26.48431 52.379401,-26.229016 49.419359,-28.694164 C 46.459316,-31.159313 45.73358,-32.78494 46.333997,-34.059553 C 47.440417,-36.408349 50.138386,-35.458393 53.098429,-32.993245 C 56.058472,-30.528097 56.802714,-29.271403 55.68379,-27.877856 z "
       id="path3370"
       sodipodi:nodetypes="csssc" />
    <path
       style="fill:url(#linearGradient3382);fill-opacity:1;fill-rule:evenodd;stroke:#8f5902;stroke-width:1px;stroke-linecap:butt;stroke-linejoin:miter;stroke-opacity:1"
       d="M 37.321394,-6.0937031 C 37.321394,-6.0937031 38.821394,-15.843703 43.696394,-24.468703 C 48.571394,-33.093703 48.571394,-33.093703 48.571394,-33.093703 C 51.196394,-32.468703 52.446394,-31.843703 53.821394,-28.593703 C 53.821394,-28.593703 50.946394,-25.343703 50.321394,-22.593703 C 49.341958,-18.284184 49.196394,-16.343703 49.196394,-16.343703 C 49.196394,-16.343703 44.821394,-15.968703 42.321394,-12.593703 C 40.729091,-10.444094 37.571394,-5.9687031 37.321394,-6.0937031 z "
       id="path3372"
       sodipodi:nodetypes="csccscsc" />
    <path
       style="fill:none;fill-opacity:1;fill-rule:evenodd;stroke:url(#linearGradient3384);stroke-width:1px;stroke-linecap:butt;stroke-linejoin:miter;stroke-opacity:1"
       d="M 39.446394,-9.7199861 C 39.446394,-9.7199861 40.236942,-15.324514 44.071394,-22.969985 C 47.309933,-29.427272 49.196394,-32.094986 49.196394,-32.094986 C 51.821394,-31.469986 52.196394,-30.094986 52.696394,-28.844985 C 52.696394,-28.844985 49.696394,-25.094985 49.071394,-22.344985 C 48.091958,-18.035466 48.321394,-17.094985 48.321394,-17.094985 C 48.321394,-17.094985 45.071394,-17.719985 42.571394,-14.344985 C 40.979091,-12.195376 39.696394,-9.5949861 39.446394,-9.7199861 z "
       id="path3374"
       sodipodi:nodetypes="csccscsc" />
    <path
       style="opacity:0.73134329;fill:url(#linearGradient3386);fill-opacity:1;fill-rule:evenodd;stroke:none;stroke-width:1px;stroke-linecap:butt;stroke-linejoin:miter;stroke-opacity:1"
       d="M 52.321394,-30.593703 L 45.071394,-17.843703 C 45.071394,-17.843703 46.321394,-19.718703 47.446394,-19.843703 C 48.571394,-19.968703 48.571394,-20.093703 48.571394,-20.093703 C 48.571394,-20.093703 50.196394,-25.718703 51.446394,-27.718703 C 52.696394,-29.718703 52.696394,-29.718703 52.696394,-29.718703 L 52.321394,-30.593703 z "
       id="path3376" />
    <path
       style="fill:none;fill-rule:evenodd;stroke:#8f5902;stroke-width:1px;stroke-linecap:butt;stroke-linejoin:miter;stroke-opacity:1"
       d="M 37.446394,-6.5937031 C 39.321394,-10.718703 40.446394,-15.593703 43.571394,-19.718703"
       id="path3378"
       sodipodi:nodetypes="cc" />
    <path
       sodipodi:type="arc"
       style="opacity:1;fill:#8f5902;fill-opacity:1;stroke:none;stroke-width:1;stroke-miterlimit:4;stroke-dasharray:none;stroke-opacity:1"
       id="path3380"
       sodipodi:cx="2.5625"
       sodipodi:cy="10.8125"
       sodipodi:rx="0.8125"
       sodipodi:ry="0.6875"
       d="M 3.375 10.8125 A 0.8125 0.6875 0 1 1  1.75,10.8125 A 0.8125 0.6875 0 1 1  3.375 10.8125 z"
       transform="matrix(0.2096777,1.4367494,-1.6802825,1.3365207,61.63965,-38.601503)" />
    <g
       id="g3444"
       style="opacity:1"
       transform="translate(0.148816,-0.2084076)">
      <path
         sodipodi:nodetypes="csccssc"
         id="path3404"
         d="M 24.351184,40.994157 C 24.351184,40.994157 10.924975,34.479653 7.4624873,27.279411 C 3.9999998,20.07917 5.1932425,17.656265 5.1932425,17.656265 C 8.1940655,8.9702587 14.929844,4.8299337 21.621796,3.8851843 C 21.621796,3.8851843 23.736179,10.135979 22.697432,15.964746 C 21.658686,21.793513 17.503701,23.972199 18.196199,30.486704 C 18.815588,36.313453 24.004935,41.337026 24.351184,40.994157 z "
         style="fill:url(#linearGradient3420);fill-opacity:1;fill-rule:evenodd;stroke:url(#linearGradient3428);stroke-width:1px;stroke-linecap:butt;stroke-linejoin:miter;stroke-opacity:1" />
      <path
         sodipodi:nodetypes="csccssc"
         id="path3430"
         d="M 19.800008,36.884584 C 19.800008,36.884584 14.199994,34.994476 9.536311,28.294838 C 5.9266533,23.109366 5.9501249,18.142663 5.9501249,18.142663 C 8.9509479,9.4566563 14.29028,5.9185838 20.982232,4.9738344 C 20.982232,4.9738344 23.475421,10.560134 21.771256,16.230173 C 20.35751,20.93394 16.044011,24.274035 17.020023,30.752131 C 17.389412,33.20388 19.703759,36.227453 19.800008,36.884584 z "
         style="fill:none;fill-opacity:1;fill-rule:evenodd;stroke:url(#linearGradient3442);stroke-width:1px;stroke-linecap:butt;stroke-linejoin:miter;stroke-opacity:1" />
    </g>
  </g>
</svg>
