<?xml version="1.0" encoding="UTF-8" standalone="no"?>
<!-- Created with Inkscape (http://www.inkscape.org/) -->
<svg
   xmlns:dc="http://purl.org/dc/elements/1.1/"
   xmlns:cc="http://creativecommons.org/ns#"
   xmlns:rdf="http://www.w3.org/1999/02/22-rdf-syntax-ns#"
   xmlns:svg="http://www.w3.org/2000/svg"
   xmlns="http://www.w3.org/2000/svg"
   xmlns:xlink="http://www.w3.org/1999/xlink"
   xmlns:sodipodi="http://sodipodi.sourceforge.net/DTD/sodipodi-0.dtd"
   xmlns:inkscape="http://www.inkscape.org/namespaces/inkscape"
   version="1.0"
   width="48"
   height="48"
   id="svg2"
   sodipodi:version="0.32"
   inkscape:version="0.46"
   sodipodi:docname="system-config-boot.svg"
   inkscape:output_extension="org.inkscape.output.svg.inkscape"
   inkscape:export-filename="/home/kynan/Desktop/refresh16.png"
   inkscape:export-xdpi="29.274244"
   inkscape:export-ydpi="29.274244">
  <metadata
     id="metadata50">
    <rdf:RDF>
      <cc:Work
         rdf:about="">
        <dc:format>image/svg+xml</dc:format>
        <dc:type
           rdf:resource="http://purl.org/dc/dcmitype/StillImage" />
      </cc:Work>
    </rdf:RDF>
  </metadata>
  <sodipodi:namedview
     inkscape:window-height="751"
     inkscape:window-width="1276"
     inkscape:pageshadow="2"
     inkscape:pageopacity="0.0"
     guidetolerance="10.0"
     gridtolerance="10.0"
     objecttolerance="10.0"
     borderopacity="1.0"
     bordercolor="#666666"
     pagecolor="#ffffff"
     id="base"
     showgrid="true"
     inkscape:zoom="5.5184696"
     inkscape:cx="45.843347"
     inkscape:cy="16.277942"
     inkscape:window-x="23"
     inkscape:window-y="150"
     inkscape:current-layer="svg2"
     showguides="true"
     inkscape:guide-bbox="true"
     inkscape:snap-global="false">
    <inkscape:grid
       type="xygrid"
       id="grid3339"
       empspacing="5"
       visible="true"
       enabled="true" />
  </sodipodi:namedview>
  <defs
     id="defs4">
    <linearGradient
       inkscape:collect="always"
       xlink:href="#XMLID_6_"
       id="linearGradient2550"
       gradientUnits="userSpaceOnUse"
       gradientTransform="matrix(1.0135007,0,0,1.0135007,-3.2525951,-2.2429591)"
       x1="49.273136"
       y1="22.274775"
       x2="49.373875"
       y2="102.04791" />
    <linearGradient
       id="XMLID_6_"
       gradientUnits="userSpaceOnUse"
       x1="64"
       y1="21.523018"
       x2="64"
       y2="103.06695"
       xlink:href="#XMLID_5_"
       spreadMethod="pad">
      <stop
         offset="0"
         style="stop-color:#d9d9d9;stop-opacity:1"
         id="stop31" />
      <stop
         offset="1"
         style="stop-color:#cccccc;stop-opacity:1"
         id="stop33" />
    </linearGradient>
    <linearGradient
       inkscape:collect="always"
       xlink:href="#XMLID_6_"
       id="linearGradient2548"
       gradientUnits="userSpaceOnUse"
       gradientTransform="matrix(1.0135007,0,0,1.0135007,-3.2525951,-2.2429591)"
       spreadMethod="pad"
       x1="64"
       y1="21.523018"
       x2="64"
       y2="103.06695" />
    <linearGradient
       inkscape:collect="always"
       id="linearGradient5128">
      <stop
         style="stop-color:#ffffff;stop-opacity:1"
         offset="0"
         id="stop5130" />
      <stop
         style="stop-color:#959595;stop-opacity:1"
         offset="1"
         id="stop5132" />
    </linearGradient>
    <linearGradient
       inkscape:collect="always"
       xlink:href="#linearGradient5128"
       id="linearGradient2546"
       gradientUnits="userSpaceOnUse"
       gradientTransform="matrix(0.878163,0,0,0.878163,5.4090154,7.0520528)"
       x1="86.132919"
       y1="105.105"
       x2="84.63858"
       y2="20.895" />
    <linearGradient
       y2="104.0591"
       x2="63.9995"
       y1="21.941401"
       x1="63.9995"
       gradientUnits="userSpaceOnUse"
       id="linearGradient2193">
      <stop
         id="stop2195"
         style="stop-color:#dddddd;stop-opacity:1"
         offset="0" />
      <stop
         id="stop2197"
         style="stop-color:#E8E9EF"
         offset="1" />
    </linearGradient>
    <linearGradient
       xlink:href="#linearGradient2193"
       y2="104.0591"
       x2="63.9995"
       y1="21.941401"
       x1="63.9995"
       gradientUnits="userSpaceOnUse"
       id="linearGradient2199"
       spreadMethod="pad">
      <stop
         id="stop2201"
         style="stop-color:#FCFCFD"
         offset="0" />
      <stop
         id="stop2203"
         style="stop-color:#cccccc;stop-opacity:1"
         offset="1" />
    </linearGradient>
    <linearGradient
       id="XMLID_5_"
       gradientUnits="userSpaceOnUse"
       x1="63.9995"
       y1="21.941401"
       x2="63.9995"
       y2="104.0591"
       xlink:href="#linearGradient2199"
       spreadMethod="pad">
      <stop
         offset="0"
         style="stop-color:#dadada;stop-opacity:1"
         id="stop24" />
      <stop
         offset="1"
         style="stop-color:#cccccc;stop-opacity:1"
         id="stop26" />
    </linearGradient>
    <linearGradient
       inkscape:collect="always"
       xlink:href="#XMLID_5_"
       id="linearGradient2544"
       gradientUnits="userSpaceOnUse"
       gradientTransform="matrix(0.878163,0,0,0.878163,5.4090154,7.0520528)"
       spreadMethod="pad"
       x1="63.9995"
       y1="21.941401"
       x2="63.9995"
       y2="104.0591" />
    <linearGradient
       id="XMLID_4_"
       gradientUnits="userSpaceOnUse"
       x1="63.9995"
       y1="3.1001"
       x2="63.9995"
       y2="122.8994">
      <stop
         offset="0"
         style="stop-color:#f2f2f2;stop-opacity:1"
         id="stop11" />
      <stop
         offset="1"
         style="stop-color:#d8d8d8;stop-opacity:1"
         id="stop13" />
    </linearGradient>
    <linearGradient
       inkscape:collect="always"
       xlink:href="#XMLID_4_"
       id="linearGradient2542"
       gradientUnits="userSpaceOnUse"
       gradientTransform="matrix(0.9619244,0,0,0.9619244,4.780512e-2,1.1025384)"
       x1="63.9995"
       y1="3.1001"
       x2="63.9995"
       y2="122.8994" />
    <inkscape:perspective
       sodipodi:type="inkscape:persp3d"
       inkscape:vp_x="0 : 24 : 1"
       inkscape:vp_y="0 : 1000 : 0"
       inkscape:vp_z="48 : 24 : 1"
       inkscape:persp3d-origin="24 : 16 : 1"
       id="perspective57" />
    <linearGradient
       id="linearGradient3519">
      <stop
         style="stop-color:#9bc2e6;stop-opacity:1;"
         offset="0"
         id="stop3521" />
      <stop
         id="stop3527"
         offset="0.50389373"
         style="stop-color:#a8c9e8;stop-opacity:1;" />
      <stop
         style="stop-color:#b3d0ea;stop-opacity:0;"
         offset="1"
         id="stop3523" />
    </linearGradient>
    <linearGradient
       id="linearGradient3466">
      <stop
         style="stop-color:#d3e3f1;stop-opacity:1;"
         offset="0"
         id="stop3468" />
      <stop
         style="stop-color:#9bc2e6;stop-opacity:1;"
         offset="1"
         id="stop3470" />
    </linearGradient>
    <linearGradient
       id="linearGradient3555">
      <stop
         offset="0"
         style="stop-color:#204a87;stop-opacity:1;"
         id="stop3557" />
      <stop
         id="stop3571"
         style="stop-color:#9bbcdb;stop-opacity:0.49803922;"
         offset="0.65560597" />
      <stop
         offset="0.8084684"
         style="stop-color:#729fcf;stop-opacity:0.24705882;"
         id="stop3573" />
      <stop
         id="stop3575"
         style="stop-color:#e6eff6;stop-opacity:0.12156863;"
         offset="0.875" />
      <stop
         offset="0.87544304"
         style="stop-color:#f2f6fa;stop-opacity:0.05882353;"
         id="stop3577" />
      <stop
         id="stop3579"
         style="stop-color:#f8fafc;stop-opacity:0.02745098;"
         offset="0.95787287" />
      <stop
         offset="0.984375"
         style="stop-color:#fbfcfd;stop-opacity:0.01176471;"
         id="stop3581" />
      <stop
         id="stop3583"
         style="stop-color:#fdfdfe;stop-opacity:0.00392157;"
         offset="0.984375" />
      <stop
         offset="1"
         style="stop-color:#ffffff;stop-opacity:0;"
         id="stop3567" />
    </linearGradient>
    <linearGradient
       id="linearGradient3533">
      <stop
         id="stop3535"
         style="stop-color:#729fcf;stop-opacity:1;"
         offset="0" />
      <stop
         id="stop3545"
         style="stop-color:#3465a4;stop-opacity:1;"
         offset="1" />
    </linearGradient>
    <linearGradient
       id="linearGradient3510">
      <stop
         id="stop3512"
         style="stop-color:#ffffff;stop-opacity:0;"
         offset="0" />
      <stop
         offset="0.20872974"
         style="stop-color:#cadbed;stop-opacity:0.49803922;"
         id="stop3549" />
      <stop
         id="stop3551"
         style="stop-color:#afc9e4;stop-opacity:0.74901961;"
         offset="0.42001507" />
      <stop
         offset="0.63354725"
         style="stop-color:#729fcf;stop-opacity:0.87450981;"
         id="stop3553" />
      <stop
         offset="0.8333326"
         style="stop-color:#4f7fbd;stop-opacity:1;"
         id="stop3520" />
      <stop
         id="stop3522"
         style="stop-color:#3465a4;stop-opacity:1;"
         offset="1" />
    </linearGradient>
    <linearGradient
       id="linearGradient8662">
      <stop
         id="stop8664"
         style="stop-color:#000000;stop-opacity:1"
         offset="0" />
      <stop
         id="stop8666"
         style="stop-color:#000000;stop-opacity:0"
         offset="1" />
    </linearGradient>
    <linearGradient
       inkscape:collect="always"
       xlink:href="#linearGradient3555"
       id="linearGradient3388"
       x1="34.797226"
       y1="33.335304"
       x2="37.003502"
       y2="24.253975"
       gradientUnits="userSpaceOnUse"
       gradientTransform="matrix(1.0397094,0,0,1.0396223,-2.2010867,-2.1419634)" />
    <linearGradient
       inkscape:collect="always"
       xlink:href="#linearGradient3533"
       id="linearGradient3531"
       gradientUnits="userSpaceOnUse"
       gradientTransform="matrix(1.0397094,0,0,1.0396223,-2.1643225,-2.1562621)"
       x1="24.869152"
       y1="6.5016141"
       x2="24.869152"
       y2="23.945757" />
    <linearGradient
       inkscape:collect="always"
       xlink:href="#linearGradient3510"
       id="linearGradient3585"
       gradientUnits="userSpaceOnUse"
       x1="33.898193"
       y1="23.726042"
       x2="30.249519"
       y2="36.941002"
       gradientTransform="matrix(1.0397094,0,0,1.0396223,-2.2010867,-2.1419634)" />
    <linearGradient
       id="linearGradient5105-262-943-861"
       inkscape:collect="always">
      <stop
         style="stop-color:#0d0d0d;stop-opacity:1;"
         id="stop2487"
         offset="0" />
      <stop
         style="stop-color:#0d0d0d;stop-opacity:0;"
         id="stop2489"
         offset="1" />
    </linearGradient>
    <radialGradient
       r="8.0625"
       fy="19.03125"
       fx="11.25"
       cy="19.03125"
       cx="11.25"
       gradientTransform="matrix(1,0,0,0.282946,0,13.64644)"
       gradientUnits="userSpaceOnUse"
       id="radialGradient2538"
       xlink:href="#linearGradient5105-262-943-861"
       inkscape:collect="always" />
    <linearGradient
       inkscape:collect="always"
       xlink:href="#linearGradient3466"
       id="linearGradient3472"
       x1="21.628975"
       y1="2.1102102"
       x2="22.245434"
       y2="43.366352"
       gradientUnits="userSpaceOnUse" />
    <radialGradient
       inkscape:collect="always"
       xlink:href="#linearGradient8662"
       id="radialGradient3503"
       gradientUnits="userSpaceOnUse"
       gradientTransform="matrix(1,0,0,0.536723,0,16.87306)"
       cx="24.837126"
       cy="36.421127"
       fx="24.837126"
       fy="36.421127"
       r="15.644737" />
    <linearGradient
       inkscape:collect="always"
       xlink:href="#linearGradient3519"
       id="linearGradient3525"
       x1="32.488918"
       y1="43.36541"
       x2="38.281746"
       y2="22.543968"
       gradientUnits="userSpaceOnUse" />
    <linearGradient
       inkscape:collect="always"
       xlink:href="#linearGradient3510"
       id="linearGradient2893"
       gradientUnits="userSpaceOnUse"
       gradientTransform="matrix(0.6886388,0,0,0.6885811,6.2089832,6.0378627)"
       x1="33.898193"
       y1="23.726042"
       x2="30.249519"
       y2="36.941002" />
    <linearGradient
       inkscape:collect="always"
       xlink:href="#linearGradient3519"
       id="linearGradient2895"
       gradientUnits="userSpaceOnUse"
       x1="32.488918"
       y1="43.36541"
       x2="38.281746"
       y2="22.543968"
       gradientTransform="matrix(0.6623377,0,0,0.6623377,7.6668459,7.4565647)" />
    <linearGradient
       inkscape:collect="always"
       xlink:href="#linearGradient3533"
       id="linearGradient2897"
       gradientUnits="userSpaceOnUse"
       gradientTransform="matrix(0.6886388,0,0,0.6885811,6.2333336,6.0283915)"
       x1="24.869152"
       y1="6.5016141"
       x2="24.869152"
       y2="23.945757" />
    <linearGradient
       inkscape:collect="always"
       xlink:href="#linearGradient3466"
       id="linearGradient2899"
       gradientUnits="userSpaceOnUse"
       x1="21.628975"
       y1="2.1102102"
       x2="22.245434"
       y2="43.366352"
       gradientTransform="matrix(0.6623377,0,0,0.6623377,7.6668459,7.4565647)" />
    <linearGradient
       inkscape:collect="always"
       xlink:href="#linearGradient3555"
       id="linearGradient2901"
       gradientUnits="userSpaceOnUse"
       gradientTransform="matrix(0.6886388,0,0,0.6885811,6.2089832,6.0378627)"
       x1="34.797226"
       y1="33.335304"
       x2="37.003502"
       y2="24.253975" />
    <linearGradient
       inkscape:collect="always"
       xlink:href="#XMLID_4_"
       id="linearGradient2935"
       gradientUnits="userSpaceOnUse"
       gradientTransform="matrix(0.9619244,0,0,0.9619244,4.780512e-2,1.1025384)"
       x1="63.9995"
       y1="3.1001"
       x2="63.9995"
       y2="122.8994" />
    <linearGradient
       inkscape:collect="always"
       xlink:href="#XMLID_5_"
       id="linearGradient2937"
       gradientUnits="userSpaceOnUse"
       gradientTransform="matrix(0.878163,0,0,0.878163,5.4090154,7.0520528)"
       spreadMethod="pad"
       x1="63.9995"
       y1="21.941401"
       x2="63.9995"
       y2="104.0591" />
    <linearGradient
       inkscape:collect="always"
       xlink:href="#linearGradient5128"
       id="linearGradient2939"
       gradientUnits="userSpaceOnUse"
       gradientTransform="matrix(0.878163,0,0,0.878163,5.4090154,7.0520528)"
       x1="86.132919"
       y1="105.105"
       x2="84.63858"
       y2="20.895" />
    <linearGradient
       inkscape:collect="always"
       xlink:href="#XMLID_6_"
       id="linearGradient2941"
       gradientUnits="userSpaceOnUse"
       gradientTransform="matrix(1.0135007,0,0,1.0135007,-3.2525951,-2.2429591)"
       spreadMethod="pad"
       x1="64"
       y1="21.523018"
       x2="64"
       y2="103.06695" />
    <linearGradient
       inkscape:collect="always"
       xlink:href="#XMLID_6_"
       id="linearGradient2943"
       gradientUnits="userSpaceOnUse"
       gradientTransform="matrix(1.0135007,0,0,1.0135007,-3.2525951,-2.2429591)"
       x1="49.273136"
       y1="22.274775"
       x2="49.373875"
       y2="102.04791" />
  </defs>
  <g
     transform="translate(-1.5907386,-1.0136892)"
     id="layer2"
     style="display:inline" />
  <g
     inkscape:label="Layer 1"
     id="layer1"
     style="display:inline">
    <path
       transform="matrix(-1.489736,0,0,-1.001252,61.00076,76.05932)"
       d="M 40.481863,36.421127 A 15.644737,8.3968935 0 1 1 9.1923885,36.421127 A 15.644737,8.3968935 0 1 1 40.481863,36.421127 z"
       sodipodi:ry="8.3968935"
       sodipodi:rx="15.644737"
       sodipodi:cy="36.421127"
       sodipodi:cx="24.837126"
       id="path3458"
       style="opacity:0.38333333;fill:url(#radialGradient3503);fill-opacity:1;fill-rule:evenodd;stroke:none;stroke-width:1;stroke-linecap:butt;stroke-linejoin:miter;marker:none;marker-start:none;marker-mid:none;marker-end:none;stroke-miterlimit:10;stroke-dasharray:none;stroke-dashoffset:0;stroke-opacity:1;visibility:visible;display:inline;overflow:visible"
       sodipodi:type="arc"
       inkscape:r_cx="true"
       inkscape:r_cy="true" />
  </g>
  <g
     id="g2630"
     inkscape:label="sdf"
     style="display:inline"
     transform="translate(-70.604705,-2.1799939)" />
  <path
     id="path4346"
     sodipodi:cx="11.25"
     sodipodi:cy="19.03125"
     transform="matrix(2.9695155,0,0,2.8861277,-9.4070494,-13.551618)"
     d="M 19.3125,19.03125 A 8.0625,2.28125 0 1 1 3.1875,19.03125 A 8.0625,2.28125 0 1 1 19.3125,19.03125 z"
     sodipodi:type="arc"
     style="opacity:0.16292138;fill:url(#radialGradient2538);fill-opacity:1;fill-rule:nonzero;stroke:none;stroke-width:1;marker:none;marker-start:none;marker-mid:none;marker-end:none;visibility:visible;display:inline;overflow:visible"
     sodipodi:ry="2.28125"
     sodipodi:rx="8.0625" />
  <g
     inkscape:groupmode="layer"
     id="layer4"
     inkscape:label="jjj" />
  <g
     id="g2535"
     transform="matrix(0.3733977,0,0,0.3733977,0.8974698,-0.4356276)">
    <path
       style="opacity:0.1;fill:#030303"
       id="path6"
       d="M 116.2906,48.495591 L 111.66085,48.495591 C 110.41131,48.495591 108.9665,47.455751 108.56923,46.271622 C 108.5471,46.210059 105.69596,39.308252 105.69596,39.308252 C 105.10919,38.12797 105.39295,36.374382 106.276,35.490374 L 109.54943,32.216945 C 110.30165,31.463758 110.71721,30.459509 110.71721,29.388887 C 110.71721,28.318265 110.30165,27.314016 109.54943,26.561791 L 96.660604,13.672966 C 95.908379,12.920742 94.90413,12.506152 93.833508,12.50519 C 92.762886,12.50519 91.758637,12.91978 91.006412,13.672966 L 87.732984,16.946395 C 86.849937,17.82848 85.095387,18.113209 83.978593,17.555293 C 83.916068,17.526436 77.01426,14.676254 77.01426,14.676254 C 75.767606,14.255893 74.727766,12.811082 74.727766,11.561542 L 74.727766,6.9308383 C 74.72488,4.7251456 72.930891,2.9311567 70.72616,2.9311567 L 52.499617,2.9311567 C 50.293924,2.9311567 48.499935,4.7251456 48.499935,6.9308383 L 48.499935,11.561542 C 48.499935,12.811082 47.460095,14.255893 46.275966,14.653167 C 46.214403,14.676254 39.312595,17.526436 39.312595,17.526436 C 38.132314,18.113209 36.377764,17.82848 35.494717,16.945433 L 32.221289,13.672966 C 31.468102,12.91978 30.463853,12.50519 29.393231,12.50519 C 28.322609,12.50519 27.31836,12.920742 26.566135,13.672966 L 13.676348,26.561791 C 12.117069,28.121071 12.117069,30.657665 13.676348,32.216945 L 16.949777,35.490374 C 17.831862,36.37342 18.116591,38.12797 17.558675,39.244765 C 17.529817,39.30729 14.678674,46.209097 14.678674,46.209097 C 14.258313,47.455751 12.814464,48.49463 11.564924,48.49463 L 8.1347018,48.49463 C 5.9299711,48.495591 2.9355005,50.28958 2.9355005,52.495273 L 2.9355005,70.720855 C 2.9355005,72.926547 4.7294895,74.720536 6.9351821,74.720536 L 11.565886,74.720536 C 12.815426,74.720536 14.260236,75.759415 14.656549,76.944505 C 14.679635,77.006069 17.530779,83.907876 17.530779,83.907876 C 18.117553,85.088157 17.832824,86.841746 16.950739,87.725754 L 13.67731,90.999183 C 12.118031,92.558462 12.118031,95.095057 13.67731,96.654336 L 26.567097,109.54316 C 27.319322,110.29539 28.323571,110.71094 29.394193,110.71094 C 30.465777,110.71094 31.470026,110.29539 32.222251,109.54316 L 35.495679,106.26973 C 36.378726,105.38765 38.133276,105.10292 39.25007,105.66083 C 39.312595,105.68969 46.214403,108.54084 46.214403,108.54084 C 47.460095,108.9612 48.499935,110.40505 48.499935,111.65459 L 48.499935,116.28433 C 48.499935,118.49002 50.293924,120.28401 52.499617,120.28401 L 70.725198,120.28401 C 72.929929,120.28401 74.723918,118.49002 74.723918,116.28433 L 74.723918,111.65459 C 74.723918,110.40505 75.763758,108.96024 76.948849,108.56296 C 77.010412,108.54084 83.91222,105.68969 83.91222,105.68969 C 85.092501,105.10292 86.848013,105.38669 87.730098,106.26973 L 91.003527,109.54316 C 91.755752,110.29539 92.760001,110.71094 93.830622,110.71094 C 94.901244,110.71094 95.905493,110.29539 96.657718,109.54316 L 109.54654,96.654336 C 110.29877,95.902111 110.71432,94.897862 110.71432,93.827241 C 110.71432,92.756619 110.29877,91.75237 109.54654,91.000145 L 106.27311,87.726716 C 105.39007,86.843669 105.1063,85.089119 105.66422,83.972325 C 105.69307,83.9098 108.54422,77.007992 108.54422,77.007992 C 108.96458,75.7623 110.40843,74.72246 111.65797,74.72246 L 116.28771,74.72246 C 118.4934,74.72246 120.28739,72.928471 120.28739,70.722778 L 120.28739,52.495273 C 120.29028,50.28958 118.49629,48.495591 116.2906,48.495591 z M 61.612889,78.625949 C 52.229316,78.625949 44.594522,70.992117 44.594522,61.608545 C 44.594522,52.224972 52.229316,44.590178 61.612889,44.590178 C 70.997423,44.590178 78.630293,52.224972 78.630293,61.608545 C 78.630293,70.993079 70.997423,78.625949 61.612889,78.625949 z" />
    <path
       style="opacity:1;fill:#626262;fill-opacity:1;stroke:#888888;stroke-width:3.33467126;stroke-linecap:round;stroke-linejoin:round;stroke-miterlimit:4;stroke-dasharray:none;stroke-opacity:1"
       id="path8"
       d="M 116.2906,48.473467 L 111.66085,48.473467 C 110.41131,48.473467 108.9665,47.431703 108.56923,46.24565 C 108.5471,46.184087 105.69596,39.271698 105.69596,39.271698 C 105.10919,38.089493 105.39295,36.333019 106.276,35.448049 L 109.54943,32.168849 C 110.30165,31.4147 110.71721,30.408527 110.71721,29.335981 C 110.71721,28.264398 110.30165,27.258225 109.54943,26.504076 L 96.660604,13.594089 C 95.908379,12.83994 94.90413,12.424389 93.833508,12.424389 C 92.762886,12.424389 91.758637,12.83994 91.006412,13.594089 L 87.732984,16.872327 C 86.849937,17.756335 85.095387,18.041065 83.978593,17.482187 C 83.916068,17.453329 77.01426,14.598338 77.01426,14.598338 C 75.767606,14.177015 74.727766,12.73028 74.727766,11.478817 L 74.727766,6.8404174 C 74.72488,4.6308771 72.930891,2.8340023 70.72616,2.8340023 L 52.499617,2.8340023 C 50.293924,2.8340023 48.499935,4.6308771 48.499935,6.8404174 L 48.499935,11.478817 C 48.499935,12.73028 47.460095,14.177977 46.275966,14.575251 C 46.214403,14.598338 39.312595,17.453329 39.312595,17.453329 C 38.132314,18.041065 36.377764,17.756335 35.494717,16.872327 L 32.221289,13.594089 C 31.468102,12.83994 30.463853,12.424389 29.393231,12.424389 C 28.322609,12.424389 27.31836,12.840902 26.566135,13.594089 L 13.676348,26.504076 C 12.117069,28.066241 12.117069,30.607645 13.676348,32.168849 L 16.949777,35.448049 C 17.831862,36.332057 18.116591,38.089493 17.558675,39.209173 C 17.529817,39.271698 14.678674,46.185049 14.678674,46.185049 C 14.258313,47.433627 12.814464,48.474429 11.564924,48.474429 L 8.1347018,48.474429 C 5.9299711,48.473467 2.9355005,50.270342 2.9355005,52.479882 L 2.9355005,70.736245 C 2.9355005,72.944824 4.7294895,74.741699 6.9351821,74.741699 L 11.565886,74.741699 C 12.815426,74.741699 14.260236,75.782501 14.656549,76.969516 C 14.679635,77.031079 17.530779,83.943467 17.530779,83.943467 C 18.117553,85.125672 17.832824,86.883108 16.950739,87.768079 L 13.67731,91.047279 C 12.118031,92.608482 12.118031,95.150849 13.67731,96.712052 L 26.567097,109.62204 C 27.319322,110.37619 28.323571,110.79174 29.394193,110.79174 C 30.465777,110.79174 31.470026,110.37619 32.222251,109.62204 L 35.495679,106.3438 C 36.378726,105.45979 38.133276,105.1741 39.25007,105.73394 C 39.312595,105.76184 46.214403,108.61779 46.214403,108.61779 C 47.460095,109.03911 48.499935,110.48489 48.499935,111.73731 L 48.499935,116.37475 C 48.499935,118.58429 50.293924,120.38116 52.499617,120.38116 L 70.725198,120.38116 C 72.929929,120.38116 74.723918,118.58429 74.723918,116.37475 L 74.723918,111.73731 C 74.723918,110.48489 75.763758,109.03815 76.948849,108.63991 C 77.010412,108.61779 83.91222,105.76184 83.91222,105.76184 C 85.092501,105.1741 86.848013,105.45979 87.730098,106.34284 L 91.003527,109.62108 C 91.755752,110.37523 92.760001,110.79078 93.830622,110.79078 C 94.901244,110.79078 95.905493,110.37523 96.657718,109.62108 L 109.54654,96.71109 C 110.29877,95.957903 110.71432,94.95173 110.71432,93.879184 C 110.71432,92.806639 110.29877,91.800466 109.54654,91.047279 L 106.27311,87.768079 C 105.39007,86.88407 105.1063,85.125672 105.66422,84.007916 C 105.69307,83.944429 108.54422,77.032041 108.54422,77.032041 C 108.96458,75.782501 110.40843,74.741699 111.65797,74.741699 L 116.28771,74.741699 C 118.4934,74.741699 120.28739,72.944824 120.28739,70.736245 L 120.28739,52.479882 C 120.29028,50.270342 118.49629,48.473467 116.2906,48.473467 z M 61.612889,79.971682 C 51.432843,79.971682 43.151636,71.690474 43.151636,61.51139 C 43.151636,51.331345 51.432843,43.050137 61.612889,43.050137 C 71.791973,43.050137 80.07318,51.331345 80.07318,61.51139 C 80.07318,71.690474 71.791973,79.971682 61.612889,79.971682 z" />
    <path
       style="fill:url(#linearGradient2935)"
       id="path15"
       d="M 116.19825,49.572947 L 111.57428,49.572947 C 109.86494,49.572947 108.03055,48.253187 107.4861,46.631382 L 104.64362,39.747851 C 103.88081,38.224163 104.24153,35.996346 105.45163,34.786245 L 108.71833,31.518588 C 109.27047,30.966443 109.5754,30.229609 109.5754,29.441793 C 109.5754,28.654939 109.27143,27.918105 108.71833,27.36596 L 95.851627,14.499259 C 95.301407,13.947115 94.562649,13.643147 93.776756,13.643147 C 92.989902,13.643147 92.252106,13.947115 91.699962,14.499259 L 88.433266,17.766917 C 87.223165,18.976056 84.995349,19.337739 83.464927,18.572047 L 76.582358,15.728599 C 74.966325,15.187035 73.645603,13.353607 73.645603,11.643306 L 73.645603,7.0202973 C 73.645603,5.4013785 72.328728,4.084504 70.709809,4.084504 L 52.513086,4.084504 C 50.893205,4.084504 49.57633,5.4013785 49.57633,7.0202973 L 49.57633,11.643306 C 49.57633,13.353607 48.25657,15.187035 46.634766,15.731485 C 46.634766,15.731485 39.751235,18.574933 39.751235,18.574933 C 38.227546,19.336777 35.998768,18.976056 34.789629,17.766917 L 31.521971,14.499259 C 30.969827,13.947115 30.232993,13.643147 29.445177,13.643147 C 28.658322,13.643147 27.921488,13.947115 27.369344,14.499259 L 14.501681,27.366922 C 13.356991,28.511612 13.356991,30.373898 14.501681,31.518588 L 17.769338,34.786245 C 18.978477,35.995384 19.340161,38.224163 18.574469,39.754584 C 18.574469,39.754584 15.73102,46.638115 15.73102,46.638115 C 15.189457,48.254148 13.356991,49.572947 11.645728,49.572947 L 8.2241625,49.572947 C 6.6283299,49.572947 4.0878876,50.916755 4.0878876,52.509702 L 4.0878876,70.705464 C 4.0878876,72.325345 5.4047621,73.642219 7.0236808,73.642219 L 11.646689,73.642219 C 13.356991,73.642219 15.190419,74.961979 15.733906,76.584746 L 18.578317,83.468277 C 19.340161,84.991965 18.979439,87.219782 17.7703,88.429883 L 14.502643,91.696578 C 13.357953,92.841268 13.357953,94.704516 14.502643,95.848244 L 27.370306,108.71591 C 27.921488,109.26805 28.659284,109.57298 29.446139,109.57298 C 30.232993,109.57298 30.970789,109.26901 31.522933,108.71591 L 34.79059,105.44921 C 35.999729,104.23911 38.228508,103.87839 39.75893,104.64312 C 39.75893,104.64312 46.642461,107.48561 46.642461,107.48561 C 48.258494,108.02717 49.577292,109.86156 49.577292,111.57186 L 49.577292,116.19391 C 49.577292,117.81379 50.894167,119.13066 52.514047,119.13066 L 70.709809,119.13066 C 72.328728,119.13066 73.645603,117.81379 73.645603,116.19391 L 73.645603,111.57186 C 73.645603,109.86156 74.966325,108.02621 76.588129,107.48368 C 76.588129,107.48272 83.47166,104.64023 83.47166,104.64023 C 84.995349,103.87839 87.223165,104.23911 88.433266,105.44921 L 91.699962,108.71591 C 92.252106,109.26805 92.989902,109.57298 93.776756,109.57298 C 94.562649,109.57298 95.301407,109.26901 95.851627,108.71591 L 108.71929,95.848244 C 109.27143,95.297061 109.57636,94.559265 109.57636,93.772411 C 109.57636,92.985557 109.2724,92.248723 108.71929,91.696578 L 105.45259,88.429883 C 104.24249,87.219782 103.88177,84.991003 104.6465,83.460581 L 107.48995,76.578012 C 108.03151,74.961979 109.8659,73.642219 111.57524,73.642219 L 116.19921,73.642219 C 117.81813,73.642219 119.13501,72.325345 119.13501,70.705464 L 119.13501,52.509702 C 119.13405,50.890783 117.81717,49.572947 116.19825,49.572947 z M 61.610966,91.427239 C 45.221699,91.427239 31.887503,78.093043 31.887503,61.703775 C 31.887503,45.314507 45.221699,31.980311 61.610966,31.980311 C 78.000234,31.980311 91.33443,45.314507 91.33443,61.703775 C 91.33443,78.093043 78.000234,91.427239 61.610966,91.427239 z" />
    <path
       style="fill:url(#linearGradient2937);stroke:url(#linearGradient2939);stroke-width:2.30861855;stroke-miterlimit:4;stroke-dasharray:none"
       id="path28"
       d="M 61.611448,25.84035 C 41.46551,25.84035 25.075476,42.230384 25.075476,62.376322 C 25.075476,82.522259 41.46551,98.912294 61.611448,98.912294 C 81.757385,98.912294 98.147419,82.522259 98.147419,62.376322 C 98.147419,42.230384 81.757385,25.84035 61.611448,25.84035 z M 61.611448,89.24811 C 46.769615,89.24811 34.73966,77.219033 34.73966,62.376322 C 34.73966,47.533611 46.769615,35.504534 61.611448,35.504534 C 76.45328,35.504534 88.483235,47.534489 88.483235,62.376322 C 88.483235,77.218155 76.45328,89.24811 61.611448,89.24811 z" />
    <path
       style="fill:url(#linearGradient2941);stroke:url(#linearGradient2943);stroke-width:1.01350069;stroke-opacity:1"
       id="path35"
       d="M 61.611448,30.189062 C 44.259303,30.189062 30.192927,44.255438 30.192927,61.607583 C 30.192927,78.959728 44.259303,93.026104 61.611448,93.026104 C 78.963592,93.026104 93.029968,78.959728 93.029968,61.607583 C 93.029968,44.255438 78.963592,30.189062 61.611448,30.189062 z M 61.611448,82.384347 C 50.135579,82.384347 40.834684,73.082437 40.834684,61.607583 C 40.834684,50.131715 50.135579,40.830819 61.611448,40.830819 C 73.086302,40.830819 82.388211,50.131715 82.388211,61.607583 C 82.388211,73.082437 73.086302,82.384347 61.611448,82.384347 z" />
  </g>
  <g
     id="layer6"
     inkscape:label="Shadow"
     transform="matrix(1.0078116,0,0,1.0078116,-230.26175,24.175771)" />
  <g
     style="display:inline"
     inkscape:label="Base"
     id="g2161"
     transform="matrix(1.0078116,0,0,1.0078116,-230.26175,24.175771)" />
  <g
     id="layer5"
     inkscape:label="shadiw"
     transform="matrix(1.0078116,0,0,1.0078116,-283.73428,-1.2360166)" />
  <path
     id="path2557"
     style="fill:url(#linearGradient2893);fill-opacity:1;stroke:url(#linearGradient2895);stroke-width:1;stroke-linecap:butt;stroke-linejoin:round;stroke-miterlimit:4;stroke-dasharray:none;stroke-opacity:1"
     d="M 22.914468,35.35 C 29.10732,35.411971 36.401953,31.745142 36.471486,22.824059 L 31.695386,22.771497 C 31.700407,26.391379 27.56817,29.856492 23.70723,29.970967"
     sodipodi:nodetypes="cccc" />
  <path
     id="path3370"
     style="fill:url(#linearGradient2897);fill-opacity:1;stroke:url(#linearGradient2899);stroke-width:1;stroke-linecap:butt;stroke-linejoin:round;stroke-miterlimit:4;stroke-dasharray:none;stroke-opacity:1"
     d="M 23.927435,29.985268 C 20.163721,29.930242 16.659684,26.688809 16.655724,22.32937 C 16.652345,18.584237 20.429973,14.924026 24.193689,14.979052 C 26.048824,15.006173 28.209389,15.710179 30.105835,17.654333 L 28.037008,19.51017 L 35.686775,19.51017 C 35.686775,19.51017 35.505565,12.057908 35.505565,12.057908 L 33.698051,13.858626 C 31.239859,11.116669 28.122643,9.6225046 24.277558,9.5840266 C 16.922607,9.5104276 11.444214,15.075611 11.387379,22.430539 C 11.567177,30.65852 17.678731,35.170899 24.139782,35.311598"
     sodipodi:nodetypes="csscccccscc" />
  <path
     id="path3372"
     style="fill:#000000;fill-opacity:0;stroke:#204a87;stroke-width:1;stroke-linecap:butt;stroke-linejoin:round;stroke-miterlimit:4;stroke-dasharray:none;stroke-opacity:1"
     d="M 23.861549,28.991126 C 20.464411,28.953735 17.660092,25.713209 17.69765,22.331123 C 17.735209,18.94904 20.781121,15.976171 24.17826,16.013563 C 25.818834,16.031619 27.40838,16.558589 28.58665,17.695233 L 25.53006,20.514025 L 36.548279,20.514025 C 36.548279,20.514025 36.548279,9.5446336 36.548279,9.5446336 L 33.716857,12.46376 C 31.143318,9.9347993 28.168439,8.6096712 24.370219,8.5678651 C 16.643438,8.4828179 10.480954,14.777144 10.395528,22.469687 C 10.310102,30.162231 16.458199,36.179024 24.18498,36.264072"
     sodipodi:nodetypes="csscccccssc" />
  <path
     id="path3453"
     style="fill:#000000;fill-opacity:0;stroke:url(#linearGradient2901);stroke-width:1;stroke-linecap:butt;stroke-linejoin:miter;stroke-miterlimit:4;stroke-dasharray:none;stroke-opacity:1"
     d="M 23.88638,36.262783 C 30.34768,36.3339 37.578341,31.341506 37.566712,22.71173 L 30.724394,22.65847 C 30.598427,26.178803 26.907848,29.118971 23.84004,28.987882"
     sodipodi:nodetypes="cccc" />
</svg>
