<?xml version="1.0" encoding="UTF-8" standalone="no"?>
<!-- Created with Inkscape (http://www.inkscape.org/) -->
<svg
   xmlns:dc="http://purl.org/dc/elements/1.1/"
   xmlns:cc="http://web.resource.org/cc/"
   xmlns:rdf="http://www.w3.org/1999/02/22-rdf-syntax-ns#"
   xmlns:svg="http://www.w3.org/2000/svg"
   xmlns="http://www.w3.org/2000/svg"
   xmlns:xlink="http://www.w3.org/1999/xlink"
   xmlns:sodipodi="http://sodipodi.sourceforge.net/DTD/sodipodi-0.dtd"
   xmlns:inkscape="http://www.inkscape.org/namespaces/inkscape"
   width="48"
   height="48"
   id="svg2"
   sodipodi:version="0.32"
   inkscape:version="0.45"
   version="1.0"
   sodipodi:docname="vim2.svg"
   sodipodi:docbase="/home/bloody/Works/UI"
   inkscape:output_extension="org.inkscape.output.svg.inkscape"
   sodipodi:modified="true">
  <defs
     id="defs4">
    <linearGradient
       id="linearGradient3163">
      <stop
         style="stop-color:#f9f9f9;stop-opacity:1;"
         offset="0"
         id="stop3165" />
      <stop
         style="stop-color:#bababa;stop-opacity:1;"
         offset="1"
         id="stop3167" />
    </linearGradient>
    <linearGradient
       id="linearGradient3208">
      <stop
         style="stop-color:#2e3436;stop-opacity:0.54000002;"
         offset="0"
         id="stop3210" />
      <stop
         style="stop-color:#2e3436;stop-opacity:0;"
         offset="1"
         id="stop3212" />
    </linearGradient>
    <linearGradient
       id="linearGradient3151">
      <stop
         style="stop-color:#67b300;stop-opacity:1;"
         offset="0"
         id="stop3153" />
      <stop
         style="stop-color:#e8ffc2;stop-opacity:1;"
         offset="1"
         id="stop3155" />
    </linearGradient>
    <linearGradient
       id="linearGradient3135">
      <stop
         style="stop-color:#ceffab;stop-opacity:1;"
         offset="0"
         id="stop3137" />
      <stop
         style="stop-color:#ffffff;stop-opacity:1;"
         offset="1"
         id="stop3139" />
    </linearGradient>
    <linearGradient
       inkscape:collect="always"
       xlink:href="#linearGradient3135"
       id="linearGradient3141"
       x1="16.111633"
       y1="17.579969"
       x2="-14.111894"
       y2="47.803497"
       gradientUnits="userSpaceOnUse"
       gradientTransform="translate(-0.6655122,0.8318903)" />
    <linearGradient
       inkscape:collect="always"
       xlink:href="#linearGradient3151"
       id="linearGradient3157"
       x1="14.64127"
       y1="19.466234"
       x2="-31.236383"
       y2="65.343887"
       gradientUnits="userSpaceOnUse"
       gradientTransform="translate(-0.6655123,0.8318903)" />
    <radialGradient
       inkscape:collect="always"
       xlink:href="#linearGradient3208"
       id="radialGradient3214"
       cx="23.82353"
       cy="36.882355"
       fx="23.82353"
       fy="36.882355"
       r="22.121323"
       gradientTransform="matrix(0.9095895,-9.6925731e-8,3.515396e-8,0.3298987,2.1538962,24.714918)"
       gradientUnits="userSpaceOnUse" />
    <linearGradient
       inkscape:collect="always"
       xlink:href="#linearGradient3135"
       id="linearGradient3158"
       gradientUnits="userSpaceOnUse"
       gradientTransform="translate(-0.6655122,0.8318903)"
       x1="16.111633"
       y1="17.579969"
       x2="-14.111894"
       y2="47.803497" />
    <linearGradient
       inkscape:collect="always"
       xlink:href="#linearGradient3151"
       id="linearGradient3161"
       gradientUnits="userSpaceOnUse"
       gradientTransform="translate(-0.6655123,0.8318903)"
       x1="14.64127"
       y1="19.466234"
       x2="-31.236383"
       y2="65.343887" />
    <linearGradient
       inkscape:collect="always"
       xlink:href="#linearGradient3163"
       id="linearGradient3169"
       x1="19.899738"
       y1="0.42895654"
       x2="19.899738"
       y2="47.917706"
       gradientUnits="userSpaceOnUse" />
  </defs>
  <sodipodi:namedview
     id="base"
     pagecolor="#ffffff"
     bordercolor="#666666"
     borderopacity="1.0"
     gridtolerance="10000"
     guidetolerance="10"
     objecttolerance="10"
     inkscape:pageopacity="0.0"
     inkscape:pageshadow="2"
     inkscape:zoom="1"
     inkscape:cx="24"
     inkscape:cy="23.5"
     inkscape:document-units="px"
     inkscape:current-layer="layer1"
     width="48px"
     height="48px"
     inkscape:showpageshadow="false"
     showguides="true"
     inkscape:guide-bbox="true"
     inkscape:window-width="872"
     inkscape:window-height="817"
     inkscape:window-x="259"
     inkscape:window-y="109" />
  <metadata
     id="metadata7">
    <rdf:RDF>
      <cc:Work
         rdf:about="">
        <dc:format>image/svg+xml</dc:format>
        <dc:type
           rdf:resource="http://purl.org/dc/dcmitype/StillImage" />
      </cc:Work>
    </rdf:RDF>
  </metadata>
  <g
     inkscape:label="Layer 1"
     inkscape:groupmode="layer"
     id="layer1">
    <path
       sodipodi:type="arc"
       style="opacity:1;fill:url(#radialGradient3214);fill-opacity:1;stroke:none;stroke-width:0.1;stroke-linecap:butt;stroke-linejoin:round;stroke-miterlimit:4;stroke-dasharray:none;stroke-dashoffset:0;stroke-opacity:1"
       id="path3206"
       sodipodi:cx="23.82353"
       sodipodi:cy="36.882355"
       sodipodi:rx="22.058823"
       sodipodi:ry="9.1176472"
       d="M 45.882353 36.882355 A 22.058823 9.1176472 0 1 1  1.7647076,36.882355 A 22.058823 9.1176472 0 1 1  45.882353 36.882355 z"
       transform="matrix(1,0,0,0.8516129,-0.117647,9.1787479)" />
    <rect
       style="fill:url(#linearGradient3161);fill-opacity:1;stroke:#000000;stroke-width:1;stroke-linecap:butt;stroke-linejoin:round;stroke-miterlimit:4;stroke-dasharray:none;stroke-dashoffset:0;stroke-opacity:1"
       id="rect2160"
       width="32.655575"
       height="32.655575"
       x="-15.995031"
       y="17.197393"
       rx="2.9803922"
       ry="2.9803922"
       transform="matrix(0.7071068,-0.7071068,0.7071068,0.7071068,0,0)" />
    <rect
       style="fill:none;fill-opacity:1;stroke:url(#linearGradient3158);stroke-width:1;stroke-linecap:butt;stroke-linejoin:round;stroke-miterlimit:4;stroke-dasharray:none;stroke-dashoffset:0;stroke-opacity:1"
       id="rect3133"
       width="30.763315"
       height="30.763315"
       x="-15.048897"
       y="18.143564"
       rx="2.0686293"
       ry="2.0686293"
       transform="matrix(0.7071068,-0.7071068,0.7071068,0.7071068,0,0)" />
    <path
       style="fill:#000000;fill-opacity:1;stroke:#2e3436;stroke-width:1;stroke-linecap:butt;stroke-linejoin:round;stroke-miterlimit:4;stroke-dashoffset:0;stroke-opacity:1"
       d="M 6.1609176,5.1177899 C 4.7357486,5.1177899 3.5714846,6.282054 3.5714846,7.7072229 L 3.5714846,8.8401006 C 3.5714846,10.265272 4.7357486,11.429535 6.1609176,11.429534 L 6.9431426,11.429534 L 6.9431426,41.842681 C 6.9431426,43.267851 7.0649686,44.432114 8.4901386,44.432115 C 10.396811,44.533661 10.605296,44.035997 14.630523,39.99422 L 43.330078,10.970989 C 43.659695,10.64137 43.890416,10.256254 44.004409,9.838111 C 44.13424,9.530134 44.193222,9.1963926 44.193222,8.8401006 L 44.193222,7.7072229 C 44.193222,6.282054 43.055932,5.117791 41.630762,5.1177899 L 32.044145,5.1177899 C 30.618975,5.1177899 29.481685,6.282054 29.481685,7.7072229 L 29.481685,8.8401006 C 29.481685,10.265272 30.452596,11.429535 31.877767,11.429534 L 32.563206,11.429534 C 32.563206,11.429534 24.076212,20.132312 17.915227,26.293298 C 17.915227,20.194026 17.915227,11.429534 17.915227,11.429534 L 18.66889,11.429534 C 20.094061,11.429534 21.258324,10.265271 21.258324,8.8401006 L 21.258324,7.7072229 C 21.258324,6.282054 20.094061,5.117791 18.66889,5.1177899 L 6.1609176,5.1177899 z "
       id="path3194"
       sodipodi:nodetypes="ccccccccccccccccccccccccc" />
    <path
       style="fill:url(#linearGradient3169);fill-opacity:1.0;stroke:#555753;stroke-width:1;stroke-linecap:butt;stroke-linejoin:round;stroke-miterlimit:4;stroke-dashoffset:0;stroke-opacity:1"
       d="M 4.9891704,4.2954489 C 3.5640014,4.2954489 2.3997374,5.459713 2.3997374,6.8848819 L 2.3997374,8.0177596 C 2.3997374,9.442931 3.5640014,10.607194 4.9891704,10.607193 L 5.7713954,10.607193 L 5.7713954,41.02034 C 5.7713954,42.44551 5.8932214,43.609773 7.3183914,43.609774 C 9.2250638,43.71132 9.4335488,43.213656 13.458776,39.171879 L 42.158331,10.148648 C 42.487948,9.819029 42.718669,9.433913 42.832662,9.01577 C 42.962493,8.707793 43.021475,8.3740516 43.021475,8.0177596 L 43.021475,6.8848819 C 43.021475,5.459713 41.884185,4.29545 40.459015,4.2954489 L 30.872398,4.2954489 C 29.447228,4.2954489 28.309938,5.459713 28.309938,6.8848819 L 28.309938,8.0177596 C 28.309938,9.442931 29.280849,10.607194 30.70602,10.607193 L 31.391459,10.607193 C 31.391459,10.607193 22.904465,19.309971 16.74348,25.470957 C 16.74348,19.371685 16.74348,10.607193 16.74348,10.607193 L 17.497143,10.607193 C 18.922314,10.607193 20.086577,9.44293 20.086577,8.0177596 L 20.086577,6.8848819 C 20.086577,5.459713 18.922314,4.29545 17.497143,4.2954489 L 4.9891704,4.2954489 z "
       id="path3198"
       sodipodi:nodetypes="ccccccccccccccccccccccccc" />
    <path
       style="fill:none;fill-opacity:1;stroke:#ffffff;stroke-width:1;stroke-linecap:butt;stroke-linejoin:round;stroke-miterlimit:4;stroke-dashoffset:0;stroke-opacity:1;stroke-dasharray:none"
       d="M 4.9891704,5.2954489 C 3.7712635,5.2954489 3.3703256,6.4159255 3.3703256,6.8848819 L 3.3703256,8.0177596 C 3.3495284,9.1517694 4.2919054,9.7527748 6.0706278,9.607193 L 6.8528528,9.607193 L 6.790461,41.082732 C 6.7677728,42.71682 6.7419012,42.686299 8.0670927,42.569911 C 8.6427406,42.484282 8.726442,42.506549 12.751669,38.464772 L 41.076874,10.086256 C 41.323302,9.6942455 41.637212,9.433913 41.834394,9.01577 C 41.943428,8.6869957 42.023207,8.3740516 42.023207,8.0177596 L 42.023207,6.8848819 C 42.023207,5.8340636 40.989903,5.3145157 40.459015,5.2937173 L 30.872398,5.2937173 C 29.863173,5.3769063 29.370598,6.0836307 29.308206,6.8848819 L 29.308206,8.0177596 C 29.370598,9.1725666 29.716448,9.6297219 32.182625,9.6713164 L 32.431322,10.981544 C 32.431322,10.981544 31.15872,12.452701 15.703617,27.966628 C 15.703617,21.867356 15.703617,9.6366048 15.703617,9.6366048 L 17.497143,9.6366048 C 18.485572,9.6158075 19.178381,8.5486479 19.115989,8.0177596 L 19.115989,6.8848819 C 19.115989,5.7428519 18.019658,5.3346959 17.497143,5.2954489 L 4.9891704,5.2954489 z "
       id="path2180"
       sodipodi:nodetypes="ccccccccccccccccccccccccc" />
  </g>
</svg>
