<?xml version="1.0" encoding="UTF-8" standalone="no"?>
<!-- Created with Inkscape (http://www.inkscape.org/) -->
<svg
   xmlns:dc="http://purl.org/dc/elements/1.1/"
   xmlns:cc="http://web.resource.org/cc/"
   xmlns:rdf="http://www.w3.org/1999/02/22-rdf-syntax-ns#"
   xmlns:svg="http://www.w3.org/2000/svg"
   xmlns="http://www.w3.org/2000/svg"
   xmlns:xlink="http://www.w3.org/1999/xlink"
   xmlns:sodipodi="http://sodipodi.sourceforge.net/DTD/sodipodi-0.dtd"
   xmlns:inkscape="http://www.inkscape.org/namespaces/inkscape"
   width="48px"
   height="48px"
   id="svg2278"
   sodipodi:version="0.32"
   inkscape:version="0.45"
   sodipodi:docbase="/home/chipx86/Documents/graphics/projects/vmware/ws6/tango"
   sodipodi:docname="player.svg"
   inkscape:output_extension="org.inkscape.output.svg.inkscape"
   inkscape:export-filename="/home/chipx86/Desktop/player-logos.png"
   inkscape:export-xdpi="90"
   inkscape:export-ydpi="90"
   sodipodi:modified="true">
  <defs
     id="defs2280">
    <linearGradient
       id="linearGradient3259">
      <stop
         style="stop-color:#729fcf;stop-opacity:1;"
         offset="0"
         id="stop3261" />
      <stop
         style="stop-color:#3f7ab9;stop-opacity:1;"
         offset="1"
         id="stop3263" />
    </linearGradient>
    <linearGradient
       inkscape:collect="always"
       xlink:href="#linearGradient3259"
       id="linearGradient3265"
       x1="25.19068"
       y1="8.6671848"
       x2="25.19068"
       y2="43.347984"
       gradientUnits="userSpaceOnUse"
       gradientTransform="matrix(1.0232558,0,0,1.0232558,-5.8139535e-2,-3.4883721e-2)" />
    <filter
       inkscape:collect="always"
       x="-0.028528289"
       width="1.0570566"
       y="-0.74234971"
       height="2.4846994"
       id="filter3251">
      <feGaussianBlur
         inkscape:collect="always"
         stdDeviation="0.65615064"
         id="feGaussianBlur3253" />
    </filter>
    <linearGradient
       inkscape:collect="always"
       xlink:href="#linearGradient3259"
       id="linearGradient2317"
       gradientUnits="userSpaceOnUse"
       gradientTransform="matrix(0.7209303,0,0,0.7209302,100.69767,13.418604)"
       x1="25.19068"
       y1="8.6671848"
       x2="25.19068"
       y2="43.347984" />
  </defs>
  <sodipodi:namedview
     id="base"
     pagecolor="#ffffff"
     bordercolor="#666666"
     borderopacity="1.0"
     inkscape:pageopacity="0.0"
     inkscape:pageshadow="2"
     inkscape:zoom="1"
     inkscape:cx="120.25508"
     inkscape:cy="19.422138"
     inkscape:current-layer="layer1"
     showgrid="false"
     inkscape:grid-bbox="true"
     inkscape:document-units="px"
     inkscape:window-width="1506"
     inkscape:window-height="1026"
     inkscape:window-x="17"
     inkscape:window-y="47"
     gridspacingx="0.5px"
     gridspacingy="0.5px"
     inkscape:grid-points="true"
     gridempspacing="2" />
  <metadata
     id="metadata2283">
    <rdf:RDF>
      <cc:Work
         rdf:about="">
        <dc:format>image/svg+xml</dc:format>
        <dc:type
           rdf:resource="http://purl.org/dc/dcmitype/StillImage" />
      </cc:Work>
    </rdf:RDF>
  </metadata>
  <g
     id="layer1"
     inkscape:label="Layer 1"
     inkscape:groupmode="layer">
    <rect
       style="opacity:0.36263736;fill:#000000;fill-opacity:1;fill-rule:nonzero;stroke:none;stroke-width:1;stroke-linecap:square;stroke-linejoin:miter;stroke-miterlimit:4;stroke-dasharray:none;stroke-dashoffset:0;stroke-opacity:1;filter:url(#filter3251)"
       id="rect3209"
       width="46"
       height="1.767767"
       x="1"
       y="44.906406"
       transform="matrix(0.9782609,0,0,1.131371,1.0217391,-5.8058069)"
       rx="2.0444446"
       ry="1.7677668" />
    <rect
       style="opacity:1;fill:url(#linearGradient3265);fill-opacity:1;fill-rule:nonzero;stroke:#204a87;stroke-width:1;stroke-linecap:square;stroke-linejoin:miter;stroke-miterlimit:4;stroke-dasharray:none;stroke-dashoffset:0;stroke-opacity:1"
       id="rect2286"
       width="44"
       height="44"
       x="2.5"
       y="1.5"
       rx="5"
       ry="5" />
    <rect
       ry="4"
       rx="4"
       y="2.5000002"
       x="3.4999959"
       height="42"
       width="42.000004"
       id="rect3257"
       style="opacity:0.36263739;fill:none;fill-opacity:1;fill-rule:nonzero;stroke:#eeeeec;stroke-width:1;stroke-linecap:square;stroke-linejoin:miter;stroke-miterlimit:4;stroke-dasharray:none;stroke-dashoffset:0;stroke-opacity:1" />
    <g
       id="g3297"
       style="opacity:0.19230769">
      <path
         sodipodi:nodetypes="ccsscccccccccccccsscc"
         id="path3261"
         d="M 9,5.472272 C 7.62,5.472272 6.5,6.592272 6.5,7.972272 C 6.554785,11.816182 6.500205,16.010888 6.5,19.972272 C 6.5,21.352272 7.620001,22.472272 9,22.472272 C 10.38,22.472272 11.500001,21.352272 11.5,19.972272 L 11.5,13.909772 L 16.5,18.909772 L 16.5,20.472272 L 16.5,23.5 L 21.5,23.5 L 21.5,22.472272 C 21.5,20.47039 21.500142,20.472272 23.5,20.472272 L 24.483534,20.472272 L 24.483534,15.472272 L 21.5,15.472272 L 20.125,15.472272 L 15.125,10.472272 C 17.117064,10.472581 19.139023,10.472272 21,10.472272 C 22.38,10.472272 23.5,9.352272 23.5,7.972272 C 23.5,6.592272 22.38,5.472272 21,5.472272 C 17.156131,5.529199 12.96161,5.472934 9,5.472272 z "
         style="opacity:1;fill:#000000;fill-opacity:1;fill-rule:nonzero;stroke:#000000;stroke-width:1;stroke-linecap:square;stroke-linejoin:miter;stroke-miterlimit:4;stroke-dasharray:none;stroke-dashoffset:0;stroke-opacity:1" />
      <path
         style="opacity:1;fill:#000000;fill-opacity:1;fill-rule:nonzero;stroke:#000000;stroke-width:1;stroke-linecap:square;stroke-linejoin:miter;stroke-miterlimit:4;stroke-dasharray:none;stroke-dashoffset:0;stroke-opacity:1"
         d="M 41.983534,5.472272 C 43.363534,5.472272 44.483534,6.592272 44.483534,7.972272 C 44.428749,11.816182 44.483329,16.010888 44.483534,19.972272 C 44.483534,21.352272 43.363533,22.472272 41.983534,22.472272 C 40.603534,22.472272 39.483533,21.352272 39.483534,19.972272 L 39.483534,13.909772 L 34.483534,18.909772 L 34.483534,20.472272 L 34.483534,23.5 L 29.483534,23.5 L 29.483534,22.472272 C 29.483534,20.47039 29.483392,20.472272 27.483534,20.472272 L 26.5,20.472272 L 26.5,15.472272 L 29.483534,15.472272 L 30.858534,15.472272 L 35.858534,10.472272 C 33.86647,10.472581 31.844511,10.472272 29.983534,10.472272 C 28.603534,10.472272 27.483534,9.352272 27.483534,7.972272 C 27.483534,6.592272 28.603534,5.472272 29.983534,5.472272 C 33.827403,5.529199 38.021924,5.472934 41.983534,5.472272 z "
         id="path3259"
         sodipodi:nodetypes="ccsscccccccccccccsscc" />
      <path
         sodipodi:nodetypes="ccsscccccccccccccsscc"
         id="path3257"
         d="M 41.983534,43.5 C 43.244744,43.5 44.483534,42.074794 44.483534,41 C 44.428749,37.15609 44.483329,32.961384 44.483534,29 C 44.483534,27.62 43.363533,26.5 41.983534,26.5 C 40.603534,26.5 39.483533,27.62 39.483534,29 L 39.483534,35.0625 L 34.483534,30.0625 L 34.483534,28.5 L 34.483534,25.472272 L 29.483534,25.472272 L 29.483534,26.5 C 29.483534,28.501882 29.483392,28.5 27.483534,28.5 L 26.5,28.5 L 26.5,33.5 L 29.483534,33.5 L 30.858534,33.5 L 35.858534,38.5 C 33.86647,38.499691 31.844511,38.5 29.983534,38.5 C 28.603534,38.5 27.483534,39.62 27.483534,41 C 27.483534,42.38 28.603534,43.5 29.983534,43.5 C 33.827403,43.443073 38.021924,43.499338 41.983534,43.5 z "
         style="opacity:1;fill:#000000;fill-opacity:1;fill-rule:nonzero;stroke:#000000;stroke-width:1;stroke-linecap:square;stroke-linejoin:miter;stroke-miterlimit:4;stroke-dasharray:none;stroke-dashoffset:0;stroke-opacity:1" />
      <path
         style="opacity:1;fill:#000000;fill-opacity:1;fill-rule:nonzero;stroke:#000000;stroke-width:0.99999982;stroke-linecap:square;stroke-linejoin:miter;stroke-miterlimit:4;stroke-dasharray:none;stroke-dashoffset:0;stroke-opacity:1"
         d="M 16.5,25.5 L 16.5,30.5 C 16.5,32.156 17.843999,33.5 19.5,33.5 L 24.5,33.5 L 24.5,28.5 L 22.53125,28.5 C 21.518334,28.5 21.5,28.481851 21.5,27.5 L 21.5,25.5 L 16.5,25.5 z "
         id="path3255"
         sodipodi:nodetypes="ccccccccc" />
    </g>
    <g
       id="g3269"
       style="stroke:#836700;stroke-opacity:1">
      <path
         style="opacity:1;fill:#ffd201;fill-opacity:1;fill-rule:nonzero;stroke:#836700;stroke-width:1;stroke-linecap:square;stroke-linejoin:miter;stroke-miterlimit:4;stroke-dasharray:none;stroke-dashoffset:0;stroke-opacity:1"
         d="M 8,4.5 C 6.62,4.5 5.5,5.62 5.5,7 C 5.554785,10.84391 5.500205,15.038616 5.5,19 C 5.5,20.38 6.620001,21.5 8,21.5 C 9.38,21.5 10.500001,20.38 10.5,19 L 10.5,12.9375 L 15.5,17.9375 L 15.5,19.5 L 15.5,22.527728 L 20.5,22.527728 L 20.5,21.5 C 20.5,19.498118 20.500142,19.5 22.5,19.5 L 23.483534,19.5 L 23.483534,14.5 L 20.5,14.5 L 19.125,14.5 L 14.125,9.5 C 16.117064,9.5003089 18.139023,9.5 20,9.5 C 21.38,9.5 22.5,8.3799999 22.5,7 C 22.5,5.62 21.38,4.5 20,4.5 C 16.156131,4.5569268 11.96161,4.5006617 8,4.5 z "
         id="path3326"
         sodipodi:nodetypes="ccsscccccccccccccsscc" />
      <path
         sodipodi:nodetypes="ccsscccccccccccccsscc"
         id="path3332"
         d="M 40.983534,4.472272 C 42.363534,4.472272 43.483534,5.592272 43.483534,6.972272 C 43.428749,10.816182 43.483329,15.010888 43.483534,18.972272 C 43.483534,20.352272 42.363533,21.472272 40.983534,21.472272 C 39.603534,21.472272 38.483533,20.352272 38.483534,18.972272 L 38.483534,12.909772 L 33.483534,17.909772 L 33.483534,19.472272 L 33.483534,22.5 L 28.483534,22.5 L 28.483534,21.472272 C 28.483534,19.47039 28.483392,19.472272 26.483534,19.472272 L 25.5,19.472272 L 25.5,14.472272 L 28.483534,14.472272 L 29.858534,14.472272 L 34.858534,9.472272 C 32.86647,9.4725809 30.844511,9.472272 28.983534,9.472272 C 27.603534,9.472272 26.483534,8.3522719 26.483534,6.972272 C 26.483534,5.592272 27.603534,4.472272 28.983534,4.472272 C 32.827403,4.5291988 37.021924,4.4729337 40.983534,4.472272 z "
         style="opacity:1;fill:#ffd201;fill-opacity:1;fill-rule:nonzero;stroke:#836700;stroke-width:1;stroke-linecap:square;stroke-linejoin:miter;stroke-miterlimit:4;stroke-dasharray:none;stroke-dashoffset:0;stroke-opacity:1" />
      <path
         style="opacity:1;fill:#ffd201;fill-opacity:1;fill-rule:nonzero;stroke:#836700;stroke-width:1;stroke-linecap:square;stroke-linejoin:miter;stroke-miterlimit:4;stroke-dasharray:none;stroke-dashoffset:0;stroke-opacity:1"
         d="M 40.983534,42.5 C 42.363534,42.5 43.483534,41.38 43.483534,40 C 43.428749,36.15609 43.483329,31.961384 43.483534,28 C 43.483534,26.62 42.363533,25.5 40.983534,25.5 C 39.603534,25.5 38.483533,26.62 38.483534,28 L 38.483534,34.0625 L 33.483534,29.0625 L 33.483534,27.5 L 33.483534,24.472272 L 28.483534,24.472272 L 28.483534,25.5 C 28.483534,27.501882 28.483392,27.5 26.483534,27.5 L 25.5,27.5 L 25.5,32.5 L 28.483534,32.5 L 29.858534,32.5 L 34.858534,37.5 C 32.86647,37.499691 30.844511,37.5 28.983534,37.5 C 27.603534,37.5 26.483534,38.62 26.483534,40 C 26.483534,41.38 27.603534,42.5 28.983534,42.5 C 32.827403,42.443073 37.021924,42.499338 40.983534,42.5 z "
         id="path3334"
         sodipodi:nodetypes="ccsscccccccccccccsscc" />
      <path
         sodipodi:nodetypes="ccccccccc"
         id="rect3338"
         d="M 15.5,24.5 L 15.5,29.5 C 15.5,31.156 16.843999,32.5 18.5,32.5 L 23.5,32.5 L 23.5,27.5 L 21.53125,27.5 C 20.518334,27.5 20.5,27.481851 20.5,26.5 L 20.5,24.5 L 15.5,24.5 z "
         style="opacity:1;fill:#ffd201;fill-opacity:1;fill-rule:nonzero;stroke:#836700;stroke-width:0.99999982;stroke-linecap:square;stroke-linejoin:miter;stroke-miterlimit:4;stroke-dasharray:none;stroke-dashoffset:0;stroke-opacity:1" />
    </g>
    <g
       id="g3343"
       style="opacity:0.5">
      <path
         sodipodi:nodetypes="ccsscccccccccccccsscc"
         id="path3363"
         d="M 8.724257,5.5 C 6.9339673,5.5 6.5000002,5.8679688 6.5000002,7.7188043 C 6.5487426,11.130358 6.5001826,14.853251 6.5000002,18.369065 C 6.5000002,19.593845 6.7464682,20.499482 7.9742572,20.499482 C 9.202047,20.499482 9.511015,19.593845 9.511014,18.369065 L 9.511014,10.613465 L 16.522028,17.551073 L 16.522028,18.812826 L 16.522028,21.5 L 19.470542,21.5 L 19.470542,20.58787 C 19.470542,19.061156 20.344143,18.500326 21.624948,18.500326 L 22.500001,18.500326 L 22.500001,15.500217 L 19.845542,15.500217 L 18.747201,15.500217 L 11.673687,8.5001086 C 13.446032,8.500383 17.568197,8.5001086 19.223914,8.5001086 C 20.451704,8.5001086 21.448171,8.1935843 21.448171,6.9688043 C 21.448171,5.7440244 20.628481,5.5 19.400691,5.5 C 15.98079,5.5505239 12.248913,5.5005873 8.724257,5.5 z "
         style="opacity:1;fill:none;fill-opacity:1;fill-rule:nonzero;stroke:#ffffff;stroke-width:1;stroke-linecap:square;stroke-linejoin:miter;stroke-miterlimit:4;stroke-dasharray:none;stroke-dashoffset:0;stroke-opacity:1" />
      <path
         style="opacity:1;fill:none;fill-opacity:1;fill-rule:nonzero;stroke:#ffffff;stroke-width:1;stroke-linecap:square;stroke-linejoin:miter;stroke-miterlimit:4;stroke-dasharray:none;stroke-dashoffset:0;stroke-opacity:1"
         d="M 40.275744,5.5 C 42.066034,5.5 42.500001,5.8679688 42.500001,7.7188043 C 42.451258,11.130358 42.499818,14.853251 42.500001,18.369065 C 42.500001,19.593845 42.253533,20.499482 41.025744,20.499482 C 39.797954,20.499482 39.488986,19.593845 39.488987,18.369065 L 39.488987,10.613465 L 32.477973,17.551073 L 32.477973,18.812826 L 32.477973,21.5 L 29.529459,21.5 L 29.529459,20.58787 C 29.529459,19.061156 28.655858,18.500326 27.375053,18.500326 L 26.5,18.500326 L 26.5,15.500217 L 29.154459,15.500217 L 30.2528,15.500217 L 37.326314,8.5001086 C 35.553969,8.500383 31.431804,8.5001086 29.776087,8.5001086 C 28.548297,8.5001086 27.55183,8.1935843 27.55183,6.9688043 C 27.55183,5.7440244 28.37152,5.5 29.59931,5.5 C 33.019211,5.5505239 36.751088,5.5005873 40.275744,5.5 z "
         id="path3365"
         sodipodi:nodetypes="ccsscccccccccccccsscc" />
      <path
         sodipodi:nodetypes="ccsscccccccccccccsscc"
         id="path3367"
         d="M 40.275744,41.5 C 42.066034,41.5 42.500001,41.132031 42.500001,39.281196 C 42.451258,35.869642 42.499818,32.146749 42.500001,28.630935 C 42.500001,27.406155 42.253533,26.500518 41.025744,26.500518 C 39.797954,26.500518 39.488986,27.406155 39.488987,28.630935 L 39.488987,36.386535 L 32.477973,29.448927 L 32.477973,28.187174 L 32.477973,25.5 L 29.529459,25.5 L 29.529459,26.41213 C 29.529459,27.938844 28.655858,28.499674 27.375053,28.499674 L 26.5,28.499674 L 26.5,31.499783 L 29.154459,31.499783 L 30.2528,31.499783 L 37.326314,38.499891 C 35.553969,38.499617 31.431804,38.499891 29.776087,38.499891 C 28.548297,38.499891 27.55183,38.806416 27.55183,40.031196 C 27.55183,41.255976 28.37152,41.5 29.59931,41.5 C 33.019211,41.449476 36.751088,41.499413 40.275744,41.5 z "
         style="opacity:1;fill:none;fill-opacity:1;fill-rule:nonzero;stroke:#ffffff;stroke-width:1;stroke-linecap:square;stroke-linejoin:miter;stroke-miterlimit:4;stroke-dasharray:none;stroke-dashoffset:0;stroke-opacity:1" />
      <path
         style="opacity:1;fill:none;fill-opacity:1;fill-rule:nonzero;stroke:#ffffff;stroke-width:0.99999976;stroke-linecap:square;stroke-linejoin:miter;stroke-miterlimit:4;stroke-dasharray:none;stroke-dashoffset:0;stroke-opacity:1"
         d="M 16.5,25.5 L 16.5,29.25 C 16.5,30.679842 17.288915,31.5 18.75,31.5 L 22.5,31.5 L 22.5,28.5 L 21.023437,28.5 C 20.169428,28.5 19.5,27.923888 19.5,27 L 19.5,25.5 L 16.5,25.5 z "
         id="path2236"
         sodipodi:nodetypes="ccccccccc" />
    </g>
    <path
       style="opacity:0.10989011;fill:#ffffff;fill-opacity:1;fill-rule:nonzero;stroke:none;stroke-width:0.99999994;stroke-linecap:square;stroke-linejoin:miter;stroke-miterlimit:4;stroke-dashoffset:0;stroke-opacity:1"
       d="M 7.1159209,2 L 41.77513,2 C 43.743725,2 45.641051,3.561 45.641051,5.5 L 46,21.38128 L 3,25.270367 L 3,5.9375 C 3,3.9985 5.1473257,2 7.1159209,2 z "
       id="rect3267"
       sodipodi:nodetypes="ccccccc" />
  </g>
</svg>
