<?xml version="1.0" encoding="UTF-8" standalone="no"?>
<!-- Created with Inkscape (http://www.inkscape.org/) -->
<svg
   xmlns:dc="http://purl.org/dc/elements/1.1/"
   xmlns:cc="http://web.resource.org/cc/"
   xmlns:rdf="http://www.w3.org/1999/02/22-rdf-syntax-ns#"
   xmlns:svg="http://www.w3.org/2000/svg"
   xmlns="http://www.w3.org/2000/svg"
   xmlns:xlink="http://www.w3.org/1999/xlink"
   xmlns:sodipodi="http://inkscape.sourceforge.net/DTD/sodipodi-0.dtd"
   xmlns:inkscape="http://www.inkscape.org/namespaces/inkscape"
   width="48px"
   height="48px"
   id="svg1325"
   sodipodi:version="0.32"
   inkscape:version="0.43"
   sodipodi:docbase="/home/lapo/Desktop/xubuntu/scalable"
   sodipodi:docname="xfce4-panel.svg">
  <defs
     id="defs1327">
    <linearGradient
       inkscape:collect="always"
       id="linearGradient2270">
      <stop
         style="stop-color:#ffffff;stop-opacity:1;"
         offset="0"
         id="stop2272" />
      <stop
         style="stop-color:#ffffff;stop-opacity:0;"
         offset="1"
         id="stop2274" />
    </linearGradient>
    <linearGradient
       inkscape:collect="always"
       id="linearGradient2262">
      <stop
         style="stop-color:#d3d7cf;stop-opacity:1;"
         offset="0"
         id="stop2264" />
      <stop
         style="stop-color:#d3d7cf;stop-opacity:0;"
         offset="1"
         id="stop2266" />
    </linearGradient>
    <linearGradient
       inkscape:collect="always"
       id="linearGradient2252">
      <stop
         style="stop-color:#888a85;stop-opacity:1;"
         offset="0"
         id="stop2254" />
      <stop
         style="stop-color:#888a85;stop-opacity:0;"
         offset="1"
         id="stop2256" />
    </linearGradient>
    <linearGradient
       inkscape:collect="always"
       xlink:href="#linearGradient2252"
       id="linearGradient2258"
       x1="31.874874"
       y1="17.4375"
       x2="47.437664"
       y2="17.4375"
       gradientUnits="userSpaceOnUse"
       gradientTransform="translate(0,-8)" />
    <linearGradient
       inkscape:collect="always"
       xlink:href="#linearGradient2262"
       id="linearGradient2268"
       x1="31.872892"
       y1="20.6875"
       x2="46.704754"
       y2="20.6875"
       gradientUnits="userSpaceOnUse"
       gradientTransform="translate(0,-8)" />
    <linearGradient
       inkscape:collect="always"
       xlink:href="#linearGradient2270"
       id="linearGradient1341"
       gradientUnits="userSpaceOnUse"
       x1="23.99696"
       y1="18.375"
       x2="45.753761"
       y2="18.375"
       gradientTransform="translate(0,-8)" />
    <radialGradient
       inkscape:collect="always"
       xlink:href="#linearGradient2270"
       id="radialGradient2218"
       cx="3.6239223"
       cy="2.0049825"
       fx="3.6239223"
       fy="2.0049825"
       r="23"
       gradientTransform="matrix(1.246687e-8,1.125998,-1.627297,3.116107e-17,6.886624,6.5312)"
       gradientUnits="userSpaceOnUse" />
  </defs>
  <sodipodi:namedview
     id="base"
     pagecolor="#ffffff"
     bordercolor="#666666"
     borderopacity="1.0"
     inkscape:pageopacity="0"
     inkscape:pageshadow="2"
     inkscape:zoom="1"
     inkscape:cx="20.824189"
     inkscape:cy="15.128506"
     inkscape:current-layer="layer1"
     showgrid="false"
     inkscape:grid-bbox="false"
     inkscape:document-units="px"
     stroke="#888a85"
     fill="#babdb6"
     inkscape:window-width="1270"
     inkscape:window-height="945"
     inkscape:window-x="0"
     inkscape:window-y="25"
     showborder="false"
     gridspacingx="0.5px"
     gridspacingy="0.5px"
     gridempspacing="2"
     inkscape:grid-points="false"
     showguides="false"
     inkscape:guide-bbox="true"
     inkscape:showpageshadow="false">
    <sodipodi:guide
       orientation="vertical"
       position="31.875"
       id="guide2260" />
  </sodipodi:namedview>
  <metadata
     id="metadata1330">
    <rdf:RDF>
      <cc:Work
         rdf:about="">
        <dc:format>image/svg+xml</dc:format>
        <dc:type
           rdf:resource="http://purl.org/dc/dcmitype/StillImage" />
        <dc:title>XFCE Panel</dc:title>
        <dc:creator>
          <cc:Agent>
            <dc:title>Andreas Nilsson</dc:title>
          </cc:Agent>
        </dc:creator>
        <dc:subject>
          <rdf:Bag>
            <rdf:li>panel</rdf:li>
            <rdf:li>menu</rdf:li>
          </rdf:Bag>
        </dc:subject>
        <dc:contributor>
          <cc:Agent>
            <dc:title>Lapo Calamandrei</dc:title>
          </cc:Agent>
        </dc:contributor>
        <cc:license
           rdf:resource="http://creativecommons.org/licenses/GPL/2.0/" />
      </cc:Work>
      <cc:License
         rdf:about="http://creativecommons.org/licenses/GPL/2.0/">
        <cc:permits
           rdf:resource="http://web.resource.org/cc/Reproduction" />
        <cc:permits
           rdf:resource="http://web.resource.org/cc/Distribution" />
        <cc:requires
           rdf:resource="http://web.resource.org/cc/Notice" />
        <cc:permits
           rdf:resource="http://web.resource.org/cc/DerivativeWorks" />
        <cc:requires
           rdf:resource="http://web.resource.org/cc/ShareAlike" />
        <cc:requires
           rdf:resource="http://web.resource.org/cc/SourceCode" />
      </cc:License>
    </rdf:RDF>
  </metadata>
  <g
     id="layer1"
     inkscape:label="Layer 1"
     inkscape:groupmode="layer">
    <rect
       style="opacity:1;fill:url(#linearGradient2268);fill-opacity:1;stroke:url(#linearGradient2258);stroke-width:0.99999952;stroke-linecap:butt;stroke-linejoin:round;stroke-miterlimit:4;stroke-dasharray:none;stroke-dashoffset:0;stroke-opacity:1"
       id="rect1333"
       width="46"
       height="29"
       x="2.5"
       y="9.5" />
    <rect
       style="opacity:0.4;fill:none;fill-opacity:1;stroke:url(#linearGradient1341);stroke-width:0.99999976;stroke-linecap:butt;stroke-linejoin:round;stroke-miterlimit:4;stroke-dasharray:none;stroke-dashoffset:0;stroke-opacity:1"
       id="rect2210"
       width="45"
       height="27"
       x="3.5"
       y="10.5" />
    <path
       d="M 9.1030782,17.090052 C 9.1759372,17.077867 10.992629,18.036791 12.213734,18.368172 C 14.391193,18.924623 16.378789,20.599393 17.339477,21.561435 C 17.410709,21.643772 18.164606,20.996994 18.953578,21.043579 C 20.031271,21.108853 23.530204,21.595501 23.530204,21.595501 C 23.800374,21.220651 24.062257,20.573257 24.399325,20.384884 C 24.580789,20.3341 23.724784,18.76848 24.634553,18.266876 C 25.283227,17.942673 25.832907,19.757742 25.999477,19.961147 C 26.074095,20.05215 26.469934,20.07436 26.423078,19.867028 C 26.372295,19.64182 25.732017,17.900153 26.517197,17.607911 C 27.79247,17.102918 27.56645,19.836423 27.59963,19.914155 C 27.670184,20.079641 32.041082,20.207209 32.306103,22.173274 C 32.459404,23.255299 28.804348,24.653808 28.446832,24.902985 C 28.089453,25.152163 28.119245,25.550712 28.258595,25.797315 C 28.4188,26.064776 29.483626,26.967502 29.341162,27.397469 C 29.243251,27.645833 27.255927,26.735523 27.129035,26.926875 C 26.839637,27.292381 28.575754,28.207295 27.976239,28.856511 C 27.738573,29.011976 25.004121,27.711649 25.011027,27.726952 C 24.93763,27.754849 21.147152,28.419367 18.233671,27.538579 C 18.131022,27.509598 16.363757,29.245715 16.162791,29.185994 C 15.888018,29.085239 16.567839,27.676033 16.492274,27.397469 C 16.368767,27.242274 15.23948,28.02759 15.174477,27.632833 C 15.096745,27.114029 16.1655,26.517628 16.115798,26.17379 C 15.840214,24.220456 16.238897,23.079792 16.915875,22.126282 C 17.141624,21.775267 14.262676,19.601194 12.178389,18.743157 C 10.094236,17.885118 8.9791682,17.157901 9.1030782,17.090052 z M 27.83369,23.621128 C 27.810803,23.541229 29.256033,22.667077 29.46526,22.868043 C 29.84187,23.004549 27.846962,23.722559 27.83369,23.621128 z M 28.523937,24.416058 C 28.396641,24.339138 29.389154,23.181817 29.632643,23.307354 C 29.988127,23.660536 28.507281,24.443549 28.523937,24.416058 z M 32.435617,19.061045 C 32.314954,18.961238 31.368759,20.454137 31.577987,20.60906 C 31.703795,20.703179 32.489514,19.114266 32.435617,19.061045 z M 28.533593,21.197809 C 28.533593,21.435015 28.364505,21.627531 28.156165,21.627531 C 27.947825,21.627531 27.778737,21.435015 27.778737,21.197809 C 27.778737,20.960601 27.947825,20.768086 28.156165,20.768086 C 28.364505,20.768086 28.533593,20.960601 28.533593,21.197809 z M 31.347893,18.851866 C 31.288171,18.78253 30.971282,20.39135 31.11781,20.462582 C 31.243616,20.556701 31.46273,18.935558 31.347893,18.851866 z M 27.308941,21.029142 C 26.933686,21.294435 27.514919,22.795728 28.470867,21.919139 C 27.719812,21.941212 27.469282,21.721286 27.308941,21.029142 z "
       style="fill:#2e3436;fill-opacity:1;fill-rule:evenodd;stroke:none;stroke-width:0.27218699pt;stroke-linecap:butt;stroke-linejoin:miter;stroke-opacity:1"
       id="path14"
       sodipodi:nodetypes="cccssccsscscsssscssscsscsccccccccsccsssccscccc" />
    <g
       id="g2216"
       transform="translate(0,-8)">
      <path
         transform="matrix(1.522998,0,0,1.523003,-0.423071,-2.296325)"
         d="M 6.515484 15.95291 A 0.98489875 0.98489875 0 1 1  4.5456865,15.95291 A 0.98489875 0.98489875 0 1 1  6.515484 15.95291 z"
         sodipodi:ry="0.98489875"
         sodipodi:rx="0.98489875"
         sodipodi:cy="15.95291"
         sodipodi:cx="5.5305853"
         id="path2214"
         style="opacity:1;fill:#ffffff;fill-opacity:1;stroke:none;stroke-width:0.65965784;stroke-linecap:butt;stroke-linejoin:round;stroke-miterlimit:4;stroke-dasharray:none;stroke-dashoffset:0;stroke-opacity:1"
         sodipodi:type="arc" />
      <path
         transform="matrix(1.516256,0,0,1.515619,-0.879142,-2.671265)"
         d="M 6.515484 15.95291 A 0.98489875 0.98489875 0 1 1  4.5456865,15.95291 A 0.98489875 0.98489875 0 1 1  6.515484 15.95291 z"
         sodipodi:ry="0.98489875"
         sodipodi:rx="0.98489875"
         sodipodi:cy="15.95291"
         sodipodi:cx="5.5305853"
         id="path2210"
         style="opacity:1;fill:#babdb6;fill-opacity:1;stroke:none;stroke-width:0.65965784;stroke-linecap:butt;stroke-linejoin:round;stroke-miterlimit:4;stroke-dasharray:none;stroke-dashoffset:0;stroke-opacity:1"
         sodipodi:type="arc" />
    </g>
    <g
       id="g2220"
       transform="translate(1.84564e-6,-3.014538)">
      <path
         transform="matrix(1.522998,0,0,1.523003,-0.423071,-2.296325)"
         d="M 6.515484 15.95291 A 0.98489875 0.98489875 0 1 1  4.5456865,15.95291 A 0.98489875 0.98489875 0 1 1  6.515484 15.95291 z"
         sodipodi:ry="0.98489875"
         sodipodi:rx="0.98489875"
         sodipodi:cy="15.95291"
         sodipodi:cx="5.5305853"
         id="path2222"
         style="opacity:1;fill:#ffffff;fill-opacity:1;stroke:none;stroke-width:0.65965784;stroke-linecap:butt;stroke-linejoin:round;stroke-miterlimit:4;stroke-dasharray:none;stroke-dashoffset:0;stroke-opacity:1"
         sodipodi:type="arc" />
      <path
         transform="matrix(1.516256,0,0,1.515619,-0.879142,-2.671265)"
         d="M 6.515484 15.95291 A 0.98489875 0.98489875 0 1 1  4.5456865,15.95291 A 0.98489875 0.98489875 0 1 1  6.515484 15.95291 z"
         sodipodi:ry="0.98489875"
         sodipodi:rx="0.98489875"
         sodipodi:cy="15.95291"
         sodipodi:cx="5.5305853"
         id="path2224"
         style="opacity:1;fill:#babdb6;fill-opacity:1;stroke:none;stroke-width:0.65965784;stroke-linecap:butt;stroke-linejoin:round;stroke-miterlimit:4;stroke-dasharray:none;stroke-dashoffset:0;stroke-opacity:1"
         sodipodi:type="arc" />
    </g>
    <g
       id="g2226"
       transform="translate(-1.328249e-2,1.985462)">
      <path
         transform="matrix(1.522998,0,0,1.523003,-0.423071,-2.296325)"
         d="M 6.515484 15.95291 A 0.98489875 0.98489875 0 1 1  4.5456865,15.95291 A 0.98489875 0.98489875 0 1 1  6.515484 15.95291 z"
         sodipodi:ry="0.98489875"
         sodipodi:rx="0.98489875"
         sodipodi:cy="15.95291"
         sodipodi:cx="5.5305853"
         id="path2228"
         style="opacity:1;fill:#ffffff;fill-opacity:1;stroke:none;stroke-width:0.65965784;stroke-linecap:butt;stroke-linejoin:round;stroke-miterlimit:4;stroke-dasharray:none;stroke-dashoffset:0;stroke-opacity:1"
         sodipodi:type="arc" />
      <path
         transform="matrix(1.516256,0,0,1.515619,-0.879142,-2.671265)"
         d="M 6.515484 15.95291 A 0.98489875 0.98489875 0 1 1  4.5456865,15.95291 A 0.98489875 0.98489875 0 1 1  6.515484 15.95291 z"
         sodipodi:ry="0.98489875"
         sodipodi:rx="0.98489875"
         sodipodi:cy="15.95291"
         sodipodi:cx="5.5305853"
         id="path2230"
         style="opacity:1;fill:#babdb6;fill-opacity:1;stroke:none;stroke-width:0.65965784;stroke-linecap:butt;stroke-linejoin:round;stroke-miterlimit:4;stroke-dasharray:none;stroke-dashoffset:0;stroke-opacity:1"
         sodipodi:type="arc" />
    </g>
    <g
       id="g2232"
       transform="translate(-1.328249e-2,6.98546)">
      <path
         transform="matrix(1.522998,0,0,1.523003,-0.423071,-2.296325)"
         d="M 6.515484 15.95291 A 0.98489875 0.98489875 0 1 1  4.5456865,15.95291 A 0.98489875 0.98489875 0 1 1  6.515484 15.95291 z"
         sodipodi:ry="0.98489875"
         sodipodi:rx="0.98489875"
         sodipodi:cy="15.95291"
         sodipodi:cx="5.5305853"
         id="path2234"
         style="opacity:1;fill:#ffffff;fill-opacity:1;stroke:none;stroke-width:0.65965784;stroke-linecap:butt;stroke-linejoin:round;stroke-miterlimit:4;stroke-dasharray:none;stroke-dashoffset:0;stroke-opacity:1"
         sodipodi:type="arc" />
      <path
         transform="matrix(1.516256,0,0,1.515619,-0.879142,-2.671265)"
         d="M 6.515484 15.95291 A 0.98489875 0.98489875 0 1 1  4.5456865,15.95291 A 0.98489875 0.98489875 0 1 1  6.515484 15.95291 z"
         sodipodi:ry="0.98489875"
         sodipodi:rx="0.98489875"
         sodipodi:cy="15.95291"
         sodipodi:cx="5.5305853"
         id="path2236"
         style="opacity:1;fill:#babdb6;fill-opacity:1;stroke:none;stroke-width:0.65965784;stroke-linecap:butt;stroke-linejoin:round;stroke-miterlimit:4;stroke-dasharray:none;stroke-dashoffset:0;stroke-opacity:1"
         sodipodi:type="arc" />
    </g>
    <g
       id="g2238"
       transform="translate(-1.328249e-2,11.98546)">
      <path
         transform="matrix(1.522998,0,0,1.523003,-0.423071,-2.296325)"
         d="M 6.515484 15.95291 A 0.98489875 0.98489875 0 1 1  4.5456865,15.95291 A 0.98489875 0.98489875 0 1 1  6.515484 15.95291 z"
         sodipodi:ry="0.98489875"
         sodipodi:rx="0.98489875"
         sodipodi:cy="15.95291"
         sodipodi:cx="5.5305853"
         id="path2240"
         style="opacity:1;fill:#ffffff;fill-opacity:1;stroke:none;stroke-width:0.65965784;stroke-linecap:butt;stroke-linejoin:round;stroke-miterlimit:4;stroke-dasharray:none;stroke-dashoffset:0;stroke-opacity:1"
         sodipodi:type="arc" />
      <path
         transform="matrix(1.516256,0,0,1.515619,-0.879142,-2.671265)"
         d="M 6.515484 15.95291 A 0.98489875 0.98489875 0 1 1  4.5456865,15.95291 A 0.98489875 0.98489875 0 1 1  6.515484 15.95291 z"
         sodipodi:ry="0.98489875"
         sodipodi:rx="0.98489875"
         sodipodi:cy="15.95291"
         sodipodi:cx="5.5305853"
         id="path2242"
         style="opacity:1;fill:#babdb6;fill-opacity:1;stroke:none;stroke-width:0.65965784;stroke-linecap:butt;stroke-linejoin:round;stroke-miterlimit:4;stroke-dasharray:none;stroke-dashoffset:0;stroke-opacity:1"
         sodipodi:type="arc" />
    </g>
    <rect
       style="opacity:1;fill:none;fill-opacity:1;stroke:url(#radialGradient2218);stroke-width:0.99999976;stroke-linecap:butt;stroke-linejoin:round;stroke-miterlimit:4;stroke-dasharray:none;stroke-dashoffset:0;stroke-opacity:1"
       id="rect2216"
       width="45"
       height="27"
       x="3.5"
       y="10.5" />
  </g>
</svg>
