<?xml version="1.0" encoding="UTF-8" standalone="no"?>
<!-- Created with Inkscape (http://www.inkscape.org/) -->
<svg
   xmlns:i="&amp;ns_ai;"
   xmlns:dc="http://purl.org/dc/elements/1.1/"
   xmlns:cc="http://web.resource.org/cc/"
   xmlns:rdf="http://www.w3.org/1999/02/22-rdf-syntax-ns#"
   xmlns:svg="http://www.w3.org/2000/svg"
   xmlns="http://www.w3.org/2000/svg"
   xmlns:xlink="http://www.w3.org/1999/xlink"
   xmlns:sodipodi="http://sodipodi.sourceforge.net/DTD/sodipodi-0.dtd"
   xmlns:inkscape="http://www.inkscape.org/namespaces/inkscape"
   inkscape:export-ydpi="240"
   inkscape:export-xdpi="240"
   inkscape:export-filename="/home/jesusda/Desktop/pasodoble/pasodoble/xmms2_128.png"
   width="48"
   height="48"
   id="svg11300"
   sodipodi:version="0.32"
   inkscape:version="0.44"
   sodipodi:docbase="/home/jesusda/Desktop/pasodoble/pasodoble"
   sodipodi:docname="xmms2.svg"
   version="1.0">
  <defs
     id="defs3">
    <linearGradient
       inkscape:collect="always"
       id="linearGradient8423">
      <stop
         style="stop-color:white;stop-opacity:1;"
         offset="0"
         id="stop8425" />
      <stop
         style="stop-color:white;stop-opacity:0;"
         offset="1"
         id="stop8427" />
    </linearGradient>
    <linearGradient
       id="linearGradient6580">
      <stop
         style="stop-color:black;stop-opacity:0.50961536;"
         offset="0"
         id="stop6582" />
      <stop
         style="stop-color:#000000;stop-opacity:0;"
         offset="1"
         id="stop6584" />
    </linearGradient>
    <linearGradient
       id="linearGradient3648">
      <stop
         id="stop3650"
         offset="0"
         style="stop-color:#323232;stop-opacity:1;" />
      <stop
         id="stop3652"
         offset="1"
         style="stop-color:#888a85;stop-opacity:1;" />
    </linearGradient>
    <linearGradient
       inkscape:collect="always"
       id="linearGradient3618">
      <stop
         style="stop-color:white;stop-opacity:1;"
         offset="0"
         id="stop3620" />
      <stop
         style="stop-color:white;stop-opacity:0;"
         offset="1"
         id="stop3622" />
    </linearGradient>
    <radialGradient
       inkscape:collect="always"
       xlink:href="#linearGradient6580"
       id="radialGradient14485"
       gradientUnits="userSpaceOnUse"
       gradientTransform="matrix(1,0,0,0.285124,0,20.10589)"
       cx="23.499998"
       cy="28.125"
       fx="23.499998"
       fy="28.125"
       r="30.249998" />
    <radialGradient
       inkscape:collect="always"
       xlink:href="#linearGradient3648"
       id="radialGradient4756"
       gradientUnits="userSpaceOnUse"
       gradientTransform="matrix(0.982819,-0.437015,0.665312,1.496242,-21.34774,-8.572248)"
       cx="9.1007442"
       cy="31.623751"
       fx="9.1007442"
       fy="31.623751"
       r="6.7628202" />
    <linearGradient
       inkscape:collect="always"
       xlink:href="#linearGradient3618"
       id="linearGradient4758"
       gradientUnits="userSpaceOnUse"
       x1="6.2991896"
       y1="14.922753"
       x2="12.882427"
       y2="31.922752"
       gradientTransform="translate(-0.795496,0.742417)" />
    <linearGradient
       inkscape:collect="always"
       xlink:href="#linearGradient3618"
       id="linearGradient4760"
       gradientUnits="userSpaceOnUse"
       gradientTransform="translate(-0.751302,-0.671796)"
       x1="10.888324"
       y1="41.387787"
       x2="8.7026644"
       y2="33.414215" />
    <linearGradient
       inkscape:collect="always"
       xlink:href="#linearGradient3618"
       id="linearGradient4762"
       gradientUnits="userSpaceOnUse"
       gradientTransform="matrix(1,0,0,-1,-0.574518,58.06758)"
       x1="6.2781014"
       y1="35.917355"
       x2="7.7714458"
       y2="32.80048" />
    <linearGradient
       inkscape:collect="always"
       xlink:href="#linearGradient3618"
       id="linearGradient4798"
       gradientUnits="userSpaceOnUse"
       gradientTransform="matrix(-1,0,0,-1,48.59211,58.06758)"
       x1="10.97411"
       y1="37.820087"
       x2="7.7714458"
       y2="32.80048" />
    <linearGradient
       inkscape:collect="always"
       xlink:href="#linearGradient3618"
       id="linearGradient4801"
       gradientUnits="userSpaceOnUse"
       gradientTransform="matrix(-1,0,0,1,48.76889,-0.671796)"
       x1="4.7011399"
       y1="42.094894"
       x2="9.1446056"
       y2="34.032932" />
    <linearGradient
       inkscape:collect="always"
       xlink:href="#linearGradient3618"
       id="linearGradient4805"
       gradientUnits="userSpaceOnUse"
       gradientTransform="matrix(-1,0,0,1,48.81309,0.742417)"
       x1="14.077364"
       y1="14.657588"
       x2="8.8165636"
       y2="32.54147" />
    <radialGradient
       inkscape:collect="always"
       xlink:href="#linearGradient3648"
       id="radialGradient4808"
       gradientUnits="userSpaceOnUse"
       gradientTransform="matrix(1.280543,-0.154506,-0.202261,-1.676345,34.12366,89.18582)"
       cx="9.1007442"
       cy="31.623751"
       fx="9.1007442"
       fy="31.623751"
       r="6.7628202" />
    <linearGradient
       inkscape:collect="always"
       xlink:href="#linearGradient8423"
       id="linearGradient8429"
       x1="16.263456"
       y1="3.2088766"
       x2="16.793785"
       y2="5.4147854"
       gradientUnits="userSpaceOnUse"
       gradientTransform="translate(0,0.875)" />
  </defs>
  <sodipodi:namedview
     stroke="#3465a4"
     fill="#729fcf"
     id="base"
     pagecolor="#ffffff"
     bordercolor="#666"
     borderopacity="1"
     inkscape:pageopacity="0.0"
     inkscape:pageshadow="2"
     inkscape:zoom="8.0000004"
     inkscape:cx="17.647329"
     inkscape:cy="28.119189"
     inkscape:current-layer="layer1"
     showgrid="false"
     inkscape:grid-bbox="true"
     inkscape:document-units="px"
     inkscape:showpageshadow="false"
     inkscape:window-width="1272"
     inkscape:window-height="745"
     inkscape:window-x="0"
     inkscape:window-y="30"
     showguides="true"
     inkscape:guide-bbox="true"
     width="48px"
     height="48px" />
  <metadata
     id="metadata4">
    <rdf:RDF>
      <cc:Work
         rdf:about="">
        <dc:format>image/svg+xml</dc:format>
        <dc:type
           rdf:resource="http://purl.org/dc/dcmitype/StillImage" />
        <dc:creator>
          <cc:Agent>
            <dc:title>jEsuSdA 8)</dc:title>
          </cc:Agent>
        </dc:creator>
        <dc:source>http://www.jesusda.com</dc:source>
        <cc:license
           rdf:resource="http://creativecommons.org/licenses/by-sa/2.0/" />
        <dc:title>XMMS 2</dc:title>
        <dc:subject>
          <rdf:Bag>
            <rdf:li>X</rdf:li>
            <rdf:li>multimedia</rdf:li>
            <rdf:li>system</rdf:li>
            <rdf:li>music</rdf:li>
            <rdf:li>player</rdf:li>
            <rdf:li>mp3</rdf:li>
            <rdf:li>ogg</rdf:li>
          </rdf:Bag>
        </dc:subject>
      </cc:Work>
      <cc:License
         rdf:about="http://creativecommons.org/licenses/by-sa/2.0/">
        <cc:permits
           rdf:resource="http://web.resource.org/cc/Reproduction" />
        <cc:permits
           rdf:resource="http://web.resource.org/cc/Distribution" />
        <cc:requires
           rdf:resource="http://web.resource.org/cc/Notice" />
        <cc:requires
           rdf:resource="http://web.resource.org/cc/Attribution" />
        <cc:permits
           rdf:resource="http://web.resource.org/cc/DerivativeWorks" />
        <cc:requires
           rdf:resource="http://web.resource.org/cc/ShareAlike" />
      </cc:License>
    </rdf:RDF>
  </metadata>
  <g
     id="layer1"
     inkscape:label="Layer 1"
     inkscape:groupmode="layer">
    <path
       style="opacity:0.87096773;fill:#888a85;fill-opacity:1;stroke:#2e3436;stroke-width:1;stroke-linecap:round;stroke-linejoin:miter;stroke-miterlimit:4;stroke-dasharray:none;stroke-dashoffset:0;stroke-opacity:1"
       d="M 24,1.625 C 13.301272,1.625 5.4999998,10.18927 5.5,20.75 C 5.5,25.486927 7.2328032,29.813849 10.125,33.15625 C 8.6780388,30.29441 8.59375,26.228409 8.59375,22.6875 C 8.5937499,11.9395 14.722506,4.71875 24.125,4.71875 C 33.527495,4.71875 39.40625,12.689499 39.40625,23.4375 C 39.40625,26.97841 40.196961,30.29441 38.75,33.15625 C 41.642197,29.813849 42.5,25.861927 42.5,21.125 C 42.5,10.56427 34.698729,1.625 24,1.625 z "
       id="path6588"
       sodipodi:nodetypes="cscssscsc" />
    <path
       sodipodi:type="arc"
       style="opacity:0.87096773;fill:url(#radialGradient14485);fill-opacity:1;stroke:none;stroke-width:0.472;stroke-linecap:round;stroke-linejoin:miter;stroke-miterlimit:4;stroke-dasharray:none;stroke-dashoffset:0;stroke-opacity:0.38135591"
       id="path14483"
       sodipodi:cx="23.499998"
       sodipodi:cy="28.125"
       sodipodi:rx="30.249998"
       sodipodi:ry="8.625"
       d="M 53.749996 28.125 A 30.249998 8.625 0 1 1  -6.75,28.125 A 30.249998 8.625 0 1 1  53.749996 28.125 z"
       transform="matrix(0.79509,0,0,0.573415,5.31694,26.97306)" />
    <flowRoot
       xml:space="preserve"
       id="flowRoot12974"
       transform="translate(-65.10861,-36.50787)"><flowRegion
         id="flowRegion12976"><rect
           id="rect12978"
           width="40.055775"
           height="16.02231"
           x="86.787514"
           y="412.80496" /></flowRegion><flowPara
         id="flowPara12980" /></flowRoot>    <g
       style="stroke:black"
       i:rgbTrio="#FFFF4F004F00"
       i:dimmedPercent="50"
       i:editable="no"
       i:layer="yes"
       id="Layer_2"
       inkscape:export-filename="/home/jesusda/docs/themes/iconos/mios/nuvola-jesusda-rss.png"
       inkscape:export-xdpi="192.00000"
       inkscape:export-ydpi="192.00000"
       transform="matrix(0.18672,0,0,0.18672,-0.425295,-0.421872)">
      <path
         id="path225"
         d="M 256,256 L 0,256 L 0,0 L 256,0 L 256,256 z "
         style="fill:none;stroke:none"
         i:knockout="Off" />
    </g>
    <path
       sodipodi:nodetypes="cscssscsc"
       id="path7528"
       d="M 24.0625,2.2941215 C 13.57302,2.2941215 6.2941212,10.846764 6.2941214,21.084875 C 6.2941214,25.677094 7.8900432,29.934334 10.658091,33.174628 C 9.2732414,30.400214 8.0050708,24.458426 8.0050708,21.025686 C 8.0050707,10.606026 15.183449,3.9787622 24.182134,3.9183611 C 33.556023,3.8558611 39.807429,11.708113 40.244929,22.190276 C 40.387231,25.620063 39.439199,30.400214 38.054349,33.174628 C 40.822397,29.934334 41.67915,26.29056 41.705878,21.698419 C 41.768378,10.960307 34.551981,2.2941215 24.0625,2.2941215 z "
       style="opacity:0.87096773;fill:#eeeeec;fill-opacity:0;stroke:#eeeeec;stroke-width:0.5;stroke-linecap:round;stroke-linejoin:miter;stroke-miterlimit:4;stroke-dasharray:none;stroke-dashoffset:0;stroke-opacity:0.27966105" />
    <g
       transform="matrix(0.125094,0,0,0.125094,32.07129,-16.3621)"
       inkscape:export-ydpi="192.00000"
       inkscape:export-xdpi="192.00000"
       inkscape:export-filename="/home/jesusda/docs/themes/iconos/mios/nuvola-jesusda-rss.png"
       id="g4612"
       i:layer="yes"
       i:editable="no"
       i:dimmedPercent="50"
       i:rgbTrio="#FFFF4F004F00"
       style="stroke:black">
      <path
         i:knockout="Off"
         style="fill:none;stroke:none"
         d="M 256,256 L 0,256 L 0,0 L 256,0 L 256,256 z "
         id="path4614" />
    </g>
    <path
       style="fill:url(#radialGradient4756);fill-opacity:1;stroke:#555753;stroke-width:1;stroke-linecap:round;stroke-linejoin:miter;stroke-miterlimit:4;stroke-dasharray:none;stroke-dashoffset:0;stroke-opacity:1"
       d="M 14.058133,18.165911 C 7.1439809,18.165911 1.5324923,23.065579 1.5324929,29.10267 C 1.5324929,35.139759 7.1439809,40.039429 14.058133,40.039428 L 14.058133,18.165911 z "
       id="path2721" />
    <path
       id="path2730"
       d="M 14.836932,19.012112 C 8.0289858,19.012112 2.5036929,23.504682 2.5036935,29.04017 C 2.5036935,34.575656 8.0289858,39.068228 14.836932,39.068227 L 14.836932,19.012112 z "
       style="fill:none;fill-opacity:1;stroke:url(#linearGradient4758);stroke-width:1;stroke-linecap:round;stroke-linejoin:miter;stroke-miterlimit:4;stroke-dasharray:none;stroke-dashoffset:0;stroke-opacity:1" />
    <rect
       style="fill:#729fcf;fill-opacity:1;stroke:#204a87;stroke-width:1;stroke-linecap:round;stroke-linejoin:miter;stroke-miterlimit:4;stroke-dasharray:none;stroke-dashoffset:0;stroke-opacity:1"
       id="rect2728"
       width="5.6249995"
       height="23.124998"
       x="10.454503"
       y="17.492418"
       ry="2.3124998"
       rx="2.3124998" />
    <path
       style="fill:url(#linearGradient4760);fill-opacity:1;fill-rule:evenodd;stroke:none;stroke-width:1px;stroke-linecap:butt;stroke-linejoin:miter;stroke-opacity:1"
       d="M 4.6236979,32.703205 C 5.6299793,34.21837 7.5643382,35.556758 9.498697,36.453205 C 9.498697,34.744872 9.498697,33.036538 9.498697,31.328205 C 9.0227459,34.040441 7.353552,33.880056 4.6236979,32.703205 z "
       id="path3626"
       sodipodi:nodetypes="cccc" />
    <path
       sodipodi:nodetypes="cccc"
       id="path3636"
       d="M 3.8825806,26.676109 C 5.5959691,23.658342 7.2233477,22.093464 9.524586,20.997492 C 9.524586,22.705825 9.524586,23.647155 9.524586,25.355488 C 7.0157021,23.261971 5.4633869,25.057316 3.8825806,26.676109 z "
       style="fill:url(#linearGradient4762);fill-opacity:1;fill-rule:evenodd;stroke:none;stroke-width:1px;stroke-linecap:butt;stroke-linejoin:miter;stroke-opacity:1" />
    <g
       id="g4599"
       style="fill:#204a87;fill-opacity:0.41949152"
       transform="translate(-0.795496,0.742417)">
      <g
         transform="translate(-4.6875e-2,0)"
         id="g4547"
         style="fill:#204a87;fill-opacity:0.41949152">
        <path
           sodipodi:type="arc"
           style="opacity:1;fill:#204a87;fill-opacity:0.41949152;stroke:none;stroke-width:1;stroke-linecap:round;stroke-linejoin:miter;stroke-miterlimit:4;stroke-dasharray:none;stroke-dashoffset:0;stroke-opacity:0.30932204"
           id="path4541"
           sodipodi:cx="13.567611"
           sodipodi:cy="20.246059"
           sodipodi:rx="0.75130093"
           sodipodi:ry="0.79549509"
           d="M 14.318912 20.246059 A 0.75130093 0.79549509 0 1 1  12.81631,20.246059 A 0.75130093 0.79549509 0 1 1  14.318912 20.246059 z"
           transform="translate(-0.566942,-0.712468)" />
        <path
           transform="translate(1.433058,-0.712468)"
           d="M 14.318912 20.246059 A 0.75130093 0.79549509 0 1 1  12.81631,20.246059 A 0.75130093 0.79549509 0 1 1  14.318912 20.246059 z"
           sodipodi:ry="0.79549509"
           sodipodi:rx="0.75130093"
           sodipodi:cy="20.246059"
           sodipodi:cx="13.567611"
           id="path4543"
           style="opacity:1;fill:#204a87;fill-opacity:0.41949152;stroke:none;stroke-width:1;stroke-linecap:round;stroke-linejoin:miter;stroke-miterlimit:4;stroke-dasharray:none;stroke-dashoffset:0;stroke-opacity:0.30932204"
           sodipodi:type="arc" />
        <path
           sodipodi:type="arc"
           style="opacity:1;fill:#204a87;fill-opacity:0.41949152;stroke:none;stroke-width:1;stroke-linecap:round;stroke-linejoin:miter;stroke-miterlimit:4;stroke-dasharray:none;stroke-dashoffset:0;stroke-opacity:0.30932204"
           id="path4545"
           sodipodi:cx="13.567611"
           sodipodi:cy="20.246059"
           sodipodi:rx="0.75130093"
           sodipodi:ry="0.79549509"
           d="M 14.318912 20.246059 A 0.75130093 0.79549509 0 1 1  12.81631,20.246059 A 0.75130093 0.79549509 0 1 1  14.318912 20.246059 z"
           transform="translate(0.433058,1.068782)" />
      </g>
      <g
         transform="translate(-4.6875e-2,3.65625)"
         id="g4552"
         style="fill:#204a87;fill-opacity:0.41949152">
        <path
           transform="translate(-0.566942,-0.712468)"
           d="M 14.318912 20.246059 A 0.75130093 0.79549509 0 1 1  12.81631,20.246059 A 0.75130093 0.79549509 0 1 1  14.318912 20.246059 z"
           sodipodi:ry="0.79549509"
           sodipodi:rx="0.75130093"
           sodipodi:cy="20.246059"
           sodipodi:cx="13.567611"
           id="path4554"
           style="opacity:1;fill:#204a87;fill-opacity:0.41949152;stroke:none;stroke-width:1;stroke-linecap:round;stroke-linejoin:miter;stroke-miterlimit:4;stroke-dasharray:none;stroke-dashoffset:0;stroke-opacity:0.30932204"
           sodipodi:type="arc" />
        <path
           sodipodi:type="arc"
           style="opacity:1;fill:#204a87;fill-opacity:0.41949152;stroke:none;stroke-width:1;stroke-linecap:round;stroke-linejoin:miter;stroke-miterlimit:4;stroke-dasharray:none;stroke-dashoffset:0;stroke-opacity:0.30932204"
           id="path4556"
           sodipodi:cx="13.567611"
           sodipodi:cy="20.246059"
           sodipodi:rx="0.75130093"
           sodipodi:ry="0.79549509"
           d="M 14.318912 20.246059 A 0.75130093 0.79549509 0 1 1  12.81631,20.246059 A 0.75130093 0.79549509 0 1 1  14.318912 20.246059 z"
           transform="translate(1.433058,-0.712468)" />
        <path
           transform="translate(0.433058,1.068782)"
           d="M 14.318912 20.246059 A 0.75130093 0.79549509 0 1 1  12.81631,20.246059 A 0.75130093 0.79549509 0 1 1  14.318912 20.246059 z"
           sodipodi:ry="0.79549509"
           sodipodi:rx="0.75130093"
           sodipodi:cy="20.246059"
           sodipodi:cx="13.567611"
           id="path4558"
           style="opacity:1;fill:#204a87;fill-opacity:0.41949152;stroke:none;stroke-width:1;stroke-linecap:round;stroke-linejoin:miter;stroke-miterlimit:4;stroke-dasharray:none;stroke-dashoffset:0;stroke-opacity:0.30932204"
           sodipodi:type="arc" />
      </g>
      <g
         id="g4560"
         transform="translate(-4.6875e-2,7.25)"
         style="fill:#204a87;fill-opacity:0.41949152">
        <path
           sodipodi:type="arc"
           style="opacity:1;fill:#204a87;fill-opacity:0.41949152;stroke:none;stroke-width:1;stroke-linecap:round;stroke-linejoin:miter;stroke-miterlimit:4;stroke-dasharray:none;stroke-dashoffset:0;stroke-opacity:0.30932204"
           id="path4562"
           sodipodi:cx="13.567611"
           sodipodi:cy="20.246059"
           sodipodi:rx="0.75130093"
           sodipodi:ry="0.79549509"
           d="M 14.318912 20.246059 A 0.75130093 0.79549509 0 1 1  12.81631,20.246059 A 0.75130093 0.79549509 0 1 1  14.318912 20.246059 z"
           transform="translate(-0.566942,-0.712468)" />
        <path
           transform="translate(1.433058,-0.712468)"
           d="M 14.318912 20.246059 A 0.75130093 0.79549509 0 1 1  12.81631,20.246059 A 0.75130093 0.79549509 0 1 1  14.318912 20.246059 z"
           sodipodi:ry="0.79549509"
           sodipodi:rx="0.75130093"
           sodipodi:cy="20.246059"
           sodipodi:cx="13.567611"
           id="path4564"
           style="opacity:1;fill:#204a87;fill-opacity:0.41949152;stroke:none;stroke-width:1;stroke-linecap:round;stroke-linejoin:miter;stroke-miterlimit:4;stroke-dasharray:none;stroke-dashoffset:0;stroke-opacity:0.30932204"
           sodipodi:type="arc" />
        <path
           sodipodi:type="arc"
           style="opacity:1;fill:#204a87;fill-opacity:0.41949152;stroke:none;stroke-width:1;stroke-linecap:round;stroke-linejoin:miter;stroke-miterlimit:4;stroke-dasharray:none;stroke-dashoffset:0;stroke-opacity:0.30932204"
           id="path4566"
           sodipodi:cx="13.567611"
           sodipodi:cy="20.246059"
           sodipodi:rx="0.75130093"
           sodipodi:ry="0.79549509"
           d="M 14.318912 20.246059 A 0.75130093 0.79549509 0 1 1  12.81631,20.246059 A 0.75130093 0.79549509 0 1 1  14.318912 20.246059 z"
           transform="translate(0.433058,1.068782)" />
      </g>
      <g
         transform="translate(-4.6875e-2,10.8125)"
         id="g4568"
         style="fill:#204a87;fill-opacity:0.41949152">
        <path
           transform="translate(-0.566942,-0.712468)"
           d="M 14.318912 20.246059 A 0.75130093 0.79549509 0 1 1  12.81631,20.246059 A 0.75130093 0.79549509 0 1 1  14.318912 20.246059 z"
           sodipodi:ry="0.79549509"
           sodipodi:rx="0.75130093"
           sodipodi:cy="20.246059"
           sodipodi:cx="13.567611"
           id="path4570"
           style="opacity:1;fill:#204a87;fill-opacity:0.41949152;stroke:none;stroke-width:1;stroke-linecap:round;stroke-linejoin:miter;stroke-miterlimit:4;stroke-dasharray:none;stroke-dashoffset:0;stroke-opacity:0.30932204"
           sodipodi:type="arc" />
        <path
           sodipodi:type="arc"
           style="opacity:1;fill:#204a87;fill-opacity:0.41949152;stroke:none;stroke-width:1;stroke-linecap:round;stroke-linejoin:miter;stroke-miterlimit:4;stroke-dasharray:none;stroke-dashoffset:0;stroke-opacity:0.30932204"
           id="path4572"
           sodipodi:cx="13.567611"
           sodipodi:cy="20.246059"
           sodipodi:rx="0.75130093"
           sodipodi:ry="0.79549509"
           d="M 14.318912 20.246059 A 0.75130093 0.79549509 0 1 1  12.81631,20.246059 A 0.75130093 0.79549509 0 1 1  14.318912 20.246059 z"
           transform="translate(1.433058,-0.712468)" />
        <path
           transform="translate(0.433058,1.068782)"
           d="M 14.318912 20.246059 A 0.75130093 0.79549509 0 1 1  12.81631,20.246059 A 0.75130093 0.79549509 0 1 1  14.318912 20.246059 z"
           sodipodi:ry="0.79549509"
           sodipodi:rx="0.75130093"
           sodipodi:cy="20.246059"
           sodipodi:cx="13.567611"
           id="path4574"
           style="opacity:1;fill:#204a87;fill-opacity:0.41949152;stroke:none;stroke-width:1;stroke-linecap:round;stroke-linejoin:miter;stroke-miterlimit:4;stroke-dasharray:none;stroke-dashoffset:0;stroke-opacity:0.30932204"
           sodipodi:type="arc" />
      </g>
      <g
         id="g4576"
         transform="translate(-4.6875e-2,14.40625)"
         style="fill:#204a87;fill-opacity:0.41949152">
        <path
           sodipodi:type="arc"
           style="opacity:1;fill:#204a87;fill-opacity:0.41949152;stroke:none;stroke-width:1;stroke-linecap:round;stroke-linejoin:miter;stroke-miterlimit:4;stroke-dasharray:none;stroke-dashoffset:0;stroke-opacity:0.30932204"
           id="path4578"
           sodipodi:cx="13.567611"
           sodipodi:cy="20.246059"
           sodipodi:rx="0.75130093"
           sodipodi:ry="0.79549509"
           d="M 14.318912 20.246059 A 0.75130093 0.79549509 0 1 1  12.81631,20.246059 A 0.75130093 0.79549509 0 1 1  14.318912 20.246059 z"
           transform="translate(-0.566942,-0.712468)" />
        <path
           transform="translate(1.433058,-0.712468)"
           d="M 14.318912 20.246059 A 0.75130093 0.79549509 0 1 1  12.81631,20.246059 A 0.75130093 0.79549509 0 1 1  14.318912 20.246059 z"
           sodipodi:ry="0.79549509"
           sodipodi:rx="0.75130093"
           sodipodi:cy="20.246059"
           sodipodi:cx="13.567611"
           id="path4580"
           style="opacity:1;fill:#204a87;fill-opacity:0.41949152;stroke:none;stroke-width:1;stroke-linecap:round;stroke-linejoin:miter;stroke-miterlimit:4;stroke-dasharray:none;stroke-dashoffset:0;stroke-opacity:0.30932204"
           sodipodi:type="arc" />
        <path
           sodipodi:type="arc"
           style="opacity:1;fill:#204a87;fill-opacity:0.41949152;stroke:none;stroke-width:1;stroke-linecap:round;stroke-linejoin:miter;stroke-miterlimit:4;stroke-dasharray:none;stroke-dashoffset:0;stroke-opacity:0.30932204"
           id="path4582"
           sodipodi:cx="13.567611"
           sodipodi:cy="20.246059"
           sodipodi:rx="0.75130093"
           sodipodi:ry="0.79549509"
           d="M 14.318912 20.246059 A 0.75130093 0.79549509 0 1 1  12.81631,20.246059 A 0.75130093 0.79549509 0 1 1  14.318912 20.246059 z"
           transform="translate(0.433058,1.068782)" />
      </g>
      <g
         transform="translate(4.6875e-2,0)"
         id="g4595"
         style="fill:#204a87;fill-opacity:0.41949152">
        <path
           transform="translate(-0.660692,17.41253)"
           d="M 14.318912 20.246059 A 0.75130093 0.79549509 0 1 1  12.81631,20.246059 A 0.75130093 0.79549509 0 1 1  14.318912 20.246059 z"
           sodipodi:ry="0.79549509"
           sodipodi:rx="0.75130093"
           sodipodi:cy="20.246059"
           sodipodi:cx="13.567611"
           id="path4586"
           style="fill:#204a87;fill-opacity:0.41949152;stroke:none;stroke-width:1;stroke-linecap:round;stroke-linejoin:miter;stroke-miterlimit:4;stroke-dasharray:none;stroke-dashoffset:0;stroke-opacity:0.30932204"
           sodipodi:type="arc" />
        <path
           sodipodi:type="arc"
           style="fill:#204a87;fill-opacity:0.41949152;stroke:none;stroke-width:1;stroke-linecap:round;stroke-linejoin:miter;stroke-miterlimit:4;stroke-dasharray:none;stroke-dashoffset:0;stroke-opacity:0.30932204"
           id="path4588"
           sodipodi:cx="13.567611"
           sodipodi:cy="20.246059"
           sodipodi:rx="0.75130093"
           sodipodi:ry="0.79549509"
           d="M 14.318912 20.246059 A 0.75130093 0.79549509 0 1 1  12.81631,20.246059 A 0.75130093 0.79549509 0 1 1  14.318912 20.246059 z"
           transform="translate(1.339308,17.41253)" />
      </g>
    </g>
    <rect
       rx="1.2499998"
       ry="1.3437495"
       y="18.433805"
       x="11.427136"
       height="21.163643"
       width="3.637753"
       id="rect3654"
       style="fill:none;fill-opacity:1;stroke:white;stroke-width:0.9955796;stroke-linecap:round;stroke-linejoin:miter;stroke-miterlimit:4;stroke-dasharray:none;stroke-dashoffset:0;stroke-opacity:0.30932204" />
    <path
       id="path4624"
       d="M 33.959453,18.165911 C 40.873606,18.165911 46.485094,23.065579 46.485094,29.10267 C 46.485094,35.139759 40.873606,40.039429 33.959453,40.039428 L 33.959453,18.165911 z "
       style="fill:url(#radialGradient4808);fill-opacity:1;stroke:#555753;stroke-width:1;stroke-linecap:round;stroke-linejoin:miter;stroke-miterlimit:4;stroke-dasharray:none;stroke-dashoffset:0;stroke-opacity:1" />
    <path
       style="fill:none;fill-opacity:1;stroke:url(#linearGradient4805);stroke-width:1;stroke-linecap:round;stroke-linejoin:miter;stroke-miterlimit:4;stroke-dasharray:none;stroke-dashoffset:0;stroke-opacity:1"
       d="M 33.180654,19.012112 C 39.988601,19.012112 45.513894,23.504682 45.513893,29.04017 C 45.513893,34.575656 39.988601,39.068228 33.180654,39.068227 L 33.180654,19.012112 z "
       id="path4626" />
    <rect
       rx="2.3124998"
       ry="2.3124998"
       y="17.492418"
       x="-37.563084"
       height="23.124998"
       width="5.6249995"
       id="rect4628"
       style="fill:#729fcf;fill-opacity:1;stroke:#204a87;stroke-width:1;stroke-linecap:round;stroke-linejoin:miter;stroke-miterlimit:4;stroke-dasharray:none;stroke-dashoffset:0;stroke-opacity:1"
       transform="scale(-1,1)" />
    <path
       sodipodi:nodetypes="cccc"
       id="path4630"
       d="M 43.393889,32.703205 C 42.387607,34.21837 40.453248,35.556758 38.518889,36.453205 C 38.518889,34.744872 38.518889,33.036538 38.518889,31.328205 C 38.99484,34.040441 40.664034,33.880056 43.393889,32.703205 z "
       style="fill:url(#linearGradient4801);fill-opacity:1;fill-rule:evenodd;stroke:none;stroke-width:1px;stroke-linecap:butt;stroke-linejoin:miter;stroke-opacity:1" />
    <path
       style="fill:url(#linearGradient4798);fill-opacity:1;fill-rule:evenodd;stroke:none;stroke-width:1px;stroke-linecap:butt;stroke-linejoin:miter;stroke-opacity:1"
       d="M 44.135006,26.676109 C 42.421617,23.658342 40.794239,22.093464 38.493,20.997492 C 38.493,22.705825 38.493,23.647155 38.493,25.355488 C 41.001884,23.261971 42.5542,25.057316 44.135006,26.676109 z "
       id="path4632"
       sodipodi:nodetypes="cccc" />
    <g
       style="fill:#204a87;fill-opacity:0.41949152"
       id="g4634"
       transform="matrix(-1,0,0,1,48.81309,0.742417)">
      <g
         style="fill:#204a87;fill-opacity:0.41949152"
         id="g4636"
         transform="translate(-4.6875e-2,0)">
        <path
           transform="translate(-0.566942,-0.712468)"
           d="M 14.318912 20.246059 A 0.75130093 0.79549509 0 1 1  12.81631,20.246059 A 0.75130093 0.79549509 0 1 1  14.318912 20.246059 z"
           sodipodi:ry="0.79549509"
           sodipodi:rx="0.75130093"
           sodipodi:cy="20.246059"
           sodipodi:cx="13.567611"
           id="path4638"
           style="opacity:1;fill:#204a87;fill-opacity:0.41949152;stroke:none;stroke-width:1;stroke-linecap:round;stroke-linejoin:miter;stroke-miterlimit:4;stroke-dasharray:none;stroke-dashoffset:0;stroke-opacity:0.30932204"
           sodipodi:type="arc" />
        <path
           sodipodi:type="arc"
           style="opacity:1;fill:#204a87;fill-opacity:0.41949152;stroke:none;stroke-width:1;stroke-linecap:round;stroke-linejoin:miter;stroke-miterlimit:4;stroke-dasharray:none;stroke-dashoffset:0;stroke-opacity:0.30932204"
           id="path4640"
           sodipodi:cx="13.567611"
           sodipodi:cy="20.246059"
           sodipodi:rx="0.75130093"
           sodipodi:ry="0.79549509"
           d="M 14.318912 20.246059 A 0.75130093 0.79549509 0 1 1  12.81631,20.246059 A 0.75130093 0.79549509 0 1 1  14.318912 20.246059 z"
           transform="translate(1.433058,-0.712468)" />
        <path
           transform="translate(0.433058,1.068782)"
           d="M 14.318912 20.246059 A 0.75130093 0.79549509 0 1 1  12.81631,20.246059 A 0.75130093 0.79549509 0 1 1  14.318912 20.246059 z"
           sodipodi:ry="0.79549509"
           sodipodi:rx="0.75130093"
           sodipodi:cy="20.246059"
           sodipodi:cx="13.567611"
           id="path4642"
           style="opacity:1;fill:#204a87;fill-opacity:0.41949152;stroke:none;stroke-width:1;stroke-linecap:round;stroke-linejoin:miter;stroke-miterlimit:4;stroke-dasharray:none;stroke-dashoffset:0;stroke-opacity:0.30932204"
           sodipodi:type="arc" />
      </g>
      <g
         style="fill:#204a87;fill-opacity:0.41949152"
         id="g4644"
         transform="translate(-4.6875e-2,3.65625)">
        <path
           sodipodi:type="arc"
           style="opacity:1;fill:#204a87;fill-opacity:0.41949152;stroke:none;stroke-width:1;stroke-linecap:round;stroke-linejoin:miter;stroke-miterlimit:4;stroke-dasharray:none;stroke-dashoffset:0;stroke-opacity:0.30932204"
           id="path4646"
           sodipodi:cx="13.567611"
           sodipodi:cy="20.246059"
           sodipodi:rx="0.75130093"
           sodipodi:ry="0.79549509"
           d="M 14.318912 20.246059 A 0.75130093 0.79549509 0 1 1  12.81631,20.246059 A 0.75130093 0.79549509 0 1 1  14.318912 20.246059 z"
           transform="translate(-0.566942,-0.712468)" />
        <path
           transform="translate(1.433058,-0.712468)"
           d="M 14.318912 20.246059 A 0.75130093 0.79549509 0 1 1  12.81631,20.246059 A 0.75130093 0.79549509 0 1 1  14.318912 20.246059 z"
           sodipodi:ry="0.79549509"
           sodipodi:rx="0.75130093"
           sodipodi:cy="20.246059"
           sodipodi:cx="13.567611"
           id="path4648"
           style="opacity:1;fill:#204a87;fill-opacity:0.41949152;stroke:none;stroke-width:1;stroke-linecap:round;stroke-linejoin:miter;stroke-miterlimit:4;stroke-dasharray:none;stroke-dashoffset:0;stroke-opacity:0.30932204"
           sodipodi:type="arc" />
        <path
           sodipodi:type="arc"
           style="opacity:1;fill:#204a87;fill-opacity:0.41949152;stroke:none;stroke-width:1;stroke-linecap:round;stroke-linejoin:miter;stroke-miterlimit:4;stroke-dasharray:none;stroke-dashoffset:0;stroke-opacity:0.30932204"
           id="path4650"
           sodipodi:cx="13.567611"
           sodipodi:cy="20.246059"
           sodipodi:rx="0.75130093"
           sodipodi:ry="0.79549509"
           d="M 14.318912 20.246059 A 0.75130093 0.79549509 0 1 1  12.81631,20.246059 A 0.75130093 0.79549509 0 1 1  14.318912 20.246059 z"
           transform="translate(0.433058,1.068782)" />
      </g>
      <g
         style="fill:#204a87;fill-opacity:0.41949152"
         transform="translate(-4.6875e-2,7.25)"
         id="g4652">
        <path
           transform="translate(-0.566942,-0.712468)"
           d="M 14.318912 20.246059 A 0.75130093 0.79549509 0 1 1  12.81631,20.246059 A 0.75130093 0.79549509 0 1 1  14.318912 20.246059 z"
           sodipodi:ry="0.79549509"
           sodipodi:rx="0.75130093"
           sodipodi:cy="20.246059"
           sodipodi:cx="13.567611"
           id="path4654"
           style="opacity:1;fill:#204a87;fill-opacity:0.41949152;stroke:none;stroke-width:1;stroke-linecap:round;stroke-linejoin:miter;stroke-miterlimit:4;stroke-dasharray:none;stroke-dashoffset:0;stroke-opacity:0.30932204"
           sodipodi:type="arc" />
        <path
           sodipodi:type="arc"
           style="opacity:1;fill:#204a87;fill-opacity:0.41949152;stroke:none;stroke-width:1;stroke-linecap:round;stroke-linejoin:miter;stroke-miterlimit:4;stroke-dasharray:none;stroke-dashoffset:0;stroke-opacity:0.30932204"
           id="path4656"
           sodipodi:cx="13.567611"
           sodipodi:cy="20.246059"
           sodipodi:rx="0.75130093"
           sodipodi:ry="0.79549509"
           d="M 14.318912 20.246059 A 0.75130093 0.79549509 0 1 1  12.81631,20.246059 A 0.75130093 0.79549509 0 1 1  14.318912 20.246059 z"
           transform="translate(1.433058,-0.712468)" />
        <path
           transform="translate(0.433058,1.068782)"
           d="M 14.318912 20.246059 A 0.75130093 0.79549509 0 1 1  12.81631,20.246059 A 0.75130093 0.79549509 0 1 1  14.318912 20.246059 z"
           sodipodi:ry="0.79549509"
           sodipodi:rx="0.75130093"
           sodipodi:cy="20.246059"
           sodipodi:cx="13.567611"
           id="path4658"
           style="opacity:1;fill:#204a87;fill-opacity:0.41949152;stroke:none;stroke-width:1;stroke-linecap:round;stroke-linejoin:miter;stroke-miterlimit:4;stroke-dasharray:none;stroke-dashoffset:0;stroke-opacity:0.30932204"
           sodipodi:type="arc" />
      </g>
      <g
         style="fill:#204a87;fill-opacity:0.41949152"
         id="g4660"
         transform="translate(-4.6875e-2,10.8125)">
        <path
           sodipodi:type="arc"
           style="opacity:1;fill:#204a87;fill-opacity:0.41949152;stroke:none;stroke-width:1;stroke-linecap:round;stroke-linejoin:miter;stroke-miterlimit:4;stroke-dasharray:none;stroke-dashoffset:0;stroke-opacity:0.30932204"
           id="path4662"
           sodipodi:cx="13.567611"
           sodipodi:cy="20.246059"
           sodipodi:rx="0.75130093"
           sodipodi:ry="0.79549509"
           d="M 14.318912 20.246059 A 0.75130093 0.79549509 0 1 1  12.81631,20.246059 A 0.75130093 0.79549509 0 1 1  14.318912 20.246059 z"
           transform="translate(-0.566942,-0.712468)" />
        <path
           transform="translate(1.433058,-0.712468)"
           d="M 14.318912 20.246059 A 0.75130093 0.79549509 0 1 1  12.81631,20.246059 A 0.75130093 0.79549509 0 1 1  14.318912 20.246059 z"
           sodipodi:ry="0.79549509"
           sodipodi:rx="0.75130093"
           sodipodi:cy="20.246059"
           sodipodi:cx="13.567611"
           id="path4664"
           style="opacity:1;fill:#204a87;fill-opacity:0.41949152;stroke:none;stroke-width:1;stroke-linecap:round;stroke-linejoin:miter;stroke-miterlimit:4;stroke-dasharray:none;stroke-dashoffset:0;stroke-opacity:0.30932204"
           sodipodi:type="arc" />
        <path
           sodipodi:type="arc"
           style="opacity:1;fill:#204a87;fill-opacity:0.41949152;stroke:none;stroke-width:1;stroke-linecap:round;stroke-linejoin:miter;stroke-miterlimit:4;stroke-dasharray:none;stroke-dashoffset:0;stroke-opacity:0.30932204"
           id="path4666"
           sodipodi:cx="13.567611"
           sodipodi:cy="20.246059"
           sodipodi:rx="0.75130093"
           sodipodi:ry="0.79549509"
           d="M 14.318912 20.246059 A 0.75130093 0.79549509 0 1 1  12.81631,20.246059 A 0.75130093 0.79549509 0 1 1  14.318912 20.246059 z"
           transform="translate(0.433058,1.068782)" />
      </g>
      <g
         style="fill:#204a87;fill-opacity:0.41949152"
         transform="translate(-4.6875e-2,14.40625)"
         id="g4668">
        <path
           transform="translate(-0.566942,-0.712468)"
           d="M 14.318912 20.246059 A 0.75130093 0.79549509 0 1 1  12.81631,20.246059 A 0.75130093 0.79549509 0 1 1  14.318912 20.246059 z"
           sodipodi:ry="0.79549509"
           sodipodi:rx="0.75130093"
           sodipodi:cy="20.246059"
           sodipodi:cx="13.567611"
           id="path4670"
           style="opacity:1;fill:#204a87;fill-opacity:0.41949152;stroke:none;stroke-width:1;stroke-linecap:round;stroke-linejoin:miter;stroke-miterlimit:4;stroke-dasharray:none;stroke-dashoffset:0;stroke-opacity:0.30932204"
           sodipodi:type="arc" />
        <path
           sodipodi:type="arc"
           style="opacity:1;fill:#204a87;fill-opacity:0.41949152;stroke:none;stroke-width:1;stroke-linecap:round;stroke-linejoin:miter;stroke-miterlimit:4;stroke-dasharray:none;stroke-dashoffset:0;stroke-opacity:0.30932204"
           id="path4672"
           sodipodi:cx="13.567611"
           sodipodi:cy="20.246059"
           sodipodi:rx="0.75130093"
           sodipodi:ry="0.79549509"
           d="M 14.318912 20.246059 A 0.75130093 0.79549509 0 1 1  12.81631,20.246059 A 0.75130093 0.79549509 0 1 1  14.318912 20.246059 z"
           transform="translate(1.433058,-0.712468)" />
        <path
           transform="translate(0.433058,1.068782)"
           d="M 14.318912 20.246059 A 0.75130093 0.79549509 0 1 1  12.81631,20.246059 A 0.75130093 0.79549509 0 1 1  14.318912 20.246059 z"
           sodipodi:ry="0.79549509"
           sodipodi:rx="0.75130093"
           sodipodi:cy="20.246059"
           sodipodi:cx="13.567611"
           id="path4674"
           style="opacity:1;fill:#204a87;fill-opacity:0.41949152;stroke:none;stroke-width:1;stroke-linecap:round;stroke-linejoin:miter;stroke-miterlimit:4;stroke-dasharray:none;stroke-dashoffset:0;stroke-opacity:0.30932204"
           sodipodi:type="arc" />
      </g>
      <g
         style="fill:#204a87;fill-opacity:0.41949152"
         id="g4676"
         transform="translate(4.6875e-2,0)">
        <path
           sodipodi:type="arc"
           style="fill:#204a87;fill-opacity:0.41949152;stroke:none;stroke-width:1;stroke-linecap:round;stroke-linejoin:miter;stroke-miterlimit:4;stroke-dasharray:none;stroke-dashoffset:0;stroke-opacity:0.30932204"
           id="path4678"
           sodipodi:cx="13.567611"
           sodipodi:cy="20.246059"
           sodipodi:rx="0.75130093"
           sodipodi:ry="0.79549509"
           d="M 14.318912 20.246059 A 0.75130093 0.79549509 0 1 1  12.81631,20.246059 A 0.75130093 0.79549509 0 1 1  14.318912 20.246059 z"
           transform="translate(-0.660692,17.41253)" />
        <path
           transform="translate(1.339308,17.41253)"
           d="M 14.318912 20.246059 A 0.75130093 0.79549509 0 1 1  12.81631,20.246059 A 0.75130093 0.79549509 0 1 1  14.318912 20.246059 z"
           sodipodi:ry="0.79549509"
           sodipodi:rx="0.75130093"
           sodipodi:cy="20.246059"
           sodipodi:cx="13.567611"
           id="path4680"
           style="fill:#204a87;fill-opacity:0.41949152;stroke:none;stroke-width:1;stroke-linecap:round;stroke-linejoin:miter;stroke-miterlimit:4;stroke-dasharray:none;stroke-dashoffset:0;stroke-opacity:0.30932204"
           sodipodi:type="arc" />
      </g>
    </g>
    <rect
       style="fill:none;fill-opacity:1;stroke:white;stroke-width:0.9955796;stroke-linecap:round;stroke-linejoin:miter;stroke-miterlimit:4;stroke-dasharray:none;stroke-dashoffset:0;stroke-opacity:0.30932204"
       id="rect4682"
       width="3.637753"
       height="21.163643"
       x="-36.59045"
       y="18.433805"
       ry="1.3437495"
       rx="1.2499998"
       transform="scale(-1,1)" />
    <path
       style="fill:url(#linearGradient8429);fill-opacity:1;fill-rule:evenodd;stroke:none;stroke-width:1px;stroke-linecap:butt;stroke-linejoin:miter;stroke-opacity:1"
       d="M 19.798989,3.5317797 C 19.622212,2.4121941 13.523416,5.4468605 12.727922,6.7137601 C 14.70404,6.9887057 16.766118,4.024626 19.798989,3.5317797 z "
       id="path7536"
       sodipodi:nodetypes="ccc" />
  </g>
</svg>
