<?xml version="1.0" encoding="UTF-8" standalone="no"?>
<!-- Created with Inkscape (http://www.inkscape.org/) -->
<svg
   xmlns:dc="http://purl.org/dc/elements/1.1/"
   xmlns:cc="http://web.resource.org/cc/"
   xmlns:rdf="http://www.w3.org/1999/02/22-rdf-syntax-ns#"
   xmlns:svg="http://www.w3.org/2000/svg"
   xmlns="http://www.w3.org/2000/svg"
   xmlns:xlink="http://www.w3.org/1999/xlink"
   xmlns:sodipodi="http://inkscape.sourceforge.net/DTD/sodipodi-0.dtd"
   xmlns:inkscape="http://www.inkscape.org/namespaces/inkscape"
   inkscape:export-ydpi="90"
   inkscape:export-xdpi="90"
   inkscape:export-filename="/media/hdb2/home/vinicius/Backup/Documentos/Vinicius/tango-icon-theme-code/scalable/application-x-php-2.png"
   sodipodi:docname="application-x-php.svg"
   sodipodi:docbase="/media/hdb2/home/vinicius/Backup/Documentos/Vinicius/tango-icon-theme-code/scalable"
   inkscape:version="0.43"
   sodipodi:version="0.32"
   id="svg249"
   height="48"
   width="48"
   version="1.0">
  <defs
     id="defs3">
    <linearGradient
       inkscape:collect="always"
       xlink:href="#linearGradient4350"
       id="linearGradient4736"
       gradientUnits="userSpaceOnUse"
       gradientTransform="translate(-7,-16.98781)"
       x1="95.03125"
       y1="57.906303"
       x2="95.03125"
       y2="44.592937" />
    <linearGradient
       id="linearGradient4286">
      <stop
         style="stop-color:#ffffff;stop-opacity:1;"
         offset="0"
         id="stop4288" />
      <stop
         style="stop-color:#ffffff;stop-opacity:0.30508474;"
         offset="1"
         id="stop4290" />
    </linearGradient>
    <linearGradient
       inkscape:collect="always"
       xlink:href="#linearGradient4286"
       id="linearGradient4734"
       gradientUnits="userSpaceOnUse"
       x1="88.75"
       y1="22.673088"
       x2="87.8125"
       y2="45.579079" />
    <linearGradient
       id="linearGradient4350"
       inkscape:collect="always">
      <stop
         id="stop4352"
         offset="0"
         style="stop-color:#ffffff;stop-opacity:1;" />
      <stop
         id="stop4354"
         offset="1"
         style="stop-color:#ffffff;stop-opacity:0;" />
    </linearGradient>
    <linearGradient
       inkscape:collect="always"
       xlink:href="#linearGradient4350"
       id="linearGradient4732"
       gradientUnits="userSpaceOnUse"
       gradientTransform="translate(-7,-16.98781)"
       x1="97.728783"
       y1="54.517036"
       x2="97.728783"
       y2="42.400635" />
    <linearGradient
       id="linearGradient4114"
       inkscape:collect="always">
      <stop
         id="stop4116"
         offset="0"
         style="stop-color:#000000;stop-opacity:1;" />
      <stop
         id="stop4118"
         offset="1"
         style="stop-color:#000000;stop-opacity:0;" />
    </linearGradient>
    <radialGradient
       inkscape:collect="always"
       xlink:href="#linearGradient4114"
       id="radialGradient17299"
       gradientUnits="userSpaceOnUse"
       gradientTransform="scale(1.64399,0.608276)"
       cx="15.115514"
       cy="63.965389"
       fx="15.115514"
       fy="63.965389"
       r="12.289036" />
    <linearGradient
       inkscape:collect="always"
       id="linearGradient4790">
      <stop
         style="stop-color:#000000;stop-opacity:1;"
         offset="0"
         id="stop4792" />
      <stop
         style="stop-color:#000000;stop-opacity:0;"
         offset="1"
         id="stop4794" />
    </linearGradient>
    <linearGradient
       inkscape:collect="always"
       id="linearGradient2251">
      <stop
         style="stop-color:#ffffff;stop-opacity:1;"
         offset="0"
         id="stop2253" />
      <stop
         style="stop-color:#ffffff;stop-opacity:0;"
         offset="1"
         id="stop2255" />
    </linearGradient>
    <linearGradient
       inkscape:collect="always"
       xlink:href="#linearGradient2251"
       id="linearGradient8166"
       gradientUnits="userSpaceOnUse"
       gradientTransform="matrix(-3.277938e-2,-0.999463,0.999463,-3.277938e-2,-0.709646,45.06274)"
       x1="33.396004"
       y1="36.921333"
       x2="34.170048"
       y2="38.070381" />
    <linearGradient
       id="linearGradient15662">
      <stop
         id="stop15664"
         offset="0.0000000"
         style="stop-color:#ffffff;stop-opacity:1.0000000;" />
      <stop
         id="stop15666"
         offset="1.0000000"
         style="stop-color:#f8f8f8;stop-opacity:1.0000000;" />
    </linearGradient>
    <linearGradient
       id="linearGradient269">
      <stop
         id="stop270"
         offset="0.0000000"
         style="stop-color:#a3a3a3;stop-opacity:1.0000000;" />
      <stop
         id="stop271"
         offset="1"
         style="stop-color:#8a8a8a;stop-opacity:1;" />
    </linearGradient>
    <linearGradient
       id="linearGradient259">
      <stop
         id="stop260"
         offset="0.0000000"
         style="stop-color:#fafafa;stop-opacity:1.0000000;" />
      <stop
         id="stop261"
         offset="1.0000000"
         style="stop-color:#bbbbbb;stop-opacity:1.0000000;" />
    </linearGradient>
    <radialGradient
       inkscape:collect="always"
       xlink:href="#linearGradient269"
       id="radialGradient15656"
       gradientUnits="userSpaceOnUse"
       gradientTransform="matrix(0.968273,0,0,1.032767,3.353553,0.646447)"
       cx="8.824419"
       cy="3.7561285"
       fx="8.824419"
       fy="3.7561285"
       r="37.751713" />
    <radialGradient
       inkscape:collect="always"
       xlink:href="#linearGradient259"
       id="radialGradient15658"
       gradientUnits="userSpaceOnUse"
       gradientTransform="scale(0.960493,1.041132)"
       cx="33.966679"
       cy="35.736916"
       fx="33.966679"
       fy="35.736916"
       r="86.70845" />
    <radialGradient
       inkscape:collect="always"
       xlink:href="#linearGradient15662"
       id="radialGradient15668"
       gradientUnits="userSpaceOnUse"
       gradientTransform="matrix(0.968273,0,0,1.032767,3.353553,0.646447)"
       cx="8.1435566"
       cy="7.2678967"
       fx="8.1435566"
       fy="7.2678967"
       r="38.158695" />
    <radialGradient
       inkscape:collect="always"
       xlink:href="#linearGradient269"
       id="radialGradient5350"
       gradientUnits="userSpaceOnUse"
       gradientTransform="matrix(0.331735,-2.3449e-17,2.501087e-17,0.353831,20.10526,9.5823)"
       cx="31.863327"
       cy="2.3667307"
       fx="31.863327"
       fy="2.3667307"
       r="37.751713" />
    <radialGradient
       inkscape:collect="always"
       xlink:href="#linearGradient259"
       id="radialGradient5352"
       gradientUnits="userSpaceOnUse"
       gradientTransform="matrix(0.148355,1.009137e-2,-1.104438e-2,0.162365,25.06011,12.81706)"
       cx="30.653816"
       cy="14.9373"
       fx="30.653816"
       fy="14.9373"
       r="86.70845" />
    <radialGradient
       inkscape:collect="always"
       xlink:href="#linearGradient4790"
       id="radialGradient4796"
       cx="37.030354"
       cy="12.98915"
       fx="37.030354"
       fy="12.98915"
       r="4.2929163"
       gradientTransform="matrix(1.744653,2.313551e-22,-1.663e-22,1.283833,-26.58256,-3.478359)"
       gradientUnits="userSpaceOnUse" />
    <linearGradient
       id="linearGradient3688"
       inkscape:collect="always">
      <stop
         id="stop3690"
         offset="0"
         style="stop-color:black;stop-opacity:1;" />
      <stop
         id="stop3692"
         offset="1"
         style="stop-color:black;stop-opacity:0;" />
    </linearGradient>
    <linearGradient
       id="linearGradient3702">
      <stop
         id="stop3704"
         offset="0"
         style="stop-color:black;stop-opacity:0;" />
      <stop
         style="stop-color:black;stop-opacity:1;"
         offset="0.5"
         id="stop3710" />
      <stop
         id="stop3706"
         offset="1"
         style="stop-color:black;stop-opacity:0;" />
    </linearGradient>
    <radialGradient
       inkscape:collect="always"
       xlink:href="#linearGradient3688"
       id="radialGradient2088"
       gradientUnits="userSpaceOnUse"
       gradientTransform="matrix(2.003784,0,0,1.4,27.98813,-17.4)"
       cx="4.9929786"
       cy="43.5"
       fx="4.9929786"
       fy="43.5"
       r="2.5" />
    <radialGradient
       inkscape:collect="always"
       xlink:href="#linearGradient3688"
       id="radialGradient2090"
       gradientUnits="userSpaceOnUse"
       gradientTransform="matrix(2.003784,0,0,1.4,-20.01187,-104.4)"
       cx="4.9929786"
       cy="43.5"
       fx="4.9929786"
       fy="43.5"
       r="2.5" />
    <linearGradient
       inkscape:collect="always"
       xlink:href="#linearGradient3702"
       id="linearGradient2092"
       gradientUnits="userSpaceOnUse"
       x1="25.058096"
       y1="47.027729"
       x2="25.058096"
       y2="39.999443" />
    <linearGradient
       inkscape:collect="always"
       xlink:href="#linearGradient4350"
       id="linearGradient1720"
       gradientUnits="userSpaceOnUse"
       gradientTransform="translate(-26,-16.91315)"
       x1="95.03125"
       y1="57.906303"
       x2="95.03125"
       y2="44.592937" />
    <linearGradient
       inkscape:collect="always"
       xlink:href="#linearGradient4286"
       id="linearGradient1724"
       gradientUnits="userSpaceOnUse"
       x1="88.75"
       y1="22.673088"
       x2="87.8125"
       y2="45.579079"
       gradientTransform="translate(-19,7.465812e-2)" />
    <linearGradient
       inkscape:collect="always"
       xlink:href="#linearGradient4350"
       id="linearGradient1727"
       gradientUnits="userSpaceOnUse"
       gradientTransform="matrix(0.972701,0,0,0.925949,-23.47387,-13.25574)"
       x1="97.728783"
       y1="54.517036"
       x2="97.728783"
       y2="42.400635" />
    <linearGradient
       inkscape:collect="always"
       xlink:href="#linearGradient4350"
       id="linearGradient2623"
       gradientUnits="userSpaceOnUse"
       gradientTransform="matrix(0.972701,0,0,0.925949,-23.47387,-13.25574)"
       x1="97.728783"
       y1="54.517036"
       x2="97.728783"
       y2="42.400635" />
    <linearGradient
       inkscape:collect="always"
       xlink:href="#linearGradient4286"
       id="linearGradient2625"
       gradientUnits="userSpaceOnUse"
       gradientTransform="translate(-19,7.465812e-2)"
       x1="88.75"
       y1="22.673088"
       x2="87.8125"
       y2="45.579079" />
    <linearGradient
       inkscape:collect="always"
       xlink:href="#linearGradient4350"
       id="linearGradient2627"
       gradientUnits="userSpaceOnUse"
       gradientTransform="translate(-26,-16.91315)"
       x1="95.03125"
       y1="57.906303"
       x2="95.03125"
       y2="44.592937" />
  </defs>
  <sodipodi:namedview
     inkscape:window-y="0"
     inkscape:window-x="0"
     inkscape:window-height="714"
     inkscape:window-width="1014"
     inkscape:document-units="px"
     inkscape:grid-bbox="true"
     showgrid="false"
     inkscape:current-layer="layer2"
     inkscape:cy="24.75939"
     inkscape:cx="23.826784"
     inkscape:zoom="4"
     inkscape:pageshadow="2"
     inkscape:pageopacity="0.0"
     borderopacity="1"
     bordercolor="#666666"
     pagecolor="#ffffff"
     id="base"
     inkscape:showpageshadow="false"
     showborder="false" />
  <metadata
     id="metadata4">
    <rdf:RDF>
      <cc:Work
         rdf:about="">
        <dc:format>image/svg+xml</dc:format>
        <dc:type
           rdf:resource="http://purl.org/dc/dcmitype/StillImage" />
        <dc:title>PHP script</dc:title>
        <dc:subject>
          <rdf:Bag>
            <rdf:li>PHP</rdf:li>
            <rdf:li>script</rdf:li>
            <rdf:li>web</rdf:li>
            <rdf:li>server-side</rdf:li>
            <rdf:li>programing language</rdf:li>
          </rdf:Bag>
        </dc:subject>
        <cc:license
           rdf:resource="http://creativecommons.org/licenses/GPL/2.0/" />
        <dc:creator>
          <cc:Agent>
            <dc:title>Vinicius Depizzol</dc:title>
          </cc:Agent>
        </dc:creator>
        <dc:source>vdepizzol@gmail.com</dc:source>
        <dc:contributor>
          <cc:Agent>
            <dc:title>Paper sheet by Jakub Steiner &lt;http://jimmac.musichall.cz&gt;</dc:title>
          </cc:Agent>
        </dc:contributor>
        <dc:date>2007-02-16</dc:date>
      </cc:Work>
      <cc:License
         rdf:about="http://creativecommons.org/licenses/GPL/2.0/">
        <cc:permits
           rdf:resource="http://web.resource.org/cc/Reproduction" />
        <cc:permits
           rdf:resource="http://web.resource.org/cc/Distribution" />
        <cc:requires
           rdf:resource="http://web.resource.org/cc/Notice" />
        <cc:permits
           rdf:resource="http://web.resource.org/cc/DerivativeWorks" />
        <cc:requires
           rdf:resource="http://web.resource.org/cc/ShareAlike" />
        <cc:requires
           rdf:resource="http://web.resource.org/cc/SourceCode" />
      </cc:License>
    </rdf:RDF>
  </metadata>
  <g
     inkscape:groupmode="layer"
     id="layer6"
     inkscape:label="Shadow">
    <g
       style="display:inline"
       id="g2033"
       inkscape:label="Shadow">
      <g
         id="g3712"
         style="opacity:0.4"
         transform="matrix(1.052632,0,0,1.285713,-1.263158,-13.42854)">
        <rect
           y="40"
           x="38"
           height="7"
           width="5"
           id="rect2801"
           style="opacity:1;fill:url(#radialGradient2088);fill-opacity:1;stroke:none;stroke-width:1;stroke-linecap:round;stroke-linejoin:miter;stroke-miterlimit:4;stroke-dasharray:none;stroke-opacity:1" />
        <rect
           transform="scale(-1,-1)"
           y="-47"
           x="-10"
           height="7"
           width="5"
           id="rect3696"
           style="opacity:1;fill:url(#radialGradient2090);fill-opacity:1;stroke:none;stroke-width:1;stroke-linecap:round;stroke-linejoin:miter;stroke-miterlimit:4;stroke-dasharray:none;stroke-opacity:1" />
        <rect
           y="40"
           x="10"
           height="7.0000005"
           width="28"
           id="rect3700"
           style="opacity:1;fill:url(#linearGradient2092);fill-opacity:1;stroke:none;stroke-width:1;stroke-linecap:round;stroke-linejoin:miter;stroke-miterlimit:4;stroke-dasharray:none;stroke-opacity:1" />
      </g>
    </g>
  </g>
  <g
     style="display:inline"
     inkscape:groupmode="layer"
     inkscape:label="Base"
     id="layer1">
    <path
       style="color:#000000;fill:url(#radialGradient15658);fill-opacity:1;fill-rule:nonzero;stroke:url(#radialGradient15656);stroke-width:1;stroke-linecap:round;stroke-linejoin:round;marker:none;marker-start:none;marker-mid:none;marker-end:none;stroke-miterlimit:4;stroke-dashoffset:0;stroke-opacity:1;visibility:visible;display:block;overflow:visible"
       d="M 7.7526014,3.6464462 L 31.199616,3.6308212 C 31.199616,3.6308212 41.478553,13.174533 41.478553,13.811106 L 41.478553,43.417892 C 41.478553,44.054465 40.966077,44.56694 40.329504,44.56694 L 7.7526014,44.56694 C 7.1160285,44.56694 6.6035528,44.054465 6.6035528,43.417892 L 6.6035528,4.7954948 C 6.6035528,4.1589219 7.1160285,3.6464462 7.7526014,3.6464462 z "
       id="rect15391"
       sodipodi:nodetypes="ccccccccc" />
    <path
       style="color:#000000;fill:none;fill-opacity:1;fill-rule:nonzero;stroke:url(#radialGradient15668);stroke-width:1;stroke-linecap:round;stroke-linejoin:round;marker:none;marker-start:none;marker-mid:none;marker-end:none;stroke-miterlimit:4;stroke-dashoffset:0;stroke-opacity:1;visibility:visible;display:block;overflow:visible"
       d="M 7.8151023,4.5839462 L 32.691494,4.5839462 C 32.691494,4.5839462 40.44194,12.605373 40.44194,12.687946 L 40.44194,43.381282 C 40.44194,43.463855 40.375465,43.530331 40.292892,43.530331 L 7.8151023,43.530331 C 7.7325294,43.530331 7.6660538,43.463855 7.6660538,43.381282 L 7.6660538,4.7329948 C 7.6660538,4.6504219 7.7325294,4.5839462 7.8151023,4.5839462 z "
       id="rect15660"
       sodipodi:nodetypes="ccccccccc" />
  </g>
  <g
     inkscape:groupmode="layer"
     id="layer5"
     inkscape:label="Text"
     style="display:inline">
    <path
       inkscape:r_cy="true"
       inkscape:r_cx="true"
       style="opacity:0.35714285;color:#000000;fill:url(#radialGradient4796);fill-opacity:1;fill-rule:evenodd;stroke:none;stroke-width:1.00000024;stroke-linecap:butt;stroke-linejoin:miter;marker:none;marker-start:none;marker-mid:none;marker-end:none;stroke-miterlimit:4;stroke-dasharray:none;stroke-dashoffset:0;stroke-opacity:1;visibility:visible;display:inline;overflow:visible"
       d="M 40.985189,13.861445 C 40.256827,12.514817 34.882221,10.130934 32.084635,9.3314083 C 32.254143,10.904354 31.961856,15.649439 31.961856,15.649439 C 34.024356,14.274439 40.204485,13.699331 40.985189,13.861445 z "
       id="path5348"
       sodipodi:nodetypes="cccc" />
    <path
       style="opacity:1;color:#000000;fill:url(#radialGradient5352);fill-opacity:1;fill-rule:nonzero;stroke:url(#radialGradient5350);stroke-width:1;stroke-linecap:butt;stroke-linejoin:round;marker:none;marker-start:none;marker-mid:none;marker-end:none;stroke-miterlimit:4;stroke-dasharray:none;stroke-dashoffset:0;stroke-opacity:1;visibility:visible;display:block;overflow:visible"
       d="M 41.410559,13.739267 C 41.423724,12.324125 35.058025,3.5320142 31.175441,3.6354934 C 32.148479,3.8684884 32.925796,9.803523 31.536076,12.616023 C 34.286076,12.616023 40.446694,11.881093 41.410559,13.739267 z "
       id="path2210"
       sodipodi:nodetypes="cccc"
       inkscape:r_cx="true"
       inkscape:r_cy="true" />
    <path
       sodipodi:nodetypes="cccc"
       id="path2247"
       d="M 39.121563,11.586207 C 38.393201,10.239579 34.963027,6.5166576 33.040441,5.2796316 C 33.279381,6.7054805 33.577496,8.9620596 32.961856,11.524439 C 32.961856,11.524439 38.340859,11.424093 39.121563,11.586207 z "
       style="opacity:1;color:#000000;fill:none;fill-opacity:1;fill-rule:evenodd;stroke:url(#linearGradient8166);stroke-width:1.00000024;stroke-linecap:butt;stroke-linejoin:miter;marker:none;marker-start:none;marker-mid:none;marker-end:none;stroke-miterlimit:4;stroke-dasharray:none;stroke-dashoffset:0;stroke-opacity:1;visibility:visible;display:inline;overflow:visible"
       inkscape:r_cx="true"
       inkscape:r_cy="true" />
    <g
       id="g4851"
       style="opacity:0.51098902"
       transform="matrix(0.928889,0,0,1,1.711111,0)"
       inkscape:r_cx="true"
       inkscape:r_cy="true">
      <rect
         style="opacity:1;color:#000000;fill:#8d8d8d;fill-opacity:1;fill-rule:evenodd;stroke:none;stroke-width:0.99999982px;stroke-linecap:round;stroke-linejoin:round;marker:none;marker-start:none;marker-mid:none;marker-end:none;stroke-miterlimit:4;stroke-dasharray:none;stroke-dashoffset:0;stroke-opacity:1;visibility:visible;display:inline;overflow:visible"
         id="rect4819"
         width="18.055456"
         height="0.9375"
         x="10"
         y="9.0625"
         inkscape:r_cx="true"
         inkscape:r_cy="true"
         rx="0.50463521"
         ry="0.46875" />
      <rect
         ry="0.46875"
         rx="0.50463521"
         inkscape:r_cy="true"
         inkscape:r_cx="true"
         y="11.0625"
         x="10"
         height="0.9375"
         width="18.055456"
         id="rect4821"
         style="opacity:1;color:#000000;fill:#8d8d8d;fill-opacity:1;fill-rule:evenodd;stroke:none;stroke-width:0.99999982px;stroke-linecap:round;stroke-linejoin:round;marker:none;marker-start:none;marker-mid:none;marker-end:none;stroke-miterlimit:4;stroke-dasharray:none;stroke-dashoffset:0;stroke-opacity:1;visibility:visible;display:inline;overflow:visible" />
      <rect
         style="opacity:1;color:#000000;fill:#8d8d8d;fill-opacity:1;fill-rule:evenodd;stroke:none;stroke-width:0.99999982px;stroke-linecap:round;stroke-linejoin:round;marker:none;marker-start:none;marker-mid:none;marker-end:none;stroke-miterlimit:4;stroke-dasharray:none;stroke-dashoffset:0;stroke-opacity:1;visibility:visible;display:inline;overflow:visible"
         id="rect4823"
         width="18.055456"
         height="0.9375"
         x="10"
         y="13"
         inkscape:r_cx="true"
         inkscape:r_cy="true"
         rx="0.50463521"
         ry="0.46875" />
      <rect
         ry="0.46875"
         rx="0.50463521"
         inkscape:r_cy="true"
         inkscape:r_cx="true"
         y="15.125"
         x="10"
         height="0.9375"
         width="18.055456"
         id="rect4825"
         style="opacity:1;color:#000000;fill:#8d8d8d;fill-opacity:1;fill-rule:evenodd;stroke:none;stroke-width:0.99999982px;stroke-linecap:round;stroke-linejoin:round;marker:none;marker-start:none;marker-mid:none;marker-end:none;stroke-miterlimit:4;stroke-dasharray:none;stroke-dashoffset:0;stroke-opacity:1;visibility:visible;display:inline;overflow:visible" />
      <rect
         style="opacity:1;color:#000000;fill:#8d8d8d;fill-opacity:1;fill-rule:evenodd;stroke:none;stroke-width:0.99999982px;stroke-linecap:round;stroke-linejoin:round;marker:none;marker-start:none;marker-mid:none;marker-end:none;stroke-miterlimit:4;stroke-dasharray:none;stroke-dashoffset:0;stroke-opacity:1;visibility:visible;display:inline;overflow:visible"
         id="rect4827"
         width="28.125"
         height="0.9375"
         x="10"
         y="19.0625"
         inkscape:r_cx="true"
         inkscape:r_cy="true"
         rx="0.50463516"
         ry="0.46875" />
      <rect
         ry="0.46875"
         rx="0.50463521"
         inkscape:r_cy="true"
         inkscape:r_cx="true"
         y="17.0625"
         x="10"
         height="0.9375"
         width="18.055456"
         id="rect4829"
         style="opacity:1;color:#000000;fill:#8d8d8d;fill-opacity:1;fill-rule:evenodd;stroke:none;stroke-width:0.99999982px;stroke-linecap:round;stroke-linejoin:round;marker:none;marker-start:none;marker-mid:none;marker-end:none;stroke-miterlimit:4;stroke-dasharray:none;stroke-dashoffset:0;stroke-opacity:1;visibility:visible;display:inline;overflow:visible" />
      <rect
         ry="0.46875"
         rx="0.50463516"
         inkscape:r_cy="true"
         inkscape:r_cx="true"
         y="21.0625"
         x="10"
         height="0.9375"
         width="28.125"
         id="rect4831"
         style="opacity:1;color:#000000;fill:#8d8d8d;fill-opacity:1;fill-rule:evenodd;stroke:none;stroke-width:0.99999982px;stroke-linecap:round;stroke-linejoin:round;marker:none;marker-start:none;marker-mid:none;marker-end:none;stroke-miterlimit:4;stroke-dasharray:none;stroke-dashoffset:0;stroke-opacity:1;visibility:visible;display:inline;overflow:visible" />
      <rect
         ry="0.46875"
         rx="0.50463516"
         inkscape:r_cy="true"
         inkscape:r_cx="true"
         y="23.0625"
         x="10"
         height="0.9375"
         width="28.125"
         id="rect4833"
         style="opacity:1;color:#000000;fill:#8d8d8d;fill-opacity:1;fill-rule:evenodd;stroke:none;stroke-width:0.99999982px;stroke-linecap:round;stroke-linejoin:round;marker:none;marker-start:none;marker-mid:none;marker-end:none;stroke-miterlimit:4;stroke-dasharray:none;stroke-dashoffset:0;stroke-opacity:1;visibility:visible;display:inline;overflow:visible" />
      <rect
         style="opacity:1;color:#000000;fill:#8d8d8d;fill-opacity:1;fill-rule:evenodd;stroke:none;stroke-width:0.99999982px;stroke-linecap:round;stroke-linejoin:round;marker:none;marker-start:none;marker-mid:none;marker-end:none;stroke-miterlimit:4;stroke-dasharray:none;stroke-dashoffset:0;stroke-opacity:1;visibility:visible;display:inline;overflow:visible"
         id="rect4835"
         width="28.125"
         height="0.9375"
         x="10"
         y="25.0625"
         inkscape:r_cx="true"
         inkscape:r_cy="true"
         rx="0.50463516"
         ry="0.46875" />
      <rect
         style="opacity:1;color:#000000;fill:#8d8d8d;fill-opacity:1;fill-rule:evenodd;stroke:none;stroke-width:0.99999982px;stroke-linecap:round;stroke-linejoin:round;marker:none;marker-start:none;marker-mid:none;marker-end:none;stroke-miterlimit:4;stroke-dasharray:none;stroke-dashoffset:0;stroke-opacity:1;visibility:visible;display:inline;overflow:visible"
         id="rect4837"
         width="28.125"
         height="0.9375"
         x="10"
         y="27.0625"
         inkscape:r_cx="true"
         inkscape:r_cy="true"
         rx="0.50463516"
         ry="0.46875" />
      <rect
         ry="0.46875"
         rx="0.50463516"
         inkscape:r_cy="true"
         inkscape:r_cx="true"
         y="29.0625"
         x="10"
         height="0.9375"
         width="28.125"
         id="rect4839"
         style="opacity:1;color:#000000;fill:#8d8d8d;fill-opacity:1;fill-rule:evenodd;stroke:none;stroke-width:0.99999982px;stroke-linecap:round;stroke-linejoin:round;marker:none;marker-start:none;marker-mid:none;marker-end:none;stroke-miterlimit:4;stroke-dasharray:none;stroke-dashoffset:0;stroke-opacity:1;visibility:visible;display:inline;overflow:visible" />
      <rect
         ry="0.46875"
         rx="0.50463516"
         inkscape:r_cy="true"
         inkscape:r_cx="true"
         y="31.0625"
         x="10"
         height="0.9375"
         width="28.125"
         id="rect4841"
         style="opacity:1;color:#000000;fill:#8d8d8d;fill-opacity:1;fill-rule:evenodd;stroke:none;stroke-width:0.99999982px;stroke-linecap:round;stroke-linejoin:round;marker:none;marker-start:none;marker-mid:none;marker-end:none;stroke-miterlimit:4;stroke-dasharray:none;stroke-dashoffset:0;stroke-opacity:1;visibility:visible;display:inline;overflow:visible" />
      <rect
         style="opacity:1;color:#000000;fill:#8d8d8d;fill-opacity:1;fill-rule:evenodd;stroke:none;stroke-width:0.99999982px;stroke-linecap:round;stroke-linejoin:round;marker:none;marker-start:none;marker-mid:none;marker-end:none;stroke-miterlimit:4;stroke-dasharray:none;stroke-dashoffset:0;stroke-opacity:1;visibility:visible;display:inline;overflow:visible"
         id="rect4843"
         width="28.125"
         height="0.9375"
         x="10"
         y="33.0625"
         inkscape:r_cx="true"
         inkscape:r_cy="true"
         rx="0.50463516"
         ry="0.46875" />
      <rect
         style="opacity:1;color:#000000;fill:#8d8d8d;fill-opacity:1;fill-rule:evenodd;stroke:none;stroke-width:0.99999982px;stroke-linecap:round;stroke-linejoin:round;marker:none;marker-start:none;marker-mid:none;marker-end:none;stroke-miterlimit:4;stroke-dasharray:none;stroke-dashoffset:0;stroke-opacity:1;visibility:visible;display:inline;overflow:visible"
         id="rect4845"
         width="28.125"
         height="0.9375"
         x="10"
         y="35.0625"
         inkscape:r_cx="true"
         inkscape:r_cy="true"
         rx="0.50463516"
         ry="0.46875" />
      <rect
         style="opacity:1;color:#000000;fill:#8d8d8d;fill-opacity:1;fill-rule:evenodd;stroke:none;stroke-width:0.99999982px;stroke-linecap:round;stroke-linejoin:round;marker:none;marker-start:none;marker-mid:none;marker-end:none;stroke-miterlimit:4;stroke-dasharray:none;stroke-dashoffset:0;stroke-opacity:1;visibility:visible;display:inline;overflow:visible"
         id="rect4849"
         width="13.8125"
         height="0.9375"
         x="10"
         y="37.0625"
         inkscape:r_cx="true"
         inkscape:r_cy="true"
         rx="0.50463516"
         ry="0.46875" />
    </g>
  </g>
  <g
     inkscape:groupmode="layer"
     id="layer2"
     inkscape:label="emblem">
    <path
       transform="matrix(0.704551,0,0,0.87593,12.72616,7.371077)"
       d="M 45.052803 38.908627 A 20.203051 7.4751287 0 1 1  4.6467018,38.908627 A 20.203051 7.4751287 0 1 1  45.052803 38.908627 z"
       sodipodi:ry="7.4751287"
       sodipodi:rx="20.203051"
       sodipodi:cy="38.908627"
       sodipodi:cx="24.849752"
       id="path4112"
       style="opacity:0.83257919;fill:url(#radialGradient17299);fill-opacity:1;stroke:none;stroke-opacity:1;display:inline"
       sodipodi:type="arc" />
    <g
       id="g2615"
       transform="translate(-40,0)">
      <path
         transform="matrix(0.945073,0,0,0.905454,-21.13524,5.644298)"
         d="M 114.99324 33.06237 A 17.500893 9.9878836 0 1 1  79.991455,33.06237 A 17.500893 9.9878836 0 1 1  114.99324 33.06237 z"
         sodipodi:ry="9.9878836"
         sodipodi:rx="17.500893"
         sodipodi:cy="33.06237"
         sodipodi:cx="97.492348"
         id="path19716"
         style="fill:#5d65b4;fill-opacity:1;fill-rule:nonzero;stroke:#3d4384;stroke-width:1;stroke-linecap:round;stroke-linejoin:round;stroke-miterlimit:4;stroke-dasharray:none;stroke-dashoffset:0;stroke-opacity:1"
         sodipodi:type="arc" />
      <path
         sodipodi:type="arc"
         style="fill:none;fill-opacity:1;fill-rule:nonzero;stroke:#9ca1d2;stroke-width:1.17854095;stroke-linecap:round;stroke-linejoin:round;stroke-miterlimit:4;stroke-dasharray:none;stroke-dashoffset:0;stroke-opacity:1"
         id="path19718"
         sodipodi:cx="97.492348"
         sodipodi:cy="33.06237"
         sodipodi:rx="17.500893"
         sodipodi:ry="9.9878836"
         d="M 114.99324 33.06237 A 17.500893 9.9878836 0 1 1  79.991455,33.06237 A 17.500893 9.9878836 0 1 1  114.99324 33.06237 z"
         transform="matrix(0.889513,0,0,0.809391,-15.71799,8.823718)" />
      <path
         sodipodi:nodetypes="cscsscsc"
         id="path19720"
         d="M 70.665432,27.000328 C 61.89479,27.064462 55.175334,30.890635 54.931045,35.372211 C 54.880923,36.291712 55.090604,37.160791 55.61895,37.989754 C 59.615648,34.256906 66.059079,35.21076 71.364561,35.819561 C 76.689142,36.430553 83.034015,36.79209 86.677659,33.674397 C 86.684867,33.668221 86.650413,33.635394 86.658127,33.629836 C 85.142064,29.825317 78.638802,27.000328 70.882116,27.000328 C 70.812737,27.000328 70.734605,26.999871 70.665432,27.000328 z "
         style="opacity:0.55813952;fill:url(#linearGradient2623);fill-opacity:1;fill-rule:evenodd;stroke:none;stroke-width:1px;stroke-linecap:butt;stroke-linejoin:miter;stroke-opacity:1" />
      <path
         id="path19724"
         d="M 69.156251,29.324658 L 68.156251,34.324658 C 68.244866,32.725652 67.060419,31.574658 65.875001,31.574658 L 61.750001,31.574658 L 60.125001,40.043408 L 62.156251,40.074658 L 62.593751,37.887158 L 64.781251,37.887158 C 65.97237,37.887158 67.403295,36.950621 67.968751,35.262158 L 67.468751,37.887158 L 69.500001,37.887158 L 70.406251,33.137158 L 71.687501,33.137158 C 71.942724,33.139133 72.154445,33.170823 72.312501,33.230908 C 72.342033,33.243062 72.381195,33.278073 72.406251,33.293408 C 72.411077,33.29661 72.432863,33.290069 72.437501,33.293408 C 72.441949,33.296887 72.464495,33.321037 72.468751,33.324658 C 72.472813,33.328424 72.496135,33.351995 72.500001,33.355908 C 72.503468,33.360123 72.527986,33.382788 72.531251,33.387158 C 72.534311,33.391686 72.528398,33.413721 72.531251,33.418408 C 72.533895,33.423258 72.560068,33.444643 72.562501,33.449658 C 72.564721,33.45484 72.560497,33.475556 72.562501,33.480908 C 72.567861,33.49748 72.590388,33.52524 72.593751,33.543408 C 72.595541,33.555885 72.592879,33.592687 72.593751,33.605908 C 72.594158,33.619509 72.594287,33.654033 72.593751,33.668408 C 72.592737,33.683178 72.595734,33.715333 72.593751,33.730908 C 72.590041,33.754885 72.568458,33.798792 72.562501,33.824658 L 71.812501,37.887158 L 73.875001,37.887158 L 74.625001,33.793408 C 74.777548,33.001704 74.621388,32.479053 74.312501,32.137158 C 73.843178,31.6381 73.027863,31.52354 72.375001,31.512158 L 70.687501,31.512158 L 71.125001,29.324658 L 69.156251,29.324658 z M 75.593751,31.574658 L 73.968751,40.043408 L 76.000001,40.074658 L 76.406251,37.887158 L 78.625001,37.887158 C 79.895526,37.887158 81.431331,36.828343 81.906251,34.918408 C 82.381171,33.008473 81.049751,31.574658 79.718751,31.574658 L 75.593751,31.574658 z M 63.468751,33.105908 L 64.718751,33.105908 C 65.013563,33.105909 65.279028,33.153724 65.468751,33.230908 C 65.503947,33.246263 65.562313,33.275481 65.593751,33.293408 C 65.631877,33.316608 65.686461,33.360085 65.718751,33.387158 C 65.734931,33.402135 65.766501,33.43354 65.781251,33.449658 C 65.78601,33.455156 65.807899,33.475285 65.812501,33.480908 C 65.816947,33.486655 65.83946,33.506287 65.843751,33.512158 C 65.88511,33.5721 65.911226,33.658985 65.937501,33.730908 C 65.942462,33.745526 65.964374,33.778328 65.968751,33.793408 C 66.052551,34.107251 66.009723,34.526764 65.875001,35.012158 C 65.789325,35.320845 65.6746,35.577314 65.531251,35.762158 C 65.519131,35.777181 65.481212,35.810385 65.468751,35.824658 C 65.443495,35.852466 65.401554,35.893474 65.375001,35.918408 C 65.362148,35.929647 65.325736,35.970232 65.312501,35.980908 C 64.909715,36.292878 64.329394,36.355908 63.562501,36.355908 C 62.293787,36.355907 62.843751,36.355908 62.843751,36.355908 L 63.468751,33.105908 z M 77.312501,33.105908 L 78.562501,33.105908 C 79.01174,33.105909 79.355845,33.21389 79.562501,33.387158 C 79.578682,33.402135 79.610251,33.43354 79.625001,33.449658 C 79.677351,33.510138 79.716202,33.593177 79.750001,33.668408 C 79.755848,33.682323 79.775996,33.716523 79.781251,33.730908 C 79.786212,33.745526 79.808124,33.778328 79.812501,33.793408 C 79.896301,34.107251 79.853473,34.526764 79.718751,35.012158 C 79.622367,35.359431 79.480721,35.631973 79.312501,35.824658 C 79.299873,35.838562 79.262958,35.87398 79.250001,35.887158 C 79.243442,35.893568 79.225389,35.912174 79.218751,35.918408 C 79.199758,35.935696 79.176103,35.964895 79.156251,35.980908 C 78.753466,36.292878 78.173145,36.355908 77.406251,36.355908 C 76.137539,36.355907 76.687501,36.355908 76.687501,36.355908 L 77.312501,33.105908 z "
         style="opacity:0.69957084;fill:none;fill-opacity:1;fill-rule:evenodd;stroke:url(#linearGradient2625);stroke-width:2;stroke-linecap:round;stroke-linejoin:round;stroke-miterlimit:4;stroke-dasharray:none;stroke-opacity:1" />
      <path
         id="path19732"
         d="M 69.156251,29.324658 L 68.156251,34.324658 C 68.244866,32.725652 67.060419,31.574658 65.875001,31.574658 L 61.750001,31.574658 L 60.125001,40.043408 L 62.156251,40.074658 L 62.593751,37.887158 L 64.781251,37.887158 C 65.97237,37.887158 67.403295,36.950621 67.968751,35.262158 L 67.468751,37.887158 L 69.500001,37.887158 L 70.406251,33.137158 L 71.687501,33.137158 C 71.942724,33.139133 72.154445,33.170823 72.312501,33.230908 C 72.342033,33.243062 72.381195,33.278073 72.406251,33.293408 C 72.411077,33.29661 72.432863,33.290069 72.437501,33.293408 C 72.441949,33.296887 72.464495,33.321037 72.468751,33.324658 C 72.472813,33.328424 72.496135,33.351995 72.500001,33.355908 C 72.503468,33.360123 72.527986,33.382788 72.531251,33.387158 C 72.534311,33.391686 72.528398,33.413721 72.531251,33.418408 C 72.533895,33.423258 72.560068,33.444643 72.562501,33.449658 C 72.564721,33.45484 72.560497,33.475556 72.562501,33.480908 C 72.567861,33.49748 72.590388,33.52524 72.593751,33.543408 C 72.595541,33.555885 72.592879,33.592687 72.593751,33.605908 C 72.594158,33.619509 72.594287,33.654033 72.593751,33.668408 C 72.592737,33.683178 72.595734,33.715333 72.593751,33.730908 C 72.590041,33.754885 72.568458,33.798792 72.562501,33.824658 L 71.812501,37.887158 L 73.875001,37.887158 L 74.625001,33.793408 C 74.777548,33.001704 74.621388,32.479053 74.312501,32.137158 C 73.843178,31.6381 73.027863,31.52354 72.375001,31.512158 L 70.687501,31.512158 L 71.125001,29.324658 L 69.156251,29.324658 z M 75.593751,31.574658 L 73.968751,40.043408 L 76.000001,40.074658 L 76.406251,37.887158 L 78.625001,37.887158 C 79.895526,37.887158 81.431331,36.828343 81.906251,34.918408 C 82.381171,33.008473 81.049751,31.574658 79.718751,31.574658 L 75.593751,31.574658 z M 63.468751,33.105908 L 64.718751,33.105908 C 65.013563,33.105909 65.279028,33.153724 65.468751,33.230908 C 65.503947,33.246263 65.562313,33.275481 65.593751,33.293408 C 65.631877,33.316608 65.686461,33.360085 65.718751,33.387158 C 65.734931,33.402135 65.766501,33.43354 65.781251,33.449658 C 65.78601,33.455156 65.807899,33.475285 65.812501,33.480908 C 65.816947,33.486655 65.83946,33.506287 65.843751,33.512158 C 65.88511,33.5721 65.911226,33.658985 65.937501,33.730908 C 65.942462,33.745526 65.964374,33.778328 65.968751,33.793408 C 66.052551,34.107251 66.009723,34.526764 65.875001,35.012158 C 65.789325,35.320845 65.6746,35.577314 65.531251,35.762158 C 65.519131,35.777181 65.481212,35.810385 65.468751,35.824658 C 65.443495,35.852466 65.401554,35.893474 65.375001,35.918408 C 65.362148,35.929647 65.325736,35.970232 65.312501,35.980908 C 64.909715,36.292878 64.329394,36.355908 63.562501,36.355908 C 62.293787,36.355907 62.843751,36.355908 62.843751,36.355908 L 63.468751,33.105908 z M 77.312501,33.105908 L 78.562501,33.105908 C 79.01174,33.105909 79.355845,33.21389 79.562501,33.387158 C 79.578682,33.402135 79.610251,33.43354 79.625001,33.449658 C 79.677351,33.510138 79.716202,33.593177 79.750001,33.668408 C 79.755848,33.682323 79.775996,33.716523 79.781251,33.730908 C 79.786212,33.745526 79.808124,33.778328 79.812501,33.793408 C 79.896301,34.107251 79.853473,34.526764 79.718751,35.012158 C 79.622367,35.359431 79.480721,35.631973 79.312501,35.824658 C 79.299873,35.838562 79.262958,35.87398 79.250001,35.887158 C 79.243442,35.893568 79.225389,35.912174 79.218751,35.918408 C 79.199758,35.935696 79.176103,35.964895 79.156251,35.980908 C 78.753466,36.292878 78.173145,36.355908 77.406251,36.355908 C 76.137539,36.355907 76.687501,36.355908 76.687501,36.355908 L 77.312501,33.105908 z "
         style="fill:#000000;fill-opacity:1;fill-rule:evenodd;stroke:none;stroke-width:1.99168754;stroke-linecap:butt;stroke-linejoin:miter;stroke-miterlimit:4;stroke-dasharray:none;stroke-opacity:1" />
      <path
         id="path19738"
         d="M 69.156249,29.336846 L 68.156249,34.243096 C 68.204624,32.683972 67.041895,31.586846 65.874999,31.586846 L 61.749999,31.586846 L 60.968749,35.711846 C 61.634638,35.597911 62.308469,35.529559 62.999999,35.493096 L 63.468749,33.118096 L 64.718749,33.118096 C 65.011367,33.118095 65.274726,33.167935 65.468749,33.243096 C 65.493429,33.253311 65.539734,33.262903 65.562499,33.274346 C 65.591986,33.290146 65.630303,33.318891 65.656249,33.336846 C 65.667248,33.341971 65.707983,33.362818 65.718749,33.368096 C 65.724997,33.373568 65.744109,33.393451 65.749999,33.399346 C 65.755576,33.405589 65.77594,33.424081 65.781249,33.430596 C 65.801598,33.457442 65.825138,33.497372 65.843749,33.524346 C 65.849206,33.535224 65.869695,33.575846 65.874999,33.586846 C 65.882047,33.599807 65.899804,33.635905 65.906249,33.649346 C 65.91194,33.654759 65.931846,33.675153 65.937499,33.680596 C 65.945824,33.701822 65.961746,33.752072 65.968749,33.774346 C 66.060676,34.091027 66.013006,34.527113 65.874999,35.024346 C 65.825914,35.201199 65.75672,35.358399 65.687499,35.493096 C 66.402725,35.527871 67.101609,35.580171 67.812499,35.649346 C 67.85587,35.551512 67.900485,35.472093 67.937499,35.368096 L 67.874999,35.649346 C 68.547501,35.71545 69.218623,35.820481 69.874999,35.899346 L 70.406249,33.149346 L 71.687499,33.149346 C 71.942722,33.151321 72.154443,33.183011 72.312499,33.243096 C 72.315258,33.243011 72.34057,33.243408 72.343749,33.243096 C 72.354859,33.248451 72.39586,33.268476 72.406249,33.274346 C 72.411836,33.279984 72.431959,33.299924 72.437499,33.305596 C 72.448593,33.31608 72.489685,33.357028 72.499999,33.368096 C 72.505552,33.373331 72.525899,33.393955 72.531249,33.399346 C 72.539681,33.415258 72.557505,33.450186 72.562499,33.461846 C 72.562262,33.465072 72.562572,33.490326 72.562499,33.493096 C 72.568295,33.498572 72.588008,33.518826 72.593749,33.524346 C 72.593751,33.535193 72.593974,33.575815 72.593749,33.586846 C 72.593669,33.592982 72.593647,33.614695 72.593749,33.618096 C 72.593656,33.639075 72.595993,33.689091 72.593749,33.711846 C 72.592823,33.715366 72.59508,33.739139 72.593749,33.743096 C 72.588656,33.756119 72.565903,33.794511 72.562499,33.805596 L 72.124999,36.149346 C 72.795608,36.226198 73.466433,36.308975 74.156249,36.368096 L 74.624999,33.805596 C 74.735669,33.231223 74.685079,32.786319 74.531249,32.461846 C 74.483859,32.367102 74.407689,32.257403 74.343749,32.180596 C 74.320009,32.153226 74.275619,32.112031 74.249999,32.086846 C 74.240219,32.077601 74.203919,32.040695 74.187499,32.024346 C 74.180019,32.018033 74.163849,31.999254 74.156249,31.993096 C 73.677416,31.620751 72.957528,31.534503 72.374999,31.524346 L 70.687499,31.524346 L 71.124999,29.336846 L 69.156249,29.336846 z M 75.593749,31.586846 L 74.656249,36.399346 C 76.903959,36.571094 79.195799,36.597965 81.312501,36.274346 C 81.563501,35.894255 81.780101,35.437922 81.906251,34.930596 C 82.381171,33.020663 81.049751,31.586846 79.718749,31.586846 L 75.593749,31.586846 z M 77.312499,33.118096 L 78.562499,33.118096 C 78.843269,33.118095 79.095849,33.141626 79.281249,33.211846 C 79.316709,33.227771 79.377919,33.259216 79.406249,33.274346 C 79.429829,33.287792 79.478529,33.321987 79.499999,33.336846 C 79.510999,33.341971 79.551729,33.362818 79.562499,33.368096 C 79.565499,33.371624 79.591099,33.395455 79.593749,33.399346 C 79.600629,33.412067 79.617109,33.45037 79.624999,33.461846 C 79.630599,33.467335 79.650689,33.487576 79.656249,33.493096 C 79.661859,33.498569 79.681919,33.518842 79.687499,33.524346 C 79.692959,33.535224 79.713449,33.575846 79.718749,33.586846 C 79.725799,33.599807 79.743559,33.635905 79.749999,33.649346 C 79.897479,33.977628 79.876469,34.45608 79.718749,35.024346 C 79.640219,35.30731 79.533759,35.533897 79.406249,35.711846 C 79.373149,35.756251 79.322399,35.821319 79.281249,35.868096 C 79.265009,35.885683 79.233689,35.91657 79.218749,35.930596 C 79.212419,35.936359 79.193919,35.956229 79.187499,35.961846 C 78.783779,36.301179 78.198709,36.368096 77.406249,36.368096 C 76.137539,36.368097 76.687499,36.368096 76.687499,36.368096 L 77.312499,33.118096 z "
         style="opacity:0.12217198;fill:url(#linearGradient2627);fill-opacity:1;fill-rule:evenodd;stroke:none;stroke-width:1.99168754;stroke-linecap:butt;stroke-linejoin:miter;stroke-miterlimit:4;stroke-dasharray:none;stroke-opacity:1" />
    </g>
  </g>
</svg>
