<?xml version="1.0" encoding="UTF-8" standalone="no"?>
<!-- Created with Inkscape (http://www.inkscape.org/) -->
<svg
   xmlns:dc="http://purl.org/dc/elements/1.1/"
   xmlns:cc="http://creativecommons.org/ns#"
   xmlns:rdf="http://www.w3.org/1999/02/22-rdf-syntax-ns#"
   xmlns:svg="http://www.w3.org/2000/svg"
   xmlns="http://www.w3.org/2000/svg"
   xmlns:xlink="http://www.w3.org/1999/xlink"
   xmlns:sodipodi="http://sodipodi.sourceforge.net/DTD/sodipodi-0.dtd"
   xmlns:inkscape="http://www.inkscape.org/namespaces/inkscape"
   inkscape:export-ydpi="90"
   inkscape:export-xdpi="90"
   inkscape:export-filename="/home/mark/Projects/Tango Icons/-mimetypes/desktop/gnome-mime-application-x-desktop-48.png"
   sodipodi:docname="application-x-bittorrent.svg"
   sodipodi:docbase="/home/mark/Projects/Tango Icons/-mimetypes/glade"
   inkscape:version="0.46"
   sodipodi:version="0.32"
   id="svg249"
   height="48.000000px"
   width="48.000000px"
   inkscape:output_extension="org.inkscape.output.svg.inkscape">
  <defs
     id="defs3">
    <radialGradient
       inkscape:collect="always"
       xlink:href="#linearGradient4163"
       id="radialGradient4609"
       cx="9.9090576"
       cy="12.579687"
       fx="9.9090576"
       fy="12.579687"
       r="21.574232"
       gradientTransform="matrix(0.642339,0,0,0.664097,8.9906109,9.3393215)"
       gradientUnits="userSpaceOnUse" />
    <radialGradient
       inkscape:collect="always"
       xlink:href="#linearGradient4163"
       id="radialGradient18888"
       gradientUnits="userSpaceOnUse"
       gradientTransform="matrix(0.652031,0,0,0.650588,8.5467129,9.8748705)"
       cx="20.064526"
       cy="25.52681"
       fx="20.064526"
       fy="25.52681"
       r="19.537107" />
    <radialGradient
       inkscape:collect="always"
       xlink:href="#linearGradient4163"
       id="radialGradient5502"
       cx="20.064526"
       cy="25.52681"
       fx="20.064526"
       fy="25.52681"
       r="19.537107"
       gradientTransform="matrix(0.652031,0,0,0.650588,8.5467129,9.8748705)"
       gradientUnits="userSpaceOnUse" />
    <radialGradient
       inkscape:collect="always"
       xlink:href="#linearGradient4163"
       id="radialGradient15305"
       cx="34.780205"
       cy="25.81551"
       fx="34.780205"
       fy="25.81551"
       r="4.4842029"
       gradientTransform="matrix(0.4321673,0,0,0.4379955,17.252885,32.070752)"
       gradientUnits="userSpaceOnUse" />
    <radialGradient
       inkscape:collect="always"
       xlink:href="#linearGradient4163"
       id="radialGradient15301"
       cx="42.457531"
       cy="18.234585"
       fx="42.457531"
       fy="18.234585"
       r="7.2179499"
       gradientTransform="matrix(0.4568749,-7.3523955e-3,5.5954836e-3,0.329709,16.165034,33.056623)"
       gradientUnits="userSpaceOnUse" />
    <radialGradient
       inkscape:collect="always"
       xlink:href="#linearGradient4163"
       id="radialGradient15303"
       cx="39.020916"
       cy="5.4132447"
       fx="39.020916"
       fy="5.4132447"
       r="5.1177464"
       gradientTransform="matrix(0.4460635,0,0,0.2506847,16.964111,33.137031)"
       gradientUnits="userSpaceOnUse" />
    <radialGradient
       inkscape:collect="always"
       xlink:href="#linearGradient4163"
       id="radialGradient5512"
       cx="17.412275"
       cy="31.623114"
       fx="17.412275"
       fy="31.623114"
       r="18.098307"
       gradientTransform="matrix(0.427855,0,0,0.326978,16.925742,34.659541)"
       gradientUnits="userSpaceOnUse" />
    <linearGradient
       id="linearGradient4163">
      <stop
         style="stop-color:#3b74bc;stop-opacity:1.0000000;"
         offset="0.0000000"
         id="stop4165" />
      <stop
         style="stop-color:#2d5990;stop-opacity:1.0000000;"
         offset="1.0000000"
         id="stop4167" />
    </linearGradient>
    <radialGradient
       inkscape:collect="always"
       xlink:href="#linearGradient4163"
       id="radialGradient9957"
       gradientUnits="userSpaceOnUse"
       gradientTransform="matrix(0.422752,0,0,0.435884,16.894304,30.925243)"
       cx="9.9090576"
       cy="12.579687"
       fx="9.9090576"
       fy="12.579687"
       r="21.574232" />
    <linearGradient
       inkscape:collect="always"
       id="linearGradient3816">
      <stop
         style="stop-color:#000000;stop-opacity:1;"
         offset="0"
         id="stop3818" />
      <stop
         style="stop-color:#000000;stop-opacity:0;"
         offset="1"
         id="stop3820" />
    </linearGradient>
    <radialGradient
       inkscape:collect="always"
       xlink:href="#linearGradient3816"
       id="radialGradient18884"
       gradientUnits="userSpaceOnUse"
       cx="31.112698"
       cy="19.008621"
       fx="31.112698"
       fy="19.008621"
       r="8.6620579" />
    <inkscape:perspective
       sodipodi:type="inkscape:persp3d"
       inkscape:vp_x="0 : 24 : 1"
       inkscape:vp_y="0 : 1000 : 0"
       inkscape:vp_z="48 : 24 : 1"
       inkscape:persp3d-origin="24 : 16 : 1"
       id="perspective119" />
    <linearGradient
       id="linearGradient3702">
      <stop
         style="stop-color:black;stop-opacity:0;"
         offset="0"
         id="stop3704" />
      <stop
         id="stop3710"
         offset="0.5"
         style="stop-color:black;stop-opacity:1;" />
      <stop
         style="stop-color:black;stop-opacity:0;"
         offset="1"
         id="stop3706" />
    </linearGradient>
    <linearGradient
       inkscape:collect="always"
       id="linearGradient3688">
      <stop
         style="stop-color:black;stop-opacity:1;"
         offset="0"
         id="stop3690" />
      <stop
         style="stop-color:black;stop-opacity:0;"
         offset="1"
         id="stop3692" />
    </linearGradient>
    <linearGradient
       inkscape:collect="always"
       id="linearGradient4790">
      <stop
         style="stop-color:#000000;stop-opacity:1;"
         offset="0"
         id="stop4792" />
      <stop
         style="stop-color:#000000;stop-opacity:0;"
         offset="1"
         id="stop4794" />
    </linearGradient>
    <linearGradient
       inkscape:collect="always"
       id="linearGradient2251">
      <stop
         style="stop-color:#ffffff;stop-opacity:1;"
         offset="0"
         id="stop2253" />
      <stop
         style="stop-color:#ffffff;stop-opacity:0;"
         offset="1"
         id="stop2255" />
    </linearGradient>
    <linearGradient
       id="linearGradient15662">
      <stop
         id="stop15664"
         offset="0.0000000"
         style="stop-color:#ffffff;stop-opacity:1.0000000;" />
      <stop
         id="stop15666"
         offset="1.0000000"
         style="stop-color:#f8f8f8;stop-opacity:1.0000000;" />
    </linearGradient>
    <linearGradient
       id="linearGradient269">
      <stop
         id="stop270"
         offset="0.0000000"
         style="stop-color:#a3a3a3;stop-opacity:1.0000000;" />
      <stop
         id="stop271"
         offset="1"
         style="stop-color:#8a8a8a;stop-opacity:1;" />
    </linearGradient>
    <linearGradient
       id="linearGradient259">
      <stop
         id="stop260"
         offset="0.0000000"
         style="stop-color:#fafafa;stop-opacity:1.0000000;" />
      <stop
         id="stop261"
         offset="1.0000000"
         style="stop-color:#bbbbbb;stop-opacity:1.0000000;" />
    </linearGradient>
    <radialGradient
       inkscape:collect="always"
       xlink:href="#linearGradient269"
       id="radialGradient15656"
       gradientUnits="userSpaceOnUse"
       gradientTransform="matrix(0.968868,0,0,1.036068,3.351554,0.506089)"
       cx="8.8244190"
       cy="3.7561285"
       fx="8.8244190"
       fy="3.7561285"
       r="37.751713" />
    <radialGradient
       inkscape:collect="always"
       xlink:href="#linearGradient259"
       id="radialGradient15658"
       gradientUnits="userSpaceOnUse"
       gradientTransform="matrix(0.961084,0,0,1.044459,-4.060961e-3,-0.142424)"
       cx="33.966679"
       cy="35.736916"
       fx="33.966679"
       fy="35.736916"
       r="86.708450" />
    <radialGradient
       inkscape:collect="always"
       xlink:href="#linearGradient15662"
       id="radialGradient15668"
       gradientUnits="userSpaceOnUse"
       gradientTransform="matrix(0.968273,0.000000,0.000000,1.032767,3.353553,0.646447)"
       cx="8.1435566"
       cy="7.2678967"
       fx="8.1435566"
       fy="7.2678967"
       r="38.158695" />
    <radialGradient
       inkscape:collect="always"
       xlink:href="#linearGradient3688"
       id="radialGradient3717"
       gradientUnits="userSpaceOnUse"
       gradientTransform="matrix(2.003784,0,0,1.4,27.98813,-17.4)"
       cx="4.9929786"
       cy="43.5"
       fx="4.9929786"
       fy="43.5"
       r="2.5" />
    <radialGradient
       inkscape:collect="always"
       xlink:href="#linearGradient3688"
       id="radialGradient3719"
       gradientUnits="userSpaceOnUse"
       gradientTransform="matrix(2.003784,0,0,1.4,-20.01187,-104.4)"
       cx="4.9929786"
       cy="43.5"
       fx="4.9929786"
       fy="43.5"
       r="2.5" />
    <linearGradient
       inkscape:collect="always"
       xlink:href="#linearGradient3702"
       id="linearGradient3721"
       gradientUnits="userSpaceOnUse"
       x1="25.058096"
       y1="47.027729"
       x2="25.058096"
       y2="39.999443" />
    <radialGradient
       inkscape:collect="always"
       xlink:href="#linearGradient4790"
       id="radialGradient1923"
       gradientUnits="userSpaceOnUse"
       gradientTransform="matrix(1.744653,0,0,1.283833,-26.58256,-3.478359)"
       cx="37.030354"
       cy="12.98915"
       fx="37.030354"
       fy="12.98915"
       r="4.2929165" />
    <radialGradient
       inkscape:collect="always"
       xlink:href="#linearGradient259"
       id="radialGradient1925"
       gradientUnits="userSpaceOnUse"
       gradientTransform="matrix(0.148355,1.009137e-2,-1.104438e-2,0.162365,25.06011,12.81706)"
       cx="30.653816"
       cy="14.9373"
       fx="30.653816"
       fy="14.9373"
       r="86.708450" />
    <radialGradient
       inkscape:collect="always"
       xlink:href="#linearGradient269"
       id="radialGradient1927"
       gradientUnits="userSpaceOnUse"
       gradientTransform="matrix(0.331735,0,0,0.353831,20.10526,9.5823)"
       cx="31.863327"
       cy="2.3667307"
       fx="31.863327"
       fy="2.3667307"
       r="37.751713" />
    <linearGradient
       inkscape:collect="always"
       xlink:href="#linearGradient2251"
       id="linearGradient1929"
       gradientUnits="userSpaceOnUse"
       gradientTransform="matrix(-2.48131e-2,-0.756771,0.756567,-2.481981e-2,8.221918,36.1682)"
       x1="33.396004"
       y1="36.921333"
       x2="34.170048"
       y2="38.070381" />
    <linearGradient
       id="linearGradient22140">
      <stop
         id="stop22142"
         offset="0"
         style="stop-color:black;stop-opacity:0;" />
      <stop
         style="stop-color:black;stop-opacity:1;"
         offset="0.5"
         id="stop22148" />
      <stop
         id="stop22144"
         offset="1"
         style="stop-color:black;stop-opacity:0;" />
    </linearGradient>
  </defs>
  <sodipodi:namedview
     inkscape:window-y="268"
     inkscape:window-x="447"
     inkscape:window-height="688"
     inkscape:window-width="1048"
     inkscape:document-units="px"
     inkscape:grid-bbox="true"
     showgrid="true"
     inkscape:current-layer="layer1"
     inkscape:cy="39.458231"
     inkscape:cx="-0.63605576"
     inkscape:zoom="5.6568542"
     inkscape:pageshadow="2"
     inkscape:pageopacity="0.0"
     borderopacity="1"
     bordercolor="#666"
     pagecolor="#ffffff"
     id="base"
     inkscape:showpageshadow="false">
    <inkscape:grid
       type="xygrid"
       id="grid6486" />
  </sodipodi:namedview>
  <metadata
     id="metadata4">
    <rdf:RDF>
      <cc:Work
         rdf:about="">
        <dc:format>image/svg+xml</dc:format>
        <dc:type
           rdf:resource="http://purl.org/dc/dcmitype/StillImage" />
        <dc:title>Text Preview</dc:title>
        <dc:subject>
          <rdf:Bag>
            <rdf:li>text</rdf:li>
            <rdf:li>plaintext</rdf:li>
            <rdf:li>regular</rdf:li>
            <rdf:li>document</rdf:li>
          </rdf:Bag>
        </dc:subject>
        <cc:license
           rdf:resource="http://creativecommons.org/licenses/GPL/2.0/" />
        <dc:creator>
          <cc:Agent>
            <dc:title>Jakub Steiner</dc:title>
          </cc:Agent>
        </dc:creator>
        <dc:source>http://jimmac.musichall.cz</dc:source>
      </cc:Work>
      <cc:License
         rdf:about="http://creativecommons.org/licenses/GPL/2.0/">
        <cc:permits
           rdf:resource="http://web.resource.org/cc/Reproduction" />
        <cc:permits
           rdf:resource="http://web.resource.org/cc/Distribution" />
        <cc:requires
           rdf:resource="http://web.resource.org/cc/Notice" />
        <cc:permits
           rdf:resource="http://web.resource.org/cc/DerivativeWorks" />
        <cc:requires
           rdf:resource="http://web.resource.org/cc/ShareAlike" />
        <cc:requires
           rdf:resource="http://web.resource.org/cc/SourceCode" />
      </cc:License>
    </rdf:RDF>
  </metadata>
  <g
     inkscape:groupmode="layer"
     id="layer6"
     inkscape:label="Shadow">
    <g
       id="g3712"
       style="opacity:0.4"
       transform="matrix(1.052632,0,0,1.285713,-1.263158,-13.42854)">
      <rect
         y="40"
         x="38"
         height="7"
         width="5"
         id="rect2801"
         style="opacity:1;fill:url(#radialGradient3717);fill-opacity:1;stroke:none;stroke-width:1;stroke-linecap:round;stroke-linejoin:miter;stroke-miterlimit:4;stroke-dasharray:none;stroke-opacity:1" />
      <rect
         transform="scale(-1,-1)"
         y="-47"
         x="-10"
         height="7"
         width="5"
         id="rect3696"
         style="opacity:1;fill:url(#radialGradient3719);fill-opacity:1;stroke:none;stroke-width:1;stroke-linecap:round;stroke-linejoin:miter;stroke-miterlimit:4;stroke-dasharray:none;stroke-opacity:1" />
      <rect
         y="40"
         x="10"
         height="7.0000005"
         width="28"
         id="rect3700"
         style="opacity:1;fill:url(#linearGradient3721);fill-opacity:1;stroke:none;stroke-width:1;stroke-linecap:round;stroke-linejoin:miter;stroke-miterlimit:4;stroke-dasharray:none;stroke-opacity:1" />
    </g>
  </g>
  <g
     style="display:inline"
     inkscape:groupmode="layer"
     inkscape:label="Base"
     id="layer1">
    <path
       style="color:black;fill:url(#radialGradient15658);fill-opacity:1;fill-rule:nonzero;stroke:url(#radialGradient15656);stroke-width:1.00000012;stroke-linecap:round;stroke-linejoin:round;marker:none;marker-start:none;marker-mid:none;marker-end:none;stroke-miterlimit:4;stroke-dashoffset:0;stroke-opacity:1;visibility:visible;display:block;overflow:visible"
       d="M 7.7533083,3.5156762 L 36.217818,3.5000013 C 36.217818,3.5000013 41.500001,8.7962658 41.500001,9.4348733 L 41.500001,43.414232 C 41.500001,44.052839 40.98721,44.566952 40.350246,44.566952 L 7.7533083,44.566952 C 7.1163439,44.566952 6.603553,44.052839 6.603553,43.414232 L 6.603553,4.6683972 C 6.603553,4.0297898 7.1163439,3.5156762 7.7533083,3.5156762 z "
       id="rect15391"
       sodipodi:nodetypes="ccccccccc" />
    <path
       style="color:#000000;fill:none;fill-opacity:1;fill-rule:nonzero;stroke:url(#radialGradient15668);stroke-width:1;stroke-linecap:round;stroke-linejoin:round;stroke-miterlimit:4;stroke-dashoffset:0;stroke-opacity:1;marker:none;marker-start:none;marker-mid:none;marker-end:none;visibility:visible;display:block;overflow:visible"
       d="M 7.8151023,4.5839462 L 36.691494,4.5839462 C 36.691494,4.5839462 40.44194,8.605373 40.44194,8.687946 L 40.44194,43.381282 C 40.44194,43.463855 40.375465,43.530331 40.292892,43.530331 L 7.8151023,43.530331 C 7.7325294,43.530331 7.6660538,43.463855 7.6660538,43.381282 L 7.6660538,4.7329948 C 7.6660538,4.6504219 7.7325294,4.5839462 7.8151023,4.5839462 z "
       id="rect15660"
       sodipodi:nodetypes="ccccccccc" />
    <path
       transform="matrix(1.7894131,0,0,0.346338,-31.173469,32.416592)"
       sodipodi:type="arc"
       style="opacity:0.6;fill:url(#radialGradient18884);fill-opacity:1;fill-rule:evenodd;stroke:none;stroke-width:1px;stroke-linecap:round;stroke-linejoin:round;marker:none;marker-start:none;marker-mid:none;marker-end:none;stroke-miterlimit:4;stroke-dasharray:none;stroke-dashoffset:0;stroke-opacity:1;visibility:visible;display:inline;overflow:visible"
       id="path4306"
       sodipodi:cx="31.112698"
       sodipodi:cy="19.008621"
       sodipodi:rx="8.6620579"
       sodipodi:ry="8.6620579"
       d="M 39.774755,19.008621 A 8.6620579,8.6620579 0 1 1 22.45064,19.008621 A 8.6620579,8.6620579 0 1 1 39.774755,19.008621 z" />
    <path
       sodipodi:nodetypes="ccccc"
       id="path9959"
       d="M 36.539475,33.626355 C 23.953057,49.107367 0.94708189,28.961276 17.938747,16.05507 C 26.943929,10.905402 29.354312,20.925749 23.761806,21.845136 C 27.205591,14.185095 9.9065459,21.11816 16.585595,30.657875 C 21.314243,38.144923 30.89307,39.982902 36.539475,33.626355 z"
       style="fill:url(#radialGradient5502);fill-opacity:1;fill-rule:evenodd;stroke:#204a87;stroke-width:2.5;stroke-linecap:butt;stroke-linejoin:miter;stroke-miterlimit:4;stroke-dasharray:none;stroke-opacity:1;display:inline" />
    <path
       style="fill:url(#radialGradient18888);fill-opacity:1;fill-rule:evenodd;stroke:#eeeeec;stroke-width:1;stroke-linecap:butt;stroke-linejoin:miter;stroke-miterlimit:4;stroke-dasharray:none;stroke-opacity:0.57647059000000000;display:inline"
       d="M 36.539475,33.626355 C 23.953057,49.107367 1.0720819,28.617526 18.063747,15.71132 C 27.068929,10.561652 28.510562,21.113249 23.886806,21.501386 C 25.424341,13.935095 9.9065459,21.11816 16.585595,30.657875 C 21.314243,38.144923 30.89307,39.982902 36.539475,33.626355 z"
       id="path2829"
       sodipodi:nodetypes="ccccc" />
    <path
       style="fill:url(#radialGradient4609);fill-opacity:1;fill-rule:evenodd;stroke:#204a87;stroke-width:2.5;stroke-linecap:butt;stroke-linejoin:miter;stroke-miterlimit:4;stroke-dasharray:none;stroke-opacity:1;display:inline"
       d="M 36.670666,33.117423 C 22.863414,51.01425 -0.88799291,28.598819 16.205003,13.457626 C 25.030446,6.1324365 30.803739,19.192226 19.474414,20.176453 C 23.252232,11.32106 11.166448,18.757155 15.332238,27.920273 C 20.519546,36.575677 30.476579,40.465912 36.670666,33.117423 z"
       id="path7300"
       sodipodi:nodetypes="ccccc" />
    <path
       sodipodi:nodetypes="ccccc"
       id="path2827"
       d="M 36.665437,33.092607 C 22.863518,51.19429 -0.46964501,27.578808 16.42865,13.79532 C 25.250672,6.5478987 30,18.732204 19.520022,20.060725 C 23.29638,11.103969 10.817518,18.846152 14.981698,28.114156 C 20.167002,36.868634 30.473743,40.52521 36.665437,33.092607 z"
       style="opacity:1;fill:url(#radialGradient9957);fill-opacity:1;fill-rule:evenodd;stroke:#eeeeec;stroke-width:1;stroke-linecap:butt;stroke-linejoin:miter;stroke-miterlimit:4;stroke-dasharray:none;stroke-opacity:0.57647059000000000;display:inline" />
    <path
       style="fill:#204a87;fill-opacity:1;fill-rule:evenodd;stroke:none;stroke-width:3;stroke-linecap:butt;stroke-linejoin:miter;stroke-miterlimit:4;stroke-dasharray:none;stroke-opacity:1;display:inline"
       d="M 20.278004,20.032413 C 19.419751,20.011337 18.516502,20.158066 17.585059,20.547982 L 17.500242,20.589228 L 17.43663,20.630474 C 13.89911,22.855035 12.906567,26.22161 13.016122,29.28391 C 13.125677,32.34621 14.225895,35.309536 16.779296,37.419884 C 19.332699,39.53023 22.808427,40.831703 26.596881,40.554534 C 30.359872,40.279228 33.168674,38.62854 36.80724,34.627718 C 36.810815,34.623788 37.521157,33.814178 37.515944,33.815218 C 37.161985,33.885803 37.360933,34.329967 37.332901,34.01835 C 37.296661,33.615518 37.953966,33.394106 37.518853,33.388447 C 36.960734,33.38119 36.682794,32.216628 36.661096,32.236634 C 32.133548,36.411156 23.44222,36.168657 19.617332,31.170571 C 18.198012,28.629483 19.183189,27.247751 20.044756,26.862322 C 20.479336,26.667909 20.655995,26.703238 20.850519,26.944812 C 21.045045,27.186387 21.175922,27.95778 20.767929,29.604509 L 20.42866,30.98623 L 22.016755,30.883749 C 23.811219,30.679856 25.116381,29.521249 25.663892,28.222156 C 26.211403,26.923063 26.094093,25.429201 25.55787,24.097614 C 25.02165,22.76603 24.048391,21.314195 22.652883,20.60985 C 21.955129,20.257678 21.136255,20.053492 20.278004,20.032413 z M 20.235595,22.241571 C 20.782517,22.254741 21.258384,22.390548 21.698691,22.61278 C 22.579305,23.057245 23.29365,23.903741 23.670689,24.840033 C 24.047728,25.776323 24.071349,26.760023 23.77671,27.459115 C 23.622377,27.825308 23.396179,28.137393 23.055765,28.366515 C 23.11766,27.246121 22.980812,26.273644 22.44084,25.603073 C 21.648297,24.61884 20.242683,24.475165 19.196585,24.943146 C 17.104392,25.879108 15.760237,28.91005 17.669876,32.243584 L 17.691081,32.305452 L 17.733489,32.346698 C 20.562084,36.092315 25.465027,37.971265 30.116792,37.667355 C 28.869461,38.157485 27.634746,38.487963 26.44845,38.574755 C 23.229631,38.810248 20.268577,37.711711 18.093963,35.914426 C 15.919348,34.117142 14.575014,31.651041 14.489234,29.253291 C 14.404367,26.881076 15.475129,24.521976 18.454434,22.61278 C 19.116223,22.34527 19.707984,22.228866 20.235595,22.241571 z"
       id="path5522"
       sodipodi:nodetypes="ccccsssssssscsscccsssccssscssccccssscc" />
    <path
       sodipodi:nodetypes="ccccsc"
       id="path2831"
       d="M 36.615426,33.447101 C 21.249195,49.159443 7.1942019,30.275845 18.079574,22.213012 C 23.625,19 26.832838,28 22.273735,29.299835 C 23.991647,22.417224 15.469649,25.158736 17.975543,30.956634 C 21.0944,37.091886 29.270097,37.647365 34.300315,35.23755 C 35.213511,34.800067 35.871587,34.142267 36.615426,33.447101 z"
       style="fill:url(#radialGradient5512);fill-opacity:1;fill-rule:evenodd;stroke:#eeeeec;stroke-width:1;stroke-linecap:square;stroke-linejoin:miter;stroke-miterlimit:4;stroke-dasharray:none;stroke-opacity:0.57575754999999995;display:inline" />
    <path
       style="fill:url(#radialGradient15303);fill-opacity:1;fill-rule:evenodd;stroke:#204a87;stroke-width:1.0329783;stroke-linecap:butt;stroke-linejoin:miter;stroke-miterlimit:4;stroke-dasharray:none;stroke-opacity:1;display:inline"
       d="M 30.516489,13.146027 C 32.864037,13.666989 33.069478,14.299011 34.31378,14.46786 C 34.729568,14.52428 35.752303,14.43638 35.904247,14.069 C 36.68792,13.284233 36.780415,12.031172 35.528495,11.530854 C 34.363203,11.372728 31.627301,12.543391 30.516489,13.146027 z"
       id="path12626"
       sodipodi:nodetypes="ccccc" />
    <path
       sodipodi:nodetypes="ccccc"
       id="path13523"
       d="M 30.515127,17.531719 C 33.534742,19.791148 33.411481,20.785452 35.082904,21.837316 C 35.641413,22.188801 37.165006,22.74545 37.625501,22.346857 C 39.267029,21.798894 40.2276,20.157943 38.764301,18.650792 C 37.199012,17.665719 32.505071,17.447397 30.515127,17.531719 z"
       style="fill:url(#radialGradient15301);fill-opacity:1;fill-rule:evenodd;stroke:#204a87;stroke-width:1.03025436;stroke-linecap:butt;stroke-linejoin:miter;stroke-miterlimit:4;stroke-dasharray:none;stroke-opacity:1;display:inline" />
    <path
       style="fill:url(#radialGradient15305);fill-opacity:1;fill-rule:evenodd;stroke:#204a87;stroke-width:1.03447068;stroke-linecap:butt;stroke-linejoin:miter;stroke-miterlimit:4;stroke-dasharray:none;stroke-opacity:1;display:inline"
       d="M 28.517235,22.517373 C 29.875629,24.763002 29.587316,25.418622 30.381819,26.524913 C 30.647304,26.894585 31.45773,27.626419 31.82416,27.457757 C 32.943291,27.456886 33.881136,26.548312 33.311212,25.17656 C 32.567158,24.140516 29.749611,22.915189 28.517235,22.517373 z"
       id="path13527"
       sodipodi:nodetypes="ccccc" />
    <path
       style="fill:none;fill-opacity:1;fill-rule:evenodd;stroke:#eeeeec;stroke-width:0.51512718;stroke-linecap:butt;stroke-linejoin:miter;stroke-miterlimit:4;stroke-dasharray:none;stroke-opacity:0.57647059;display:inline"
       d="M 32.58076,18.266105 C 34.145932,19.85054 34.234116,20.32766 35.485416,21.122702 C 35.903545,21.388369 37.205607,22.030077 37.550353,21.728803 C 38.779277,21.314632 39.242446,20.396543 38.146954,19.257378 C 36.975107,18.512819 34.070521,18.202371 32.58076,18.266105 z"
       id="path15307"
       sodipodi:nodetypes="ccccc" />
    <path
       sodipodi:nodetypes="ccccc"
       id="path16196"
       d="M 32.303658,13.029122 C 33.427574,13.442555 33.775959,13.817641 34.559654,13.906588 C 34.821532,13.936309 35.610986,13.78129 35.700221,13.539295 C 36.178956,13.01459 36.156708,12.307827 35.362708,12.002996 C 34.628771,11.919696 32.990729,12.617563 32.303658,13.029122 z"
       style="fill:none;fill-opacity:1;fill-rule:evenodd;stroke:#eeeeec;stroke-width:0.51648915;stroke-linecap:butt;stroke-linejoin:miter;stroke-miterlimit:4;stroke-dasharray:none;stroke-opacity:0.57647059;display:inline" />
    <path
       style="fill:none;fill-opacity:1;fill-rule:evenodd;stroke:#eeeeec;stroke-width:0.51723534;stroke-linecap:butt;stroke-linejoin:miter;stroke-miterlimit:4;stroke-dasharray:none;stroke-opacity:0.57647059;display:inline"
       d="M 29.694229,23.628922 C 30.232227,24.906478 30.380069,25.414246 30.907487,26.146511 C 31.083727,26.3912 31.7206,26.781852 31.973256,26.664677 C 32.737776,26.651385 32.78664,26.2228 32.709459,25.377845 C 32.215532,24.692076 30.530587,23.881489 29.694229,23.628922 z"
       id="path17083"
       sodipodi:nodetypes="ccccc" />
    <path
       sodipodi:nodetypes="cccc"
       id="path18879"
       d="M 33.352729,34.455121 C 34.955638,33.019603 36.521801,32.111389 38.082763,28.52878 C 38.141967,30.027794 38.660135,33.392576 37.075113,34.946571 C 36.282939,34.74941 34.144903,34.652282 33.352729,34.455121 z"
       style="fill:#204a87;fill-opacity:1;fill-rule:evenodd;stroke:none;stroke-width:1px;stroke-linecap:butt;stroke-linejoin:miter;stroke-opacity:1;display:inline" />
    <path
       style="fill:#eeeeec;fill-opacity:0.57647059;fill-rule:evenodd;stroke:none;stroke-width:1px;stroke-linecap:butt;stroke-linejoin:miter;stroke-opacity:1;display:inline"
       d="M 34.519117,34.602719 C 35.368115,33.934363 37.054792,32.576239 37.638903,31.022696 C 37.325112,33.149161 36.647728,34.101285 36,34.789763 C 35.207826,34.592602 35.311291,34.79988 34.519117,34.602719 z"
       id="path18881"
       sodipodi:nodetypes="cccc" />
  </g>
  <g
     inkscape:groupmode="layer"
     id="layer5"
     inkscape:label="Text"
     style="display:inline">
    <g
       id="g1918"
       transform="matrix(0.589097,0,0,0.577622,17.11331,1.395056)">
      <path
         sodipodi:nodetypes="cccc"
         id="path5348"
         d="M 40.985189,13.861445 C 40.256827,12.514817 34.882221,10.130934 32.084635,9.3314083 C 32.254143,10.904354 31.961856,15.649439 31.961856,15.649439 C 34.024356,14.274439 40.204485,13.699331 40.985189,13.861445 z "
         style="opacity:0.35714285;color:black;fill:url(#radialGradient1923);fill-opacity:1;fill-rule:evenodd;stroke:none;stroke-width:1.00000024;stroke-linecap:butt;stroke-linejoin:miter;marker:none;marker-start:none;marker-mid:none;marker-end:none;stroke-miterlimit:4;stroke-dasharray:none;stroke-dashoffset:0;stroke-opacity:1;visibility:visible;display:inline;overflow:visible"
         inkscape:r_cx="true"
         inkscape:r_cy="true" />
      <path
         inkscape:r_cy="true"
         inkscape:r_cx="true"
         sodipodi:nodetypes="cccc"
         id="path2210"
         d="M 41.410559,13.739267 C 41.423724,12.324125 35.058025,3.5320142 31.175441,3.6354934 C 32.148479,3.8684884 32.634036,9.5059668 31.244316,12.318467 C 33.994316,12.318467 40.446694,11.881093 41.410559,13.739267 z "
         style="opacity:1;color:black;fill:url(#radialGradient1925);fill-opacity:1;fill-rule:nonzero;stroke:url(#radialGradient1927);stroke-width:1.71429098;stroke-linecap:butt;stroke-linejoin:round;marker:none;marker-start:none;marker-mid:none;marker-end:none;stroke-miterlimit:4;stroke-dasharray:none;stroke-dashoffset:0;stroke-opacity:1;visibility:visible;display:block;overflow:visible" />
      <path
         inkscape:r_cy="true"
         inkscape:r_cx="true"
         style="opacity:1;color:black;fill:none;fill-opacity:1;fill-rule:evenodd;stroke:url(#linearGradient1929);stroke-width:1.71429169;stroke-linecap:butt;stroke-linejoin:miter;marker:none;marker-start:none;marker-mid:none;marker-end:none;stroke-miterlimit:4;stroke-dasharray:none;stroke-dashoffset:0;stroke-opacity:1;visibility:visible;display:inline;overflow:visible"
         d="M 38.373065,10.820521 C 37.821714,9.8008851 35.225165,6.9819727 33.769819,6.0453244 C 33.950691,7.1249452 33.99069,8.6442222 33.524667,10.584399 C 33.524667,10.584399 37.782093,10.697772 38.373065,10.820521 z "
         id="path2247"
         sodipodi:nodetypes="cccc" />
    </g>
  </g>
</svg>
