<?xml version="1.0" encoding="UTF-8" standalone="no"?>
<!-- Created with Inkscape (http://www.inkscape.org/) -->
<svg
   xmlns:dc="http://purl.org/dc/elements/1.1/"
   xmlns:cc="http://web.resource.org/cc/"
   xmlns:rdf="http://www.w3.org/1999/02/22-rdf-syntax-ns#"
   xmlns:svg="http://www.w3.org/2000/svg"
   xmlns="http://www.w3.org/2000/svg"
   xmlns:xlink="http://www.w3.org/1999/xlink"
   xmlns:sodipodi="http://sodipodi.sourceforge.net/DTD/sodipodi-0.dtd"
   xmlns:inkscape="http://www.inkscape.org/namespaces/inkscape"
   width="48"
   height="48"
   id="svg2"
   sodipodi:version="0.32"
   inkscape:version="0.45+devel"
   version="1.0"
   sodipodi:docbase="/home/ulisse/Desktop/sidewinder/scalable"
   sodipodi:docname="input-gaming-microsoft-sidewinder-gamepad.svg"
   inkscape:output_extension="org.inkscape.output.svg.inkscape">
  <defs
     id="defs4">
    <linearGradient
       inkscape:collect="always"
       id="linearGradient5199">
      <stop
         style="stop-color:#ffffff;stop-opacity:1;"
         offset="0"
         id="stop5201" />
      <stop
         style="stop-color:#ffffff;stop-opacity:0;"
         offset="1"
         id="stop5203" />
    </linearGradient>
    <radialGradient
       inkscape:collect="always"
       xlink:href="#linearGradient5060"
       id="radialGradient3527"
       gradientUnits="userSpaceOnUse"
       gradientTransform="matrix(-2.03716,0,0,2.018058,-423.3185,-879.5624)"
       cx="605.71429"
       cy="486.64789"
       fx="605.71429"
       fy="486.64789"
       r="117.14286" />
    <linearGradient
       inkscape:collect="always"
       id="linearGradient5060">
      <stop
         style="stop-color:black;stop-opacity:1;"
         offset="0"
         id="stop5062" />
      <stop
         style="stop-color:black;stop-opacity:0;"
         offset="1"
         id="stop5064" />
    </linearGradient>
    <radialGradient
       inkscape:collect="always"
       xlink:href="#linearGradient5060"
       id="radialGradient3525"
       gradientUnits="userSpaceOnUse"
       gradientTransform="matrix(2.03716,0,0,1.969706,-1052.701,-856.2756)"
       cx="605.71429"
       cy="486.64789"
       fx="605.71429"
       fy="486.64789"
       r="117.14286" />
    <linearGradient
       id="linearGradient5048">
      <stop
         style="stop-color:black;stop-opacity:0;"
         offset="0"
         id="stop5050" />
      <stop
         id="stop5056"
         offset="0.5"
         style="stop-color:black;stop-opacity:1;" />
      <stop
         style="stop-color:black;stop-opacity:0;"
         offset="1"
         id="stop5052" />
    </linearGradient>
    <linearGradient
       inkscape:collect="always"
       xlink:href="#linearGradient5048"
       id="linearGradient3523"
       gradientUnits="userSpaceOnUse"
       gradientTransform="matrix(3.781761,0,0,1.969706,-2104.846,-856.0366)"
       x1="302.85715"
       y1="366.64789"
       x2="302.85715"
       y2="609.50507" />
    <linearGradient
       inkscape:collect="always"
       id="linearGradient3324">
      <stop
         style="stop-color:#2e3436;stop-opacity:1;"
         offset="0"
         id="stop3326" />
      <stop
         style="stop-color:#222728;stop-opacity:1"
         offset="1"
         id="stop3328" />
    </linearGradient>
    <linearGradient
       id="linearGradient3314">
      <stop
         style="stop-color:#222627;stop-opacity:1"
         offset="0"
         id="stop3316" />
      <stop
         id="stop3322"
         offset="0.5955056"
         style="stop-color:#717374;stop-opacity:0.49803922;" />
      <stop
         style="stop-color:#ffffff;stop-opacity:0"
         offset="1"
         id="stop3318" />
    </linearGradient>
    <linearGradient
       inkscape:collect="always"
       id="linearGradient3286">
      <stop
         style="stop-color:#d3e757;stop-opacity:1"
         offset="0"
         id="stop3288" />
      <stop
         style="stop-color:#8ae234;stop-opacity:1"
         offset="1"
         id="stop3290" />
    </linearGradient>
    <linearGradient
       inkscape:collect="always"
       id="linearGradient3270">
      <stop
         style="stop-color:#ffffff;stop-opacity:1;"
         offset="0"
         id="stop3272" />
      <stop
         style="stop-color:#ffffff;stop-opacity:0.14117648"
         offset="1"
         id="stop3274" />
    </linearGradient>
    <linearGradient
       id="linearGradient3258">
      <stop
         style="stop-color:#eeeeec;stop-opacity:0"
         offset="0"
         id="stop3260" />
      <stop
         id="stop3266"
         offset="0.89887643"
         style="stop-color:#eeeeec;stop-opacity:0;" />
      <stop
         style="stop-color:#eeeeec;stop-opacity:1"
         offset="1"
         id="stop3262" />
    </linearGradient>
    <linearGradient
       inkscape:collect="always"
       id="linearGradient3179">
      <stop
         style="stop-color:#ffffff;stop-opacity:0.44106463"
         offset="0"
         id="stop3181" />
      <stop
         style="stop-color:#ffffff;stop-opacity:0;"
         offset="1"
         id="stop3183" />
    </linearGradient>
    <linearGradient
       id="linearGradient3171"
       inkscape:collect="always">
      <stop
         id="stop3173"
         offset="0"
         style="stop-color:#282d2f;stop-opacity:1" />
      <stop
         id="stop3175"
         offset="1"
         style="stop-color:#80888a;stop-opacity:1" />
    </linearGradient>
    <radialGradient
       inkscape:collect="always"
       xlink:href="#linearGradient3171"
       id="radialGradient3157"
       cx="14.497735"
       cy="16.17733"
       fx="14.497735"
       fy="16.17733"
       r="3.3772664"
       gradientTransform="matrix(1.0003425,-9.9740712e-8,8.6524453e-8,0.8487612,-4.9683476e-3,2.752589)"
       gradientUnits="userSpaceOnUse" />
    <linearGradient
       inkscape:collect="always"
       xlink:href="#linearGradient3179"
       id="linearGradient3185"
       x1="21.75"
       y1="14.969669"
       x2="22.417242"
       y2="16.681803"
       gradientUnits="userSpaceOnUse" />
    <linearGradient
       inkscape:collect="always"
       xlink:href="#linearGradient3179"
       id="linearGradient3191"
       gradientUnits="userSpaceOnUse"
       x1="21.75"
       y1="14.969669"
       x2="22.417242"
       y2="16.681803" />
    <linearGradient
       inkscape:collect="always"
       xlink:href="#linearGradient3179"
       id="linearGradient3197"
       gradientUnits="userSpaceOnUse"
       x1="21.75"
       y1="14.969669"
       x2="22.417242"
       y2="16.681803" />
    <linearGradient
       inkscape:collect="always"
       xlink:href="#linearGradient3179"
       id="linearGradient3203"
       gradientUnits="userSpaceOnUse"
       x1="21.75"
       y1="14.969669"
       x2="22.417242"
       y2="16.681803" />
    <linearGradient
       inkscape:collect="always"
       xlink:href="#linearGradient3179"
       id="linearGradient3210"
       gradientUnits="userSpaceOnUse"
       x1="21.75"
       y1="14.969669"
       x2="22.417242"
       y2="16.681803" />
    <linearGradient
       inkscape:collect="always"
       xlink:href="#linearGradient3179"
       id="linearGradient3216"
       gradientUnits="userSpaceOnUse"
       x1="21.75"
       y1="14.969669"
       x2="22.417242"
       y2="16.681803" />
    <linearGradient
       inkscape:collect="always"
       xlink:href="#linearGradient3179"
       id="linearGradient3234"
       gradientUnits="userSpaceOnUse"
       x1="21.75"
       y1="14.969669"
       x2="22.417242"
       y2="16.681803" />
    <linearGradient
       inkscape:collect="always"
       xlink:href="#linearGradient3179"
       id="linearGradient3242"
       gradientUnits="userSpaceOnUse"
       x1="21.75"
       y1="14.969669"
       x2="22.417242"
       y2="16.681803" />
    <radialGradient
       inkscape:collect="always"
       xlink:href="#linearGradient3258"
       id="radialGradient3264"
       cx="24.5"
       cy="42.253849"
       fx="24.5"
       fy="42.253849"
       r="6.5"
       gradientTransform="matrix(1.591522,0,0,0.9512739,-14.492289,-11.246538)"
       gradientUnits="userSpaceOnUse" />
    <linearGradient
       inkscape:collect="always"
       xlink:href="#linearGradient3270"
       id="linearGradient3276"
       x1="18.351845"
       y1="4.8864646"
       x2="32.123028"
       y2="35.55722"
       gradientUnits="userSpaceOnUse" />
    <radialGradient
       inkscape:collect="always"
       xlink:href="#linearGradient3286"
       id="radialGradient3292"
       cx="24.5"
       cy="13.5"
       fx="24.5"
       fy="13.5"
       r="1.5"
       gradientTransform="matrix(0.6980065,-4.7522014e-7,3.4729552e-7,0.51011,7.3988366,6.6135263)"
       gradientUnits="userSpaceOnUse" />
    <radialGradient
       inkscape:collect="always"
       xlink:href="#linearGradient3314"
       id="radialGradient3320"
       cx="24"
       cy="13.625989"
       fx="24"
       fy="13.625989"
       r="19"
       gradientTransform="matrix(1.0000108,1.5797797e-7,-8.7922658e-8,0.5542222,-2.6016539e-4,8.6197438)"
       gradientUnits="userSpaceOnUse" />
    <radialGradient
       inkscape:collect="always"
       xlink:href="#linearGradient3324"
       id="radialGradient3368"
       cx="23.996136"
       cy="16.498117"
       fx="23.996136"
       fy="16.498117"
       r="22.996136"
       gradientTransform="matrix(1,-5.7971959e-8,3.0947369e-8,0.5338334,-5.1057332e-7,9.9688602)"
       gradientUnits="userSpaceOnUse" />
    <radialGradient
       inkscape:collect="always"
       xlink:href="#linearGradient5199"
       id="radialGradient5205"
       cx="8.4697466"
       cy="31.173725"
       fx="8.4697466"
       fy="31.173725"
       r="4.9652822"
       gradientTransform="matrix(0.2940886,0.1975388,-0.9999998,1.4887633,37.152612,-16.90968)"
       gradientUnits="userSpaceOnUse" />
    <radialGradient
       inkscape:collect="always"
       xlink:href="#linearGradient5199"
       id="radialGradient5209"
       gradientUnits="userSpaceOnUse"
       gradientTransform="matrix(-0.2984935,0.1908175,0.9659745,1.5110622,12.527915,-17.547893)"
       cx="8.4697466"
       cy="31.173725"
       fx="8.4697466"
       fy="31.173725"
       r="4.9652822" />
  </defs>
  <sodipodi:namedview
     id="base"
     pagecolor="#ffffff"
     bordercolor="#f6aaaa"
     borderopacity="1"
     inkscape:pageopacity="0.0"
     inkscape:pageshadow="2"
     inkscape:zoom="1"
     inkscape:cx="39.363371"
     inkscape:cy="32.888115"
     inkscape:document-units="px"
     inkscape:current-layer="layer1"
     width="48px"
     height="48px"
     inkscape:showpageshadow="false"
     showgrid="false"
     gridspacingx="0.5px"
     gridspacingy="0.5px"
     gridempspacing="2"
     inkscape:grid-points="true"
     inkscape:window-width="1019"
     inkscape:window-height="726"
     inkscape:window-x="179"
     inkscape:window-y="38"
     showguides="true"
     inkscape:guide-bbox="true" />
  <metadata
     id="metadata7">
    <rdf:RDF>
      <cc:Work
         rdf:about="">
        <dc:format>image/svg+xml</dc:format>
        <dc:type
           rdf:resource="http://purl.org/dc/dcmitype/StillImage" />
        <dc:creator>
          <cc:Agent>
            <dc:title>Ulisse Perusin</dc:title>
          </cc:Agent>
        </dc:creator>
        <cc:license
           rdf:resource="http://creativecommons.org/licenses/GPL/2.0/" />
        <dc:title>Microsoft Sidewinder Gamepad</dc:title>
        <dc:source>uli.peru@gmail.com</dc:source>
        <dc:subject>
          <rdf:Bag>
            <rdf:li>Microsoft Sidewinder Gamepad</rdf:li>
          </rdf:Bag>
        </dc:subject>
      </cc:Work>
      <cc:License
         rdf:about="http://creativecommons.org/licenses/GPL/2.0/">
        <cc:permits
           rdf:resource="http://web.resource.org/cc/Reproduction" />
        <cc:permits
           rdf:resource="http://web.resource.org/cc/Distribution" />
        <cc:requires
           rdf:resource="http://web.resource.org/cc/Notice" />
        <cc:permits
           rdf:resource="http://web.resource.org/cc/DerivativeWorks" />
        <cc:requires
           rdf:resource="http://web.resource.org/cc/ShareAlike" />
        <cc:requires
           rdf:resource="http://web.resource.org/cc/SourceCode" />
      </cc:License>
    </rdf:RDF>
  </metadata>
  <g
     inkscape:label="Livello 1"
     inkscape:groupmode="layer"
     id="layer1">
    <path
       style="fill:url(#radialGradient3368);fill-opacity:1.0;fill-rule:evenodd;stroke:#1c2021;stroke-width:1;stroke-linecap:round;stroke-linejoin:round;stroke-miterlimit:4;stroke-dashoffset:0;stroke-opacity:1;opacity:1"
       d="M 46.49227,36 C 46.403882,43 41,40 35,27.5 C 29.5,31.5 19.5,31.5 14,27.5 C 8,40 1.5,42.925004 1.5,36.5 C 1.5,25.044193 10.5,8.5 24.5,8.5 C 38.5,8.5 46.49227,25 46.49227,36 z "
       id="path2167"
       sodipodi:nodetypes="cccczc" />
    <path
       style="fill:url(#radialGradient3320);fill-opacity:1.0;fill-rule:evenodd;stroke:none;stroke-width:1;stroke-linecap:round;stroke-linejoin:round;stroke-miterlimit:4;stroke-dashoffset:0;stroke-opacity:1;opacity:0.57088123"
       d="M 5,23 C 8.8819564,15.432574 15.816605,9 24.5,9 C 33.300833,9 39.440399,15.424413 43,23 C 33.712849,22.962053 35,29 24,29 C 14,29 15.423348,23.065958 5,23 z "
       id="path3312"
       sodipodi:nodetypes="czcsc" />
    <path
       style="fill:url(#radialGradient3264);fill-opacity:1.0;fill-rule:evenodd;stroke:none;stroke-width:1;stroke-linecap:round;stroke-linejoin:round;stroke-miterlimit:4;stroke-dashoffset:0;stroke-opacity:1;opacity:0.24521073"
       d="M 31,24.75 L 18,24.75 C 19.5,23.5 21.5,22.5 24.5,22.5 C 27.5,22.5 29.5,23.5 31,24.75 z "
       id="path3247"
       sodipodi:nodetypes="ccsc" />
    <path
       sodipodi:type="arc"
       style="opacity:1;fill:#2e3436;fill-opacity:1;fill-rule:evenodd;stroke:#1c2021;stroke-width:2.56188917;stroke-linecap:round;stroke-linejoin:round;stroke-miterlimit:4;stroke-dasharray:none;stroke-dashoffset:0;stroke-opacity:1"
       id="path3193"
       sodipodi:cx="16.297243"
       sodipodi:cy="18.5"
       sodipodi:rx="4.2972426"
       sodipodi:ry="3.5"
       d="M 20.594486 18.5 A 4.2972426 3.5 0 1 1  12,18.5 A 4.2972426 3.5 0 1 1  20.594486 18.5 z"
       transform="matrix(0.3555133,0,0,0.4285718,30.178386,9.0714231)" />
    <path
       sodipodi:type="arc"
       style="opacity:1;fill:#2e3436;fill-opacity:1;fill-rule:evenodd;stroke:#1c2021;stroke-width:2.56188917;stroke-linecap:round;stroke-linejoin:round;stroke-miterlimit:4;stroke-dasharray:none;stroke-dashoffset:0;stroke-opacity:1"
       id="path3187"
       sodipodi:cx="16.297243"
       sodipodi:cy="18.5"
       sodipodi:rx="4.2972426"
       sodipodi:ry="3.5"
       d="M 20.594486 18.5 A 4.2972426 3.5 0 1 1  12,18.5 A 4.2972426 3.5 0 1 1  20.594486 18.5 z"
       transform="matrix(0.3555133,0,0,0.4285718,27.178386,11.071423)" />
    <path
       sodipodi:type="arc"
       style="opacity:1;fill:url(#linearGradient3197);fill-opacity:1;fill-rule:evenodd;stroke:none;stroke-width:1;stroke-linecap:round;stroke-linejoin:round;stroke-miterlimit:4;stroke-dasharray:none;stroke-dashoffset:0;stroke-opacity:1"
       id="path3195"
       sodipodi:cx="21.75"
       sodipodi:cy="15.5"
       sodipodi:rx="1.75"
       sodipodi:ry="1.5"
       d="M 23.5 15.5 A 1.75 1.5 0 1 1  20,15.5 A 1.75 1.5 0 1 1  23.5 15.5 z"
       transform="matrix(0.8571428,0,0,0.8333333,17.357143,3.333334)" />
    <path
       sodipodi:type="arc"
       style="opacity:1;fill:url(#linearGradient3191);fill-opacity:1;fill-rule:evenodd;stroke:none;stroke-width:1;stroke-linecap:round;stroke-linejoin:round;stroke-miterlimit:4;stroke-dasharray:none;stroke-dashoffset:0;stroke-opacity:1"
       id="path3189"
       sodipodi:cx="21.75"
       sodipodi:cy="15.5"
       sodipodi:rx="1.75"
       sodipodi:ry="1.5"
       d="M 23.5 15.5 A 1.75 1.5 0 1 1  20,15.5 A 1.75 1.5 0 1 1  23.5 15.5 z"
       transform="matrix(0.8571428,0,0,0.8333333,14.357143,5.333334)" />
    <path
       sodipodi:type="arc"
       style="opacity:1;fill:#2e3436;fill-opacity:1;fill-rule:evenodd;stroke:#1c2021;stroke-width:2.56188917;stroke-linecap:round;stroke-linejoin:round;stroke-miterlimit:4;stroke-dasharray:none;stroke-dashoffset:0;stroke-opacity:1"
       id="path3167"
       sodipodi:cx="16.297243"
       sodipodi:cy="18.5"
       sodipodi:rx="4.2972426"
       sodipodi:ry="3.5"
       d="M 20.594486 18.5 A 4.2972426 3.5 0 1 1  12,18.5 A 4.2972426 3.5 0 1 1  20.594486 18.5 z"
       transform="matrix(0.3555133,0,0,0.4285718,24.178387,13.071423)" />
    <path
       sodipodi:type="arc"
       style="opacity:1;fill:url(#linearGradient3185);fill-opacity:1;fill-rule:evenodd;stroke:none;stroke-width:1;stroke-linecap:round;stroke-linejoin:round;stroke-miterlimit:4;stroke-dasharray:none;stroke-dashoffset:0;stroke-opacity:1"
       id="path3177"
       sodipodi:cx="21.75"
       sodipodi:cy="15.5"
       sodipodi:rx="1.75"
       sodipodi:ry="1.5"
       d="M 23.5 15.5 A 1.75 1.5 0 1 1  20,15.5 A 1.75 1.5 0 1 1  23.5 15.5 z"
       transform="matrix(0.8571428,0,0,0.8333333,11.357144,7.3333339)" />
    <path
       sodipodi:type="arc"
       style="opacity:1;fill:#1c2021;fill-opacity:1;fill-rule:evenodd;stroke:none;stroke-width:5.20361757;stroke-linecap:round;stroke-linejoin:round;stroke-miterlimit:4;stroke-dasharray:none;stroke-dashoffset:0;stroke-opacity:1"
       id="path3199"
       sodipodi:cx="16.297243"
       sodipodi:cy="18.5"
       sodipodi:rx="4.2972426"
       sodipodi:ry="3.5"
       d="M 20.594486 18.5 A 4.2972426 3.5 0 1 1  12,18.5 A 4.2972426 3.5 0 1 1  20.594486 18.5 z"
       transform="matrix(0.204877,-8.1222634e-2,0.1354408,0.416723,28.155415,7.1143295)" />
    <path
       sodipodi:type="arc"
       style="opacity:1;fill:url(#linearGradient3203);fill-opacity:1;fill-rule:evenodd;stroke:none;stroke-width:1;stroke-linecap:round;stroke-linejoin:round;stroke-miterlimit:4;stroke-dasharray:none;stroke-dashoffset:0;stroke-opacity:1"
       id="path3201"
       sodipodi:cx="21.75"
       sodipodi:cy="15.5"
       sodipodi:rx="1.75"
       sodipodi:ry="1.5"
       d="M 23.5 15.5 A 1.75 1.5 0 1 1  20,15.5 A 1.75 1.5 0 1 1  23.5 15.5 z"
       transform="matrix(0.4285717,0,0,0.6666667,24.428565,2.6666661)" />
    <path
       sodipodi:type="arc"
       style="opacity:1;fill:#1c2021;fill-opacity:1;fill-rule:evenodd;stroke:none;stroke-width:5.20361757;stroke-linecap:round;stroke-linejoin:round;stroke-miterlimit:4;stroke-dasharray:none;stroke-dashoffset:0;stroke-opacity:1"
       id="path3206"
       sodipodi:cx="16.297243"
       sodipodi:cy="18.5"
       sodipodi:rx="4.2972426"
       sodipodi:ry="3.5"
       d="M 20.594486 18.5 A 4.2972426 3.5 0 1 1  12,18.5 A 4.2972426 3.5 0 1 1  20.594486 18.5 z"
       transform="matrix(0.204877,-8.1222634e-2,0.1354408,0.416723,25.155416,9.1143292)" />
    <path
       sodipodi:type="arc"
       style="opacity:1;fill:url(#linearGradient3210);fill-opacity:1;fill-rule:evenodd;stroke:none;stroke-width:1;stroke-linecap:round;stroke-linejoin:round;stroke-miterlimit:4;stroke-dasharray:none;stroke-dashoffset:0;stroke-opacity:1"
       id="path3208"
       sodipodi:cx="21.75"
       sodipodi:cy="15.5"
       sodipodi:rx="1.75"
       sodipodi:ry="1.5"
       d="M 23.5 15.5 A 1.75 1.5 0 1 1  20,15.5 A 1.75 1.5 0 1 1  23.5 15.5 z"
       transform="matrix(0.4285717,0,0,0.6666667,21.428566,4.6666658)" />
    <path
       sodipodi:type="arc"
       style="opacity:1;fill:#1c2021;fill-opacity:1;fill-rule:evenodd;stroke:none;stroke-width:5.20361757;stroke-linecap:round;stroke-linejoin:round;stroke-miterlimit:4;stroke-dasharray:none;stroke-dashoffset:0;stroke-opacity:1"
       id="path3212"
       sodipodi:cx="16.297243"
       sodipodi:cy="18.5"
       sodipodi:rx="4.2972426"
       sodipodi:ry="3.5"
       d="M 20.594486 18.5 A 4.2972426 3.5 0 1 1  12,18.5 A 4.2972426 3.5 0 1 1  20.594486 18.5 z"
       transform="matrix(0.204877,-8.1222634e-2,0.1354408,0.416723,22.155416,11.114329)" />
    <path
       sodipodi:type="arc"
       style="opacity:1;fill:url(#linearGradient3216);fill-opacity:1;fill-rule:evenodd;stroke:none;stroke-width:1;stroke-linecap:round;stroke-linejoin:round;stroke-miterlimit:4;stroke-dasharray:none;stroke-dashoffset:0;stroke-opacity:1"
       id="path3214"
       sodipodi:cx="21.75"
       sodipodi:cy="15.5"
       sodipodi:rx="1.75"
       sodipodi:ry="1.5"
       d="M 23.5 15.5 A 1.75 1.5 0 1 1  20,15.5 A 1.75 1.5 0 1 1  23.5 15.5 z"
       transform="matrix(0.4285717,0,0,0.6666667,18.428566,6.6666653)" />
    <g
       id="g3230"
       transform="matrix(1.3046817,0,0,0.6882738,-18.518322,6.595266)">
      <path
         transform="matrix(0.3555133,0,0,0.4285718,27.178387,18.071422)"
         d="M 20.594486 18.5 A 4.2972426 3.5 0 1 1  12,18.5 A 4.2972426 3.5 0 1 1  20.594486 18.5 z"
         sodipodi:ry="3.5"
         sodipodi:rx="4.2972426"
         sodipodi:cy="18.5"
         sodipodi:cx="16.297243"
         id="path3224"
         style="opacity:1;fill:#2e3436;fill-opacity:1;fill-rule:evenodd;stroke:#1c2021;stroke-width:2.70350671;stroke-linecap:round;stroke-linejoin:round;stroke-miterlimit:4;stroke-dasharray:none;stroke-dashoffset:0;stroke-opacity:1"
         sodipodi:type="arc" />
      <path
         transform="matrix(0.8744763,0,0,0.9686065,13.949806,10.274114)"
         d="M 23.5 15.5 A 1.75 1.5 0 1 1  20,15.5 A 1.75 1.5 0 1 1  23.5 15.5 z"
         sodipodi:ry="1.5"
         sodipodi:rx="1.75"
         sodipodi:cy="15.5"
         sodipodi:cx="21.75"
         id="path3226"
         style="opacity:1;fill:url(#linearGradient3234);fill-opacity:1;fill-rule:evenodd;stroke:none;stroke-width:1;stroke-linecap:round;stroke-linejoin:round;stroke-miterlimit:4;stroke-dasharray:none;stroke-dashoffset:0;stroke-opacity:1"
         sodipodi:type="arc" />
    </g>
    <g
       id="g3236"
       transform="matrix(0.6785171,0,0,0.6735381,2.1454119,2.98801)">
      <path
         transform="matrix(0.3555133,0,0,0.4285718,27.178387,18.071422)"
         d="M 20.594486 18.5 A 4.2972426 3.5 0 1 1  12,18.5 A 4.2972426 3.5 0 1 1  20.594486 18.5 z"
         sodipodi:ry="3.5"
         sodipodi:rx="4.2972426"
         sodipodi:cy="18.5"
         sodipodi:cx="16.297243"
         id="path3238"
         style="opacity:1;fill:#2e3436;fill-opacity:1;fill-rule:evenodd;stroke:#1c2021;stroke-width:3.78964806;stroke-linecap:round;stroke-linejoin:round;stroke-miterlimit:4;stroke-dasharray:none;stroke-dashoffset:0;stroke-opacity:1"
         sodipodi:type="arc" />
      <path
         transform="matrix(0.8744763,0,0,0.9686065,13.949806,10.274114)"
         d="M 23.5 15.5 A 1.75 1.5 0 1 1  20,15.5 A 1.75 1.5 0 1 1  23.5 15.5 z"
         sodipodi:ry="1.5"
         sodipodi:rx="1.75"
         sodipodi:cy="15.5"
         sodipodi:cx="21.75"
         id="path3240"
         style="opacity:1;fill:url(#linearGradient3242);fill-opacity:1;fill-rule:evenodd;stroke:none;stroke-width:1;stroke-linecap:round;stroke-linejoin:round;stroke-miterlimit:4;stroke-dasharray:none;stroke-dashoffset:0;stroke-opacity:1"
         sodipodi:type="arc" />
    </g>
    <path
       style="fill:url(#radialGradient3292);fill-opacity:1.0;fill-rule:evenodd;stroke:none;stroke-width:1;stroke-linecap:round;stroke-linejoin:round;stroke-miterlimit:4;stroke-dashoffset:0;stroke-opacity:1"
       d="M 26,14 C 25.026895,13.865524 24.03194,13.840301 23,14 C 23,13.448 23.672,13 24.5,13 C 25.328,13 26,13.448 26,14 z "
       id="path3244"
       sodipodi:nodetypes="ccsc" />
    <path
       sodipodi:type="inkscape:offset"
       inkscape:radius="-0.99622977"
       inkscape:original="M 24.5 8.5 C 10.5 8.5 1.5 25.044193 1.5 36.5 C 1.5 42.925004 8 40 14 27.5 C 19.5 31.5 29.5 31.5 35 27.5 C 41 40 46.411611 43 46.5 36 C 46.5 25 38.5 8.5 24.5 8.5 z "
       xlink:href="#path2167"
       style="fill:none;fill-opacity:1;fill-rule:evenodd;stroke:url(#linearGradient3276);stroke-width:1;stroke-linecap:round;stroke-linejoin:round;stroke-miterlimit:4;stroke-dashoffset:0;stroke-opacity:1;opacity:0.27203065"
       id="path3268"
       inkscape:href="#path2167"
       d="M 24.53125,9.59375 C 17.921451,9.59375 12.441948,13.476748 8.5625,18.84375 C 4.6830518,24.210752 2.5,31.033891 2.5,36.5 C 2.5,37.938275 2.8707127,38.561798 3.125,38.71875 C 3.3792873,38.875702 3.9422418,38.894269 4.96875,38.25 C 7.0217664,36.961462 10.141363,33.213305 13.09375,27.0625 C 13.220855,26.790843 13.463572,26.590898 13.754539,26.518156 C 14.045506,26.445414 14.35376,26.507617 14.59375,26.6875 C 17.11148,28.518576 20.796394,29.5 24.5,29.5 C 28.203606,29.5 31.88852,28.518576 34.40625,26.6875 C 34.64624,26.507617 34.954494,26.445414 35.245461,26.518156 C 35.536428,26.590898 35.779145,26.790843 35.90625,27.0625 C 38.869142,33.235192 41.761057,37.046258 43.53125,38.25 C 43.973798,38.550936 44.32677,38.661771 44.53125,38.6875 C 44.73573,38.713229 44.773947,38.708642 44.875,38.625 C 45.077106,38.457716 45.479535,37.62077 45.5,36 C 45.5,30.740567 43.554243,24.011729 39.9375,18.71875 C 36.320757,13.425771 31.142097,9.5937501 24.53125,9.59375 z " />
    <g
       id="g3364">
      <path
         transform="matrix(0.9308295,0,0,1,-0.6699539,-0.5)"
         d="M 20.594486 18.5 A 4.2972426 3.5 0 1 1  12,18.5 A 4.2972426 3.5 0 1 1  20.594486 18.5 z"
         sodipodi:ry="3.5"
         sodipodi:rx="4.2972426"
         sodipodi:cy="18.5"
         sodipodi:cx="16.297243"
         id="path3142"
         style="opacity:1;fill:#484946;fill-opacity:1;fill-rule:evenodd;stroke:#1c2021;stroke-width:1.03648961;stroke-linecap:round;stroke-linejoin:round;stroke-miterlimit:4;stroke-dasharray:none;stroke-dashoffset:0;stroke-opacity:1"
         sodipodi:type="arc" />
      <path
         sodipodi:nodetypes="ccccc"
         id="path3146"
         d="M 16,19 C 15.873642,20.431388 12.890921,20.509144 12.963932,19 C 10.5,19 10.5,16 13,16 C 13,14.668929 16,14.624545 16,16 C 18.5,16 18.5,19 16,19 z "
         style="fill:url(#radialGradient3157);fill-opacity:1.0;fill-rule:evenodd;stroke:none;stroke-width:1.03648961;stroke-linecap:round;stroke-linejoin:round;stroke-miterlimit:4;stroke-dashoffset:0;stroke-opacity:1" />
    </g>
    <text
       xml:space="preserve"
       style="font-size:1.43631732px;font-style:normal;font-variant:normal;font-weight:bold;font-stretch:normal;text-align:start;line-height:125%;writing-mode:lr-tb;text-anchor:start;fill:#797979;fill-opacity:1;stroke:none;stroke-width:1px;stroke-linecap:butt;stroke-linejoin:miter;stroke-opacity:1;font-family:Bitstream Vera Sans"
       x="18.75979"
       y="13.318894"
       id="text3332"
       sodipodi:linespacing="125%"
       transform="scale(1.1116029,0.8996019)"><tspan
         sodipodi:role="line"
         id="tspan3334"
         x="18.75979"
         y="13.318894">Microbo</tspan></text>
    <g
       style="opacity:0.44827588;display:inline"
       transform="matrix(1.971468e-2,0,0,2.9253228e-2,-22.450344,37.421995)"
       id="g2612">
      <g
         transform="translate(0,-59.82244)"
         id="g2623">
        <g
           id="g3518"
           transform="matrix(1.043479,0,0,1,3126.228,-59.82246)">
          <rect
             style="opacity:0.40206185;color:#000000;fill:url(#linearGradient3523);fill-opacity:1;fill-rule:nonzero;stroke:none;stroke-width:1;stroke-linecap:round;stroke-linejoin:miter;marker:none;marker-start:none;marker-mid:none;marker-end:none;stroke-miterlimit:4;stroke-dasharray:none;stroke-dashoffset:0;stroke-opacity:1;visibility:visible;display:inline;overflow:visible"
             id="rect6709"
             width="1826.0504"
             height="478.35718"
             x="-1651.0347"
             y="-133.84804" />
          <path
             style="opacity:0.40206185;color:#000000;fill:url(#radialGradient3525);fill-opacity:1;fill-rule:nonzero;stroke:none;stroke-width:1;stroke-linecap:round;stroke-linejoin:miter;marker:none;marker-start:none;marker-mid:none;marker-end:none;stroke-miterlimit:4;stroke-dasharray:none;stroke-dashoffset:0;stroke-opacity:1;visibility:visible;display:inline;overflow:visible"
             d="M 175.01578,-134.07052 C 175.01578,-134.07052 175.01578,344.26027 175.01578,344.26027 C 279.92447,345.16072 428.63395,237.09061 428.63389,105.06409 C 428.63389,-26.962449 311.56369,-134.0705 175.01578,-134.07052 z "
             id="path6711"
             sodipodi:nodetypes="cccc" />
          <path
             sodipodi:nodetypes="cccc"
             id="path6713"
             d="M -1651.0346,-133.82723 C -1651.0346,-133.82723 -1651.0346,344.50356 -1651.0346,344.50356 C -1755.9433,345.40401 -1904.6528,237.3339 -1904.6528,105.30739 C -1904.6528,-26.719152 -1787.5825,-133.82721 -1651.0346,-133.82723 z "
             style="opacity:0.40206185;color:#000000;fill:url(#radialGradient3527);fill-opacity:1;fill-rule:nonzero;stroke:none;stroke-width:1;stroke-linecap:round;stroke-linejoin:miter;marker:none;marker-start:none;marker-mid:none;marker-end:none;stroke-miterlimit:4;stroke-dasharray:none;stroke-dashoffset:0;stroke-opacity:1;visibility:visible;display:inline;overflow:visible" />
        </g>
      </g>
    </g>
    <path
       style="opacity:0.25862069;color:#000000;fill:url(#radialGradient5205);fill-opacity:1;fill-rule:nonzero;stroke:none;stroke-width:1;stroke-linecap:round;stroke-linejoin:round;marker:none;marker-start:none;marker-mid:none;marker-end:none;stroke-miterlimit:4;stroke-dasharray:none;stroke-dashoffset:0;stroke-opacity:1;visibility:visible;display:inline;overflow:visible;enable-background:accumulate"
       d="M 10.076272,23.781593 L 13.435029,25.726136 C 13.435029,25.726136 7.6013979,36.863068 4.2426407,38.454058 C 0.88388348,40.045049 10.076272,24.135146 10.076272,23.781593 z"
       id="path4620" />
    <path
       id="path5207"
       d="M 38.674331,23.747056 L 35.272332,25.614915 C 35.272332,25.614915 40.851855,36.8813 44.173661,38.548064 C 47.495467,40.214829 38.666312,24.100518 38.674331,23.747056 z"
       style="opacity:0.14942529;color:#000000;fill:url(#radialGradient5209);fill-opacity:1;fill-rule:nonzero;stroke:none;stroke-width:1;stroke-linecap:round;stroke-linejoin:round;marker:none;marker-start:none;marker-mid:none;marker-end:none;stroke-miterlimit:4;stroke-dasharray:none;stroke-dashoffset:0;stroke-opacity:1;visibility:visible;display:inline;overflow:visible;enable-background:accumulate" />
  </g>
</svg>
