<?xml version="1.0" encoding="UTF-8" standalone="no"?>
<!-- Created with Inkscape (http://www.inkscape.org/) -->
<svg
   xmlns:dc="http://purl.org/dc/elements/1.1/"
   xmlns:cc="http://web.resource.org/cc/"
   xmlns:rdf="http://www.w3.org/1999/02/22-rdf-syntax-ns#"
   xmlns:svg="http://www.w3.org/2000/svg"
   xmlns="http://www.w3.org/2000/svg"
   xmlns:xlink="http://www.w3.org/1999/xlink"
   xmlns:sodipodi="http://sodipodi.sourceforge.net/DTD/sodipodi-0.dtd"
   xmlns:inkscape="http://www.inkscape.org/namespaces/inkscape"
   width="48"
   height="48"
   id="svg2"
   sodipodi:version="0.32"
   inkscape:version="0.45"
   version="1.0"
   sodipodi:docbase="/home/ulisse/Desktop/sixaxis/scalable"
   sodipodi:docname="input-gaming-sony-sixaxis.svg"
   inkscape:output_extension="org.inkscape.output.svg.inkscape"
   sodipodi:modified="true">
  <defs
     id="defs4">
    <linearGradient
       id="linearGradient3346">
      <stop
         style="stop-color:#6b6f70;stop-opacity:1"
         offset="0"
         id="stop3348" />
      <stop
         id="stop3350"
         offset="1"
         style="stop-color:#1e2223;stop-opacity:1" />
    </linearGradient>
    <linearGradient
       id="linearGradient3315">
      <stop
         style="stop-color:#7a7f80;stop-opacity:1;"
         offset="0"
         id="stop3317" />
      <stop
         id="stop3319"
         offset="1"
         style="stop-color:#7a7f80;stop-opacity:0" />
    </linearGradient>
    <linearGradient
       id="linearGradient3309"
       inkscape:collect="always">
      <stop
         id="stop3311"
         offset="0"
         style="stop-color:#2e3436;stop-opacity:1;" />
      <stop
         id="stop3313"
         offset="1"
         style="stop-color:#131617;stop-opacity:1" />
    </linearGradient>
    <linearGradient
       inkscape:collect="always"
       id="linearGradient3244">
      <stop
         style="stop-color:#2e3436;stop-opacity:1;"
         offset="0"
         id="stop3246" />
      <stop
         style="stop-color:#23282a;stop-opacity:1"
         offset="1"
         id="stop3248" />
    </linearGradient>
    <radialGradient
       inkscape:collect="always"
       xlink:href="#linearGradient5060"
       id="radialGradient3527"
       gradientUnits="userSpaceOnUse"
       gradientTransform="matrix(-2.03716,0,0,2.018058,-423.3185,-879.5624)"
       cx="605.71429"
       cy="486.64789"
       fx="605.71429"
       fy="486.64789"
       r="117.14286" />
    <linearGradient
       inkscape:collect="always"
       id="linearGradient5060">
      <stop
         style="stop-color:black;stop-opacity:1;"
         offset="0"
         id="stop5062" />
      <stop
         style="stop-color:black;stop-opacity:0;"
         offset="1"
         id="stop5064" />
    </linearGradient>
    <radialGradient
       inkscape:collect="always"
       xlink:href="#linearGradient5060"
       id="radialGradient3525"
       gradientUnits="userSpaceOnUse"
       gradientTransform="matrix(2.03716,0,0,1.969706,-1052.701,-856.2756)"
       cx="605.71429"
       cy="486.64789"
       fx="605.71429"
       fy="486.64789"
       r="117.14286" />
    <linearGradient
       id="linearGradient5048">
      <stop
         style="stop-color:black;stop-opacity:0;"
         offset="0"
         id="stop5050" />
      <stop
         id="stop5056"
         offset="0.5"
         style="stop-color:black;stop-opacity:1;" />
      <stop
         style="stop-color:black;stop-opacity:0;"
         offset="1"
         id="stop5052" />
    </linearGradient>
    <linearGradient
       inkscape:collect="always"
       xlink:href="#linearGradient5048"
       id="linearGradient3523"
       gradientUnits="userSpaceOnUse"
       gradientTransform="matrix(3.781761,0,0,1.969706,-2104.846,-856.0366)"
       x1="302.85715"
       y1="366.64789"
       x2="302.85715"
       y2="609.50507" />
    <linearGradient
       inkscape:collect="always"
       id="linearGradient3454">
      <stop
         style="stop-color:#191d1e;stop-opacity:1;"
         offset="0"
         id="stop3456" />
      <stop
         style="stop-color:#282e31;stop-opacity:1"
         offset="1"
         id="stop3458" />
    </linearGradient>
    <linearGradient
       id="linearGradient3448"
       inkscape:collect="always">
      <stop
         id="stop3450"
         offset="0"
         style="stop-color:#383f42;stop-opacity:1" />
      <stop
         id="stop3452"
         offset="1"
         style="stop-color:#202425;stop-opacity:1" />
    </linearGradient>
    <linearGradient
       inkscape:collect="always"
       id="linearGradient3384">
      <stop
         style="stop-color:#2e3436;stop-opacity:1;"
         offset="0"
         id="stop3386" />
      <stop
         style="stop-color:#202425;stop-opacity:1"
         offset="1"
         id="stop3388" />
    </linearGradient>
    <linearGradient
       inkscape:collect="always"
       id="linearGradient3209">
      <stop
         style="stop-color:#ffffff;stop-opacity:1;"
         offset="0"
         id="stop3211" />
      <stop
         style="stop-color:#ffffff;stop-opacity:0.12547529"
         offset="1"
         id="stop3213" />
    </linearGradient>
    <linearGradient
       id="linearGradient3160">
      <stop
         id="stop3168"
         offset="0"
         style="stop-color:#7a7f80;stop-opacity:1;" />
      <stop
         style="stop-color:#2e3436;stop-opacity:1"
         offset="1"
         id="stop3164" />
    </linearGradient>
    <radialGradient
       inkscape:collect="always"
       xlink:href="#linearGradient3315"
       id="radialGradient3203"
       gradientUnits="userSpaceOnUse"
       gradientTransform="matrix(-0.34088,-0.1389187,-0.2575704,0.6499837,28.683838,17.64284)"
       cx="38.544273"
       cy="28.659401"
       fx="38.544273"
       fy="28.659401"
       r="8.0226622" />
    <linearGradient
       inkscape:collect="always"
       xlink:href="#linearGradient3209"
       id="linearGradient3215"
       x1="15.289386"
       y1="7.8749847"
       x2="29.585613"
       y2="39.687485"
       gradientUnits="userSpaceOnUse" />
    <linearGradient
       inkscape:collect="always"
       xlink:href="#linearGradient3160"
       id="linearGradient3223"
       x1="24.9375"
       y1="16.75"
       x2="36.5"
       y2="25.75"
       gradientUnits="userSpaceOnUse" />
    <linearGradient
       inkscape:collect="always"
       xlink:href="#linearGradient3160"
       id="linearGradient3227"
       gradientUnits="userSpaceOnUse"
       x1="24.25"
       y1="17.5625"
       x2="40"
       y2="24.5625"
       gradientTransform="matrix(-1,0,0,1,48,0)" />
    <linearGradient
       inkscape:collect="always"
       xlink:href="#linearGradient3160"
       id="linearGradient3290"
       x1="11.961326"
       y1="14.56564"
       x2="11.8125"
       y2="23.309135"
       gradientUnits="userSpaceOnUse" />
    <linearGradient
       inkscape:collect="always"
       xlink:href="#linearGradient3160"
       id="linearGradient3294"
       gradientUnits="userSpaceOnUse"
       x1="9.09375"
       y1="14.875"
       x2="10.8125"
       y2="23.375"
       gradientTransform="translate(27,0)" />
    <linearGradient
       inkscape:collect="always"
       xlink:href="#linearGradient3209"
       id="linearGradient3300"
       gradientUnits="userSpaceOnUse"
       x1="24.84"
       y1="26.208334"
       x2="22.791668"
       y2="22" />
    <linearGradient
       inkscape:collect="always"
       xlink:href="#linearGradient3209"
       id="linearGradient3324"
       gradientUnits="userSpaceOnUse"
       x1="24.84"
       y1="26.208334"
       x2="22.791668"
       y2="22" />
    <linearGradient
       inkscape:collect="always"
       xlink:href="#linearGradient3209"
       id="linearGradient3330"
       gradientUnits="userSpaceOnUse"
       x1="24.84"
       y1="26.208334"
       x2="22.791668"
       y2="22" />
    <linearGradient
       inkscape:collect="always"
       xlink:href="#linearGradient3209"
       id="linearGradient3336"
       gradientUnits="userSpaceOnUse"
       x1="24.84"
       y1="26.208334"
       x2="22.791668"
       y2="22" />
    <linearGradient
       inkscape:collect="always"
       xlink:href="#linearGradient3384"
       id="linearGradient3390"
       x1="8.25"
       y1="18.96875"
       x2="8.53125"
       y2="20.34375"
       gradientUnits="userSpaceOnUse" />
    <linearGradient
       inkscape:collect="always"
       xlink:href="#linearGradient3384"
       id="linearGradient3398"
       x1="10.1875"
       y1="16.78125"
       x2="10.84375"
       y2="19.0625"
       gradientUnits="userSpaceOnUse" />
    <linearGradient
       inkscape:collect="always"
       xlink:href="#linearGradient3384"
       id="linearGradient3406"
       x1="10.5"
       y1="21.25"
       x2="11.3125"
       y2="23.15625"
       gradientUnits="userSpaceOnUse" />
    <linearGradient
       inkscape:collect="always"
       xlink:href="#linearGradient3384"
       id="linearGradient3414"
       x1="12.75"
       y1="18.8125"
       x2="14"
       y2="20.59375"
       gradientUnits="userSpaceOnUse" />
    <linearGradient
       inkscape:collect="always"
       xlink:href="#linearGradient3209"
       id="linearGradient3424"
       gradientUnits="userSpaceOnUse"
       x1="24.661428"
       y1="27.908335"
       x2="23.202383"
       y2="20.575001" />
    <radialGradient
       inkscape:collect="always"
       xlink:href="#linearGradient3448"
       id="radialGradient3440"
       cx="16.098215"
       cy="25.071428"
       fx="16.098215"
       fy="25.071428"
       r="3.4285715"
       gradientUnits="userSpaceOnUse" />
    <linearGradient
       inkscape:collect="always"
       xlink:href="#linearGradient3454"
       id="linearGradient3460"
       x1="16.3125"
       y1="28.625"
       x2="15.59375"
       y2="22.9375"
       gradientUnits="userSpaceOnUse" />
    <radialGradient
       inkscape:collect="always"
       xlink:href="#linearGradient3448"
       id="radialGradient3464"
       gradientUnits="userSpaceOnUse"
       cx="16.098215"
       cy="25.071428"
       fx="16.098215"
       fy="25.071428"
       r="3.4285715" />
    <linearGradient
       inkscape:collect="always"
       xlink:href="#linearGradient3454"
       id="linearGradient3466"
       gradientUnits="userSpaceOnUse"
       x1="16.3125"
       y1="28.625"
       x2="15.59375"
       y2="22.9375" />
    <radialGradient
       inkscape:collect="always"
       xlink:href="#linearGradient3315"
       id="radialGradient2252"
       gradientUnits="userSpaceOnUse"
       gradientTransform="matrix(0.3360293,-0.1217721,0.3293516,0.9486798,16.908572,7.5095151)"
       cx="39.304653"
       cy="28.786531"
       fx="39.304657"
       fy="28.786528"
       r="8.0226626" />
    <radialGradient
       inkscape:collect="always"
       xlink:href="#linearGradient3244"
       id="radialGradient3250"
       cx="23.90407"
       cy="23.829546"
       fx="23.90407"
       fy="23.829546"
       r="2"
       gradientUnits="userSpaceOnUse"
       gradientTransform="translate(9.594037e-2,0.1704381)" />
    <radialGradient
       inkscape:collect="always"
       xlink:href="#linearGradient3244"
       id="radialGradient3258"
       cx="24"
       cy="24"
       fx="24"
       fy="24"
       r="2"
       gradientUnits="userSpaceOnUse" />
    <radialGradient
       inkscape:collect="always"
       xlink:href="#linearGradient3244"
       id="radialGradient3266"
       cx="24"
       cy="24"
       fx="24"
       fy="24"
       r="2"
       gradientUnits="userSpaceOnUse" />
    <radialGradient
       inkscape:collect="always"
       xlink:href="#linearGradient3244"
       id="radialGradient3274"
       cx="24"
       cy="24"
       fx="24"
       fy="24"
       r="2"
       gradientUnits="userSpaceOnUse" />
    <radialGradient
       inkscape:collect="always"
       xlink:href="#linearGradient3309"
       id="radialGradient3307"
       cx="24"
       cy="24"
       fx="24"
       fy="24"
       r="2"
       gradientUnits="userSpaceOnUse" />
    <radialGradient
       inkscape:collect="always"
       xlink:href="#linearGradient3346"
       id="radialGradient3242"
       cx="23.975582"
       cy="11.244078"
       fx="23.975582"
       fy="11.244078"
       r="22.091249"
       gradientTransform="matrix(1.1680444,-1.2003171e-2,7.7874434e-3,0.7578064,-4.1271837,7.3102675)"
       gradientUnits="userSpaceOnUse" />
  </defs>
  <sodipodi:namedview
     id="base"
     pagecolor="#ffffff"
     bordercolor="#f6aaaa"
     borderopacity="1"
     inkscape:pageopacity="0.0"
     inkscape:pageshadow="2"
     inkscape:zoom="7.9999996"
     inkscape:cx="47.895549"
     inkscape:cy="22.901157"
     inkscape:document-units="px"
     inkscape:current-layer="layer1"
     width="48px"
     height="48px"
     inkscape:showpageshadow="false"
     showgrid="false"
     gridspacingx="0.5px"
     gridspacingy="0.5px"
     gridempspacing="2"
     inkscape:grid-points="true"
     inkscape:window-width="1044"
     inkscape:window-height="853"
     inkscape:window-x="191"
     inkscape:window-y="44" />
  <metadata
     id="metadata7">
    <rdf:RDF>
      <cc:Work
         rdf:about="">
        <dc:format>image/svg+xml</dc:format>
        <dc:type
           rdf:resource="http://purl.org/dc/dcmitype/StillImage" />
        <dc:creator>
          <cc:Agent>
            <dc:title>Ulisse Perusin</dc:title>
          </cc:Agent>
        </dc:creator>
        <cc:license
           rdf:resource="http://creativecommons.org/licenses/GPL/2.0/" />
        <dc:title>input-gaming-sony-sixaxis</dc:title>
        <dc:subject>
          <rdf:Bag>
            <rdf:li>input gaming sony sixaxis</rdf:li>
          </rdf:Bag>
        </dc:subject>
        <dc:source>uli.peru@gmail.com</dc:source>
      </cc:Work>
      <cc:License
         rdf:about="http://creativecommons.org/licenses/GPL/2.0/">
        <cc:permits
           rdf:resource="http://web.resource.org/cc/Reproduction" />
        <cc:permits
           rdf:resource="http://web.resource.org/cc/Distribution" />
        <cc:requires
           rdf:resource="http://web.resource.org/cc/Notice" />
        <cc:permits
           rdf:resource="http://web.resource.org/cc/DerivativeWorks" />
        <cc:requires
           rdf:resource="http://web.resource.org/cc/ShareAlike" />
        <cc:requires
           rdf:resource="http://web.resource.org/cc/SourceCode" />
      </cc:License>
    </rdf:RDF>
  </metadata>
  <g
     inkscape:label="Livello 1"
     inkscape:groupmode="layer"
     id="layer1"
     style="display:inline">
    <path
       style="opacity:1;fill:url(#radialGradient3242);fill-opacity:1.0;stroke:none;stroke-width:1;stroke-miterlimit:4;display:inline"
       d="M 10.6875 9.5 C 9.6959937 9.4659938 8.6412912 9.6795009 7.5 10.25 L 6.5 13.28125 L 6.5 14.03125 C 5.0415477 14.986283 4.0854457 16.602155 3.8125 18.875 C 3.3417479 22.795 2.408252 28.673751 1.9375 32.59375 C 1.4667479 35.533749 3.848804 37.499999 6.1875 37.5 C 9.0120121 37.5 10.402246 35.543749 11.34375 33.09375 L 13.09375 29.28125 C 15.274976 31.49281 20.594925 31.152724 21.5 27.5 L 26.5 27.5 C 27.392796 31.103169 32.721271 31.487955 34.875 29.375 L 36.59375 33.09375 C 37.535256 35.543749 38.925488 37.5 41.75 37.5 C 44.088695 37.499999 46.470752 35.533749 46 32.59375 C 45.529248 28.673751 44.595752 22.795 44.125 18.875 C 43.85658 16.639847 42.917604 15.054437 41.5 14.09375 L 41.5 13.28125 L 40.5 10.25 C 38.632965 9.6469183 36.697597 9.3522349 34.5 10.25 L 33.5625 13.28125 L 14.4375 13.28125 L 13.5 10.25 C 12.607723 9.8155255 11.679006 9.5340062 10.6875 9.5 z "
       id="path3321" />
    <g
       style="opacity:0.44827588;display:inline"
       transform="matrix(1.971468e-2,0,0,2.9253228e-2,-22.450344,37.421995)"
       id="g2612">
      <g
         transform="translate(0,-59.82244)"
         id="g2623">
        <g
           id="g3518"
           transform="matrix(1.043479,0,0,1,3126.228,-59.82246)">
          <rect
             style="opacity:0.40206185;color:#000000;fill:url(#linearGradient3523);fill-opacity:1;fill-rule:nonzero;stroke:none;stroke-width:1;stroke-linecap:round;stroke-linejoin:miter;marker:none;marker-start:none;marker-mid:none;marker-end:none;stroke-miterlimit:4;stroke-dasharray:none;stroke-dashoffset:0;stroke-opacity:1;visibility:visible;display:inline;overflow:visible"
             id="rect6709"
             width="1826.0504"
             height="478.35718"
             x="-1651.0347"
             y="-133.84804" />
          <path
             style="opacity:0.40206185;color:#000000;fill:url(#radialGradient3525);fill-opacity:1;fill-rule:nonzero;stroke:none;stroke-width:1;stroke-linecap:round;stroke-linejoin:miter;marker:none;marker-start:none;marker-mid:none;marker-end:none;stroke-miterlimit:4;stroke-dasharray:none;stroke-dashoffset:0;stroke-opacity:1;visibility:visible;display:inline;overflow:visible"
             d="M 175.01578,-134.07052 C 175.01578,-134.07052 175.01578,344.26027 175.01578,344.26027 C 279.92447,345.16072 428.63395,237.09061 428.63389,105.06409 C 428.63389,-26.962449 311.56369,-134.0705 175.01578,-134.07052 z "
             id="path6711"
             sodipodi:nodetypes="cccc" />
          <path
             sodipodi:nodetypes="cccc"
             id="path6713"
             d="M -1651.0346,-133.82723 C -1651.0346,-133.82723 -1651.0346,344.50356 -1651.0346,344.50356 C -1755.9433,345.40401 -1904.6528,237.3339 -1904.6528,105.30739 C -1904.6528,-26.719152 -1787.5825,-133.82721 -1651.0346,-133.82723 z "
             style="opacity:0.40206185;color:#000000;fill:url(#radialGradient3527);fill-opacity:1;fill-rule:nonzero;stroke:none;stroke-width:1;stroke-linecap:round;stroke-linejoin:miter;marker:none;marker-start:none;marker-mid:none;marker-end:none;stroke-miterlimit:4;stroke-dasharray:none;stroke-dashoffset:0;stroke-opacity:1;visibility:visible;display:inline;overflow:visible" />
        </g>
      </g>
    </g>
    <path
       style="opacity:1;fill:url(#radialGradient2252);fill-opacity:1;stroke:none;stroke-width:1;stroke-miterlimit:4;stroke-dasharray:none;display:inline"
       d="M 31.406686,21.82 L 36.584959,33.089999 C 37.526463,35.539999 38.93872,37.499999 41.763232,37.499999 C 44.101928,37.499999 46.470752,35.539999 46,32.6 C 45.529248,28.679999 44.587744,22.8 44.116992,18.88 C 43.64624,14.960001 41.164436,13 37.526463,13 C 33.888491,13 29.523678,16.43 31.406686,21.82 z "
       id="path2250"
       sodipodi:nodetypes="ccscccc" />
    <path
       style="opacity:1;fill:url(#radialGradient3203);fill-opacity:1.0;stroke:none;stroke-width:1;stroke-miterlimit:4;stroke-dasharray:none;display:inline"
       d="M 16.530116,21.82 L 11.351843,33.089999 C 10.410339,35.539999 8.9980824,37.499999 6.1735703,37.499999 C 3.8348742,37.499999 1.4660499,35.539999 1.936802,32.6 C 2.407554,28.679999 3.349058,22.8 3.8198101,18.88 C 4.2905622,14.960001 6.7723668,13 10.410339,13 C 14.048311,13 18.413124,16.43 16.530116,21.82 z "
       id="path3172"
       sodipodi:nodetypes="ccscccc" />
    <path
       sodipodi:type="inkscape:offset"
       inkscape:radius="-0.96493876"
       inkscape:original="M 10.4375 9.5 C 9.1874924 9.4999696 7.9583182 9.8332725 7.5 10.5 L 6.5 13.5 C 4.9082482 14.476788 3.7945728 16.122314 3.5 18.5 C 3.0000338 22.535549 2.0624662 28.433201 1.5625 32.46875 C 1.0625338 35.49541 3.5786683 37.5 6.0625 37.5 C 9.062297 37.5 10.562567 35.490968 11.5625 32.96875 L 12.9375 29.0625 C 15.02335 31.274087 20 31 21.5 27.5 L 26.5 27.5 C 28 31 33.104793 31.251597 35.0625 29.09375 L 36.4375 32.96875 C 37.437432 35.490969 38.937703 37.5 41.9375 37.5 C 44.421333 37.5 46.937466 35.495411 46.4375 32.46875 C 45.937536 28.4332 44.999966 22.535549 44.5 18.5 C 44.205428 16.122314 43.091752 14.476788 41.5 13.5 L 40.5 10.5 C 39.617893 9.1856179 35.631943 9.1481532 34.5 10.5 L 33.5 13.5 L 14.5 13.5 L 13.5 10.5 C 12.958348 9.8333942 11.687508 9.5000304 10.4375 9.5 z "
       xlink:href="#path3194"
       style="opacity:0.50957851;fill:none;fill-opacity:1;stroke:url(#linearGradient3215);stroke-width:1;stroke-linejoin:miter;stroke-miterlimit:4;stroke-opacity:1;display:inline"
       id="path3207"
       inkscape:href="#path3194"
       d="M 10.4375,10.46875 C 9.8982679,10.468737 9.366856,10.528859 8.96875,10.65625 C 8.6061439,10.772281 8.4134461,10.923547 8.34375,11 L 7.40625,13.8125 C 7.332105,14.020781 7.1886926,14.197289 7,14.3125 C 5.6489946,15.141553 4.7335157,16.487906 4.46875,18.625 C 3.96479,22.692786 3.0272224,28.590438 2.53125,32.59375 C 2.5210732,32.604404 2.5106538,32.614823 2.5,32.625 C 2.2980215,33.847723 2.6922724,34.752855 3.375,35.4375 C 4.0577276,36.122145 5.0801705,36.53125 6.0625,36.53125 C 7.3469847,36.53125 8.1886339,36.139211 8.90625,35.46875 C 9.6238661,34.798289 10.184868,33.814008 10.65625,32.625 L 12.03125,28.75 C 12.145335,28.439673 12.41035,28.209354 12.733551,28.139644 C 13.056751,28.069934 13.393142,28.170538 13.625,28.40625 C 14.391451,29.218904 15.887836,29.662006 17.3125,29.46875 C 18.737164,29.275494 20.02361,28.528242 20.625,27.125 C 20.772628,26.77068 21.116206,26.537537 21.5,26.53125 L 26.5,26.53125 C 26.883794,26.537537 27.227372,26.77068 27.375,27.125 C 27.972176,28.51841 29.303603,29.273459 30.75,29.46875 C 32.196397,29.664041 33.657881,29.193487 34.34375,28.4375 C 34.574438,28.186308 34.920582,28.075532 35.254247,28.146115 C 35.587913,28.216698 35.859545,28.458157 35.96875,28.78125 L 37.34375,32.65625 C 37.815131,33.845258 38.376134,34.798289 39.09375,35.46875 C 39.811366,36.139211 40.653015,36.53125 41.9375,36.53125 C 42.91983,36.53125 43.942273,36.122145 44.625,35.4375 C 45.307727,34.752855 45.701979,33.847724 45.5,32.625 C 45.489346,32.614823 45.478927,32.604404 45.46875,32.59375 C 44.97278,28.590438 44.03521,22.692786 43.53125,18.625 C 43.266485,16.487907 42.351006,15.141553 41,14.3125 C 40.811307,14.197289 40.667895,14.020781 40.59375,13.8125 L 39.6875,11.03125 C 39.686182,11.029286 39.658114,11.0336 39.65625,11.03125 C 39.609547,10.972386 39.440072,10.810002 39.0625,10.6875 C 38.669855,10.560108 38.131965,10.470769 37.59375,10.46875 C 36.547665,10.464825 35.558598,10.846781 35.3125,11.09375 L 34.40625,13.8125 C 34.274747,14.201923 33.911013,14.465316 33.5,14.46875 L 14.5,14.46875 C 14.088987,14.465316 13.725253,14.201923 13.59375,13.8125 L 12.6875,11.0625 C 12.468924,10.841854 11.48513,10.468775 10.4375,10.46875 z " />
    <path
       style="opacity:1;fill:none;fill-opacity:1;stroke:#262b2d;stroke-width:1;stroke-miterlimit:4;stroke-opacity:1;display:inline"
       d="M 7.5,10.5 L 6.5,13.5 C 4.9082482,14.476788 3.7945728,16.122314 3.5,18.5 C 3.0000338,22.535549 2.0639855,28.420016 1.5640193,32.455565 C 1.0640531,35.482226 3.5798829,37.5 6.0637146,37.5 C 9.0635115,37.5 10.56341,35.482226 11.563343,32.960008 L 12.93825,29.059458 C 15.0241,31.271045 20,31 21.5,27.5 L 26.5,27.5 C 28,31 33.104045,31.248833 35.061752,29.090986 L 36.436659,32.960008 C 37.436593,35.482226 38.936489,37.5 41.936286,37.5 C 44.42012,37.5 46.935948,35.482226 46.435982,32.455565 C 45.936018,28.420016 44.999966,22.535549 44.5,18.5 C 44.205428,16.122314 43.091752,14.476788 41.5,13.5 L 40.5,10.5 C 39.617893,9.1856179 35.631943,9.1481532 34.5,10.5 L 33.5,13.5 L 14.5,13.5 L 13.5,10.5 C 12.416697,9.1667883 8.4166363,9.166545 7.5,10.5 z "
       id="path3194"
       sodipodi:nodetypes="ccscsccccccscsccccccc" />
    <path
       style="opacity:1;fill:url(#linearGradient3223);fill-opacity:1.0;stroke:none;stroke-width:1;stroke-miterlimit:4;stroke-dasharray:none"
       d="M 37.388889,13 C 33.739556,13 30.777778,15.961778 30.777778,19.611111 C 30.777778,20.273404 30.861898,20.926106 31.043402,21.529514 C 28.795743,21.640078 27,23.47507 27,25.75 C 27,28.095999 28.904001,30 31.249999,30 C 33.52493,30 35.359922,28.204257 35.470485,25.956597 C 36.073896,26.138102 36.726597,26.222222 37.388889,26.222222 C 41.038223,26.222222 44,23.260443 44,19.611111 C 44,15.961778 41.038223,13 37.388889,13 z "
       id="path3139" />
    <path
       style="opacity:1;fill:url(#linearGradient3227);fill-opacity:1;stroke:none;stroke-width:1;stroke-miterlimit:4;stroke-dasharray:none;display:inline"
       d="M 10.611111,13 C 14.260444,13 17.222222,15.961778 17.222222,19.611111 C 17.222222,20.273404 17.138102,20.926106 16.956598,21.529514 C 19.204257,21.640078 21,23.47507 21,25.75 C 21,28.095999 19.095999,30 16.750001,30 C 14.47507,30 12.640078,28.204257 12.529515,25.956597 C 11.926104,26.138102 11.273403,26.222222 10.611111,26.222222 C 6.961777,26.222222 4,23.260443 4,19.611111 C 4,15.961778 6.961777,13 10.611111,13 z "
       id="path3225" />
    <rect
       style="opacity:1;fill:#555555;fill-opacity:1;stroke:#252a2c;stroke-width:1;stroke-linejoin:round;stroke-miterlimit:4;stroke-dasharray:none;stroke-opacity:1"
       id="rect3252"
       width="3"
       height="2"
       x="18.5"
       y="17.5" />
    <path
       style="fill:#555555;fill-opacity:1;stroke:#252a2c;stroke-width:1;stroke-linejoin:round;stroke-miterlimit:4;stroke-opacity:1;display:inline"
       d="M 26.5,17.5 C 28,17.5 29,18 29.5,18.5 L 29.5,18.5 C 29,19 28,19.5 26.5,19.5 L 26.5,17.5 z "
       id="rect3258"
       sodipodi:nodetypes="ccccc" />
    <g
       id="g3420"
       transform="translate(0,-2)">
      <path
         d="M 26 24 A 2 2 0 1 1  22,24 A 2 2 0 1 1  26 24 z"
         sodipodi:ry="2"
         sodipodi:rx="2"
         sodipodi:cy="24"
         sodipodi:cx="24"
         id="path3418"
         style="opacity:1;fill:url(#radialGradient3307);fill-opacity:1;stroke:none;stroke-width:2;stroke-linejoin:round;stroke-miterlimit:4;stroke-dasharray:none;stroke-opacity:1;display:inline"
         sodipodi:type="arc"
         transform="translate(0,1)" />
      <path
         transform="matrix(0.5,0,0,0.5,11.5,12)"
         d="M 26 24 A 2 2 0 1 1  22,24 A 2 2 0 1 1  26 24 z"
         sodipodi:ry="2"
         sodipodi:rx="2"
         sodipodi:cy="24"
         sodipodi:cx="24"
         id="path3267"
         style="opacity:0.31800764;fill:url(#linearGradient3424);fill-opacity:1;stroke:none;stroke-width:1;stroke-linejoin:round;stroke-miterlimit:4;stroke-dasharray:none;stroke-opacity:1;display:inline"
         sodipodi:type="arc" />
    </g>
    <path
       style="opacity:1;fill:url(#linearGradient3290);fill-opacity:1.0;stroke:none;stroke-width:1;stroke-linejoin:round;stroke-miterlimit:4;stroke-dasharray:none;stroke-opacity:1"
       d="M 8 14 L 8 17 L 5 17 L 5 22 L 8 22 L 8 25 L 13 25 L 13 22 L 16 22 L 16 17 L 13 17 L 13 14 L 8 14 z "
       id="rect3277" />
    <path
       style="opacity:1;fill:url(#linearGradient3294);fill-opacity:1;stroke:none;stroke-width:1;stroke-linejoin:round;stroke-miterlimit:4;stroke-dasharray:none;stroke-opacity:1;display:inline"
       d="M 35,14 L 35,17 L 32,17 L 32,22 L 35,22 L 35,25 L 40,25 L 40,22 L 43,22 L 43,17 L 40,17 L 40,14 L 35,14 z "
       id="path3292" />
    <g
       id="g3468">
      <path
         transform="matrix(0.875,0,0,0.875,16.5,-4.5)"
         d="M 26 24 A 2 2 0 1 1  22,24 A 2 2 0 1 1  26 24 z"
         sodipodi:ry="2"
         sodipodi:rx="2"
         sodipodi:cy="24"
         sodipodi:cx="24"
         id="path3296"
         style="opacity:1;fill:url(#radialGradient3266);fill-opacity:1;stroke:none;stroke-width:2;stroke-linejoin:round;stroke-miterlimit:4;stroke-dasharray:none;stroke-opacity:1;display:inline"
         sodipodi:type="arc" />
      <path
         sodipodi:nodetypes="cccc"
         id="rect3338"
         d="M 37.552488,16.026941 L 38.06757,16.984716 L 37.021054,16.984716 L 37.552488,16.026941 z "
         style="fill:none;fill-opacity:1;stroke:#73d216;stroke-width:0.20000003;stroke-linejoin:round;stroke-miterlimit:4;stroke-dasharray:none;stroke-opacity:1" />
      <path
         transform="matrix(0.625,0,0,0.625,21.765625,0.75)"
         d="M 26 24 A 2 2 0 1 1  22,24 A 2 2 0 1 1  26 24 z"
         sodipodi:ry="2"
         sodipodi:rx="2"
         sodipodi:cy="24"
         sodipodi:cx="24"
         id="path3298"
         style="opacity:0.20689655;fill:url(#linearGradient3300);fill-opacity:1;stroke:none;stroke-width:1;stroke-linejoin:round;stroke-miterlimit:4;stroke-dasharray:none;stroke-opacity:1;display:inline"
         sodipodi:type="arc" />
    </g>
    <g
       id="g3473">
      <path
         transform="matrix(0.875,0,0,0.875,13.5,-1.5)"
         d="M 26 24 A 2 2 0 1 1  22,24 A 2 2 0 1 1  26 24 z"
         sodipodi:ry="2"
         sodipodi:rx="2"
         sodipodi:cy="24"
         sodipodi:cx="24"
         id="path3320"
         style="opacity:1;fill:url(#radialGradient3258);fill-opacity:1;stroke:none;stroke-width:2;stroke-linejoin:round;stroke-miterlimit:4;stroke-dasharray:none;stroke-opacity:1;display:inline"
         sodipodi:type="arc" />
      <rect
         y="19.1"
         x="34.100002"
         height="0.79999995"
         width="0.80000007"
         id="rect3343"
         style="opacity:1;fill:none;fill-opacity:1;stroke:#ad7fa8;stroke-width:0.20000005;stroke-linejoin:miter;stroke-miterlimit:4;stroke-dasharray:none;stroke-opacity:1" />
      <path
         transform="matrix(0.625,0,0,0.625,18.75,3.75)"
         d="M 26 24 A 2 2 0 1 1  22,24 A 2 2 0 1 1  26 24 z"
         sodipodi:ry="2"
         sodipodi:rx="2"
         sodipodi:cy="24"
         sodipodi:cx="24"
         id="path3322"
         style="opacity:0.20689655;fill:url(#linearGradient3324);fill-opacity:1;stroke:none;stroke-width:1;stroke-linejoin:round;stroke-miterlimit:4;stroke-dasharray:none;stroke-opacity:1;display:inline"
         sodipodi:type="arc" />
    </g>
    <g
       id="g3483">
      <path
         transform="matrix(0.875,0,0,0.875,19.5,-1.5)"
         d="M 26 24 A 2 2 0 1 1  22,24 A 2 2 0 1 1  26 24 z"
         sodipodi:ry="2"
         sodipodi:rx="2"
         sodipodi:cy="24"
         sodipodi:cx="24"
         id="path3326"
         style="opacity:1;fill:url(#radialGradient3250);fill-opacity:1;stroke:none;stroke-width:2;stroke-linejoin:round;stroke-miterlimit:4;stroke-dasharray:none;stroke-opacity:1;display:inline"
         sodipodi:type="arc" />
      <path
         transform="matrix(0.32,0,0,0.2666676,27.46,14.299983)"
         d="M 42 19.5 A 1.25 1.5 0 1 1  39.5,19.5 A 1.25 1.5 0 1 1  42 19.5 z"
         sodipodi:ry="1.5"
         sodipodi:rx="1.25"
         sodipodi:cy="19.5"
         sodipodi:cx="40.75"
         id="path3345"
         style="opacity:1;fill:none;fill-opacity:1;stroke:#f14343;stroke-width:0.68465203;stroke-linejoin:miter;stroke-miterlimit:4;stroke-dasharray:none;stroke-opacity:1"
         sodipodi:type="arc" />
      <path
         transform="matrix(0.625,0,0,0.625,24.75,3.75)"
         d="M 26 24 A 2 2 0 1 1  22,24 A 2 2 0 1 1  26 24 z"
         sodipodi:ry="2"
         sodipodi:rx="2"
         sodipodi:cy="24"
         sodipodi:cx="24"
         id="path3328"
         style="opacity:0.20689655;fill:url(#linearGradient3330);fill-opacity:1;stroke:none;stroke-width:1;stroke-linejoin:round;stroke-miterlimit:4;stroke-dasharray:none;stroke-opacity:1;display:inline"
         sodipodi:type="arc" />
    </g>
    <g
       id="g3478">
      <path
         transform="matrix(0.875,0,0,0.875,16.5,1.5)"
         d="M 26 24 A 2 2 0 1 1  22,24 A 2 2 0 1 1  26 24 z"
         sodipodi:ry="2"
         sodipodi:rx="2"
         sodipodi:cy="24"
         sodipodi:cx="24"
         id="path3332"
         style="opacity:1;fill:url(#radialGradient3274);fill-opacity:1;stroke:none;stroke-width:2;stroke-linejoin:round;stroke-miterlimit:4;stroke-dasharray:none;stroke-opacity:1;display:inline"
         sodipodi:type="arc" />
      <path
         sodipodi:nodetypes="cccc"
         id="rect3347"
         d="M 38,23 L 37.010527,22.00611 M 37.010527,23 L 38,22.00611"
         style="fill:none;fill-opacity:1;stroke:#5985b4;stroke-width:0.20000005;stroke-linejoin:miter;stroke-miterlimit:4;stroke-opacity:1;display:inline" />
      <path
         transform="matrix(0.625,0,0,0.625,21.75,6.75)"
         d="M 26 24 A 2 2 0 1 1  22,24 A 2 2 0 1 1  26 24 z"
         sodipodi:ry="2"
         sodipodi:rx="2"
         sodipodi:cy="24"
         sodipodi:cx="24"
         id="path3334"
         style="opacity:0.20689655;fill:url(#linearGradient3336);fill-opacity:1;stroke:none;stroke-width:1;stroke-linejoin:round;stroke-miterlimit:4;stroke-dasharray:none;stroke-opacity:1;display:inline"
         sodipodi:type="arc" />
    </g>
    <path
       style="fill:url(#linearGradient3390);fill-opacity:1.0;stroke:none;stroke-width:1;stroke-linejoin:round;stroke-miterlimit:4;stroke-opacity:1;display:inline"
       d="M 6,18 L 8,18 L 9.5,19 L 9.5,20 L 8,21 L 6,21 L 6,18 z "
       id="rect3353"
       sodipodi:nodetypes="ccccccc" />
    <path
       style="fill:url(#linearGradient3414);fill-opacity:1.0;stroke:none;stroke-width:1;stroke-linejoin:round;stroke-miterlimit:4;stroke-opacity:1;display:inline"
       d="M 15,18 L 13,18 L 11.5,19 L 11.5,20 L 13,21 L 15,21 L 15,18 z "
       id="path3366"
       sodipodi:nodetypes="ccccccc" />
    <path
       style="fill:url(#linearGradient3398);fill-opacity:1.0;stroke:none;stroke-width:1;stroke-linejoin:round;stroke-miterlimit:4;stroke-opacity:1;display:inline"
       d="M 9,15 L 9,17 L 10,18.5 L 11,18.5 L 12,17 L 12,15 L 9,15 z "
       id="path3372"
       sodipodi:nodetypes="ccccccc" />
    <path
       style="fill:url(#linearGradient3406);fill-opacity:1.0;stroke:none;stroke-width:1;stroke-linejoin:round;stroke-miterlimit:4;stroke-opacity:1;display:inline"
       d="M 9,24 L 9,22 L 10,20.5 L 11,20.5 L 12,22 L 12,24 L 9,24 z "
       id="path3378"
       sodipodi:nodetypes="ccccccc" />
    <path
       sodipodi:type="arc"
       style="opacity:1;fill:url(#radialGradient3440);fill-opacity:1;stroke:url(#linearGradient3460);stroke-width:0.99999988;stroke-linejoin:miter;stroke-miterlimit:4;stroke-dasharray:none;stroke-opacity:1"
       id="path3416"
       sodipodi:cx="16.5"
       sodipodi:cy="26"
       sodipodi:rx="3"
       sodipodi:ry="3"
       d="M 19.5 26 A 3 3 0 1 1  13.5,26 A 3 3 0 1 1  19.5 26 z"
       transform="translate(-5.9604645e-8,-0.4999999)" />
    <path
       sodipodi:type="arc"
       style="opacity:1;fill:url(#radialGradient3464);fill-opacity:1;stroke:url(#linearGradient3466);stroke-width:0.99999988;stroke-linejoin:miter;stroke-miterlimit:4;stroke-dasharray:none;stroke-opacity:1;display:inline"
       id="path3462"
       sodipodi:cx="16.5"
       sodipodi:cy="26"
       sodipodi:rx="3"
       sodipodi:ry="3"
       d="M 19.5 26 A 3 3 0 1 1  13.5,26 A 3 3 0 1 1  19.5 26 z"
       transform="translate(15,-0.4999999)" />
  </g>
</svg>
