<?xml version="1.0" encoding="UTF-8" standalone="no"?>
<!-- Created with Inkscape (http://www.inkscape.org/) -->
<svg
   xmlns:dc="http://purl.org/dc/elements/1.1/"
   xmlns:cc="http://web.resource.org/cc/"
   xmlns:rdf="http://www.w3.org/1999/02/22-rdf-syntax-ns#"
   xmlns:svg="http://www.w3.org/2000/svg"
   xmlns="http://www.w3.org/2000/svg"
   xmlns:xlink="http://www.w3.org/1999/xlink"
   xmlns:sodipodi="http://sodipodi.sourceforge.net/DTD/sodipodi-0.dtd"
   xmlns:inkscape="http://www.inkscape.org/namespaces/inkscape"
   width="48"
   height="48"
   id="svg2"
   sodipodi:version="0.32"
   inkscape:version="0.45"
   version="1.0"
   sodipodi:docbase="/home/ulisse/Desktop/logitech-rumblepad2/scalable"
   sodipodi:docname="input-gaming-logitech-cordless-rumblepad2.svg"
   inkscape:output_extension="org.inkscape.output.svg.inkscape"
   sodipodi:modified="true">
  <defs
     id="defs4">
    <linearGradient
       inkscape:collect="always"
       id="linearGradient3252">
      <stop
         style="stop-color:#2b2f34;stop-opacity:1;"
         offset="0"
         id="stop3254" />
      <stop
         style="stop-color:#2b2f34;stop-opacity:1"
         offset="1"
         id="stop3256" />
    </linearGradient>
    <linearGradient
       id="linearGradient3237"
       inkscape:collect="always">
      <stop
         id="stop3239"
         offset="0"
         style="stop-color:#ffffff;stop-opacity:1;" />
      <stop
         id="stop3241"
         offset="1"
         style="stop-color:#ffffff;stop-opacity:0.07843138" />
    </linearGradient>
    <linearGradient
       id="linearGradient3240"
       inkscape:collect="always">
      <stop
         id="stop3242"
         offset="0"
         style="stop-color:#dcdfdf;stop-opacity:1" />
      <stop
         id="stop3244"
         offset="1"
         style="stop-color:#1f2225;stop-opacity:1" />
    </linearGradient>
    <linearGradient
       id="linearGradient3547">
      <stop
         id="stop3549"
         offset="0"
         style="stop-color:#e0e0e0;stop-opacity:1;" />
      <stop
         id="stop3551"
         offset="1"
         style="stop-color:#eaeaea;stop-opacity:0;" />
    </linearGradient>
    <linearGradient
       id="linearGradient3381"
       inkscape:collect="always">
      <stop
         id="stop3383"
         offset="0"
         style="stop-color:#95bce7;stop-opacity:1" />
      <stop
         id="stop3385"
         offset="1"
         style="stop-color:#3327a8;stop-opacity:1" />
    </linearGradient>
    <linearGradient
       inkscape:collect="always"
       id="linearGradient3329">
      <stop
         style="stop-color:#89949f;stop-opacity:0"
         offset="0"
         id="stop3331" />
      <stop
         style="stop-color:#535c68;stop-opacity:1"
         offset="1"
         id="stop3333" />
    </linearGradient>
    <linearGradient
       id="linearGradient3305">
      <stop
         style="stop-color:#e3e3e3;stop-opacity:1;"
         offset="0"
         id="stop3307" />
      <stop
         style="stop-color:#ffffff;stop-opacity:0.05660377"
         offset="1"
         id="stop3309" />
    </linearGradient>
    <linearGradient
       id="linearGradient3291">
      <stop
         style="stop-color:#6c7682;stop-opacity:1"
         offset="0"
         id="stop3293" />
      <stop
         id="stop3314"
         offset="0.62921351"
         style="stop-color:#929ba5;stop-opacity:1;" />
      <stop
         style="stop-color:#57616e;stop-opacity:1"
         offset="1"
         id="stop3295" />
    </linearGradient>
    <linearGradient
       inkscape:collect="always"
       id="linearGradient3272">
      <stop
         style="stop-color:#cacecf;stop-opacity:1"
         offset="0"
         id="stop3274" />
      <stop
         style="stop-color:#363b41;stop-opacity:1"
         offset="1"
         id="stop3276" />
    </linearGradient>
    <radialGradient
       inkscape:collect="always"
       xlink:href="#linearGradient5060"
       id="radialGradient3527"
       gradientUnits="userSpaceOnUse"
       gradientTransform="matrix(-2.03716,0,0,2.018058,-423.3185,-879.5624)"
       cx="605.71429"
       cy="486.64789"
       fx="605.71429"
       fy="486.64789"
       r="117.14286" />
    <linearGradient
       inkscape:collect="always"
       id="linearGradient5060">
      <stop
         style="stop-color:black;stop-opacity:1;"
         offset="0"
         id="stop5062" />
      <stop
         style="stop-color:black;stop-opacity:0;"
         offset="1"
         id="stop5064" />
    </linearGradient>
    <radialGradient
       inkscape:collect="always"
       xlink:href="#linearGradient5060"
       id="radialGradient3525"
       gradientUnits="userSpaceOnUse"
       gradientTransform="matrix(2.03716,0,0,1.969706,-1052.701,-856.2756)"
       cx="605.71429"
       cy="486.64789"
       fx="605.71429"
       fy="486.64789"
       r="117.14286" />
    <linearGradient
       id="linearGradient5048">
      <stop
         style="stop-color:black;stop-opacity:0;"
         offset="0"
         id="stop5050" />
      <stop
         id="stop5056"
         offset="0.5"
         style="stop-color:black;stop-opacity:1;" />
      <stop
         style="stop-color:black;stop-opacity:0;"
         offset="1"
         id="stop5052" />
    </linearGradient>
    <linearGradient
       inkscape:collect="always"
       xlink:href="#linearGradient5048"
       id="linearGradient3523"
       gradientUnits="userSpaceOnUse"
       gradientTransform="matrix(3.781761,0,0,1.969706,-2104.846,-856.0366)"
       x1="302.85715"
       y1="366.64789"
       x2="302.85715"
       y2="609.50507" />
    <radialGradient
       inkscape:collect="always"
       xlink:href="#linearGradient3291"
       id="radialGradient3303"
       gradientUnits="userSpaceOnUse"
       gradientTransform="matrix(1.0432537,0,0,1.0049512,-1.00561,6.3892304)"
       cx="23.981812"
       cy="7.0927701"
       fx="24.241272"
       fy="0.82238239"
       r="23.025203" />
    <linearGradient
       inkscape:collect="always"
       xlink:href="#linearGradient3237"
       id="linearGradient3311"
       x1="17.873205"
       y1="4.4863181"
       x2="27.565001"
       y2="37"
       gradientUnits="userSpaceOnUse" />
    <linearGradient
       inkscape:collect="always"
       xlink:href="#linearGradient3240"
       id="linearGradient3322"
       x1="20.407118"
       y1="-8.7263527"
       x2="27.275034"
       y2="-2.9218237"
       gradientUnits="userSpaceOnUse" />
    <radialGradient
       inkscape:collect="always"
       xlink:href="#linearGradient3329"
       id="radialGradient3339"
       cx="25.906219"
       cy="20.147751"
       fx="25.906219"
       fy="20.147751"
       r="5"
       gradientTransform="matrix(1.6659656,-6.2580818e-3,5.539114e-3,1.3539739,-17.494365,-6.9050201)"
       gradientUnits="userSpaceOnUse" />
    <radialGradient
       inkscape:collect="always"
       xlink:href="#linearGradient3329"
       id="radialGradient3343"
       gradientUnits="userSpaceOnUse"
       gradientTransform="matrix(1.6659656,-6.2580818e-3,5.539114e-3,1.3539739,-17.494365,-6.9050201)"
       cx="25.906219"
       cy="20.147751"
       fx="25.906219"
       fy="20.147751"
       r="5" />
    <linearGradient
       inkscape:collect="always"
       xlink:href="#linearGradient3381"
       id="linearGradient3379"
       gradientUnits="userSpaceOnUse"
       x1="71.930679"
       y1="12.944366"
       x2="73.208023"
       y2="18.612705" />
    <linearGradient
       inkscape:collect="always"
       xlink:href="#linearGradient3381"
       id="linearGradient3391"
       x1="72.217941"
       y1="20.643417"
       x2="72.251732"
       y2="15.362213"
       gradientUnits="userSpaceOnUse" />
    <linearGradient
       inkscape:collect="always"
       xlink:href="#linearGradient3381"
       id="linearGradient3395"
       gradientUnits="userSpaceOnUse"
       x1="72.217941"
       y1="20.643417"
       x2="72.251732"
       y2="15.362213" />
    <linearGradient
       inkscape:collect="always"
       xlink:href="#linearGradient3381"
       id="linearGradient3397"
       gradientUnits="userSpaceOnUse"
       x1="71.930679"
       y1="12.944366"
       x2="73.208023"
       y2="18.612705" />
    <linearGradient
       inkscape:collect="always"
       xlink:href="#linearGradient3305"
       id="linearGradient3421"
       gradientUnits="userSpaceOnUse"
       x1="19.53125"
       y1="7.5"
       x2="20.609375"
       y2="8.6875" />
    <linearGradient
       inkscape:collect="always"
       xlink:href="#linearGradient3305"
       id="linearGradient3433"
       gradientUnits="userSpaceOnUse"
       x1="19.53125"
       y1="7.5"
       x2="20.609375"
       y2="8.6875" />
    <linearGradient
       inkscape:collect="always"
       xlink:href="#linearGradient3305"
       id="linearGradient3441"
       gradientUnits="userSpaceOnUse"
       x1="19.53125"
       y1="7.5"
       x2="20.609375"
       y2="8.6875" />
    <linearGradient
       inkscape:collect="always"
       xlink:href="#linearGradient3305"
       id="linearGradient3449"
       gradientUnits="userSpaceOnUse"
       x1="19.53125"
       y1="7.5"
       x2="20.609375"
       y2="8.6875" />
    <linearGradient
       inkscape:collect="always"
       xlink:href="#linearGradient3305"
       id="linearGradient3469"
       gradientUnits="userSpaceOnUse"
       x1="19.53125"
       y1="7.5"
       x2="20.609375"
       y2="8.6875" />
    <linearGradient
       inkscape:collect="always"
       xlink:href="#linearGradient3305"
       id="linearGradient3471"
       gradientUnits="userSpaceOnUse"
       x1="19.53125"
       y1="7.5"
       x2="20.609375"
       y2="8.6875" />
    <linearGradient
       inkscape:collect="always"
       xlink:href="#linearGradient3305"
       id="linearGradient3473"
       gradientUnits="userSpaceOnUse"
       x1="19.53125"
       y1="7.5"
       x2="20.609375"
       y2="8.6875" />
    <linearGradient
       inkscape:collect="always"
       xlink:href="#linearGradient3305"
       id="linearGradient3485"
       gradientUnits="userSpaceOnUse"
       x1="19.53125"
       y1="7.5"
       x2="20.609375"
       y2="8.6875" />
    <linearGradient
       inkscape:collect="always"
       xlink:href="#linearGradient3305"
       id="linearGradient3493"
       gradientUnits="userSpaceOnUse"
       x1="19.53125"
       y1="7.5"
       x2="20.609375"
       y2="8.6875" />
    <linearGradient
       inkscape:collect="always"
       xlink:href="#linearGradient3237"
       id="linearGradient3526"
       x1="23.635185"
       y1="17"
       x2="23.812389"
       y2="15.234835"
       gradientUnits="userSpaceOnUse" />
    <linearGradient
       inkscape:collect="always"
       xlink:href="#linearGradient3305"
       id="linearGradient3535"
       gradientUnits="userSpaceOnUse"
       x1="17.125"
       y1="27.3125"
       x2="29.875"
       y2="26.0625"
       gradientTransform="matrix(1,0,0,0.9704056,0,0.6955174)" />
    <radialGradient
       inkscape:collect="always"
       xlink:href="#linearGradient3547"
       id="radialGradient3545"
       cx="-6"
       cy="21.706213"
       fx="-6.2578349"
       fy="20.763403"
       r="3"
       gradientTransform="matrix(1,0,0,2.4312623,0,-31.067285)"
       gradientUnits="userSpaceOnUse" />
    <radialGradient
       inkscape:collect="always"
       xlink:href="#linearGradient3547"
       id="radialGradient3561"
       gradientUnits="userSpaceOnUse"
       gradientTransform="matrix(1,0,0,2.4312623,0,-31.067285)"
       cx="-6"
       cy="21.706213"
       fx="-6.7346997"
       fy="20.483507"
       r="3" />
    <radialGradient
       inkscape:collect="always"
       xlink:href="#linearGradient3272"
       id="radialGradient3246"
       cx="30.045397"
       cy="-4.034656"
       fx="30.045397"
       fy="-4.034656"
       r="4.8357038"
       gradientTransform="matrix(1.603168,-6.4143595e-2,4.6823281e-2,1.0385219,-16.725133,2.2826062)"
       gradientUnits="userSpaceOnUse" />
    <linearGradient
       inkscape:collect="always"
       xlink:href="#linearGradient3381"
       id="linearGradient3249"
       x1="32.409012"
       y1="6.704505"
       x2="37"
       y2="7.5"
       gradientUnits="userSpaceOnUse"
       gradientTransform="translate(-1.9999997,-3.4725486e-3)" />
    <radialGradient
       inkscape:collect="always"
       xlink:href="#linearGradient3252"
       id="radialGradient3258"
       cx="20"
       cy="8"
       fx="20"
       fy="8"
       r="1.5"
       gradientTransform="matrix(1,0,0,0.6666667,0,2.6666667)"
       gradientUnits="userSpaceOnUse" />
  </defs>
  <sodipodi:namedview
     id="base"
     pagecolor="#ffffff"
     bordercolor="#f6aaaa"
     borderopacity="1"
     inkscape:pageopacity="0.0"
     inkscape:pageshadow="2"
     inkscape:zoom="1"
     inkscape:cx="21.289534"
     inkscape:cy="32.714862"
     inkscape:document-units="px"
     inkscape:current-layer="layer1"
     width="48px"
     height="48px"
     inkscape:showpageshadow="false"
     showgrid="false"
     gridspacingx="0.5px"
     gridspacingy="0.5px"
     gridempspacing="2"
     inkscape:grid-points="true"
     inkscape:window-width="1044"
     inkscape:window-height="853"
     inkscape:window-x="192"
     inkscape:window-y="44"
     showguides="true"
     inkscape:guide-bbox="true" />
  <metadata
     id="metadata7">
    <rdf:RDF>
      <cc:Work
         rdf:about="">
        <dc:format>image/svg+xml</dc:format>
        <dc:type
           rdf:resource="http://purl.org/dc/dcmitype/StillImage" />
        <dc:creator>
          <cc:Agent>
            <dc:title>Ulisse Perusin</dc:title>
          </cc:Agent>
        </dc:creator>
        <cc:license
           rdf:resource="http://creativecommons.org/licenses/GPL/2.0/" />
        <dc:title>input-gaming-logitech-cordless-rumblepad2</dc:title>
        <dc:subject>
          <rdf:Bag>
            <rdf:li>input gaming logitech rumblepad</rdf:li>
          </rdf:Bag>
        </dc:subject>
        <dc:source>uli.peru@gmail.com</dc:source>
      </cc:Work>
      <cc:License
         rdf:about="http://creativecommons.org/licenses/GPL/2.0/">
        <cc:permits
           rdf:resource="http://web.resource.org/cc/Reproduction" />
        <cc:permits
           rdf:resource="http://web.resource.org/cc/Distribution" />
        <cc:requires
           rdf:resource="http://web.resource.org/cc/Notice" />
        <cc:permits
           rdf:resource="http://web.resource.org/cc/DerivativeWorks" />
        <cc:requires
           rdf:resource="http://web.resource.org/cc/ShareAlike" />
        <cc:requires
           rdf:resource="http://web.resource.org/cc/SourceCode" />
      </cc:License>
    </rdf:RDF>
  </metadata>
  <g
     inkscape:label="Livello 1"
     inkscape:groupmode="layer"
     id="layer1"
     style="display:inline">
    <g
       style="opacity:0.44827588;display:inline"
       transform="matrix(1.971468e-2,0,0,2.9253228e-2,-22.450344,36.421995)"
       id="g2612">
      <g
         transform="translate(0,-59.82244)"
         id="g2623">
        <g
           id="g3518"
           transform="matrix(1.043479,0,0,1,3126.228,-59.82246)">
          <rect
             style="opacity:0.40206185;color:#000000;fill:url(#linearGradient3523);fill-opacity:1;fill-rule:nonzero;stroke:none;stroke-width:1;stroke-linecap:round;stroke-linejoin:miter;marker:none;marker-start:none;marker-mid:none;marker-end:none;stroke-miterlimit:4;stroke-dasharray:none;stroke-dashoffset:0;stroke-opacity:1;visibility:visible;display:inline;overflow:visible"
             id="rect6709"
             width="1826.0504"
             height="478.35718"
             x="-1651.0347"
             y="-133.84804" />
          <path
             style="opacity:0.40206185;color:#000000;fill:url(#radialGradient3525);fill-opacity:1;fill-rule:nonzero;stroke:none;stroke-width:1;stroke-linecap:round;stroke-linejoin:miter;marker:none;marker-start:none;marker-mid:none;marker-end:none;stroke-miterlimit:4;stroke-dasharray:none;stroke-dashoffset:0;stroke-opacity:1;visibility:visible;display:inline;overflow:visible"
             d="M 175.01578,-134.07052 C 175.01578,-134.07052 175.01578,344.26027 175.01578,344.26027 C 279.92447,345.16072 428.63395,237.09061 428.63389,105.06409 C 428.63389,-26.962449 311.56369,-134.0705 175.01578,-134.07052 z "
             id="path6711"
             sodipodi:nodetypes="cccc" />
          <path
             sodipodi:nodetypes="cccc"
             id="path6713"
             d="M -1651.0346,-133.82723 C -1651.0346,-133.82723 -1651.0346,344.50356 -1651.0346,344.50356 C -1755.9433,345.40401 -1904.6528,237.3339 -1904.6528,105.30739 C -1904.6528,-26.719152 -1787.5825,-133.82721 -1651.0346,-133.82723 z "
             style="opacity:0.40206185;color:#000000;fill:url(#radialGradient3527);fill-opacity:1;fill-rule:nonzero;stroke:none;stroke-width:1;stroke-linecap:round;stroke-linejoin:miter;marker:none;marker-start:none;marker-mid:none;marker-end:none;stroke-miterlimit:4;stroke-dasharray:none;stroke-dashoffset:0;stroke-opacity:1;visibility:visible;display:inline;overflow:visible" />
        </g>
      </g>
    </g>
    <g
       id="g3531"
       transform="matrix(1,0,0,0.9,0,2.85)">
      <path
         sodipodi:nodetypes="cccscc"
         id="rect3247"
         d="M 12.5,19.5 L 35.500003,19.5 L 35.500003,24.5 C 29.999161,25 31.205999,28.5 23.964968,28.5 C 16.723935,28.5 17.930774,25 12.5,24.5 L 12.5,19.5 z "
         style="fill:#5775a2;fill-opacity:1;stroke:#3d5477;stroke-width:1.05409253;stroke-linejoin:round;stroke-miterlimit:4;stroke-opacity:1" />
      <path
         sodipodi:nodetypes="cccscc"
         id="path3495"
         d="M 13.499999,19.618427 L 34.5,19.618427 L 34.5,23.931342 C 29.477491,24.362633 30.579387,27.381673 23.968011,27.381673 C 17.356635,27.381673 18.45853,24.362633 13.499999,23.931342 L 13.499999,19.618427 z "
         style="opacity:0.48275859;fill:none;fill-opacity:1;stroke:url(#linearGradient3535);stroke-width:1.05409253;stroke-linejoin:round;stroke-miterlimit:4;stroke-opacity:1;display:inline" />
    </g>
    <path
       style="fill:url(#radialGradient3303);fill-opacity:1;stroke:#3e434b;stroke-width:1;stroke-linejoin:round;stroke-miterlimit:4;stroke-opacity:1"
       d="M 13,8.5277281 C 17,8.5277281 19.5,10.5 24,10.5 C 28.5,10.5 32,8.5277281 36,8.5277281 C 46,9.5277281 49,38 44.5,37.5 C 41,37.5 37,27 32.5,26.5 C 27,25.196901 21,25.155631 15.5,26.5 C 11,27 7,37.5 3.5,37.5 C -1,38 2,9.5277281 13,8.5277281 z "
       id="rect3242"
       sodipodi:nodetypes="cscccccc" />
    <path
       sodipodi:type="arc"
       style="opacity:0.6091954;fill:url(#radialGradient3561);fill-opacity:1;stroke:none;stroke-width:1;stroke-linejoin:round;stroke-miterlimit:4;stroke-dasharray:none;stroke-opacity:1;display:inline"
       id="path3559"
       sodipodi:cx="-6"
       sodipodi:cy="21.706213"
       sodipodi:rx="3"
       sodipodi:ry="7.293787"
       d="M -3 21.706213 A 3 7.293787 0 1 1  -9,21.706213 A 3 7.293787 0 1 1  -3 21.706213 z"
       transform="matrix(-1.2164984,0,0.4169637,1.2339268,23.400306,-3.7838787)" />
    <path
       sodipodi:type="arc"
       style="opacity:0.7058237;fill:url(#radialGradient3545);fill-opacity:1;stroke:none;stroke-width:1;stroke-linejoin:round;stroke-miterlimit:4;stroke-dasharray:none;stroke-opacity:1"
       id="path3537"
       sodipodi:cx="-6"
       sodipodi:cy="21.706213"
       sodipodi:rx="3"
       sodipodi:ry="7.293787"
       d="M -3 21.706213 A 3 7.293787 0 1 1  -9,21.706213 A 3 7.293787 0 1 1  -3 21.706213 z"
       transform="matrix(1.0884459,0,-0.3730728,1.2339268,23.378672,-3.7838769)" />
    <path
       sodipodi:type="inkscape:offset"
       inkscape:radius="-1.0050929"
       inkscape:original="M 13 8.53125 C 2 9.53125 -1 38 3.5 37.5 C 7 37.5 11 27 15.5 26.5 C 21 25.155631 27 25.196901 32.5 26.5 C 37 27 41 37.5 44.5 37.5 C 49 38 46 9.53125 36 8.53125 C 32 8.53125 28.5 10.5 24 10.5 C 19.5 10.5 17 8.53125 13 8.53125 z "
       xlink:href="#rect3242"
       style="opacity:0.48275862;fill:none;fill-opacity:1;stroke:url(#linearGradient3311);stroke-width:1;stroke-linejoin:round;stroke-miterlimit:4;stroke-opacity:1"
       id="path3301"
       inkscape:href="#rect3242"
       d="M 13.0625,9.53125 C 10.74947,9.754507 8.7516737,11.451204 7.09375,14.09375 C 5.4286028,16.74781 4.1695301,20.273978 3.40625,23.78125 C 2.6429699,27.288522 2.3610157,30.773276 2.53125,33.25 C 2.6163672,34.488362 2.8509002,35.487466 3.09375,36.03125 C 3.2151749,36.303142 3.3255453,36.459711 3.375,36.5 C 3.4166263,36.497407 3.4583737,36.497407 3.5,36.5 C 3.824592,36.5 4.5972663,36.040719 5.46875,35.03125 C 6.3402337,34.021781 7.2776341,32.599061 8.28125,31.125 C 9.2848659,29.650939 10.333225,28.133619 11.46875,26.90625 C 12.569099,25.716902 13.785302,24.776701 15.25,24.5625 L 15.25,24.53125 C 15.293059,24.525076 15.331482,24.504835 15.375,24.5 C 20.977311,23.152839 27.037409,23.191704 32.625,24.5 C 32.656584,24.507395 32.687196,24.523774 32.71875,24.53125 C 34.202003,24.733019 35.420678,25.705852 36.53125,26.90625 C 37.666775,28.133619 38.715134,29.650939 39.71875,31.125 C 40.722366,32.599061 41.659766,34.021781 42.53125,35.03125 C 43.402734,36.040719 44.175408,36.5 44.5,36.5 C 44.541626,36.497407 44.583374,36.497407 44.625,36.5 C 44.674977,36.45933 44.783812,36.303784 44.90625,36.03125 C 45.151127,35.486181 45.376129,34.48973 45.46875,33.25 C 45.653992,30.770539 45.390616,27.29301 44.6875,23.78125 C 43.984384,20.26949 42.846533,16.720193 41.3125,14.0625 C 39.786047,11.417939 37.960644,9.7480646 35.9375,9.53125 C 35.927454,9.5301734 35.916306,9.5322556 35.90625,9.53125 C 32.26791,9.5627068 28.75423,11.5 24,11.5 C 21.603424,11.5 19.725154,10.962805 18.03125,10.46875 C 16.367963,9.9836247 14.884029,9.5470972 13.09375,9.53125 C 13.082765,9.5311528 13.073509,9.531315 13.0625,9.53125 z " />
    <path
       sodipodi:type="arc"
       style="opacity:1;fill:url(#radialGradient3339);fill-opacity:1;stroke:none;stroke-width:1;stroke-linejoin:round;stroke-miterlimit:4;stroke-dasharray:none;stroke-opacity:1"
       id="path3324"
       sodipodi:cx="25"
       sodipodi:cy="22.208815"
       sodipodi:rx="5"
       sodipodi:ry="4.7911849"
       d="M 30 22.208815 A 5 4.7911849 0 1 1  20,22.208815 A 5 4.7911849 0 1 1  30 22.208815 z"
       transform="matrix(0.8,0,0,0.8348665,-1,2.4586037)" />
    <g
       id="g3368"
       transform="translate(-0.9999995,5.590265e-7)">
      <path
         transform="matrix(0.9275363,0,0,0.9846154,-11.326089,20.115387)"
         d="M 30 -4.6875029 A 4.3124995 4.0625 0 1 1  21.375,-4.6875029 A 4.3124995 4.0625 0 1 1  30 -4.6875029 z"
         sodipodi:ry="4.0625"
         sodipodi:rx="4.3124995"
         sodipodi:cy="-4.6875029"
         sodipodi:cx="25.6875"
         id="path3270"
         style="opacity:1;fill:url(#radialGradient3246);fill-opacity:1;stroke:url(#linearGradient3322);stroke-width:1.04640841;stroke-linejoin:round;stroke-miterlimit:4;stroke-dasharray:none;stroke-opacity:1"
         sodipodi:type="arc" />
      <path
         sodipodi:nodetypes="csssc"
         id="path3280"
         d="M 13,12.5 C 13,12.776 12.776,14 12.5,14 C 12.224,14 12,12.776 12,12.5 C 12,12.224 12.224,12 12.5,12 C 12.776,12 13,12.224 13,12.5 z "
         style="fill:#1d2024;fill-opacity:1;stroke:none;stroke-width:1;stroke-linejoin:round;stroke-miterlimit:4;stroke-opacity:1" />
      <path
         sodipodi:nodetypes="csssc"
         id="path3283"
         d="M 12,18.5 C 12,18.224 12.224,17 12.5,17 C 12.776,17 13,18.224 13,18.5 C 13,18.776 12.776,19 12.5,19 C 12.224,19 12,18.776 12,18.5 z "
         style="fill:#1d2024;fill-opacity:1;stroke:none;stroke-width:1;stroke-linejoin:round;stroke-miterlimit:4;stroke-opacity:1;display:inline" />
      <path
         sodipodi:nodetypes="csssc"
         id="path3285"
         d="M 15.5,16 C 15.224,16 14,15.776 14,15.5 C 14,15.224 15.224,15 15.5,15 C 15.776,15 16,15.224 16,15.5 C 16,15.776 15.776,16 15.5,16 z "
         style="fill:#1d2024;fill-opacity:1;stroke:none;stroke-width:1;stroke-linejoin:round;stroke-miterlimit:4;stroke-opacity:1;display:inline" />
      <path
         sodipodi:nodetypes="csssc"
         id="path3287"
         d="M 9.5,15 C 9.776,15 11,15.224 11,15.5 C 11,15.776 9.776,16 9.5,16 C 9.224,16 9,15.776 9,15.5 C 9,15.224 9.224,15 9.5,15 z "
         style="fill:#1d2024;fill-opacity:1;stroke:none;stroke-width:1;stroke-linejoin:round;stroke-miterlimit:4;stroke-opacity:1;display:inline" />
    </g>
    <path
       sodipodi:type="arc"
       style="opacity:1;fill:url(#radialGradient3343);fill-opacity:1;stroke:none;stroke-width:1;stroke-linejoin:round;stroke-miterlimit:4;stroke-dasharray:none;stroke-opacity:1;display:inline"
       id="path3341"
       sodipodi:cx="25"
       sodipodi:cy="22.208815"
       sodipodi:rx="5"
       sodipodi:ry="4.7911849"
       d="M 30 22.208815 A 5 4.7911849 0 1 1  20,22.208815 A 5 4.7911849 0 1 1  30 22.208815 z"
       transform="matrix(0.8,0,0,0.8348665,9,2.4586038)" />
    <path
       sodipodi:type="arc"
       style="opacity:1;fill:url(#linearGradient3391);fill-opacity:1;stroke:url(#linearGradient3379);stroke-width:1;stroke-linejoin:round;stroke-miterlimit:4;stroke-dasharray:none;stroke-opacity:1;display:inline"
       id="path3375"
       sodipodi:cx="72.5"
       sodipodi:cy="18.5"
       sodipodi:rx="2.5"
       sodipodi:ry="2.5"
       d="M 75 18.5 A 2.5 2.5 0 1 1  70,18.5 A 2.5 2.5 0 1 1  75 18.5 z"
       transform="translate(-43.5,2.5)" />
    <path
       sodipodi:type="arc"
       style="opacity:1;fill:url(#linearGradient3395);fill-opacity:1;stroke:url(#linearGradient3397);stroke-width:1;stroke-linejoin:round;stroke-miterlimit:4;stroke-dasharray:none;stroke-opacity:1;display:inline"
       id="path3393"
       sodipodi:cx="72.5"
       sodipodi:cy="18.5"
       sodipodi:rx="2.5"
       sodipodi:ry="2.5"
       d="M 75 18.5 A 2.5 2.5 0 1 1  70,18.5 A 2.5 2.5 0 1 1  75 18.5 z"
       transform="translate(-53.5,2.5)" />
    <g
       id="g3475">
      <path
         transform="matrix(0.6666667,0,0,1,12.666666,5)"
         d="M 21.5 8 A 1.5 1 0 1 1  18.5,8 A 1.5 1 0 1 1  21.5 8 z"
         sodipodi:ry="1"
         sodipodi:rx="1.5"
         sodipodi:cy="8"
         sodipodi:cx="20"
         id="path3401"
         style="opacity:1;fill:#2b2f34;fill-opacity:1;stroke:none;stroke-width:1;stroke-linejoin:round;stroke-miterlimit:4;stroke-dasharray:none;stroke-opacity:1;display:inline"
         sodipodi:type="arc" />
      <path
         transform="matrix(0.666667,0,0,0.5,12.66666,8.5)"
         d="M 21.5 8 A 1.5 1 0 1 1  18.5,8 A 1.5 1 0 1 1  21.5 8 z"
         sodipodi:ry="1"
         sodipodi:rx="1.5"
         sodipodi:cy="8"
         sodipodi:cx="20"
         id="path3419"
         style="opacity:0.41762452;fill:url(#linearGradient3421);fill-opacity:1;stroke:none;stroke-width:1;stroke-linejoin:round;stroke-miterlimit:4;stroke-dasharray:none;stroke-opacity:1;display:inline"
         sodipodi:type="arc" />
    </g>
    <g
       id="g3429"
       transform="translate(-3e-7,2)">
      <path
         transform="matrix(0.9999997,0,0,1.5,12.500006,2.5)"
         d="M 21.5 8 A 1.5 1 0 1 1  18.5,8 A 1.5 1 0 1 1  21.5 8 z"
         sodipodi:ry="1"
         sodipodi:rx="1.5"
         sodipodi:cy="8"
         sodipodi:cx="20"
         id="path3423"
         style="opacity:1;fill:#2b2f34;fill-opacity:1;stroke:none;stroke-width:1;stroke-linejoin:round;stroke-miterlimit:4;stroke-dasharray:none;stroke-opacity:1;display:inline"
         sodipodi:type="arc" />
      <path
         transform="translate(12.5,6)"
         d="M 21.5 8 A 1.5 1 0 1 1  18.5,8 A 1.5 1 0 1 1  21.5 8 z"
         sodipodi:ry="1"
         sodipodi:rx="1.5"
         sodipodi:cy="8"
         sodipodi:cx="20"
         id="path3425"
         style="opacity:0.41762452;fill:url(#linearGradient3433);fill-opacity:1;stroke:none;stroke-width:1;stroke-linejoin:round;stroke-miterlimit:4;stroke-dasharray:none;stroke-opacity:1;display:inline"
         sodipodi:type="arc" />
    </g>
    <g
       style="display:inline"
       id="g3435"
       transform="translate(2.9999997,-1)">
      <path
         transform="matrix(0.9999997,0,0,1.5,12.500006,2.5)"
         d="M 21.5 8 A 1.5 1 0 1 1  18.5,8 A 1.5 1 0 1 1  21.5 8 z"
         sodipodi:ry="1"
         sodipodi:rx="1.5"
         sodipodi:cy="8"
         sodipodi:cx="20"
         id="path3437"
         style="opacity:1;fill:url(#radialGradient3258);fill-opacity:1.0;stroke:none;stroke-width:1;stroke-linejoin:round;stroke-miterlimit:4;stroke-dasharray:none;stroke-opacity:1;display:inline"
         sodipodi:type="arc" />
      <path
         transform="translate(12.5,6)"
         d="M 21.5 8 A 1.5 1 0 1 1  18.5,8 A 1.5 1 0 1 1  21.5 8 z"
         sodipodi:ry="1"
         sodipodi:rx="1.5"
         sodipodi:cy="8"
         sodipodi:cx="20"
         id="path3439"
         style="opacity:0.41762452;fill:url(#linearGradient3441);fill-opacity:1;stroke:none;stroke-width:1;stroke-linejoin:round;stroke-miterlimit:4;stroke-dasharray:none;stroke-opacity:1;display:inline"
         sodipodi:type="arc" />
    </g>
    <g
       style="display:inline"
       id="g3443"
       transform="translate(6.875,-2)">
      <path
         transform="matrix(0.9999997,0,0,1.5,12.500006,2.5)"
         d="M 21.5 8 A 1.5 1 0 1 1  18.5,8 A 1.5 1 0 1 1  21.5 8 z"
         sodipodi:ry="1"
         sodipodi:rx="1.5"
         sodipodi:cy="8"
         sodipodi:cx="20"
         id="path3445"
         style="opacity:1;fill:#2b2f34;fill-opacity:1;stroke:none;stroke-width:1;stroke-linejoin:round;stroke-miterlimit:4;stroke-dasharray:none;stroke-opacity:1;display:inline"
         sodipodi:type="arc" />
      <path
         transform="matrix(1.0416666,0,0,1,11.729169,6)"
         d="M 21.5 8 A 1.5 1 0 1 1  18.5,8 A 1.5 1 0 1 1  21.5 8 z"
         sodipodi:ry="1"
         sodipodi:rx="1.5"
         sodipodi:cy="8"
         sodipodi:cx="20"
         id="path3447"
         style="opacity:0.41762452;fill:url(#linearGradient3449);fill-opacity:1;stroke:none;stroke-width:1;stroke-linejoin:round;stroke-miterlimit:4;stroke-dasharray:none;stroke-opacity:1;display:inline"
         sodipodi:type="arc" />
    </g>
    <g
       style="display:inline"
       id="g3451"
       transform="translate(1.9999997,5)">
      <path
         transform="matrix(0.9999997,0,0,1.5,12.500006,2.5)"
         d="M 21.5 8 A 1.5 1 0 1 1  18.5,8 A 1.5 1 0 1 1  21.5 8 z"
         sodipodi:ry="1"
         sodipodi:rx="1.5"
         sodipodi:cy="8"
         sodipodi:cx="20"
         id="path3453"
         style="opacity:1;fill:#2b2f34;fill-opacity:1;stroke:none;stroke-width:1;stroke-linejoin:round;stroke-miterlimit:4;stroke-dasharray:none;stroke-opacity:1;display:inline"
         sodipodi:type="arc" />
      <path
         transform="translate(12.5,6)"
         d="M 21.5 8 A 1.5 1 0 1 1  18.5,8 A 1.5 1 0 1 1  21.5 8 z"
         sodipodi:ry="1"
         sodipodi:rx="1.5"
         sodipodi:cy="8"
         sodipodi:cx="20"
         id="path3455"
         style="opacity:0.41762452;fill:url(#linearGradient3469);fill-opacity:1;stroke:none;stroke-width:1;stroke-linejoin:round;stroke-miterlimit:4;stroke-dasharray:none;stroke-opacity:1;display:inline"
         sodipodi:type="arc" />
    </g>
    <g
       style="display:inline"
       id="g3457"
       transform="translate(4.9999992,2)">
      <path
         transform="matrix(0.9999997,0,0,1.5,12.500006,2.5)"
         d="M 21.5 8 A 1.5 1 0 1 1  18.5,8 A 1.5 1 0 1 1  21.5 8 z"
         sodipodi:ry="1"
         sodipodi:rx="1.5"
         sodipodi:cy="8"
         sodipodi:cx="20"
         id="path3459"
         style="opacity:1;fill:#2b2f34;fill-opacity:1;stroke:none;stroke-width:1;stroke-linejoin:round;stroke-miterlimit:4;stroke-dasharray:none;stroke-opacity:1;display:inline"
         sodipodi:type="arc" />
      <path
         transform="translate(12.499994,6)"
         d="M 21.5 8 A 1.5 1 0 1 1  18.5,8 A 1.5 1 0 1 1  21.5 8 z"
         sodipodi:ry="1"
         sodipodi:rx="1.5"
         sodipodi:cy="8"
         sodipodi:cx="20"
         id="path3461"
         style="opacity:0.41762452;fill:url(#linearGradient3471);fill-opacity:1;stroke:none;stroke-width:1;stroke-linejoin:round;stroke-miterlimit:4;stroke-dasharray:none;stroke-opacity:1;display:inline"
         sodipodi:type="arc" />
    </g>
    <g
       style="display:inline"
       id="g3463"
       transform="translate(9,1)">
      <path
         transform="matrix(0.9999997,0,0,1.5,12.500006,2.5)"
         d="M 21.5 8 A 1.5 1 0 1 1  18.5,8 A 1.5 1 0 1 1  21.5 8 z"
         sodipodi:ry="1"
         sodipodi:rx="1.5"
         sodipodi:cy="8"
         sodipodi:cx="20"
         id="path3465"
         style="opacity:1;fill:#2b2f34;fill-opacity:1;stroke:none;stroke-width:1;stroke-linejoin:round;stroke-miterlimit:4;stroke-dasharray:none;stroke-opacity:1;display:inline"
         sodipodi:type="arc" />
      <path
         transform="translate(12.499995,6)"
         d="M 21.5 8 A 1.5 1 0 1 1  18.5,8 A 1.5 1 0 1 1  21.5 8 z"
         sodipodi:ry="1"
         sodipodi:rx="1.5"
         sodipodi:cy="8"
         sodipodi:cx="20"
         id="path3467"
         style="opacity:0.41762452;fill:url(#linearGradient3473);fill-opacity:1;stroke:none;stroke-width:1;stroke-linejoin:round;stroke-miterlimit:4;stroke-dasharray:none;stroke-opacity:1;display:inline"
         sodipodi:type="arc" />
    </g>
    <g
       style="display:inline"
       id="g3479"
       transform="translate(-3.999999,0)">
      <path
         transform="matrix(0.6666667,0,0,1,12.666666,5)"
         d="M 21.5 8 A 1.5 1 0 1 1  18.5,8 A 1.5 1 0 1 1  21.5 8 z"
         sodipodi:ry="1"
         sodipodi:rx="1.5"
         sodipodi:cy="8"
         sodipodi:cx="20"
         id="path3481"
         style="opacity:1;fill:#2b2f34;fill-opacity:1;stroke:none;stroke-width:1;stroke-linejoin:round;stroke-miterlimit:4;stroke-dasharray:none;stroke-opacity:1;display:inline"
         sodipodi:type="arc" />
      <path
         transform="matrix(0.6666667,0,0,0.5,12.666666,8.5)"
         d="M 21.5 8 A 1.5 1 0 1 1  18.5,8 A 1.5 1 0 1 1  21.5 8 z"
         sodipodi:ry="1"
         sodipodi:rx="1.5"
         sodipodi:cy="8"
         sodipodi:cx="20"
         id="path3483"
         style="opacity:0.41762452;fill:url(#linearGradient3485);fill-opacity:1;stroke:none;stroke-width:1;stroke-linejoin:round;stroke-miterlimit:4;stroke-dasharray:none;stroke-opacity:1;display:inline"
         sodipodi:type="arc" />
    </g>
    <g
       style="display:inline"
       id="g3487"
       transform="translate(-6,2)">
      <path
         transform="matrix(0.6666667,0,0,1,12.666666,5)"
         d="M 21.5 8 A 1.5 1 0 1 1  18.5,8 A 1.5 1 0 1 1  21.5 8 z"
         sodipodi:ry="1"
         sodipodi:rx="1.5"
         sodipodi:cy="8"
         sodipodi:cx="20"
         id="path3489"
         style="opacity:1;fill:#2b2f34;fill-opacity:1;stroke:none;stroke-width:1;stroke-linejoin:round;stroke-miterlimit:4;stroke-dasharray:none;stroke-opacity:1;display:inline"
         sodipodi:type="arc" />
      <path
         transform="matrix(0.666667,0,0,0.5,12.66666,8.5)"
         d="M 21.5 8 A 1.5 1 0 1 1  18.5,8 A 1.5 1 0 1 1  21.5 8 z"
         sodipodi:ry="1"
         sodipodi:rx="1.5"
         sodipodi:cy="8"
         sodipodi:cx="20"
         id="path3491"
         style="opacity:0.41762452;fill:url(#linearGradient3493);fill-opacity:1;stroke:none;stroke-width:1;stroke-linejoin:round;stroke-miterlimit:4;stroke-dasharray:none;stroke-opacity:1;display:inline"
         sodipodi:type="arc" />
    </g>
    <g
       id="g3514"
       transform="matrix(0.6666669,0,0,0.6666667,17.708296,7.3333326)"
       style="opacity:0.76628352">
      <path
         sodipodi:nodetypes="csssc"
         id="path3505"
         d="M 9,23.5 C 9,24.5 10.328,25 9.5,25 C 8.672,25 8,24.328 8,23.5 C 8,22.672 8.672,22 9.5,22 C 10.328,22 9,22 9,23.5 z "
         style="opacity:1;fill:#eeeeec;fill-opacity:1;stroke:none;stroke-width:1;stroke-linejoin:round;stroke-miterlimit:4;stroke-opacity:1" />
      <path
         d="M 11 23.5 A 0.5 0.5 0 1 1  10,23.5 A 0.5 0.5 0 1 1  11 23.5 z"
         sodipodi:ry="0.5"
         sodipodi:rx="0.5"
         sodipodi:cy="23.5"
         sodipodi:cx="10.5"
         id="path3512"
         style="opacity:1;fill:#eeeeec;fill-opacity:1;stroke:none;stroke-width:1;stroke-linejoin:round;stroke-miterlimit:4;stroke-dasharray:none;stroke-opacity:1"
         sodipodi:type="arc"
         transform="matrix(1.4375515,0,0,1.5719246,-4.8755143,-13.440229)" />
    </g>
    <rect
       style="opacity:0.49808429;fill:url(#linearGradient3526);fill-opacity:1.0;stroke:none;stroke-width:1;stroke-linejoin:round;stroke-miterlimit:4;stroke-dasharray:none;stroke-opacity:1"
       id="rect3518"
       width="4"
       height="1.5"
       x="22"
       y="15.5"
       ry="0" />
    <rect
       style="opacity:0.41762456;fill:#eeeeec;fill-opacity:1;stroke:none;stroke-width:1;stroke-linejoin:round;stroke-miterlimit:4;stroke-dasharray:none;stroke-opacity:1"
       id="rect3528"
       width="0"
       height="1"
       x="23.5"
       y="16" />
  </g>
</svg>
