<?xml version="1.0" encoding="UTF-8" standalone="no"?>
<!-- Created with Inkscape (http://www.inkscape.org/) -->
<svg
   xmlns:dc="http://purl.org/dc/elements/1.1/"
   xmlns:cc="http://web.resource.org/cc/"
   xmlns:rdf="http://www.w3.org/1999/02/22-rdf-syntax-ns#"
   xmlns:svg="http://www.w3.org/2000/svg"
   xmlns="http://www.w3.org/2000/svg"
   xmlns:xlink="http://www.w3.org/1999/xlink"
   xmlns:sodipodi="http://sodipodi.sourceforge.net/DTD/sodipodi-0.dtd"
   xmlns:inkscape="http://www.inkscape.org/namespaces/inkscape"
   width="48px"
   height="48px"
   id="svg2676"
   sodipodi:version="0.32"
   inkscape:version="0.45.1"
   sodipodi:docbase="C:\Documents and Settings\Administrator\My Documents\Icons\Tango\my_icons\scalable"
   sodipodi:docname="media-tape-cassette.svg"
   inkscape:output_extension="org.inkscape.output.svg.inkscape"
   inkscape:export-filename="C:\Documents and Settings\Administrator\My Documents\Icons\Tango\my_icons\scalable\media-tape-cassette.png"
   inkscape:export-xdpi="90"
   inkscape:export-ydpi="90">
  <defs
     id="defs2678">
    <linearGradient
       inkscape:collect="always"
       id="linearGradient3204">
      <stop
         style="stop-color:#ffffff;stop-opacity:1;"
         offset="0"
         id="stop3206" />
      <stop
         style="stop-color:#ffffff;stop-opacity:0;"
         offset="1"
         id="stop3208" />
    </linearGradient>
    <linearGradient
       inkscape:collect="always"
       xlink:href="#linearGradient3204"
       id="linearGradient3210"
       x1="24"
       y1="35"
       x2="24"
       y2="43"
       gradientUnits="userSpaceOnUse" />
    <linearGradient
       id="linearGradient3719">
      <stop
         style="stop-color:#000000;stop-opacity:1;"
         offset="0"
         id="stop3721" />
      <stop
         style="stop-color:#000000;stop-opacity:0;"
         offset="1"
         id="stop3723" />
    </linearGradient>
    <linearGradient
       id="linearGradient5712">
      <stop
         style="stop-color:#2e3436;stop-opacity:1;"
         offset="0"
         id="stop5714" />
      <stop
         style="stop-color:#555753;stop-opacity:1;"
         offset="1"
         id="stop5716" />
    </linearGradient>
    <linearGradient
       id="linearGradient4713">
      <stop
         style="stop-color:#ffffff;stop-opacity:1;"
         offset="0"
         id="stop4715" />
      <stop
         style="stop-color:#babdb6;stop-opacity:1;"
         offset="1"
         id="stop4717" />
    </linearGradient>
    <linearGradient
       inkscape:collect="always"
       id="linearGradient3697">
      <stop
         style="stop-color:#000000;stop-opacity:1;"
         offset="0"
         id="stop3699" />
      <stop
         style="stop-color:#000000;stop-opacity:0;"
         offset="1"
         id="stop3701" />
    </linearGradient>
    <linearGradient
       inkscape:collect="always"
       xlink:href="#linearGradient3132"
       id="linearGradient10488"
       gradientUnits="userSpaceOnUse"
       gradientTransform="matrix(2.0000003,0,0,0.5833334,-21.000001,30.666667)"
       spreadMethod="reflect"
       x1="22.499998"
       y1="19.428568"
       x2="22.499998"
       y2="10.857141" />
    <radialGradient
       inkscape:collect="always"
       xlink:href="#linearGradient3132"
       id="radialGradient10490"
       gradientUnits="userSpaceOnUse"
       gradientTransform="matrix(-1,0,0,-1,15,18.250001)"
       cx="7.5"
       cy="7.7500005"
       fx="7.5"
       fy="7.7500005"
       r="5.5" />
    <linearGradient
       inkscape:collect="always"
       id="linearGradient3132">
      <stop
         style="stop-color:#000000;stop-opacity:1;"
         offset="0"
         id="stop3134" />
      <stop
         style="stop-color:#000000;stop-opacity:0;"
         offset="1"
         id="stop3136" />
    </linearGradient>
    <radialGradient
       inkscape:collect="always"
       xlink:href="#linearGradient3132"
       id="radialGradient10492"
       gradientUnits="userSpaceOnUse"
       gradientTransform="matrix(-1,0,0,-1,15,18.250001)"
       cx="7.5"
       cy="7.7500005"
       fx="7.5"
       fy="7.7500005"
       r="5.5" />
    <linearGradient
       id="linearGradient8823">
      <stop
         style="stop-color:#8f5902;stop-opacity:1;"
         offset="0"
         id="stop8825" />
      <stop
         style="stop-color:#8f5902;stop-opacity:0;"
         offset="1"
         id="stop8827" />
    </linearGradient>
    <linearGradient
       id="linearGradient8815">
      <stop
         style="stop-color:#f57900;stop-opacity:1;"
         offset="0"
         id="stop8817" />
      <stop
         style="stop-color:#ce5c00;stop-opacity:1;"
         offset="1"
         id="stop8819" />
    </linearGradient>
    <linearGradient
       inkscape:collect="always"
       id="linearGradient8769">
      <stop
         style="stop-color:#555753;stop-opacity:1;"
         offset="0"
         id="stop8771" />
      <stop
         style="stop-color:#555753;stop-opacity:0;"
         offset="1"
         id="stop8773" />
    </linearGradient>
    <linearGradient
       inkscape:collect="always"
       id="linearGradient8761">
      <stop
         style="stop-color:#ffffff;stop-opacity:1;"
         offset="0"
         id="stop8763" />
      <stop
         style="stop-color:#ffffff;stop-opacity:0;"
         offset="1"
         id="stop8765" />
    </linearGradient>
    <linearGradient
       id="linearGradient8749">
      <stop
         style="stop-color:#555753;stop-opacity:1;"
         offset="0"
         id="stop8751" />
      <stop
         style="stop-color:#2e3436;stop-opacity:1;"
         offset="1"
         id="stop8753" />
    </linearGradient>
    <linearGradient
       inkscape:collect="always"
       xlink:href="#linearGradient8749"
       id="linearGradient8755"
       x1="28.072088"
       y1="14"
       x2="28.072088"
       y2="44.057377"
       gradientUnits="userSpaceOnUse"
       gradientTransform="matrix(0.9555556,0,0,1.0000001,1.0666666,-1.5e-7)" />
    <linearGradient
       inkscape:collect="always"
       xlink:href="#linearGradient8761"
       id="linearGradient8767"
       x1="18.181639"
       y1="28.998655"
       x2="18.181639"
       y2="47.892548"
       gradientUnits="userSpaceOnUse"
       gradientTransform="matrix(0.9534884,0,0,1,1.1162789,1.4010582e-6)" />
    <linearGradient
       inkscape:collect="always"
       xlink:href="#linearGradient8769"
       id="linearGradient8775"
       x1="23.455334"
       y1="34"
       x2="23.455334"
       y2="44.014824"
       gradientUnits="userSpaceOnUse" />
    <linearGradient
       inkscape:collect="always"
       xlink:href="#linearGradient8749"
       id="linearGradient8802"
       x1="22.9198"
       y1="14.054818"
       x2="22.9198"
       y2="43.754284"
       gradientUnits="userSpaceOnUse"
       gradientTransform="translate(0,-1)" />
    <linearGradient
       inkscape:collect="always"
       xlink:href="#linearGradient8823"
       id="linearGradient8829"
       x1="26.5"
       y1="27.5"
       x2="26.5"
       y2="25"
       gradientUnits="userSpaceOnUse"
       gradientTransform="translate(0,-1)" />
    <linearGradient
       inkscape:collect="always"
       xlink:href="#linearGradient8823"
       id="linearGradient8837"
       x1="21"
       y1="27.5"
       x2="21"
       y2="25"
       gradientUnits="userSpaceOnUse"
       gradientTransform="translate(0,-1)" />
    <linearGradient
       inkscape:collect="always"
       xlink:href="#linearGradient8815"
       id="linearGradient8856"
       x1="18.607111"
       y1="-0.001920222"
       x2="18.607111"
       y2="12.03884"
       gradientUnits="userSpaceOnUse"
       gradientTransform="matrix(0.8514751,0,0,0.9137298,6.70295,23.000001)" />
    <linearGradient
       inkscape:collect="always"
       xlink:href="#linearGradient3697"
       id="linearGradient3703"
       x1="24.000002"
       y1="23.999998"
       x2="24.000002"
       y2="33"
       gradientUnits="userSpaceOnUse" />
    <linearGradient
       inkscape:collect="always"
       xlink:href="#linearGradient4713"
       id="linearGradient4719"
       x1="50.82073"
       y1="26.584766"
       x2="63.225488"
       y2="26.584766"
       gradientUnits="userSpaceOnUse" />
    <linearGradient
       inkscape:collect="always"
       xlink:href="#linearGradient4713"
       id="linearGradient4727"
       x1="50.820728"
       y1="26.584766"
       x2="63.225487"
       y2="26.584766"
       gradientUnits="userSpaceOnUse" />
    <linearGradient
       inkscape:collect="always"
       xlink:href="#linearGradient3719"
       id="linearGradient3725"
       x1="21.512367"
       y1="16.167307"
       x2="52.257175"
       y2="22.815939"
       gradientUnits="userSpaceOnUse"
       gradientTransform="matrix(0.8983675,0,0,1.1131306,1e-7,-6.8073486e-6)" />
  </defs>
  <sodipodi:namedview
     id="base"
     pagecolor="#ffffff"
     bordercolor="#666666"
     borderopacity="1.0"
     inkscape:pageopacity="0.0"
     inkscape:pageshadow="2"
     inkscape:zoom="14"
     inkscape:cx="27.897335"
     inkscape:cy="21.109399"
     inkscape:current-layer="layer1"
     showgrid="true"
     inkscape:grid-bbox="true"
     inkscape:document-units="px"
     showguides="true"
     inkscape:guide-bbox="true"
     inkscape:showpageshadow="false" />
  <metadata
     id="metadata2681">
    <rdf:RDF>
      <cc:Work
         rdf:about="">
        <dc:format>image/svg+xml</dc:format>
        <dc:type
           rdf:resource="http://purl.org/dc/dcmitype/StillImage" />
        <dc:title>Media - Tape - Cassette</dc:title>
        <dc:creator>
          <cc:Agent>
            <dc:title>Jonathan Zuniga</dc:title>
          </cc:Agent>
        </dc:creator>
        <dc:subject>
          <rdf:Bag>
            <rdf:li>media</rdf:li>
            <rdf:li>tape</rdf:li>
            <rdf:li>cassette</rdf:li>
          </rdf:Bag>
        </dc:subject>
        <dc:date>2007, May 10</dc:date>
        <cc:license
           rdf:resource="http://creativecommons.org/licenses/GPL/2.0/" />
      </cc:Work>
      <cc:License
         rdf:about="http://creativecommons.org/licenses/GPL/2.0/">
        <cc:permits
           rdf:resource="http://web.resource.org/cc/Reproduction" />
        <cc:permits
           rdf:resource="http://web.resource.org/cc/Distribution" />
        <cc:requires
           rdf:resource="http://web.resource.org/cc/Notice" />
        <cc:permits
           rdf:resource="http://web.resource.org/cc/DerivativeWorks" />
        <cc:requires
           rdf:resource="http://web.resource.org/cc/ShareAlike" />
        <cc:requires
           rdf:resource="http://web.resource.org/cc/SourceCode" />
      </cc:License>
    </rdf:RDF>
  </metadata>
  <g
     id="layer1"
     inkscape:label="Layer 1"
     inkscape:groupmode="layer">
    <rect
       style="opacity:0.6;fill:url(#linearGradient10488);fill-opacity:1;stroke:none;stroke-width:1;stroke-linecap:round;stroke-linejoin:miter;stroke-miterlimit:4;stroke-dasharray:none;stroke-opacity:1"
       id="rect10424"
       width="34"
       height="9.999999"
       x="7"
       y="37"
       inkscape:export-filename="C:\Documents and Settings\Administrator\My Documents\Icons\Tango\my_icons\scalable\path3148.png"
       inkscape:export-xdpi="90"
       inkscape:export-ydpi="90" />
    <path
       sodipodi:type="arc"
       style="opacity:0.6;fill:url(#radialGradient10490);fill-opacity:1;stroke:none;stroke-width:0.91666663;stroke-linecap:round;stroke-linejoin:miter;stroke-miterlimit:4;stroke-dasharray:none;stroke-opacity:1"
       id="path10426"
       sodipodi:cx="7.5"
       sodipodi:cy="10.5"
       sodipodi:rx="5.5"
       sodipodi:ry="5.5"
       d="M 13,10.5 A 5.5,5.5 0 1 1 2,10.5 L 7.5,10.5 z"
       transform="matrix(0,0.9090911,-1.0909088,0,18.454541,35.181816)"
       sodipodi:start="0"
       sodipodi:end="3.1415927"
       inkscape:export-filename="C:\Documents and Settings\Administrator\My Documents\Icons\Tango\my_icons\scalable\path3148.png"
       inkscape:export-xdpi="90"
       inkscape:export-ydpi="90" />
    <path
       sodipodi:type="arc"
       style="opacity:0.6;fill:url(#radialGradient10492);fill-opacity:1;stroke:none;stroke-width:0.91666663;stroke-linecap:round;stroke-linejoin:miter;stroke-miterlimit:4;stroke-dasharray:none;stroke-opacity:1"
       id="path10428"
       sodipodi:cx="7.5"
       sodipodi:cy="10.5"
       sodipodi:rx="5.5"
       sodipodi:ry="5.5"
       d="M 13,10.5 A 5.5,5.5 0 1 1 2,10.5 L 7.5,10.5 z"
       transform="matrix(0,-0.9090914,1.0909088,0,29.545459,48.818188)"
       sodipodi:start="0"
       sodipodi:end="3.1415927"
       inkscape:export-xdpi="90"
       inkscape:export-ydpi="90" />
    <rect
       style="opacity:1;fill:url(#linearGradient8755);fill-opacity:1;fill-rule:nonzero;stroke:#2e3436;stroke-width:1;stroke-linecap:round;stroke-linejoin:round;stroke-miterlimit:4;stroke-dasharray:none;stroke-dashoffset:0;stroke-opacity:1"
       id="rect2684"
       width="43"
       height="29.000002"
       x="2.5"
       y="14.5"
       rx="2"
       ry="2" />
    <rect
       style="opacity:1;fill:url(#linearGradient8856);fill-opacity:1;fill-rule:nonzero;stroke:none;stroke-width:1;stroke-linecap:butt;stroke-linejoin:miter;stroke-miterlimit:4;stroke-dasharray:1, 1;stroke-dashoffset:0.2;stroke-opacity:1"
       id="rect8848"
       width="38"
       height="11"
       x="5"
       y="23" />
    <path
       style="fill:url(#linearGradient8775);fill-opacity:1.0;fill-rule:nonzero;stroke:#2e3436;stroke-width:0.99999988;stroke-linecap:round;stroke-linejoin:round;stroke-miterlimit:4;stroke-dashoffset:0;stroke-opacity:1"
       d="M 10.499999,34.5 L 37.500001,34.5 L 39.500001,43.5 L 8.499999,43.5 L 10.499999,34.5 z "
       id="rect4773"
       sodipodi:nodetypes="ccccc" />
    <path
       sodipodi:type="arc"
       style="opacity:1;fill:#222222;fill-opacity:1;fill-rule:nonzero;stroke:none;stroke-width:1;stroke-linecap:round;stroke-linejoin:round;stroke-miterlimit:4;stroke-dasharray:none;stroke-dashoffset:0;stroke-opacity:1"
       id="path4776"
       sodipodi:cx="-15.909903"
       sodipodi:cy="27.089842"
       sodipodi:rx="1.4647212"
       sodipodi:ry="2.1213202"
       d="M -14.445181 27.089842 A 1.4647212 2.1213202 0 1 1  -17.374624,27.089842 A 1.4647212 2.1213202 0 1 1  -14.445181 27.089842 z"
       transform="matrix(0.6827237,0,0,0.4714045,23.862068,28.229726)" />
    <path
       sodipodi:type="arc"
       style="opacity:1;fill:#222222;fill-opacity:1;fill-rule:nonzero;stroke:none;stroke-width:1;stroke-linecap:round;stroke-linejoin:round;stroke-miterlimit:4;stroke-dasharray:none;stroke-dashoffset:0;stroke-opacity:1"
       id="path5747"
       sodipodi:cx="-15.909903"
       sodipodi:cy="27.089842"
       sodipodi:rx="1.4647212"
       sodipodi:ry="2.1213202"
       d="M -14.445181 27.089842 A 1.4647212 2.1213202 0 1 1  -17.374624,27.089842 A 1.4647212 2.1213202 0 1 1  -14.445181 27.089842 z"
       transform="matrix(0.6827239,0,0,0.4714045,45.862071,28.229726)" />
    <path
       sodipodi:type="arc"
       style="opacity:1;fill:#222222;fill-opacity:1;fill-rule:nonzero;stroke:none;stroke-width:1;stroke-linecap:round;stroke-linejoin:round;stroke-miterlimit:4;stroke-dasharray:none;stroke-dashoffset:0;stroke-opacity:1"
       id="path5751"
       sodipodi:cx="-15.909903"
       sodipodi:cy="27.089842"
       sodipodi:rx="1.4647212"
       sodipodi:ry="2.1213202"
       d="M -14.445181 27.089842 A 1.4647212 2.1213202 0 1 1  -17.374624,27.089842 A 1.4647212 2.1213202 0 1 1  -14.445181 27.089842 z"
       transform="matrix(0.6827237,0,0,0.4714045,27.862068,26.229726)" />
    <path
       sodipodi:type="arc"
       style="opacity:1;fill:#222222;fill-opacity:1;fill-rule:nonzero;stroke:none;stroke-width:1;stroke-linecap:round;stroke-linejoin:round;stroke-miterlimit:4;stroke-dasharray:none;stroke-dashoffset:0;stroke-opacity:1"
       id="path5753"
       sodipodi:cx="-15.909903"
       sodipodi:cy="27.089842"
       sodipodi:rx="1.4647212"
       sodipodi:ry="2.1213202"
       d="M -14.445181 27.089842 A 1.4647212 2.1213202 0 1 1  -17.374624,27.089842 A 1.4647212 2.1213202 0 1 1  -14.445181 27.089842 z"
       transform="matrix(0.6827239,0,0,0.4714045,41.862071,26.229726)" />
    <rect
       style="opacity:1;fill:url(#linearGradient8802);fill-opacity:1;fill-rule:nonzero;stroke:none;stroke-width:1;stroke-linecap:round;stroke-linejoin:round;stroke-miterlimit:4;stroke-dasharray:none;stroke-dashoffset:0;stroke-opacity:1"
       id="rect5775"
       width="26"
       height="9"
       x="11"
       y="23"
       rx="4"
       ry="9" />
    <path
       sodipodi:type="arc"
       style="opacity:1;fill:#151515;fill-opacity:1;fill-rule:nonzero;stroke:url(#linearGradient4719);stroke-width:1.5961262;stroke-linecap:round;stroke-linejoin:round;stroke-miterlimit:4;stroke-dasharray:none;stroke-dashoffset:0;stroke-opacity:1"
       id="path6756"
       sodipodi:cx="57.023109"
       sodipodi:cy="26.584766"
       sodipodi:rx="5.4043159"
       sodipodi:ry="4.2426405"
       d="M 62.427425 26.584766 A 5.4043159 4.2426405 0 1 1  51.618793,26.584766 A 5.4043159 4.2426405 0 1 1  62.427425 26.584766 z"
       transform="matrix(0,0.5551119,-0.7071068,0,34.298269,-4.1542065)" />
    <path
       sodipodi:type="arc"
       style="opacity:1;fill:none;fill-opacity:1;fill-rule:nonzero;stroke:#ffffff;stroke-width:2.3941884;stroke-linecap:butt;stroke-linejoin:miter;marker-start:none;marker-mid:none;stroke-miterlimit:4;stroke-dasharray:2.39418847, 2.39418847;stroke-dashoffset:0.47883769;stroke-opacity:1"
       id="path6758"
       sodipodi:cx="57.023109"
       sodipodi:cy="26.584766"
       sodipodi:rx="5.4043159"
       sodipodi:ry="4.2426405"
       d="M 62.427425 26.584766 A 5.4043159 4.2426405 0 1 1  51.618793,26.584766 A 5.4043159 4.2426405 0 1 1  62.427425 26.584766 z"
       transform="matrix(0.3700748,0,0,0.4714046,-5.6028172,14.967819)" />
    <path
       sodipodi:type="arc"
       style="opacity:1;fill:#151515;fill-opacity:1;fill-rule:nonzero;stroke:url(#linearGradient4727);stroke-width:1.5961262;stroke-linecap:round;stroke-linejoin:round;stroke-miterlimit:4;stroke-dasharray:none;stroke-dashoffset:0;stroke-opacity:1"
       id="path8698"
       sodipodi:cx="57.023109"
       sodipodi:cy="26.584766"
       sodipodi:rx="5.4043159"
       sodipodi:ry="4.2426405"
       d="M 62.427425 26.584766 A 5.4043159 4.2426405 0 1 1  51.618793,26.584766 A 5.4043159 4.2426405 0 1 1  62.427425 26.584766 z"
       transform="matrix(0,0.5551119,-0.7071068,0,51.298269,-4.1542066)" />
    <path
       sodipodi:type="arc"
       style="opacity:1;fill:none;fill-opacity:1;fill-rule:nonzero;stroke:#ffffff;stroke-width:2.39418864;stroke-linecap:butt;stroke-linejoin:miter;marker-start:none;marker-mid:none;stroke-miterlimit:4;stroke-dasharray:2.39418876, 2.39418876;stroke-dashoffset:0.47883774;stroke-opacity:1"
       id="path8700"
       sodipodi:cx="57.023109"
       sodipodi:cy="26.584766"
       sodipodi:rx="5.4043159"
       sodipodi:ry="4.2426405"
       d="M 62.427425 26.584766 A 5.4043159 4.2426405 0 1 1  51.618793,26.584766 A 5.4043159 4.2426405 0 1 1  62.427425 26.584766 z"
       transform="matrix(0.3700748,0,0,0.4714046,11.397182,14.967819)" />
    <rect
       style="opacity:1;fill:#151515;fill-opacity:1;fill-rule:nonzero;stroke:none;stroke-width:1.00000012;stroke-linecap:butt;stroke-linejoin:miter;stroke-miterlimit:4;stroke-dasharray:none;stroke-dashoffset:0;stroke-opacity:1"
       id="rect8702"
       width="8"
       height="5"
       x="20"
       y="24" />
    <path
       style="opacity:0.6;fill:url(#linearGradient8837);fill-opacity:1;fill-rule:nonzero;stroke:none;stroke-width:1.00000012;stroke-linecap:butt;stroke-linejoin:miter;stroke-miterlimit:4;stroke-dasharray:none;stroke-dashoffset:0;stroke-opacity:1"
       d="M 20,24 L 20,29 L 21.815385,29 C 21.927898,28.51768 22,28.017094 22,27.5 C 22,26.209742 21.623779,25.011446 20.984615,24 L 20,24 z "
       id="path8704" />
    <path
       style="opacity:0.6;fill:url(#linearGradient8829);fill-opacity:1;fill-rule:nonzero;stroke:none;stroke-width:1.00000012;stroke-linecap:butt;stroke-linejoin:miter;stroke-miterlimit:4;stroke-dasharray:none;stroke-dashoffset:0;stroke-opacity:1"
       d="M 25.875,24 C 25.31802,25.048055 25,26.23112 25,27.5 C 25,28.0175 25.056289,28.511914 25.15625,29 L 28,29 L 28,24 L 25.875,24 z "
       id="path8706" />
    <path
       style="fill:#eeeeec;fill-opacity:1;fill-rule:nonzero;stroke:none;stroke-width:1;stroke-linecap:round;stroke-linejoin:round;stroke-miterlimit:4;stroke-dashoffset:0;stroke-opacity:1"
       d="M 7.553125,17 L 5,19.713918 L 5,23.0625 L 43,23.0625 L 43,19.713918 L 40.446875,17 L 7.553125,17 z "
       id="path8738"
       sodipodi:nodetypes="ccccccc" />
    <rect
       style="opacity:0.25;fill:none;fill-opacity:1;fill-rule:nonzero;stroke:url(#linearGradient8767);stroke-width:0.99999976;stroke-linecap:round;stroke-linejoin:round;stroke-miterlimit:4;stroke-dasharray:none;stroke-dashoffset:0;stroke-opacity:1"
       id="rect8757"
       width="41.000004"
       height="26.999998"
       x="3.5"
       y="15.5"
       rx="1.0000001"
       ry="0.99999994" />
    <path
       style="font-size:4.9360652px;font-style:normal;font-weight:normal;fill:url(#linearGradient3725);fill-opacity:1;stroke:none;stroke-width:1px;stroke-linecap:butt;stroke-linejoin:miter;stroke-opacity:1;font-family:Reticulum 3"
       d="M 16.434265,20.835104 C 16.434259,21.128206 16.154899,21.450596 15.596184,21.802273 C 15.285738,22.000021 14.987161,22.157527 14.700454,22.274791 C 14.54374,22.358965 14.305745,22.465161 13.986467,22.593379 C 13.711569,22.666599 13.445516,22.703208 13.188308,22.703208 C 12.780339,22.703208 12.432954,22.575046 12.146153,22.318722 C 11.803233,22.018355 11.591851,21.564114 11.51201,20.956 C 11.503167,20.88647 11.519452,20.807717 11.560863,20.719741 C 11.563839,20.705099 11.556441,20.690454 11.53867,20.675809 C 11.444119,20.631879 11.222409,20.575092 10.873537,20.505448 C 10.58971,20.446874 10.387215,20.366276 10.266053,20.263656 C 10.088684,20.11353 10,19.875483 10,19.549513 C 10,19.164862 10.130049,18.853484 10.390148,18.615377 C 10.505447,18.509185 10.697611,18.41031 10.966642,18.318755 C 11.359811,18.186851 11.699798,18.120898 11.986602,18.120894 C 12.424068,18.120898 12.891126,18.21245 13.38778,18.395551 C 13.748468,18.527461 14.206686,18.743599 14.762434,19.043964 L 14.762434,19.642911 C 14.670857,19.760064 14.570355,19.818639 14.460925,19.818637 C 14.455056,19.818639 14.193423,19.664823 13.676027,19.357187 C 13.475017,19.236237 13.210453,19.140997 12.882333,19.071463 C 12.580731,19.005512 12.286575,18.972535 11.999865,18.972532 C 11.713059,18.972535 11.498746,18.992656 11.356926,19.032897 C 11.073098,19.10992 10.830682,19.276592 10.629677,19.532913 C 10.653313,19.606247 10.705054,19.653868 10.784897,19.675776 C 11.115997,19.767331 11.685047,19.87906 12.49205,20.010965 C 13.393686,20.153829 14.047045,20.225259 14.452128,20.225257 L 16.168212,20.225257 C 16.259867,20.225259 16.330824,20.325978 16.381082,20.527414 C 16.416531,20.655633 16.434259,20.758196 16.434265,20.835104 L 16.434265,20.835104 z M 15.307937,20.977966 C 14.86451,21.018321 14.582173,21.038499 14.460925,21.038498 L 11.893497,20.736341 C 11.872746,21.080642 12.036807,21.377321 12.385682,21.626378 C 12.660575,21.824127 12.901501,21.923002 13.108465,21.923002 C 13.3479,21.923002 13.733673,21.814961 14.265783,21.598879 C 14.762428,21.40113 15.099483,21.234459 15.276947,21.098862 C 15.297602,21.08053 15.307932,21.040231 15.307937,20.977966 L 15.307937,20.977966 z M 22.041006,19.631844 C 21.907928,19.587914 21.743866,19.545771 21.548821,19.505414 C 21.365492,19.461485 21.251682,19.439519 21.20739,19.439517 C 21.177793,19.439519 21.050653,19.468835 20.82597,19.527464 C 20.601277,19.586098 20.474183,19.615414 20.444686,19.615412 C 20.412113,19.615414 20.376612,19.578776 20.338183,19.505498 C 20.299747,19.432225 20.246517,19.395587 20.178497,19.395585 C 19.891781,19.395587 19.532622,19.454219 19.101022,19.57148 C 18.784715,19.666724 18.468365,19.761964 18.151974,19.857204 C 18.033785,19.890183 17.890429,19.952447 17.721903,20.043997 C 17.591807,20.120908 17.463201,20.195972 17.336086,20.269189 C 17.158716,20.364432 17.052303,20.426697 17.016848,20.455983 C 16.866093,20.569558 16.790717,20.692299 16.790717,20.824205 C 16.790717,21.025644 16.935561,21.175827 17.225253,21.274757 C 17.417416,21.340711 17.609581,21.373687 17.801747,21.373687 C 18.523038,21.373687 19.270945,21.239993 20.045471,20.9726 C 20.982651,20.642834 21.647829,20.195916 22.041006,19.631844 L 22.041006,19.631844 z M 22.573111,20.296689 C 22.558309,20.318712 22.516944,20.373654 22.449016,20.461517 C 21.949383,21.135473 21.210317,21.640967 20.231816,21.977999 C 19.454314,22.24908 18.638381,22.384619 17.784018,22.38462 C 17.319845,22.384619 16.922209,22.228958 16.591109,21.917635 C 16.224553,21.569647 16.041275,21.10993 16.041275,20.538481 C 16.041275,20.267402 16.178723,19.976202 16.453617,19.664876 C 16.696032,19.48904 16.889685,19.360822 17.034577,19.280223 C 17.161693,19.210583 17.336129,19.137308 17.557887,19.060396 C 17.806165,18.972535 18.146107,18.868184 18.577713,18.74734 C 19.245864,18.564127 19.720366,18.472519 20.001219,18.472515 C 20.063284,18.472519 20.107627,18.476208 20.134246,18.483583 C 20.178538,18.593471 20.246517,18.648413 20.338183,18.64841 C 20.370748,18.648413 20.558492,18.619098 20.901415,18.560462 C 21.244329,18.501835 21.429095,18.472519 21.455715,18.472515 C 21.783833,18.472519 22.080921,18.556749 22.34698,18.725207 C 22.663278,18.930337 22.82143,19.205105 22.821437,19.549513 C 22.82143,19.805841 22.738655,20.054898 22.573111,20.296689 L 22.573111,20.296689 z M 27.796604,22.516415 C 27.796599,22.838804 27.684233,22.999999 27.459505,23 C 27.406362,22.999999 27.336916,22.964283 27.251169,22.892854 C 27.165411,22.821422 27.081171,22.749096 26.998445,22.675878 C 25.691723,21.690488 24.689536,20.81135 23.991882,20.038464 C 23.708054,20.430386 23.473037,20.836949 23.286827,21.258157 C 23.233597,21.379109 23.17888,21.543993 23.122675,21.752807 C 23.045809,22.038531 22.998534,22.208837 22.980852,22.263724 C 22.939441,22.278368 22.901009,22.28569 22.865553,22.28569 C 22.753232,22.28569 22.664547,22.216103 22.5995,22.07693 C 22.552136,21.967045 22.528453,21.853471 22.528453,21.736207 C 22.528453,21.498105 22.611228,21.184938 22.776779,20.796706 C 22.835962,20.653845 22.994159,20.32419 23.251372,19.807739 C 23.431626,19.441419 23.533618,19.188673 23.557346,19.049497 C 23.569164,18.976169 23.597221,18.912059 23.641519,18.857169 C 23.739134,18.732644 23.824887,18.670379 23.898777,18.670376 C 23.934231,18.670379 23.985948,18.694189 24.053929,18.741807 C 24.121907,18.789431 24.176601,18.846217 24.218013,18.912168 C 24.424972,19.249093 24.668876,19.567738 24.949727,19.868102 C 25.162549,20.098942 25.428602,20.348055 25.747887,20.615445 C 26.016913,20.835217 26.285944,21.056831 26.554978,21.28029 L 26.590434,21.28029 L 25.943029,19.005565 C 25.957821,18.800442 25.97997,18.650257 26.009474,18.555014 C 26.068654,18.382867 26.164736,18.296793 26.297721,18.296788 C 26.327309,18.296793 26.358344,18.300425 26.390826,18.307688 C 26.450005,18.380911 26.556463,18.582404 26.710199,18.912168 C 26.701263,18.948726 26.698285,19.005456 26.701267,19.082361 C 26.849129,19.745364 26.992531,20.289312 27.131472,20.714208 C 27.178741,20.86076 27.274824,21.106185 27.419719,21.450483 C 27.641379,21.967045 27.762587,22.252769 27.783343,22.307655 C 27.792179,22.329677 27.796599,22.399264 27.796604,22.516415 L 27.796604,22.516415 z M 31.473309,20.027397 C 31.387598,20.027399 31.332926,20.021922 31.309292,20.010965 C 31.060919,19.890127 30.688408,19.725299 30.191761,19.516481 C 29.630061,19.315046 29.010714,19.122719 28.333719,18.9395 C 28.378105,19.078787 28.437243,19.278436 28.511133,19.538447 C 28.602793,19.923103 28.648624,20.32419 28.648625,20.741707 C 28.648624,20.749086 28.630896,20.972545 28.595442,21.412085 L 29.034443,21.109929 C 28.892528,21.073265 28.821572,20.957845 28.821573,20.763673 C 28.821572,20.664856 28.855561,20.575147 28.923543,20.494549 C 28.99152,20.413953 29.06692,20.368178 29.149742,20.357221 C 30.187337,20.196027 30.725353,20.11543 30.763789,20.115428 C 30.882061,20.11543 30.975212,20.183172 31.04324,20.318654 C 31.096374,20.428541 31.122943,20.54396 31.122948,20.66491 C 31.122943,20.796707 31.056453,20.902903 30.923475,20.983499 C 30.876197,21.012788 30.763875,21.056776 30.58651,21.115462 C 30.216974,21.236304 29.65672,21.565958 28.905747,22.10443 C 28.849629,22.144672 28.682636,22.291166 28.404766,22.543915 C 28.310126,22.620822 28.180031,22.750885 28.014482,22.934102 C 28.00564,22.934101 27.996754,22.934101 27.987823,22.934102 L 27.987823,22.994466 C 27.875501,22.994466 27.779464,22.912079 27.699711,22.747308 C 27.643506,22.626356 27.615402,22.529269 27.615403,22.456051 C 27.615402,22.386408 27.643506,22.291166 27.699711,22.170327 C 27.832692,21.877337 27.92282,21.653878 27.970094,21.499949 C 28.038119,21.265536 28.072131,21.016477 28.072132,20.752774 C 28.072131,20.423119 28.010061,20.056799 27.885921,19.653809 C 27.882944,19.642857 27.816408,19.476185 27.686314,19.153793 C 27.597629,18.941403 27.553287,18.769253 27.553287,18.637343 C 27.553287,18.564127 27.587299,18.450609 27.655324,18.296788 C 27.744008,18.098932 27.844511,18.000002 27.956833,17.999998 C 27.974605,18.000002 28.079574,18.040301 28.271739,18.120894 C 28.475721,18.205184 28.608748,18.258282 28.670819,18.280188 C 28.901415,18.360789 29.260573,18.472519 29.748293,18.615377 C 29.810362,18.61907 29.906444,18.63187 30.036541,18.653776 C 30.134154,18.679489 30.373638,18.761931 30.754992,18.901101 C 31.473305,19.164807 31.832463,19.391899 31.832467,19.582379 C 31.832463,19.717977 31.797729,19.826045 31.728266,19.906585 C 31.658793,19.987128 31.573808,20.027399 31.473309,20.027397 L 31.473309,20.027397 z M 38.000003,20.835104 C 37.999997,21.128206 37.720637,21.450596 37.161922,21.802273 C 36.851476,22.000021 36.552899,22.157527 36.266191,22.274791 C 36.109478,22.358965 35.871483,22.465161 35.552205,22.593379 C 35.277307,22.666599 35.011254,22.703208 34.754046,22.703208 C 34.346076,22.703208 33.998692,22.575046 33.711891,22.318722 C 33.368971,22.018355 33.157589,21.564114 33.077748,20.956 C 33.068905,20.88647 33.08519,20.807717 33.126601,20.719741 C 33.129577,20.705099 33.122179,20.690454 33.104408,20.675809 C 33.009857,20.631879 32.788146,20.575092 32.439274,20.505448 C 32.155448,20.446874 31.952953,20.366276 31.831791,20.263656 C 31.654422,20.11353 31.565738,19.875483 31.565738,19.549513 C 31.565738,19.164862 31.695787,18.853484 31.955886,18.615377 C 32.071184,18.509185 32.263349,18.41031 32.532379,18.318755 C 32.925549,18.186851 33.265535,18.120898 33.55234,18.120894 C 33.989805,18.120898 34.456864,18.21245 34.953517,18.395551 C 35.314206,18.527461 35.772423,18.743599 36.328171,19.043964 L 36.328171,19.642911 C 36.236596,19.760064 36.136092,19.818639 36.026662,19.818637 C 36.020793,19.818639 35.759162,19.664823 35.241765,19.357187 C 35.040755,19.236237 34.77619,19.140997 34.448071,19.071463 C 34.146469,19.005512 33.852313,18.972535 33.565602,18.972532 C 33.278797,18.972535 33.064484,18.992656 32.922663,19.032897 C 32.638836,19.10992 32.39642,19.276592 32.195415,19.532913 C 32.219051,19.606247 32.270792,19.653868 32.350635,19.675776 C 32.681735,19.767331 33.250785,19.87906 34.057787,20.010965 C 34.959423,20.153829 35.612783,20.225259 36.017866,20.225257 L 37.73395,20.225257 C 37.825605,20.225259 37.896561,20.325978 37.94682,20.527414 C 37.982269,20.655633 37.999997,20.758196 38.000003,20.835104 L 38.000003,20.835104 z M 36.873675,20.977966 C 36.430248,21.018321 36.14791,21.038499 36.026662,21.038498 L 33.459235,20.736341 C 33.438483,21.080642 33.602544,21.377321 33.95142,21.626378 C 34.226312,21.824127 34.467239,21.923002 34.674202,21.923002 C 34.913638,21.923002 35.29941,21.814961 35.831521,21.598879 C 36.328166,21.40113 36.665221,21.234459 36.842685,21.098862 C 36.86334,21.08053 36.873669,21.040231 36.873675,20.977966 L 36.873675,20.977966 z "
       id="text2737" />
    <path
       sodipodi:type="inkscape:offset"
       inkscape:radius="-1"
       inkscape:original="M 10.5 34.5 L 8.5 43.5 L 39.5 43.5 L 37.5 34.5 L 10.5 34.5 z "
       style="opacity:0.15;fill:none;fill-opacity:1;fill-rule:nonzero;stroke:url(#linearGradient3210);stroke-width:0.99999988;stroke-linecap:round;stroke-linejoin:round;stroke-miterlimit:4;stroke-dashoffset:0;stroke-opacity:1"
       id="path3202"
       d="M 11.28125,35.5 L 9.75,42.5 L 38.25,42.5 L 36.71875,35.5 L 11.28125,35.5 z " />
  </g>
</svg>
