<?xml version="1.0" encoding="UTF-8" standalone="no"?>
<!-- Created with Inkscape (http://www.inkscape.org/) -->
<svg
   xmlns:dc="http://purl.org/dc/elements/1.1/"
   xmlns:cc="http://web.resource.org/cc/"
   xmlns:rdf="http://www.w3.org/1999/02/22-rdf-syntax-ns#"
   xmlns:svg="http://www.w3.org/2000/svg"
   xmlns="http://www.w3.org/2000/svg"
   xmlns:xlink="http://www.w3.org/1999/xlink"
   xmlns:sodipodi="http://sodipodi.sourceforge.net/DTD/sodipodi-0.dtd"
   xmlns:inkscape="http://www.inkscape.org/namespaces/inkscape"
   width="48"
   height="48"
   id="svg2170"
   sodipodi:version="0.32"
   inkscape:version="0.45.1"
   sodipodi:docbase="/home/dobey/Projects/gnome-icon-theme-extras/Gadgetango/scalable/devices"
   sodipodi:docname="multimedia-player-sandisk-sansa-e200.svg"
   inkscape:output_extension="org.inkscape.output.svg.inkscape"
   version="1.0"
   inkscape:export-filename="/home/klepas/Documents/work/Tango/multimedia-player-e200/48x48/multimedia-player-e200.png"
   inkscape:export-xdpi="90"
   inkscape:export-ydpi="90">
  <defs
     id="defs2172">
    <linearGradient
       id="linearGradient10720">
      <stop
         style="stop-color:#ffffff;stop-opacity:1;"
         offset="0"
         id="stop10722" />
      <stop
         style="stop-color:#5e6259;stop-opacity:1;"
         offset="1"
         id="stop10724" />
    </linearGradient>
    <linearGradient
       inkscape:collect="always"
       id="linearGradient10704">
      <stop
         style="stop-color:#ffffff;stop-opacity:1;"
         offset="0"
         id="stop10706" />
      <stop
         style="stop-color:#ffffff;stop-opacity:0;"
         offset="1"
         id="stop10708" />
    </linearGradient>
    <linearGradient
       id="linearGradient9282">
      <stop
         style="stop-color:#2e3436;stop-opacity:1;"
         offset="0"
         id="stop9284" />
      <stop
         style="stop-color:#000000;stop-opacity:1;"
         offset="1"
         id="stop9286" />
    </linearGradient>
    <linearGradient
       inkscape:collect="always"
       id="linearGradient8881">
      <stop
         style="stop-color:#2e3436;stop-opacity:1;"
         offset="0"
         id="stop8883" />
      <stop
         style="stop-color:#2e3436;stop-opacity:0;"
         offset="1"
         id="stop8885" />
    </linearGradient>
    <linearGradient
       id="linearGradient5710">
      <stop
         style="stop-color:#888a85;stop-opacity:1;"
         offset="0"
         id="stop5712" />
      <stop
         style="stop-color:#888a85;stop-opacity:0;"
         offset="1"
         id="stop5714" />
    </linearGradient>
    <linearGradient
       inkscape:collect="always"
       id="linearGradient3224">
      <stop
         style="stop-color:#eeeeec;stop-opacity:1;"
         offset="0"
         id="stop3226" />
      <stop
         style="stop-color:#eeeeec;stop-opacity:0;"
         offset="1"
         id="stop3228" />
    </linearGradient>
    <linearGradient
       id="linearGradient8644">
      <stop
         id="stop8646"
         offset="0"
         style="stop-color:#ffffff;stop-opacity:1;" />
      <stop
         id="stop8648"
         offset="1"
         style="stop-color:#878787;stop-opacity:1;" />
    </linearGradient>
    <linearGradient
       id="linearGradient5048">
      <stop
         id="stop5050"
         offset="0"
         style="stop-color:black;stop-opacity:0;" />
      <stop
         style="stop-color:black;stop-opacity:1;"
         offset="0.5"
         id="stop5056" />
      <stop
         id="stop5052"
         offset="1"
         style="stop-color:black;stop-opacity:0;" />
    </linearGradient>
    <linearGradient
       id="linearGradient5060"
       inkscape:collect="always">
      <stop
         id="stop5062"
         offset="0"
         style="stop-color:black;stop-opacity:1;" />
      <stop
         id="stop5064"
         offset="1"
         style="stop-color:black;stop-opacity:0;" />
    </linearGradient>
    <linearGradient
       id="linearGradient3624">
      <stop
         id="stop3626"
         offset="0"
         style="stop-color:#ffffff;stop-opacity:1;" />
      <stop
         id="stop3628"
         offset="1"
         style="stop-color:#7a7a7a;stop-opacity:1;" />
    </linearGradient>
    <linearGradient
       id="linearGradient4947">
      <stop
         id="stop4949"
         offset="0"
         style="stop-color:#5c5c5c;stop-opacity:1;" />
      <stop
         id="stop4951"
         offset="1"
         style="stop-color:#ababab;stop-opacity:1;" />
    </linearGradient>
    <linearGradient
       id="linearGradient5047"
       inkscape:collect="always">
      <stop
         id="stop5049"
         offset="0"
         style="stop-color:#000000;stop-opacity:1;" />
      <stop
         id="stop5051"
         offset="1"
         style="stop-color:#000000;stop-opacity:0;" />
    </linearGradient>
    <linearGradient
       id="linearGradient10350"
       inkscape:collect="always">
      <stop
         id="stop10352"
         offset="0"
         style="stop-color:#ffffff;stop-opacity:1;" />
      <stop
         id="stop10354"
         offset="1"
         style="stop-color:#ffffff;stop-opacity:0;" />
    </linearGradient>
    <linearGradient
       id="linearGradient10393">
      <stop
         id="stop10395"
         offset="0"
         style="stop-color:#b0b0b0;stop-opacity:1;" />
      <stop
         id="stop10397"
         offset="1"
         style="stop-color:#5b5b5b;stop-opacity:1;" />
    </linearGradient>
    <linearGradient
       inkscape:collect="always"
       xlink:href="#linearGradient3624"
       id="linearGradient8012"
       gradientUnits="userSpaceOnUse"
       x1="24.5"
       y1="24.941668"
       x2="24.500000"
       y2="28.133331"
       gradientTransform="translate(96.014388,0)" />
    <radialGradient
       inkscape:collect="always"
       xlink:href="#linearGradient5047"
       id="radialGradient8269"
       gradientUnits="userSpaceOnUse"
       gradientTransform="matrix(1,0,0,0.30131,0,30.63319)"
       cx="37.53125"
       cy="43.84375"
       fx="37.53125"
       fy="43.84375"
       r="7.15625" />
    <linearGradient
       inkscape:collect="always"
       xlink:href="#linearGradient3224"
       id="linearGradient10760"
       gradientUnits="userSpaceOnUse"
       gradientTransform="matrix(1.1764707,0,0,1.1126478,-62.235297,-2.3448588)"
       x1="69.506073"
       y1="13.698171"
       x2="79.408714"
       y2="39.208645" />
    <linearGradient
       inkscape:collect="always"
       xlink:href="#linearGradient8644"
       id="linearGradient10771"
       gradientUnits="userSpaceOnUse"
       gradientTransform="matrix(1,0,0,1.25,-34.999999,-4.3749997)"
       x1="59.562515"
       y1="12.775"
       x2="70.000015"
       y2="26.200001" />
    <linearGradient
       inkscape:collect="always"
       xlink:href="#linearGradient5710"
       id="linearGradient10774"
       gradientUnits="userSpaceOnUse"
       gradientTransform="translate(-5,1.8924475e-6)"
       x1="27.749992"
       y1="15.25"
       x2="50.624996"
       y2="61.625" />
    <linearGradient
       inkscape:collect="always"
       xlink:href="#linearGradient5048"
       id="linearGradient10778"
       gradientUnits="userSpaceOnUse"
       gradientTransform="matrix(2.774389,0,0,1.969706,-1892.179,-872.8854)"
       x1="302.85715"
       y1="366.64789"
       x2="302.85715"
       y2="609.50507" />
    <radialGradient
       inkscape:collect="always"
       xlink:href="#linearGradient5060"
       id="radialGradient10780"
       gradientUnits="userSpaceOnUse"
       gradientTransform="matrix(2.774389,0,0,1.969706,-1891.633,-872.8854)"
       cx="605.71429"
       cy="486.64789"
       fx="605.71429"
       fy="486.64789"
       r="117.14286" />
    <radialGradient
       inkscape:collect="always"
       xlink:href="#linearGradient5060"
       id="radialGradient10782"
       gradientUnits="userSpaceOnUse"
       gradientTransform="matrix(-2.774389,0,0,1.969706,112.7623,-872.8854)"
       cx="605.71429"
       cy="486.64789"
       fx="605.71429"
       fy="486.64789"
       r="117.14286" />
    <linearGradient
       inkscape:collect="always"
       xlink:href="#linearGradient10393"
       id="linearGradient10792"
       x1="57.335133"
       y1="28.591352"
       x2="63.888939"
       y2="40.039333"
       gradientUnits="userSpaceOnUse" />
    <radialGradient
       inkscape:collect="always"
       xlink:href="#linearGradient5047"
       id="radialGradient11686"
       gradientUnits="userSpaceOnUse"
       gradientTransform="matrix(1,0,0,0.30131,0,30.63319)"
       cx="37.53125"
       cy="43.84375"
       fx="37.53125"
       fy="43.84375"
       r="7.15625" />
    <radialGradient
       inkscape:collect="always"
       xlink:href="#linearGradient10393"
       id="radialGradient11690"
       gradientUnits="userSpaceOnUse"
       cx="31.269901"
       cy="36.116917"
       fx="31.269901"
       fy="36.116917"
       r="5.3125" />
    <linearGradient
       inkscape:collect="always"
       xlink:href="#linearGradient10720"
       id="linearGradient11701"
       gradientUnits="userSpaceOnUse"
       x1="10.088817"
       y1="49.193985"
       x2="9.8219881"
       y2="50.832207"
       gradientTransform="translate(3.0980767,0.6339736)" />
    <linearGradient
       inkscape:collect="always"
       xlink:href="#linearGradient9282"
       id="linearGradient11703"
       gradientUnits="userSpaceOnUse"
       x1="8.8512592"
       y1="47.832687"
       x2="8.8299723"
       y2="52.440712"
       gradientTransform="translate(3.0980767,0.6339736)" />
    <linearGradient
       inkscape:collect="always"
       xlink:href="#linearGradient10720"
       id="linearGradient11706"
       gradientUnits="userSpaceOnUse"
       x1="14.906082"
       y1="49.146111"
       x2="14.761026"
       y2="50.683853"
       gradientTransform="translate(3.0980767,0.6339736)" />
    <linearGradient
       inkscape:collect="always"
       xlink:href="#linearGradient9282"
       id="linearGradient11708"
       gradientUnits="userSpaceOnUse"
       x1="13.554059"
       y1="48.268845"
       x2="13.373383"
       y2="51.237896"
       gradientTransform="translate(3.0980767,0.6339736)" />
    <linearGradient
       inkscape:collect="always"
       xlink:href="#linearGradient10704"
       id="linearGradient11714"
       gradientUnits="userSpaceOnUse"
       x1="45.378494"
       y1="35.176777"
       x2="40.305229"
       y2="29.011459"
       gradientTransform="matrix(1,0,0,0.8740938,2.875,3.2286399)" />
    <linearGradient
       inkscape:collect="always"
       xlink:href="#linearGradient9282"
       id="linearGradient12186"
       x1="31"
       y1="1"
       x2="34"
       y2="5.3838835"
       gradientUnits="userSpaceOnUse"
       gradientTransform="translate(-1,0)" />
    <linearGradient
       inkscape:collect="always"
       xlink:href="#linearGradient10720"
       id="linearGradient12196"
       gradientTransform="matrix(0.6546537,0,0,1.5275252,-1,0)"
       x1="48.833069"
       y1="0.96152258"
       x2="50.742477"
       y2="1.8821292"
       gradientUnits="userSpaceOnUse" />
    <linearGradient
       inkscape:collect="always"
       xlink:href="#linearGradient9282"
       id="linearGradient12424"
       x1="10.893235"
       y1="36.43845"
       x2="15.50736"
       y2="44.76833"
       gradientUnits="userSpaceOnUse" />
    <linearGradient
       inkscape:collect="always"
       xlink:href="#linearGradient10350"
       id="linearGradient12430"
       gradientUnits="userSpaceOnUse"
       x1="11.980334"
       y1="35.990837"
       x2="15.065362"
       y2="46.266663" />
    <linearGradient
       inkscape:collect="always"
       xlink:href="#linearGradient4947"
       id="linearGradient12432"
       gradientUnits="userSpaceOnUse"
       x1="13.727494"
       y1="48.561176"
       x2="13.727494"
       y2="37.353321" />
    <linearGradient
       inkscape:collect="always"
       xlink:href="#linearGradient10350"
       id="linearGradient12443"
       gradientUnits="userSpaceOnUse"
       x1="11.980334"
       y1="35.990837"
       x2="15.065362"
       y2="46.266663" />
    <linearGradient
       inkscape:collect="always"
       xlink:href="#linearGradient8881"
       id="linearGradient12445"
       gradientUnits="userSpaceOnUse"
       gradientTransform="matrix(1.2926204,0,0,1.2926204,-5.6145314,-7.4205745)"
       x1="14.375"
       y1="37.6875"
       x2="10.9375"
       y2="31.4375" />
    <linearGradient
       inkscape:collect="always"
       xlink:href="#linearGradient10350"
       id="linearGradient5121"
       gradientUnits="userSpaceOnUse"
       x1="11.980334"
       y1="35.990837"
       x2="15.065362"
       y2="46.266663" />
    <linearGradient
       inkscape:collect="always"
       xlink:href="#linearGradient9282"
       id="linearGradient5125"
       gradientUnits="userSpaceOnUse"
       x1="10.893235"
       y1="36.43845"
       x2="15.50736"
       y2="44.76833" />
    <linearGradient
       inkscape:collect="always"
       xlink:href="#linearGradient10350"
       id="linearGradient5127"
       gradientUnits="userSpaceOnUse"
       x1="11.980334"
       y1="35.990837"
       x2="15.065362"
       y2="46.266663" />
    <linearGradient
       inkscape:collect="always"
       xlink:href="#linearGradient9282"
       id="linearGradient5133"
       gradientUnits="userSpaceOnUse"
       x1="10.893235"
       y1="36.43845"
       x2="15.50736"
       y2="44.76833"
       gradientTransform="matrix(1.3831731,0,0,1.3831731,-28.487501,-20.529809)" />
    <linearGradient
       inkscape:collect="always"
       xlink:href="#linearGradient10350"
       id="linearGradient5139"
       gradientUnits="userSpaceOnUse"
       x1="11.980334"
       y1="35.990837"
       x2="15.065362"
       y2="46.266663"
       gradientTransform="matrix(1.1855769,0,0,1.1855769,-25.775,-12.382692)" />
    <linearGradient
       inkscape:collect="always"
       xlink:href="#linearGradient9282"
       id="linearGradient5142"
       gradientUnits="userSpaceOnUse"
       gradientTransform="matrix(1.3831731,0,0,1.3831731,-8.487501,-20.529809)"
       x1="10.893235"
       y1="36.43845"
       x2="15.50736"
       y2="44.76833" />
  </defs>
  <sodipodi:namedview
     id="base"
     pagecolor="#ffffff"
     bordercolor="#666666"
     borderopacity="0.14117647"
     inkscape:pageopacity="0.0"
     inkscape:pageshadow="2"
     inkscape:zoom="1"
     inkscape:cx="35.541208"
     inkscape:cy="8.8791843"
     inkscape:current-layer="layer1"
     showgrid="true"
     inkscape:grid-bbox="true"
     inkscape:document-units="px"
     borderlayer="false"
     inkscape:window-width="1440"
     inkscape:window-height="847"
     inkscape:window-x="115"
     inkscape:window-y="101"
     width="48px"
     height="48px"
     inkscape:snap-bbox="false"
     objecttolerance="1"
     gridtolerance="1"
     inkscape:snap-nodes="false"
     inkscape:showpageshadow="false">
    <inkscape:grid
       type="xygrid"
       id="grid5115" />
  </sodipodi:namedview>
  <metadata
     id="metadata2175">
    <rdf:RDF>
      <cc:Work
         rdf:about="">
        <dc:format>image/svg+xml</dc:format>
        <dc:type
           rdf:resource="http://purl.org/dc/dcmitype/StillImage" />
        <dc:title>multimedia-player-e200</dc:title>
        <dc:date>2007-08-19</dc:date>
        <dc:creator>
          <cc:Agent>
            <dc:title>Ashley Kyd</dc:title>
          </cc:Agent>
        </dc:creator>
        <dc:rights>
          <cc:Agent>
            <dc:title />
          </cc:Agent>
        </dc:rights>
        <cc:license
           rdf:resource="http://creativecommons.org/licenses/GPL/2.0/" />
        <dc:subject>
          <rdf:Bag>
            <rdf:li>multimedia</rdf:li>
            <rdf:li>player</rdf:li>
            <rdf:li>e200</rdf:li>
          </rdf:Bag>
        </dc:subject>
        <dc:description>A vector representation of a popular proprietary portable music devic </dc:description>
        <dc:identifier>http://techtoucian.net/regulars/art/multimedia-player-e200/</dc:identifier>
        <dc:contributor>
          <cc:Agent>
            <dc:title>Simon Pascal Klein</dc:title>
          </cc:Agent>
        </dc:contributor>
      </cc:Work>
      <cc:License
         rdf:about="http://creativecommons.org/licenses/GPL/2.0/">
        <cc:permits
           rdf:resource="http://web.resource.org/cc/Reproduction" />
        <cc:permits
           rdf:resource="http://web.resource.org/cc/Distribution" />
        <cc:requires
           rdf:resource="http://web.resource.org/cc/Notice" />
        <cc:permits
           rdf:resource="http://web.resource.org/cc/DerivativeWorks" />
        <cc:requires
           rdf:resource="http://web.resource.org/cc/ShareAlike" />
        <cc:requires
           rdf:resource="http://web.resource.org/cc/SourceCode" />
      </cc:License>
    </rdf:RDF>
  </metadata>
  <g
     id="layer1"
     inkscape:label="Layer 1"
     inkscape:groupmode="layer">
    <path
       transform="matrix(0.8384279,0,0,0.9275362,-20.467247,1.3333345)"
       sodipodi:type="arc"
       style="opacity:0.4835165;color:#000000;fill:url(#radialGradient8269);fill-opacity:1;fill-rule:evenodd;stroke:none;stroke-width:1;stroke-linecap:butt;stroke-linejoin:miter;marker:none;marker-start:none;marker-mid:none;marker-end:none;stroke-miterlimit:4;stroke-dasharray:none;stroke-dashoffset:0;stroke-opacity:1;visibility:visible;display:block;overflow:visible"
       id="path5104"
       sodipodi:cx="37.53125"
       sodipodi:cy="43.84375"
       sodipodi:rx="7.15625"
       sodipodi:ry="2.15625"
       d="M 44.6875,43.84375 A 7.15625,2.15625 0 1 1 30.375,43.84375 A 7.15625,2.15625 0 1 1 44.6875,43.84375 z"
       inkscape:r_cx="true"
       inkscape:r_cy="true" />
    <path
       style="fill:none;fill-opacity:0.75;fill-rule:evenodd;stroke:#2e3436;stroke-width:1.91250205;stroke-linecap:butt;stroke-linejoin:round;stroke-miterlimit:4;stroke-dasharray:none;stroke-opacity:1;display:inline"
       d="M 43.373562,33.857875 C 49.837744,29.99307 37.51846,28.538501 36.831251,28.725904"
       id="path10310"
       sodipodi:nodetypes="cs" />
    <path
       style="fill:none;fill-opacity:1;fill-rule:evenodd;stroke:url(#linearGradient11714);stroke-width:0.78483576;stroke-linecap:butt;stroke-linejoin:miter;stroke-miterlimit:4;stroke-dasharray:none;stroke-opacity:1;display:inline"
       d="M 43.432581,33.633432 C 50.095639,29.971091 36.472626,28.100425 35.785407,28.26405"
       id="path10312"
       sodipodi:nodetypes="cs" />
    <path
       transform="matrix(1.3831731,0,0,1.3831731,-8.4875006,-20.529809)"
       d="M 18.788321,41.231144 A 5.0608273,5.0608273 0 1 1 8.666667,41.231144 A 5.0608273,5.0608273 0 1 1 18.788321,41.231144 z"
       sodipodi:ry="5.0608273"
       sodipodi:rx="5.0608273"
       sodipodi:cy="41.231144"
       sodipodi:cx="13.727494"
       id="path8190"
       style="fill:none;fill-opacity:1;stroke:url(#linearGradient12424);stroke-width:0.72297531;stroke-linecap:round;stroke-linejoin:round;stroke-miterlimit:4;stroke-dasharray:none;stroke-opacity:1;display:inline"
       sodipodi:type="arc"
       inkscape:r_cx="true"
       inkscape:r_cy="true" />
    <path
       transform="matrix(1.284375,0,0,1.284375,-7.1312503,-16.45625)"
       d="M 18.788321,41.231144 A 5.0608273,5.0608273 0 1 1 8.666667,41.231144 A 5.0608273,5.0608273 0 1 1 18.788321,41.231144 z"
       sodipodi:ry="5.0608273"
       sodipodi:rx="5.0608273"
       sodipodi:cy="41.231144"
       sodipodi:cx="13.727494"
       id="path8192"
       style="fill:url(#linearGradient12432);fill-opacity:1;stroke:none;stroke-width:1.79999995;stroke-linecap:round;stroke-linejoin:round;stroke-miterlimit:4;stroke-dasharray:none;stroke-opacity:1;display:inline"
       sodipodi:type="arc"
       inkscape:r_cx="true"
       inkscape:r_cy="true" />
    <path
       inkscape:r_cy="true"
       inkscape:r_cx="true"
       sodipodi:type="arc"
       style="opacity:0.75;fill:none;fill-opacity:1;stroke:url(#linearGradient12430);stroke-width:0.84347129;stroke-linecap:round;stroke-linejoin:round;stroke-miterlimit:4;stroke-dasharray:none;stroke-opacity:1;display:inline"
       id="path10341"
       sodipodi:cx="13.727494"
       sodipodi:cy="41.231144"
       sodipodi:rx="5.0608273"
       sodipodi:ry="5.0608273"
       d="M 18.788321,41.231144 A 5.0608273,5.0608273 0 1 1 8.666667,41.231144 A 5.0608273,5.0608273 0 1 1 18.788321,41.231144 z"
       transform="matrix(1.1855769,0,0,1.1855769,-5.7749999,-12.382692)" />
    <path
       style="fill:url(#linearGradient12445);fill-opacity:1;stroke:none;stroke-width:1.79999994999999990;stroke-linecap:round;stroke-linejoin:round;stroke-miterlimit:4;stroke-dasharray:none;stroke-opacity:1;display:inline"
       d="M 10.5 31 C 10.320436 31 10.143864 31.014497 9.96875 31.03125 C 10.08086 31.231168 10.288377 31.375 10.53125 31.375 C 10.774125 31.375 10.98164 31.231168 11.09375 31.03125 C 10.898979 31.010446 10.700367 31 10.5 31 z M 9.28125 31.375 C 8.9244876 31.375 8.625 31.674488 8.625 32.03125 C 8.6249996 32.388017 8.9244864 32.625 9.28125 32.625 C 9.6380131 32.624999 9.875 32.388015 9.875 32.03125 C 9.8750002 31.67449 9.6380127 31.375 9.28125 31.375 z M 11.84375 31.375 C 11.486988 31.375 11.1875 31.674488 11.1875 32.03125 C 11.1875 32.388017 11.486988 32.625 11.84375 32.625 C 12.20051 32.624999 12.5 32.388015 12.5 32.03125 C 12.5 31.67449 12.20051 31.375 11.84375 31.375 z M 7.3125 32.03125 C 7.073466 32.202539 6.8644678 32.418433 6.65625 32.625 C 7.0130131 32.624999 7.3124994 32.388015 7.3125 32.03125 z M 13.75 32.09375 C 13.784298 32.403683 14.056394 32.610742 14.375 32.625 C 14.18259 32.43259 13.969157 32.256019 13.75 32.09375 z M 7.96875 32.625 C 7.6119866 32.624999 7.3124998 32.924485 7.3125 33.28125 C 7.3124992 33.638012 7.6119869 33.9375 7.96875 33.9375 C 8.3255132 33.937503 8.625 33.638013 8.625 33.28125 C 8.6249996 32.924484 8.3255133 32.625 7.96875 32.625 z M 10.53125 32.625 C 10.174487 32.624999 9.875 32.924485 9.875 33.28125 C 9.8750002 33.638012 10.174487 33.9375 10.53125 33.9375 C 10.888015 33.937503 11.1875 33.638013 11.1875 33.28125 C 11.1875 32.924484 10.888015 32.625 10.53125 32.625 z M 13.15625 32.625 C 12.799488 32.624999 12.5 32.924485 12.5 33.28125 C 12.5 33.638012 12.799488 33.9375 13.15625 33.9375 C 13.513015 33.937503 13.75 33.638013 13.75 33.28125 C 13.75 32.924484 13.513015 32.625 13.15625 32.625 z M 6 33.375 C 5.8961429 33.523775 5.7765083 33.653434 5.6875 33.8125 C 5.8413664 33.712591 5.971319 33.562557 6 33.375 z M 6.65625 33.9375 C 6.2994868 33.937503 5.9999998 34.236989 6 34.59375 C 6.0000002 34.950515 6.2994861 35.25 6.65625 35.25 C 7.0130131 35.249999 7.3124994 34.950513 7.3125 34.59375 C 7.3124992 34.236991 7.0130128 33.9375 6.65625 33.9375 z M 9.28125 33.9375 C 8.9244876 33.937503 8.625 34.236991 8.625 34.59375 C 8.6249996 34.950515 8.9244864 35.250004 9.28125 35.25 C 9.6380131 35.249999 9.875 34.950518 9.875 34.59375 C 9.8750002 34.236991 9.6380127 33.937502 9.28125 33.9375 z M 11.84375 33.9375 C 11.486988 33.937503 11.1875 34.236991 11.1875 34.59375 C 11.1875 34.950515 11.486988 35.250004 11.84375 35.25 C 12.20051 35.249999 12.5 34.950518 12.5 34.59375 C 12.5 34.236991 12.20051 33.937502 11.84375 33.9375 z M 14.40625 33.9375 C 14.049488 33.937503 13.75 34.236991 13.75 34.59375 C 13.75 34.950515 14.049488 35.250004 14.40625 35.25 C 14.763013 35.249999 15.0625 34.950518 15.0625 34.59375 C 15.0625 34.236991 14.763013 33.937502 14.40625 33.9375 z M 5.34375 35.25 C 5.2765139 35.25 5.2154631 35.261842 5.15625 35.28125 C 5.0732667 35.651384 5.0044145 36.043093 5 36.4375 C 5.096295 36.504718 5.213619 36.53125 5.34375 36.53125 C 5.7005133 36.531251 5.9999995 36.263013 6 35.90625 C 6.0000002 35.549488 5.7005129 35.25 5.34375 35.25 z M 7.96875 35.25 C 7.6119866 35.249999 7.3124998 35.549487 7.3125 35.90625 C 7.3124992 36.263013 7.6119869 36.53125 7.96875 36.53125 C 8.3255132 36.531251 8.625 36.263013 8.625 35.90625 C 8.6249996 35.549488 8.3255133 35.25 7.96875 35.25 z M 10.53125 35.25 C 10.174487 35.249999 9.875 35.549489 9.875 35.90625 C 9.8750002 36.263013 10.174487 36.531252 10.53125 36.53125 C 10.888015 36.531251 11.1875 36.263014 11.1875 35.90625 C 11.1875 35.549488 10.888015 35.250004 10.53125 35.25 z M 13.15625 35.25 C 12.799488 35.249999 12.5 35.549487 12.5 35.90625 C 12.5 36.263013 12.799488 36.53125 13.15625 36.53125 C 13.513015 36.531251 13.75 36.263013 13.75 35.90625 C 13.75 35.549488 13.513015 35.25 13.15625 35.25 z M 15.71875 35.4375 C 15.361988 35.4375 15.0625 35.70574 15.0625 36.0625 C 15.0625 36.419262 15.361988 36.718755 15.71875 36.71875 C 15.81638 36.71875 15.913212 36.724069 16 36.6875 C 16.002104 36.624851 16 36.563169 16 36.5 C 16 36.150642 15.937033 35.799883 15.875 35.46875 C 15.819369 35.450361 15.776793 35.4375 15.71875 35.4375 z M 6.65625 36.53125 C 6.2994868 36.531251 5.9999998 36.799489 6 37.15625 C 6.0000002 37.513014 6.2994861 37.812502 6.65625 37.8125 C 7.0130131 37.812499 7.3124994 37.513016 7.3125 37.15625 C 7.3124992 36.799486 7.0130128 36.531252 6.65625 36.53125 z M 9.28125 36.53125 C 8.9244876 36.531251 8.625 36.799489 8.625 37.15625 C 8.6249996 37.513014 8.9244864 37.812502 9.28125 37.8125 C 9.6380131 37.812499 9.875 37.513016 9.875 37.15625 C 9.8750002 36.799486 9.6380127 36.531252 9.28125 36.53125 z M 11.84375 36.53125 C 11.486988 36.531251 11.1875 36.799489 11.1875 37.15625 C 11.1875 37.513014 11.486988 37.812502 11.84375 37.8125 C 12.20051 37.812499 12.5 37.513016 12.5 37.15625 C 12.5 36.799486 12.20051 36.531252 11.84375 36.53125 z M 14.40625 36.53125 C 14.049488 36.531251 13.75 36.799489 13.75 37.15625 C 13.75 37.513014 14.049488 37.812502 14.40625 37.8125 C 14.763013 37.812499 15.0625 37.513016 15.0625 37.15625 C 15.0625 36.799486 14.763013 36.531252 14.40625 36.53125 z M 5.34375 37.8125 C 5.2886616 37.8125 5.2373335 37.830532 5.1875 37.84375 C 5.2945332 38.270931 5.4247832 38.681728 5.625 39.0625 C 5.8453687 38.957224 5.9999996 38.726717 6 38.46875 C 6.0000002 38.111982 5.7005129 37.8125 5.34375 37.8125 z M 7.96875 37.8125 C 7.6119866 37.812499 7.3124998 38.111985 7.3125 38.46875 C 7.3124992 38.82551 7.6119869 39.125 7.96875 39.125 C 8.3255132 39.125001 8.625 38.825513 8.625 38.46875 C 8.6249996 38.111982 8.3255133 37.8125 7.96875 37.8125 z M 10.53125 37.8125 C 10.174487 37.812499 9.875 38.111985 9.875 38.46875 C 9.8750002 38.82551 10.174487 39.125 10.53125 39.125 C 10.888015 39.125001 11.1875 38.825513 11.1875 38.46875 C 11.1875 38.111982 10.888015 37.8125 10.53125 37.8125 z M 13.15625 37.8125 C 12.799488 37.812499 12.5 38.111985 12.5 38.46875 C 12.5 38.82551 12.799488 39.125 13.15625 39.125 C 13.513015 39.125001 13.75 38.825513 13.75 38.46875 C 13.75 38.111982 13.513015 37.8125 13.15625 37.8125 z M 15.71875 37.8125 C 15.361988 37.812499 15.0625 38.111985 15.0625 38.46875 C 15.0625 38.708666 15.20996 38.892153 15.40625 39 C 15.590734 38.637676 15.71143 38.247132 15.8125 37.84375 C 15.78198 37.835416 15.754698 37.8125 15.71875 37.8125 z M 6.65625 39.125 C 6.3335891 39.125001 6.0803662 39.37741 6.03125 39.6875 C 6.2196568 39.950421 6.42542 40.212119 6.65625 40.4375 C 6.6614929 40.442619 6.6822367 40.432402 6.6875 40.4375 C 7.0300612 40.420839 7.3125 40.127524 7.3125 39.78125 C 7.3124992 39.424488 7.0130133 39.125002 6.65625 39.125 z M 9.28125 39.125 C 8.9244876 39.125001 8.625 39.424489 8.625 39.78125 C 8.6249996 40.138016 8.9244864 40.437504 9.28125 40.4375 C 9.6380131 40.437498 9.875 40.138017 9.875 39.78125 C 9.8750002 39.424488 9.6380127 39.125002 9.28125 39.125 z M 11.84375 39.125 C 11.486988 39.125001 11.1875 39.424489 11.1875 39.78125 C 11.1875 40.138016 11.486988 40.437504 11.84375 40.4375 C 12.20051 40.437498 12.5 40.138017 12.5 39.78125 C 12.5 39.424488 12.20051 39.125002 11.84375 39.125 z M 14.40625 39.125 C 14.049488 39.125001 13.75 39.424489 13.75 39.78125 C 13.75 40.114407 14.019157 40.370719 14.34375 40.40625 C 14.588782 40.165089 14.834754 39.908438 15.03125 39.625 C 14.958864 39.344105 14.707925 39.125002 14.40625 39.125 z M 7.96875 40.4375 C 7.6329727 40.437498 7.3444295 40.644321 7.3125 40.96875 C 7.6407884 41.203998 7.9668451 41.403302 8.34375 41.5625 C 8.5111253 41.443795 8.625 41.249425 8.625 41.03125 C 8.6249996 40.674483 8.3255133 40.4375 7.96875 40.4375 z M 10.53125 40.4375 C 10.174487 40.437498 9.875 40.674489 9.875 41.03125 C 9.8750002 41.388012 10.174487 41.687502 10.53125 41.6875 C 10.888015 41.687498 11.1875 41.388015 11.1875 41.03125 C 11.1875 40.674483 10.888015 40.437504 10.53125 40.4375 z M 13.15625 40.4375 C 12.799488 40.437498 12.5 40.674489 12.5 41.03125 C 12.5 41.226783 12.579855 41.411156 12.71875 41.53125 C 13.092006 41.367739 13.425708 41.17599 13.75 40.9375 C 13.707843 40.631294 13.480083 40.437504 13.15625 40.4375 z M 9.28125 41.6875 C 9.1749074 41.687499 9.0579702 41.734976 8.96875 41.78125 C 9.2250238 41.855522 9.4796821 41.900914 9.75 41.9375 C 9.6400094 41.789279 9.4843303 41.687501 9.28125 41.6875 z M 11.84375 41.6875 C 11.650275 41.687499 11.463762 41.769867 11.34375 41.90625 C 11.616234 41.864584 11.867314 41.83001 12.125 41.75 C 12.042356 41.708208 11.943878 41.687501 11.84375 41.6875 z "
       id="path8725" />
    <path
       transform="matrix(1.1855769,0,0,1.1855769,-5.7749999,-12.382692)"
       d="M 18.788321,41.231144 A 5.0608273,5.0608273 0 1 1 8.666667,41.231144 A 5.0608273,5.0608273 0 1 1 18.788321,41.231144 z"
       sodipodi:ry="5.0608273"
       sodipodi:rx="5.0608273"
       sodipodi:cy="41.231144"
       sodipodi:cx="13.727494"
       id="path8858"
       style="opacity:0.75;fill:none;fill-opacity:1;stroke:url(#linearGradient12443);stroke-width:0.84347129;stroke-linecap:round;stroke-linejoin:round;stroke-miterlimit:4;stroke-dasharray:none;stroke-opacity:1;display:inline"
       sodipodi:type="arc"
       inkscape:r_cx="true"
       inkscape:r_cy="true" />
    <g
       style="display:inline"
       id="g5022"
       transform="matrix(1.3790156e-2,0,0,1.6723903e-2,38.265455,42.52024)">
      <rect
         y="-150.69685"
         x="-1559.2523"
         height="478.35718"
         width="1339.6335"
         id="rect4173"
         style="opacity:0.40206185;color:#000000;fill:url(#linearGradient10778);fill-opacity:1;fill-rule:nonzero;stroke:none;stroke-width:1;stroke-linecap:round;stroke-linejoin:miter;marker:none;marker-start:none;marker-mid:none;marker-end:none;stroke-miterlimit:4;stroke-dasharray:none;stroke-dashoffset:0;stroke-opacity:1;visibility:visible;display:inline;overflow:visible" />
      <path
         sodipodi:nodetypes="cccc"
         id="path5058"
         d="M -219.61876,-150.68038 C -219.61876,-150.68038 -219.61876,327.65041 -219.61876,327.65041 C -76.744594,328.55086 125.78146,220.48075 125.78138,88.454235 C 125.78138,-43.572302 -33.655436,-150.68036 -219.61876,-150.68038 z"
         style="opacity:0.40206185;color:#000000;fill:url(#radialGradient10780);fill-opacity:1;fill-rule:nonzero;stroke:none;stroke-width:1;stroke-linecap:round;stroke-linejoin:miter;marker:none;marker-start:none;marker-mid:none;marker-end:none;stroke-miterlimit:4;stroke-dasharray:none;stroke-dashoffset:0;stroke-opacity:1;visibility:visible;display:inline;overflow:visible" />
      <path
         style="opacity:0.40206185;color:#000000;fill:url(#radialGradient10782);fill-opacity:1;fill-rule:nonzero;stroke:none;stroke-width:1;stroke-linecap:round;stroke-linejoin:miter;marker:none;marker-start:none;marker-mid:none;marker-end:none;stroke-miterlimit:4;stroke-dasharray:none;stroke-dashoffset:0;stroke-opacity:1;visibility:visible;display:inline;overflow:visible"
         d="M -1559.2523,-150.68038 C -1559.2523,-150.68038 -1559.2523,327.65041 -1559.2523,327.65041 C -1702.1265,328.55086 -1904.6525,220.48075 -1904.6525,88.454235 C -1904.6525,-43.572302 -1745.2157,-150.68036 -1559.2523,-150.68038 z"
         id="path5018"
         sodipodi:nodetypes="cccc" />
    </g>
    <rect
       style="fill:url(#linearGradient12196);fill-opacity:1;stroke:url(#linearGradient12186);stroke-width:1;stroke-linecap:butt;stroke-linejoin:round;stroke-miterlimit:4;stroke-dasharray:none;stroke-opacity:1"
       id="rect4119"
       width="2"
       height="6"
       x="30.5"
       y="1.5"
       ry="1.2" />
    <rect
       style="fill:#2e3436;fill-opacity:1;stroke:#000000;stroke-width:1;stroke-linecap:butt;stroke-linejoin:round;stroke-miterlimit:4;stroke-dasharray:none;stroke-opacity:1"
       id="rect3930"
       width="23"
       height="41"
       x="14.5"
       y="4.5"
       rx="2.9999998" />
    <path
       sodipodi:nodetypes="cccccccccccccccc"
       id="path10811"
       d="M 21.593296,39.644417 C 24.270793,41.421497 27.763978,41.454571 30.423773,39.724308 L 25.968589,35.269123 L 21.593296,39.644417 z M 19.324134,37.328208 L 23.675904,32.976438 L 19.268369,28.568903 C 17.550804,31.20918 17.58562,34.658584 19.324134,37.328208 z M 32.705513,37.442569 C 34.452827,34.780668 34.42849,31.273902 32.649145,28.588567 L 28.250329,32.987384 L 32.705513,37.442569 z M 25.957642,30.694698 L 30.332937,26.319405 C 27.655503,24.578838 24.192475,24.552673 21.550108,26.287164 L 25.957642,30.694698 z"
       style="opacity:1;fill:#000000;fill-opacity:1;stroke:none;stroke-width:0.5;stroke-linecap:butt;stroke-linejoin:round;stroke-miterlimit:4;stroke-dasharray:none;stroke-opacity:1" />
    <rect
       rx="1.9436353"
       y="5.5000019"
       x="15.499992"
       height="39"
       width="21.000004"
       id="rect3934"
       style="fill:none;fill-opacity:1;stroke:url(#linearGradient10774);stroke-width:0.99999994;stroke-linecap:butt;stroke-linejoin:round;stroke-miterlimit:4;stroke-dasharray:none;stroke-opacity:1" />
    <g
       style="display:inline"
       id="g11258"
       transform="matrix(0.9276622,0,0,0.8244972,6.020623,8.9325363)">
      <g
         style="fill:#ffffff;fill-opacity:1"
         id="g11260">
        <path
           sodipodi:type="star"
           style="opacity:1;fill:#ffffff;fill-opacity:1;stroke:none;stroke-width:0.25;stroke-linecap:round;stroke-linejoin:round;stroke-miterlimit:4;stroke-dasharray:none;stroke-opacity:1;display:inline"
           id="path11262"
           sodipodi:sides="3"
           sodipodi:cx="16.875"
           sodipodi:cy="5.75"
           sodipodi:r1="0.6502704"
           sodipodi:r2="0.3251352"
           sodipodi:arg1="0.95613337"
           sodipodi:arg2="2.0033309"
           inkscape:flatsided="false"
           inkscape:rounded="0"
           inkscape:randomized="0"
           d="M 17.25,6.28125 L 16.738712,6.0451923 L 16.227424,5.8091345 L 16.6875,5.484375 L 17.147576,5.1596154 L 17.198788,5.7204327 L 17.25,6.28125 z"
           transform="matrix(0.314794,-0.435197,0.44667,0.307983,21.21828,34.76076)" />
        <path
           sodipodi:type="star"
           style="opacity:1;fill:#ffffff;fill-opacity:1;stroke:none;stroke-width:0.25;stroke-linecap:round;stroke-linejoin:round;stroke-miterlimit:4;stroke-dasharray:none;stroke-opacity:1;display:inline"
           id="path11264"
           sodipodi:sides="3"
           sodipodi:cx="16.875"
           sodipodi:cy="5.75"
           sodipodi:r1="0.6502704"
           sodipodi:r2="0.3251352"
           sodipodi:arg1="0.95613337"
           sodipodi:arg2="2.0033309"
           inkscape:flatsided="false"
           inkscape:rounded="0"
           inkscape:randomized="0"
           d="M 17.25,6.28125 L 16.738712,6.0451923 L 16.227424,5.8091345 L 16.6875,5.484375 L 17.147576,5.1596154 L 17.198788,5.7204327 L 17.25,6.28125 z"
           transform="matrix(0.314794,-0.435197,0.44667,0.307983,20.71828,34.76076)" />
      </g>
      <rect
         ry="0"
         y="28.891544"
         x="29.455418"
         height="0.60214609"
         width="0.10496103"
         id="rect11266"
         style="opacity:1;fill:#ffffff;fill-opacity:1;stroke:none;stroke-width:0.5;stroke-linecap:round;stroke-linejoin:round;stroke-miterlimit:4;stroke-dasharray:none;stroke-opacity:1" />
    </g>
    <rect
       style="fill:#729fcf;fill-opacity:1;stroke:url(#linearGradient10771);stroke-width:1.00000011999999994;stroke-linecap:butt;stroke-linejoin:miter;stroke-miterlimit:4;stroke-dasharray:none;stroke-opacity:1"
       id="rect3952"
       width="17"
       height="15"
       x="17.500015"
       y="7.500001" />
    <path
       transform="matrix(0.7272728,0,0,0.7272726,-18.590914,7.5454601)"
       d="M 68.875,35 A 7.5625,7.5625 0 1 1 53.75,35 A 7.5625,7.5625 0 1 1 68.875,35 z"
       sodipodi:ry="7.5625"
       sodipodi:rx="7.5625"
       sodipodi:cy="35"
       sodipodi:cx="61.3125"
       id="path3979"
       style="fill:#2e3436;fill-opacity:1;stroke:#7fb5ee;stroke-width:1.375;stroke-linecap:butt;stroke-linejoin:miter;stroke-miterlimit:4;stroke-dasharray:none;stroke-opacity:1"
       sodipodi:type="arc" />
    <path
       sodipodi:type="arc"
       style="fill:#2e3436;fill-opacity:1;stroke:#d3d7cf;stroke-width:1.17114711;stroke-linecap:butt;stroke-linejoin:round;stroke-miterlimit:4;stroke-dasharray:none;stroke-opacity:1"
       id="path4002"
       sodipodi:cx="67.153046"
       sodipodi:cy="41.172001"
       sodipodi:rx="1.1711456"
       sodipodi:ry="1.1711456"
       d="M 68.324191,41.172001 A 1.1711456,1.1711456 0 1 1 65.9819,41.172001 A 1.1711456,1.1711456 0 1 1 68.324191,41.172001 z"
       transform="matrix(0.8538635,0,0,0.8538641,-38.839536,6.3447071)" />
    <path
       style="opacity:0.12000002;fill:#000000;fill-opacity:1;fill-rule:evenodd;stroke:none;stroke-width:1;stroke-linecap:butt;stroke-linejoin:miter;stroke-miterlimit:4;stroke-dasharray:none;stroke-opacity:1"
       d="M 20.85477,16.000166 C 19.922797,15.99323 18.980125,16.20249 18,16.800144 L 18.066388,22 L 34,22 L 33.93361,17.111247 C 28.68966,20.327092 24.893324,16.03022 20.85477,16.000166 z"
       id="path4068" />
    <path
       sodipodi:type="arc"
       style="opacity:0.72043014000000005;fill:url(#linearGradient10792);fill-opacity:1;stroke:none;stroke-width:1.49469243999999990;stroke-linecap:butt;stroke-linejoin:miter;stroke-miterlimit:4;stroke-dasharray:none;stroke-opacity:1"
       id="path4000"
       sodipodi:cx="61.3125"
       sodipodi:cy="35"
       sodipodi:rx="7.5625"
       sodipodi:ry="7.5625"
       d="M 68.875,35 A 7.5625,7.5625 0 1 1 53.75,35 A 7.5625,7.5625 0 1 1 68.875,35 z"
       transform="matrix(-0.661157,0,0,-0.661157,66.537188,56.140496)" />
    <path
       style="opacity:0.25806448;fill:url(#linearGradient10760);fill-opacity:1;stroke:none;stroke-width:1;stroke-linecap:butt;stroke-linejoin:round;stroke-miterlimit:4;stroke-dasharray:none;stroke-opacity:1"
       d="M 17.463234,6 C 16.710426,6 16,6.5486272 16,7.5041371 L 16,43.204163 C 16,43.82634 16.822301,43.689658 17.336634,44 C 23.794845,43.360725 23.870167,18.354599 30.794909,12.169151 L 36,7.5197621 C 36,6.6258335 35.437268,6 34.474265,6 L 17.463234,6 z"
       id="rect4053"
       sodipodi:nodetypes="ccccsccc" />
    <rect
       style="fill:none;fill-opacity:1;stroke:#141414;stroke-width:0.99999988;stroke-linecap:butt;stroke-linejoin:round;stroke-miterlimit:4;stroke-dasharray:none;stroke-opacity:1"
       id="rect5762"
       width="19"
       height="37.000004"
       x="16.499994"
       y="6.5"
       rx="0.9375"
       ry="0.9375" />
    <g
       transform="matrix(1.315757,0,0,1.315757,37.663063,-9.5703671)"
       id="g6589"
       style="fill:#a2a6a7;fill-opacity:1;display:inline" />
    <g
       transform="matrix(-0.9276622,0,0,0.8244972,45.995144,8.9325363)"
       id="g3596"
       style="display:inline">
      <g
         id="g3598"
         style="fill:#ffffff;fill-opacity:1">
        <path
           transform="matrix(0.314794,-0.435197,0.44667,0.307983,21.21828,34.76076)"
           d="M 17.25,6.28125 L 16.738712,6.0451923 L 16.227424,5.8091345 L 16.6875,5.484375 L 17.147576,5.1596154 L 17.198788,5.7204327 L 17.25,6.28125 z"
           inkscape:randomized="0"
           inkscape:rounded="0"
           inkscape:flatsided="false"
           sodipodi:arg2="2.0033309"
           sodipodi:arg1="0.95613337"
           sodipodi:r2="0.3251352"
           sodipodi:r1="0.6502704"
           sodipodi:cy="5.75"
           sodipodi:cx="16.875"
           sodipodi:sides="3"
           id="path3600"
           style="opacity:1;fill:#ffffff;fill-opacity:1;stroke:none;stroke-width:0.25;stroke-linecap:round;stroke-linejoin:round;stroke-miterlimit:4;stroke-dasharray:none;stroke-opacity:1;display:inline"
           sodipodi:type="star" />
        <path
           transform="matrix(0.314794,-0.435197,0.44667,0.307983,20.71828,34.76076)"
           d="M 17.25,6.28125 L 16.738712,6.0451923 L 16.227424,5.8091345 L 16.6875,5.484375 L 17.147576,5.1596154 L 17.198788,5.7204327 L 17.25,6.28125 z"
           inkscape:randomized="0"
           inkscape:rounded="0"
           inkscape:flatsided="false"
           sodipodi:arg2="2.0033309"
           sodipodi:arg1="0.95613337"
           sodipodi:r2="0.3251352"
           sodipodi:r1="0.6502704"
           sodipodi:cy="5.75"
           sodipodi:cx="16.875"
           sodipodi:sides="3"
           id="path3602"
           style="opacity:1;fill:#ffffff;fill-opacity:1;stroke:none;stroke-width:0.25;stroke-linecap:round;stroke-linejoin:round;stroke-miterlimit:4;stroke-dasharray:none;stroke-opacity:1;display:inline"
           sodipodi:type="star" />
      </g>
      <rect
         style="opacity:1;fill:#ffffff;fill-opacity:1;stroke:none;stroke-width:0.5;stroke-linecap:round;stroke-linejoin:round;stroke-miterlimit:4;stroke-dasharray:none;stroke-opacity:1"
         id="rect3604"
         width="0.10496103"
         height="0.60214609"
         x="29.455418"
         y="28.891544"
         ry="0" />
    </g>
    <g
       transform="matrix(0.6949191,0,0,0.5623283,9.240476,6.6396118)"
       id="g3616"
       style="display:inline">
      <path
         sodipodi:type="star"
         style="opacity:1;fill:#ffffff;fill-opacity:1;stroke:none;stroke-width:0.25;stroke-linecap:round;stroke-linejoin:round;stroke-miterlimit:4;stroke-dasharray:none;stroke-opacity:1;display:inline"
         id="path3618"
         sodipodi:sides="3"
         sodipodi:cx="16.875"
         sodipodi:cy="5.75"
         sodipodi:r1="0.6502704"
         sodipodi:r2="0.3251352"
         sodipodi:arg1="0.95613337"
         sodipodi:arg2="2.0033309"
         inkscape:flatsided="false"
         inkscape:rounded="0"
         inkscape:randomized="0"
         d="M 17.25,6.28125 L 16.738712,6.0451923 L 16.227424,5.8091345 L 16.6875,5.484375 L 17.147576,5.1596154 L 17.198788,5.7204327 L 17.25,6.28125 z"
         transform="matrix(0.461555,-0.638092,0.654914,0.451569,12.10407,43.22973)" />
      <rect
         style="opacity:1;fill:#ffffff;fill-opacity:1;stroke:none;stroke-width:0.5;stroke-linecap:round;stroke-linejoin:round;stroke-miterlimit:4;stroke-dasharray:none;stroke-opacity:1"
         id="rect3620"
         width="0.15389533"
         height="0.88287503"
         x="24.306477"
         y="34.624207"
         ry="0" />
      <rect
         style="opacity:1;fill:#ffffff;fill-opacity:1;stroke:none;stroke-width:0.5;stroke-linecap:round;stroke-linejoin:round;stroke-miterlimit:4;stroke-dasharray:none;stroke-opacity:1;display:inline"
         id="rect3622"
         width="0.15389533"
         height="0.88287503"
         x="24.682838"
         y="34.620716"
         ry="0" />
    </g>
    <g
       id="layer2"
       inkscape:label="Picture"
       transform="translate(45.010661,-1.0169211)" />
    <g
       transform="matrix(1.315757,0,0,1.315757,88.66679,-8.553446)"
       id="g7288"
       style="fill:#a2a6a7;fill-opacity:1;display:inline" />
    <rect
       inkscape:r_cy="true"
       inkscape:r_cx="true"
       y="23.847883"
       x="122.4425"
       height="1.4142135"
       width="0"
       id="rect10271"
       style="color:#000000;fill:url(#linearGradient8012);fill-opacity:1;fill-rule:nonzero;stroke:none;stroke-width:0.69999999;stroke-linecap:round;stroke-linejoin:miter;marker:none;marker-start:none;marker-mid:none;marker-end:none;stroke-miterlimit:4;stroke-dasharray:none;stroke-dashoffset:0;stroke-opacity:1;visibility:visible;display:inline;overflow:visible" />
    <g
       id="g7355"
       inkscape:label="Picture"
       transform="translate(96.014388,0)" />
    <path
       style="opacity:0.8;fill:#000000;fill-opacity:1;stroke:none;stroke-width:1.49469243999999990;stroke-linecap:butt;stroke-linejoin:miter;stroke-miterlimit:4;stroke-dasharray:none;stroke-opacity:1"
       d="M 26,28 C 23.24,28 21,30.240001 21,33 C 21,35.76 23.24,38.000001 26,38 C 28.76,38 30.999999,35.760001 31,33 C 31,30.24 28.759999,27.999999 26,28 z M 25.9375,28.34375 C 28.43875,28.343751 30.46875,30.37375 30.46875,32.875 C 30.46875,35.37625 28.43875,37.40625 25.9375,37.40625 C 23.43625,37.40625 21.40625,35.37625 21.40625,32.875 C 21.406251,30.373751 23.43625,28.34375 25.9375,28.34375 z"
       id="path10806" />
    <g
       id="g11659"
       transform="matrix(1,0,0,0.7418933,0.7976983,10.525946)">
      <path
         id="path11270"
         d="M 23.334303,39.25 L 27.040699,39.25"
         style="fill:none;fill-rule:evenodd;stroke:#ffffff;stroke-width:0.21453914;stroke-linecap:butt;stroke-linejoin:miter;stroke-miterlimit:4;stroke-dasharray:none;stroke-opacity:1" />
      <path
         style="fill:none;fill-rule:evenodd;stroke:#ffffff;stroke-width:0.21453914;stroke-linecap:butt;stroke-linejoin:miter;stroke-miterlimit:4;stroke-dasharray:none;stroke-opacity:1"
         d="M 24.460955,39.6875 L 27.070299,39.6875"
         id="path11653" />
      <path
         id="path11655"
         d="M 24.460955,40.0625 L 27.070299,40.0625"
         style="fill:none;fill-rule:evenodd;stroke:#ffffff;stroke-width:0.21453914;stroke-linecap:butt;stroke-linejoin:miter;stroke-miterlimit:4;stroke-dasharray:none;stroke-opacity:1" />
    </g>
    <path
       inkscape:r_cy="true"
       inkscape:r_cx="true"
       d="M 44.6875,43.84375 A 7.15625,2.15625 0 1 1 30.375,43.84375 A 7.15625,2.15625 0 1 1 44.6875,43.84375 z"
       sodipodi:ry="2.15625"
       sodipodi:rx="7.15625"
       sodipodi:cy="43.84375"
       sodipodi:cx="37.53125"
       id="path5045"
       style="opacity:0.4835165;color:#000000;fill:url(#radialGradient11686);fill-opacity:1;fill-rule:evenodd;stroke:none;stroke-width:1;stroke-linecap:butt;stroke-linejoin:miter;marker:none;marker-start:none;marker-mid:none;marker-end:none;stroke-miterlimit:4;stroke-dasharray:none;stroke-dashoffset:0;stroke-opacity:1;visibility:visible;display:block;overflow:visible"
       sodipodi:type="arc"
       transform="matrix(1.1179039,0,0,1.1594203,-5.4563319,-5.3333351)" />
    <path
       sodipodi:type="arc"
       style="fill:none;fill-opacity:1;fill-rule:nonzero;stroke:#000000;stroke-width:1.3263135;stroke-linecap:butt;stroke-linejoin:miter;stroke-miterlimit:4;stroke-dasharray:none;stroke-dashoffset:0;stroke-opacity:1"
       id="path8891"
       sodipodi:cx="41.365746"
       sodipodi:cy="60.374371"
       sodipodi:rx="8.5736694"
       sodipodi:ry="8.5736694"
       d="M 49.939415,60.374371 A 8.5736694,8.5736694 0 1 1 32.792076,60.374371 A 8.5736694,8.5736694 0 1 1 49.939415,60.374371 z"
       transform="matrix(0.8119672,0,0,0.8119672,2.9123713,-9.5220085)" />
    <path
       sodipodi:type="arc"
       style="color:#000000;fill:url(#radialGradient11690);fill-opacity:1;fill-rule:evenodd;stroke:none;stroke-width:1;stroke-linecap:round;stroke-linejoin:miter;marker:none;marker-start:none;marker-mid:none;marker-end:none;stroke-miterlimit:4;stroke-dasharray:none;stroke-dashoffset:0;stroke-opacity:1;visibility:visible;display:block;overflow:visible"
       id="path9274"
       sodipodi:cx="32.75"
       sodipodi:cy="39.5"
       sodipodi:rx="5.3125"
       sodipodi:ry="5.3125"
       d="M 38.0625,39.5 A 5.3125,5.3125 0 1 1 27.4375,39.5 A 5.3125,5.3125 0 1 1 38.0625,39.5 z"
       inkscape:r_cx="true"
       inkscape:r_cy="true"
       transform="matrix(1.2235294,0,0,1.2235294,-3.570589,-8.8294113)" />
    <path
       inkscape:r_cy="true"
       inkscape:r_cx="true"
       sodipodi:type="arc"
       style="opacity:0.75;fill:none;fill-opacity:1;stroke:url(#linearGradient5121);stroke-width:0.84347129;stroke-linecap:round;stroke-linejoin:round;stroke-miterlimit:4;stroke-dasharray:none;stroke-opacity:1;display:inline"
       id="path5119"
       sodipodi:cx="13.727494"
       sodipodi:cy="41.231144"
       sodipodi:rx="5.0608273"
       sodipodi:ry="5.0608273"
       d="M 18.788321,41.231144 A 5.0608273,5.0608273 0 1 1 8.666667,41.231144 A 5.0608273,5.0608273 0 1 1 18.788321,41.231144 z"
       transform="matrix(1.1855769,0,0,1.1855769,20.225,-9.3826917)" />
    <rect
       ry="0.99999988"
       rx="0.99999988"
       y="49.926155"
       x="11.208439"
       height="1.9999998"
       width="10"
       id="rect10288"
       style="fill:url(#linearGradient11706);fill-opacity:1;fill-rule:nonzero;stroke:url(#linearGradient11708);stroke-width:1.00000012;stroke-linecap:butt;stroke-linejoin:miter;stroke-miterlimit:4;stroke-dasharray:none;stroke-dashoffset:0;stroke-opacity:1"
       transform="matrix(0.8660254,-0.5,0.5,0.8660254,0,0)" />
    <rect
       style="fill:url(#linearGradient11701);fill-opacity:1;fill-rule:nonzero;stroke:url(#linearGradient11703);stroke-width:1.00000012;stroke-linecap:butt;stroke-linejoin:miter;stroke-miterlimit:4;stroke-dasharray:none;stroke-dashoffset:0;stroke-opacity:1"
       id="rect9889"
       width="5"
       height="3"
       x="10.678703"
       y="49.408485"
       rx="1.5"
       ry="1.5"
       transform="matrix(0.8660254,-0.5,0.5,0.8660254,0,0)" />
  </g>
</svg>
