<?xml version="1.0" encoding="UTF-8" standalone="no"?>
<!-- Created with Inkscape (http://www.inkscape.org/) -->
<svg
   xmlns:dc="http://purl.org/dc/elements/1.1/"
   xmlns:cc="http://web.resource.org/cc/"
   xmlns:rdf="http://www.w3.org/1999/02/22-rdf-syntax-ns#"
   xmlns:svg="http://www.w3.org/2000/svg"
   xmlns="http://www.w3.org/2000/svg"
   xmlns:xlink="http://www.w3.org/1999/xlink"
   xmlns:sodipodi="http://sodipodi.sourceforge.net/DTD/sodipodi-0.dtd"
   xmlns:inkscape="http://www.inkscape.org/namespaces/inkscape"
   width="48"
   height="48"
   id="svg2160"
   sodipodi:version="0.32"
   inkscape:version="0.45.1"
   sodipodi:docbase="/home/bellaich/Tango/phones/motorola-v3i/scalable"
   sodipodi:docname="phone-motorola-v3i.svg"
   inkscape:output_extension="org.inkscape.output.svg.inkscape"
   version="1.0"
   inkscape:export-filename="/home/bellaich/Desktop/phone-motorola-v3i.png"
   inkscape:export-xdpi="90"
   inkscape:export-ydpi="90">
  <defs
     id="defs2162">
    <linearGradient
       inkscape:collect="always"
       id="linearGradient3759">
      <stop
         style="stop-color:#555753;stop-opacity:1;"
         offset="0"
         id="stop3761" />
      <stop
         style="stop-color:#555753;stop-opacity:0;"
         offset="1"
         id="stop3763" />
    </linearGradient>
    <linearGradient
       inkscape:collect="always"
       id="linearGradient8656">
      <stop
         style="stop-color:#eeeeec;stop-opacity:1;"
         offset="0"
         id="stop8658" />
      <stop
         style="stop-color:#eeeeec;stop-opacity:0;"
         offset="1"
         id="stop8660" />
    </linearGradient>
    <linearGradient
       id="linearGradient8507">
      <stop
         style="stop-color:#000000;stop-opacity:0;"
         offset="0"
         id="stop8509" />
      <stop
         id="stop8515"
         offset="0.5"
         style="stop-color:#000000;stop-opacity:0;" />
      <stop
         style="stop-color:#000000;stop-opacity:1;"
         offset="1"
         id="stop8511" />
    </linearGradient>
    <linearGradient
       inkscape:collect="always"
       id="linearGradient8456">
      <stop
         style="stop-color:#eeeeec;stop-opacity:1;"
         offset="0"
         id="stop8458" />
      <stop
         style="stop-color:#eeeeec;stop-opacity:0;"
         offset="1"
         id="stop8460" />
    </linearGradient>
    <linearGradient
       inkscape:collect="always"
       id="linearGradient8408">
      <stop
         style="stop-color:#8ae234;stop-opacity:1;"
         offset="0"
         id="stop8410" />
      <stop
         style="stop-color:#8ae234;stop-opacity:0;"
         offset="1"
         id="stop8412" />
    </linearGradient>
    <linearGradient
       inkscape:collect="always"
       id="linearGradient7417">
      <stop
         style="stop-color:#ffffff;stop-opacity:1;"
         offset="0"
         id="stop7419" />
      <stop
         style="stop-color:#ffffff;stop-opacity:0;"
         offset="1"
         id="stop7421" />
    </linearGradient>
    <linearGradient
       id="linearGradient22866">
      <stop
         style="stop-color:#000000;stop-opacity:1;"
         offset="0"
         id="stop22868" />
      <stop
         style="stop-color:#000000;stop-opacity:0.40000001;"
         offset="1"
         id="stop22870" />
    </linearGradient>
    <linearGradient
       id="linearGradient20823">
      <stop
         style="stop-color:#000000;stop-opacity:1;"
         offset="0"
         id="stop20825" />
      <stop
         style="stop-color:#000000;stop-opacity:0;"
         offset="1"
         id="stop20827" />
    </linearGradient>
    <linearGradient
       id="linearGradient20815">
      <stop
         style="stop-color:#ff7301;stop-opacity:1;"
         offset="0"
         id="stop20817" />
      <stop
         style="stop-color:#8e3f00;stop-opacity:1;"
         offset="1"
         id="stop20819" />
    </linearGradient>
    <linearGradient
       id="linearGradient16905">
      <stop
         style="stop-color:#000000;stop-opacity:1;"
         offset="0"
         id="stop16907" />
      <stop
         id="stop16913"
         offset="0.33027524"
         style="stop-color:#000000;stop-opacity:1;" />
      <stop
         style="stop-color:#3e3e3e;stop-opacity:0.7647059;"
         offset="0.80952781"
         id="stop8564" />
      <stop
         style="stop-color:#000000;stop-opacity:1;"
         offset="1"
         id="stop16909" />
    </linearGradient>
    <linearGradient
       id="linearGradient9136">
      <stop
         style="stop-color:#ffffff;stop-opacity:1;"
         offset="0"
         id="stop9138" />
      <stop
         id="stop9144"
         offset="0.5"
         style="stop-color:#f2f3f2;stop-opacity:1;" />
      <stop
         style="stop-color:#91978b;stop-opacity:1;"
         offset="1"
         id="stop9140" />
    </linearGradient>
    <linearGradient
       id="linearGradient4547"
       inkscape:collect="always">
      <stop
         id="stop4549"
         offset="0"
         style="stop-color:white;stop-opacity:1;" />
      <stop
         id="stop4551"
         offset="1"
         style="stop-color:white;stop-opacity:0;" />
    </linearGradient>
    <linearGradient
       inkscape:collect="always"
       xlink:href="#linearGradient8456"
       id="linearGradient8462"
       x1="40.646133"
       y1="40.739796"
       x2="40.563629"
       y2="42.085102"
       gradientUnits="userSpaceOnUse"
       gradientTransform="matrix(1,0,0,0.7463368,-2.0993398,10.687745)" />
    <radialGradient
       inkscape:collect="always"
       xlink:href="#linearGradient8408"
       id="radialGradient8749"
       gradientUnits="userSpaceOnUse"
       cx="45.09375"
       cy="38.78125"
       fx="45.09375"
       fy="38.78125"
       r="1.96875" />
    <linearGradient
       inkscape:collect="always"
       xlink:href="#linearGradient7417"
       id="linearGradient8751"
       gradientUnits="userSpaceOnUse"
       x1="45.127937"
       y1="36.937691"
       x2="45.16481"
       y2="40.086533" />
    <radialGradient
       inkscape:collect="always"
       xlink:href="#linearGradient8507"
       id="radialGradient8765"
       gradientUnits="userSpaceOnUse"
       gradientTransform="matrix(1.4119244,-7.688285e-2,7.6882793e-2,1.4119232,-21.556828,-12.507962)"
       cx="45.09375"
       cy="38.78125"
       fx="45.09375"
       fy="38.78125"
       r="1.96875" />
    <linearGradient
       inkscape:collect="always"
       xlink:href="#linearGradient7417"
       id="linearGradient8767"
       gradientUnits="userSpaceOnUse"
       x1="45.127937"
       y1="36.937691"
       x2="45.16481"
       y2="40.086533" />
    <filter
       inkscape:collect="always"
       x="-0.062122419"
       width="1.1242448"
       y="-0.53386458"
       height="2.0677292"
       id="filter3730">
      <feGaussianBlur
         inkscape:collect="always"
         stdDeviation="0.62916548"
         id="feGaussianBlur3732" />
    </filter>
    <linearGradient
       inkscape:collect="always"
       xlink:href="#linearGradient4547"
       id="linearGradient2759"
       gradientUnits="userSpaceOnUse"
       gradientTransform="matrix(0.6470585,0,0,0.5551228,8.0000008,10.01374)"
       x1="20.080355"
       y1="4.426187"
       x2="22.453627"
       y2="25.181578" />
    <linearGradient
       inkscape:collect="always"
       xlink:href="#linearGradient8656"
       id="linearGradient2763"
       gradientUnits="userSpaceOnUse"
       gradientTransform="matrix(0.7808712,0,0,0.7131122,0.6825071,1.0374602)"
       x1="16.983896"
       y1="30.789368"
       x2="17.065989"
       y2="3.9362223" />
    <linearGradient
       inkscape:collect="always"
       xlink:href="#linearGradient20823"
       id="linearGradient2772"
       gradientUnits="userSpaceOnUse"
       gradientTransform="matrix(0.8214281,0,0,0.6906026,42.571425,19.544807)"
       x1="-24.026669"
       y1="33.455204"
       x2="-24.026669"
       y2="19.483265" />
    <linearGradient
       inkscape:collect="always"
       xlink:href="#linearGradient16905"
       id="linearGradient2776"
       gradientUnits="userSpaceOnUse"
       gradientTransform="matrix(0.8947368,0,0,0.6860671,-62.439603,-4.8375416)"
       x1="107.16781"
       y1="25.441957"
       x2="86.130547"
       y2="25.506374" />
    <linearGradient
       inkscape:collect="always"
       xlink:href="#linearGradient3759"
       id="linearGradient3765"
       x1="29.321079"
       y1="-5.8526282"
       x2="24.196079"
       y2="11.272372"
       gradientUnits="userSpaceOnUse"
       gradientTransform="matrix(0.9619865,0,0,1,1.7648161,6.2680908e-7)" />
  </defs>
  <sodipodi:namedview
     id="base"
     pagecolor="#ffffff"
     bordercolor="#565656"
     borderopacity="1"
     inkscape:pageopacity="0.0"
     inkscape:pageshadow="2"
     inkscape:zoom="22.627416"
     inkscape:cx="20.092742"
     inkscape:cy="24.561052"
     inkscape:current-layer="layer1"
     showgrid="true"
     inkscape:document-units="px"
     inkscape:grid-bbox="true"
     showguides="true"
     inkscape:guide-bbox="true"
     inkscape:window-width="1449"
     inkscape:window-height="1382"
     inkscape:window-x="651"
     inkscape:window-y="48"
     width="48px"
     height="48px"
     borderlayer="true"
     inkscape:showpageshadow="true"
     gridspacingx="0.5px"
     gridspacingy="0.5px"
     gridempspacing="2" />
  <metadata
     id="metadata2165">
    <rdf:RDF>
      <cc:Work
         rdf:about="">
        <dc:format>image/svg+xml</dc:format>
        <dc:type
           rdf:resource="http://purl.org/dc/dcmitype/StillImage" />
        <dc:date>Sept 2007</dc:date>
        <dc:creator>
          <cc:Agent>
            <dc:title>F.Bellaiche &lt;frederic.bellaiche@gmail.com&gt;</dc:title>
          </cc:Agent>
        </dc:creator>
        <cc:license
           rdf:resource="http://creativecommons.org/licenses/GPL/2.0/" />
        <dc:title>Motorola V3i</dc:title>
      </cc:Work>
      <cc:License
         rdf:about="http://creativecommons.org/licenses/GPL/2.0/">
        <cc:permits
           rdf:resource="http://web.resource.org/cc/Reproduction" />
        <cc:permits
           rdf:resource="http://web.resource.org/cc/Distribution" />
        <cc:requires
           rdf:resource="http://web.resource.org/cc/Notice" />
        <cc:permits
           rdf:resource="http://web.resource.org/cc/DerivativeWorks" />
        <cc:requires
           rdf:resource="http://web.resource.org/cc/ShareAlike" />
        <cc:requires
           rdf:resource="http://web.resource.org/cc/SourceCode" />
      </cc:License>
    </rdf:RDF>
  </metadata>
  <g
     id="layer1"
     inkscape:label="Layer 1"
     inkscape:groupmode="layer">
    <path
       sodipodi:type="arc"
       style="opacity:0.3;fill:#2e3436;fill-opacity:0.74117647;fill-rule:evenodd;stroke:none;stroke-width:1px;stroke-linecap:butt;stroke-linejoin:miter;stroke-opacity:1;filter:url(#filter3730)"
       id="path2755"
       sodipodi:cx="23.290331"
       sodipodi:cy="42.343147"
       sodipodi:rx="12.153399"
       sodipodi:ry="1.4142137"
       d="M 35.44373 42.343147 A 12.153399 1.4142137 0 1 1  11.136931,42.343147 A 12.153399 1.4142137 0 1 1  35.44373 42.343147 z"
       transform="matrix(1.1930818,0,0,1.0857857,-3.2872702,-3.5111168)" />
    <path
       sodipodi:nodetypes="cccccssscccc"
       id="path6203"
       d="M 18.51021,3.5000005 L 29.31308,3.5000005 C 30.289959,3.5000005 32.559284,4.469222 33.228391,5.0099527 C 34.401619,4.9865785 35.545377,5.8806174 35.545377,6.8783428 L 35.545377,38.25169 C 35.545377,40.123291 33.758489,41.18952 31.768839,41.630033 C 28.910192,42.262941 28.155409,42.545375 24.520988,42.545375 C 20.886573,42.545375 20.099761,42.263771 17.231171,41.630033 C 15.240965,41.19035 13.454628,40.123291 13.454628,38.25169 L 13.454628,6.8783428 C 13.454628,5.8845391 14.389981,5.1309097 15.40449,5.1545467 C 16.131304,4.5043689 17.528948,3.5000005 18.51021,3.5000005 z "
       style="fill:#babdb6;fill-opacity:1;stroke:#000000;stroke-width:0.90925074;stroke-linecap:round;stroke-miterlimit:4;stroke-opacity:1" />
    <path
       style="opacity:1;fill:url(#linearGradient3765);fill-opacity:1;stroke:none;stroke-width:0.99999994;stroke-linecap:round;stroke-miterlimit:4;stroke-opacity:1"
       d="M 18.25998,3.5077869 C 17.238499,3.5077869 15.791124,4.5104351 15.034522,5.1678867 C 13.978434,5.1439852 13.000001,5.909304 13.000001,6.9142255 L 13.000001,12.411959 C 14.994794,9.8316795 19.377006,8.0353318 24.487596,8.0353318 C 29.59819,8.0353318 34.005212,9.8316795 36.000001,12.411959 L 36.000001,6.9142255 C 36.000001,5.9053383 34.814638,4.9933327 33.593314,5.0169686 C 32.896782,4.4701886 30.516381,3.5077869 29.499463,3.5077869 L 18.25998,3.5077869 z "
       id="rect2168"
       sodipodi:nodetypes="ccccsccccc" />
    <path
       style="opacity:1;fill:url(#linearGradient2776);fill-opacity:1;stroke:none;stroke-width:1.31792343;stroke-linecap:round;stroke-linejoin:round;stroke-miterlimit:4;stroke-opacity:1"
       d="M 16.000001,13.997338 L 33.000001,13.997338 L 33.000001,28.689132 C 27.236529,30.6191 21.588634,30.244825 16.000001,28.689132 L 16.000001,13.997338 z "
       id="rect13026"
       sodipodi:nodetypes="ccccc" />
    <path
       style="opacity:0.44615383;fill:url(#linearGradient2772);fill-opacity:1;stroke:none;stroke-width:0.99999994;stroke-linecap:round;stroke-miterlimit:4;stroke-dasharray:none;stroke-opacity:1"
       d="M 13.000001,33.000001 L 13.000001,37.680243 C 13.000001,39.574678 14.770503,41.043265 16.882479,41.369512 C 21.907902,42.145815 26.883007,42.272143 32.09295,41.369512 C 34.193883,41.005523 35.999992,39.574678 36.000001,37.680243 L 36.000001,33.280558 C 27.488615,36.396964 19.686492,36.828809 13.000001,33.000001 z "
       id="rect3605"
       sodipodi:nodetypes="ccssccc" />
    <path
       style="fill:none;fill-opacity:1;stroke:#888a85;stroke-width:0.99999994;stroke-linecap:round;stroke-miterlimit:4;stroke-dasharray:none;stroke-opacity:1"
       d="M 18.534816,3.5000007 L 29.293306,3.5000007 C 30.266171,3.5000007 32.526175,4.4680958 33.192534,5.0081982 C 34.360944,4.9848512 35.500003,5.8778511 35.500003,6.8744172 L 35.500003,38.211307 C 35.500003,40.080733 33.720454,41.145723 31.738977,41.585724 C 28.892075,42.217897 28.140394,42.500002 24.520902,42.500002 C 20.901416,42.500002 20.117835,42.218726 17.26103,41.585724 C 15.279002,41.146552 13.500001,40.080733 13.500001,38.211307 L 13.500001,6.8744172 C 13.500001,5.8817683 14.431515,5.1290146 15.441854,5.1526242 C 16.165682,4.5032019 17.557585,3.5000007 18.534816,3.5000007 z "
       id="path16915"
       sodipodi:nodetypes="cccccssscccc" />
    <rect
       style="fill:#3465a4;fill-opacity:1;stroke:none;stroke-width:1;stroke-linecap:round;stroke-linejoin:round;stroke-miterlimit:4;stroke-dasharray:none;stroke-opacity:1"
       id="rect23869"
       width="13"
       height="9"
       x="18"
       y="16" />
    <path
       style="fill:#2e3436;fill-opacity:1;stroke:none;stroke-width:0.5;stroke-linecap:round;stroke-linejoin:round;stroke-miterlimit:4;stroke-dasharray:none;stroke-opacity:1"
       d="M 29.454354,4.0170741 L 29.429974,6.1133851 C 29.431744,6.1528724 29.45848,6.1898349 29.503114,6.2145086 C 29.518148,6.2216767 29.534559,6.2273499 29.551871,6.2313622 C 31.985335,6.741673 34.530726,8.2469675 35.652492,9.2387593 C 35.682482,9.2656133 35.726006,9.2836673 35.774392,9.2893203 C 35.853204,9.2964156 35.930351,9.2697473 35.96943,9.2219053 C 35.982342,9.2063413 35.990629,9.1891513 35.993809,9.1713443 C 36.002063,9.1492343 36.002063,9.1260383 35.993809,9.1039283 C 35.988006,9.0919583 35.979799,9.0806123 35.96943,9.0702203 C 34.804958,8.0406672 32.23351,6.5538558 29.820051,6.0291159 L 29.844431,4.0168545 L 18.868308,4.0000006 L 18.892686,6.0361382 C 16.2504,6.5504541 14.297818,7.9691234 13.052422,9.0702203 C 13.030816,9.0842903 13.014139,9.1015833 13.003664,9.1207813 C 12.991595,9.1632383 13.009732,9.2071193 13.052422,9.2387593 C 13.059813,9.2448643 13.067971,9.2505033 13.076802,9.2556123 C 13.091835,9.2627813 13.108249,9.2684543 13.125563,9.2724673 C 13.155381,9.2838783 13.189005,9.2896896 13.223082,9.2893203 C 13.248841,9.2871223 13.273706,9.2813933 13.296221,9.2724673 C 13.323992,9.2652243 13.349008,9.2536963 13.36936,9.2387593 C 14.566242,8.1805548 16.480911,6.7705459 19.136485,6.272093 C 19.145316,6.2669837 19.153475,6.2613441 19.160865,6.2552394 C 19.178179,6.2512263 19.194594,6.2455533 19.209624,6.2383851 C 19.24847,6.217656 19.274585,6.1875655 19.282763,6.1541159 C 19.283272,6.1485034 19.282827,6.1428969 19.282763,6.1372617 L 19.258383,4.0002202"
       id="path9146"
       sodipodi:nodetypes="cccsssssssscccccssssssscsssc" />
    <path
       sodipodi:nodetypes="cccccssscccc"
       id="path8580"
       d="M 19.053612,4.4874706 L 28.782997,4.4874706 C 29.662807,4.4874706 32.227894,5.4475422 32.830512,5.9646076 C 34.300188,5.9843601 34.51791,6.5697575 34.487432,7.5238167 L 34.500001,37.998123 C 34.500001,39.787813 32.786669,40.333342 30.994729,40.754576 C 28.420146,41.359785 27.740365,41.499999 24.4671,41.499999 C 21.193834,41.499999 20.464296,41.336996 17.883414,40.722111 C 16.932531,40.495566 14.463891,40.183923 14.500401,37.832502 L 14.500401,7.5238167 C 14.500401,6.5735076 15.342813,5.8528611 16.25651,5.8754638 C 16.911097,5.2537414 18.169861,4.4874706 19.053612,4.4874706 z "
       style="opacity:0.5;fill:none;fill-opacity:1;stroke:url(#linearGradient2763);stroke-width:1;stroke-linecap:round;stroke-miterlimit:4;stroke-dasharray:none;stroke-opacity:1" />
    <path
       style="opacity:0.74230766;fill:url(#linearGradient2759);fill-opacity:1;fill-rule:evenodd;stroke:none;stroke-width:1px;stroke-linecap:butt;stroke-linejoin:miter;stroke-opacity:1"
       d="M 19.000001,23.000001 C 20.910365,22.936559 24.253503,20.17709 30.000001,19.92332 L 30.000001,17.000001 L 19.000001,17.000001 L 19.000001,23.000001 z "
       id="path5268"
       sodipodi:nodetypes="ccccc" />
    <path
       sodipodi:type="arc"
       style="fill:#d3d7cf;fill-opacity:0.75;fill-rule:evenodd;stroke:none;stroke-width:1px;stroke-linecap:butt;stroke-linejoin:miter;stroke-opacity:1"
       id="path3753"
       sodipodi:cx="-0.68750006"
       sodipodi:cy="14.468748"
       sodipodi:rx="1.3125"
       sodipodi:ry="1.28125"
       d="M 0.62499994 14.468748 A 1.3125 1.28125 0 1 1  -2.0000001,14.468748 A 1.3125 1.28125 0 1 1  0.62499994 14.468748 z"
       transform="matrix(1.1428572,0,0,1.1707317,25.285715,10.560979)" />
    <path
       style="fill:#070808;fill-opacity:0.98814231;fill-rule:evenodd;stroke:none;stroke-width:1px;stroke-linecap:butt;stroke-linejoin:miter;stroke-opacity:1"
       d="M 22.086087,5.0000006 L 21.000001,8.0000006 L 28,8.0000006 L 27.103103,5.0000006 L 22.086087,5.0000006 z "
       id="path3755"
       sodipodi:nodetypes="ccccc" />
    <path
       transform="matrix(1.1428572,0,0,1.1707317,25.285715,-10.439021)"
       d="M 0.62499994 14.468748 A 1.3125 1.28125 0 1 1  -2.0000001,14.468748 A 1.3125 1.28125 0 1 1  0.62499994 14.468748 z"
       sodipodi:ry="1.28125"
       sodipodi:rx="1.3125"
       sodipodi:cy="14.468748"
       sodipodi:cx="-0.68750006"
       id="path3757"
       style="opacity:0.58846154;fill:#d3d7cf;fill-opacity:0.75;fill-rule:evenodd;stroke:none;stroke-width:1px;stroke-linecap:butt;stroke-linejoin:miter;stroke-opacity:1"
       sodipodi:type="arc" />
    <path
       style="fill:none;fill-opacity:1;stroke:#555753;stroke-width:0.90925068;stroke-linecap:round;stroke-miterlimit:4;stroke-dasharray:none;stroke-opacity:1"
       d="M 34.545377,33.668311 C 27.110588,36.041907 20.295351,36.370821 14.454627,33.454625"
       id="path3222"
       sodipodi:nodetypes="cc" />
  </g>
</svg>
