<?xml version="1.0" encoding="UTF-8" standalone="no"?>
<!-- Created with Inkscape (http://www.inkscape.org/) -->

<svg
   xmlns:dc="http://purl.org/dc/elements/1.1/"
   xmlns:cc="http://creativecommons.org/ns#"
   xmlns:rdf="http://www.w3.org/1999/02/22-rdf-syntax-ns#"
   xmlns:svg="http://www.w3.org/2000/svg"
   xmlns="http://www.w3.org/2000/svg"
   xmlns:sodipodi="http://sodipodi.sourceforge.net/DTD/sodipodi-0.dtd"
   xmlns:inkscape="http://www.inkscape.org/namespaces/inkscape"
   width="128"
   height="128"
   id="svg3487"
   version="1.1"
   inkscape:version="0.47pre4 r22446"
   inkscape:export-filename="/home/knome/Desktop/xubuntu-logo-menu.png"
   inkscape:export-xdpi="90"
   inkscape:export-ydpi="90"
   sodipodi:docname="xubuntu-logo-menu-unclean.svg">
  <defs
     id="defs3489">
    <inkscape:perspective
       sodipodi:type="inkscape:persp3d"
       inkscape:vp_x="0 : 526.18109 : 1"
       inkscape:vp_y="0 : 1000 : 0"
       inkscape:vp_z="744.09448 : 526.18109 : 1"
       inkscape:persp3d-origin="372.04724 : 350.78739 : 1"
       id="perspective3495" />
    <inkscape:perspective
       id="perspective3478"
       inkscape:persp3d-origin="0.5 : 0.33333333 : 1"
       inkscape:vp_z="1 : 0.5 : 1"
       inkscape:vp_y="0 : 1000 : 0"
       inkscape:vp_x="0 : 0.5 : 1"
       sodipodi:type="inkscape:persp3d" />
  </defs>
  <sodipodi:namedview
     id="base"
     pagecolor="#000000"
     bordercolor="#666666"
     borderopacity="1.0"
     inkscape:pageopacity="0"
     inkscape:pageshadow="2"
     inkscape:zoom="1.979899"
     inkscape:cx="191.25364"
     inkscape:cy="27.677735"
     inkscape:document-units="px"
     inkscape:current-layer="layer1"
     showgrid="false"
     inkscape:window-width="1920"
     inkscape:window-height="1128"
     inkscape:window-x="1920"
     inkscape:window-y="25"
     inkscape:window-maximized="1" />
  <metadata
     id="metadata3492">
    <rdf:RDF>
      <cc:Work
         rdf:about="">
        <dc:format>image/svg+xml</dc:format>
        <dc:type
           rdf:resource="http://purl.org/dc/dcmitype/StillImage" />
        <dc:title></dc:title>
      </cc:Work>
    </rdf:RDF>
  </metadata>
  <g
     inkscape:label="Layer 1"
     inkscape:groupmode="layer"
     id="layer1"
     transform="translate(-196.57143,-82.076462)">
    <rect
       style="fill:#000000;fill-opacity:1;stroke:none"
       id="rect3468"
       width="128"
       height="128"
       x="196.57143"
       y="82.076462"
       inkscape:export-filename="/home/knome/Desktop/menu-icon.png"
       inkscape:export-xdpi="240.00002"
       inkscape:export-ydpi="240.00002" />
    <g
       style="fill:#9bc0f9;fill-opacity:1"
       id="g3460"
       transform="matrix(0.15356425,0,0,0.15356425,204.83337,12.129124)"
       inkscape:export-filename="/home/knome/Desktop/menu-icon.png"
       inkscape:export-xdpi="240.00002"
       inkscape:export-ydpi="240.00002">
      <path
         inkscape:export-ydpi="1026.8827"
         inkscape:export-xdpi="1026.8827"
         inkscape:export-filename="/home/knome/Stuff/xubuntu-mouse-draft-2.png"
         style="fill:#9bc0f9;fill-opacity:1;fill-rule:evenodd;stroke:none"
         id="path3462"
         d="m 688.47816,754.63047 c -3.6883,-3.05084 -32.61141,42.58359 -26.21581,47.31924 3.84563,2.877 27.86336,-45.69239 26.21581,-47.31924 z" />
      <path
         inkscape:export-ydpi="1026.8827"
         inkscape:export-xdpi="1026.8827"
         inkscape:export-filename="/home/knome/Stuff/xubuntu-mouse-draft-2.png"
         style="fill:#9bc0f9;fill-opacity:1;fill-rule:evenodd;stroke:none"
         id="path3464"
         d="m 656.53044,748.64366 c -1.82544,-2.11946 -11.51203,47.05843 -7.03308,49.23583 3.84561,2.87701 10.54349,-46.6776 7.03308,-49.23583 z" />
      <path
         id="path3466"
         d="m 37.625,704.15853 c -3.443355,1.88538 27.552632,22.09367 85.46875,45.9375 57.91987,23.84382 137.92965,84.27698 131.65625,94.03125 -18.81237,26.49691 -29.90817,58.18792 -22.25,112.46875 1.38111,9.55483 -28.31634,26.14558 -26.15625,40.5625 1.80637,10.96977 33.19295,-10.87512 36.625,-6.5625 2.0999,7.74098 -16.79186,46.91897 -9.15625,49.71877 5.58462,1.6596 54.67873,-46.58661 57.53125,-45.78127 80.96219,24.47607 186.3041,5.99397 188.34375,5.21875 -0.19196,-0.42524 75.80178,35.72642 82.40625,31.40622 16.65983,-18.0409 -31.57326,-43.46798 -23.53125,-53.62497 3.52614,-5.31744 58.74796,19.9643 61.46875,13.0625 3.95898,-11.94824 -25.64187,-37.03634 -30.09375,-44.46875 -3.87242,-6.85285 -4.71239,-17.9194 5.21875,-24.84375 9.9349,-6.92434 111.50996,-45.77552 107.25,-75.84375 -7.36468,-54.63458 -128.82052,-58.18257 -130.78125,-62.78125 -0.92191,-2.1601 5.3446,-78.12685 -30.09375,-64.09375 -21.81925,8.12105 -4.00496,56.52301 -2.59375,62.78125 1.30204,5.7615 -9.70773,5.15389 -11.78125,2.625 -4.6287,-5.65237 -19.9116,-56.10291 -37.9375,-47.09375 -25.28137,13.939 -1.48853,57.43256 -6.53125,58.84375 -9.36668,5.23466 -8.83606,18.02087 -16.34375,28.4375 -12.38092,17.74363 -105.021,-8.31111 -134.96875,-10.125 -21.92462,-1.29455 -42.8956,16.69428 -44.875,14.40625 -26.69638,-26.73399 -81.9285,-73.2869 -142.4375,-88.75 C 90.129469,730.48114 39.649614,703.81985 37.625,704.15853 z m 529.46875,102.21875 c 5.78951,-1e-5 10.46875,5.34579 10.46875,11.9375 2e-5,6.59167 -4.67924,11.9375 -10.46875,11.9375 -5.78954,0 -10.5,-5.34583 -10.5,-11.9375 10e-6,-6.59171 4.71046,-11.9375 10.5,-11.9375 z m -23.53125,7.25 c 4.45553,19.23387 11.41036,25.36339 32.28125,24.75 -26.56462,24.35939 -42.70923,-17.37781 -32.28125,-24.75 z M 601,863.90853 c 1.08692,0.0412 1.92367,0.28894 2.46875,0.8125 10.46545,3.79336 -44.97502,23.75615 -45.34375,20.9375 -0.57648,-2.01216 32.36808,-22.14821 42.875,-21.75 z m 5.625,12.78125 c 0.57282,-0.0444 1.07711,0.032 1.5,0.25 9.87845,9.8145 -31.27532,31.57642 -30.8125,30.8125 -3.31635,-2.00393 20.72016,-30.39586 29.3125,-31.0625 z"
         style="fill:#9bc0f9;fill-opacity:1;fill-rule:evenodd;stroke:none" />
    </g>
  </g>
</svg>
