<?xml version="1.0" encoding="UTF-8" standalone="no"?>
<!-- Created with Inkscape (http://www.inkscape.org/) -->

<svg
   xmlns:dc="http://purl.org/dc/elements/1.1/"
   xmlns:cc="http://creativecommons.org/ns#"
   xmlns:rdf="http://www.w3.org/1999/02/22-rdf-syntax-ns#"
   xmlns:svg="http://www.w3.org/2000/svg"
   xmlns="http://www.w3.org/2000/svg"
   xmlns:sodipodi="http://sodipodi.sourceforge.net/DTD/sodipodi-0.dtd"
   xmlns:inkscape="http://www.inkscape.org/namespaces/inkscape"
   width="64"
   height="64"
   id="svg3564"
   version="1.1"
   inkscape:version="0.48.2 r9819"
   sodipodi:docname="logo-icon-invert-small.svg">
  <defs
     id="defs3566" />
  <sodipodi:namedview
     id="base"
     pagecolor="#ffffff"
     bordercolor="#666666"
     borderopacity="1.0"
     inkscape:pageopacity="0.0"
     inkscape:pageshadow="2"
     inkscape:zoom="2.8284271"
     inkscape:cx="50.903658"
     inkscape:cy="35.322863"
     inkscape:document-units="px"
     inkscape:current-layer="layer1"
     showgrid="false"
     fit-margin-top="10"
     fit-margin-left="10"
     fit-margin-right="10"
     fit-margin-bottom="10"
     inkscape:window-width="1014"
     inkscape:window-height="816"
     inkscape:window-x="2199"
     inkscape:window-y="115"
     inkscape:window-maximized="0" />
  <metadata
     id="metadata3569">
    <rdf:RDF>
      <cc:Work
         rdf:about="">
        <dc:format>image/svg+xml</dc:format>
        <dc:type
           rdf:resource="http://purl.org/dc/dcmitype/StillImage" />
        <dc:title></dc:title>
      </cc:Work>
    </rdf:RDF>
  </metadata>
  <g
     inkscape:label="Layer 1"
     inkscape:groupmode="layer"
     id="layer1"
     transform="translate(-423.98737,-497.26317)">
    <path
       style="fill:#ffffff;fill-opacity:1;stroke:none"
       d="m 455.98737,502.26317 c -14.91168,0 -27,12.08832 -27,27 0,14.91168 12.08832,27 27,27 14.91168,0 27,-12.08832 27,-27 0,-14.91168 -12.08832,-27 -27,-27 z m 7.73437,9.84375 c 0.0506,-0.006 0.11487,0.002 0.14063,0 a 0.55841944,0.55844449 0 0 1 0.0703,0 c 0.45825,-0.027 0.6572,0.19728 0.84375,0.42187 0.18705,0.22582 0.33519,0.49982 0.38671,0.8086 a 0.55841944,0.55844449 0 0 1 0,0.0703 c 0.22609,3.47493 -0.39178,6.95884 -1.23046,10.26563 l 0,0.14063 -0.0703,0 c -0.0773,0.48232 -0.33453,0.91426 -0.73829,1.1953 -0.22581,0.15713 -0.47453,0.34898 -0.80859,0.28125 -0.33403,-0.0687 -0.59669,-0.32379 -0.77343,-0.6328 a 0.55841944,0.55844449 0 0 1 0,-0.0703 0.55841944,0.55844449 0 0 1 -0.0703,-0.0703 c -0.64085,-2.19021 0.12248,-4.38798 0.31641,-6.29296 a 0.55841944,0.55844449 0 0 1 0,-0.0703 c 0.40595,-1.71598 0.41353,-3.90471 1.47656,-5.69532 0.0638,-0.10309 0.12416,-0.19046 0.28125,-0.28126 0.0785,-0.0453 0.12515,-0.0636 0.17578,-0.0703 z m 8.08594,1.96875 0.0703,0 a 0.48511428,0.48513605 0 0 1 0.0703,0 c 0.43393,-0.0539 0.92292,0.1842 1.08984,0.52735 0.1669,0.34215 0.13991,0.68079 0,1.01953 -1.38946,3.54315 -3.07116,7.21322 -5.34375,10.33593 -0.0196,0.0293 0.0245,0.0433 0,0.0703 -0.31834,0.50859 -0.92965,0.74318 -1.44141,0.63282 -0.54365,-0.11782 -1.01953,-0.62554 -1.01953,-1.30078 0.16987,-2.75452 1.85836,-5.00961 3.0586,-7.13672 a 0.48511428,0.48513605 0 0 1 0,-0.0703 c 0.95869,-1.24545 1.69123,-3.26174 3.51562,-4.07813 z m -21.33985,1.19531 c 0.1177,0.002 0.24605,0.0229 0.35157,0.0351 0.70151,0.0491 1.24416,0.32873 1.65235,0.80861 0.68676,0.80656 1.01937,2.02137 1.23046,3.26952 0.2088,1.243 0.28941,2.57613 0.31641,3.58595 l 0,1.23046 c -2.4e-4,0.0293 0,0.0482 0,0.0703 0,0.0565 -0.027,0.0916 0,0.14062 0.0296,0.0516 0.0914,0.076 0.14063,0.10543 0.0392,0.0245 0.0288,0.0658 0.0703,0.0703 0.0769,0.0245 0.20921,0.0458 0.35157,0.0703 0.48107,0.0884 1.22026,0.0833 2.03905,0.21093 1.63811,0.2548 3.80344,0.72003 6.01172,1.30079 2.20925,0.58099 4.41071,1.41251 6.1875,2.5664 1.77016,1.14971 3.13526,2.67311 3.41015,4.67579 0.1738,1.24225 -0.8139,2.48267 -2.10937,3.62109 -1.29325,1.13671 -2.9925,2.19726 -4.8164,3.19922 -1.82318,1.00121 -3.72781,1.92906 -5.23828,2.63672 -0.75526,0.35394 -1.38571,0.56289 -1.89844,0.80859 -2.60981,1.05276 -5.58091,1.97689 -8.6836,2.60156 -0.12272,0 -0.39725,0.0954 -0.52734,0.10542 -15.79909,1.36916 -8.4375,-18.17579 -8.4375,-18.17579 9.1e-4,0 0.36781,-0.92403 0.52734,-1.47655 0.0319,-0.12518 0.10543,-0.50395 0.10543,-0.63282 -0.022,-0.13009 -0.10948,-0.33771 -0.17578,-0.59765 -0.1544,-0.61658 -0.37272,-1.40967 -0.52735,-2.32031 -0.15221,-0.91263 -0.27897,-1.90332 -0.0703,-2.81251 0.20765,-0.89543 0.74252,-1.76085 1.6875,-2.28516 0.36569,-0.18168 0.80646,-0.26419 1.16015,-0.17577 0.36644,0.0908 0.78181,0.32691 1.08984,0.59765 0.61631,0.54197 1.10955,1.34888 1.58204,2.21485 0.47076,0.86252 0.90132,1.78236 1.23047,2.53125 0.16493,0.37603 0.26642,0.69344 0.38671,0.94922 0.054,0.11291 0.10616,0.25251 0.14063,0.3164 0.0296,0.0614 0,0.0898 0,0.0703 0.0319,0.0517 0.0914,0.0409 0.14062,0.0703 -0.0319,-0.0245 0.14046,0.0458 0.2461,0.0703 0.15488,0.0393 0.23687,0.0804 0.38672,0.0703 0.0761,0 0.185,-0.0236 0.24609,-0.0703 0.027,0 -0.027,-0.0556 0,-0.0703 0.0491,-0.0589 0.0703,-0.067 0.0703,-0.14064 l 0,-0.17578 c -0.0637,-0.22336 -0.23766,-0.55768 -0.42188,-1.23046 -0.21428,-0.77763 -0.3899,-1.75472 -0.52734,-2.7422 -0.13748,-0.98942 -0.2062,-1.97848 0,-2.84765 0.2025,-0.84953 0.69865,-1.57664 1.54687,-1.89843 0.23983,-0.0933 0.54763,-0.27444 0.77344,-0.31642 0.11402,-0.0207 0.23386,-0.0374 0.35156,-0.0351 z"
       id="path3394"
       inkscape:connector-curvature="0" />
  </g>
</svg>
